%TF.GenerationSoftware,KiCad,Pcbnew,8.0.0*%
%TF.CreationDate,2024-04-01T22:39:33+02:00*%
%TF.ProjectId,Parkside_Contacts_Fused,5061726b-7369-4646-955f-436f6e746163,rev?*%
%TF.SameCoordinates,Original*%
%TF.FileFunction,Legend,Bot*%
%TF.FilePolarity,Positive*%
%FSLAX46Y46*%
G04 Gerber Fmt 4.6, Leading zero omitted, Abs format (unit mm)*
G04 Created by KiCad (PCBNEW 8.0.0) date 2024-04-01 22:39:33*
%MOMM*%
%LPD*%
G01*
G04 APERTURE LIST*
%ADD10C,0.000000*%
%ADD11C,3.000000*%
%ADD12C,1.980000*%
%ADD13R,1.980000X1.980000*%
G04 APERTURE END LIST*
D10*
%TO.C,G\u002A\u002A\u002A*%
G36*
X94298493Y-122508369D02*
G01*
X94536885Y-122528478D01*
X94774951Y-122560042D01*
X95012340Y-122603099D01*
X95248702Y-122657686D01*
X95302007Y-122671660D01*
X95529788Y-122738759D01*
X95754002Y-122816805D01*
X95974220Y-122905537D01*
X96190007Y-123004695D01*
X96400933Y-123114016D01*
X96606565Y-123233241D01*
X96806472Y-123362107D01*
X97000220Y-123500354D01*
X97187377Y-123647720D01*
X97367512Y-123803945D01*
X97540193Y-123968767D01*
X97704987Y-124141925D01*
X97775915Y-124221848D01*
X97929018Y-124406909D01*
X98072541Y-124598385D01*
X98206341Y-124795898D01*
X98330270Y-124999073D01*
X98444186Y-125207533D01*
X98547941Y-125420901D01*
X98641391Y-125638801D01*
X98724391Y-125860858D01*
X98796795Y-126086693D01*
X98858459Y-126315932D01*
X98909236Y-126548198D01*
X98948983Y-126783114D01*
X98977553Y-127020304D01*
X98994802Y-127259391D01*
X99000583Y-127500000D01*
X99000418Y-127540571D01*
X98992673Y-127780616D01*
X98973424Y-128019901D01*
X98942767Y-128257866D01*
X98900799Y-128493955D01*
X98847617Y-128727611D01*
X98783317Y-128958274D01*
X98707998Y-129185389D01*
X98647785Y-129344716D01*
X98553202Y-129567109D01*
X98448329Y-129784101D01*
X98333313Y-129995444D01*
X98208300Y-130200886D01*
X98073438Y-130400176D01*
X97928872Y-130593065D01*
X97774750Y-130779302D01*
X97616229Y-130953410D01*
X97446182Y-131123342D01*
X97269017Y-131284213D01*
X97085038Y-131435868D01*
X96894550Y-131578151D01*
X96697856Y-131710905D01*
X96495262Y-131833974D01*
X96287072Y-131947203D01*
X96073590Y-132050435D01*
X95855121Y-132143515D01*
X95631969Y-132226286D01*
X95404438Y-132298592D01*
X95172833Y-132360277D01*
X94937459Y-132411186D01*
X94698620Y-132451161D01*
X94456619Y-132480048D01*
X94418222Y-132483459D01*
X94327554Y-132489811D01*
X94229976Y-132494606D01*
X94128124Y-132497815D01*
X94024633Y-132499409D01*
X93937544Y-132499365D01*
X93922138Y-132499357D01*
X93823274Y-132497632D01*
X93730676Y-132494204D01*
X93646979Y-132489043D01*
X93576511Y-132483113D01*
X93404319Y-132464587D01*
X93231643Y-132440496D01*
X93061375Y-132411318D01*
X92896407Y-132377529D01*
X92739628Y-132339604D01*
X92620508Y-132306784D01*
X92389579Y-132234136D01*
X92163326Y-132150899D01*
X91942042Y-132057257D01*
X91726022Y-131953392D01*
X91515560Y-131839487D01*
X91310950Y-131715724D01*
X91112488Y-131582287D01*
X90920467Y-131439359D01*
X90735181Y-131287121D01*
X90556926Y-131125758D01*
X90385995Y-130955451D01*
X90222683Y-130776384D01*
X90092730Y-130620540D01*
X89948014Y-130430351D01*
X89812921Y-130233866D01*
X89687607Y-130031465D01*
X89572223Y-129823528D01*
X89466923Y-129610433D01*
X89371860Y-129392560D01*
X89287187Y-129170287D01*
X89213057Y-128943994D01*
X89149625Y-128714060D01*
X89097042Y-128480864D01*
X89055462Y-128244785D01*
X89025039Y-128006202D01*
X89005925Y-127765495D01*
X89001644Y-127668469D01*
X89000417Y-127560688D01*
X89404854Y-127560688D01*
X89405265Y-127618058D01*
X89406227Y-127668665D01*
X89407766Y-127710062D01*
X89408335Y-127720958D01*
X89426564Y-127956325D01*
X89455991Y-128188411D01*
X89496620Y-128417230D01*
X89548453Y-128642795D01*
X89611495Y-128865122D01*
X89685748Y-129084224D01*
X89771215Y-129300115D01*
X89793449Y-129351552D01*
X89891021Y-129559240D01*
X89998361Y-129760857D01*
X90115148Y-129956123D01*
X90241060Y-130144755D01*
X90375777Y-130326474D01*
X90518975Y-130500998D01*
X90670335Y-130668046D01*
X90829534Y-130827337D01*
X90996252Y-130978590D01*
X91170166Y-131121525D01*
X91350955Y-131255860D01*
X91538298Y-131381314D01*
X91731873Y-131497606D01*
X91931359Y-131604456D01*
X92136435Y-131701582D01*
X92346778Y-131788703D01*
X92562068Y-131865538D01*
X92781983Y-131931807D01*
X92807014Y-131938594D01*
X93031631Y-131992873D01*
X93257384Y-132035667D01*
X93483881Y-132067048D01*
X93710731Y-132087087D01*
X93937544Y-132095855D01*
X94163926Y-132093424D01*
X94389488Y-132079865D01*
X94613838Y-132055249D01*
X94836585Y-132019648D01*
X95057338Y-131973133D01*
X95275704Y-131915776D01*
X95491294Y-131847647D01*
X95703715Y-131768818D01*
X95912577Y-131679361D01*
X96117488Y-131579346D01*
X96318057Y-131468845D01*
X96513892Y-131347930D01*
X96704603Y-131216671D01*
X96831138Y-131121189D01*
X96995926Y-130985577D01*
X97155830Y-130841092D01*
X97309303Y-130689213D01*
X97454799Y-130531418D01*
X97590772Y-130369187D01*
X97596086Y-130362509D01*
X97735831Y-130177248D01*
X97865637Y-129986023D01*
X97985359Y-129789184D01*
X98094849Y-129587079D01*
X98193961Y-129380061D01*
X98282547Y-129168477D01*
X98360460Y-128952678D01*
X98427554Y-128733014D01*
X98483682Y-128509835D01*
X98528698Y-128283491D01*
X98562453Y-128054331D01*
X98582801Y-127849087D01*
X98594613Y-127619525D01*
X98594954Y-127390382D01*
X98583920Y-127162076D01*
X98561608Y-126935025D01*
X98528113Y-126709649D01*
X98483530Y-126486367D01*
X98427955Y-126265597D01*
X98361484Y-126047758D01*
X98284212Y-125833268D01*
X98196235Y-125622547D01*
X98097648Y-125416014D01*
X97988547Y-125214086D01*
X97869028Y-125017184D01*
X97757857Y-124851967D01*
X97620385Y-124666935D01*
X97474186Y-124489467D01*
X97319562Y-124319833D01*
X97156815Y-124158303D01*
X96986249Y-124005148D01*
X96808165Y-123860635D01*
X96622867Y-123725037D01*
X96430656Y-123598621D01*
X96231835Y-123481658D01*
X96026708Y-123374417D01*
X95867009Y-123299675D01*
X95654983Y-123211632D01*
X95439267Y-123134570D01*
X95219723Y-123068453D01*
X94996214Y-123013243D01*
X94768600Y-122968904D01*
X94536743Y-122935398D01*
X94300506Y-122912689D01*
X94284336Y-122911575D01*
X94200700Y-122907416D01*
X94108632Y-122905161D01*
X94010676Y-122904757D01*
X93909373Y-122906151D01*
X93807264Y-122909293D01*
X93706892Y-122914129D01*
X93610799Y-122920607D01*
X93521526Y-122928676D01*
X93309236Y-122955815D01*
X93083884Y-122995812D01*
X92861524Y-123046857D01*
X92642540Y-123108738D01*
X92427316Y-123181248D01*
X92216236Y-123264176D01*
X92009685Y-123357313D01*
X91808046Y-123460450D01*
X91611704Y-123573377D01*
X91421043Y-123695885D01*
X91236447Y-123827764D01*
X91058301Y-123968805D01*
X90886989Y-124118799D01*
X90722894Y-124277535D01*
X90566401Y-124444805D01*
X90417895Y-124620400D01*
X90396633Y-124647058D01*
X90257022Y-124832680D01*
X90127597Y-125023911D01*
X90008450Y-125220520D01*
X89899672Y-125422274D01*
X89801352Y-125628941D01*
X89713581Y-125840289D01*
X89636451Y-126056084D01*
X89570051Y-126276096D01*
X89514473Y-126500092D01*
X89469807Y-126727839D01*
X89436144Y-126959106D01*
X89413574Y-127193660D01*
X89412415Y-127211370D01*
X89410099Y-127257970D01*
X89408168Y-127312478D01*
X89406651Y-127372449D01*
X89405575Y-127435438D01*
X89404967Y-127499000D01*
X89404854Y-127560688D01*
X89000417Y-127560688D01*
X88999359Y-127467679D01*
X89005472Y-127262752D01*
X89019836Y-127056181D01*
X89042300Y-126850460D01*
X89072716Y-126648082D01*
X89111794Y-126445651D01*
X89167819Y-126212080D01*
X89234886Y-125982141D01*
X89312902Y-125756047D01*
X89401778Y-125534007D01*
X89501421Y-125316234D01*
X89611739Y-125102938D01*
X89732642Y-124894331D01*
X89864038Y-124690624D01*
X90005836Y-124492029D01*
X90100582Y-124369761D01*
X90254194Y-124187125D01*
X90416366Y-124012238D01*
X90586761Y-123845382D01*
X90765044Y-123686836D01*
X90950879Y-123536880D01*
X91143928Y-123395795D01*
X91343856Y-123263860D01*
X91550326Y-123141356D01*
X91763003Y-123028562D01*
X91973908Y-122929089D01*
X92196247Y-122836701D01*
X92421770Y-122755395D01*
X92650128Y-122685208D01*
X92880968Y-122626178D01*
X93113941Y-122578341D01*
X93348694Y-122541735D01*
X93584876Y-122516398D01*
X93822138Y-122502366D01*
X94060127Y-122499677D01*
X94298493Y-122508369D01*
G37*
G36*
X97384467Y-124710712D02*
G01*
X97407027Y-124721651D01*
X97427082Y-124739664D01*
X97435226Y-124750003D01*
X97446522Y-124771476D01*
X97454385Y-124798489D01*
X97458942Y-124832198D01*
X97460321Y-124873763D01*
X97458649Y-124924341D01*
X97454053Y-124985091D01*
X97447762Y-125043136D01*
X97424647Y-125181505D01*
X97389977Y-125321077D01*
X97343746Y-125461876D01*
X97285945Y-125603925D01*
X97216565Y-125747248D01*
X97138854Y-125886055D01*
X97135599Y-125891869D01*
X97090639Y-125967152D01*
X97088021Y-126069838D01*
X97088011Y-126070221D01*
X97087257Y-126112246D01*
X97087124Y-126156031D01*
X97087658Y-126202335D01*
X97088907Y-126251915D01*
X97090916Y-126305527D01*
X97093733Y-126363929D01*
X97097403Y-126427879D01*
X97101974Y-126498133D01*
X97107491Y-126575449D01*
X97114001Y-126660585D01*
X97121551Y-126754297D01*
X97130186Y-126857342D01*
X97139955Y-126970479D01*
X97150902Y-127094464D01*
X97156463Y-127156910D01*
X97164055Y-127242414D01*
X97170710Y-127317977D01*
X97176490Y-127384613D01*
X97181457Y-127443336D01*
X97185674Y-127495159D01*
X97189201Y-127541096D01*
X97192102Y-127582160D01*
X97194439Y-127619366D01*
X97196274Y-127653725D01*
X97197668Y-127686253D01*
X97198685Y-127717961D01*
X97199385Y-127749865D01*
X97199832Y-127782978D01*
X97200088Y-127818312D01*
X97200214Y-127856882D01*
X97200274Y-127899702D01*
X97200201Y-127960588D01*
X97199609Y-128033989D01*
X97198354Y-128099060D01*
X97196325Y-128157716D01*
X97193416Y-128211868D01*
X97189518Y-128263432D01*
X97184524Y-128314319D01*
X97178325Y-128366443D01*
X97170814Y-128421718D01*
X97167716Y-128442886D01*
X97141995Y-128588201D01*
X97109848Y-128724101D01*
X97071304Y-128850521D01*
X97026389Y-128967399D01*
X96975131Y-129074668D01*
X96917556Y-129172265D01*
X96853692Y-129260126D01*
X96783566Y-129338186D01*
X96745926Y-129374056D01*
X96680777Y-129427731D01*
X96614051Y-129471707D01*
X96543838Y-129507178D01*
X96468229Y-129535339D01*
X96458171Y-129538451D01*
X96406035Y-129552300D01*
X96355201Y-129561370D01*
X96301474Y-129566255D01*
X96240662Y-129567548D01*
X96218858Y-129567155D01*
X96128155Y-129558967D01*
X96042405Y-129540607D01*
X95962009Y-129512573D01*
X95887369Y-129475360D01*
X95818888Y-129429467D01*
X95756967Y-129375391D01*
X95702008Y-129313629D01*
X95654413Y-129244678D01*
X95614583Y-129169036D01*
X95582920Y-129087199D01*
X95559827Y-128999666D01*
X95545704Y-128906933D01*
X95540954Y-128809498D01*
X95545979Y-128707857D01*
X95548695Y-128681997D01*
X95557694Y-128616024D01*
X95569858Y-128550775D01*
X95585681Y-128484476D01*
X95605660Y-128415350D01*
X95630293Y-128341625D01*
X95660074Y-128261526D01*
X95695501Y-128173278D01*
X95703676Y-128154118D01*
X95718794Y-128120776D01*
X95736046Y-128084658D01*
X95754639Y-128047245D01*
X95773783Y-128010018D01*
X95792684Y-127974455D01*
X95810551Y-127942039D01*
X95826593Y-127914249D01*
X95840018Y-127892567D01*
X95850034Y-127878471D01*
X95855850Y-127873444D01*
X95856555Y-127873678D01*
X95864031Y-127878994D01*
X95877160Y-127889889D01*
X95893619Y-127904456D01*
X95927745Y-127935469D01*
X95900586Y-127979043D01*
X95897748Y-127983638D01*
X95870108Y-128032306D01*
X95841204Y-128089516D01*
X95812135Y-128152680D01*
X95783998Y-128219216D01*
X95757893Y-128286535D01*
X95734916Y-128352054D01*
X95716168Y-128413187D01*
X95695582Y-128492665D01*
X95674036Y-128598716D01*
X95661306Y-128698049D01*
X95657402Y-128791219D01*
X95662337Y-128878782D01*
X95676121Y-128961295D01*
X95698765Y-129039313D01*
X95730281Y-129113393D01*
X95768447Y-129180093D01*
X95817963Y-129245369D01*
X95875167Y-129301877D01*
X95939955Y-129349528D01*
X96012224Y-129388235D01*
X96091868Y-129417910D01*
X96105437Y-129421911D01*
X96123299Y-129426581D01*
X96140263Y-129429833D01*
X96158844Y-129431919D01*
X96181554Y-129433090D01*
X96210906Y-129433599D01*
X96249414Y-129433697D01*
X96279183Y-129433486D01*
X96324669Y-129431908D01*
X96363038Y-129428284D01*
X96397170Y-129422021D01*
X96429946Y-129412526D01*
X96464245Y-129399204D01*
X96502948Y-129381462D01*
X96527517Y-129368955D01*
X96592258Y-129328448D01*
X96651449Y-129279311D01*
X96706110Y-129220620D01*
X96757265Y-129151450D01*
X96787934Y-129101901D01*
X96830949Y-129017608D01*
X96867565Y-128925376D01*
X96897846Y-128824906D01*
X96921852Y-128715900D01*
X96939645Y-128598059D01*
X96951288Y-128471084D01*
X96956841Y-128334676D01*
X96956367Y-128188537D01*
X96955915Y-128169878D01*
X96954577Y-128124123D01*
X96952881Y-128079205D01*
X96950741Y-128034169D01*
X96948073Y-127988060D01*
X96944793Y-127939922D01*
X96940814Y-127888802D01*
X96936053Y-127833743D01*
X96930424Y-127773792D01*
X96923843Y-127707992D01*
X96916225Y-127635389D01*
X96907485Y-127555028D01*
X96897538Y-127465954D01*
X96886299Y-127367211D01*
X96873684Y-127257845D01*
X96866564Y-127196277D01*
X96854373Y-127089964D01*
X96843542Y-126994146D01*
X96834005Y-126908118D01*
X96825693Y-126831175D01*
X96818541Y-126762612D01*
X96812481Y-126701725D01*
X96807446Y-126647808D01*
X96803369Y-126600156D01*
X96800183Y-126558064D01*
X96797820Y-126520828D01*
X96796213Y-126487743D01*
X96795297Y-126458103D01*
X96795002Y-126431203D01*
X96794992Y-126427858D01*
X96794420Y-126405385D01*
X96793150Y-126387266D01*
X96791423Y-126377159D01*
X96790943Y-126376323D01*
X96786529Y-126376083D01*
X96777547Y-126381511D01*
X96763128Y-126393303D01*
X96742401Y-126412156D01*
X96714498Y-126438765D01*
X96615906Y-126530303D01*
X96494507Y-126632686D01*
X96373218Y-126723583D01*
X96252152Y-126802903D01*
X96234027Y-126813577D01*
X96197998Y-126833623D01*
X96155377Y-126856299D01*
X96108680Y-126880334D01*
X96060419Y-126904462D01*
X96013110Y-126927414D01*
X95969267Y-126947921D01*
X95931404Y-126964714D01*
X95914499Y-126971710D01*
X95877243Y-126986282D01*
X95829511Y-127004143D01*
X95771711Y-127025151D01*
X95704252Y-127049161D01*
X95627545Y-127076031D01*
X95541997Y-127105615D01*
X95448018Y-127137770D01*
X95346017Y-127172351D01*
X95236403Y-127209216D01*
X94941104Y-127308163D01*
X94960863Y-127393871D01*
X94967249Y-127421983D01*
X94980066Y-127482242D01*
X94989768Y-127535094D01*
X94996699Y-127583141D01*
X95001199Y-127628985D01*
X95003611Y-127675229D01*
X95004275Y-127724475D01*
X95003225Y-127783573D01*
X94994377Y-127907184D01*
X94976453Y-128023811D01*
X94949356Y-128133821D01*
X94912984Y-128237575D01*
X94867239Y-128335438D01*
X94812021Y-128427774D01*
X94791218Y-128457862D01*
X94725505Y-128540893D01*
X94654431Y-128613590D01*
X94577847Y-128676052D01*
X94495606Y-128728375D01*
X94407560Y-128770658D01*
X94313562Y-128803000D01*
X94213465Y-128825498D01*
X94178703Y-128830200D01*
X94125844Y-128834189D01*
X94067891Y-128835745D01*
X94008155Y-128834930D01*
X93949953Y-128831803D01*
X93896596Y-128826425D01*
X93851401Y-128818858D01*
X93821005Y-128811528D01*
X93784511Y-128801061D01*
X93747924Y-128789056D01*
X93712864Y-128776179D01*
X93680948Y-128763100D01*
X93653797Y-128750487D01*
X93633029Y-128739009D01*
X93620263Y-128729333D01*
X93617118Y-128722128D01*
X93622472Y-128711887D01*
X93632205Y-128696261D01*
X93644540Y-128677790D01*
X93657700Y-128659008D01*
X93669908Y-128642453D01*
X93679387Y-128630661D01*
X93684359Y-128626166D01*
X93689557Y-128627526D01*
X93702980Y-128632567D01*
X93720682Y-128640049D01*
X93731508Y-128644731D01*
X93803911Y-128670719D01*
X93880327Y-128688889D01*
X93962585Y-128699589D01*
X94052516Y-128703168D01*
X94114709Y-128701812D01*
X94180273Y-128696275D01*
X94242041Y-128685997D01*
X94303910Y-128670470D01*
X94377935Y-128644409D01*
X94451798Y-128608260D01*
X94519467Y-128564323D01*
X94580088Y-128513414D01*
X94632810Y-128456353D01*
X94676780Y-128393959D01*
X94711145Y-128327051D01*
X94735053Y-128256447D01*
X94741694Y-128227657D01*
X94746894Y-128197626D01*
X94750225Y-128166565D01*
X94751610Y-128133325D01*
X94750970Y-128096754D01*
X94748228Y-128055703D01*
X94743305Y-128009020D01*
X94736123Y-127955556D01*
X94726605Y-127894160D01*
X94714673Y-127823681D01*
X94700248Y-127742969D01*
X94700013Y-127741680D01*
X94690561Y-127689479D01*
X94681435Y-127638575D01*
X94672934Y-127590665D01*
X94665355Y-127547445D01*
X94658996Y-127510612D01*
X94654155Y-127481863D01*
X94651128Y-127462894D01*
X94648607Y-127446544D01*
X94644979Y-127424824D01*
X94642061Y-127409502D01*
X94640319Y-127403157D01*
X94636682Y-127403688D01*
X94623086Y-127407339D01*
X94600632Y-127413971D01*
X94570576Y-127423184D01*
X94534174Y-127434576D01*
X94492681Y-127447746D01*
X94447353Y-127462292D01*
X94399446Y-127477814D01*
X94350216Y-127493908D01*
X94300918Y-127510175D01*
X94252809Y-127526213D01*
X94207145Y-127541619D01*
X94117918Y-127572194D01*
X94013878Y-127608464D01*
X93910233Y-127645228D01*
X93808324Y-127681988D01*
X93709495Y-127718247D01*
X93615088Y-127753508D01*
X93526447Y-127787271D01*
X93444915Y-127819041D01*
X93371833Y-127848319D01*
X93308546Y-127874608D01*
X93284787Y-127884838D01*
X93233672Y-127907535D01*
X93177897Y-127933060D01*
X93119385Y-127960479D01*
X93060056Y-127988860D01*
X93001831Y-128017271D01*
X92946632Y-128044778D01*
X92896380Y-128070449D01*
X92852996Y-128093352D01*
X92818401Y-128112553D01*
X92808392Y-128118349D01*
X92694595Y-128188228D01*
X92591850Y-128259203D01*
X92499600Y-128331778D01*
X92417286Y-128406455D01*
X92344349Y-128483739D01*
X92280233Y-128564131D01*
X92224378Y-128648137D01*
X92191489Y-128708323D01*
X92153096Y-128798745D01*
X92123146Y-128897101D01*
X92101662Y-129003299D01*
X92088665Y-129117246D01*
X92084179Y-129238847D01*
X92084176Y-129241594D01*
X92088451Y-129359357D01*
X92101378Y-129469521D01*
X92123041Y-129572402D01*
X92153522Y-129668316D01*
X92192904Y-129757582D01*
X92241270Y-129840514D01*
X92288705Y-129903061D01*
X92347625Y-129962723D01*
X92414136Y-130014454D01*
X92487368Y-130057810D01*
X92566449Y-130092352D01*
X92650508Y-130117637D01*
X92738672Y-130133225D01*
X92830071Y-130138674D01*
X92853503Y-130138442D01*
X92905947Y-130135041D01*
X92952251Y-130127008D01*
X92995965Y-130113590D01*
X93040642Y-130094035D01*
X93051250Y-130088679D01*
X93078565Y-130073355D01*
X93102988Y-130056667D01*
X93125675Y-130037317D01*
X93147783Y-130014009D01*
X93170470Y-129985446D01*
X93194892Y-129950329D01*
X93222205Y-129907362D01*
X93253567Y-129855247D01*
X93279007Y-129815812D01*
X93315208Y-129770591D01*
X93352798Y-129735370D01*
X93390985Y-129710984D01*
X93403573Y-129705874D01*
X93434974Y-129698252D01*
X93470644Y-129694475D01*
X93505960Y-129694896D01*
X93536301Y-129699869D01*
X93552216Y-129705535D01*
X93582432Y-129724655D01*
X93606002Y-129751983D01*
X93622413Y-129786243D01*
X93631156Y-129826161D01*
X93631719Y-129870460D01*
X93623593Y-129917866D01*
X93609004Y-129960607D01*
X93580338Y-130014397D01*
X93541549Y-130065179D01*
X93493417Y-130112377D01*
X93436723Y-130155416D01*
X93372246Y-130193720D01*
X93300767Y-130226716D01*
X93223066Y-130253826D01*
X93139922Y-130274477D01*
X93117785Y-130278730D01*
X93008373Y-130293705D01*
X92901586Y-130298316D01*
X92797986Y-130292737D01*
X92698136Y-130277146D01*
X92602598Y-130251717D01*
X92511934Y-130216627D01*
X92426707Y-130172052D01*
X92347480Y-130118169D01*
X92274816Y-130055152D01*
X92209275Y-129983179D01*
X92196485Y-129966957D01*
X92140782Y-129885015D01*
X92093470Y-129795168D01*
X92054623Y-129697661D01*
X92024314Y-129592739D01*
X92002617Y-129480647D01*
X91989604Y-129361628D01*
X91985349Y-129235930D01*
X91986010Y-129190421D01*
X91995585Y-129052986D01*
X92016544Y-128918062D01*
X92048891Y-128785641D01*
X92092629Y-128655716D01*
X92147760Y-128528277D01*
X92214289Y-128403317D01*
X92292218Y-128280829D01*
X92381552Y-128160804D01*
X92482293Y-128043235D01*
X92485327Y-128039930D01*
X92547847Y-127975906D01*
X92619941Y-127908919D01*
X92700301Y-127839984D01*
X92787619Y-127770114D01*
X92880588Y-127700326D01*
X92977899Y-127631633D01*
X93078244Y-127565051D01*
X93180316Y-127501595D01*
X93210769Y-127483540D01*
X93333371Y-127414983D01*
X93466341Y-127346683D01*
X93608649Y-127279068D01*
X93759268Y-127212565D01*
X93917168Y-127147601D01*
X94081320Y-127084603D01*
X94250698Y-127023998D01*
X94424271Y-126966213D01*
X94601011Y-126911676D01*
X94615474Y-126907149D01*
X94630344Y-126901028D01*
X94637899Y-126894701D01*
X94640643Y-126886581D01*
X94644565Y-126858382D01*
X94650596Y-126820380D01*
X94657968Y-126777287D01*
X94666094Y-126732354D01*
X94674383Y-126688831D01*
X94682249Y-126649970D01*
X94689101Y-126619022D01*
X94689252Y-126618384D01*
X94698604Y-126582725D01*
X94712235Y-126536217D01*
X94730143Y-126478865D01*
X94752327Y-126410675D01*
X94778784Y-126331654D01*
X94809512Y-126241809D01*
X94844508Y-126141145D01*
X94883772Y-126029669D01*
X94927300Y-125907387D01*
X94937420Y-125879064D01*
X94956729Y-125824889D01*
X94974582Y-125774627D01*
X94990622Y-125729286D01*
X95004496Y-125689877D01*
X95015847Y-125657412D01*
X95024322Y-125632899D01*
X95029563Y-125617349D01*
X95031218Y-125611773D01*
X95027299Y-125615401D01*
X95017481Y-125626378D01*
X95003260Y-125642997D01*
X94986125Y-125663547D01*
X94966374Y-125686844D01*
X94929659Y-125727913D01*
X94888002Y-125772417D01*
X94843838Y-125817867D01*
X94799598Y-125861775D01*
X94757718Y-125901653D01*
X94720630Y-125935013D01*
X94645197Y-125997856D01*
X94516670Y-126095031D01*
X94380285Y-126186320D01*
X94234985Y-126272414D01*
X94079712Y-126354002D01*
X94060311Y-126363536D01*
X94026220Y-126379898D01*
X93991220Y-126396148D01*
X93954800Y-126412468D01*
X93916449Y-126429042D01*
X93875656Y-126446049D01*
X93831911Y-126463674D01*
X93784703Y-126482096D01*
X93733521Y-126501498D01*
X93677855Y-126522062D01*
X93617193Y-126543970D01*
X93551025Y-126567403D01*
X93478840Y-126592544D01*
X93400127Y-126619574D01*
X93314376Y-126648675D01*
X93221075Y-126680030D01*
X93119714Y-126713819D01*
X93009783Y-126750225D01*
X92890770Y-126789429D01*
X92762164Y-126831614D01*
X92623456Y-126876961D01*
X92474133Y-126925652D01*
X92473092Y-126925991D01*
X92334813Y-126971147D01*
X92206962Y-127013152D01*
X92088815Y-127052272D01*
X91979650Y-127088777D01*
X91878743Y-127122933D01*
X91785369Y-127155008D01*
X91698805Y-127185271D01*
X91618328Y-127213988D01*
X91543214Y-127241427D01*
X91472739Y-127267857D01*
X91406179Y-127293545D01*
X91342811Y-127318759D01*
X91281912Y-127343766D01*
X91222757Y-127368834D01*
X91164624Y-127394232D01*
X91106787Y-127420225D01*
X91048524Y-127447084D01*
X90989111Y-127475074D01*
X90957700Y-127490300D01*
X90822011Y-127562638D01*
X90690326Y-127643406D01*
X90566070Y-127730535D01*
X90541443Y-127749332D01*
X90458503Y-127818185D01*
X90385819Y-127888406D01*
X90322716Y-127961148D01*
X90268518Y-128037569D01*
X90222550Y-128118823D01*
X90184137Y-128206068D01*
X90152602Y-128300458D01*
X90127271Y-128403150D01*
X90107467Y-128515300D01*
X90104557Y-128537121D01*
X90099582Y-128587149D01*
X90095959Y-128642293D01*
X90093709Y-128700171D01*
X90092852Y-128758396D01*
X90093408Y-128814586D01*
X90095399Y-128866355D01*
X90098844Y-128911319D01*
X90103764Y-128947094D01*
X90104986Y-128953595D01*
X90119503Y-129021900D01*
X90135821Y-129081749D01*
X90154965Y-129136077D01*
X90177957Y-129187820D01*
X90205820Y-129239913D01*
X90247735Y-129305259D01*
X90304513Y-129375151D01*
X90368542Y-129435965D01*
X90439922Y-129487772D01*
X90518754Y-129530642D01*
X90605139Y-129564648D01*
X90699177Y-129589861D01*
X90708024Y-129591692D01*
X90733342Y-129596177D01*
X90759034Y-129599327D01*
X90787923Y-129601363D01*
X90822829Y-129602507D01*
X90866575Y-129602980D01*
X90875494Y-129603000D01*
X90930614Y-129602004D01*
X90976177Y-129598675D01*
X91013908Y-129592516D01*
X91045536Y-129583027D01*
X91072786Y-129569711D01*
X91097387Y-129552070D01*
X91121064Y-129529607D01*
X91127649Y-129522573D01*
X91138117Y-129510486D01*
X91147193Y-129498016D01*
X91156059Y-129483087D01*
X91165894Y-129463624D01*
X91177879Y-129437549D01*
X91193197Y-129402788D01*
X91198184Y-129391500D01*
X91227895Y-129330187D01*
X91257597Y-129279694D01*
X91287994Y-129239317D01*
X91319787Y-129208352D01*
X91353679Y-129186096D01*
X91390373Y-129171843D01*
X91430570Y-129164891D01*
X91461026Y-129164374D01*
X91504540Y-129171682D01*
X91542179Y-129188164D01*
X91573012Y-129212993D01*
X91596109Y-129245343D01*
X91610539Y-129284384D01*
X91615373Y-129329290D01*
X91613632Y-129358627D01*
X91601718Y-129413160D01*
X91578848Y-129465351D01*
X91545404Y-129514822D01*
X91501766Y-129561195D01*
X91448315Y-129604094D01*
X91385432Y-129643140D01*
X91313498Y-129677958D01*
X91232893Y-129708170D01*
X91219083Y-129712575D01*
X91127017Y-129736426D01*
X91031056Y-129752432D01*
X90933272Y-129760574D01*
X90835737Y-129760834D01*
X90740524Y-129753192D01*
X90649703Y-129737631D01*
X90565348Y-129714132D01*
X90511996Y-129693384D01*
X90435068Y-129654999D01*
X90360547Y-129608194D01*
X90291189Y-129554758D01*
X90229750Y-129496478D01*
X90219821Y-129485643D01*
X90172092Y-129425197D01*
X90127872Y-129355270D01*
X90087826Y-129277419D01*
X90052620Y-129193201D01*
X90022919Y-129104174D01*
X89999387Y-129011894D01*
X89982690Y-128917919D01*
X89980110Y-128896663D01*
X89975715Y-128835118D01*
X89974434Y-128765451D01*
X89976118Y-128689874D01*
X89980621Y-128610595D01*
X89987795Y-128529824D01*
X89997493Y-128449769D01*
X90009568Y-128372641D01*
X90023871Y-128300649D01*
X90036192Y-128248957D01*
X90075827Y-128114339D01*
X90125215Y-127985292D01*
X90184527Y-127861566D01*
X90253931Y-127742912D01*
X90333598Y-127629077D01*
X90423698Y-127519813D01*
X90524399Y-127414867D01*
X90635873Y-127313991D01*
X90758288Y-127216933D01*
X90814793Y-127175508D01*
X90895137Y-127118965D01*
X90975247Y-127065592D01*
X91056277Y-127014781D01*
X91139380Y-126965923D01*
X91225709Y-126918411D01*
X91316419Y-126871635D01*
X91412662Y-126824989D01*
X91515592Y-126777863D01*
X91626363Y-126729649D01*
X91746128Y-126679739D01*
X91876040Y-126627525D01*
X91927258Y-126607396D01*
X91999500Y-126579539D01*
X92070280Y-126552957D01*
X92140874Y-126527225D01*
X92212555Y-126501913D01*
X92286596Y-126476597D01*
X92364273Y-126450849D01*
X92446860Y-126424242D01*
X92535630Y-126396350D01*
X92631857Y-126366746D01*
X92736817Y-126335003D01*
X92851782Y-126300694D01*
X92972747Y-126264748D01*
X93129449Y-126218037D01*
X93275647Y-126174274D01*
X93411760Y-126133328D01*
X93538208Y-126095067D01*
X93655412Y-126059361D01*
X93763791Y-126026079D01*
X93863765Y-125995090D01*
X93955754Y-125966263D01*
X94040178Y-125939466D01*
X94117457Y-125914568D01*
X94188011Y-125891439D01*
X94252259Y-125869948D01*
X94310622Y-125849962D01*
X94363520Y-125831353D01*
X94411372Y-125813987D01*
X94448430Y-125799680D01*
X94507224Y-125774808D01*
X94567213Y-125747122D01*
X94625926Y-125717866D01*
X94680892Y-125688289D01*
X94729642Y-125659638D01*
X94769703Y-125633158D01*
X94783621Y-125623086D01*
X94866180Y-125558771D01*
X94944592Y-125489919D01*
X95017864Y-125417690D01*
X95085001Y-125343246D01*
X95145009Y-125267746D01*
X95196894Y-125192350D01*
X95239662Y-125118220D01*
X95272319Y-125046516D01*
X95291673Y-124996761D01*
X95320410Y-124996761D01*
X95332977Y-124997131D01*
X95344355Y-124999400D01*
X95346314Y-125004055D01*
X95345305Y-125006642D01*
X95340458Y-125019050D01*
X95332183Y-125040227D01*
X95321009Y-125068815D01*
X95307468Y-125103456D01*
X95292091Y-125142792D01*
X95275409Y-125185464D01*
X95228636Y-125305351D01*
X95185188Y-125417259D01*
X95145965Y-125518898D01*
X95110865Y-125610537D01*
X95079790Y-125692445D01*
X95052637Y-125764890D01*
X95029307Y-125828140D01*
X95009698Y-125882463D01*
X94993711Y-125928128D01*
X94981245Y-125965403D01*
X94972198Y-125994556D01*
X94961405Y-126033000D01*
X94934955Y-126144564D01*
X94913869Y-126263003D01*
X94897945Y-126389577D01*
X94886983Y-126525546D01*
X94886796Y-126528677D01*
X94885158Y-126561240D01*
X94883771Y-126597730D01*
X94882654Y-126636414D01*
X94881824Y-126675559D01*
X94881300Y-126713434D01*
X94881100Y-126748307D01*
X94881241Y-126778446D01*
X94881741Y-126802118D01*
X94882619Y-126817591D01*
X94883893Y-126823134D01*
X94886431Y-126822712D01*
X94899473Y-126819430D01*
X94922465Y-126813098D01*
X94954601Y-126803957D01*
X94995073Y-126792249D01*
X95043076Y-126778215D01*
X95097802Y-126762097D01*
X95158445Y-126744136D01*
X95224199Y-126724575D01*
X95294256Y-126703653D01*
X95367810Y-126681614D01*
X95444055Y-126658697D01*
X95522183Y-126635146D01*
X95601389Y-126611201D01*
X95680866Y-126587103D01*
X95759806Y-126563095D01*
X95837404Y-126539418D01*
X95912853Y-126516313D01*
X95985346Y-126494022D01*
X96054077Y-126472786D01*
X96100748Y-126458137D01*
X96187610Y-126429851D01*
X96270732Y-126401463D01*
X96348590Y-126373526D01*
X96419658Y-126346595D01*
X96482414Y-126321223D01*
X96535332Y-126297964D01*
X96548748Y-126291422D01*
X96586022Y-126270886D01*
X96627470Y-126245401D01*
X96669945Y-126217034D01*
X96710302Y-126187854D01*
X96745394Y-126159927D01*
X96786240Y-126125323D01*
X96789850Y-125997213D01*
X96795302Y-125883221D01*
X96805933Y-125761844D01*
X96821248Y-125642260D01*
X96821371Y-125641535D01*
X97138854Y-125641535D01*
X97174946Y-125571514D01*
X97199271Y-125522826D01*
X97251953Y-125403792D01*
X97293866Y-125286590D01*
X97325311Y-125170173D01*
X97346591Y-125053490D01*
X97358008Y-124935493D01*
X97359300Y-124900280D01*
X97358502Y-124870829D01*
X97355161Y-124850996D01*
X97349102Y-124839810D01*
X97340150Y-124836297D01*
X97331183Y-124841410D01*
X97319769Y-124856793D01*
X97306667Y-124881314D01*
X97292342Y-124913834D01*
X97277259Y-124953212D01*
X97261883Y-124998309D01*
X97246679Y-125047984D01*
X97232113Y-125101098D01*
X97232042Y-125101371D01*
X97221142Y-125146130D01*
X97209286Y-125199288D01*
X97197094Y-125257702D01*
X97185183Y-125318230D01*
X97174172Y-125377729D01*
X97164680Y-125433056D01*
X97157325Y-125481071D01*
X97156300Y-125488429D01*
X97151712Y-125522564D01*
X97147542Y-125555421D01*
X97144214Y-125583576D01*
X97142151Y-125603607D01*
X97138854Y-125641535D01*
X96821371Y-125641535D01*
X96840970Y-125525542D01*
X96864821Y-125412767D01*
X96892523Y-125305008D01*
X96923797Y-125203340D01*
X96958367Y-125108837D01*
X96995953Y-125022575D01*
X97036278Y-124945628D01*
X97079064Y-124879070D01*
X97106418Y-124843007D01*
X97149084Y-124794931D01*
X97191404Y-124757685D01*
X97234032Y-124730806D01*
X97277620Y-124713831D01*
X97322823Y-124706298D01*
X97356585Y-124705945D01*
X97384467Y-124710712D01*
G37*
%TD*%
%LPC*%
D11*
%TO.C,J5*%
X81580000Y-115750000D03*
%TD*%
%TO.C,J6*%
X122850000Y-108250000D03*
%TD*%
%TO.C,J7*%
X81580000Y-139250000D03*
%TD*%
%TO.C,J9*%
X122850000Y-131750000D03*
%TD*%
%TO.C,J10*%
X122850000Y-123250000D03*
%TD*%
%TO.C,J8*%
X122850000Y-146750000D03*
%TD*%
D12*
%TO.C,J3*%
X112920000Y-139500000D03*
D13*
X118000000Y-139500000D03*
%TD*%
D12*
%TO.C,J2*%
X112920000Y-123500000D03*
D13*
X118000000Y-123500000D03*
%TD*%
D12*
%TO.C,J1*%
X112920000Y-115500000D03*
D13*
X118000000Y-115500000D03*
%TD*%
%LPD*%
M02*
