%TF.GenerationSoftware,KiCad,Pcbnew,8.0.0*%
%TF.CreationDate,2024-04-01T22:39:33+02:00*%
%TF.ProjectId,Parkside_Contacts_Fused,5061726b-7369-4646-955f-436f6e746163,rev?*%
%TF.SameCoordinates,Original*%
%TF.FileFunction,Copper,L2,Bot*%
%TF.FilePolarity,Positive*%
%FSLAX46Y46*%
G04 Gerber Fmt 4.6, Leading zero omitted, Abs format (unit mm)*
G04 Created by KiCad (PCBNEW 8.0.0) date 2024-04-01 22:39:33*
%MOMM*%
%LPD*%
G01*
G04 APERTURE LIST*
%TA.AperFunction,ComponentPad*%
%ADD10C,1.980000*%
%TD*%
%TA.AperFunction,ComponentPad*%
%ADD11R,1.980000X1.980000*%
%TD*%
G04 APERTURE END LIST*
D10*
%TO.P,J3,1,Pin_1*%
%TO.N,GND*%
X112920000Y-139500000D03*
D11*
X118000000Y-139500000D03*
%TD*%
D10*
%TO.P,J2,1,Pin_1*%
%TO.N,unconnected-(J2-Pin_1-Pad1)_0*%
X112920000Y-123500000D03*
D11*
%TO.N,unconnected-(J2-Pin_1-Pad1)*%
X118000000Y-123500000D03*
%TD*%
D10*
%TO.P,J1,1,Pin_1*%
%TO.N,Net-(J1-Pin_1)*%
X112920000Y-115500000D03*
D11*
X118000000Y-115500000D03*
%TD*%
%TA.AperFunction,NonConductor*%
G36*
X124503736Y-105200726D02*
G01*
X124769690Y-105216813D01*
X124784551Y-105218617D01*
X125042938Y-105265968D01*
X125057463Y-105269549D01*
X125308251Y-105347698D01*
X125322242Y-105353003D01*
X125561798Y-105460818D01*
X125575044Y-105467771D01*
X125799852Y-105603672D01*
X125812163Y-105612170D01*
X126018949Y-105774176D01*
X126030157Y-105784106D01*
X126215893Y-105969842D01*
X126225823Y-105981050D01*
X126387825Y-106187830D01*
X126396331Y-106200153D01*
X126532225Y-106424949D01*
X126539184Y-106438208D01*
X126646994Y-106677752D01*
X126652303Y-106691753D01*
X126730448Y-106942529D01*
X126734032Y-106957068D01*
X126781381Y-107215447D01*
X126783186Y-107230311D01*
X126799274Y-107496263D01*
X126799500Y-107503750D01*
X126799500Y-147496249D01*
X126799274Y-147503736D01*
X126783186Y-147769688D01*
X126781381Y-147784552D01*
X126734032Y-148042931D01*
X126730448Y-148057470D01*
X126652303Y-148308246D01*
X126646994Y-148322247D01*
X126539184Y-148561791D01*
X126532225Y-148575050D01*
X126396331Y-148799846D01*
X126387825Y-148812169D01*
X126225823Y-149018949D01*
X126215893Y-149030157D01*
X126030157Y-149215893D01*
X126018949Y-149225823D01*
X125812169Y-149387825D01*
X125799846Y-149396331D01*
X125575050Y-149532225D01*
X125561791Y-149539184D01*
X125322247Y-149646994D01*
X125308246Y-149652303D01*
X125057470Y-149730448D01*
X125042931Y-149734032D01*
X124784552Y-149781381D01*
X124769688Y-149783186D01*
X124503736Y-149799274D01*
X124496249Y-149799500D01*
X78503751Y-149799500D01*
X78496264Y-149799274D01*
X78230311Y-149783186D01*
X78215447Y-149781381D01*
X77957068Y-149734032D01*
X77942529Y-149730448D01*
X77691753Y-149652303D01*
X77677752Y-149646994D01*
X77438208Y-149539184D01*
X77424949Y-149532225D01*
X77200153Y-149396331D01*
X77187830Y-149387825D01*
X76981050Y-149225823D01*
X76969842Y-149215893D01*
X76784106Y-149030157D01*
X76774176Y-149018949D01*
X76612174Y-148812169D01*
X76603672Y-148799852D01*
X76467771Y-148575044D01*
X76460818Y-148561798D01*
X76353003Y-148322242D01*
X76347696Y-148308246D01*
X76269549Y-148057463D01*
X76265967Y-148042931D01*
X76249498Y-147953063D01*
X76218617Y-147784551D01*
X76216813Y-147769688D01*
X76214086Y-147724612D01*
X76200726Y-147503736D01*
X76200500Y-147496249D01*
X76200500Y-146864741D01*
X121099500Y-146864741D01*
X121124446Y-147054215D01*
X121129452Y-147092238D01*
X121129453Y-147092240D01*
X121188842Y-147313887D01*
X121276650Y-147525876D01*
X121276657Y-147525890D01*
X121391392Y-147724617D01*
X121531081Y-147906661D01*
X121531089Y-147906670D01*
X121693330Y-148068911D01*
X121693338Y-148068918D01*
X121875382Y-148208607D01*
X121875385Y-148208608D01*
X121875388Y-148208611D01*
X122074112Y-148323344D01*
X122074117Y-148323346D01*
X122074123Y-148323349D01*
X122165480Y-148361190D01*
X122286113Y-148411158D01*
X122507762Y-148470548D01*
X122735266Y-148500500D01*
X122735273Y-148500500D01*
X122964727Y-148500500D01*
X122964734Y-148500500D01*
X123192238Y-148470548D01*
X123413887Y-148411158D01*
X123625888Y-148323344D01*
X123824612Y-148208611D01*
X124006661Y-148068919D01*
X124006665Y-148068914D01*
X124006670Y-148068911D01*
X124168911Y-147906670D01*
X124168914Y-147906665D01*
X124168919Y-147906661D01*
X124308611Y-147724612D01*
X124423344Y-147525888D01*
X124511158Y-147313887D01*
X124570548Y-147092238D01*
X124600500Y-146864734D01*
X124600500Y-146635266D01*
X124570548Y-146407762D01*
X124511158Y-146186113D01*
X124423344Y-145974112D01*
X124308611Y-145775388D01*
X124308608Y-145775385D01*
X124308607Y-145775382D01*
X124168918Y-145593338D01*
X124168911Y-145593330D01*
X124006670Y-145431089D01*
X124006661Y-145431081D01*
X123824617Y-145291392D01*
X123625890Y-145176657D01*
X123625876Y-145176650D01*
X123413887Y-145088842D01*
X123192238Y-145029452D01*
X123154215Y-145024446D01*
X122964741Y-144999500D01*
X122964734Y-144999500D01*
X122735266Y-144999500D01*
X122735258Y-144999500D01*
X122518715Y-145028009D01*
X122507762Y-145029452D01*
X122414076Y-145054554D01*
X122286112Y-145088842D01*
X122074123Y-145176650D01*
X122074109Y-145176657D01*
X121875382Y-145291392D01*
X121693338Y-145431081D01*
X121531081Y-145593338D01*
X121391392Y-145775382D01*
X121276657Y-145974109D01*
X121276650Y-145974123D01*
X121188842Y-146186112D01*
X121129453Y-146407759D01*
X121129451Y-146407770D01*
X121099500Y-146635258D01*
X121099500Y-146864741D01*
X76200500Y-146864741D01*
X76200500Y-139364741D01*
X79829500Y-139364741D01*
X79847308Y-139500000D01*
X79859452Y-139592238D01*
X79859453Y-139592240D01*
X79918842Y-139813887D01*
X80006650Y-140025876D01*
X80006657Y-140025890D01*
X80121392Y-140224617D01*
X80261081Y-140406661D01*
X80261089Y-140406670D01*
X80423330Y-140568911D01*
X80423338Y-140568918D01*
X80423339Y-140568919D01*
X80473962Y-140607764D01*
X80605382Y-140708607D01*
X80605385Y-140708608D01*
X80605388Y-140708611D01*
X80804112Y-140823344D01*
X80804117Y-140823346D01*
X80804123Y-140823349D01*
X80862543Y-140847547D01*
X81016113Y-140911158D01*
X81237762Y-140970548D01*
X81465266Y-141000500D01*
X81465273Y-141000500D01*
X81694727Y-141000500D01*
X81694734Y-141000500D01*
X81922238Y-140970548D01*
X82143887Y-140911158D01*
X82355888Y-140823344D01*
X82554612Y-140708611D01*
X82736661Y-140568919D01*
X82736665Y-140568914D01*
X82736670Y-140568911D01*
X82898911Y-140406670D01*
X82898914Y-140406665D01*
X82898919Y-140406661D01*
X83038611Y-140224612D01*
X83153344Y-140025888D01*
X83241158Y-139813887D01*
X83300548Y-139592238D01*
X83312691Y-139500005D01*
X111424392Y-139500005D01*
X111444789Y-139746165D01*
X111444789Y-139746168D01*
X111444790Y-139746169D01*
X111505428Y-139985623D01*
X111604652Y-140211831D01*
X111739755Y-140418621D01*
X111907052Y-140600355D01*
X111907055Y-140600357D01*
X111907058Y-140600360D01*
X112101971Y-140752067D01*
X112101977Y-140752071D01*
X112101980Y-140752073D01*
X112319221Y-140869638D01*
X112440162Y-140911157D01*
X112552846Y-140949842D01*
X112552848Y-140949842D01*
X112552850Y-140949843D01*
X112796494Y-140990500D01*
X112796495Y-140990500D01*
X113043505Y-140990500D01*
X113043506Y-140990500D01*
X113287150Y-140949843D01*
X113520779Y-140869638D01*
X113738020Y-140752073D01*
X113763380Y-140732335D01*
X113803476Y-140701126D01*
X113932948Y-140600355D01*
X113990469Y-140537870D01*
X116509500Y-140537870D01*
X116509501Y-140537876D01*
X116515908Y-140597483D01*
X116566202Y-140732328D01*
X116566206Y-140732335D01*
X116652452Y-140847544D01*
X116652455Y-140847547D01*
X116767664Y-140933793D01*
X116767671Y-140933797D01*
X116902517Y-140984091D01*
X116902516Y-140984091D01*
X116909444Y-140984835D01*
X116962127Y-140990500D01*
X119037872Y-140990499D01*
X119097483Y-140984091D01*
X119232331Y-140933796D01*
X119347546Y-140847546D01*
X119433796Y-140732331D01*
X119484091Y-140597483D01*
X119490500Y-140537873D01*
X119490499Y-138462128D01*
X119484091Y-138402517D01*
X119433796Y-138267669D01*
X119433795Y-138267668D01*
X119433793Y-138267664D01*
X119347547Y-138152455D01*
X119347544Y-138152452D01*
X119232335Y-138066206D01*
X119232328Y-138066202D01*
X119097482Y-138015908D01*
X119097483Y-138015908D01*
X119037883Y-138009501D01*
X119037881Y-138009500D01*
X119037873Y-138009500D01*
X119037864Y-138009500D01*
X116962129Y-138009500D01*
X116962123Y-138009501D01*
X116902516Y-138015908D01*
X116767671Y-138066202D01*
X116767664Y-138066206D01*
X116652455Y-138152452D01*
X116652452Y-138152455D01*
X116566206Y-138267664D01*
X116566202Y-138267671D01*
X116515908Y-138402517D01*
X116509501Y-138462116D01*
X116509501Y-138462123D01*
X116509500Y-138462135D01*
X116509500Y-140537870D01*
X113990469Y-140537870D01*
X114100245Y-140418621D01*
X114235348Y-140211831D01*
X114334572Y-139985623D01*
X114395210Y-139746169D01*
X114415608Y-139500000D01*
X114395210Y-139253831D01*
X114334572Y-139014377D01*
X114235348Y-138788169D01*
X114100245Y-138581379D01*
X113932948Y-138399645D01*
X113932943Y-138399641D01*
X113932941Y-138399639D01*
X113738028Y-138247932D01*
X113738022Y-138247928D01*
X113520780Y-138130362D01*
X113520771Y-138130359D01*
X113287153Y-138050157D01*
X113081907Y-138015908D01*
X113043506Y-138009500D01*
X112796494Y-138009500D01*
X112758093Y-138015908D01*
X112552846Y-138050157D01*
X112319228Y-138130359D01*
X112319219Y-138130362D01*
X112101977Y-138247928D01*
X112101971Y-138247932D01*
X111907058Y-138399639D01*
X111907055Y-138399642D01*
X111739752Y-138581382D01*
X111604650Y-138788172D01*
X111505428Y-139014376D01*
X111444789Y-139253834D01*
X111424392Y-139499994D01*
X111424392Y-139500005D01*
X83312691Y-139500005D01*
X83330500Y-139364734D01*
X83330500Y-139135266D01*
X83300548Y-138907762D01*
X83241158Y-138686113D01*
X83153344Y-138474112D01*
X83038611Y-138275388D01*
X83038608Y-138275385D01*
X83038607Y-138275382D01*
X82898918Y-138093338D01*
X82898911Y-138093330D01*
X82736670Y-137931089D01*
X82736661Y-137931081D01*
X82554617Y-137791392D01*
X82355890Y-137676657D01*
X82355876Y-137676650D01*
X82143887Y-137588842D01*
X81922238Y-137529452D01*
X81884215Y-137524446D01*
X81694741Y-137499500D01*
X81694734Y-137499500D01*
X81465266Y-137499500D01*
X81465258Y-137499500D01*
X81248715Y-137528009D01*
X81237762Y-137529452D01*
X81144076Y-137554554D01*
X81016112Y-137588842D01*
X80804123Y-137676650D01*
X80804109Y-137676657D01*
X80605382Y-137791392D01*
X80423338Y-137931081D01*
X80261081Y-138093338D01*
X80121392Y-138275382D01*
X80006657Y-138474109D01*
X80006650Y-138474123D01*
X79918842Y-138686112D01*
X79859453Y-138907759D01*
X79859451Y-138907770D01*
X79829500Y-139135258D01*
X79829500Y-139364741D01*
X76200500Y-139364741D01*
X76200500Y-131864741D01*
X121099500Y-131864741D01*
X121124446Y-132054215D01*
X121129452Y-132092238D01*
X121129453Y-132092240D01*
X121188842Y-132313887D01*
X121276650Y-132525876D01*
X121276657Y-132525890D01*
X121391392Y-132724617D01*
X121531081Y-132906661D01*
X121531089Y-132906670D01*
X121693330Y-133068911D01*
X121693338Y-133068918D01*
X121875382Y-133208607D01*
X121875385Y-133208608D01*
X121875388Y-133208611D01*
X122074112Y-133323344D01*
X122074117Y-133323346D01*
X122074123Y-133323349D01*
X122165480Y-133361190D01*
X122286113Y-133411158D01*
X122507762Y-133470548D01*
X122735266Y-133500500D01*
X122735273Y-133500500D01*
X122964727Y-133500500D01*
X122964734Y-133500500D01*
X123192238Y-133470548D01*
X123413887Y-133411158D01*
X123625888Y-133323344D01*
X123824612Y-133208611D01*
X124006661Y-133068919D01*
X124006665Y-133068914D01*
X124006670Y-133068911D01*
X124168911Y-132906670D01*
X124168914Y-132906665D01*
X124168919Y-132906661D01*
X124308611Y-132724612D01*
X124423344Y-132525888D01*
X124511158Y-132313887D01*
X124570548Y-132092238D01*
X124600500Y-131864734D01*
X124600500Y-131635266D01*
X124570548Y-131407762D01*
X124511158Y-131186113D01*
X124423344Y-130974112D01*
X124308611Y-130775388D01*
X124308608Y-130775385D01*
X124308607Y-130775382D01*
X124168918Y-130593338D01*
X124168911Y-130593330D01*
X124006670Y-130431089D01*
X124006661Y-130431081D01*
X123824617Y-130291392D01*
X123625890Y-130176657D01*
X123625876Y-130176650D01*
X123413887Y-130088842D01*
X123192238Y-130029452D01*
X123154215Y-130024446D01*
X122964741Y-129999500D01*
X122964734Y-129999500D01*
X122735266Y-129999500D01*
X122735258Y-129999500D01*
X122518715Y-130028009D01*
X122507762Y-130029452D01*
X122414076Y-130054554D01*
X122286112Y-130088842D01*
X122074123Y-130176650D01*
X122074109Y-130176657D01*
X121875382Y-130291392D01*
X121693338Y-130431081D01*
X121531081Y-130593338D01*
X121391392Y-130775382D01*
X121276657Y-130974109D01*
X121276650Y-130974123D01*
X121188842Y-131186112D01*
X121129453Y-131407759D01*
X121129451Y-131407770D01*
X121099500Y-131635258D01*
X121099500Y-131864741D01*
X76200500Y-131864741D01*
X76200500Y-123500005D01*
X111424392Y-123500005D01*
X111444789Y-123746165D01*
X111444789Y-123746168D01*
X111444790Y-123746169D01*
X111505428Y-123985623D01*
X111604652Y-124211831D01*
X111739755Y-124418621D01*
X111907052Y-124600355D01*
X111907055Y-124600357D01*
X111907058Y-124600360D01*
X112101971Y-124752067D01*
X112101977Y-124752071D01*
X112101980Y-124752073D01*
X112319221Y-124869638D01*
X112440162Y-124911157D01*
X112552846Y-124949842D01*
X112552848Y-124949842D01*
X112552850Y-124949843D01*
X112796494Y-124990500D01*
X112796495Y-124990500D01*
X113043505Y-124990500D01*
X113043506Y-124990500D01*
X113287150Y-124949843D01*
X113520779Y-124869638D01*
X113738020Y-124752073D01*
X113763380Y-124732335D01*
X113803476Y-124701126D01*
X113932948Y-124600355D01*
X113990469Y-124537870D01*
X116509500Y-124537870D01*
X116509501Y-124537876D01*
X116515908Y-124597483D01*
X116566202Y-124732328D01*
X116566206Y-124732335D01*
X116652452Y-124847544D01*
X116652455Y-124847547D01*
X116767664Y-124933793D01*
X116767671Y-124933797D01*
X116902517Y-124984091D01*
X116902516Y-124984091D01*
X116909444Y-124984835D01*
X116962127Y-124990500D01*
X119037872Y-124990499D01*
X119097483Y-124984091D01*
X119232331Y-124933796D01*
X119347546Y-124847546D01*
X119433796Y-124732331D01*
X119484091Y-124597483D01*
X119490500Y-124537873D01*
X119490499Y-123364741D01*
X121099500Y-123364741D01*
X121117308Y-123500000D01*
X121129452Y-123592238D01*
X121129453Y-123592240D01*
X121188842Y-123813887D01*
X121276650Y-124025876D01*
X121276657Y-124025890D01*
X121391392Y-124224617D01*
X121531081Y-124406661D01*
X121531089Y-124406670D01*
X121693330Y-124568911D01*
X121693338Y-124568918D01*
X121693339Y-124568919D01*
X121743962Y-124607764D01*
X121875382Y-124708607D01*
X121875385Y-124708608D01*
X121875388Y-124708611D01*
X122074112Y-124823344D01*
X122074117Y-124823346D01*
X122074123Y-124823349D01*
X122132543Y-124847547D01*
X122286113Y-124911158D01*
X122507762Y-124970548D01*
X122735266Y-125000500D01*
X122735273Y-125000500D01*
X122964727Y-125000500D01*
X122964734Y-125000500D01*
X123192238Y-124970548D01*
X123413887Y-124911158D01*
X123625888Y-124823344D01*
X123824612Y-124708611D01*
X124006661Y-124568919D01*
X124006665Y-124568914D01*
X124006670Y-124568911D01*
X124168911Y-124406670D01*
X124168914Y-124406665D01*
X124168919Y-124406661D01*
X124308611Y-124224612D01*
X124423344Y-124025888D01*
X124511158Y-123813887D01*
X124570548Y-123592238D01*
X124600500Y-123364734D01*
X124600500Y-123135266D01*
X124570548Y-122907762D01*
X124511158Y-122686113D01*
X124423344Y-122474112D01*
X124308611Y-122275388D01*
X124308608Y-122275385D01*
X124308607Y-122275382D01*
X124168918Y-122093338D01*
X124168911Y-122093330D01*
X124006670Y-121931089D01*
X124006661Y-121931081D01*
X123824617Y-121791392D01*
X123625890Y-121676657D01*
X123625876Y-121676650D01*
X123413887Y-121588842D01*
X123192238Y-121529452D01*
X123154215Y-121524446D01*
X122964741Y-121499500D01*
X122964734Y-121499500D01*
X122735266Y-121499500D01*
X122735258Y-121499500D01*
X122518715Y-121528009D01*
X122507762Y-121529452D01*
X122414076Y-121554554D01*
X122286112Y-121588842D01*
X122074123Y-121676650D01*
X122074109Y-121676657D01*
X121875382Y-121791392D01*
X121693338Y-121931081D01*
X121531081Y-122093338D01*
X121391392Y-122275382D01*
X121276657Y-122474109D01*
X121276650Y-122474123D01*
X121188842Y-122686112D01*
X121129453Y-122907759D01*
X121129451Y-122907770D01*
X121099500Y-123135258D01*
X121099500Y-123364741D01*
X119490499Y-123364741D01*
X119490499Y-122462128D01*
X119484091Y-122402517D01*
X119433796Y-122267669D01*
X119433795Y-122267668D01*
X119433793Y-122267664D01*
X119347547Y-122152455D01*
X119347544Y-122152452D01*
X119232335Y-122066206D01*
X119232328Y-122066202D01*
X119097482Y-122015908D01*
X119097483Y-122015908D01*
X119037883Y-122009501D01*
X119037881Y-122009500D01*
X119037873Y-122009500D01*
X119037864Y-122009500D01*
X116962129Y-122009500D01*
X116962123Y-122009501D01*
X116902516Y-122015908D01*
X116767671Y-122066202D01*
X116767664Y-122066206D01*
X116652455Y-122152452D01*
X116652452Y-122152455D01*
X116566206Y-122267664D01*
X116566202Y-122267671D01*
X116515908Y-122402517D01*
X116509501Y-122462116D01*
X116509501Y-122462123D01*
X116509500Y-122462135D01*
X116509500Y-124537870D01*
X113990469Y-124537870D01*
X114100245Y-124418621D01*
X114235348Y-124211831D01*
X114334572Y-123985623D01*
X114395210Y-123746169D01*
X114415608Y-123500000D01*
X114395210Y-123253831D01*
X114334572Y-123014377D01*
X114235348Y-122788169D01*
X114100245Y-122581379D01*
X113932948Y-122399645D01*
X113932943Y-122399641D01*
X113932941Y-122399639D01*
X113738028Y-122247932D01*
X113738022Y-122247928D01*
X113520780Y-122130362D01*
X113520771Y-122130359D01*
X113287153Y-122050157D01*
X113081907Y-122015908D01*
X113043506Y-122009500D01*
X112796494Y-122009500D01*
X112758093Y-122015908D01*
X112552846Y-122050157D01*
X112319228Y-122130359D01*
X112319219Y-122130362D01*
X112101977Y-122247928D01*
X112101971Y-122247932D01*
X111907058Y-122399639D01*
X111907055Y-122399642D01*
X111739752Y-122581382D01*
X111604650Y-122788172D01*
X111505428Y-123014376D01*
X111444789Y-123253834D01*
X111424392Y-123499994D01*
X111424392Y-123500005D01*
X76200500Y-123500005D01*
X76200500Y-115864741D01*
X79829500Y-115864741D01*
X79854446Y-116054215D01*
X79859452Y-116092238D01*
X79918842Y-116313887D01*
X80006650Y-116525876D01*
X80006657Y-116525890D01*
X80121392Y-116724617D01*
X80261081Y-116906661D01*
X80261089Y-116906670D01*
X80423330Y-117068911D01*
X80423338Y-117068918D01*
X80605382Y-117208607D01*
X80605385Y-117208608D01*
X80605388Y-117208611D01*
X80804112Y-117323344D01*
X80804117Y-117323346D01*
X80804123Y-117323349D01*
X80895480Y-117361190D01*
X81016113Y-117411158D01*
X81237762Y-117470548D01*
X81465266Y-117500500D01*
X81465273Y-117500500D01*
X81694727Y-117500500D01*
X81694734Y-117500500D01*
X81922238Y-117470548D01*
X82143887Y-117411158D01*
X82355888Y-117323344D01*
X82554612Y-117208611D01*
X82736661Y-117068919D01*
X82736665Y-117068914D01*
X82736670Y-117068911D01*
X82898911Y-116906670D01*
X82898914Y-116906665D01*
X82898919Y-116906661D01*
X83038611Y-116724612D01*
X83153344Y-116525888D01*
X83241158Y-116313887D01*
X83300548Y-116092238D01*
X83330500Y-115864734D01*
X83330500Y-115635266D01*
X83312692Y-115500005D01*
X111424392Y-115500005D01*
X111444789Y-115746165D01*
X111505428Y-115985623D01*
X111552194Y-116092240D01*
X111604652Y-116211831D01*
X111739755Y-116418621D01*
X111907052Y-116600355D01*
X111907055Y-116600357D01*
X111907058Y-116600360D01*
X112101971Y-116752067D01*
X112101977Y-116752071D01*
X112101980Y-116752073D01*
X112319221Y-116869638D01*
X112440536Y-116911285D01*
X112552846Y-116949842D01*
X112552848Y-116949842D01*
X112552850Y-116949843D01*
X112796494Y-116990500D01*
X112796495Y-116990500D01*
X113043505Y-116990500D01*
X113043506Y-116990500D01*
X113287150Y-116949843D01*
X113520779Y-116869638D01*
X113738020Y-116752073D01*
X113763380Y-116732335D01*
X113803476Y-116701126D01*
X113932948Y-116600355D01*
X113990469Y-116537870D01*
X116509500Y-116537870D01*
X116509501Y-116537876D01*
X116515908Y-116597483D01*
X116566202Y-116732328D01*
X116566206Y-116732335D01*
X116652452Y-116847544D01*
X116652455Y-116847547D01*
X116767664Y-116933793D01*
X116767671Y-116933797D01*
X116902517Y-116984091D01*
X116902516Y-116984091D01*
X116909444Y-116984835D01*
X116962127Y-116990500D01*
X119037872Y-116990499D01*
X119097483Y-116984091D01*
X119232331Y-116933796D01*
X119347546Y-116847546D01*
X119433796Y-116732331D01*
X119484091Y-116597483D01*
X119490500Y-116537873D01*
X119490499Y-114462128D01*
X119484091Y-114402517D01*
X119433796Y-114267669D01*
X119433795Y-114267668D01*
X119433793Y-114267664D01*
X119347547Y-114152455D01*
X119347544Y-114152452D01*
X119232335Y-114066206D01*
X119232328Y-114066202D01*
X119097482Y-114015908D01*
X119097483Y-114015908D01*
X119037883Y-114009501D01*
X119037881Y-114009500D01*
X119037873Y-114009500D01*
X119037864Y-114009500D01*
X116962129Y-114009500D01*
X116962123Y-114009501D01*
X116902516Y-114015908D01*
X116767671Y-114066202D01*
X116767664Y-114066206D01*
X116652455Y-114152452D01*
X116652452Y-114152455D01*
X116566206Y-114267664D01*
X116566202Y-114267671D01*
X116515908Y-114402517D01*
X116509501Y-114462116D01*
X116509501Y-114462123D01*
X116509500Y-114462135D01*
X116509500Y-116537870D01*
X113990469Y-116537870D01*
X114100245Y-116418621D01*
X114235348Y-116211831D01*
X114334572Y-115985623D01*
X114395210Y-115746169D01*
X114415608Y-115500000D01*
X114395210Y-115253831D01*
X114334572Y-115014377D01*
X114235348Y-114788169D01*
X114100245Y-114581379D01*
X113932948Y-114399645D01*
X113932943Y-114399641D01*
X113932941Y-114399639D01*
X113738028Y-114247932D01*
X113738022Y-114247928D01*
X113520780Y-114130362D01*
X113520771Y-114130359D01*
X113287153Y-114050157D01*
X113081907Y-114015908D01*
X113043506Y-114009500D01*
X112796494Y-114009500D01*
X112758093Y-114015908D01*
X112552846Y-114050157D01*
X112319228Y-114130359D01*
X112319219Y-114130362D01*
X112101977Y-114247928D01*
X112101971Y-114247932D01*
X111907058Y-114399639D01*
X111907055Y-114399642D01*
X111739752Y-114581382D01*
X111604650Y-114788172D01*
X111505428Y-115014376D01*
X111444789Y-115253834D01*
X111424392Y-115499994D01*
X111424392Y-115500005D01*
X83312692Y-115500005D01*
X83300548Y-115407762D01*
X83241158Y-115186113D01*
X83191190Y-115065480D01*
X83153349Y-114974123D01*
X83153346Y-114974117D01*
X83153344Y-114974112D01*
X83038611Y-114775388D01*
X83038608Y-114775385D01*
X83038607Y-114775382D01*
X82898918Y-114593338D01*
X82898911Y-114593330D01*
X82736670Y-114431089D01*
X82736661Y-114431081D01*
X82554617Y-114291392D01*
X82355890Y-114176657D01*
X82355876Y-114176650D01*
X82143887Y-114088842D01*
X82059407Y-114066206D01*
X81922238Y-114029452D01*
X81884215Y-114024446D01*
X81694741Y-113999500D01*
X81694734Y-113999500D01*
X81465266Y-113999500D01*
X81465258Y-113999500D01*
X81248715Y-114028009D01*
X81237762Y-114029452D01*
X81160489Y-114050157D01*
X81016112Y-114088842D01*
X80804123Y-114176650D01*
X80804109Y-114176657D01*
X80605382Y-114291392D01*
X80423338Y-114431081D01*
X80261081Y-114593338D01*
X80121392Y-114775382D01*
X80006657Y-114974109D01*
X80006650Y-114974123D01*
X79918842Y-115186112D01*
X79859453Y-115407759D01*
X79859451Y-115407770D01*
X79829500Y-115635258D01*
X79829500Y-115864741D01*
X76200500Y-115864741D01*
X76200500Y-108364741D01*
X121099500Y-108364741D01*
X121124446Y-108554215D01*
X121129452Y-108592238D01*
X121129453Y-108592240D01*
X121188842Y-108813887D01*
X121276650Y-109025876D01*
X121276657Y-109025890D01*
X121391392Y-109224617D01*
X121531081Y-109406661D01*
X121531089Y-109406670D01*
X121693330Y-109568911D01*
X121693338Y-109568918D01*
X121875382Y-109708607D01*
X121875385Y-109708608D01*
X121875388Y-109708611D01*
X122074112Y-109823344D01*
X122074117Y-109823346D01*
X122074123Y-109823349D01*
X122165480Y-109861190D01*
X122286113Y-109911158D01*
X122507762Y-109970548D01*
X122735266Y-110000500D01*
X122735273Y-110000500D01*
X122964727Y-110000500D01*
X122964734Y-110000500D01*
X123192238Y-109970548D01*
X123413887Y-109911158D01*
X123625888Y-109823344D01*
X123824612Y-109708611D01*
X124006661Y-109568919D01*
X124006665Y-109568914D01*
X124006670Y-109568911D01*
X124168911Y-109406670D01*
X124168914Y-109406665D01*
X124168919Y-109406661D01*
X124308611Y-109224612D01*
X124423344Y-109025888D01*
X124511158Y-108813887D01*
X124570548Y-108592238D01*
X124600500Y-108364734D01*
X124600500Y-108135266D01*
X124570548Y-107907762D01*
X124511158Y-107686113D01*
X124435621Y-107503750D01*
X124423349Y-107474123D01*
X124423346Y-107474117D01*
X124423344Y-107474112D01*
X124308611Y-107275388D01*
X124308608Y-107275385D01*
X124308607Y-107275382D01*
X124168918Y-107093338D01*
X124168911Y-107093330D01*
X124006670Y-106931089D01*
X124006661Y-106931081D01*
X123824617Y-106791392D01*
X123625890Y-106676657D01*
X123625876Y-106676650D01*
X123413887Y-106588842D01*
X123192238Y-106529452D01*
X123154215Y-106524446D01*
X122964741Y-106499500D01*
X122964734Y-106499500D01*
X122735266Y-106499500D01*
X122735258Y-106499500D01*
X122518715Y-106528009D01*
X122507762Y-106529452D01*
X122414076Y-106554554D01*
X122286112Y-106588842D01*
X122074123Y-106676650D01*
X122074109Y-106676657D01*
X121875382Y-106791392D01*
X121693338Y-106931081D01*
X121531081Y-107093338D01*
X121391392Y-107275382D01*
X121276657Y-107474109D01*
X121276650Y-107474123D01*
X121188842Y-107686112D01*
X121129453Y-107907759D01*
X121129451Y-107907770D01*
X121099500Y-108135258D01*
X121099500Y-108364741D01*
X76200500Y-108364741D01*
X76200500Y-107503750D01*
X76200726Y-107496263D01*
X76202912Y-107460118D01*
X76216813Y-107230307D01*
X76218618Y-107215447D01*
X76240995Y-107093338D01*
X76265969Y-106957057D01*
X76269548Y-106942539D01*
X76347699Y-106691743D01*
X76353001Y-106677762D01*
X76460822Y-106438194D01*
X76467767Y-106424961D01*
X76603677Y-106200139D01*
X76612164Y-106187843D01*
X76774183Y-105981041D01*
X76784098Y-105969850D01*
X76969850Y-105784098D01*
X76981041Y-105774183D01*
X77187843Y-105612164D01*
X77200139Y-105603677D01*
X77424961Y-105467767D01*
X77438194Y-105460822D01*
X77677762Y-105353001D01*
X77691743Y-105347699D01*
X77942539Y-105269548D01*
X77957057Y-105265969D01*
X78215450Y-105218617D01*
X78230307Y-105216813D01*
X78496264Y-105200726D01*
X78503751Y-105200500D01*
X78539882Y-105200500D01*
X124460118Y-105200500D01*
X124496249Y-105200500D01*
X124503736Y-105200726D01*
G37*
%TD.AperFunction*%
M02*
