*
*
G04 PADS 9.5 Build Number: 522968 generated Gerber (RS-274-X) file*
G04 PC Version=2.1*
*
%IN "IP2368_DEMO_1.4.4.pcb"*%
*
%MOIN*%
*
%FSLAX35Y35*%
*
*
*
*
G04 PC Standard Apertures*
*
*
G04 Thermal Relief Aperture macro.*
%AMTER*
1,1,$1,0,0*
1,0,$1-$2,0,0*
21,0,$3,$4,0,0,45*
21,0,$3,$4,0,0,135*
%
*
*
G04 Annular Aperture macro.*
%AMANN*
1,1,$1,0,0*
1,0,$2,0,0*
%
*
*
G04 Odd Aperture macro.*
%AMODD*
1,1,$1,0,0*
1,0,$1-0.005,0,0*
%
*
*
G04 PC Custom Aperture Macros*
*
*
*
*
*
*
G04 PC Aperture Table*
*
%ADD010C,0.006*%
%ADD049C,0.01*%
%ADD051C,0.008*%
%ADD052C,0.02*%
%ADD059C,0.001*%
%ADD117R,0.05906X0.05906*%
%ADD132C,0.05906*%
%ADD133R,0.06X0.06*%
%ADD134R,0.035X0.03*%
%ADD140C,0.02362*%
%ADD149R,0.0315X0.0315*%
%ADD153C,0.02756*%
%ADD159C,0.07874*%
%ADD161C,0.04921*%
%ADD205C,0.06*%
%ADD211O,0.07874X0.03937*%
%ADD239R,0.036X0.048*%
%ADD240R,0.11811X0.15748*%
%ADD241R,0.07087X0.03937*%
%ADD242R,0.07087X0.06693*%
%ADD247R,0.04724X0.06299*%
%ADD248R,0.07874X0.07087*%
*
*
*
*
G04 PC Circuitry*
G04 Layer Name IP2368_DEMO_1.4.4.pcb - circuitry*
%LPD*%
*
*
G04 PC Custom Flashes*
G04 Layer Name IP2368_DEMO_1.4.4.pcb - flashes*
%LPD*%
*
*
G04 PC Circuitry*
G04 Layer Name IP2368_DEMO_1.4.4.pcb - circuitry*
%LPD*%
*
G54D10*
G01X519800Y573000D02*
X523800D01*
X525200Y574400*
X569400*
X571200Y576200*
X581800*
X531800Y570600D02*
X581800D01*
X532153Y567000D02*
X533753Y568600D01*
X583800*
X585400Y570200*
X522600D02*
X524701D01*
X527501Y573000*
X583000*
G54D49*
X674040Y550294D02*
G75*
G03X674040I-5037J0D01*
G01X674610Y572841D02*
G03X674610I-5037J0D01*
G01X524552Y554220D02*
G03X524552I-2431J0D01*
G01X726700Y624395D02*
Y624984D01*
G03X726200Y625484I-500J0*
G01X603457*
G03X602957Y624984I-0J-500*
G01Y621203*
X601857Y620103D02*
G03X602957Y621203I-0J1100D01*
G01X601857Y620103D02*
X597232D01*
G03X596832Y619303I-0J-500*
G01X597051Y618644D02*
G03X596832Y619303I-1100J0D01*
G01X597051Y618644D02*
Y612345D01*
X595951Y611245D02*
G03X597051Y612345I0J1100D01*
G01X595951Y611245D02*
X594774D01*
G03X594274Y610745I0J-500*
G01Y607147*
G03X594641Y606665I500J0*
G01X595449Y605605D02*
G03X594641Y606665I-1100J-0D01*
G01X595449Y605605D02*
Y602455D01*
X594544Y601372D02*
G03X595449Y602455I-195J1083D01*
G01X594544Y601372D02*
G03Y600388I88J-492D01*
G01X595410Y599598D02*
G03X594544Y600388I-1061J-293D01*
G01X595410Y599598D02*
G03X595892Y599231I482J133D01*
G01X596374*
G03X596863Y599626I-0J500*
G01X597744Y600478D02*
G03X596863Y599626I194J-1083D01*
G01X597744Y600478D02*
G03Y601462I-89J492D01*
G01X596838Y602545D02*
G03X597744Y601462I1100J-0D01*
G01X596838Y602545D02*
Y605695D01*
X597938Y606795D02*
G03X596838Y605695I0J-1100D01*
G01X597938Y606795D02*
X599859D01*
G03X600213Y606941I0J500*
G01X602151Y608879*
G03X602297Y609233I-354J354*
G01Y610466*
X602737Y611526D02*
G03X602297Y610466I1060J-1060D01*
G01X602737Y611526D02*
X604957Y613747D01*
G03X605076Y614265I-353J354*
G01X607597Y611744D02*
G03X605076Y614265I1350J3872D01*
G01X607597Y611744D02*
G03X607079Y611626I-165J-472D01*
G01X605444Y609991*
G03X605297Y609637I353J-354*
G01Y608404*
X604858Y607343D02*
G03X605297Y608404I-1061J1061D01*
G01X604858Y607343D02*
X602334Y604820D01*
G03X602188Y604466I354J-354*
G01Y602545*
X601282Y601462D02*
G03X602188Y602545I-194J1083D01*
G01X601282Y601462D02*
G03Y600478I89J-492D01*
G01X602188Y599395D02*
G03X601282Y600478I-1100J0D01*
G01X602188Y599395D02*
Y597474D01*
G03X602334Y597121I500J0*
G01X603461Y595994*
X603900Y594934D02*
G03X603461Y595994I-1500J-0D01*
G01X603900Y594934D02*
Y593061D01*
G03X604015Y592742I500J0*
G01X600785D02*
G03X604015I1615J-1342D01*
G01X600785D02*
G03X600900Y593061I-385J319D01*
G01Y594105*
G03X600754Y594459I-500J0*
G01X600213Y594999*
G03X599859Y595146I-354J-353*
G01X597938*
X596897Y595892D02*
G03X597938Y595146I1041J354D01*
G01X596897Y595892D02*
G03X596423Y596231I-474J-161D01*
G01X595892*
G03X595410Y595864I-0J-500*
G01X594349Y595056D02*
G03X595410Y595864I0J1100D01*
G01X594349Y595056D02*
X591200D01*
X590099Y596156D02*
G03X591200Y595056I1101J-0D01*
G01X590099Y596156D02*
Y599305D01*
X591005Y600388D02*
G03X590099Y599305I195J-1083D01*
G01X591005Y600388D02*
G03Y601372I-88J492D01*
G01X590099Y602455D02*
G03X591005Y601372I1101J0D01*
G01X590099Y602455D02*
Y605605D01*
X590907Y606665D02*
G03X590099Y605605I293J-1060D01*
G01X590907Y606665D02*
G03X591274Y607147I-133J482D01*
G01Y610810*
G03X590916Y611290I-500J0*
G01X590127Y612345D02*
G03X590916Y611290I1100J-0D01*
G01X590127Y612345D02*
Y618277D01*
G03X589599Y618776I-500J-0*
G01X591915Y622326D02*
G03X589599Y618776I-2460J-926D01*
G01X591915Y622326D02*
G03X592883Y622502I468J176D01*
G01Y624984*
G03X592383Y625484I-500J0*
G01X577473*
G03X576973Y624984I-0J-500*
G01Y622502*
G03X577940Y622326I500J-0*
G01X577852Y620756D02*
G03X577940Y622326I2548J644D01*
G01X577852Y620756D02*
G03X576900Y620811I-484J-123D01*
G01X575873Y620103D02*
G03X576900Y620811I-0J1100D01*
G01X575873Y620103D02*
X567999D01*
X566898Y621203D02*
G03X567999Y620103I1101J0D01*
G01X566898Y621203D02*
Y624984D01*
G03X566398Y625484I-500J0*
G01X550461*
G03X550067Y624677I0J-500*
G01X550300Y624000D02*
G03X550067Y624677I-1100J0D01*
G01X550300Y624000D02*
Y618000D01*
X549200Y616900D02*
G03X550300Y618000I0J1100D01*
G01X549200Y616900D02*
X543200D01*
X542100Y618000D02*
G03X543200Y616900I1100J0D01*
G01X542100Y618000D02*
Y624000D01*
X542333Y624677D02*
G03X542100Y624000I867J-677D01*
G01X542333Y624677D02*
G03X541939Y625484I-394J307D01*
G01X540461*
G03X540067Y624677I0J-500*
G01X540300Y624000D02*
G03X540067Y624677I-1100J0D01*
G01X540300Y624000D02*
Y618000D01*
X539200Y616900D02*
G03X540300Y618000I0J1100D01*
G01X539200Y616900D02*
X533200D01*
X532100Y618000D02*
G03X533200Y616900I1100J0D01*
G01X532100Y618000D02*
Y624000D01*
X532333Y624677D02*
G03X532100Y624000I867J-677D01*
G01X532333Y624677D02*
G03X531939Y625484I-394J307D01*
G01X530461*
G03X530067Y624677I0J-500*
G01X530300Y624000D02*
G03X530067Y624677I-1100J0D01*
G01X530300Y624000D02*
Y618000D01*
X529200Y616900D02*
G03X530300Y618000I0J1100D01*
G01X529200Y616900D02*
X523200D01*
X522100Y618000D02*
G03X523200Y616900I1100J0D01*
G01X522100Y618000D02*
Y624000D01*
X522333Y624677D02*
G03X522100Y624000I867J-677D01*
G01X522333Y624677D02*
G03X521939Y625484I-394J307D01*
G01X515621*
G03X515210Y624700I0J-500*
G01X515406Y624074D02*
G03X515210Y624700I-1100J0D01*
G01X515406Y624074D02*
Y608326D01*
X514306Y607226D02*
G03X515406Y608326I-0J1100D01*
G01X514306Y607226D02*
X502494D01*
X502292Y607245D02*
G03X502494Y607226I202J1081D01*
G01X502292Y607245D02*
G03X501700Y606753I-92J-492D01*
G01Y502200*
G03X502200Y501700I500J0*
G01X546811*
G03X547165Y502554I0J500*
G01X546139Y503579*
X545700Y504640D02*
G03X546139Y503579I1500J-0D01*
G01X545700Y504640D02*
Y522565D01*
G03X545554Y522919I-500J0*
G01X543553Y524919*
G03X542700Y524566I-353J-353*
G01Y522151*
X542260Y521090D02*
G03X542700Y522151I-1060J1061D01*
G01X542260Y521090D02*
X539405Y518235D01*
G03X539259Y517882I354J-353*
G01Y517366*
G03X539681Y516873I500J0*
G01X540609Y515786D02*
G03X539681Y516873I-1100J0D01*
G01X540609Y515786D02*
Y512786D01*
X539509Y511686D02*
G03X540609Y512786I-0J1100D01*
G01X539509Y511686D02*
X536009D01*
X534909Y512786D02*
G03X536009Y511686I1100J0D01*
G01X534909Y512786D02*
Y515786D01*
X535837Y516873D02*
G03X534909Y515786I172J-1087D01*
G01X535837Y516873D02*
G03X536259Y517366I-78J493D01*
G01Y518710*
X536698Y519771D02*
G03X536259Y518710I1061J-1061D01*
G01X536698Y519771D02*
X539463Y522535D01*
G03X539109Y523389I-354J354*
G01X534341*
G03X533988Y523242I0J-500*
G01X529646Y518901*
G03X529500Y518547I354J-354*
G01Y517880*
G03X529922Y517387I500J0*
G01X530850Y516300D02*
G03X529922Y517387I-1100J0D01*
G01X530850Y516300D02*
Y513300D01*
X529750Y512200D02*
G03X530850Y513300I0J1100D01*
G01X529750Y512200D02*
X526250D01*
X525150Y513300D02*
G03X526250Y512200I1100J0D01*
G01X525150Y513300D02*
Y516300D01*
X526078Y517387D02*
G03X525150Y516300I172J-1087D01*
G01X526078Y517387D02*
G03X526500Y517880I-78J493D01*
G01Y519376*
X526939Y520436D02*
G03X526500Y519376I1061J-1060D01*
G01X526939Y520436D02*
X531866Y525364D01*
G03X532013Y525717I-353J353*
G01Y527197*
G03X531866Y527551I-500J0*
G01X531866D02*
X529139Y530278D01*
X528700Y531339D02*
G03X529139Y530278I1500J-0D01*
G01X528700Y531339D02*
Y534939D01*
G03X528585Y535258I-500J-0*
G01X532217Y536015D02*
G03X528585Y535258I-2017J585D01*
G01X532217Y536015D02*
G03X532827Y535393I480J-139D01*
G01X533113Y535431D02*
G03X532827Y535393I-0J-1100D01*
G01X533113Y535431D02*
X540200D01*
X541300Y534331D02*
G03X540200Y535431I-1100J0D01*
G01X541300Y534331D02*
Y531623D01*
G03X541446Y531269I500J-0*
G01X542260Y530455*
X548261Y524454*
X548700Y523394D02*
G03X548261Y524454I-1500J-0D01*
G01X548700Y523394D02*
Y511886D01*
G03X549200Y511386I500J0*
G01X554251*
G03X554741Y511985I0J500*
G01X556607Y514491D02*
G03X554741Y511985I193J-2091D01*
G01X556607Y514491D02*
G03X556914Y514635I-46J498D01*
G01X570125Y527846*
G03X569772Y528700I-353J354*
G01X560661*
G03X560342Y528585I0J-500*
G01Y531815D02*
G03Y528585I-1342J-1615D01*
G01Y531815D02*
G03X560661Y531700I319J385D01*
G01X570220*
G03X570574Y531846I0J500*
G01X574014Y535287*
G03X574149Y535748I-353J354*
G01X578177Y536908D02*
G03X574149Y535748I-1977J-708D01*
G01X578177Y536908D02*
G03X579001Y536723I471J168D01*
G01X579154Y536875*
G03X579300Y537228I-354J353*
G01Y540828*
X579739Y541889D02*
G03X579300Y540828I1061J-1061D01*
G01X579739Y541889D02*
X581361Y543511D01*
G03X581243Y544305I-353J353*
G01X582640Y550995D02*
G03X581243Y544305I281J-3549D01*
G01X582640Y550995D02*
G03X583100Y551494I-40J499D01*
G01Y556739*
G03X582985Y557058I-500J-0*
G01X586215D02*
G03X582985I-1615J1342D01*
G01X586215D02*
G03X586100Y556739I385J-319D01*
G01Y553474*
G03X586754Y552998I500J-0*
G01X589338Y550192D02*
G03X586754Y552998I-1938J808D01*
G01X589338Y550192D02*
G03X589300Y550000I462J-192D01*
G01Y527026*
X589150Y526372D02*
G03X589300Y527026I-1350J654D01*
G01X589150Y526372D02*
G03X589100Y526154I450J-218D01*
G01Y508061*
G03X589215Y507742I500J0*
G01X585985D02*
G03X589215I1615J-1342D01*
G01X585985D02*
G03X586100Y508061I-385J319D01*
G01Y513690*
G03X585335Y514114I-500J-0*
G01X584753Y513947D02*
G03X585335Y514114I-0J1100D01*
G01X584753Y513947D02*
X578847D01*
X577747Y515047D02*
G03X578847Y513947I1100J0D01*
G01X577747Y515047D02*
Y520953D01*
X578847Y522053D02*
G03X577747Y520953I0J-1100D01*
G01X578847Y522053D02*
X584753D01*
X585335Y521886D02*
G03X584753Y522053I-582J-933D01*
G01X585335Y521886D02*
G03X586100Y522310I265J424D01*
G01Y526826*
X586250Y527479D02*
G03X586100Y526826I1350J-653D01*
G01X586250Y527479D02*
G03X586300Y527697I-450J218D01*
G01Y535880*
G03X585350Y536098I-500J0*
G01X585061Y535691D02*
G03X585350Y536098I-1061J1061D01*
G01X585061Y535691D02*
X558646Y509277D01*
G03X558500Y508924I354J-353*
G01Y508318*
X558061Y507258D02*
G03X558500Y508318I-1061J1060D01*
G01X558061Y507258D02*
X557028Y506225D01*
X556418Y505855D02*
G03X557028Y506225I-450J1431D01*
G01X556418Y505855D02*
G03X556068Y505378I150J-477D01*
G01Y505200*
G03X556568Y504700I500J0*
G01X564800*
G03X565154Y504846I-0J500*
G01X567154Y506846*
G03X567300Y507200I-354J354*
G01Y508139*
G03X567185Y508458I-500J-0*
G01X570415D02*
G03X567185I-1615J1342D01*
G01X570415D02*
G03X570300Y508139I385J-319D01*
G01Y506372*
X569861Y505311D02*
G03X570300Y506372I-1061J1061D01*
G01X569861Y505311D02*
X567103Y502554D01*
G03X567457Y501700I354J-354*
G01X726200*
G03X726700Y502200I-0J500*
G01Y605447*
G03X726200Y605947I-500J-0*
G01X714649*
X713548Y607047D02*
G03X714649Y605947I1101J-0D01*
G01X713548Y607047D02*
Y622795D01*
X714649Y623895D02*
G03X713548Y622795I-0J-1100D01*
G01X714649Y623895D02*
X726200D01*
G03X726700Y624395I-0J500*
G01X592702Y619744D02*
G03X593102Y620544I-0J500D01*
G01X592955Y620811D02*
G03X593102Y620544I1028J392D01*
G01X592955Y620811D02*
G03X592003Y620756I-467J-178D01*
G01X591897Y620429D02*
G03X592003Y620756I-2442J971D01*
G01X591897Y620429D02*
G03X592362Y619744I465J-185D01*
G01X592702*
X675658Y538585D02*
G03Y541815I1342J1615D01*
G01Y538585D02*
G03X675339Y538700I-319J-385D01*
G01X663461*
G03X663142Y538585I0J-500*
G01Y541815D02*
G03Y538585I-1342J-1615D01*
G01Y541815D02*
G03X663461Y541700I319J385D01*
G01X675339*
G03X675658Y541815I-0J500*
G01X674040Y550294D02*
G03X674040I-5037J0D01*
G01X674610Y572841D02*
G03X674610I-5037J0D01*
G01X681053Y622553D02*
Y616647D01*
X679953Y615547D02*
G03X681053Y616647I-0J1100D01*
G01X679953Y615547D02*
X674047D01*
X672947Y616647D02*
G03X674047Y615547I1100J0D01*
G01X672947Y616647D02*
Y622553D01*
X674047Y623653D02*
G03X672947Y622553I0J-1100D01*
G01X674047Y623653D02*
X679953D01*
X681053Y622553D02*
G03X679953Y623653I-1100J-0D01*
G01X663815Y600458D02*
G03X660585I-1615J1342D01*
G01X663815D02*
G03X663700Y600139I385J-319D01*
G01Y583400*
X663261Y582339D02*
G03X663700Y583400I-1061J1061D01*
G01X663261Y582339D02*
X663235Y582314D01*
G03X663091Y582007I354J-353*
G01X660354Y584198D02*
G03X663091Y582007I646J-1998D01*
G01X660354Y584198D02*
G03X660700Y584674I-154J476D01*
G01Y600139*
G03X660585Y600458I-500J-0*
G01X643815Y560858D02*
G03X640585I-1615J1342D01*
G01X643815D02*
G03X643700Y560539I385J-319D01*
G01Y557461*
G03X643815Y557142I500J0*
G01X640585D02*
G03X643815I1615J-1342D01*
G01X640585D02*
G03X640700Y557461I-385J319D01*
G01Y560539*
G03X640585Y560858I-500J-0*
G01X643815Y575658D02*
G03X641101Y578790I-1615J1342D01*
G01X643815Y575658D02*
G03X643700Y575339I385J-319D01*
G01Y573461*
G03X643815Y573142I500J0*
G01X641008Y570071D02*
G03X643815Y573142I1192J1729D01*
G01X641008Y570071D02*
G03X640225Y569659I-283J-412D01*
G01Y567247*
X639262Y566156D02*
G03X640225Y567247I-137J1091D01*
G01X639262Y566156D02*
G03X638825Y565660I63J-496D01*
G01Y564525*
X638385Y563464D02*
G03X638825Y564525I-1060J1061D01*
G01X638385Y563464D02*
X635461Y560539D01*
X634400Y560100D02*
G03X635461Y560539I0J1500D01*
G01X634400Y560100D02*
X634061D01*
G03X633742Y559985I0J-500*
G01X633512Y563381D02*
G03X633742Y559985I-1112J-1781D01*
G01X633512Y563381D02*
G03X634131Y563452I265J424D01*
G01X635678Y564999*
G03X635825Y565353I-353J354*
G01Y565660*
G03X635387Y566156I-500J-0*
G01X634425Y567247D02*
G03X635387Y566156I1100J0D01*
G01X634425Y567247D02*
Y572047D01*
X635252Y573113D02*
G03X634425Y572047I273J-1066D01*
G01X635252Y573113D02*
G03X635288Y574071I-124J485D01*
G01X634539Y575114D02*
G03X635288Y574071I1100J-0D01*
G01X634539Y575114D02*
Y575514D01*
G03X634039Y576014I-500J-0*
G01X633286*
X632225Y576453D02*
G03X633286Y576014I1061J1061D01*
G01X632225Y576453D02*
X630139Y578539D01*
X629700Y579600D02*
G03X630139Y578539I1500J0D01*
G01X629700Y579600D02*
Y581539D01*
G03X629585Y581858I-500J-0*
G01X632815D02*
G03X629585I-1615J1342D01*
G01X632815D02*
G03X632700Y581539I385J-319D01*
G01Y580428*
G03X632846Y580075I500J0*
G01X633686Y579235*
G03X634539Y579589I353J354*
G01Y579914*
X635639Y581014D02*
G03X634539Y579914I0J-1100D01*
G01X635639Y581014D02*
X639239D01*
X640339Y579914D02*
G03X639239Y581014I-1100J-0D01*
G01X640339Y579914D02*
Y579216D01*
G03X641101Y578790I500J-0*
G01X652058Y601385D02*
G03Y604615I1342J1615D01*
G01Y601385D02*
G03X651739Y601500I-319J-385D01*
G01X647028*
G03X646675Y601354I0J-500*
G01X637635Y592314*
G03X637491Y592007I354J-353*
G01X635207Y594291D02*
G03X637491Y592007I193J-2091D01*
G01X635207Y594291D02*
G03X635514Y594435I-46J498D01*
G01X645139Y604061*
X646200Y604500D02*
G03X645139Y604061I0J-1500D01*
G01X646200Y604500D02*
X651739D01*
G03X652058Y604615I-0J500*
G01X627439Y579914D02*
Y575114D01*
X626612Y574048D02*
G03X627439Y575114I-273J1066D01*
G01X626612Y574048D02*
G03X626576Y573090I124J-484D01*
G01X627325Y572047D02*
G03X626576Y573090I-1100J0D01*
G01X627325Y572047D02*
Y567247D01*
X626225Y566147D02*
G03X627325Y567247I-0J1100D01*
G01X626225Y566147D02*
X622625D01*
X621525Y567247D02*
G03X622625Y566147I1100J0D01*
G01X621525Y567247D02*
Y572047D01*
X622352Y573113D02*
G03X621525Y572047I273J-1066D01*
G01X622352Y573113D02*
G03X622388Y574071I-124J485D01*
G01X621639Y575114D02*
G03X622388Y574071I1100J-0D01*
G01X621639Y575114D02*
Y577514D01*
Y585232*
G03X621493Y585586I-500J0*
G01X611314Y595765*
G03X611007Y595909I-353J-354*
G01X613291Y598193D02*
G03X611007Y595909I-2091J-193D01*
G01X613291Y598193D02*
G03X613435Y597886I498J46D01*
G01X624200Y587121*
X624639Y586061D02*
G03X624200Y587121I-1500J-0D01*
G01X624639Y586061D02*
Y581514D01*
G03X625139Y581014I500J-0*
G01X626339*
X627439Y579914D02*
G03X626339Y581014I-1100J-0D01*
G01X526615Y535709D02*
Y529016D01*
X525515Y527916D02*
G03X526615Y529016I-0J1100D01*
G01X525515Y527916D02*
X518428D01*
X517328Y529016D02*
G03X518428Y527916I1100J0D01*
G01X517328Y529016D02*
Y535709D01*
X518428Y536809D02*
G03X517328Y535709I-0J-1100D01*
G01X518428Y536809D02*
X525515D01*
X526615Y535709D02*
G03X525515Y536809I-1100J0D01*
G01X524552Y554220D02*
G03X524552I-2431J0D01*
G01X585471Y568101D02*
G03X585555Y572294I-71J2099D01*
G01X585471Y568101D02*
G03X585135Y567955I18J-500D01*
G01X584790Y567610*
X583800Y567200D02*
G03X584790Y567610I0J1400D01*
G01X583800Y567200D02*
X534735D01*
G03X534239Y566758I0J-500*
G01X530285Y566040D02*
G03X534239Y566758I1868J960D01*
G01X530285Y566040D02*
G03X529487Y566165I-445J-228D01*
G01X523446Y560125*
G03X523300Y559777I354J-354*
G01X520819Y561865D02*
G03X523300Y559777I381J-2065D01*
G01X520819Y561865D02*
G03X521082Y562003I-91J492D01*
G01X529565Y570486*
G03X529709Y570793I-354J353*
G01X529739Y571004D02*
G03X529709Y570793I2061J-404D01*
G01X529739Y571004D02*
G03X529249Y571600I-490J96D01*
G01X528288*
G03X527935Y571454I0J-500*
G01X525691Y569210*
X524701Y568800D02*
G03X525691Y569210I0J1400D01*
G01X524701Y568800D02*
X524375D01*
G03X524034Y568665I-0J-500*
G01X520507Y570368D02*
G03X524034Y568665I2093J-168D01*
G01X520507Y570368D02*
G03X519968Y570907I-499J40D01*
G01X519586Y575089D02*
G03X519968Y570907I214J-2089D01*
G01X519586Y575089D02*
G03X519976Y575822I-51J497D01*
G01X524485Y576402D02*
G03X519976Y575822I-2365J566D01*
G01X524485Y576402D02*
G03X525031Y575790I486J-116D01*
G01X525200Y575800D02*
G03X525031Y575790I0J-1400D01*
G01X525200Y575800D02*
X568613D01*
G03X568967Y575946I-0J500*
G01X570210Y577190*
X571200Y577600D02*
G03X570210Y577190I0J-1400D01*
G01X571200Y577600D02*
X580025D01*
G03X580366Y577735I0J500*
G01X583767Y575463D02*
G03X580366Y577735I-1967J737D01*
G01X583767Y575463D02*
G03X583997Y574848I468J-175D01*
G01X585093Y572833D02*
G03X583997Y574848I-2093J167D01*
G01X585093Y572833D02*
G03X585555Y572294I499J-40D01*
G01X588821Y597446D02*
Y591446D01*
X587721Y590346D02*
G03X588821Y591446I-0J1100D01*
G01X587721Y590346D02*
X581721D01*
X580621Y591446D02*
G03X581721Y590346I1100J-0D01*
G01X580621Y591446D02*
Y597446D01*
X581721Y598546D02*
G03X580621Y597446I-0J-1100D01*
G01X581721Y598546D02*
X587721D01*
X588821Y597446D02*
G03X587721Y598546I-1100J-0D01*
G01X591864Y620199D02*
X593200D01*
X592306Y621099D02*
X592670D01*
X602957Y624699D02*
X726700D01*
X654297Y604899D02*
X726700D01*
X655247Y603999D02*
X726700D01*
X663850Y603099D02*
X726700D01*
X664262Y602199D02*
X726700D01*
X664239Y601299D02*
X726700D01*
X663773Y600399D02*
X726700D01*
X663700Y599499D02*
X726700D01*
X663700Y598599D02*
X726700D01*
X663700Y597699D02*
X726700D01*
X663700Y596799D02*
X726700D01*
X663700Y595899D02*
X726700D01*
X663700Y594999D02*
X726700D01*
X663700Y594099D02*
X726700D01*
X663700Y593199D02*
X726700D01*
X663700Y592299D02*
X726700D01*
X663700Y591399D02*
X726700D01*
X663700Y590499D02*
X726700D01*
X663700Y589599D02*
X726700D01*
X663700Y588699D02*
X726700D01*
X663700Y587799D02*
X726700D01*
X663700Y586899D02*
X726700D01*
X663700Y585999D02*
X726700D01*
X663700Y585099D02*
X726700D01*
X663700Y584199D02*
X726700D01*
X663697Y583299D02*
X726700D01*
X663317Y582399D02*
X726700D01*
X662979Y581499D02*
X726700D01*
X662359Y580599D02*
X726700D01*
X640339Y579699D02*
X726700D01*
X643284Y578799D02*
X726700D01*
X644098Y577899D02*
X726700D01*
X672416Y576999D02*
X726700D01*
X673415Y576099D02*
X726700D01*
X674024Y575199D02*
X726700D01*
X674395Y574299D02*
X726700D01*
X674579Y573399D02*
X726700D01*
X674598Y572499D02*
X726700D01*
X674454Y571599D02*
X726700D01*
X674132Y570699D02*
X726700D01*
X673587Y569799D02*
X726700D01*
X672708Y568899D02*
X726700D01*
X670960Y567999D02*
X726700D01*
X640215Y567099D02*
X726700D01*
X639457Y566199D02*
X726700D01*
X638825Y565299D02*
X726700D01*
X638819Y564399D02*
X726700D01*
X643850Y563499D02*
X726700D01*
X644262Y562599D02*
X726700D01*
X644239Y561699D02*
X726700D01*
X643773Y560799D02*
X726700D01*
X643700Y559899D02*
X726700D01*
X643700Y558999D02*
X726700D01*
X643700Y558099D02*
X726700D01*
X643775Y557199D02*
X726700D01*
X644240Y556299D02*
X726700D01*
X644261Y555399D02*
X726700D01*
X671777Y554499D02*
X726700D01*
X672804Y553599D02*
X726700D01*
X673429Y552699D02*
X726700D01*
X673810Y551799D02*
X726700D01*
X674004Y550899D02*
X726700D01*
X674031Y549999D02*
X726700D01*
X673896Y549099D02*
X726700D01*
X673584Y548199D02*
X726700D01*
X673053Y547299D02*
X726700D01*
X672196Y546399D02*
X726700D01*
X670545Y545499D02*
X726700D01*
X589300Y544599D02*
X726700D01*
X589300Y543699D02*
X726700D01*
X589300Y542799D02*
X726700D01*
X678235Y541899D02*
X726700D01*
X678942Y540999D02*
X726700D01*
X679098Y540099D02*
X726700D01*
X678846Y539199D02*
X726700D01*
X677892Y538299D02*
X726700D01*
X589300Y537399D02*
X726700D01*
X589300Y536499D02*
X726700D01*
X589300Y535599D02*
X726700D01*
X589300Y534699D02*
X726700D01*
X589300Y533799D02*
X726700D01*
X589300Y532899D02*
X726700D01*
X589300Y531999D02*
X726700D01*
X589300Y531099D02*
X726700D01*
X589300Y530199D02*
X726700D01*
X589300Y529299D02*
X726700D01*
X589300Y528399D02*
X726700D01*
X589300Y527499D02*
X726700D01*
X589238Y526599D02*
X726700D01*
X589100Y525699D02*
X726700D01*
X589100Y524799D02*
X726700D01*
X589100Y523899D02*
X726700D01*
X589100Y522999D02*
X726700D01*
X589100Y522099D02*
X726700D01*
X589100Y521199D02*
X726700D01*
X589100Y520299D02*
X726700D01*
X589100Y519399D02*
X726700D01*
X589100Y518499D02*
X726700D01*
X589100Y517599D02*
X726700D01*
X589100Y516699D02*
X726700D01*
X589100Y515799D02*
X726700D01*
X589100Y514899D02*
X726700D01*
X589100Y513999D02*
X726700D01*
X589100Y513099D02*
X726700D01*
X589100Y512199D02*
X726700D01*
X589100Y511299D02*
X726700D01*
X589100Y510399D02*
X726700D01*
X589100Y509499D02*
X726700D01*
X589100Y508599D02*
X726700D01*
X589250Y507699D02*
X726700D01*
X589662Y506799D02*
X726700D01*
X589639Y505899D02*
X726700D01*
X589164Y504999D02*
X726700D01*
X568648Y504099D02*
X726700D01*
X567748Y503199D02*
X726700D01*
X566967Y502299D02*
X726700D01*
X603313Y605799D02*
X726555D01*
X602957Y623799D02*
X714198D01*
X604213Y606699D02*
X713605D01*
X680997Y622899D02*
X713553D01*
X681053Y621999D02*
X713548D01*
X681053Y621099D02*
X713548D01*
X681053Y620199D02*
X713548D01*
X681053Y619299D02*
X713548D01*
X681053Y618399D02*
X713548D01*
X681053Y617499D02*
X713548D01*
X681052Y616599D02*
X713548D01*
X680510Y615699D02*
X713548D01*
X612965Y614799D02*
X713548D01*
X612670Y613899D02*
X713548D01*
X612103Y612999D02*
X713548D01*
X611055Y612099D02*
X713548D01*
X606652Y611199D02*
X713548D01*
X605752Y610299D02*
X713548D01*
X605297Y609399D02*
X713548D01*
X605297Y608499D02*
X713548D01*
X605063Y607599D02*
X713548D01*
X662692Y538299D02*
X676108D01*
X663035Y541899D02*
X675765D01*
X613046Y615699D02*
X673490D01*
X602957Y622899D02*
X673003D01*
X612928Y616599D02*
X672948D01*
X602957Y621999D02*
X672947D01*
X602952Y621099D02*
X672947D01*
X602305Y620199D02*
X672947D01*
X610749Y619299D02*
X672947D01*
X611958Y618399D02*
X672947D01*
X612589Y617499D02*
X672947D01*
X640225Y567999D02*
X668186D01*
X589300Y545499D02*
X667461D01*
X644300Y576999D02*
X666730D01*
X640225Y568899D02*
X666438D01*
X643848Y554499D02*
X666230D01*
X589300Y546399D02*
X665810D01*
X644097Y576099D02*
X665731D01*
X642836Y569799D02*
X665559D01*
X586100Y553599D02*
X665202D01*
X643700Y575199D02*
X665122D01*
X643988Y570699D02*
X665014D01*
X589300Y547299D02*
X664953D01*
X643700Y574299D02*
X664752D01*
X644290Y571599D02*
X664692D01*
X588635Y552699D02*
X664577D01*
X643704Y573399D02*
X664567D01*
X644180Y572499D02*
X664548D01*
X589300Y548199D02*
X664422D01*
X589342Y551799D02*
X664196D01*
X589300Y549099D02*
X664110D01*
X589498Y550899D02*
X664002D01*
X589300Y549999D02*
X663975D01*
X589300Y538299D02*
X660908D01*
X644820Y599499D02*
X660700D01*
X643920Y598599D02*
X660700D01*
X643020Y597699D02*
X660700D01*
X642120Y596799D02*
X660700D01*
X641220Y595899D02*
X660700D01*
X640320Y594999D02*
X660700D01*
X639420Y594099D02*
X660700D01*
X638520Y593199D02*
X660700D01*
X637621Y592299D02*
X660700D01*
X637341Y591399D02*
X660700D01*
X636631Y590499D02*
X660700D01*
X621723Y589599D02*
X660700D01*
X622623Y588699D02*
X660700D01*
X623523Y587799D02*
X660700D01*
X624383Y586899D02*
X660700D01*
X624639Y585999D02*
X660700D01*
X632097Y585099D02*
X660700D01*
X645720Y600399D02*
X660627D01*
X589300Y541899D02*
X660565D01*
X655498Y603099D02*
X660550D01*
X633047Y584199D02*
X660356D01*
X654631Y601299D02*
X660161D01*
X655341Y602199D02*
X660138D01*
X589300Y539199D02*
X659954D01*
X589300Y540999D02*
X659858D01*
X589300Y540099D02*
X659702D01*
X640100Y580599D02*
X659641D01*
X633298Y583299D02*
X659210D01*
X632700Y581499D02*
X659021D01*
X633141Y582399D02*
X658909D01*
X602413Y604899D02*
X652503D01*
X646620Y601299D02*
X652169D01*
X602188Y603999D02*
X645077D01*
X602188Y603099D02*
X644177D01*
X602132Y602199D02*
X643277D01*
X600994Y601299D02*
X642377D01*
X640244Y569799D02*
X641564D01*
X601539Y600399D02*
X641477D01*
X640563Y578799D02*
X641116D01*
X633631Y559899D02*
X640700D01*
X586613Y558999D02*
X640700D01*
X586678Y558099D02*
X640700D01*
X635720Y560799D02*
X640627D01*
X586322Y557199D02*
X640625D01*
X612671Y599499D02*
X640577D01*
X586100Y554499D02*
X640552D01*
X638419Y563499D02*
X640550D01*
X636620Y561699D02*
X640161D01*
X586100Y556299D02*
X640160D01*
X586100Y555399D02*
X640139D01*
X637520Y562599D02*
X640138D01*
X613213Y598599D02*
X639677D01*
X613623Y597699D02*
X638777D01*
X614523Y596799D02*
X637877D01*
X615423Y595899D02*
X636977D01*
X616323Y594999D02*
X636077D01*
X533384Y565299D02*
X635822D01*
X626264Y573399D02*
X635587D01*
X626557Y566199D02*
X635193D01*
X527720Y564399D02*
X635077D01*
X627078Y574299D02*
X634901D01*
X632700Y580599D02*
X634779D01*
X633223Y579699D02*
X634539D01*
X627439Y575199D02*
X634539D01*
X627228Y572499D02*
X634521D01*
X617223Y594099D02*
X634503D01*
X627315Y567099D02*
X634435D01*
X627325Y571599D02*
X634425D01*
X627325Y570699D02*
X634425D01*
X627325Y569799D02*
X634425D01*
X627325Y568899D02*
X634425D01*
X627325Y567999D02*
X634425D01*
X633297Y563499D02*
X634177D01*
X620823Y590499D02*
X634169D01*
X618123Y593199D02*
X633553D01*
X619923Y591399D02*
X633459D01*
X619023Y592299D02*
X633302D01*
X627439Y576099D02*
X632789D01*
X627439Y576999D02*
X631680D01*
X526820Y563499D02*
X631503D01*
X586071Y559899D02*
X631169D01*
X627439Y577899D02*
X630780D01*
X525920Y562599D02*
X630553D01*
X524120Y560799D02*
X630459D01*
X624639Y585099D02*
X630303D01*
X525020Y561699D02*
X630302D01*
X627439Y578799D02*
X629932D01*
X624640Y581499D02*
X629700D01*
X627200Y580599D02*
X629700D01*
X627439Y579699D02*
X629700D01*
X624639Y584199D02*
X629353D01*
X624639Y582399D02*
X629259D01*
X624639Y583299D02*
X629102D01*
X585062Y573399D02*
X622687D01*
X534094Y566199D02*
X622293D01*
X584650Y574299D02*
X622001D01*
X501700Y585099D02*
X621639D01*
X501700Y584199D02*
X621639D01*
X501700Y583299D02*
X621639D01*
X501700Y582399D02*
X621639D01*
X501700Y581499D02*
X621639D01*
X501700Y580599D02*
X621639D01*
X501700Y579699D02*
X621639D01*
X523720Y578799D02*
X621639D01*
X583035Y577899D02*
X621639D01*
X583742Y576999D02*
X621639D01*
X583898Y576099D02*
X621639D01*
X583743Y575199D02*
X621639D01*
X585188Y572499D02*
X621621D01*
X534434Y567099D02*
X621535D01*
X586966Y571599D02*
X621525D01*
X587440Y570699D02*
X621525D01*
X587461Y569799D02*
X621525D01*
X587048Y568899D02*
X621525D01*
X585185Y567999D02*
X621525D01*
X501700Y585999D02*
X621080D01*
X501700Y586899D02*
X620180D01*
X501700Y587799D02*
X619280D01*
X501700Y588699D02*
X618380D01*
X603480Y589599D02*
X617480D01*
X604297Y590499D02*
X616580D01*
X604500Y591399D02*
X615680D01*
X604298Y592299D02*
X614780D01*
X603900Y593199D02*
X613880D01*
X603900Y594099D02*
X612980D01*
X603899Y594999D02*
X612080D01*
X603548Y595899D02*
X611071D01*
X602183Y599499D02*
X609729D01*
X602656Y596799D02*
X609478D01*
X602188Y598599D02*
X609187D01*
X602188Y597699D02*
X609122D01*
X596835Y619299D02*
X607146D01*
X597051Y618399D02*
X605936D01*
X597051Y617499D02*
X605305D01*
X597051Y613899D02*
X605061D01*
X597051Y616599D02*
X604967D01*
X597051Y614799D02*
X604929D01*
X597051Y615699D02*
X604848D01*
X597051Y612999D02*
X604209D01*
X597023Y612099D02*
X603309D01*
X594565Y611199D02*
X602489D01*
X594274Y610299D02*
X602297D01*
X594274Y609399D02*
X602297D01*
X594274Y608499D02*
X601771D01*
X501700Y589599D02*
X601320D01*
X588821Y594099D02*
X600900D01*
X588821Y593199D02*
X600900D01*
X594274Y607599D02*
X600871D01*
X588280Y590499D02*
X600503D01*
X588821Y592299D02*
X600502D01*
X588820Y591399D02*
X600300D01*
X588821Y594999D02*
X600213D01*
X594358Y601299D02*
X598032D01*
X594553Y606699D02*
X597489D01*
X594498Y600399D02*
X597487D01*
X595421Y595899D02*
X596894D01*
X595419Y602199D02*
X596894D01*
X595432Y605799D02*
X596843D01*
X595449Y604899D02*
X596838D01*
X595449Y603999D02*
X596838D01*
X595449Y603099D02*
X596838D01*
X595449Y599499D02*
X596817D01*
X576973Y624699D02*
X592883D01*
X590529Y623799D02*
X592883D01*
X591614Y622899D02*
X592883D01*
X515406Y610299D02*
X591274D01*
X515406Y609399D02*
X591274D01*
X515406Y608499D02*
X591274D01*
X515131Y607599D02*
X591274D01*
X501700Y601299D02*
X591190D01*
X515406Y611199D02*
X591089D01*
X501700Y600399D02*
X591051D01*
X501700Y606699D02*
X590995D01*
X515406Y612099D02*
X590155D01*
X588821Y595899D02*
X590130D01*
X501700Y602199D02*
X590130D01*
X550179Y617499D02*
X590127D01*
X515406Y616599D02*
X590127D01*
X515406Y615699D02*
X590127D01*
X515406Y614799D02*
X590127D01*
X515406Y613899D02*
X590127D01*
X515406Y612999D02*
X590127D01*
X501700Y605799D02*
X590117D01*
X501700Y599499D02*
X590117D01*
X550300Y618399D02*
X590112D01*
X501700Y604899D02*
X590099D01*
X501700Y603999D02*
X590099D01*
X501700Y603099D02*
X590099D01*
X501700Y598599D02*
X590099D01*
X588792Y597699D02*
X590099D01*
X588821Y596799D02*
X590099D01*
X581474Y623799D02*
X588382D01*
X581978Y619299D02*
X587877D01*
X582559Y622899D02*
X587296D01*
X582737Y620199D02*
X587118D01*
X582959Y621999D02*
X586896D01*
X583011Y621099D02*
X586845D01*
X584968Y535599D02*
X586300D01*
X584068Y534699D02*
X586300D01*
X583168Y533799D02*
X586300D01*
X582268Y532899D02*
X586300D01*
X581368Y531999D02*
X586300D01*
X580468Y531099D02*
X586300D01*
X579568Y530199D02*
X586300D01*
X578668Y529299D02*
X586300D01*
X577768Y528399D02*
X586300D01*
X576868Y527499D02*
X586259D01*
X575968Y526599D02*
X586100D01*
X575068Y525699D02*
X586100D01*
X574168Y524799D02*
X586100D01*
X573268Y523899D02*
X586100D01*
X572368Y522999D02*
X586100D01*
X562468Y513099D02*
X586100D01*
X561568Y512199D02*
X586100D01*
X570271Y511299D02*
X586100D01*
X570813Y510399D02*
X586100D01*
X570878Y509499D02*
X586100D01*
X570522Y508599D02*
X586100D01*
X571468Y522099D02*
X586053D01*
X569548Y504999D02*
X586036D01*
X585085Y513999D02*
X585993D01*
X570300Y507699D02*
X585950D01*
X570224Y505899D02*
X585561D01*
X570300Y506799D02*
X585538D01*
X523316Y559899D02*
X583129D01*
X523382Y556299D02*
X583100D01*
X524247Y555399D02*
X583100D01*
X524536Y554499D02*
X583100D01*
X524471Y553599D02*
X583100D01*
X524017Y552699D02*
X583100D01*
X522334Y551799D02*
X583100D01*
X501700Y557199D02*
X582878D01*
X523141Y558999D02*
X582587D01*
X522431Y558099D02*
X582522D01*
X501700Y550899D02*
X582051D01*
X501700Y543699D02*
X581479D01*
X501700Y590499D02*
X581162D01*
X501700Y544599D02*
X580783D01*
X501700Y597699D02*
X580650D01*
X501700Y542799D02*
X580649D01*
X501700Y591399D02*
X580622D01*
X501700Y596799D02*
X580621D01*
X501700Y595899D02*
X580621D01*
X501700Y594999D02*
X580621D01*
X501700Y594099D02*
X580621D01*
X501700Y593199D02*
X580621D01*
X501700Y592299D02*
X580621D01*
X524366Y577899D02*
X580565D01*
X501700Y549999D02*
X580439D01*
X501700Y545499D02*
X579940D01*
X501700Y549099D02*
X579767D01*
X501700Y541899D02*
X579749D01*
X501700Y546399D02*
X579518D01*
X501700Y548199D02*
X579441D01*
X501700Y547299D02*
X579363D01*
X576973Y623799D02*
X579326D01*
X501700Y540999D02*
X579310D01*
X501700Y540099D02*
X579300D01*
X501700Y539199D02*
X579300D01*
X576275Y538299D02*
X579300D01*
X577924Y537399D02*
X579300D01*
X550300Y619299D02*
X578822D01*
X563368Y513999D02*
X578515D01*
X576973Y622899D02*
X578241D01*
X576321Y620199D02*
X578063D01*
X570568Y521199D02*
X577775D01*
X564268Y514899D02*
X577757D01*
X569668Y520299D02*
X577747D01*
X568768Y519399D02*
X577747D01*
X567868Y518499D02*
X577747D01*
X566968Y517599D02*
X577747D01*
X566068Y516699D02*
X577747D01*
X565168Y515799D02*
X577747D01*
X577185Y621099D02*
X577550D01*
X531435Y538299D02*
X576125D01*
X532142Y537399D02*
X574476D01*
X532281Y535599D02*
X574159D01*
X532298Y536499D02*
X574121D01*
X541236Y534699D02*
X573426D01*
X541300Y533799D02*
X572526D01*
X541300Y532899D02*
X571626D01*
X560084Y531999D02*
X570726D01*
X560080Y528399D02*
X570230D01*
X524551Y576999D02*
X570019D01*
X545216Y527499D02*
X569777D01*
X524508Y576099D02*
X569119D01*
X546116Y526599D02*
X568877D01*
X547016Y525699D02*
X567977D01*
X550300Y620199D02*
X567550D01*
X560668Y511299D02*
X567329D01*
X558366Y507699D02*
X567300D01*
X557602Y506799D02*
X567106D01*
X558500Y508599D02*
X567078D01*
X547916Y524799D02*
X567077D01*
X550300Y621099D02*
X566903D01*
X550051Y624699D02*
X566898D01*
X550300Y623799D02*
X566898D01*
X550300Y622899D02*
X566898D01*
X550300Y621999D02*
X566898D01*
X559768Y510399D02*
X566787D01*
X558868Y509499D02*
X566722D01*
X556538Y505899D02*
X566206D01*
X548612Y523899D02*
X566177D01*
X556110Y504999D02*
X565306D01*
X548700Y522999D02*
X565277D01*
X548700Y522099D02*
X564377D01*
X548700Y521199D02*
X563477D01*
X548700Y520299D02*
X562577D01*
X548700Y519399D02*
X561677D01*
X548700Y518499D02*
X560777D01*
X548700Y517599D02*
X559877D01*
X548700Y516699D02*
X558977D01*
X548700Y515799D02*
X558077D01*
X544316Y528399D02*
X557920D01*
X541300Y531999D02*
X557916D01*
X548700Y514899D02*
X557177D01*
X543416Y529299D02*
X557103D01*
X541616Y531099D02*
X557102D01*
X542516Y530199D02*
X556900D01*
X548700Y513999D02*
X555438D01*
X548700Y513099D02*
X554820D01*
X548700Y512199D02*
X554710D01*
X501700Y502299D02*
X547301D01*
X501700Y503199D02*
X546520D01*
X501700Y504099D02*
X545801D01*
X542699Y522099D02*
X545700D01*
X542359Y521199D02*
X545700D01*
X541469Y520299D02*
X545700D01*
X540569Y519399D02*
X545700D01*
X539669Y518499D02*
X545700D01*
X539259Y517599D02*
X545700D01*
X540123Y516699D02*
X545700D01*
X540609Y515799D02*
X545700D01*
X540609Y514899D02*
X545700D01*
X540609Y513999D02*
X545700D01*
X540609Y513099D02*
X545700D01*
X540439Y512199D02*
X545700D01*
X501700Y511299D02*
X545700D01*
X501700Y510399D02*
X545700D01*
X501700Y509499D02*
X545700D01*
X501700Y508599D02*
X545700D01*
X501700Y507699D02*
X545700D01*
X501700Y506799D02*
X545700D01*
X501700Y505899D02*
X545700D01*
X501700Y504999D02*
X545700D01*
X542700Y522999D02*
X545474D01*
X542700Y523899D02*
X544574D01*
X542757Y524799D02*
X543674D01*
X540051Y624699D02*
X542349D01*
X540179Y617499D02*
X542221D01*
X540300Y623799D02*
X542100D01*
X540300Y622899D02*
X542100D01*
X540300Y621999D02*
X542100D01*
X540300Y621099D02*
X542100D01*
X540300Y620199D02*
X542100D01*
X540300Y619299D02*
X542100D01*
X540300Y618399D02*
X542100D01*
X533744Y522999D02*
X539597D01*
X532844Y522099D02*
X539026D01*
X531944Y521199D02*
X538126D01*
X531044Y520299D02*
X537226D01*
X530144Y519399D02*
X536426D01*
X529500Y518499D02*
X536259D01*
X529587Y517599D02*
X536259D01*
X530775Y516699D02*
X535395D01*
X501700Y512199D02*
X535079D01*
X530850Y515799D02*
X534909D01*
X530850Y514899D02*
X534909D01*
X530850Y513999D02*
X534909D01*
X530831Y513099D02*
X534909D01*
X530051Y624699D02*
X532349D01*
X530179Y617499D02*
X532221D01*
X530300Y623799D02*
X532100D01*
X530300Y622899D02*
X532100D01*
X530300Y621999D02*
X532100D01*
X530300Y621099D02*
X532100D01*
X530300Y620199D02*
X532100D01*
X530300Y619299D02*
X532100D01*
X530300Y618399D02*
X532100D01*
X501700Y526599D02*
X532013D01*
X501700Y525699D02*
X532013D01*
X501700Y527499D02*
X531912D01*
X501700Y524799D02*
X531302D01*
X526425Y528399D02*
X531019D01*
X528620Y565299D02*
X530922D01*
X501700Y523899D02*
X530402D01*
X529524Y566199D02*
X530157D01*
X526615Y529299D02*
X530119D01*
X527180Y570699D02*
X529691D01*
X501700Y522999D02*
X529502D01*
X528253Y571599D02*
X529284D01*
X526615Y530199D02*
X529219D01*
X501700Y538299D02*
X528965D01*
X526280Y569799D02*
X528877D01*
X526615Y531099D02*
X528719D01*
X526615Y534699D02*
X528700D01*
X526615Y533799D02*
X528700D01*
X526615Y532899D02*
X528700D01*
X526615Y531999D02*
X528700D01*
X501700Y522099D02*
X528602D01*
X526615Y535599D02*
X528354D01*
X501700Y537399D02*
X528258D01*
X526280Y536499D02*
X528102D01*
X525218Y568899D02*
X527977D01*
X501700Y521199D02*
X527702D01*
X501700Y567999D02*
X527077D01*
X501700Y520299D02*
X526818D01*
X501700Y519399D02*
X526500D01*
X501700Y518499D02*
X526500D01*
X501700Y517599D02*
X526413D01*
X501700Y567099D02*
X526177D01*
X501700Y566199D02*
X525277D01*
X501700Y516699D02*
X525225D01*
X501700Y513099D02*
X525169D01*
X501700Y515799D02*
X525150D01*
X501700Y514899D02*
X525150D01*
X501700Y513999D02*
X525150D01*
X501700Y565299D02*
X524377D01*
X501700Y564399D02*
X523477D01*
X501700Y563499D02*
X522577D01*
X515211Y624699D02*
X522349D01*
X515406Y617499D02*
X522221D01*
X515406Y623799D02*
X522100D01*
X515406Y622899D02*
X522100D01*
X515406Y621999D02*
X522100D01*
X515406Y621099D02*
X522100D01*
X515406Y620199D02*
X522100D01*
X515406Y619299D02*
X522100D01*
X515406Y618399D02*
X522100D01*
X501700Y551799D02*
X521907D01*
X501700Y562599D02*
X521677D01*
X501700Y568899D02*
X520952D01*
X501700Y556299D02*
X520859D01*
X501700Y569799D02*
X520539D01*
X501700Y578799D02*
X520521D01*
X501700Y570699D02*
X520415D01*
X501700Y561699D02*
X520303D01*
X501700Y552699D02*
X520225D01*
X501700Y555399D02*
X519994D01*
X501700Y558099D02*
X519969D01*
X501700Y577899D02*
X519875D01*
X501700Y575199D02*
X519851D01*
X501700Y576099D02*
X519850D01*
X501700Y553599D02*
X519770D01*
X501700Y554499D02*
X519706D01*
X501700Y576999D02*
X519690D01*
X501700Y560799D02*
X519353D01*
X501700Y558999D02*
X519259D01*
X501700Y559899D02*
X519102D01*
X501700Y571599D02*
X518236D01*
X501700Y574299D02*
X518150D01*
X501700Y572499D02*
X517761D01*
X501700Y573399D02*
X517738D01*
X501700Y536499D02*
X517662D01*
X501700Y528399D02*
X517518D01*
X501700Y535599D02*
X517328D01*
X501700Y534699D02*
X517328D01*
X501700Y533799D02*
X517328D01*
X501700Y532899D02*
X517328D01*
X501700Y531999D02*
X517328D01*
X501700Y531099D02*
X517328D01*
X501700Y530199D02*
X517328D01*
X501700Y529299D02*
X517328D01*
X500600Y626584D02*
X727800D01*
Y500600*
X500600*
Y626584*
G54D51*
X528000Y514800D02*
Y519376D01*
X535081Y526457*
X536656*
X551968Y507286D02*
X555968D01*
X557000Y508318*
Y509752*
X584000Y536752*
Y541200*
X537759Y514286D02*
Y518710D01*
X541200Y522151*
Y529394*
X565628Y503200D02*
X568800Y506372D01*
Y509800*
X565628Y503200D02*
X548640D01*
X547200Y504640*
Y523394*
X541200Y529394*
X556800Y512400D02*
X580800Y536400D01*
Y540828*
X583572Y543600*
X583969*
X586382Y546013*
Y549035*
X587600Y506400D02*
Y526826D01*
X587800Y527026*
X541200Y529394D02*
X538231Y532363D01*
X536656*
Y526457D02*
X535081D01*
X530200Y531339*
Y536600*
X559000Y530200D02*
X571049D01*
X576200Y535351*
Y536200*
X587800Y527026D02*
Y551000D01*
X587400*
X586382Y549035D02*
X584600Y550816D01*
Y558400*
X661800Y540200D02*
X677000D01*
X521200Y559800D02*
X521400D01*
Y560200*
X531800Y570600*
X632400Y561600D02*
X634400D01*
X637325Y564525*
Y569647*
X624425D02*
X624539D01*
Y577514*
X642200Y571800D02*
Y577000D01*
Y555800D02*
Y562200D01*
X602400Y591400D02*
Y594934D01*
X599513Y597820*
X624539Y577514D02*
X623139D01*
Y586061*
X611200Y598000*
X635400Y592200D02*
X646200Y603000D01*
X653400*
X637439Y577514D02*
X633286D01*
X631200Y579600*
Y583200*
X661000Y582200D02*
X662200Y583400D01*
Y601800*
X592774Y597731D02*
X599513D01*
Y597820*
X592774Y604030D02*
Y615494D01*
X593589*
X599513Y604120D02*
X603797Y608404D01*
Y610466*
X608947Y615616*
G54D52*
X517800Y502800D03*
X517000Y507600D03*
X544800Y507200D03*
X556800Y512400D03*
X568800Y509800D03*
X569400Y504000D03*
X572600Y507200D03*
Y504000D03*
X566800Y507200D03*
X587600Y506400D03*
X591800Y511200D03*
Y508000D03*
X595800Y508200D03*
Y511400D03*
X605000Y505400D03*
X613800D03*
X631000D03*
X622600D03*
X634600Y507000D03*
Y510200D03*
X637800Y507000D03*
Y510200D03*
X667000Y507800D03*
X663400Y505000D03*
X666600D03*
X663800Y507800D03*
X667000Y511000D03*
X670200Y507800D03*
X669800Y505000D03*
X663800Y511000D03*
X670200D03*
X693600Y512800D03*
X690400D03*
X696800D03*
X710400Y511200D03*
X707200D03*
X713600Y504800D03*
X707200Y508000D03*
X710400Y504800D03*
X713600Y511200D03*
X710400Y508000D03*
X707200Y504800D03*
X713600Y508000D03*
X513800Y530000D03*
X524800Y518400D03*
X515800Y527800D03*
X552200Y524600D03*
X541200Y517600D03*
X544800D03*
X559000Y530200D03*
X558800Y523800D03*
X580400Y527200D03*
X583200Y527400D03*
Y530200D03*
X590600D03*
X593800Y527000D03*
X590600D03*
X580600Y530200D03*
X597200Y527200D03*
X600400D03*
X690400Y519200D03*
Y516000D03*
X693600Y519200D03*
X692800Y532000D03*
X693600Y516000D03*
X696800D03*
X696000Y532000D03*
X696800Y519200D03*
X699200Y532000D03*
X723200Y524600D03*
X716800Y521400D03*
X720000Y524600D03*
Y521400D03*
X716800Y524600D03*
X723200Y521400D03*
X716800Y527800D03*
X723200D03*
X720000D03*
X530200Y536600D03*
X527400Y538800D03*
X531600Y546600D03*
X526400Y553000D03*
X528800D03*
X532000Y552600D03*
X531600Y549800D03*
X551000Y545200D03*
X535200Y549000D03*
X539800Y548600D03*
X537200Y546400D03*
X584000Y541200D03*
X576200Y536200D03*
X587400Y551000D03*
X626200Y548000D03*
X626400Y545000D03*
X626200Y553800D03*
Y550600D03*
X652200Y549400D03*
Y552600D03*
X648800Y549400D03*
Y552600D03*
X638800Y553200D03*
X653800Y539000D03*
X661800Y540200D03*
X657200Y539000D03*
X677000Y540200D03*
X692800Y535200D03*
Y538400D03*
X696000D03*
Y535200D03*
X699200D03*
Y538400D03*
X719800Y543800D03*
X723000Y540600D03*
X716600Y537400D03*
Y543800D03*
X723000D03*
Y537400D03*
X719800Y540600D03*
X716600D03*
X719800Y537400D03*
X509400Y567000D03*
X512600D03*
X509400Y563800D03*
X512600D03*
X519800Y573000D03*
X521200Y559800D03*
X531800Y570600D03*
X532153Y567000D03*
X522600Y570200D03*
X581800Y570600D03*
X585400Y570200D03*
X583000Y573000D03*
X584600Y558400D03*
X598200Y558600D03*
Y568200D03*
X601400Y555800D03*
X595000Y574600D03*
X608200Y565000D03*
X611400Y561800D03*
X608200Y558600D03*
X595000D03*
X608200Y574600D03*
X598200Y571400D03*
X601400D03*
Y565000D03*
X611400D03*
X608200Y561800D03*
X601400Y558600D03*
X598200Y574600D03*
X595000Y565000D03*
X605000Y574600D03*
Y555800D03*
X608200D03*
X595000D03*
X608200Y568200D03*
X605000Y561800D03*
Y568200D03*
X611400Y558600D03*
Y571400D03*
X598200Y561800D03*
X595000Y568200D03*
X598200Y555800D03*
X611400Y574600D03*
Y568200D03*
X598200Y565000D03*
X595000Y561800D03*
X608200Y571400D03*
X611400Y555800D03*
X605000Y571400D03*
Y565000D03*
X601400Y568200D03*
X595000Y571400D03*
X601400Y561800D03*
X605000Y558600D03*
X601400Y574600D03*
X632400Y561600D03*
X628800Y558400D03*
X642200Y571800D03*
Y555800D03*
Y562200D03*
X652200Y568600D03*
X638800Y556400D03*
X652200Y565400D03*
X722000Y563000D03*
X718800Y556600D03*
Y563000D03*
X722000Y556600D03*
X725200Y559800D03*
Y563000D03*
Y556600D03*
X722000Y559800D03*
X718800D03*
X515600Y576800D03*
Y580000D03*
X551400Y584600D03*
X549400Y589800D03*
X546200D03*
X544000Y586800D03*
X560400Y576600D03*
X581800Y576200D03*
X586600Y584600D03*
Y581400D03*
X602400Y591400D03*
X631200Y583200D03*
X629800Y589400D03*
X626400Y588200D03*
X625400Y585000D03*
Y582200D03*
X619800Y585400D03*
Y582200D03*
X628000Y576800D03*
X635400Y592200D03*
X642200Y577000D03*
X650800Y577200D03*
X651200Y580000D03*
X645200Y584000D03*
X661000Y582200D03*
X690800Y594400D03*
Y591200D03*
Y588000D03*
X687000Y594400D03*
Y591200D03*
Y588000D03*
X691400Y583000D03*
Y579800D03*
Y576600D03*
X687000Y583000D03*
Y579800D03*
Y576600D03*
X700400Y577400D03*
Y580600D03*
Y583800D03*
X725000Y578400D03*
X721800Y581600D03*
X718600D03*
Y578400D03*
Y584800D03*
X721800D03*
X725000Y581600D03*
X721800Y578400D03*
X725000Y584800D03*
X570800Y611000D03*
X568600Y614400D03*
X587800Y611800D03*
X581400D03*
X601000D03*
X607800Y611000D03*
X611600Y611600D03*
X611200Y598000D03*
X653400Y603000D03*
Y607000D03*
X662200Y601800D03*
X661400Y607000D03*
X657400D03*
X669800D03*
X665400D03*
X706200Y596800D03*
X709400D03*
X519200Y621600D03*
Y617600D03*
X568400D03*
X564200Y623800D03*
X587400Y615000D03*
X581200Y615200D03*
X609400Y622800D03*
X604400Y622400D03*
X600800Y615000D03*
X614600Y623400D03*
G54D59*
G54D117*
X677000Y619600D03*
X581800Y518000D03*
G54D132*
X677000Y609600D03*
X581800Y508000D03*
G54D133*
X551968Y507286D03*
X561968D03*
X526200Y621000D03*
X536200D03*
X546200D03*
X556200D03*
X584721Y594446D03*
G54D134*
X522000Y514800D03*
X528000D03*
X543759Y514286D03*
X537759D03*
G54D140*
X522121Y554220D03*
X522120Y576968D03*
G54D149*
X599513Y604120D03*
Y597820D03*
X592774Y604030D03*
Y597731D03*
G54D153*
X580400Y621400D03*
X589455D03*
G54D159*
X669003Y550294D03*
X669573Y572841D03*
G54D161*
X582921Y547446D03*
G54D205*
X608947Y615616D03*
X618947D03*
X731600Y577400D03*
Y569700D03*
Y562000D03*
Y554300D03*
X732000Y710200D03*
Y702500D03*
Y694800D03*
Y687100D03*
X731600Y846600D03*
Y838900D03*
Y831200D03*
Y823500D03*
X731200Y979000D03*
Y971300D03*
Y963600D03*
Y955900D03*
Y1112600D03*
Y1104900D03*
Y1097200D03*
Y1089500D03*
X605800Y1032000D03*
X613500D03*
X621200D03*
X628900D03*
X837400Y1032400D03*
X845100D03*
X852800D03*
X860500D03*
X835400Y898800D03*
X843100D03*
X850800D03*
X858500D03*
X603800Y898400D03*
X611500D03*
X619200D03*
X626900D03*
X835400Y764000D03*
X843100D03*
X850800D03*
X858500D03*
X603800Y763600D03*
X611500D03*
X619200D03*
X626900D03*
X835800Y630800D03*
X843500D03*
X851200D03*
X858900D03*
X604200Y630400D03*
X611900D03*
X619600D03*
X627300D03*
G54D211*
X507580Y582628D03*
X524037Y548572D03*
X507580D03*
X524037Y582628D03*
G54D239*
X637325Y569647D03*
X624425D03*
X637439Y577514D03*
X624539D03*
G54D240*
X508200Y509800D03*
X508400Y616200D03*
X720554Y614921D03*
X720646Y511879D03*
G54D241*
X536656Y538268D03*
Y532363D03*
Y526457D03*
G54D242*
X521971Y532363D03*
G54D247*
X593589Y615494D03*
X575873D03*
G54D248*
X597920Y624746D03*
X571936D03*
G74*
X0Y0D02*
M02*
