*
*
G04 PADS 9.5 Build Number: 522968 generated Gerber (RS-274-X) file*
G04 PC Version=2.1*
*
%IN "IP2368_DEMO_1.4.4.pcb"*%
*
%MOIN*%
*
%FSLAX35Y35*%
*
*
*
*
G04 PC Standard Apertures*
*
*
G04 Thermal Relief Aperture macro.*
%AMTER*
1,1,$1,0,0*
1,0,$1-$2,0,0*
21,0,$3,$4,0,0,45*
21,0,$3,$4,0,0,135*
%
*
*
G04 Annular Aperture macro.*
%AMANN*
1,1,$1,0,0*
1,0,$2,0,0*
%
*
*
G04 Odd Aperture macro.*
%AMODD*
1,1,$1,0,0*
1,0,$1-0.005,0,0*
%
*
*
G04 PC Custom Aperture Macros*
*
*
*
*
*
*
G04 PC Aperture Table*
*
%ADD049C,0.01*%
%ADD059C,0.001*%
%ADD134R,0.035X0.03*%
%ADD149R,0.0315X0.0315*%
%ADD239R,0.036X0.048*%
%ADD241R,0.07087X0.03937*%
%ADD242R,0.07087X0.06693*%
%ADD247R,0.04724X0.06299*%
%ADD248R,0.07874X0.07087*%
*
*
*
*
G04 PC Circuitry*
G04 Layer Name IP2368_DEMO_1.4.4.pcb - circuitry*
%LPD*%
*
*
G04 PC Custom Flashes*
G04 Layer Name IP2368_DEMO_1.4.4.pcb - flashes*
%LPD*%
*
*
G04 PC Circuitry*
G04 Layer Name IP2368_DEMO_1.4.4.pcb - circuitry*
%LPD*%
*
G54D49*
G01X500600Y626584D02*
X727800D01*
Y500600*
X500600*
Y626584*
X501200Y760384D02*
X728400D01*
Y634400*
X501200*
Y760384*
X500600Y894384D02*
X727800D01*
Y768400*
X500600*
Y894384*
X500800Y1028384D02*
X728000D01*
Y902400*
X500800*
Y1028384*
X500200Y1162384D02*
X727400D01*
Y1036400*
X500200*
Y1162384*
X735400Y626984D02*
X962600D01*
Y501000*
X735400*
Y626984*
X735200Y760384D02*
X962400D01*
Y634400*
X735200*
Y760384*
X734600Y894384D02*
X961800D01*
Y768400*
X734600*
Y894384*
X734800Y1028384D02*
X962000D01*
Y902400*
X734800*
Y1028384*
X734200Y1162384D02*
X961400D01*
Y1036400*
X734200*
Y1162384*
G54D59*
G54D134*
X522000Y514800D03*
X528000D03*
X543759Y514286D03*
X537759D03*
G54D149*
X599513Y604120D03*
Y597820D03*
X592774Y604030D03*
Y597731D03*
G54D239*
X637325Y569647D03*
X624425D03*
X637439Y577514D03*
X624539D03*
G54D241*
X536656Y538268D03*
Y532363D03*
Y526457D03*
G54D242*
X521971Y532363D03*
G54D247*
X593589Y615494D03*
X575873D03*
G54D248*
X597920Y624746D03*
X571936D03*
X0Y0D02*
M02*
