*
*
G04 PADS 9.5 Build Number: 522968 generated Gerber (RS-274-X) file*
G04 PC Version=2.1*
*
%IN "IP2368_DEMO_1.4.4.pcb"*%
*
%MOIN*%
*
%FSLAX35Y35*%
*
*
*
*
G04 PC Standard Apertures*
*
*
G04 Thermal Relief Aperture macro.*
%AMTER*
1,1,$1,0,0*
1,0,$1-$2,0,0*
21,0,$3,$4,0,0,45*
21,0,$3,$4,0,0,135*
%
*
*
G04 Annular Aperture macro.*
%AMANN*
1,1,$1,0,0*
1,0,$2,0,0*
%
*
*
G04 Odd Aperture macro.*
%AMODD*
1,1,$1,0,0*
1,0,$1-0.005,0,0*
%
*
*
G04 PC Custom Aperture Macros*
*
*
*
*
*
*
G04 PC Aperture Table*
*
%ADD049C,0.01*%
%ADD059C,0.001*%
*
*
*
*
G04 PC Circuitry*
G04 Layer Name IP2368_DEMO_1.4.4.pcb - circuitry*
%LPD*%
*
*
G04 PC Custom Flashes*
G04 Layer Name IP2368_DEMO_1.4.4.pcb - flashes*
%LPD*%
*
*
G04 PC Circuitry*
G04 Layer Name IP2368_DEMO_1.4.4.pcb - circuitry*
%LPD*%
*
G54D49*
G01X506041Y582628D02*
X514041D01*
X510041Y578628D02*
Y586628D01*
X513745Y587128D02*
X513632Y587440D01*
X513405Y587753*
X513177Y587909*
X512723*
X512495Y587753*
X512268Y587440*
X512155Y587128*
X512041Y586659*
Y585878*
X512155Y585409*
X512268Y585096*
X512495Y584784*
X512723Y584628*
X513177*
X513405Y584784*
X513632Y585096*
X513745Y585409*
X501120Y582628D02*
X509120D01*
X505120Y578628D02*
Y586628D01*
X508824Y587128D02*
X508711Y587440D01*
X508483Y587753*
X508256Y587909*
X507802*
X507802D02*
X507574Y587753D01*
X507347Y587440*
X507233Y587128*
X507120Y586659*
Y585878*
X507233Y585409*
X507347Y585096*
X507574Y584784*
X507802Y584628*
X507802D02*
X508256D01*
X508483Y584784*
X508711Y585096*
X508824Y585409*
X510041Y581742D02*
G75*
G03Y583513I-0J886D01*
G01X505120*
G03Y581742I-0J-885*
G01X510041*
X522498Y548572D02*
X530498D01*
X526498Y544572D02*
Y552572D01*
X528498Y553854D02*
Y550572D01*
Y553854D02*
X529520D01*
X529861Y553697*
X529975Y553541*
X530089Y553229*
Y552916*
X529975Y552604*
X529861Y552447*
X529520Y552291*
X528498D02*
X529520D01*
X529861Y552135*
X529975Y551979*
X530089Y551666*
Y551197*
X529975Y550885*
X529861Y550729*
X529520Y550572*
X528498*
X517576Y548572D02*
X525576D01*
X521576Y544572D02*
Y552572D01*
X523576Y553854D02*
Y550572D01*
Y553854D02*
X524599D01*
X524940Y553697*
X525054Y553541*
X525167Y553229*
Y552916*
X525054Y552604*
X524940Y552447*
X524599Y552291*
X523576D02*
X524599D01*
X524940Y552135*
X525054Y551979*
X525167Y551666*
Y551197*
X525054Y550885*
X524940Y550729*
X524599Y550572*
X523576*
X526498Y547687D02*
G03Y549458I-0J885D01*
G01X521576*
G03Y547687I0J-886*
G01X526498*
X506041Y548572D02*
X514041D01*
X510041Y544572D02*
Y552572D01*
X513745Y553072D02*
X513632Y553385D01*
X513405Y553697*
X513177Y553854*
X512723*
X512495Y553697*
X512268Y553385*
X512155Y553072*
X512041Y552604*
Y551822*
X512155Y551354*
X512268Y551041*
X512495Y550729*
X512723Y550572*
X513177*
X513405Y550729*
X513632Y551041*
X513745Y551354*
X501120Y548572D02*
X509120D01*
X505120Y544572D02*
Y552572D01*
X508824Y553072D02*
X508711Y553385D01*
X508483Y553697*
X508256Y553854*
X507802*
X507802D02*
X507574Y553697D01*
X507347Y553385*
X507233Y553072*
X507120Y552604*
Y551822*
X507233Y551354*
X507347Y551041*
X507574Y550729*
X507802Y550572*
X507802D02*
X508256D01*
X508483Y550729*
X508711Y551041*
X508824Y551354*
X510041Y547687D02*
G03Y549458I-0J885D01*
G01X505120*
G03Y547687I-0J-886*
G01X510041*
X522498Y582628D02*
X530498D01*
X526498Y578628D02*
Y586628D01*
X530202Y587128D02*
X530089Y587440D01*
X529861Y587753*
X529634Y587909*
X529179*
X528952Y587753*
X528725Y587440*
X528611Y587128*
X528498Y586659*
Y585878*
X528611Y585409*
X528725Y585096*
X528952Y584784*
X529179Y584628*
X529634*
X529861Y584784*
X530089Y585096*
X530202Y585409*
X517576Y582628D02*
X525576D01*
X521576Y578628D02*
Y586628D01*
X525281Y587128D02*
X525167Y587440D01*
X524940Y587753*
X524713Y587909*
X524258*
X524031Y587753*
X523804Y587440*
X523690Y587128*
X523576Y586659*
Y585878*
X523690Y585409*
X523804Y585096*
X524031Y584784*
X524258Y584628*
X524713*
X524940Y584784*
X525167Y585096*
X525281Y585409*
X526498Y581742D02*
G03Y583513I-0J886D01*
G01X521576*
G03Y581742I0J-885*
G01X526498*
X665003Y546294D02*
X673003D01*
Y554294*
X665003*
Y546294*
X669003Y550294D02*
Y554294D01*
X665573Y568841D02*
X673573D01*
Y576841*
X665573*
Y568841*
X669573Y572841D02*
Y576841D01*
X604947Y615616D02*
X612947D01*
X608947Y611616D02*
Y619616D01*
X612652Y620116D02*
X612538Y620428D01*
X612311Y620741*
X612084Y620897*
X611629*
X611402Y620741*
X611174Y620428*
X611061Y620116*
X610947Y619647*
Y618866*
X611061Y618397*
X611174Y618084*
X611402Y617772*
X611629Y617616*
X612084*
X612311Y617772*
X612538Y618084*
X612652Y618397*
Y618866*
X612084D02*
X612652D01*
X614947Y615616D02*
X622947D01*
X618947Y611616D02*
Y619616D01*
X622652Y620116D02*
X622538Y620428D01*
X622311Y620741*
X622084Y620897*
X621629*
X621402Y620741*
X621174Y620428*
X621061Y620116*
X620947Y619647*
Y618866*
X621061Y618397*
X621174Y618084*
X621402Y617772*
X621629Y617616*
X622084*
X622311Y617772*
X622538Y618084*
X622652Y618397*
Y618866*
X622084D02*
X622652D01*
X576400Y617400D02*
X584400D01*
X576400Y625400*
X584400*
X576400Y617400*
X585455D02*
X593455D01*
X585455Y625400*
X593455*
X585455Y617400*
X504200Y509800D02*
X512200D01*
X508200Y505800D02*
Y513800D01*
X510200Y515081D02*
Y511800D01*
X511791Y515081D02*
Y511800D01*
X510200Y513519D02*
X511791D01*
X504400Y616200D02*
X512400D01*
X508400Y612200D02*
Y620200D01*
X510400Y621481D02*
Y618200D01*
X511991Y621481D02*
Y618200D01*
X510400Y619919D02*
X511991D01*
X547968Y507286D02*
X555968D01*
X551968Y503286D02*
Y511286D01*
X553968Y512567D02*
Y509286D01*
X557968Y507286D02*
X565968D01*
X561968Y503286D02*
Y511286D01*
X563968Y512567D02*
Y509286D01*
X522200Y621000D02*
X530200D01*
X526200Y617000D02*
Y625000D01*
X528200Y626281D02*
Y623000D01*
X532200Y621000D02*
X540200D01*
X536200Y617000D02*
Y625000D01*
X538200Y626281D02*
Y623000D01*
X542200Y621000D02*
X550200D01*
X546200Y617000D02*
Y625000D01*
X548200Y626281D02*
Y623000D01*
X552200Y621000D02*
X560200D01*
X556200Y617000D02*
Y625000D01*
X558200Y626281D02*
Y623000D01*
X677000Y615600D02*
X681000Y619600D01*
X677000Y623600*
X673000Y619600*
X677000Y615600*
Y619600D02*
Y623600D01*
Y605600D02*
X681000Y609600D01*
X677000Y613600*
X673000Y609600*
X677000Y605600*
Y609600D02*
Y613600D01*
X518121Y554220D02*
X526121D01*
X522121Y550220D02*
Y558220D01*
X525030Y559502D02*
X524121Y556220D01*
X525030Y559502D02*
X525939Y556220D01*
X524462Y557314D02*
X525598D01*
X518120Y576968D02*
X526120D01*
X522120Y572968D02*
Y580968D01*
X525030Y582249D02*
X524120Y578968D01*
X525030Y582249D02*
X525939Y578968D01*
X524461Y580061D02*
X525598D01*
X581800Y514000D02*
X585800Y518000D01*
X581800Y522000*
X577800Y518000*
X581800Y514000*
Y518000D02*
Y522000D01*
Y504000D02*
X585800Y508000D01*
X581800Y512000*
X577800Y508000*
X581800Y504000*
Y508000D02*
Y512000D01*
X716554Y614921D02*
X724554D01*
X720554Y610921D02*
Y618921D01*
X722554Y620202D02*
Y616921D01*
X724145Y620202D02*
Y616921D01*
X722554Y618640D02*
X724145D01*
X716646Y511879D02*
X724646D01*
X720646Y507879D02*
Y515879D01*
X722646Y517160D02*
Y513879D01*
X724237Y517160D02*
Y513879D01*
X722646Y515598D02*
X724237D01*
X578921Y543446D02*
X586921Y551446D01*
Y543446*
X578921Y551446*
Y543446*
X727600Y577400D02*
X735600D01*
X731600Y573400D02*
Y581400D01*
X734736Y582681D02*
Y580181D01*
X734623Y579713*
X734623D02*
X734509Y579556D01*
X734282Y579400*
X734055*
X733827Y579556*
X733714Y579713*
X733714D02*
X733600Y580181D01*
Y580494*
X727600Y569700D02*
X735600D01*
X731600Y565700D02*
Y573700D01*
X734736Y574981D02*
Y572481D01*
X734623Y572013*
X734623D02*
X734509Y571856D01*
X734282Y571700*
X734055*
X733827Y571856*
X733714Y572013*
X733714D02*
X733600Y572481D01*
Y572794*
X727600Y562000D02*
X735600D01*
X731600Y558000D02*
Y566000D01*
X734736Y567281D02*
Y564781D01*
X734623Y564313*
X734623D02*
X734509Y564156D01*
X734282Y564000*
X734055*
X733827Y564156*
X733714Y564313*
X733714D02*
X733600Y564781D01*
Y565094*
X727600Y554300D02*
X735600D01*
X731600Y550300D02*
Y558300D01*
X734736Y559581D02*
Y557081D01*
X734623Y556613*
X734623D02*
X734509Y556456D01*
X734282Y556300*
X734055*
X733827Y556456*
X733714Y556613*
X733714D02*
X733600Y557081D01*
Y557394*
X728000Y710200D02*
X736000D01*
X732000Y706200D02*
Y714200D01*
X735136Y715481D02*
Y712981D01*
X735023Y712513*
X735023D02*
X734909Y712356D01*
X734682Y712200*
X734455*
X734227Y712356*
X734114Y712513*
X734114D02*
X734000Y712981D01*
Y713294*
X728000Y702500D02*
X736000D01*
X732000Y698500D02*
Y706500D01*
X735136Y707781D02*
Y705281D01*
X735023Y704813*
X735023D02*
X734909Y704656D01*
X734682Y704500*
X734455*
X734227Y704656*
X734114Y704813*
X734114D02*
X734000Y705281D01*
Y705594*
X728000Y694800D02*
X736000D01*
X732000Y690800D02*
Y698800D01*
X735136Y700081D02*
Y697581D01*
X735023Y697113*
X735023D02*
X734909Y696956D01*
X734682Y696800*
X734455*
X734227Y696956*
X734114Y697113*
X734114D02*
X734000Y697581D01*
Y697894*
X728000Y687100D02*
X736000D01*
X732000Y683100D02*
Y691100D01*
X735136Y692381D02*
Y689881D01*
X735023Y689413*
X735023D02*
X734909Y689256D01*
X734682Y689100*
X734455*
X734227Y689256*
X734114Y689413*
X734114D02*
X734000Y689881D01*
Y690194*
X727600Y846600D02*
X735600D01*
X731600Y842600D02*
Y850600D01*
X734736Y851881D02*
Y849381D01*
X734623Y848913*
X734623D02*
X734509Y848756D01*
X734282Y848600*
X734055*
X733827Y848756*
X733714Y848913*
X733714D02*
X733600Y849381D01*
Y849694*
X727600Y838900D02*
X735600D01*
X731600Y834900D02*
Y842900D01*
X734736Y844181D02*
Y841681D01*
X734623Y841213*
X734623D02*
X734509Y841056D01*
X734282Y840900*
X734055*
X733827Y841056*
X733714Y841213*
X733714D02*
X733600Y841681D01*
Y841994*
X727600Y831200D02*
X735600D01*
X731600Y827200D02*
Y835200D01*
X734736Y836481D02*
Y833981D01*
X734623Y833513*
X734623D02*
X734509Y833356D01*
X734282Y833200*
X734055*
X733827Y833356*
X733714Y833513*
X733714D02*
X733600Y833981D01*
Y834294*
X727600Y823500D02*
X735600D01*
X731600Y819500D02*
Y827500D01*
X734736Y828781D02*
Y826281D01*
X734623Y825813*
X734623D02*
X734509Y825656D01*
X734282Y825500*
X734055*
X733827Y825656*
X733714Y825813*
X733714D02*
X733600Y826281D01*
Y826594*
X727200Y979000D02*
X735200D01*
X731200Y975000D02*
Y983000D01*
X734336Y984281D02*
Y981781D01*
X734223Y981313*
X734223D02*
X734109Y981156D01*
X733882Y981000*
X733655*
X733427Y981156*
X733314Y981313*
X733314D02*
X733200Y981781D01*
Y982094*
X727200Y971300D02*
X735200D01*
X731200Y967300D02*
Y975300D01*
X734336Y976581D02*
Y974081D01*
X734223Y973613*
X734223D02*
X734109Y973456D01*
X733882Y973300*
X733655*
X733427Y973456*
X733314Y973613*
X733314D02*
X733200Y974081D01*
Y974394*
X727200Y963600D02*
X735200D01*
X731200Y959600D02*
Y967600D01*
X734336Y968881D02*
Y966381D01*
X734223Y965913*
X734223D02*
X734109Y965756D01*
X733882Y965600*
X733655*
X733427Y965756*
X733314Y965913*
X733314D02*
X733200Y966381D01*
Y966694*
X727200Y955900D02*
X735200D01*
X731200Y951900D02*
Y959900D01*
X734336Y961181D02*
Y958681D01*
X734223Y958213*
X734223D02*
X734109Y958056D01*
X733882Y957900*
X733655*
X733427Y958056*
X733314Y958213*
X733314D02*
X733200Y958681D01*
Y958994*
X727200Y1112600D02*
X735200D01*
X731200Y1108600D02*
Y1116600D01*
X734336Y1117881D02*
Y1115381D01*
X734223Y1114913*
X734223D02*
X734109Y1114756D01*
X733882Y1114600*
X733655*
X733427Y1114756*
X733314Y1114913*
X733314D02*
X733200Y1115381D01*
Y1115694*
X727200Y1104900D02*
X735200D01*
X731200Y1100900D02*
Y1108900D01*
X734336Y1110181D02*
Y1107681D01*
X734223Y1107213*
X734223D02*
X734109Y1107056D01*
X733882Y1106900*
X733655*
X733427Y1107056*
X733314Y1107213*
X733314D02*
X733200Y1107681D01*
Y1107994*
X727200Y1097200D02*
X735200D01*
X731200Y1093200D02*
Y1101200D01*
X734336Y1102481D02*
Y1099981D01*
X734223Y1099513*
X734223D02*
X734109Y1099356D01*
X733882Y1099200*
X733655*
X733427Y1099356*
X733314Y1099513*
X733314D02*
X733200Y1099981D01*
Y1100294*
X727200Y1089500D02*
X735200D01*
X731200Y1085500D02*
Y1093500D01*
X734336Y1094781D02*
Y1092281D01*
X734223Y1091813*
X734223D02*
X734109Y1091656D01*
X733882Y1091500*
X733655*
X733427Y1091656*
X733314Y1091813*
X733314D02*
X733200Y1092281D01*
Y1092594*
X601800Y1032000D02*
X609800D01*
X605800Y1028000D02*
Y1036000D01*
X608936Y1037281D02*
Y1034781D01*
X608823Y1034313*
X608823D02*
X608709Y1034156D01*
X608482Y1034000*
X608255*
X608027Y1034156*
X607914Y1034313*
X607914D02*
X607800Y1034781D01*
Y1035094*
X609500Y1032000D02*
X617500D01*
X613500Y1028000D02*
Y1036000D01*
X616636Y1037281D02*
Y1034781D01*
X616523Y1034313*
X616523D02*
X616409Y1034156D01*
X616182Y1034000*
X615955*
X615727Y1034156*
X615614Y1034313*
X615614D02*
X615500Y1034781D01*
Y1035094*
X617200Y1032000D02*
X625200D01*
X621200Y1028000D02*
Y1036000D01*
X624336Y1037281D02*
Y1034781D01*
X624223Y1034313*
X624223D02*
X624109Y1034156D01*
X623882Y1034000*
X623655*
X623427Y1034156*
X623314Y1034313*
X623314D02*
X623200Y1034781D01*
Y1035094*
X624900Y1032000D02*
X632900D01*
X628900Y1028000D02*
Y1036000D01*
X632036Y1037281D02*
Y1034781D01*
X631923Y1034313*
X631923D02*
X631809Y1034156D01*
X631582Y1034000*
X631355*
X631127Y1034156*
X631014Y1034313*
X631014D02*
X630900Y1034781D01*
Y1035094*
X833400Y1032400D02*
X841400D01*
X837400Y1028400D02*
Y1036400D01*
X840536Y1037681D02*
Y1035181D01*
X840423Y1034713*
X840423D02*
X840309Y1034556D01*
X840082Y1034400*
X839855*
X839627Y1034556*
X839514Y1034713*
X839514D02*
X839400Y1035181D01*
Y1035494*
X841100Y1032400D02*
X849100D01*
X845100Y1028400D02*
Y1036400D01*
X848236Y1037681D02*
Y1035181D01*
X848123Y1034713*
X848123D02*
X848009Y1034556D01*
X847782Y1034400*
X847555*
X847327Y1034556*
X847214Y1034713*
X847214D02*
X847100Y1035181D01*
Y1035494*
X848800Y1032400D02*
X856800D01*
X852800Y1028400D02*
Y1036400D01*
X855936Y1037681D02*
Y1035181D01*
X855823Y1034713*
X855823D02*
X855709Y1034556D01*
X855482Y1034400*
X855255*
X855027Y1034556*
X854914Y1034713*
X854914D02*
X854800Y1035181D01*
Y1035494*
X856500Y1032400D02*
X864500D01*
X860500Y1028400D02*
Y1036400D01*
X863636Y1037681D02*
Y1035181D01*
X863523Y1034713*
X863523D02*
X863409Y1034556D01*
X863182Y1034400*
X862955*
X862727Y1034556*
X862614Y1034713*
X862614D02*
X862500Y1035181D01*
Y1035494*
X831400Y898800D02*
X839400D01*
X835400Y894800D02*
Y902800D01*
X838536Y904081D02*
Y901581D01*
X838423Y901113*
X838423D02*
X838309Y900956D01*
X838082Y900800*
X837855*
X837627Y900956*
X837514Y901113*
X837514D02*
X837400Y901581D01*
Y901894*
X839100Y898800D02*
X847100D01*
X843100Y894800D02*
Y902800D01*
X846236Y904081D02*
Y901581D01*
X846123Y901113*
X846123D02*
X846009Y900956D01*
X845782Y900800*
X845555*
X845327Y900956*
X845214Y901113*
X845214D02*
X845100Y901581D01*
Y901894*
X846800Y898800D02*
X854800D01*
X850800Y894800D02*
Y902800D01*
X853936Y904081D02*
Y901581D01*
X853823Y901113*
X853823D02*
X853709Y900956D01*
X853482Y900800*
X853255*
X853027Y900956*
X852914Y901113*
X852914D02*
X852800Y901581D01*
Y901894*
X854500Y898800D02*
X862500D01*
X858500Y894800D02*
Y902800D01*
X861636Y904081D02*
Y901581D01*
X861523Y901113*
X861523D02*
X861409Y900956D01*
X861182Y900800*
X860955*
X860727Y900956*
X860614Y901113*
X860614D02*
X860500Y901581D01*
Y901894*
X599800Y898400D02*
X607800D01*
X603800Y894400D02*
Y902400D01*
X606936Y903681D02*
Y901181D01*
X606823Y900713*
X606823D02*
X606709Y900556D01*
X606482Y900400*
X606255*
X606027Y900556*
X605914Y900713*
X605914D02*
X605800Y901181D01*
Y901494*
X607500Y898400D02*
X615500D01*
X611500Y894400D02*
Y902400D01*
X614636Y903681D02*
Y901181D01*
X614523Y900713*
X614523D02*
X614409Y900556D01*
X614182Y900400*
X613955*
X613727Y900556*
X613614Y900713*
X613614D02*
X613500Y901181D01*
Y901494*
X615200Y898400D02*
X623200D01*
X619200Y894400D02*
Y902400D01*
X622336Y903681D02*
Y901181D01*
X622223Y900713*
X622223D02*
X622109Y900556D01*
X621882Y900400*
X621655*
X621427Y900556*
X621314Y900713*
X621314D02*
X621200Y901181D01*
Y901494*
X622900Y898400D02*
X630900D01*
X626900Y894400D02*
Y902400D01*
X630036Y903681D02*
Y901181D01*
X629923Y900713*
X629923D02*
X629809Y900556D01*
X629582Y900400*
X629355*
X629127Y900556*
X629014Y900713*
X629014D02*
X628900Y901181D01*
Y901494*
X831400Y764000D02*
X839400D01*
X835400Y760000D02*
Y768000D01*
X838536Y769281D02*
Y766781D01*
X838423Y766313*
X838423D02*
X838309Y766156D01*
X838082Y766000*
X837855*
X837627Y766156*
X837514Y766313*
X837514D02*
X837400Y766781D01*
Y767094*
X839100Y764000D02*
X847100D01*
X843100Y760000D02*
Y768000D01*
X846236Y769281D02*
Y766781D01*
X846123Y766313*
X846123D02*
X846009Y766156D01*
X845782Y766000*
X845555*
X845327Y766156*
X845214Y766313*
X845214D02*
X845100Y766781D01*
Y767094*
X846800Y764000D02*
X854800D01*
X850800Y760000D02*
Y768000D01*
X853936Y769281D02*
Y766781D01*
X853823Y766313*
X853823D02*
X853709Y766156D01*
X853482Y766000*
X853255*
X853027Y766156*
X852914Y766313*
X852914D02*
X852800Y766781D01*
Y767094*
X854500Y764000D02*
X862500D01*
X858500Y760000D02*
Y768000D01*
X861636Y769281D02*
Y766781D01*
X861523Y766313*
X861523D02*
X861409Y766156D01*
X861182Y766000*
X860955*
X860727Y766156*
X860614Y766313*
X860614D02*
X860500Y766781D01*
Y767094*
X599800Y763600D02*
X607800D01*
X603800Y759600D02*
Y767600D01*
X606936Y768881D02*
Y766381D01*
X606823Y765913*
X606823D02*
X606709Y765756D01*
X606482Y765600*
X606255*
X606027Y765756*
X605914Y765913*
X605914D02*
X605800Y766381D01*
Y766694*
X607500Y763600D02*
X615500D01*
X611500Y759600D02*
Y767600D01*
X614636Y768881D02*
Y766381D01*
X614523Y765913*
X614523D02*
X614409Y765756D01*
X614182Y765600*
X613955*
X613727Y765756*
X613614Y765913*
X613614D02*
X613500Y766381D01*
Y766694*
X615200Y763600D02*
X623200D01*
X619200Y759600D02*
Y767600D01*
X622336Y768881D02*
Y766381D01*
X622223Y765913*
X622223D02*
X622109Y765756D01*
X621882Y765600*
X621655*
X621427Y765756*
X621314Y765913*
X621314D02*
X621200Y766381D01*
Y766694*
X622900Y763600D02*
X630900D01*
X626900Y759600D02*
Y767600D01*
X630036Y768881D02*
Y766381D01*
X629923Y765913*
X629923D02*
X629809Y765756D01*
X629582Y765600*
X629355*
X629127Y765756*
X629014Y765913*
X629014D02*
X628900Y766381D01*
Y766694*
X831800Y630800D02*
X839800D01*
X835800Y626800D02*
Y634800D01*
X838936Y636081D02*
Y633581D01*
X838823Y633113*
X838823D02*
X838709Y632956D01*
X838482Y632800*
X838255*
X838027Y632956*
X837914Y633113*
X837914D02*
X837800Y633581D01*
Y633894*
X839500Y630800D02*
X847500D01*
X843500Y626800D02*
Y634800D01*
X846636Y636081D02*
Y633581D01*
X846523Y633113*
X846523D02*
X846409Y632956D01*
X846182Y632800*
X845955*
X845727Y632956*
X845614Y633113*
X845614D02*
X845500Y633581D01*
Y633894*
X847200Y630800D02*
X855200D01*
X851200Y626800D02*
Y634800D01*
X854336Y636081D02*
Y633581D01*
X854223Y633113*
X854223D02*
X854109Y632956D01*
X853882Y632800*
X853655*
X853427Y632956*
X853314Y633113*
X853314D02*
X853200Y633581D01*
Y633894*
X854900Y630800D02*
X862900D01*
X858900Y626800D02*
Y634800D01*
X862036Y636081D02*
Y633581D01*
X861923Y633113*
X861923D02*
X861809Y632956D01*
X861582Y632800*
X861355*
X861127Y632956*
X861014Y633113*
X861014D02*
X860900Y633581D01*
Y633894*
X600200Y630400D02*
X608200D01*
X604200Y626400D02*
Y634400D01*
X607336Y635681D02*
Y633181D01*
X607223Y632713*
X607223D02*
X607109Y632556D01*
X606882Y632400*
X606655*
X606427Y632556*
X606314Y632713*
X606314D02*
X606200Y633181D01*
Y633494*
X607900Y630400D02*
X615900D01*
X611900Y626400D02*
Y634400D01*
X615036Y635681D02*
Y633181D01*
X614923Y632713*
X614923D02*
X614809Y632556D01*
X614582Y632400*
X614355*
X614127Y632556*
X614014Y632713*
X614014D02*
X613900Y633181D01*
Y633494*
X615600Y630400D02*
X623600D01*
X619600Y626400D02*
Y634400D01*
X622736Y635681D02*
Y633181D01*
X622623Y632713*
X622623D02*
X622509Y632556D01*
X622282Y632400*
X622055*
X621827Y632556*
X621714Y632713*
X621714D02*
X621600Y633181D01*
Y633494*
X623300Y630400D02*
X631300D01*
X627300Y626400D02*
Y634400D01*
X630436Y635681D02*
Y633181D01*
X630323Y632713*
X630323D02*
X630209Y632556D01*
X629982Y632400*
X629755*
X629527Y632556*
X629414Y632713*
X629414D02*
X629300Y633181D01*
Y633494*
X580721Y594446D02*
X588721D01*
X584721Y590446D02*
Y598446D01*
X586721Y599727D02*
Y596446D01*
X513800Y502800D02*
X521800D01*
X517800Y498800D02*
Y506800D01*
X513000Y507600D02*
X521000D01*
X517000Y503600D02*
Y511600D01*
X540800Y507200D02*
X548800D01*
X544800Y503200D02*
Y511200D01*
X552800Y512400D02*
X560800D01*
X556800Y508400D02*
Y516400D01*
X564800Y509800D02*
X572800D01*
X568800Y505800D02*
Y513800D01*
X565400Y504000D02*
X573400D01*
X569400Y500000D02*
Y508000D01*
X568600Y507200D02*
X576600D01*
X572600Y503200D02*
Y511200D01*
X568600Y504000D02*
X576600D01*
X572600Y500000D02*
Y508000D01*
X562800Y507200D02*
X570800D01*
X566800Y503200D02*
Y511200D01*
X583600Y506400D02*
X591600D01*
X587600Y502400D02*
Y510400D01*
X587800Y511200D02*
X595800D01*
X591800Y507200D02*
Y515200D01*
X587800Y508000D02*
X595800D01*
X591800Y504000D02*
Y512000D01*
Y508200D02*
X599800D01*
X595800Y504200D02*
Y512200D01*
X591800Y511400D02*
X599800D01*
X595800Y507400D02*
Y515400D01*
X601000Y505400D02*
X609000D01*
X605000Y501400D02*
Y509400D01*
X609800Y505400D02*
X617800D01*
X613800Y501400D02*
Y509400D01*
X627000Y505400D02*
X635000D01*
X631000Y501400D02*
Y509400D01*
X618600Y505400D02*
X626600D01*
X622600Y501400D02*
Y509400D01*
X630600Y507000D02*
X638600D01*
X634600Y503000D02*
Y511000D01*
X630600Y510200D02*
X638600D01*
X634600Y506200D02*
Y514200D01*
X633800Y507000D02*
X641800D01*
X637800Y503000D02*
Y511000D01*
X633800Y510200D02*
X641800D01*
X637800Y506200D02*
Y514200D01*
X663000Y507800D02*
X671000D01*
X667000Y503800D02*
Y511800D01*
X659400Y505000D02*
X667400D01*
X663400Y501000D02*
Y509000D01*
X662600Y505000D02*
X670600D01*
X666600Y501000D02*
Y509000D01*
X659800Y507800D02*
X667800D01*
X663800Y503800D02*
Y511800D01*
X663000Y511000D02*
X671000D01*
X667000Y507000D02*
Y515000D01*
X666200Y507800D02*
X674200D01*
X670200Y503800D02*
Y511800D01*
X665800Y505000D02*
X673800D01*
X669800Y501000D02*
Y509000D01*
X659800Y511000D02*
X667800D01*
X663800Y507000D02*
Y515000D01*
X666200Y511000D02*
X674200D01*
X670200Y507000D02*
Y515000D01*
X689600Y512800D02*
X697600D01*
X693600Y508800D02*
Y516800D01*
X686400Y512800D02*
X694400D01*
X690400Y508800D02*
Y516800D01*
X692800Y512800D02*
X700800D01*
X696800Y508800D02*
Y516800D01*
X706400Y511200D02*
X714400D01*
X710400Y507200D02*
Y515200D01*
X703200Y511200D02*
X711200D01*
X707200Y507200D02*
Y515200D01*
X709600Y504800D02*
X717600D01*
X713600Y500800D02*
Y508800D01*
X703200Y508000D02*
X711200D01*
X707200Y504000D02*
Y512000D01*
X706400Y504800D02*
X714400D01*
X710400Y500800D02*
Y508800D01*
X709600Y511200D02*
X717600D01*
X713600Y507200D02*
Y515200D01*
X706400Y508000D02*
X714400D01*
X710400Y504000D02*
Y512000D01*
X703200Y504800D02*
X711200D01*
X707200Y500800D02*
Y508800D01*
X709600Y508000D02*
X717600D01*
X713600Y504000D02*
Y512000D01*
X509800Y530000D02*
X517800D01*
X513800Y526000D02*
Y534000D01*
X520800Y518400D02*
X528800D01*
X524800Y514400D02*
Y522400D01*
X511800Y527800D02*
X519800D01*
X515800Y523800D02*
Y531800D01*
X548200Y524600D02*
X556200D01*
X552200Y520600D02*
Y528600D01*
X537200Y517600D02*
X545200D01*
X541200Y513600D02*
Y521600D01*
X540800Y517600D02*
X548800D01*
X544800Y513600D02*
Y521600D01*
X555000Y530200D02*
X563000D01*
X559000Y526200D02*
Y534200D01*
X554800Y523800D02*
X562800D01*
X558800Y519800D02*
Y527800D01*
X576400Y527200D02*
X584400D01*
X580400Y523200D02*
Y531200D01*
X579200Y527400D02*
X587200D01*
X583200Y523400D02*
Y531400D01*
X579200Y530200D02*
X587200D01*
X583200Y526200D02*
Y534200D01*
X586600Y530200D02*
X594600D01*
X590600Y526200D02*
Y534200D01*
X589800Y527000D02*
X597800D01*
X593800Y523000D02*
Y531000D01*
X586600Y527000D02*
X594600D01*
X590600Y523000D02*
Y531000D01*
X576600Y530200D02*
X584600D01*
X580600Y526200D02*
Y534200D01*
X593200Y527200D02*
X601200D01*
X597200Y523200D02*
Y531200D01*
X596400Y527200D02*
X604400D01*
X600400Y523200D02*
Y531200D01*
X686400Y519200D02*
X694400D01*
X690400Y515200D02*
Y523200D01*
X686400Y516000D02*
X694400D01*
X690400Y512000D02*
Y520000D01*
X689600Y519200D02*
X697600D01*
X693600Y515200D02*
Y523200D01*
X688800Y532000D02*
X696800D01*
X692800Y528000D02*
Y536000D01*
X689600Y516000D02*
X697600D01*
X693600Y512000D02*
Y520000D01*
X692800Y516000D02*
X700800D01*
X696800Y512000D02*
Y520000D01*
X692000Y532000D02*
X700000D01*
X696000Y528000D02*
Y536000D01*
X692800Y519200D02*
X700800D01*
X696800Y515200D02*
Y523200D01*
X695200Y532000D02*
X703200D01*
X699200Y528000D02*
Y536000D01*
X719200Y524600D02*
X727200D01*
X723200Y520600D02*
Y528600D01*
X712800Y521400D02*
X720800D01*
X716800Y517400D02*
Y525400D01*
X716000Y524600D02*
X724000D01*
X720000Y520600D02*
Y528600D01*
X716000Y521400D02*
X724000D01*
X720000Y517400D02*
Y525400D01*
X712800Y524600D02*
X720800D01*
X716800Y520600D02*
Y528600D01*
X719200Y521400D02*
X727200D01*
X723200Y517400D02*
Y525400D01*
X712800Y527800D02*
X720800D01*
X716800Y523800D02*
Y531800D01*
X719200Y527800D02*
X727200D01*
X723200Y523800D02*
Y531800D01*
X716000Y527800D02*
X724000D01*
X720000Y523800D02*
Y531800D01*
X526200Y536600D02*
X534200D01*
X530200Y532600D02*
Y540600D01*
X523400Y538800D02*
X531400D01*
X527400Y534800D02*
Y542800D01*
X527600Y546600D02*
X535600D01*
X531600Y542600D02*
Y550600D01*
X522400Y553000D02*
X530400D01*
X526400Y549000D02*
Y557000D01*
X524800Y553000D02*
X532800D01*
X528800Y549000D02*
Y557000D01*
X528000Y552600D02*
X536000D01*
X532000Y548600D02*
Y556600D01*
X527600Y549800D02*
X535600D01*
X531600Y545800D02*
Y553800D01*
X547000Y545200D02*
X555000D01*
X551000Y541200D02*
Y549200D01*
X531200Y549000D02*
X539200D01*
X535200Y545000D02*
Y553000D01*
X535800Y548600D02*
X543800D01*
X539800Y544600D02*
Y552600D01*
X533200Y546400D02*
X541200D01*
X537200Y542400D02*
Y550400D01*
X580000Y541200D02*
X588000D01*
X584000Y537200D02*
Y545200D01*
X572200Y536200D02*
X580200D01*
X576200Y532200D02*
Y540200D01*
X583400Y551000D02*
X591400D01*
X587400Y547000D02*
Y555000D01*
X622200Y548000D02*
X630200D01*
X626200Y544000D02*
Y552000D01*
X622400Y545000D02*
X630400D01*
X626400Y541000D02*
Y549000D01*
X622200Y553800D02*
X630200D01*
X626200Y549800D02*
Y557800D01*
X622200Y550600D02*
X630200D01*
X626200Y546600D02*
Y554600D01*
X648200Y549400D02*
X656200D01*
X652200Y545400D02*
Y553400D01*
X648200Y552600D02*
X656200D01*
X652200Y548600D02*
Y556600D01*
X644800Y549400D02*
X652800D01*
X648800Y545400D02*
Y553400D01*
X644800Y552600D02*
X652800D01*
X648800Y548600D02*
Y556600D01*
X634800Y553200D02*
X642800D01*
X638800Y549200D02*
Y557200D01*
X649800Y539000D02*
X657800D01*
X653800Y535000D02*
Y543000D01*
X657800Y540200D02*
X665800D01*
X661800Y536200D02*
Y544200D01*
X653200Y539000D02*
X661200D01*
X657200Y535000D02*
Y543000D01*
X673000Y540200D02*
X681000D01*
X677000Y536200D02*
Y544200D01*
X688800Y535200D02*
X696800D01*
X692800Y531200D02*
Y539200D01*
X688800Y538400D02*
X696800D01*
X692800Y534400D02*
Y542400D01*
X692000Y538400D02*
X700000D01*
X696000Y534400D02*
Y542400D01*
X692000Y535200D02*
X700000D01*
X696000Y531200D02*
Y539200D01*
X695200Y535200D02*
X703200D01*
X699200Y531200D02*
Y539200D01*
X695200Y538400D02*
X703200D01*
X699200Y534400D02*
Y542400D01*
X715800Y543800D02*
X723800D01*
X719800Y539800D02*
Y547800D01*
X719000Y540600D02*
X727000D01*
X723000Y536600D02*
Y544600D01*
X712600Y537400D02*
X720600D01*
X716600Y533400D02*
Y541400D01*
X712600Y543800D02*
X720600D01*
X716600Y539800D02*
Y547800D01*
X719000Y543800D02*
X727000D01*
X723000Y539800D02*
Y547800D01*
X719000Y537400D02*
X727000D01*
X723000Y533400D02*
Y541400D01*
X715800Y540600D02*
X723800D01*
X719800Y536600D02*
Y544600D01*
X712600Y540600D02*
X720600D01*
X716600Y536600D02*
Y544600D01*
X715800Y537400D02*
X723800D01*
X719800Y533400D02*
Y541400D01*
X505400Y567000D02*
X513400D01*
X509400Y563000D02*
Y571000D01*
X508600Y567000D02*
X516600D01*
X512600Y563000D02*
Y571000D01*
X505400Y563800D02*
X513400D01*
X509400Y559800D02*
Y567800D01*
X508600Y563800D02*
X516600D01*
X512600Y559800D02*
Y567800D01*
X515800Y573000D02*
X523800D01*
X519800Y569000D02*
Y577000D01*
X517200Y559800D02*
X525200D01*
X521200Y555800D02*
Y563800D01*
X527800Y570600D02*
X535800D01*
X531800Y566600D02*
Y574600D01*
X528153Y567000D02*
X536153D01*
X532153Y563000D02*
Y571000D01*
X518600Y570200D02*
X526600D01*
X522600Y566200D02*
Y574200D01*
X577800Y570600D02*
X585800D01*
X581800Y566600D02*
Y574600D01*
X581400Y570200D02*
X589400D01*
X585400Y566200D02*
Y574200D01*
X579000Y573000D02*
X587000D01*
X583000Y569000D02*
Y577000D01*
X580600Y558400D02*
X588600D01*
X584600Y554400D02*
Y562400D01*
X594200Y558600D02*
X602200D01*
X598200Y554600D02*
Y562600D01*
X594200Y568200D02*
X602200D01*
X598200Y564200D02*
Y572200D01*
X597400Y555800D02*
X605400D01*
X601400Y551800D02*
Y559800D01*
X591000Y574600D02*
X599000D01*
X595000Y570600D02*
Y578600D01*
X604200Y565000D02*
X612200D01*
X608200Y561000D02*
Y569000D01*
X607400Y561800D02*
X615400D01*
X611400Y557800D02*
Y565800D01*
X604200Y558600D02*
X612200D01*
X608200Y554600D02*
Y562600D01*
X591000Y558600D02*
X599000D01*
X595000Y554600D02*
Y562600D01*
X604200Y574600D02*
X612200D01*
X608200Y570600D02*
Y578600D01*
X594200Y571400D02*
X602200D01*
X598200Y567400D02*
Y575400D01*
X597400Y571400D02*
X605400D01*
X601400Y567400D02*
Y575400D01*
X597400Y565000D02*
X605400D01*
X601400Y561000D02*
Y569000D01*
X607400Y565000D02*
X615400D01*
X611400Y561000D02*
Y569000D01*
X604200Y561800D02*
X612200D01*
X608200Y557800D02*
Y565800D01*
X597400Y558600D02*
X605400D01*
X601400Y554600D02*
Y562600D01*
X594200Y574600D02*
X602200D01*
X598200Y570600D02*
Y578600D01*
X591000Y565000D02*
X599000D01*
X595000Y561000D02*
Y569000D01*
X601000Y574600D02*
X609000D01*
X605000Y570600D02*
Y578600D01*
X601000Y555800D02*
X609000D01*
X605000Y551800D02*
Y559800D01*
X604200Y555800D02*
X612200D01*
X608200Y551800D02*
Y559800D01*
X591000Y555800D02*
X599000D01*
X595000Y551800D02*
Y559800D01*
X604200Y568200D02*
X612200D01*
X608200Y564200D02*
Y572200D01*
X601000Y561800D02*
X609000D01*
X605000Y557800D02*
Y565800D01*
X601000Y568200D02*
X609000D01*
X605000Y564200D02*
Y572200D01*
X607400Y558600D02*
X615400D01*
X611400Y554600D02*
Y562600D01*
X607400Y571400D02*
X615400D01*
X611400Y567400D02*
Y575400D01*
X594200Y561800D02*
X602200D01*
X598200Y557800D02*
Y565800D01*
X591000Y568200D02*
X599000D01*
X595000Y564200D02*
Y572200D01*
X594200Y555800D02*
X602200D01*
X598200Y551800D02*
Y559800D01*
X607400Y574600D02*
X615400D01*
X611400Y570600D02*
Y578600D01*
X607400Y568200D02*
X615400D01*
X611400Y564200D02*
Y572200D01*
X594200Y565000D02*
X602200D01*
X598200Y561000D02*
Y569000D01*
X591000Y561800D02*
X599000D01*
X595000Y557800D02*
Y565800D01*
X604200Y571400D02*
X612200D01*
X608200Y567400D02*
Y575400D01*
X607400Y555800D02*
X615400D01*
X611400Y551800D02*
Y559800D01*
X601000Y571400D02*
X609000D01*
X605000Y567400D02*
Y575400D01*
X601000Y565000D02*
X609000D01*
X605000Y561000D02*
Y569000D01*
X597400Y568200D02*
X605400D01*
X601400Y564200D02*
Y572200D01*
X591000Y571400D02*
X599000D01*
X595000Y567400D02*
Y575400D01*
X597400Y561800D02*
X605400D01*
X601400Y557800D02*
Y565800D01*
X601000Y558600D02*
X609000D01*
X605000Y554600D02*
Y562600D01*
X597400Y574600D02*
X605400D01*
X601400Y570600D02*
Y578600D01*
X628400Y561600D02*
X636400D01*
X632400Y557600D02*
Y565600D01*
X624800Y558400D02*
X632800D01*
X628800Y554400D02*
Y562400D01*
X638200Y571800D02*
X646200D01*
X642200Y567800D02*
Y575800D01*
X638200Y555800D02*
X646200D01*
X642200Y551800D02*
Y559800D01*
X638200Y562200D02*
X646200D01*
X642200Y558200D02*
Y566200D01*
X648200Y568600D02*
X656200D01*
X652200Y564600D02*
Y572600D01*
X634800Y556400D02*
X642800D01*
X638800Y552400D02*
Y560400D01*
X648200Y565400D02*
X656200D01*
X652200Y561400D02*
Y569400D01*
X718000Y563000D02*
X726000D01*
X722000Y559000D02*
Y567000D01*
X714800Y556600D02*
X722800D01*
X718800Y552600D02*
Y560600D01*
X714800Y563000D02*
X722800D01*
X718800Y559000D02*
Y567000D01*
X718000Y556600D02*
X726000D01*
X722000Y552600D02*
Y560600D01*
X721200Y559800D02*
X729200D01*
X725200Y555800D02*
Y563800D01*
X721200Y563000D02*
X729200D01*
X725200Y559000D02*
Y567000D01*
X721200Y556600D02*
X729200D01*
X725200Y552600D02*
Y560600D01*
X718000Y559800D02*
X726000D01*
X722000Y555800D02*
Y563800D01*
X714800Y559800D02*
X722800D01*
X718800Y555800D02*
Y563800D01*
X511600Y576800D02*
X519600D01*
X515600Y572800D02*
Y580800D01*
X511600Y580000D02*
X519600D01*
X515600Y576000D02*
Y584000D01*
X547400Y584600D02*
X555400D01*
X551400Y580600D02*
Y588600D01*
X545400Y589800D02*
X553400D01*
X549400Y585800D02*
Y593800D01*
X542200Y589800D02*
X550200D01*
X546200Y585800D02*
Y593800D01*
X540000Y586800D02*
X548000D01*
X544000Y582800D02*
Y590800D01*
X556400Y576600D02*
X564400D01*
X560400Y572600D02*
Y580600D01*
X577800Y576200D02*
X585800D01*
X581800Y572200D02*
Y580200D01*
X582600Y584600D02*
X590600D01*
X586600Y580600D02*
Y588600D01*
X582600Y581400D02*
X590600D01*
X586600Y577400D02*
Y585400D01*
X598400Y591400D02*
X606400D01*
X602400Y587400D02*
Y595400D01*
X627200Y583200D02*
X635200D01*
X631200Y579200D02*
Y587200D01*
X625800Y589400D02*
X633800D01*
X629800Y585400D02*
Y593400D01*
X622400Y588200D02*
X630400D01*
X626400Y584200D02*
Y592200D01*
X621400Y585000D02*
X629400D01*
X625400Y581000D02*
Y589000D01*
X621400Y582200D02*
X629400D01*
X625400Y578200D02*
Y586200D01*
X615800Y585400D02*
X623800D01*
X619800Y581400D02*
Y589400D01*
X615800Y582200D02*
X623800D01*
X619800Y578200D02*
Y586200D01*
X624000Y576800D02*
X632000D01*
X628000Y572800D02*
Y580800D01*
X631400Y592200D02*
X639400D01*
X635400Y588200D02*
Y596200D01*
X638200Y577000D02*
X646200D01*
X642200Y573000D02*
Y581000D01*
X646800Y577200D02*
X654800D01*
X650800Y573200D02*
Y581200D01*
X647200Y580000D02*
X655200D01*
X651200Y576000D02*
Y584000D01*
X641200D02*
X649200D01*
X645200Y580000D02*
Y588000D01*
X657000Y582200D02*
X665000D01*
X661000Y578200D02*
Y586200D01*
X686800Y594400D02*
X694800D01*
X690800Y590400D02*
Y598400D01*
X686800Y591200D02*
X694800D01*
X690800Y587200D02*
Y595200D01*
X686800Y588000D02*
X694800D01*
X690800Y584000D02*
Y592000D01*
X683000Y594400D02*
X691000D01*
X687000Y590400D02*
Y598400D01*
X683000Y591200D02*
X691000D01*
X687000Y587200D02*
Y595200D01*
X683000Y588000D02*
X691000D01*
X687000Y584000D02*
Y592000D01*
X687400Y583000D02*
X695400D01*
X691400Y579000D02*
Y587000D01*
X687400Y579800D02*
X695400D01*
X691400Y575800D02*
Y583800D01*
X687400Y576600D02*
X695400D01*
X691400Y572600D02*
Y580600D01*
X683000Y583000D02*
X691000D01*
X687000Y579000D02*
Y587000D01*
X683000Y579800D02*
X691000D01*
X687000Y575800D02*
Y583800D01*
X683000Y576600D02*
X691000D01*
X687000Y572600D02*
Y580600D01*
X696400Y577400D02*
X704400D01*
X700400Y573400D02*
Y581400D01*
X696400Y580600D02*
X704400D01*
X700400Y576600D02*
Y584600D01*
X696400Y583800D02*
X704400D01*
X700400Y579800D02*
Y587800D01*
X721000Y578400D02*
X729000D01*
X725000Y574400D02*
Y582400D01*
X717800Y581600D02*
X725800D01*
X721800Y577600D02*
Y585600D01*
X714600Y581600D02*
X722600D01*
X718600Y577600D02*
Y585600D01*
X714600Y578400D02*
X722600D01*
X718600Y574400D02*
Y582400D01*
X714600Y584800D02*
X722600D01*
X718600Y580800D02*
Y588800D01*
X717800Y584800D02*
X725800D01*
X721800Y580800D02*
Y588800D01*
X721000Y581600D02*
X729000D01*
X725000Y577600D02*
Y585600D01*
X717800Y578400D02*
X725800D01*
X721800Y574400D02*
Y582400D01*
X721000Y584800D02*
X729000D01*
X725000Y580800D02*
Y588800D01*
X566800Y611000D02*
X574800D01*
X570800Y607000D02*
Y615000D01*
X564600Y614400D02*
X572600D01*
X568600Y610400D02*
Y618400D01*
X583800Y611800D02*
X591800D01*
X587800Y607800D02*
Y615800D01*
X577400Y611800D02*
X585400D01*
X581400Y607800D02*
Y615800D01*
X597000Y611800D02*
X605000D01*
X601000Y607800D02*
Y615800D01*
X603800Y611000D02*
X611800D01*
X607800Y607000D02*
Y615000D01*
X607600Y611600D02*
X615600D01*
X611600Y607600D02*
Y615600D01*
X607200Y598000D02*
X615200D01*
X611200Y594000D02*
Y602000D01*
X649400Y603000D02*
X657400D01*
X653400Y599000D02*
Y607000D01*
X649400D02*
X657400D01*
X653400Y603000D02*
Y611000D01*
X658200Y601800D02*
X666200D01*
X662200Y597800D02*
Y605800D01*
X657400Y607000D02*
X665400D01*
X661400Y603000D02*
Y611000D01*
X653400Y607000D02*
X661400D01*
X657400Y603000D02*
Y611000D01*
X665800Y607000D02*
X673800D01*
X669800Y603000D02*
Y611000D01*
X661400Y607000D02*
X669400D01*
X665400Y603000D02*
Y611000D01*
X702200Y596800D02*
X710200D01*
X706200Y592800D02*
Y600800D01*
X705400Y596800D02*
X713400D01*
X709400Y592800D02*
Y600800D01*
X515200Y621600D02*
X523200D01*
X519200Y617600D02*
Y625600D01*
X515200Y617600D02*
X523200D01*
X519200Y613600D02*
Y621600D01*
X564400Y617600D02*
X572400D01*
X568400Y613600D02*
Y621600D01*
X560200Y623800D02*
X568200D01*
X564200Y619800D02*
Y627800D01*
X583400Y615000D02*
X591400D01*
X587400Y611000D02*
Y619000D01*
X577200Y615200D02*
X585200D01*
X581200Y611200D02*
Y619200D01*
X605400Y622800D02*
X613400D01*
X609400Y618800D02*
Y626800D01*
X600400Y622400D02*
X608400D01*
X604400Y618400D02*
Y626400D01*
X596800Y615000D02*
X604800D01*
X600800Y611000D02*
Y619000D01*
X610600Y623400D02*
X618600D01*
X614600Y619400D02*
Y627400D01*
X500600Y626584D02*
X727800D01*
Y500600*
X500600*
Y626584*
X501200Y760384D02*
X728400D01*
Y634400*
X501200*
Y760384*
X500600Y894384D02*
X727800D01*
Y768400*
X500600*
Y894384*
X500800Y1028384D02*
X728000D01*
Y902400*
X500800*
Y1028384*
X500200Y1162384D02*
X727400D01*
Y1036400*
X500200*
Y1162384*
X735400Y626984D02*
X962600D01*
Y501000*
X735400*
Y626984*
X735200Y760384D02*
X962400D01*
Y634400*
X735200*
Y760384*
X734600Y894384D02*
X961800D01*
Y768400*
X734600*
Y894384*
X734800Y1028384D02*
X962000D01*
Y902400*
X734800*
Y1028384*
X734200Y1162384D02*
X961400D01*
Y1036400*
X734200*
Y1162384*
X962600Y469400D02*
X750736D01*
X962600D02*
X952600Y466900D01*
Y471900*
X962600Y469400*
X500600D02*
X712464D01*
X500600D02*
X510600Y471900D01*
Y466900*
X500600Y469400*
X962600Y496000D02*
Y464400D01*
X500600Y495600D02*
Y464400D01*
X715464Y470963D02*
X715918Y471275D01*
X716600Y472213*
X716600D02*
Y465650D01*
X718645Y470963D02*
X719100Y471275D01*
X719782Y472213*
X719782D02*
Y465650D01*
X725009Y472213D02*
X722736Y465650D01*
X721827Y472213D02*
X725009D01*
X727282Y466275D02*
X727055Y465963D01*
X727055D02*
X727282Y465650D01*
X727509Y465963*
X727509D02*
X727282Y466275D01*
X730009Y472213D02*
X732509D01*
X732509D02*
X731145Y469713D01*
X731145D02*
X731827D01*
X731827D02*
X732282Y469400D01*
X732509Y469088*
X732509D02*
X732736Y468150D01*
Y467525*
X732509Y466588*
X732509D02*
X732055Y465963D01*
X732055D02*
X731373Y465650D01*
X730691*
X730009Y465963*
X730009D02*
X729782Y466275D01*
X729555Y466900*
X734782Y470025D02*
Y465650D01*
Y468775D02*
X735464Y469713D01*
X735464D02*
X735918Y470025D01*
X736600*
X737055Y469713*
X737055D02*
X737282Y468775D01*
Y465650*
Y468775D02*
X737964Y469713D01*
X737964D02*
X738418Y470025D01*
X739100*
X739555Y469713*
X739555D02*
X739782Y468775D01*
Y465650*
X741827Y470025D02*
Y465650D01*
Y468775D02*
X742509Y469713D01*
X742509D02*
X742964Y470025D01*
X743645*
X744100Y469713*
X744100D02*
X744327Y468775D01*
Y465650*
Y468775D02*
X745009Y469713D01*
X745009D02*
X745464Y470025D01*
X746145*
X746600Y469713*
X746600D02*
X746827Y468775D01*
Y465650*
X450000Y500600D02*
Y824742D01*
Y500600D02*
X447500Y510600D01*
X452500*
X450000Y500600*
Y1162384D02*
Y838242D01*
Y1162384D02*
X452500Y1152384D01*
X447500*
X450000Y1162384*
X495600Y500600D02*
X445000D01*
X495200Y1162384D02*
X445000D01*
X433977Y833055D02*
X434432Y833367D01*
X435114Y834305*
Y827742*
X439886Y833367D02*
X439659Y833992D01*
X438977Y834305*
X438523*
X437841Y833992*
X437386Y833055*
X437159Y831492*
Y829930*
X437386Y828680*
X437841Y828055*
X438523Y827742*
X438750*
X439432Y828055*
X439886Y828680*
X440114Y829617*
Y829930*
X439886Y830867*
X439432Y831492*
X438750Y831805*
X438523*
X437841Y831492*
X437386Y830867*
X437159Y829930*
X443295Y834305D02*
X442614Y833992D01*
X442386Y833367*
Y832742*
X442614Y832117*
X443068Y831805*
X443977Y831492*
X444659Y831180*
X445114Y830555*
X445341Y829930*
Y828992*
X445114Y828367*
X444886Y828055*
X444205Y827742*
X443295*
X442614Y828055*
X442386Y828367*
X442159Y828992*
Y829930*
X442386Y830555*
X442841Y831180*
X443523Y831492*
X444432Y831805*
X444886Y832117*
X445114Y832742*
Y833367*
X444886Y833992*
X444205Y834305*
X443295*
X447614Y828367D02*
X447386Y828055D01*
X447614Y827742*
X447841Y828055*
X447614Y828367*
X449886Y833055D02*
X450341Y833367D01*
X451023Y834305*
Y827742*
X453068Y832117D02*
Y827742D01*
Y830867D02*
X453750Y831805D01*
X454205Y832117*
X454886*
X455341Y831805*
X455568Y830867*
Y827742*
Y830867D02*
X456250Y831805D01*
X456705Y832117*
X457386*
X457841Y831805*
X458068Y830867*
Y827742*
X460114Y832117D02*
Y827742D01*
Y830867D02*
X460795Y831805D01*
X461250Y832117*
X461932*
X462386Y831805*
X462614Y830867*
Y827742*
Y830867D02*
X463295Y831805D01*
X463750Y832117*
X464432*
X464886Y831805*
X465114Y830867*
Y827742*
X340000Y812000D02*
X598000D01*
X340000Y788000D02*
X598000D01*
X340000Y764000D02*
X598000D01*
X340000Y740000D02*
X598000D01*
X340000Y716000D02*
X598000D01*
X340000Y692000D02*
X598000D01*
X340000Y668000D02*
X598000D01*
X340000Y644000D02*
X598000D01*
X340000Y620000D02*
X598000D01*
X340000Y596000D02*
X598000D01*
X340000Y572000D02*
X598000D01*
X340000Y548000D02*
X598000D01*
X340000Y524000D02*
X598000D01*
X340000Y500000D02*
X598000D01*
X340000Y812000D02*
Y500000D01*
X424000Y812000D02*
Y500000D01*
X460000Y812000D02*
Y500000D01*
X496000Y812000D02*
Y500000D01*
X550000Y812000D02*
Y500000D01*
X598000Y812000D02*
Y500000D01*
X375500Y800750D02*
X374955Y801500D01*
X374136Y801875*
X373045*
X372227Y801500*
X371682Y800750*
Y800000*
X371955Y799250*
X372227Y798875*
X372773Y798500*
X374409Y797750*
X374955Y797375*
X375227Y797000*
X375500Y796250*
Y795125*
X374955Y794375*
X374136Y794000*
X373045*
X372227Y794375*
X371682Y795125*
X377955Y801875D02*
Y794000D01*
X384227Y801875D02*
X380409Y794000D01*
Y801875D02*
X384227D01*
X380409Y794000D02*
X384227D01*
X386682Y801875D02*
Y794000D01*
Y801875D02*
X390227D01*
X386682Y798125D02*
X388864D01*
X386682Y794000D02*
X390227D01*
X433864Y801875D02*
X433318Y801500D01*
X432773Y800750*
X432500Y800000*
X432227Y798875*
Y797000*
X432500Y795875*
X432773Y795125*
X433318Y794375*
X433864Y794000*
X434955*
X435500Y794375*
X436045Y795125*
X436318Y795875*
X436591Y797000*
Y798875*
X436318Y800000*
X436045Y800750*
X435500Y801500*
X434955Y801875*
X433864*
X434682Y795500D02*
X436318Y793250D01*
X440955Y801875D02*
Y794000D01*
X439045Y801875D02*
X442864D01*
X445318D02*
X447500Y798125D01*
Y794000*
X449682Y801875D02*
X447500Y798125D01*
X472045Y800750D02*
X471500Y801500D01*
X470682Y801875*
X469591*
X468773Y801500*
X468227Y800750*
Y800000*
X468500Y799250*
X468773Y798875*
X469318Y798500*
X470955Y797750*
X471500Y797375*
X471773Y797000*
X472045Y796250*
Y795125*
X471500Y794375*
X470682Y794000*
X469591*
X468773Y794375*
X468227Y795125*
X474500Y801875D02*
X476682Y798125D01*
Y794000*
X478864Y801875D02*
X476682Y798125D01*
X481318Y801875D02*
Y794000D01*
Y801875D02*
X483500Y794000D01*
X485682Y801875D02*
X483500Y794000D01*
X485682Y801875D02*
Y794000D01*
X507500Y801875D02*
Y794000D01*
Y801875D02*
X509955D01*
X510773Y801500*
X511045Y801125*
X511318Y800375*
Y799250*
X511045Y798500*
X510773Y798125*
X509955Y797750*
X507500*
X513773Y801875D02*
Y794000D01*
X517045*
X521682Y801875D02*
X519500Y794000D01*
X521682Y801875D02*
X523864Y794000D01*
X520318Y796625D02*
X523045D01*
X528227Y801875D02*
Y794000D01*
X526318Y801875D02*
X530136D01*
X532591D02*
Y794000D01*
Y801875D02*
X536136D01*
X532591Y798125D02*
X534773D01*
X532591Y794000D02*
X536136D01*
X538591Y801875D02*
Y794000D01*
Y801875D02*
X540500D01*
X541318Y801500*
X541864Y800750*
X542136Y800000*
X542409Y798875*
Y797000*
X542136Y795875*
X541864Y795125*
X541318Y794375*
X540500Y794000*
X538591*
X566682Y801875D02*
Y794000D01*
X564773Y801875D02*
X568591D01*
X572682D02*
X572136Y801500D01*
X571591Y800750*
X571318Y800000*
X571045Y798875*
Y797000*
X571318Y795875*
X571591Y795125*
X572136Y794375*
X572682Y794000*
X573773*
X574318Y794375*
X574864Y795125*
X575136Y795875*
X575409Y797000*
Y798875*
X575136Y800000*
X574864Y800750*
X574318Y801500*
X573773Y801875*
X572682*
X577864D02*
Y794000D01*
X581136*
X346000Y776375D02*
X346545Y776750D01*
X347364Y777875*
Y770000*
X350091Y776000D02*
Y776375D01*
X350364Y777125*
X350636Y777500*
X351182Y777875*
X352273*
X352818Y777500*
X353091Y777125*
X353364Y776375*
Y775625*
X353091Y774875*
X352545Y773750*
X349818Y770000*
X353636*
X433182Y776000D02*
Y776375D01*
X433455Y777125*
X433727Y777500*
X434273Y777875*
X435364*
X435909Y777500*
X436182Y777125*
X436455Y776375*
Y775625*
X436182Y774875*
X435636Y773750*
X432909Y770000*
X436727*
X442455Y776750D02*
X442182Y777500D01*
X441364Y777875*
X440818*
X440000Y777500*
X439455Y776375*
X439182Y774500*
Y772625*
X439455Y771125*
X440000Y770375*
X440818Y770000*
X441091*
X441909Y770375*
X442455Y771125*
X442727Y772250*
Y772625*
X442455Y773750*
X441909Y774500*
X441091Y774875*
X440818*
X440000Y774500*
X439455Y773750*
X439182Y772625*
X446545Y777875D02*
X445727Y777500D01*
X445455Y776750*
Y776000*
X445727Y775250*
X446273Y774875*
X447364Y774500*
X448182Y774125*
X448727Y773375*
X449000Y772625*
Y771500*
X448727Y770750*
X448455Y770375*
X447636Y770000*
X446545*
X445727Y770375*
X445455Y770750*
X445182Y771500*
Y772625*
X445455Y773375*
X446000Y774125*
X446818Y774500*
X447909Y774875*
X448455Y775250*
X448727Y776000*
Y776750*
X448455Y777500*
X447636Y777875*
X446545*
X472000Y776000D02*
X484000D01*
X478000Y770000D02*
Y782000D01*
X504636Y777875D02*
X506818Y774125D01*
Y770000*
X509000Y777875D02*
X506818Y774125D01*
X511455Y777875D02*
Y770000D01*
Y777875D02*
X515000D01*
X511455Y774125D02*
X513636D01*
X511455Y770000D02*
X515000D01*
X521273Y776750D02*
X520727Y777500D01*
X519909Y777875*
X518818*
X518000Y777500*
X517455Y776750*
Y776000*
X517727Y775250*
X518000Y774875*
X518545Y774500*
X520182Y773750*
X520727Y773375*
X521000Y773000*
X521273Y772250*
Y771125*
X520727Y770375*
X519909Y770000*
X518818*
X518000Y770375*
X517455Y771125*
X557818Y776750D02*
Y770000D01*
X555364Y773375D02*
X560273D01*
X567636Y779375D02*
X562727Y767375D01*
X570091Y773375D02*
X575000D01*
X579091Y777875D02*
X578273Y777500D01*
X577727Y776375*
X577455Y774500*
Y773375*
X577727Y771500*
X578273Y770375*
X579091Y770000*
X579636*
X580455Y770375*
X581000Y771500*
X581273Y773375*
Y774500*
X581000Y776375*
X580455Y777500*
X579636Y777875*
X579091*
X584000Y770750D02*
X583727Y770375D01*
X584000Y770000*
X584273Y770375*
X584000Y770750*
X588364Y777875D02*
X587545Y777500D01*
X587000Y776375*
X586727Y774500*
Y773375*
X587000Y771500*
X587545Y770375*
X588364Y770000*
X588909*
X589727Y770375*
X590273Y771500*
X590545Y773375*
Y774500*
X590273Y776375*
X589727Y777500*
X588909Y777875*
X588364*
X348727Y753875D02*
X346000Y748625D01*
X350091*
X348727Y753875D02*
Y746000D01*
X356091Y753875D02*
X353364D01*
X353091Y750500*
X353364Y750875*
X354182Y751250*
X355000*
X355818Y750875*
X356364Y750125*
X356636Y749000*
X356364Y748250*
X356091Y747125*
X355545Y746375*
X354727Y746000*
X353909*
X353091Y746375*
X352818Y746750*
X352545Y747500*
X359364Y746750D02*
X359091Y746375D01*
X359364Y746000*
X359636Y746375*
X359364Y746750*
X362364Y752000D02*
Y752375D01*
X362636Y753125*
X362909Y753500*
X363455Y753875*
X364545*
X365091Y753500*
X365364Y753125*
X365636Y752375*
Y751625*
X365364Y750875*
X364818Y749750*
X362091Y746000*
X365909*
X369727Y753875D02*
X368909Y753500D01*
X368636Y752750*
Y752000*
X368909Y751250*
X369455Y750875*
X370545Y750500*
X371364Y750125*
X371909Y749375*
X372182Y748625*
Y747500*
X371909Y746750*
X371636Y746375*
X370818Y746000*
X369727*
X368909Y746375*
X368636Y746750*
X368364Y747500*
Y748625*
X368636Y749375*
X369182Y750125*
X370000Y750500*
X371091Y750875*
X371636Y751250*
X371909Y752000*
Y752750*
X371636Y753500*
X370818Y753875*
X369727*
X439318Y752000D02*
Y752375D01*
X439591Y753125*
X439864Y753500*
X440409Y753875*
X441500*
X442045Y753500*
X442318Y753125*
X442591Y752375*
Y751625*
X442318Y750875*
X441773Y749750*
X439045Y746000*
X442864*
X472000D02*
X484000D01*
Y758000*
X472000*
Y746000*
X478000Y752000D02*
Y758000D01*
X504636Y753875D02*
X506818Y750125D01*
Y746000*
X509000Y753875D02*
X506818Y750125D01*
X511455Y753875D02*
Y746000D01*
Y753875D02*
X515000D01*
X511455Y750125D02*
X513636D01*
X511455Y746000D02*
X515000D01*
X521273Y752750D02*
X520727Y753500D01*
X519909Y753875*
X518818*
X518000Y753500*
X517455Y752750*
Y752000*
X517727Y751250*
X518000Y750875*
X518545Y750500*
X520182Y749750*
X520727Y749375*
X521000Y749000*
X521273Y748250*
Y747125*
X520727Y746375*
X519909Y746000*
X518818*
X518000Y746375*
X517455Y747125*
X557818Y752750D02*
Y746000D01*
X555364Y749375D02*
X560273D01*
X567636Y755375D02*
X562727Y743375D01*
X570091Y749375D02*
X575000D01*
X579091Y753875D02*
X578273Y753500D01*
X577727Y752375*
X577455Y750500*
Y749375*
X577727Y747500*
X578273Y746375*
X579091Y746000*
X579636*
X580455Y746375*
X581000Y747500*
X581273Y749375*
Y750500*
X581000Y752375*
X580455Y753500*
X579636Y753875*
X579091*
X584000Y746750D02*
X583727Y746375D01*
X584000Y746000*
X584273Y746375*
X584000Y746750*
X588364Y753875D02*
X587545Y753500D01*
X587000Y752375*
X586727Y750500*
Y749375*
X587000Y747500*
X587545Y746375*
X588364Y746000*
X588909*
X589727Y746375*
X590273Y747500*
X590545Y749375*
Y750500*
X590273Y752375*
X589727Y753500*
X588909Y753875*
X588364*
X348727Y729875D02*
X346000Y724625D01*
X350091*
X348727Y729875D02*
Y722000D01*
X353091Y729875D02*
X356091D01*
X354455Y726875*
X355273*
X355818Y726500*
X356091Y726125*
X356364Y725000*
Y724250*
X356091Y723125*
X355545Y722375*
X354727Y722000*
X353909*
X353091Y722375*
X352818Y722750*
X352545Y723500*
X359091Y722750D02*
X358818Y722375D01*
X359091Y722000*
X359364Y722375*
X359091Y722750*
X362364Y729875D02*
X365364D01*
X363727Y726875*
X364545*
X365091Y726500*
X365364Y726125*
X365636Y725000*
Y724250*
X365364Y723125*
X364818Y722375*
X364000Y722000*
X363182*
X362364Y722375*
X362091Y722750*
X361818Y723500*
X368091Y728375D02*
X368636Y728750D01*
X369455Y729875*
Y722000*
X441636Y729875D02*
X438909Y724625D01*
X443000*
X441636Y729875D02*
Y722000D01*
X478000D02*
X484000Y728000D01*
X478000Y734000*
X472000Y728000*
X478000Y722000*
Y728000D02*
Y734000D01*
X504636Y729875D02*
X506818Y726125D01*
Y722000*
X509000Y729875D02*
X506818Y726125D01*
X511455Y729875D02*
Y722000D01*
Y729875D02*
X515000D01*
X511455Y726125D02*
X513636D01*
X511455Y722000D02*
X515000D01*
X521273Y728750D02*
X520727Y729500D01*
X519909Y729875*
X518818*
X518000Y729500*
X517455Y728750*
Y728000*
X517727Y727250*
X518000Y726875*
X518545Y726500*
X520182Y725750*
X520727Y725375*
X521000Y725000*
X521273Y724250*
Y723125*
X520727Y722375*
X519909Y722000*
X518818*
X518000Y722375*
X517455Y723125*
X557818Y728750D02*
Y722000D01*
X555364Y725375D02*
X560273D01*
X567636Y731375D02*
X562727Y719375D01*
X570091Y725375D02*
X575000D01*
X579091Y729875D02*
X578273Y729500D01*
X577727Y728375*
X577455Y726500*
Y725375*
X577727Y723500*
X578273Y722375*
X579091Y722000*
X579636*
X580455Y722375*
X581000Y723500*
X581273Y725375*
Y726500*
X581000Y728375*
X580455Y729500*
X579636Y729875*
X579091*
X584000Y722750D02*
X583727Y722375D01*
X584000Y722000*
X584273Y722375*
X584000Y722750*
X588364Y729875D02*
X587545Y729500D01*
X587000Y728375*
X586727Y726500*
Y725375*
X587000Y723500*
X587545Y722375*
X588364Y722000*
X588909*
X589727Y722375*
X590273Y723500*
X590545Y725375*
Y726500*
X590273Y728375*
X589727Y729500*
X588909Y729875*
X588364*
X346273Y704000D02*
Y704375D01*
X346545Y705125*
X346818Y705500*
X347364Y705875*
X348455*
X349000Y705500*
X349273Y705125*
X349545Y704375*
Y703625*
X349273Y702875*
X348727Y701750*
X346000Y698000*
X349818*
X356091Y705875D02*
X353364Y698000D01*
X352273Y705875D02*
X356091D01*
X358818Y698750D02*
X358545Y698375D01*
X358818Y698000*
X359091Y698375*
X358818Y698750*
X365091Y705875D02*
X362364D01*
X362091Y702500*
X362364Y702875*
X363182Y703250*
X364000*
X364818Y702875*
X365364Y702125*
X365636Y701000*
X365364Y700250*
X365091Y699125*
X364545Y698375*
X363727Y698000*
X362909*
X362091Y698375*
X361818Y698750*
X361545Y699500*
X371364Y704750D02*
X371091Y705500D01*
X370273Y705875*
X369727*
X368909Y705500*
X368364Y704375*
X368091Y702500*
Y700625*
X368364Y699125*
X368909Y698375*
X369727Y698000*
X370000*
X370818Y698375*
X371364Y699125*
X371636Y700250*
Y700625*
X371364Y701750*
X370818Y702500*
X370000Y702875*
X369727*
X368909Y702500*
X368364Y701750*
X368091Y700625*
X439318Y704000D02*
Y704375D01*
X439591Y705125*
X439864Y705500*
X440409Y705875*
X441500*
X442045Y705500*
X442318Y705125*
X442591Y704375*
Y703625*
X442318Y702875*
X441773Y701750*
X439045Y698000*
X442864*
X472000D02*
X484000D01*
X472000Y710000*
X484000*
X472000Y698000*
X504636Y705875D02*
X506818Y702125D01*
Y698000*
X509000Y705875D02*
X506818Y702125D01*
X511455Y705875D02*
Y698000D01*
Y705875D02*
X515000D01*
X511455Y702125D02*
X513636D01*
X511455Y698000D02*
X515000D01*
X521273Y704750D02*
X520727Y705500D01*
X519909Y705875*
X518818*
X518000Y705500*
X517455Y704750*
Y704000*
X517727Y703250*
X518000Y702875*
X518545Y702500*
X520182Y701750*
X520727Y701375*
X521000Y701000*
X521273Y700250*
Y699125*
X520727Y698375*
X519909Y698000*
X518818*
X518000Y698375*
X517455Y699125*
X557818Y704750D02*
Y698000D01*
X555364Y701375D02*
X560273D01*
X567636Y707375D02*
X562727Y695375D01*
X570091Y701375D02*
X575000D01*
X579091Y705875D02*
X578273Y705500D01*
X577727Y704375*
X577455Y702500*
Y701375*
X577727Y699500*
X578273Y698375*
X579091Y698000*
X579636*
X580455Y698375*
X581000Y699500*
X581273Y701375*
Y702500*
X581000Y704375*
X580455Y705500*
X579636Y705875*
X579091*
X584000Y698750D02*
X583727Y698375D01*
X584000Y698000*
X584273Y698375*
X584000Y698750*
X588364Y705875D02*
X587545Y705500D01*
X587000Y704375*
X586727Y702500*
Y701375*
X587000Y699500*
X587545Y698375*
X588364Y698000*
X588909*
X589727Y698375*
X590273Y699500*
X590545Y701375*
Y702500*
X590273Y704375*
X589727Y705500*
X588909Y705875*
X588364*
X346273Y680000D02*
Y680375D01*
X346545Y681125*
X346818Y681500*
X347364Y681875*
X348455*
X349000Y681500*
X349273Y681125*
X349545Y680375*
Y679625*
X349273Y678875*
X348727Y677750*
X346000Y674000*
X349818*
X355818Y679250D02*
X355545Y678125D01*
X355000Y677375*
X354182Y677000*
X353909*
X353091Y677375*
X352545Y678125*
X352273Y679250*
Y679625*
X352545Y680750*
X353091Y681500*
X353909Y681875*
X354182*
X355000Y681500*
X355545Y680750*
X355818Y679250*
Y677375*
X355545Y675500*
X355000Y674375*
X354182Y674000*
X353636*
X352818Y674375*
X352545Y675125*
X358545Y674750D02*
X358273Y674375D01*
X358545Y674000*
X358818Y674375*
X358545Y674750*
X364818Y681875D02*
X362091D01*
X361818Y678500*
X362091Y678875*
X362909Y679250*
X363727*
X364545Y678875*
X365091Y678125*
X365364Y677000*
X365091Y676250*
X364818Y675125*
X364273Y674375*
X363455Y674000*
X362636*
X361818Y674375*
X361545Y674750*
X361273Y675500*
X368364Y681875D02*
X371364D01*
X369727Y678875*
X370545*
X371091Y678500*
X371364Y678125*
X371636Y677000*
Y676250*
X371364Y675125*
X370818Y674375*
X370000Y674000*
X369182*
X368364Y674375*
X368091Y674750*
X367818Y675500*
X440273Y680375D02*
X440818Y680750D01*
X441636Y681875*
Y674000*
X472000D02*
X484000Y686000D01*
Y674000*
X472000Y686000*
Y674000*
X504636Y681875D02*
X506818Y678125D01*
Y674000*
X509000Y681875D02*
X506818Y678125D01*
X511455Y681875D02*
Y674000D01*
Y681875D02*
X515000D01*
X511455Y678125D02*
X513636D01*
X511455Y674000D02*
X515000D01*
X521273Y680750D02*
X520727Y681500D01*
X519909Y681875*
X518818*
X518000Y681500*
X517455Y680750*
Y680000*
X517727Y679250*
X518000Y678875*
X518545Y678500*
X520182Y677750*
X520727Y677375*
X521000Y677000*
X521273Y676250*
Y675125*
X520727Y674375*
X519909Y674000*
X518818*
X518000Y674375*
X517455Y675125*
X557818Y680750D02*
Y674000D01*
X555364Y677375D02*
X560273D01*
X567636Y683375D02*
X562727Y671375D01*
X570091Y677375D02*
X575000D01*
X579091Y681875D02*
X578273Y681500D01*
X577727Y680375*
X577455Y678500*
Y677375*
X577727Y675500*
X578273Y674375*
X579091Y674000*
X579636*
X580455Y674375*
X581000Y675500*
X581273Y677375*
Y678500*
X581000Y680375*
X580455Y681500*
X579636Y681875*
X579091*
X584000Y674750D02*
X583727Y674375D01*
X584000Y674000*
X584273Y674375*
X584000Y674750*
X588364Y681875D02*
X587545Y681500D01*
X587000Y680375*
X586727Y678500*
Y677375*
X587000Y675500*
X587545Y674375*
X588364Y674000*
X588909*
X589727Y674375*
X590273Y675500*
X590545Y677375*
Y678500*
X590273Y680375*
X589727Y681500*
X588909Y681875*
X588364*
X346273Y656000D02*
Y656375D01*
X346545Y657125*
X346818Y657500*
X347364Y657875*
X348455*
X349000Y657500*
X349273Y657125*
X349545Y656375*
Y655625*
X349273Y654875*
X348727Y653750*
X346000Y650000*
X349818*
X352818Y657875D02*
X355818D01*
X354182Y654875*
X355000*
X355545Y654500*
X355818Y654125*
X356091Y653000*
Y652250*
X355818Y651125*
X355273Y650375*
X354455Y650000*
X353636*
X352818Y650375*
X352545Y650750*
X352273Y651500*
X358818Y650750D02*
X358545Y650375D01*
X358818Y650000*
X359091Y650375*
X358818Y650750*
X364818Y656750D02*
X364545Y657500D01*
X363727Y657875*
X363182*
X362364Y657500*
X361818Y656375*
X361545Y654500*
Y652625*
X361818Y651125*
X362364Y650375*
X363182Y650000*
X363455*
X364273Y650375*
X364818Y651125*
X365091Y652250*
Y652625*
X364818Y653750*
X364273Y654500*
X363455Y654875*
X363182*
X362364Y654500*
X361818Y653750*
X361545Y652625*
X367818Y656000D02*
Y656375D01*
X368091Y657125*
X368364Y657500*
X368909Y657875*
X370000*
X370545Y657500*
X370818Y657125*
X371091Y656375*
Y655625*
X370818Y654875*
X370273Y653750*
X367545Y650000*
X371364*
X439318Y656000D02*
Y656375D01*
X439591Y657125*
X439864Y657500*
X440409Y657875*
X441500*
X442045Y657500*
X442318Y657125*
X442591Y656375*
Y655625*
X442318Y654875*
X441773Y653750*
X439045Y650000*
X442864*
X472000Y656000D02*
X484000D01*
X478000Y650000D02*
Y662000D01*
X482745Y665300D02*
X481000Y659000D01*
X482745Y665300D02*
X484491Y659000D01*
X481655Y661100D02*
X483836D01*
X504636Y657875D02*
X506818Y654125D01*
Y650000*
X509000Y657875D02*
X506818Y654125D01*
X511455Y657875D02*
Y650000D01*
Y657875D02*
X515000D01*
X511455Y654125D02*
X513636D01*
X511455Y650000D02*
X515000D01*
X521273Y656750D02*
X520727Y657500D01*
X519909Y657875*
X518818*
X518000Y657500*
X517455Y656750*
Y656000*
X517727Y655250*
X518000Y654875*
X518545Y654500*
X520182Y653750*
X520727Y653375*
X521000Y653000*
X521273Y652250*
Y651125*
X520727Y650375*
X519909Y650000*
X518818*
X518000Y650375*
X517455Y651125*
X557818Y656750D02*
Y650000D01*
X555364Y653375D02*
X560273D01*
X567636Y659375D02*
X562727Y647375D01*
X570091Y653375D02*
X575000D01*
X579091Y657875D02*
X578273Y657500D01*
X577727Y656375*
X577455Y654500*
Y653375*
X577727Y651500*
X578273Y650375*
X579091Y650000*
X579636*
X580455Y650375*
X581000Y651500*
X581273Y653375*
Y654500*
X581000Y656375*
X580455Y657500*
X579636Y657875*
X579091*
X584000Y650750D02*
X583727Y650375D01*
X584000Y650000*
X584273Y650375*
X584000Y650750*
X588364Y657875D02*
X587545Y657500D01*
X587000Y656375*
X586727Y654500*
Y653375*
X587000Y651500*
X587545Y650375*
X588364Y650000*
X588909*
X589727Y650375*
X590273Y651500*
X590545Y653375*
Y654500*
X590273Y656375*
X589727Y657500*
X588909Y657875*
X588364*
X346000Y632375D02*
X346545Y632750D01*
X347364Y633875*
Y626000*
X353636Y633875D02*
X350909Y626000D01*
X349818Y633875D02*
X353636D01*
X356364Y626750D02*
X356091Y626375D01*
X356364Y626000*
X356636Y626375*
X356364Y626750*
X362909Y633875D02*
X360182Y626000D01*
X359091Y633875D02*
X362909D01*
X365636Y632000D02*
Y632375D01*
X365909Y633125*
X366182Y633500*
X366727Y633875*
X367818*
X368364Y633500*
X368636Y633125*
X368909Y632375*
Y631625*
X368636Y630875*
X368091Y629750*
X365364Y626000*
X369182*
X377909Y631250D02*
X380909Y626000D01*
Y631250D02*
X377909Y626000D01*
X392909Y632750D02*
X392636Y633500D01*
X391818Y633875*
X391273*
X390455Y633500*
X389909Y632375*
X389636Y630500*
Y628625*
X389909Y627125*
X390455Y626375*
X391273Y626000*
X391545*
X392364Y626375*
X392909Y627125*
X393182Y628250*
Y628625*
X392909Y629750*
X392364Y630500*
X391545Y630875*
X391273*
X390455Y630500*
X389909Y629750*
X389636Y628625*
X398909Y632750D02*
X398636Y633500D01*
X397818Y633875*
X397273*
X396455Y633500*
X395909Y632375*
X395636Y630500*
Y628625*
X395909Y627125*
X396455Y626375*
X397273Y626000*
X397545*
X398364Y626375*
X398909Y627125*
X399182Y628250*
Y628625*
X398909Y629750*
X398364Y630500*
X397545Y630875*
X397273*
X396455Y630500*
X395909Y629750*
X395636Y628625*
X401909Y626750D02*
X401636Y626375D01*
X401909Y626000*
X402182Y626375*
X401909Y626750*
X408182Y631250D02*
X407909Y630125D01*
X407364Y629375*
X406545Y629000*
X406273*
X405455Y629375*
X404909Y630125*
X404636Y631250*
Y631625*
X404909Y632750*
X405455Y633500*
X406273Y633875*
X406545*
X407364Y633500*
X407909Y632750*
X408182Y631250*
Y629375*
X407909Y627500*
X407364Y626375*
X406545Y626000*
X406000*
X405182Y626375*
X404909Y627125*
X411182Y633875D02*
X414182D01*
X412545Y630875*
X413364*
X413909Y630500*
X414182Y630125*
X414455Y629000*
Y628250*
X414182Y627125*
X413636Y626375*
X412818Y626000*
X412000*
X411182Y626375*
X410909Y626750*
X410636Y627500*
X440273Y632375D02*
X440818Y632750D01*
X441636Y633875*
Y626000*
X472000Y632000D02*
X484000D01*
X478000Y626000D02*
Y638000D01*
X481000Y641300D02*
Y635000D01*
Y641300D02*
X482964D01*
X483618Y641000*
X483836Y640700*
X484055Y640100*
Y639500*
X483836Y638900*
X483618Y638600*
X482964Y638300*
X481000D02*
X482964D01*
X483618Y638000*
X483836Y637700*
X484055Y637100*
Y636200*
X483836Y635600*
X483618Y635300*
X482964Y635000*
X481000*
X504636Y633875D02*
X506818Y630125D01*
Y626000*
X509000Y633875D02*
X506818Y630125D01*
X511455Y633875D02*
Y626000D01*
Y633875D02*
X515000D01*
X511455Y630125D02*
X513636D01*
X511455Y626000D02*
X515000D01*
X521273Y632750D02*
X520727Y633500D01*
X519909Y633875*
X518818*
X518000Y633500*
X517455Y632750*
Y632000*
X517727Y631250*
X518000Y630875*
X518545Y630500*
X520182Y629750*
X520727Y629375*
X521000Y629000*
X521273Y628250*
Y627125*
X520727Y626375*
X519909Y626000*
X518818*
X518000Y626375*
X517455Y627125*
X557818Y632750D02*
Y626000D01*
X555364Y629375D02*
X560273D01*
X567636Y635375D02*
X562727Y623375D01*
X570091Y629375D02*
X575000D01*
X579091Y633875D02*
X578273Y633500D01*
X577727Y632375*
X577455Y630500*
Y629375*
X577727Y627500*
X578273Y626375*
X579091Y626000*
X579636*
X580455Y626375*
X581000Y627500*
X581273Y629375*
Y630500*
X581000Y632375*
X580455Y633500*
X579636Y633875*
X579091*
X584000Y626750D02*
X583727Y626375D01*
X584000Y626000*
X584273Y626375*
X584000Y626750*
X588364Y633875D02*
X587545Y633500D01*
X587000Y632375*
X586727Y630500*
Y629375*
X587000Y627500*
X587545Y626375*
X588364Y626000*
X588909*
X589727Y626375*
X590273Y627500*
X590545Y629375*
Y630500*
X590273Y632375*
X589727Y633500*
X588909Y633875*
X588364*
X346000Y608375D02*
X346545Y608750D01*
X347364Y609875*
Y602000*
X353636Y609875D02*
X350909Y602000D01*
X349818Y609875D02*
X353636D01*
X356364Y602750D02*
X356091Y602375D01*
X356364Y602000*
X356636Y602375*
X356364Y602750*
X362909Y609875D02*
X360182Y602000D01*
X359091Y609875D02*
X362909D01*
X365636Y608000D02*
Y608375D01*
X365909Y609125*
X366182Y609500*
X366727Y609875*
X367818*
X368364Y609500*
X368636Y609125*
X368909Y608375*
Y607625*
X368636Y606875*
X368091Y605750*
X365364Y602000*
X369182*
X377909Y607250D02*
X380909Y602000D01*
Y607250D02*
X377909Y602000D01*
X392909Y608750D02*
X392636Y609500D01*
X391818Y609875*
X391273*
X390455Y609500*
X389909Y608375*
X389636Y606500*
Y604625*
X389909Y603125*
X390455Y602375*
X391273Y602000*
X391545*
X392364Y602375*
X392909Y603125*
X393182Y604250*
Y604625*
X392909Y605750*
X392364Y606500*
X391545Y606875*
X391273*
X390455Y606500*
X389909Y605750*
X389636Y604625*
X398909Y608750D02*
X398636Y609500D01*
X397818Y609875*
X397273*
X396455Y609500*
X395909Y608375*
X395636Y606500*
Y604625*
X395909Y603125*
X396455Y602375*
X397273Y602000*
X397545*
X398364Y602375*
X398909Y603125*
X399182Y604250*
Y604625*
X398909Y605750*
X398364Y606500*
X397545Y606875*
X397273*
X396455Y606500*
X395909Y605750*
X395636Y604625*
X401909Y602750D02*
X401636Y602375D01*
X401909Y602000*
X402182Y602375*
X401909Y602750*
X408182Y607250D02*
X407909Y606125D01*
X407364Y605375*
X406545Y605000*
X406273*
X405455Y605375*
X404909Y606125*
X404636Y607250*
Y607625*
X404909Y608750*
X405455Y609500*
X406273Y609875*
X406545*
X407364Y609500*
X407909Y608750*
X408182Y607250*
Y605375*
X407909Y603500*
X407364Y602375*
X406545Y602000*
X406000*
X405182Y602375*
X404909Y603125*
X411182Y609875D02*
X414182D01*
X412545Y606875*
X413364*
X413909Y606500*
X414182Y606125*
X414455Y605000*
Y604250*
X414182Y603125*
X413636Y602375*
X412818Y602000*
X412000*
X411182Y602375*
X410909Y602750*
X410636Y603500*
X439591Y609875D02*
X442591D01*
X440955Y606875*
X441773*
X442318Y606500*
X442591Y606125*
X442864Y605000*
Y604250*
X442591Y603125*
X442045Y602375*
X441227Y602000*
X440409*
X439591Y602375*
X439318Y602750*
X439045Y603500*
X472000Y608000D02*
X484000D01*
X478000Y602000D02*
Y614000D01*
X484273Y615800D02*
X484055Y616400D01*
X483618Y617000*
X483182Y617300*
X482309*
X481873Y617000*
X481436Y616400*
X481218Y615800*
X481000Y614900*
Y613400*
X481218Y612500*
X481436Y611900*
X481873Y611300*
X482309Y611000*
X483182*
X483618Y611300*
X484055Y611900*
X484273Y612500*
X504636Y609875D02*
X506818Y606125D01*
Y602000*
X509000Y609875D02*
X506818Y606125D01*
X511455Y609875D02*
Y602000D01*
Y609875D02*
X515000D01*
X511455Y606125D02*
X513636D01*
X511455Y602000D02*
X515000D01*
X521273Y608750D02*
X520727Y609500D01*
X519909Y609875*
X518818*
X518000Y609500*
X517455Y608750*
Y608000*
X517727Y607250*
X518000Y606875*
X518545Y606500*
X520182Y605750*
X520727Y605375*
X521000Y605000*
X521273Y604250*
Y603125*
X520727Y602375*
X519909Y602000*
X518818*
X518000Y602375*
X517455Y603125*
X557818Y608750D02*
Y602000D01*
X555364Y605375D02*
X560273D01*
X567636Y611375D02*
X562727Y599375D01*
X570091Y605375D02*
X575000D01*
X579091Y609875D02*
X578273Y609500D01*
X577727Y608375*
X577455Y606500*
Y605375*
X577727Y603500*
X578273Y602375*
X579091Y602000*
X579636*
X580455Y602375*
X581000Y603500*
X581273Y605375*
Y606500*
X581000Y608375*
X580455Y609500*
X579636Y609875*
X579091*
X584000Y602750D02*
X583727Y602375D01*
X584000Y602000*
X584273Y602375*
X584000Y602750*
X588364Y609875D02*
X587545Y609500D01*
X587000Y608375*
X586727Y606500*
Y605375*
X587000Y603500*
X587545Y602375*
X588364Y602000*
X588909*
X589727Y602375*
X590273Y603500*
X590545Y605375*
Y606500*
X590273Y608375*
X589727Y609500*
X588909Y609875*
X588364*
X346545Y585875D02*
X349545D01*
X347909Y582875*
X348727*
X349273Y582500*
X349545Y582125*
X349818Y581000*
Y580250*
X349545Y579125*
X349000Y578375*
X348182Y578000*
X347364*
X346545Y578375*
X346273Y578750*
X346000Y579500*
X356091Y585875D02*
X353364Y578000D01*
X352273Y585875D02*
X356091D01*
X439318Y584000D02*
Y584375D01*
X439591Y585125*
X439864Y585500*
X440409Y585875*
X441500*
X442045Y585500*
X442318Y585125*
X442591Y584375*
Y583625*
X442318Y582875*
X441773Y581750*
X439045Y578000*
X442864*
X472000Y584000D02*
X484000D01*
X478000Y578000D02*
Y590000D01*
X484273Y591800D02*
X484055Y592400D01*
X483618Y593000*
X483182Y593300*
X482309*
X481873Y593000*
X481436Y592400*
X481218Y591800*
X481000Y590900*
Y589400*
X481218Y588500*
X481436Y587900*
X481873Y587300*
X482309Y587000*
X483182*
X483618Y587300*
X484055Y587900*
X484273Y588500*
Y589400*
X483182D02*
X484273D01*
X504636Y585875D02*
X506818Y582125D01*
Y578000*
X509000Y585875D02*
X506818Y582125D01*
X511455Y585875D02*
Y578000D01*
Y585875D02*
X515000D01*
X511455Y582125D02*
X513636D01*
X511455Y578000D02*
X515000D01*
X521273Y584750D02*
X520727Y585500D01*
X519909Y585875*
X518818*
X518000Y585500*
X517455Y584750*
Y584000*
X517727Y583250*
X518000Y582875*
X518545Y582500*
X520182Y581750*
X520727Y581375*
X521000Y581000*
X521273Y580250*
Y579125*
X520727Y578375*
X519909Y578000*
X518818*
X518000Y578375*
X517455Y579125*
X557818Y584750D02*
Y578000D01*
X555364Y581375D02*
X560273D01*
X567636Y587375D02*
X562727Y575375D01*
X570091Y581375D02*
X575000D01*
X579091Y585875D02*
X578273Y585500D01*
X577727Y584375*
X577455Y582500*
Y581375*
X577727Y579500*
X578273Y578375*
X579091Y578000*
X579636*
X580455Y578375*
X581000Y579500*
X581273Y581375*
Y582500*
X581000Y584375*
X580455Y585500*
X579636Y585875*
X579091*
X584000Y578750D02*
X583727Y578375D01*
X584000Y578000*
X584273Y578375*
X584000Y578750*
X588364Y585875D02*
X587545Y585500D01*
X587000Y584375*
X586727Y582500*
Y581375*
X587000Y579500*
X587545Y578375*
X588364Y578000*
X588909*
X589727Y578375*
X590273Y579500*
X590545Y581375*
Y582500*
X590273Y584375*
X589727Y585500*
X588909Y585875*
X588364*
X349818Y561875D02*
X347091Y554000D01*
X346000Y561875D02*
X349818D01*
X353636D02*
X352818Y561500D01*
X352545Y560750*
Y560000*
X352818Y559250*
X353364Y558875*
X354455Y558500*
X355273Y558125*
X355818Y557375*
X356091Y556625*
Y555500*
X355818Y554750*
X355545Y554375*
X354727Y554000*
X353636*
X352818Y554375*
X352545Y554750*
X352273Y555500*
Y556625*
X352545Y557375*
X353091Y558125*
X353909Y558500*
X355000Y558875*
X355545Y559250*
X355818Y560000*
Y560750*
X355545Y561500*
X354727Y561875*
X353636*
X358818Y554750D02*
X358545Y554375D01*
X358818Y554000*
X359091Y554375*
X358818Y554750*
X365364Y561875D02*
X362636Y554000D01*
X361545Y561875D02*
X365364D01*
X370545D02*
X367818Y556625D01*
X371909*
X370545Y561875D02*
Y554000D01*
X441636Y561875D02*
X438909Y556625D01*
X443000*
X441636Y561875D02*
Y554000D01*
X472000Y560000D02*
X484000D01*
X478000Y554000D02*
Y566000D01*
X481000Y569300D02*
Y563000D01*
X484055Y569300D02*
Y563000D01*
X481000Y566300D02*
X484055D01*
X504636Y561875D02*
X506818Y558125D01*
Y554000*
X509000Y561875D02*
X506818Y558125D01*
X511455Y561875D02*
Y554000D01*
Y561875D02*
X515000D01*
X511455Y558125D02*
X513636D01*
X511455Y554000D02*
X515000D01*
X521273Y560750D02*
X520727Y561500D01*
X519909Y561875*
X518818*
X518000Y561500*
X517455Y560750*
Y560000*
X517727Y559250*
X518000Y558875*
X518545Y558500*
X520182Y557750*
X520727Y557375*
X521000Y557000*
X521273Y556250*
Y555125*
X520727Y554375*
X519909Y554000*
X518818*
X518000Y554375*
X517455Y555125*
X557818Y560750D02*
Y554000D01*
X555364Y557375D02*
X560273D01*
X567636Y563375D02*
X562727Y551375D01*
X570091Y557375D02*
X575000D01*
X579091Y561875D02*
X578273Y561500D01*
X577727Y560375*
X577455Y558500*
Y557375*
X577727Y555500*
X578273Y554375*
X579091Y554000*
X579636*
X580455Y554375*
X581000Y555500*
X581273Y557375*
Y558500*
X581000Y560375*
X580455Y561500*
X579636Y561875*
X579091*
X584000Y554750D02*
X583727Y554375D01*
X584000Y554000*
X584273Y554375*
X584000Y554750*
X588364Y561875D02*
X587545Y561500D01*
X587000Y560375*
X586727Y558500*
Y557375*
X587000Y555500*
X587545Y554375*
X588364Y554000*
X588909*
X589727Y554375*
X590273Y555500*
X590545Y557375*
Y558500*
X590273Y560375*
X589727Y561500*
X588909Y561875*
X588364*
X346545Y537875D02*
X349545D01*
X347909Y534875*
X348727*
X349273Y534500*
X349545Y534125*
X349818Y533000*
Y532250*
X349545Y531125*
X349000Y530375*
X348182Y530000*
X347364*
X346545Y530375*
X346273Y530750*
X346000Y531500*
X355818Y537875D02*
X353091D01*
X352818Y534500*
X353091Y534875*
X353909Y535250*
X354727*
X355545Y534875*
X356091Y534125*
X356364Y533000*
X356091Y532250*
X355818Y531125*
X355273Y530375*
X354455Y530000*
X353636*
X352818Y530375*
X352545Y530750*
X352273Y531500*
X442864Y537875D02*
X440136Y530000D01*
X439045Y537875D02*
X442864D01*
X472000Y536000D02*
X484000D01*
X478000Y530000D02*
Y542000D01*
X481000Y545300D02*
Y539000D01*
X504636Y537875D02*
X506818Y534125D01*
Y530000*
X509000Y537875D02*
X506818Y534125D01*
X511455Y537875D02*
Y530000D01*
Y537875D02*
X515000D01*
X511455Y534125D02*
X513636D01*
X511455Y530000D02*
X515000D01*
X521273Y536750D02*
X520727Y537500D01*
X519909Y537875*
X518818*
X518000Y537500*
X517455Y536750*
Y536000*
X517727Y535250*
X518000Y534875*
X518545Y534500*
X520182Y533750*
X520727Y533375*
X521000Y533000*
X521273Y532250*
Y531125*
X520727Y530375*
X519909Y530000*
X518818*
X518000Y530375*
X517455Y531125*
X557818Y536750D02*
Y530000D01*
X555364Y533375D02*
X560273D01*
X567636Y539375D02*
X562727Y527375D01*
X570091Y533375D02*
X575000D01*
X579091Y537875D02*
X578273Y537500D01*
X577727Y536375*
X577455Y534500*
Y533375*
X577727Y531500*
X578273Y530375*
X579091Y530000*
X579636*
X580455Y530375*
X581000Y531500*
X581273Y533375*
Y534500*
X581000Y536375*
X580455Y537500*
X579636Y537875*
X579091*
X584000Y530750D02*
X583727Y530375D01*
X584000Y530000*
X584273Y530375*
X584000Y530750*
X588364Y537875D02*
X587545Y537500D01*
X587000Y536375*
X586727Y534500*
Y533375*
X587000Y531500*
X587545Y530375*
X588364Y530000*
X588909*
X589727Y530375*
X590273Y531500*
X590545Y533375*
Y534500*
X590273Y536375*
X589727Y537500*
X588909Y537875*
X588364*
X349273Y512750D02*
X349000Y513500D01*
X348182Y513875*
X347636*
X346818Y513500*
X346273Y512375*
X346000Y510500*
Y508625*
X346273Y507125*
X346818Y506375*
X347636Y506000*
X347909*
X348727Y506375*
X349273Y507125*
X349545Y508250*
Y508625*
X349273Y509750*
X348727Y510500*
X347909Y510875*
X347636*
X346818Y510500*
X346273Y509750*
X346000Y508625*
X353636Y513875D02*
X352818Y513500D01*
X352273Y512375*
X352000Y510500*
Y509375*
X352273Y507500*
X352818Y506375*
X353636Y506000*
X354182*
X355000Y506375*
X355545Y507500*
X355818Y509375*
Y510500*
X355545Y512375*
X355000Y513500*
X354182Y513875*
X353636*
X439318D02*
X436591D01*
X436318Y510500*
X436591Y510875*
X437409Y511250*
X438227*
X439045Y510875*
X439591Y510125*
X439864Y509000*
X439591Y508250*
X439318Y507125*
X438773Y506375*
X437955Y506000*
X437136*
X436318Y506375*
X436045Y506750*
X435773Y507500*
X442591Y512000D02*
Y512375D01*
X442864Y513125*
X443136Y513500*
X443682Y513875*
X444773*
X445318Y513500*
X445591Y513125*
X445864Y512375*
Y511625*
X445591Y510875*
X445045Y509750*
X442318Y506000*
X446136*
X472000Y512000D02*
X484000D01*
X478000Y506000D02*
Y518000D01*
X483182Y521300D02*
Y516500D01*
X482964Y515600*
X482745Y515300*
X482309Y515000*
X481873*
X481436Y515300*
X481218Y515600*
X481000Y516500*
Y517100*
X504636Y513875D02*
X506818Y510125D01*
Y506000*
X509000Y513875D02*
X506818Y510125D01*
X511455Y513875D02*
Y506000D01*
Y513875D02*
X515000D01*
X511455Y510125D02*
X513636D01*
X511455Y506000D02*
X515000D01*
X521273Y512750D02*
X520727Y513500D01*
X519909Y513875*
X518818*
X518000Y513500*
X517455Y512750*
Y512000*
X517727Y511250*
X518000Y510875*
X518545Y510500*
X520182Y509750*
X520727Y509375*
X521000Y509000*
X521273Y508250*
Y507125*
X520727Y506375*
X519909Y506000*
X518818*
X518000Y506375*
X517455Y507125*
X557818Y512750D02*
Y506000D01*
X555364Y509375D02*
X560273D01*
X567636Y515375D02*
X562727Y503375D01*
X570091Y509375D02*
X575000D01*
X579091Y513875D02*
X578273Y513500D01*
X577727Y512375*
X577455Y510500*
Y509375*
X577727Y507500*
X578273Y506375*
X579091Y506000*
X579636*
X580455Y506375*
X581000Y507500*
X581273Y509375*
Y510500*
X581000Y512375*
X580455Y513500*
X579636Y513875*
X579091*
X584000Y506750D02*
X583727Y506375D01*
X584000Y506000*
X584273Y506375*
X584000Y506750*
X588364Y513875D02*
X587545Y513500D01*
X587000Y512375*
X586727Y510500*
Y509375*
X587000Y507500*
X587545Y506375*
X588364Y506000*
X588909*
X589727Y506375*
X590273Y507500*
X590545Y509375*
Y510500*
X590273Y512375*
X589727Y513500*
X588909Y513875*
X588364*
G54D59*
X962600Y501000D02*
X962603D01*
X500600Y500600D02*
X500603D01*
X500600D02*
X500603D01*
X500200Y1162384D02*
X500203D01*
G74*
X0Y0D02*
M02*
