%
T1C.012F095S3
X0517Y05076
X05178Y05028
X05248Y05184
X05412Y05176
X05448Y05072
X05448Y05176
X05522Y05246
X05568Y05124
X05588Y05238
X05668Y05072
X05688Y05098
X05694Y0504
X05726Y05072
X05726Y0504
X05804Y05272
X05832Y05274
X05876Y05064
X05906Y0527
X05918Y05112
X05918Y0508
X05938Y0527
X05958Y05082
X05958Y05114
X05972Y05272
X06004Y05272
X0605Y05054
X06138Y05054
X06226Y05054
X0631Y05054
X06346Y0507
X06346Y05102
X06378Y05102
X06378Y0507
X06634Y0505
X06638Y0511
X06638Y05078
X06666Y0505
X0667Y05078
X0667Y0511
X06698Y0505
X06702Y0511
X06702Y05078
X06904Y05128
X06904Y05192
X06904Y0516
X06936Y05128
X06936Y05192
X06936Y0516
X06968Y05128
X06968Y0516
X06968Y05192
X07072Y05048
X07072Y05112
X07072Y0508
X07104Y05112
X07104Y0508
X07104Y05048
X07136Y05112
X07136Y05048
X07136Y0508
X07168Y05214
X07168Y05246
X072Y05246
X072Y05214
X07232Y05246
X07232Y05214
X07232Y05278
X0723Y05406
X0723Y05438
X0723Y05374
X072Y05278
X07198Y05438
X07198Y05406
X07198Y05374
X07168Y05278
X07166Y05374
X07166Y05438
X07166Y05406
X06992Y05352
X06992Y05384
X06992Y0532
X0696Y05384
X0696Y05352
X0696Y0532
X06928Y05352
X06928Y05384
X06928Y0532
X0677Y05402
X06618Y05402
X06572Y0539
X06538Y0539
X06522Y05494
X06522Y05526
X06488Y05494
X06488Y05526
X06264Y0545
X06262Y05506
X06262Y0548
X05906Y05302
X05874Y0551
X0584Y05412
X05832Y05302
X05806Y05302
X05762Y05362
X0559Y05302
X0551Y05452
X05398Y05486
X05372Y05464
X05352Y0549
X0532Y05526
X05316Y05466
X05316Y05498
X05302Y05366
X05274Y05388
X05158Y05278
X05138Y053
X05094Y0567
X05094Y05638
X05126Y0567
X05126Y05638
X05156Y05768
X05198Y0573
X05212Y05598
X05226Y05702
X05264Y0553
X05288Y0553
X05318Y05706
X053215Y0567
X05604Y05766
X05818Y05706
X05818Y05762
X0583Y0573
X05846Y05584
X05854Y05702
X0595Y05746
X0595Y05586
X0595Y0565
X0595Y05558
X0595Y05682
X0595Y05618
X0595Y05714
X05982Y05714
X05982Y05746
X05982Y05682
X05982Y05618
X05982Y05558
X05982Y0565
X05982Y05586
X06014Y05714
X06014Y0565
X06014Y05682
X06014Y05558
X06014Y05618
X06014Y05746
X06014Y05586
X0605Y05618
X0605Y05682
X0605Y05714
X0605Y0565
X0605Y05746
X0605Y05558
X0605Y05586
X06082Y05618
X06082Y05586
X06082Y05714
X06082Y05746
X06082Y05558
X06082Y0565
X06082Y05682
X06114Y05714
X06114Y05682
X06114Y05618
X06114Y05746
X06114Y0565
X06114Y05558
X06114Y05586
X06262Y05538
X0628Y05768
X06288Y05584
X06324Y05616
X06388Y05564
X06388Y05532
X06422Y05558
X06422Y05622
X06422Y05718
X06422Y0577
X06508Y05772
X06522Y05686
X06522Y05654
X0687Y05766
X06914Y05766
X07004Y05774
X07188Y05566
X07188Y0563
X07188Y05598
X0722Y05566
X0722Y05598
X0722Y0563
X07252Y0563
X07252Y05566
X07252Y05598
X0725Y05784
X0725Y05816
X0725Y05848
X07218Y05816
X07218Y05848
X07218Y05784
X07186Y05816
X07186Y05784
X07186Y05848
X07094Y05968
X07062Y05968
X07004Y05806
X07004Y05838
X06914Y0583
X06914Y05798
X06908Y05944
X06908Y05912
X06908Y0588
X0687Y05944
X0687Y05912
X0687Y0588
X0687Y0583
X0687Y05798
X06622Y06018
X0661Y05822
X06512Y058
X06452Y0584
X06354Y05922
X06312Y05832
X06298Y05894
X06264Y05882
X06254Y05822
X06254Y0585
X06198Y05854
X06198Y05822
X06112Y0598
X06024Y05914
X05866Y05846
X05866Y05814
X05514Y05846
X05494Y05898
X05462Y05898
X0544Y05868
X05156Y058
X05192Y06216
X05192Y06176
X05642Y06238
X05684Y06176
X05686Y06144
X05708Y0611
X05812Y06152
X05814Y06118
X05874Y0615
X05878Y06118
X06008Y0615
X0601Y06118
X06044Y06224
X06078Y0611
X06094Y06228
X06116Y06116
X06146Y06234
X06534Y0603
X06534Y0607
X06574Y0607
X06614Y0607
X06654Y0607
X06698Y0607
T2C.01772F095S3
X051004Y058263G85X050512Y058263
X051004Y054857G85X050512Y054857
X05265Y058263G85X052158Y058263
T3C.01772F095S3
X05265Y054857G85X052158Y054857
T4C.02362F197S55
X052212Y057697
X052212Y055422
T5C.02756F197S55
X05804Y06214
X058946Y06214
T6C.02953F197S55
X058292Y054745
T7C.035F197S55
X05262Y0621
X05362Y0621
X05462Y0621
X055197Y050729
X05562Y0621
X056197Y050729
X058472Y059445
T8C.037F197S55
X060895Y061562
X061895Y061562
T9C.04331F139S55
X05818Y0518
X05818Y0508
X0677Y06196
X0677Y06096
T10C.04528F139S55
X0669Y055029
X066957Y057284
T11C.06F089S55
X07316Y05774
X07316Y05697
X07316Y0562
X07316Y05543
X08589Y06308
X08512Y06308
X08435Y06308
X08358Y06308
X06273Y06304
X06196Y06304
X06119Y06304
X06042Y06304
X0732Y07025
X0732Y06948
X0732Y06871
X0732Y07102
X08585Y0764
X08508Y0764
X08431Y0764
X08354Y0764
X06269Y07636
X06192Y07636
X06115Y07636
X06038Y07636
X06038Y08984
X06115Y08984
X06192Y08984
X06269Y08984
X07316Y08235
X07316Y08466
X07316Y08389
X07316Y08312
X08354Y08988
X08431Y08988
X08508Y08988
X08585Y08988
X07312Y09559
X07312Y09713
X07312Y09636
X07312Y0979
X06058Y1032
X06135Y1032
X06212Y1032
X06289Y1032
X08374Y10324
X08451Y10324
X08528Y10324
X08605Y10324
X07312Y10895
X07312Y10972
X07312Y11049
X07312Y11126
T12C.07874F081S55
X05082Y05098
X05084Y06162
X072055Y061492
X072065Y051188
M30
