*
*
G04 PADS 9.5 Build Number: 522968 generated Gerber (RS-274-X) file*
G04 PC Version=2.1*
*
%IN "IP2368_DEMO_1.4.4.pcb"*%
*
%MOIN*%
*
%FSLAX35Y35*%
*
*
*
*
G04 PC Standard Apertures*
*
*
G04 Thermal Relief Aperture macro.*
%AMTER*
1,1,$1,0,0*
1,0,$1-$2,0,0*
21,0,$3,$4,0,0,45*
21,0,$3,$4,0,0,135*
%
*
*
G04 Annular Aperture macro.*
%AMANN*
1,1,$1,0,0*
1,0,$2,0,0*
%
*
*
G04 Odd Aperture macro.*
%AMODD*
1,1,$1,0,0*
1,0,$1-0.005,0,0*
%
*
*
G04 PC Custom Aperture Macros*
*
*
*
*
*
*
G04 PC Aperture Table*
*
%ADD010C,0.006*%
%ADD028R,0.03937X0.00984*%
%ADD049C,0.01*%
%ADD051C,0.008*%
%ADD052C,0.02*%
%ADD059C,0.001*%
%ADD085R,0.036X0.036*%
%ADD090C,0.015*%
%ADD117R,0.05906X0.05906*%
%ADD121R,0.09055X0.09055*%
%ADD129R,0.00984X0.03937*%
%ADD130R,0.03X0.035*%
%ADD132C,0.05906*%
%ADD133R,0.06X0.06*%
%ADD134R,0.035X0.03*%
%ADD140C,0.02362*%
%ADD149R,0.0315X0.0315*%
%ADD159C,0.07874*%
%ADD161C,0.04921*%
%ADD204R,0.05X0.04*%
%ADD205C,0.06*%
%ADD210R,0.05118X0.00984*%
%ADD211O,0.07874X0.03937*%
%ADD212R,0.02598X0.01575*%
%ADD213R,0.07087X0.07874*%
%ADD216R,0.08543X0.16535*%
%ADD227R,0.05512X0.01614*%
%ADD228R,0.09449X0.01614*%
%ADD231R,0.02362X0.01378*%
%ADD232R,0.02598X0.01378*%
%ADD233R,0.05906X0.07874*%
%ADD234R,0.036X0.05*%
%ADD239R,0.036X0.048*%
%ADD240R,0.11811X0.15748*%
*
*
*
*
G04 PC Circuitry*
G04 Layer Name IP2368_DEMO_1.4.4.pcb - circuitry*
%LPD*%
*
*
G04 PC Custom Flashes*
G04 Layer Name IP2368_DEMO_1.4.4.pcb - flashes*
%LPD*%
*
*
G04 PC Circuitry*
G04 Layer Name IP2368_DEMO_1.4.4.pcb - circuitry*
%LPD*%
*
G54D10*
G01X677000Y540200D02*
X679600Y537600D01*
Y534867*
X679609Y534857*
X527620Y566584D02*
X522647D01*
Y563800*
X523800Y562647*
X527620*
X519800Y573000D02*
Y564174D01*
X525408Y558566*
X527620*
Y558710*
X522600Y570200D02*
X522647Y566584D01*
X527620Y568553D02*
X531400D01*
X532153Y567800*
Y567000*
X527620Y564616D02*
Y564647D01*
X531400*
X532153Y565400*
Y567000*
X527620Y570521D02*
X527698Y570600D01*
X531800*
X581800D02*
X584200Y568200D01*
X589031*
X589184Y568353*
X585400Y570200D02*
X589184D01*
Y570321*
X583000Y573000D02*
X585400D01*
X586200Y572200*
X589094*
X589184Y572290*
X706650Y556600D02*
Y563650D01*
X706800Y563800*
X706050Y569900D02*
X706800Y569150D01*
Y563800*
X581800Y576200D02*
X583800D01*
X585800Y574200*
X589126*
X589184Y574258*
X608184Y594400D02*
Y607416D01*
X608368Y607600*
X611400*
X707050Y585000D02*
Y591000D01*
X713350Y585000D02*
X713750Y584600D01*
X713800*
X713350Y591000D02*
Y609800D01*
X718950Y615400*
X720075*
X720554Y614921*
X709800Y577900D02*
Y583400D01*
X711000Y584600*
X713800*
X523200Y600650D02*
X524800Y602250D01*
Y606400*
X526000Y607600*
X528124*
X520600Y600650D02*
X523200D01*
X528200Y607524D02*
X537200D01*
X528200Y600476D02*
X537000D01*
X537200Y607524D02*
X537000D01*
X546000*
X554800*
X546000Y600476D02*
X554800D01*
X604200Y607600D02*
X608184D01*
Y594400*
X699600Y609200D02*
X700200Y609800D01*
X701873*
X702112Y609639*
X699600Y609200D02*
Y592400D01*
X701000Y591000*
X707050*
G54D28*
X617373Y554573D03*
Y556542D03*
Y558510D03*
Y560479D03*
Y562447D03*
Y564416D03*
Y566384D03*
Y568353D03*
Y570321D03*
Y572290D03*
Y574258D03*
Y576227D03*
X589184D03*
Y574258D03*
Y572290D03*
Y570321D03*
Y568353D03*
Y566384D03*
Y564416D03*
Y562447D03*
Y560479D03*
Y558510D03*
Y556542D03*
Y554573D03*
G54D49*
X557549Y578800D02*
X556191D01*
X555598Y579393*
Y581144*
X556191Y581737*
X557549*
X558142Y581144*
Y579393*
X557549Y578800*
X555991Y579000D02*
X557749D01*
X555598Y580000D02*
X558142D01*
X555598Y581000D02*
X558142D01*
X556000Y578991D02*
Y581545D01*
X557000Y578800D02*
Y581737D01*
X558000Y579251D02*
Y581286D01*
X557549Y585848D02*
X556191D01*
X555598Y586441*
Y588192*
X556191Y588785*
X557549*
X558142Y588192*
Y586441*
X557549Y585848*
X556039Y586000D02*
X557701D01*
X555598Y587000D02*
X558142D01*
X555598Y588000D02*
X558142D01*
X556000Y586039D02*
Y588593D01*
X557000Y585848D02*
Y588785D01*
X558000Y586299D02*
Y588334D01*
X546679Y599008D02*
X545321D01*
X545321D02*
X544728Y599600D01*
Y601352*
X545321Y601944*
X545321D02*
X546679D01*
X546679D02*
X547272Y601352D01*
Y599600*
X546679Y599008*
X544728Y600000D02*
X547272D01*
X544728Y601000D02*
X547272D01*
X545000Y599329D02*
Y601623D01*
X546000Y599008D02*
Y601944D01*
X547000Y599329D02*
Y601623D01*
X546679Y606056D02*
X545321D01*
X545321D02*
X544728Y606648D01*
Y608400*
X545321Y608992*
X545321D02*
X546679D01*
X546679D02*
X547272Y608400D01*
Y606648*
X546679Y606056*
X544728Y607000D02*
X547272D01*
X544728Y608000D02*
X547272D01*
X545000Y606377D02*
Y608671D01*
X546000Y606056D02*
Y608992D01*
X547000Y606377D02*
Y608671D01*
X528879Y599008D02*
X527521D01*
X527521D02*
X526928Y599600D01*
Y601352*
X527521Y601944*
X527521D02*
X528879D01*
X528879D02*
X529472Y601352D01*
Y599600*
X528879Y599008*
X526928Y600000D02*
X529472D01*
X526928Y601000D02*
X529472D01*
X527000Y599529D02*
Y601423D01*
X528000Y599008D02*
Y601944D01*
X529000Y599129D02*
Y601823D01*
X528879Y606056D02*
X527521D01*
X527521D02*
X526928Y606648D01*
Y608400*
X527521Y608992*
X527521D02*
X528879D01*
X528879D02*
X529472Y608400D01*
Y606648*
X528879Y606056*
X526928Y607000D02*
X529472D01*
X526928Y608000D02*
X529472D01*
X527000Y606577D02*
Y608471D01*
X528000Y606056D02*
Y608992D01*
X529000Y606177D02*
Y608871D01*
X536321Y608992D02*
X537679D01*
X537679D02*
X538272Y608400D01*
Y606648*
X537679Y606056*
X537679D02*
X536321D01*
X536321D02*
X535728Y606648D01*
Y608400*
X536321Y608992*
X535728Y607000D02*
X538272D01*
X535728Y608000D02*
X538272D01*
X536000Y606377D02*
Y608671D01*
X537000Y606056D02*
Y608992D01*
X538000Y606377D02*
Y608671D01*
X536321Y601944D02*
X537679D01*
X537679D02*
X538272Y601352D01*
Y599600*
X537679Y599008*
X537679D02*
X536321D01*
X536321D02*
X535728Y599600D01*
Y601352*
X536321Y601944*
X535728Y600000D02*
X538272D01*
X535728Y601000D02*
X538272D01*
X536000Y599329D02*
Y601623D01*
X537000Y599008D02*
Y601944D01*
X538000Y599329D02*
Y601623D01*
X554121Y608992D02*
X555479D01*
X555479D02*
X556072Y608400D01*
Y606648*
X555479Y606056*
X555479D02*
X554121D01*
X554121D02*
X553528Y606648D01*
Y608400*
X554121Y608992*
X553528Y607000D02*
X556072D01*
X553528Y608000D02*
X556072D01*
X554000Y606177D02*
Y608871D01*
X555000Y606056D02*
Y608992D01*
X556000Y606577D02*
Y608471D01*
X554121Y601944D02*
X555479D01*
X555479D02*
X556072Y601352D01*
Y599600*
X555479Y599008*
X555479D02*
X554121D01*
X554121D02*
X553528Y599600D01*
Y601352*
X554121Y601944*
X553528Y600000D02*
X556072D01*
X553528Y601000D02*
X556072D01*
X554000Y599129D02*
Y601823D01*
X555000Y599008D02*
Y601944D01*
X556000Y599529D02*
Y601423D01*
X613047Y615616D02*
G75*
G03X613047I-4100J0D01*
G01X592083Y621400D02*
G03X592083I-2628J0D01*
G01X583028D02*
G03X583028I-2628J0D01*
G01X648500Y515014D02*
Y520386D01*
G03X648354Y520739I-500J-0*
G01X646939Y522154*
G03X646586Y522300I-353J-354*
G01X575593*
X570300Y527593*
Y553586*
G03X570154Y553939I-500J-0*
G01X568939Y555154*
G03X568586Y555300I-353J-354*
G01X563214*
G03X562861Y555154I0J-500*
G01X562246Y554539*
G03X562100Y554186I354J-353*
G01Y517014*
G03X562246Y516661I500J0*
G01X564861Y514046*
G03X565214Y513900I353J354*
G01X647386*
G03X647739Y514046I-0J500*
G01X648354Y514661*
G03X648500Y515014I-354J353*
G01X673100Y520814D02*
Y558386D01*
G03X672954Y558739I-500J-0*
G01X672539Y559154*
G03X672186Y559300I-353J-354*
G01X665414*
G03X665061Y559154I0J-500*
G01X664646Y558739*
G03X664500Y558386I354J-353*
G01Y521014*
G03X664646Y520661I500J0*
G01X665661Y519646*
G03X666014Y519500I353J354*
G01X671786*
G03X672139Y519646I-0J500*
G01X672954Y520461*
G03X673100Y520814I-354J353*
G01X673300Y564014D02*
Y600186D01*
G03X673154Y600539I-500J-0*
G01X672139Y601554*
G03X671786Y601700I-353J-354*
G01X666414*
G03X666061Y601554I0J-500*
G01X665046Y600539*
G03X664900Y600186I354J-353*
G01Y564214*
G03X665046Y563861I500J0*
G01X665661Y563246*
G03X666014Y563100I353J354*
G01X672386*
G03X672739Y563246I-0J500*
G01X673154Y563661*
G03X673300Y564014I-354J353*
G01X725900Y604014D02*
Y623786D01*
G03X725754Y624139I-500J-0*
G01X725539Y624354*
G03X725186Y624500I-353J-354*
G01X701414*
G03X701061Y624354I0J-500*
G01X700446Y623739*
G03X700300Y623386I354J-353*
G01Y614614*
G03X700446Y614261I500J0*
G01X701461Y613246*
G03X701814Y613100I353J354*
G01X704207*
X705100Y612207*
Y608193*
X704007Y607100*
X702000*
G03X701500Y606600I0J-500*
G01Y600800*
G03X702000Y600300I500J0*
G01X722186*
G03X722539Y600446I-0J500*
G01X725754Y603661*
G03X725900Y604014I-354J353*
G01X661225Y519489D02*
Y530186D01*
G03X661079Y530539I-500J-0*
G01X659664Y531954*
G03X659311Y532100I-353J-354*
G01X651193*
X646339Y536954*
G03X645986Y537100I-353J-354*
G01X636959*
X636192Y537311D02*
G03X636959Y537100I767J1289D01*
G01X636192Y537311D02*
G03X635937Y537381I-255J-430D01*
G01X634614*
G03X634261Y537235I0J-500*
G01X633646Y536621*
G03X633500Y536267I354J-354*
G01Y530214*
G03X633646Y529861I500J0*
G01X637261Y526246*
G03X637614Y526100I353J354*
G01X647407*
X650600Y522907*
Y520214*
G03X650746Y519861I500J0*
G01X651611Y518996*
G03X651964Y518850I353J354*
G01X660586*
G03X660939Y518996I-0J500*
G01X661079Y519136*
G03X661225Y519489I-354J353*
G01X661100Y585614D02*
Y596186D01*
G03X660954Y596539I-500J-0*
G01X659539Y597954*
G03X659186Y598100I-353J-354*
G01X652193*
X651543Y598750*
G03X651398Y598850I-353J-354*
G01X650857Y599392D02*
G03X651398Y598850I1000J458D01*
G01X650857Y599392D02*
G03X650756Y599537I-455J-208D01*
G01X650300Y599993*
Y605386*
G03X650154Y605739I-500J-0*
G01X648339Y607554*
G03X647986Y607700I-353J-354*
G01X634814*
G03X634461Y607554I0J-500*
G01X633246Y606339*
G03X633100Y605986I354J-353*
G01Y598614*
G03X633246Y598261I500J0*
G01X633526Y597981*
X633527D02*
G03X633880Y597834I353J353D01*
G01X636754*
X637854Y596734D02*
G03X636754Y597834I-1100J0D01*
G01X637854Y596734D02*
Y594000D01*
G03X638354Y593500I500J0*
G01X638805*
G03X639305Y594000I-0J500*
G01Y596734*
X640405Y597834D02*
G03X639305Y596734I-0J-1100D01*
G01X640405Y597834D02*
X643554D01*
X644654Y596734D02*
G03X643554Y597834I-1100J0D01*
G01X644654Y596734D02*
Y594813D01*
G03X644801Y594459I500J-0*
G01X645615Y593645*
X646054Y592585D02*
G03X645615Y593645I-1500J-0D01*
G01X646054Y592585D02*
Y591660D01*
G03X646201Y591306I500J-0*
G01X646300Y591207*
Y589383*
G03X646446Y589029I500J-0*
G01X650629Y584846*
G03X650983Y584700I354J354*
G01X660186*
G03X660539Y584846I-0J500*
G01X660954Y585261*
G03X661100Y585614I-354J353*
G01X697700Y601214D02*
Y622586D01*
G03X697554Y622939I-500J-0*
G01X695939Y624554*
G03X695586Y624700I-353J-354*
G01X634814*
G03X634461Y624554I0J-500*
G01X633646Y623739*
G03X633500Y623386I354J-353*
G01Y616214*
G03X633646Y615861I500J0*
G01X634261Y615246*
G03X634614Y615100I353J354*
G01X686407*
X688900Y612607*
Y602014*
G03X689046Y601661I500J0*
G01X690261Y600446*
G03X690614Y600300I353J354*
G01X696786*
G03X697139Y600446I-0J500*
G01X697554Y600861*
G03X697700Y601214I-354J353*
G01X558900Y535277D02*
Y555986D01*
G03X558754Y556339I-500J-0*
G01X550900Y564193*
Y580986*
G03X550754Y581339I-500J-0*
G01X549939Y582154*
G03X549586Y582300I-353J-354*
G01X542993*
X531539Y593754*
G03X531186Y593900I-353J-354*
G01X518993*
X515300Y597593*
Y624400*
G03X514800Y624900I-500J0*
G01X502200*
G03X501700Y624400I0J-500*
G01Y586014*
G03X501846Y585661I500J0*
G01X502061Y585446*
G03X502414Y585300I353J354*
G01X503978*
G03X504207Y585355I-0J500*
G01X505612Y585696D02*
G03X504207Y585355I-0J-3068D01*
G01X505612Y585696D02*
X509549D01*
X510954Y585355D02*
G03X509549Y585696I-1405J-2727D01*
G01X510954Y585355D02*
G03X511183Y585300I229J445D01*
G01X520434*
G03X520663Y585355I0J500*
G01X522069Y585696D02*
G03X520663Y585355I-0J-3068D01*
G01X522069Y585696D02*
X526006D01*
X527411Y585355D02*
G03X526006Y585696I-1405J-2727D01*
G01X527411Y585355D02*
G03X527640Y585300I229J445D01*
G01X527807*
X531300Y581807*
Y576393*
X530607Y575700*
X525814*
G03X525461Y575554I0J-500*
G01X525446Y575539*
G03X525300Y575186I354J-353*
G01Y574800*
G03X525800Y574300I500J0*
G01X530607*
X531500Y573407*
Y573192*
G03X531962Y572694I500J0*
G01X533444Y569293D02*
G03X531962Y572694I-1644J1307D01*
G01X533444Y569293D02*
G03X533512Y568601I391J-311D01*
G01X533680Y565559D02*
G03X533512Y568601I-1527J1441D01*
G01X533680Y565559D02*
G03X533546Y565264I364J-343D01*
G01X533143Y564410D02*
G03X533546Y565264I-990J990D01*
G01X533143Y564410D02*
X532390Y563657D01*
X531842Y563319D02*
G03X532390Y563657I-442J1328D01*
G01X531842Y563319D02*
G03X531500Y562844I158J-475D01*
G01Y557793*
X530407Y556700*
X526000*
G03X525500Y556200I0J-500*
G01Y556014*
G03X525646Y555661I500J0*
G01X525661Y555646*
G03X526014Y555500I353J354*
G01X543207*
X545215Y553492*
G03X545569Y553346I354J354*
G01X546604*
X547704Y552246D02*
G03X546604Y553346I-1100J-0D01*
G01X547704Y552246D02*
Y551210D01*
G03X547850Y550857I500J0*
G01X548861Y549846*
G03X549214Y549700I353J354*
G01X555900*
Y535277*
G03X556400Y534777I500J0*
G01X558400*
G03X558900Y535277I0J500*
G01X726700Y502200D02*
Y601137D01*
G03X725846Y601491I-500J0*
G01X723524Y599169*
X722393Y598700D02*
G03X723524Y599169I-0J1600D01*
G01X722393Y598700D02*
X715250D01*
G03X714750Y598200I-0J-500*
G01Y594141*
G03X715148Y593652I500J0*
G01X716024Y592575D02*
G03X715148Y593652I-1100J-0D01*
G01X716024Y592575D02*
Y589425D01*
X715424Y588445D02*
G03X716024Y589425I-500J980D01*
G01X715424Y588445D02*
G03Y587555I228J-445D01*
G01X716024Y586575D02*
G03X715424Y587555I-1100J-0D01*
G01X716024Y586575D02*
Y583425D01*
X714924Y582325D02*
G03X716024Y583425I0J1100D01*
G01X714924Y582325D02*
X712327D01*
G03X712100Y581380I0J-500*
G01X712700Y580400D02*
G03X712100Y581380I-1100J0D01*
G01X712700Y580400D02*
Y575400D01*
X711600Y574300D02*
G03X712700Y575400I0J1100D01*
G01X711600Y574300D02*
X708000D01*
X706900Y575400D02*
G03X708000Y574300I1100J0D01*
G01X706900Y575400D02*
Y580400D01*
X707500Y581380D02*
G03X706900Y580400I500J-980D01*
G01X707500Y581380D02*
G03X707273Y582325I-227J445D01*
G01X705476*
X704376Y583425D02*
G03X705476Y582325I1100J0D01*
G01X704376Y583425D02*
Y586575D01*
X704976Y587555D02*
G03X704376Y586575I500J-980D01*
G01X704976Y587555D02*
G03Y588445I-228J445D01*
G01X704399Y589202D02*
G03X704976Y588445I1077J223D01*
G01X704399Y589202D02*
G03X703909Y589600I-490J-102D01*
G01X701000*
X700010Y590010D02*
G03X701000Y589600I990J990D01*
G01X700010Y590010D02*
X698610Y591410D01*
X698200Y592400D02*
G03X698610Y591410I1400J0D01*
G01X698200Y592400D02*
Y598323D01*
G03X697532Y598793I-500J-0*
G01X697317Y598733D02*
G03X697532Y598793I-324J1567D01*
G01X697317Y598733D02*
G03X696919Y598244I102J-489D01*
G01Y561460*
G03X697065Y561106I500J-0*
G01X703122Y555050*
G03X703976Y555403I354J353*
G01Y558175*
X704852Y559252D02*
G03X703976Y558175I224J-1077D01*
G01X704852Y559252D02*
G03X705250Y559741I-102J489D01*
G01Y560728*
G03X704844Y561219I-500J0*
G01X703950Y562300D02*
G03X704844Y561219I1100J0D01*
G01X703950Y562300D02*
Y565300D01*
X704336Y566137D02*
G03X703950Y565300I714J-837D01*
G01X704336Y566137D02*
G03X704086Y567012I-324J381D01*
G01X703150Y568100D02*
G03X704086Y567012I1100J0D01*
G01X703150Y568100D02*
Y571700D01*
X704250Y572800D02*
G03X703150Y571700I0J-1100D01*
G01X704250Y572800D02*
X707850D01*
X708950Y571700D02*
G03X707850Y572800I-1100J0D01*
G01X708950Y571700D02*
Y568100D01*
X708552Y567253D02*
G03X708950Y568100I-702J847D01*
G01X708552Y567253D02*
G03X708770Y566378I318J-385D01*
G01X709650Y565300D02*
G03X708770Y566378I-1100J0D01*
G01X709650Y565300D02*
Y562300D01*
X708550Y561200D02*
G03X709650Y562300I0J1100D01*
G01X708550Y561200D02*
G03X708050Y560700I0J-500D01*
G01Y559741*
G03X708449Y559252I500J0*
G01X709325Y558175D02*
G03X708449Y559252I-1100J-0D01*
G01X709325Y558175D02*
Y555025D01*
X708518Y553965D02*
G03X709325Y555025I-293J1060D01*
G01X708518Y553965D02*
G03X708150Y553483I132J-482D01*
G01Y517842*
X707711Y516781D02*
G03X708150Y517842I-1061J1061D01*
G01X707711Y516781D02*
X693483Y502554D01*
G03X693837Y501700I354J-354*
G01X726200*
G03X726700Y502200I-0J500*
G01X711950Y594141D02*
Y598200D01*
G03X711450Y598700I-500J-0*
G01X701500*
G03X701000Y598200I0J-500*
G01Y593187*
G03X701146Y592833I500J0*
G01X701433Y592546*
G03X701787Y592400I354J354*
G01X703909*
G03X704399Y592798I-0J500*
G01X705476Y593675D02*
G03X704399Y592798I-0J-1100D01*
G01X705476Y593675D02*
X708625D01*
X709708Y592769D02*
G03X708625Y593675I-1083J-194D01*
G01X709708Y592769D02*
G03X710692I492J89D01*
G01X711551Y593652D02*
G03X710692Y592769I224J-1077D01*
G01X711551Y593652D02*
G03X711950Y594141I-101J489D01*
G01X631120Y558419D02*
Y558528D01*
G03X630620Y559028I-500J0*
G01X630394*
X629349Y559785D02*
G03X630394Y559028I1045J343D01*
G01X629349Y559785D02*
G03X628874Y560128I-475J-157D01*
G01X626029*
G03X625675Y559275I-0J-500*
G01X629375Y555575*
G03X630229Y555928I354J353*
G01Y556984*
X630842Y557970D02*
G03X630229Y556984I487J-986D01*
G01X630842Y557970D02*
G03X631120Y558419I-222J449D01*
G01X630500Y577280D02*
Y577542D01*
G03X630064Y578038I-500J0*
G01X629109Y579042D02*
G03X630064Y578038I1097J87D01*
G01X629109Y579042D02*
G03X628257Y579356I-498J-39D01*
G01X623545Y574643*
G03X623898Y573790I353J-353*
G01X625772*
G03X626125Y573936I-0J500*
G01X627450Y575261*
X628510Y575700D02*
G03X627450Y575261I0J-1500D01*
G01X628510Y575700D02*
X628730D01*
G03X629205Y576044I0J500*
G01X630078Y576787D02*
G03X629205Y576044I172J-1087D01*
G01X630078Y576787D02*
G03X630500Y577280I-78J493D01*
G01X633069Y591396D02*
G03X633321Y591903I-243J437D01*
G01X633300Y592200D02*
G03X633321Y591903I2100J0D01*
G01X633300Y592200D02*
Y592202D01*
G03X633051Y592634I-500J-0*
G01X632830Y592804D02*
G03X633051Y592634I775J781D01*
G01X632830Y592804D02*
G03X632124Y592803I-353J-355D01*
G01X630461Y591139*
X629400Y590700D02*
G03X630461Y591139I0J1500D01*
G01X629400Y590700D02*
X626628D01*
G03X626275Y590554I0J-500*
G01X624646Y588925*
G03X624500Y588572I354J-353*
G01Y581049*
G03X625354Y580695I500J-0*
G01X625754Y581095*
G03X625900Y581449I-354J354*
G01Y586228*
X626339Y587289D02*
G03X625900Y586228I1061J-1061D01*
G01X626339Y587289D02*
X627511Y588461D01*
X628572Y588900D02*
G03X627511Y588461I-0J-1500D01*
G01X628572Y588900D02*
X630058D01*
G03X630412Y589046I0J500*
G01X631286Y589921*
X632129Y590344D02*
G03X631286Y589921I218J-1484D01*
G01X632129Y590344D02*
G03X632540Y590713I-73J495D01*
G01X633069Y591396D02*
G03X632540Y590713I536J-961D01*
G01X625324Y593623D02*
G03X625247Y594590I-158J474D01*
G01X624365Y595383D02*
G03X625247Y594590I1060J293D01*
G01X624365Y595383D02*
G03X623883Y595750I-482J-133D01*
G01X623688*
G03X623191Y595313I-0J-500*
G01X622444Y594405D02*
G03X623191Y595313I-344J1045D01*
G01X622444Y594405D02*
G03X622100Y593930I156J-475D01*
G01Y593000*
X621661Y591939D02*
G03X622100Y593000I-1061J1061D01*
G01X621661Y591939D02*
X615673Y585952D01*
G03X615527Y585598I354J-354*
G01Y582077*
G03X615556Y581910I500J-0*
G01X615619Y581542D02*
G03X615556Y581910I-1100J-0D01*
G01X615619Y581542D02*
Y578319D01*
G03X616119Y577819I500J-0*
G01X619342*
X619710Y577756D02*
G03X619342Y577819I-368J-1037D01*
G01X619710Y577756D02*
G03X619877Y577727I167J471D01*
G01X620198*
G03X620552Y577873I0J500*
G01X621354Y578675*
G03X621500Y579028I-354J353*
G01Y589400*
X621939Y590461D02*
G03X621500Y589400I1061J-1061D01*
G01X621939Y590461D02*
X624739Y593261D01*
X625324Y593623D02*
G03X624739Y593261I476J-1423D01*
G01X614675Y523900D02*
G03X615029Y524754I0J500D01*
G01X613928Y525855*
G03X613574Y526001I-354J-354*
G01X611798*
X610697Y527101D02*
G03X611798Y526001I1101J0D01*
G01X610697Y527101D02*
Y530101D01*
X611696Y531197D02*
G03X610697Y530101I102J-1096D01*
G01X611696Y531197D02*
G03X612150Y531694I-46J497D01*
G01Y533738*
G03X611260Y534051I-500J0*
G01X611150Y533929D02*
G03X611260Y534051I-1060J1061D01*
G01X611150Y533929D02*
X609561Y532339D01*
X608500Y531900D02*
G03X609561Y532339I0J1500D01*
G01X608500Y531900D02*
X573800D01*
X572750Y532329D02*
G03X573800Y531900I1050J1071D01*
G01X572750Y532329D02*
G03X571900Y531972I-350J-357D01*
G01Y528463*
G03X572046Y528109I500J-0*
G01X576109Y524046*
G03X576463Y523900I354J354*
G01X614675*
X614358Y575089D02*
G03Y575396I-476J154D01*
G01X614305Y575735D02*
G03X614358Y575396I1100J-0D01*
G01X614305Y575735D02*
Y576005D01*
G03X613805Y576505I-500J-0*
G01X613535*
X613196Y576558D02*
G03X613535Y576505I339J1047D01*
G01X613196Y576558D02*
G03X612889I-153J-476D01*
G01X612550Y576505D02*
G03X612889Y576558I0J1100D01*
G01X612550Y576505D02*
X611566D01*
X611228Y576558D02*
G03X611566Y576505I338J1047D01*
G01X611228Y576558D02*
G03X610920I-154J-476D01*
G01X610582Y576505D02*
G03X610920Y576558I-0J1100D01*
G01X610582Y576505D02*
X609598D01*
X609259Y576558D02*
G03X609598Y576505I339J1047D01*
G01X609259Y576558D02*
G03X608952I-153J-476D01*
G01X608613Y576505D02*
G03X608952Y576558I0J1100D01*
G01X608613Y576505D02*
X607629D01*
X607291Y576558D02*
G03X607629Y576505I338J1047D01*
G01X607291Y576558D02*
G03X606983I-154J-476D01*
G01X606645Y576505D02*
G03X606983Y576558I-0J1100D01*
G01X606645Y576505D02*
X605661D01*
X604646Y577181D02*
G03X605661Y576505I1015J424D01*
G01X604646Y577181D02*
G03X603723I-462J-193D01*
G01X602708Y576505D02*
G03X603723Y577181I-0J1100D01*
G01X602708Y576505D02*
X601724D01*
X601385Y576558D02*
G03X601724Y576505I339J1047D01*
G01X601385Y576558D02*
G03X601078I-154J-476D01*
G01X600739Y576505D02*
G03X601078Y576558I0J1100D01*
G01X600739Y576505D02*
X599755D01*
X599417Y576558D02*
G03X599755Y576505I338J1047D01*
G01X599417Y576558D02*
G03X599109I-154J-476D01*
G01X598771Y576505D02*
G03X599109Y576558I-0J1100D01*
G01X598771Y576505D02*
X597787D01*
X597448Y576558D02*
G03X597787Y576505I339J1047D01*
G01X597448Y576558D02*
G03X597141I-154J-476D01*
G01X596802Y576505D02*
G03X597141Y576558I0J1100D01*
G01X596802Y576505D02*
X595818D01*
X595480Y576558D02*
G03X595818Y576505I338J1047D01*
G01X595480Y576558D02*
G03X595172I-154J-476D01*
G01X594834Y576505D02*
G03X595172Y576558I-0J1100D01*
G01X594834Y576505D02*
X593850D01*
X593511Y576558D02*
G03X593850Y576505I339J1047D01*
G01X593511Y576558D02*
G03X593204I-154J-476D01*
G01X592865Y576505D02*
G03X593204Y576558I0J1100D01*
G01X592865Y576505D02*
X592753D01*
G03X592253Y576005I-0J-500*
G01Y575735*
X592199Y575396D02*
G03X592253Y575735I-1046J339D01*
G01X592199Y575396D02*
G03Y575089I476J-153D01*
G01X592253Y574750D02*
G03X592199Y575089I-1100J0D01*
G01X592253Y574750D02*
Y573766D01*
X592199Y573428D02*
G03X592253Y573766I-1046J338D01*
G01X592199Y573428D02*
G03Y573120I476J-154D01*
G01X592253Y572782D02*
G03X592199Y573120I-1100J-0D01*
G01X592253Y572782D02*
Y571798D01*
X592199Y571459D02*
G03X592253Y571798I-1046J339D01*
G01X592199Y571459D02*
G03Y571152I476J-153D01*
G01X592253Y570813D02*
G03X592199Y571152I-1100J0D01*
G01X592253Y570813D02*
Y569829D01*
X592199Y569491D02*
G03X592253Y569829I-1046J338D01*
G01X592199Y569491D02*
G03Y569183I476J-154D01*
G01X592253Y568845D02*
G03X592199Y569183I-1100J-0D01*
G01X592253Y568845D02*
Y567861D01*
X592199Y567522D02*
G03X592253Y567861I-1046J339D01*
G01X592199Y567522D02*
G03Y567215I476J-153D01*
G01X592253Y566876D02*
G03X592199Y567215I-1100J0D01*
G01X592253Y566876D02*
Y565892D01*
X592199Y565554D02*
G03X592253Y565892I-1046J338D01*
G01X592199Y565554D02*
G03Y565246I476J-154D01*
G01X592253Y564908D02*
G03X592199Y565246I-1100J-0D01*
G01X592253Y564908D02*
Y563924D01*
X592199Y563585D02*
G03X592253Y563924I-1046J339D01*
G01X592199Y563585D02*
G03Y563278I476J-154D01*
G01X592253Y562939D02*
G03X592199Y563278I-1100J0D01*
G01X592253Y562939D02*
Y561955D01*
X592199Y561617D02*
G03X592253Y561955I-1046J338D01*
G01X592199Y561617D02*
G03Y561309I476J-154D01*
G01X592253Y560971D02*
G03X592199Y561309I-1100J-0D01*
G01X592253Y560971D02*
Y559987D01*
X592199Y559648D02*
G03X592253Y559987I-1046J339D01*
G01X592199Y559648D02*
G03Y559341I476J-154D01*
G01X592253Y559002D02*
G03X592199Y559341I-1100J0D01*
G01X592253Y559002D02*
Y558018D01*
X592199Y557680D02*
G03X592253Y558018I-1046J338D01*
G01X592199Y557680D02*
G03Y557372I476J-154D01*
G01X592253Y557034D02*
G03X592199Y557372I-1100J-0D01*
G01X592253Y557034D02*
Y556050D01*
X592199Y555711D02*
G03X592253Y556050I-1046J339D01*
G01X592199Y555711D02*
G03Y555404I476J-154D01*
G01X592253Y555065D02*
G03X592199Y555404I-1100J0D01*
G01X592253Y555065D02*
Y554795D01*
G03X592753Y554295I500J0*
G01X592865*
X593204Y554242D02*
G03X592865Y554295I-339J-1047D01*
G01X593204Y554242D02*
G03X593511I153J476D01*
G01X593850Y554295D02*
G03X593511Y554242I-0J-1100D01*
G01X593850Y554295D02*
X594834D01*
X595172Y554242D02*
G03X594834Y554295I-338J-1047D01*
G01X595172Y554242D02*
G03X595480I154J476D01*
G01X595818Y554295D02*
G03X595480Y554242I0J-1100D01*
G01X595818Y554295D02*
X596802D01*
X597141Y554242D02*
G03X596802Y554295I-339J-1047D01*
G01X597141Y554242D02*
G03X597448I153J476D01*
G01X597787Y554295D02*
G03X597448Y554242I-0J-1100D01*
G01X597787Y554295D02*
X598771D01*
X599109Y554242D02*
G03X598771Y554295I-338J-1047D01*
G01X599109Y554242D02*
G03X599417I154J476D01*
G01X599755Y554295D02*
G03X599417Y554242I0J-1100D01*
G01X599755Y554295D02*
X600739D01*
X601078Y554242D02*
G03X600739Y554295I-339J-1047D01*
G01X601078Y554242D02*
G03X601385I153J476D01*
G01X601724Y554295D02*
G03X601385Y554242I-0J-1100D01*
G01X601724Y554295D02*
X602708D01*
X603046Y554242D02*
G03X602708Y554295I-338J-1047D01*
G01X603046Y554242D02*
G03X603354I154J476D01*
G01X603692Y554295D02*
G03X603354Y554242I0J-1100D01*
G01X603692Y554295D02*
X604676D01*
X605015Y554242D02*
G03X604676Y554295I-339J-1047D01*
G01X605015Y554242D02*
G03X605322I154J476D01*
G01X605661Y554295D02*
G03X605322Y554242I-0J-1100D01*
G01X605661Y554295D02*
X606645D01*
X606983Y554242D02*
G03X606645Y554295I-338J-1047D01*
G01X606983Y554242D02*
G03X607291I154J476D01*
G01X607629Y554295D02*
G03X607291Y554242I0J-1100D01*
G01X607629Y554295D02*
X608613D01*
X608952Y554242D02*
G03X608613Y554295I-339J-1047D01*
G01X608952Y554242D02*
G03X609259I154J476D01*
G01X609598Y554295D02*
G03X609259Y554242I-0J-1100D01*
G01X609598Y554295D02*
X610582D01*
X611597Y553619D02*
G03X610582Y554295I-1015J-424D01*
G01X611597Y553619D02*
G03X612520I461J193D01*
G01X613535Y554295D02*
G03X612520Y553619I-0J-1100D01*
G01X613535Y554295D02*
X613805D01*
G03X614305Y554795I-0J500*
G01Y555065*
X614358Y555404D02*
G03X614305Y555065I1047J-339D01*
G01X614358Y555404D02*
G03Y555711I-476J153D01*
G01X614305Y556050D02*
G03X614358Y555711I1100J-0D01*
G01X614305Y556050D02*
Y557034D01*
X614358Y557372D02*
G03X614305Y557034I1047J-338D01*
G01X614358Y557372D02*
G03Y557680I-476J154D01*
G01X614305Y558018D02*
G03X614358Y557680I1100J0D01*
G01X614305Y558018D02*
Y559002D01*
X614358Y559341D02*
G03X614305Y559002I1047J-339D01*
G01X614358Y559341D02*
G03Y559648I-476J153D01*
G01X614305Y559987D02*
G03X614358Y559648I1100J-0D01*
G01X614305Y559987D02*
Y560971D01*
X614358Y561309D02*
G03X614305Y560971I1047J-338D01*
G01X614358Y561309D02*
G03Y561617I-476J154D01*
G01X614305Y561955D02*
G03X614358Y561617I1100J0D01*
G01X614305Y561955D02*
Y562939D01*
X614358Y563278D02*
G03X614305Y562939I1047J-339D01*
G01X614358Y563278D02*
G03Y563585I-476J153D01*
G01X614305Y563924D02*
G03X614358Y563585I1100J-0D01*
G01X614305Y563924D02*
Y564908D01*
X614358Y565246D02*
G03X614305Y564908I1047J-338D01*
G01X614358Y565246D02*
G03Y565554I-476J154D01*
G01X614305Y565892D02*
G03X614358Y565554I1100J0D01*
G01X614305Y565892D02*
Y566876D01*
X614358Y567215D02*
G03X614305Y566876I1047J-339D01*
G01X614358Y567215D02*
G03Y567522I-476J154D01*
G01X614305Y567861D02*
G03X614358Y567522I1100J-0D01*
G01X614305Y567861D02*
Y568845D01*
X614358Y569183D02*
G03X614305Y568845I1047J-338D01*
G01X614358Y569183D02*
G03Y569491I-476J154D01*
G01X614305Y569829D02*
G03X614358Y569491I1100J0D01*
G01X614305Y569829D02*
Y570813D01*
X614358Y571152D02*
G03X614305Y570813I1047J-339D01*
G01X614358Y571152D02*
G03Y571459I-476J154D01*
G01X614305Y571798D02*
G03X614358Y571459I1100J-0D01*
G01X614305Y571798D02*
Y572782D01*
X614358Y573120D02*
G03X614305Y572782I1047J-338D01*
G01X614358Y573120D02*
G03Y573428I-476J154D01*
G01X614305Y573766D02*
G03X614358Y573428I1100J0D01*
G01X614305Y573766D02*
Y574750D01*
X614358Y575089D02*
G03X614305Y574750I1047J-339D01*
G01X632302Y624653D02*
G03X631927Y625484I-375J331D01*
G01X550461*
G03X550067Y624677I0J-500*
G01X550300Y624000D02*
G03X550067Y624677I-1100J0D01*
G01X550300Y624000D02*
Y618000D01*
X550291Y617863D02*
G03X550300Y618000I-1091J137D01*
G01X550291Y617863D02*
G03X550787Y617300I496J-63D01*
G01X559800*
X560861Y616861D02*
G03X559800Y617300I-1061J-1061D01*
G01X560861Y616861D02*
X563261Y614461D01*
X563700Y613400D02*
G03X563261Y614461I-1500J0D01*
G01X563700Y613400D02*
Y604947D01*
G03X564231Y604448I500J-0*
G01X564300Y604450D02*
G03X564231Y604448I0J-1100D01*
G01X564300Y604450D02*
X567300D01*
X568353Y603668D02*
G03X567300Y604450I-1053J-318D01*
G01X568353Y603668D02*
G03X569267Y603566I479J144D01*
G01X570225Y604125D02*
G03X569267Y603566I0J-1100D01*
G01X570225Y604125D02*
X573375D01*
X574475Y603025D02*
G03X573375Y604125I-1100J0D01*
G01X574475Y603025D02*
Y599876D01*
X573758Y598844D02*
G03X574475Y599876I-383J1032D01*
G01X573758Y598844D02*
G03X573432Y598376I174J-468D01*
G01Y594097*
G03X573578Y593743I500J-0*
G01X576020Y591302*
G03X576873Y591655I353J353*
G01Y598096*
G03X576452Y598589I-500J-0*
G01X575525Y599676D02*
G03X576452Y598589I1100J-0D01*
G01X575525Y599676D02*
Y602825D01*
X576625Y603925D02*
G03X575525Y602825I0J-1100D01*
G01X576625Y603925D02*
X579775D01*
X580875Y602825D02*
G03X579775Y603925I-1100J0D01*
G01X580875Y602825D02*
Y599676D01*
X580759Y599184D02*
G03X580875Y599676I-984J492D01*
G01X580759Y599184D02*
G03X581367Y598488I447J-223D01*
G01X581609Y598540D02*
G03X581367Y598488I112J-1094D01*
G01X581609Y598540D02*
G03X582016Y599237I-51J498D01*
G01X581925Y599676D02*
G03X582016Y599237I1100J-0D01*
G01X581925Y599676D02*
Y602825D01*
X583025Y603925D02*
G03X581925Y602825I0J-1100D01*
G01X583025Y603925D02*
X586175D01*
X587275Y602825D02*
G03X586175Y603925I-1100J0D01*
G01X587275Y602825D02*
Y599676D01*
X587186Y599243D02*
G03X587275Y599676I-1011J433D01*
G01X587186Y599243D02*
G03X587646Y598546I460J-197D01*
G01X587721*
X587887Y598533D02*
G03X587721Y598546I-166J-1087D01*
G01X587887Y598533D02*
G03X588419Y599230I75J495D01*
G01X588325Y599676D02*
G03X588419Y599230I1100J-0D01*
G01X588325Y599676D02*
Y602825D01*
X589425Y603925D02*
G03X588325Y602825I0J-1100D01*
G01X589425Y603925D02*
X592575D01*
X593675Y602825D02*
G03X592575Y603925I-1100J0D01*
G01X593675Y602825D02*
Y599676D01*
X593313Y598860D02*
G03X593675Y599676I-738J816D01*
G01X593313Y598860D02*
G03X593295Y598136I336J-370D01*
G01X595925Y595506*
G03X596779Y595860I354J354*
G01Y596972*
G03X596632Y597325I-500J-0*
G01X596339Y597618*
X595961Y598254D02*
G03X596339Y597618I1439J425D01*
G01X595961Y598254D02*
G03X595589Y598601I-479J-141D01*
G01X594725Y599676D02*
G03X595589Y598601I1100J-0D01*
G01X594725Y599676D02*
Y602825D01*
X595825Y603925D02*
G03X594725Y602825I0J-1100D01*
G01X595825Y603925D02*
X598975D01*
X600075Y602825D02*
G03X598975Y603925I-1100J0D01*
G01X600075Y602825D02*
Y599676D01*
X599767Y598912D02*
G03X600075Y599676I-792J764D01*
G01X599767Y598912D02*
G03X599665Y598374I360J-347D01*
G01X599779Y597800D02*
G03X599665Y598374I-1500J0D01*
G01X599779Y597800D02*
Y595060D01*
G03X600632Y594706I500J-0*
G01X602154Y596228*
G03X602300Y596581I-354J353*
G01Y598527*
G03X602081Y598941I-500J0*
G01X601600Y599850D02*
G03X602081Y598941I1100J0D01*
G01X601600Y599850D02*
Y603350D01*
X602700Y604450D02*
G03X601600Y603350I0J-1100D01*
G01X602700Y604450D02*
X605700D01*
X606800Y603350D02*
G03X605700Y604450I-1100J0D01*
G01X606800Y603350D02*
Y599850D01*
X605769Y598752D02*
G03X606800Y599850I-69J1098D01*
G01X605769Y598752D02*
G03X605300Y598253I31J-499D01*
G01Y595753*
X604861Y594692D02*
G03X605300Y595753I-1061J1061D01*
G01X604861Y594692D02*
X603822Y593653D01*
G03X603834Y592934I353J-353*
G01X603867Y589897D02*
G03X603834Y592934I-1467J1503D01*
G01X603867Y589897D02*
G03X603716Y589539I349J-358D01*
G01Y587928*
G03X604700Y587804I500J0*
G01X605092Y588491D02*
G03X604700Y587804I1061J-1061D01*
G01X605092Y588491D02*
X609754Y593152D01*
G03X609900Y593506I-354J354*
G01Y596124*
G03X609746Y596485I-500J-0*
G01X609195Y598624D02*
G03X609746Y596485I2005J-624D01*
G01X609195Y598624D02*
G03X609087Y599109I-478J148D01*
G01X608800Y599850D02*
G03X609087Y599109I1100J0D01*
G01X608800Y599850D02*
Y603350D01*
X609900Y604450D02*
G03X608800Y603350I0J-1100D01*
G01X609900Y604450D02*
X612510D01*
G03X613010Y604950I0J500*
G01Y605377*
X613552Y606685D02*
G03X613010Y605377I1308J-1308D01*
G01X613552Y606685D02*
X627125Y620258D01*
X628433Y620800D02*
G03X627125Y620258I0J-1850D01*
G01X628433Y620800D02*
X631400D01*
G03X631900Y621300I-0J500*
G01Y623593*
X632302Y624653D02*
G03X631900Y623593I1198J-1060D01*
G01X529700Y577800D02*
Y580937D01*
G03X529554Y581291I-500J0*
G01X527291Y583554*
G03X526937Y583700I-354J-354*
G01X502207*
X502202*
G03X501700Y583200I-2J-500*
G01Y536699*
G03X502591Y536387I500J-0*
G01X503450Y536800D02*
G03X502591Y536387I0J-1100D01*
G01X503450Y536800D02*
X507050D01*
X508150Y535700D02*
G03X507050Y536800I-1100J0D01*
G01X508150Y535700D02*
Y532100D01*
X507566Y531128D02*
G03X508150Y532100I-516J972D01*
G01X507566Y531128D02*
G03X507300Y530687I234J-441D01*
G01Y528480*
G03X507722Y527987I500J0*
G01X508650Y526900D02*
G03X507722Y527987I-1100J0D01*
G01X508650Y526900D02*
Y523900D01*
X508631Y523694D02*
G03X508650Y523900I-1081J206D01*
G01X508631Y523694D02*
G03X509122Y523100I491J-94D01*
G01X516000*
X517061Y522661D02*
G03X516000Y523100I-1061J-1061D01*
G01X517061Y522661D02*
Y522660D01*
G03X517915Y523014I354J354*
G01Y523151*
X518877Y524243D02*
G03X517915Y523151I138J-1092D01*
G01X518877Y524243D02*
G03X519315Y524739I-62J496D01*
G01Y530888*
G03X519168Y531242I-500J0*
G01X512009Y538401*
G03X511388Y538470I-354J-353*
G01X510800Y538300D02*
G03X511388Y538470I0J1100D01*
G01X510800Y538300D02*
X507200D01*
X506100Y539400D02*
G03X507200Y538300I1100J0D01*
G01X506100Y539400D02*
Y544400D01*
X507200Y545500D02*
G03X506100Y544400I0J-1100D01*
G01X507200Y545500D02*
X510800D01*
X511900Y544400D02*
G03X510800Y545500I-1100J0D01*
G01X511900Y544400D02*
Y542960D01*
G03X512046Y542606I500J0*
G01X515346Y539306*
G03X516200Y539660I354J354*
G01Y556300*
X516639Y557361D02*
G03X516200Y556300I1061J-1061D01*
G01X516639Y557361D02*
X518965Y559686D01*
G03X519109Y559993I-354J353*
G01X519836Y561396D02*
G03X519109Y559993I1364J-1596D01*
G01X519836Y561396D02*
G03X519864Y562130I-325J381D01*
G01X518810Y563184*
X518400Y564174D02*
G03X518810Y563184I1400J0D01*
G01X518400Y564174D02*
Y571225D01*
G03X518265Y571566I-500J0*
G01X519586Y575089D02*
G03X518265Y571566I214J-2089D01*
G01X519586Y575089D02*
G03X519976Y575822I-51J497D01*
G01X524475Y577573D02*
G03X519976Y575822I-2355J-605D01*
G01X524475Y577573D02*
G03X525113Y577222I484J125D01*
G01X525607Y577300D02*
G03X525113Y577222I0J-1600D01*
G01X525607Y577300D02*
X529200D01*
G03X529700Y577800I-0J500*
G01X526700Y610641D02*
Y612172D01*
G03X526554Y612525I-500J-0*
G01X525139Y613939*
X524700Y615000D02*
G03X525139Y613939I1500J0D01*
G01X524700Y615000D02*
Y616400D01*
G03X524200Y616900I-500J-0*
G01X523200*
X522100Y618000D02*
G03X523200Y616900I1100J0D01*
G01X522100Y618000D02*
Y624000D01*
X522333Y624677D02*
G03X522100Y624000I867J-677D01*
G01X522333Y624677D02*
G03X521939Y625484I-394J307D01*
G01X517398*
G03X516899Y624964I0J-500*
G01X516900Y624900D02*
G03X516899Y624964I-1600J0D01*
G01X516900Y624900D02*
Y598463D01*
G03X517046Y598109I500J-0*
G01X517386Y597770*
G03X517595Y597645I353J354*
X517720Y597436I478J145*
G01X519509Y595646*
G03X519863Y595500I354J354*
G01X525372*
G03X525725Y596354I-0J500*
G01X523719Y598360*
G03X522993Y598341I-354J-354*
G01X522175Y597976D02*
G03X522993Y598341I-0J1100D01*
G01X522175Y597976D02*
X519025D01*
X518371Y598192D02*
G03X519025Y597976I654J884D01*
G01X518371Y598192D02*
G03X518218Y598268I-298J-402D01*
X518141Y598421I-479J-144*
G01X517925Y599076D02*
G03X518141Y598421I1100J-0D01*
G01X517925Y599076D02*
Y602225D01*
X519025Y603325D02*
G03X517925Y602225I0J-1100D01*
G01X519025Y603325D02*
X522175D01*
X522673Y603206D02*
G03X522175Y603325I-498J-981D01*
G01X522673Y603206D02*
G03X523400Y603651I227J445D01*
G01Y606400*
X523810Y607390D02*
G03X523400Y606400I990J-990D01*
G01X523810Y607390D02*
X525010Y608590D01*
X525212Y608757D02*
G03X525010Y608590I788J-1157D01*
G01X525212Y608757D02*
G03X525399Y608995I-281J414D01*
G01X525651Y609385D02*
G03X525399Y608995I777J-778D01*
G01X525651Y609385D02*
X526536Y610270D01*
X526548Y610282D02*
G03X526536Y610270I766J-790D01*
G01X526548Y610282D02*
G03X526700Y610641I-348J359D01*
G01X526917Y517663D02*
Y517954D01*
G03X526448Y518453I-500J0*
G01X525415Y519551D02*
G03X526448Y518453I1100J0D01*
G01X525415Y519551D02*
Y523151D01*
X526377Y524243D02*
G03X525415Y523151I138J-1092D01*
G01X526377Y524243D02*
G03X526815Y524739I-62J496D01*
G01Y525251*
G03X526315Y525751I-500J0*
G01X522815*
G03X522315Y525251I-0J-500*
G01Y524739*
G03X522752Y524243I500J-0*
G01X523715Y523151D02*
G03X522752Y524243I-1100J0D01*
G01X523715Y523151D02*
Y519551D01*
X523274Y518670D02*
G03X523715Y519551I-659J881D01*
G01X523274Y518670D02*
G03X523073Y518270I299J-400D01*
G01Y517720*
G03X523573Y517220I500J0*
G01X523693*
X524775Y516315D02*
G03X523693Y517220I-1082J-195D01*
G01X524775Y516315D02*
G03X525760I492J88D01*
G01X526550Y517181D02*
G03X525760Y516315I292J-1061D01*
G01X526550Y517181D02*
G03X526917Y517663I-133J482D01*
G01X547868Y506400D02*
Y509600D01*
G03X547368Y510100I-500J-0*
G01X538396*
G03X537922Y509442I0J-500*
G01X537979Y509093D02*
G03X537922Y509442I-1100J0D01*
G01X537979Y509093D02*
Y506400D01*
G03X538479Y505900I500J0*
G01X547368*
G03X547868Y506400I-0J500*
G01X548106Y513100D02*
G03X548574Y513778I0J500D01*
G01X548502Y514169D02*
G03X548574Y513778I1100J0D01*
G01X548502Y514169D02*
Y517319D01*
X548527Y517555D02*
G03X548502Y517319I1075J-236D01*
G01X548527Y517555D02*
G03X548039Y518162I-488J107D01*
G01X545965*
X544865Y519262D02*
G03X545965Y518162I1100J-0D01*
G01X544865Y519262D02*
Y521633D01*
G03X544719Y521987I-500J0*
G01X541008Y525697*
G03X540529Y525828I-353J-353*
G01X540253Y525792D02*
G03X540529Y525828I0J1100D01*
G01X540253Y525792D02*
X536653D01*
X535553Y526892D02*
G03X536653Y525792I1100J0D01*
G01X535553Y526892D02*
Y531000D01*
G03X535053Y531500I-500J-0*
G01X530315*
G03X529815Y531000I-0J-500*
G01Y524739*
G03X530252Y524243I500J-0*
G01X531065Y523705D02*
G03X530252Y524243I-950J-554D01*
G01X531065Y523705D02*
G03X531937Y523718I432J251D01*
G01X532903Y524292D02*
G03X531937Y523718I0J-1100D01*
G01X532903Y524292D02*
X536503D01*
X537603Y523192D02*
G03X536503Y524292I-1100J0D01*
G01X537603Y523192D02*
Y519592D01*
X537071Y518650D02*
G03X537603Y519592I-568J942D01*
G01X537071Y518650D02*
G03X536829Y518222I258J-428D01*
G01Y517336*
G03X537251Y516842I500J0*
G01X538179Y515756D02*
G03X537251Y516842I-1100J-0D01*
G01X538179Y515756D02*
Y513600D01*
G03X538679Y513100I500J0*
G01X548106*
X550015Y533149D02*
Y536056D01*
G03X549869Y536410I-500J0*
G01X543925Y542354*
G03X543572Y542500I-353J-354*
G01X521600*
X520539Y542939D02*
G03X521600Y542500I1061J1061D01*
G01X520539Y542939D02*
X520054Y543425D01*
G03X519200Y543072I-354J-353*
G01Y538128*
G03X519346Y537775I500J0*
G01X519427Y537694*
G03X520281Y538048I354J354*
G01Y540227*
X521381Y541327D02*
G03X520281Y540227I-0J-1100D01*
G01X521381Y541327D02*
X524981D01*
X526081Y540227D02*
G03X524981Y541327I-1100J0D01*
G01X526081Y540227D02*
Y539075D01*
G03X526227Y538721I500J-0*
G01X527527Y537421*
G03X528327Y537549I354J354*
G01X530007Y538691D02*
G03X528327Y537549I193J-2091D01*
G01X530007Y538691D02*
G03X530314Y538835I-46J498D01*
G01X530539Y539061*
X531600Y539500D02*
G03X530539Y539061I0J-1500D01*
G01X531600Y539500D02*
X532681D01*
G03X533181Y540000I-0J500*
G01Y540227*
X534281Y541327D02*
G03X533181Y540227I-0J-1100D01*
G01X534281Y541327D02*
X537881D01*
X538981Y540227D02*
G03X537881Y541327I-1100J0D01*
G01X538981Y540227D02*
Y535427D01*
X538941Y535134D02*
G03X538981Y535427I-1060J293D01*
G01X538941Y535134D02*
G03X539423Y534500I482J-134D01*
G01X540841*
X541902Y534061D02*
G03X540841Y534500I-1061J-1061D01*
G01X541902Y534061D02*
X547762Y528201D01*
G03X548615Y528554I353J353*
G01Y531562*
X549578Y532653D02*
G03X548615Y531562I137J-1091D01*
G01X549578Y532653D02*
G03X550015Y533149I-63J496D01*
G01X560500Y518607D02*
Y527800D01*
G03X559808Y528262I-500J-0*
G01X556985Y529607D02*
G03X559808Y528262I2015J593D01*
G01X556985Y529607D02*
G03X556859Y529819I-479J-141D01*
G01X556139Y530539*
X555884Y530881D02*
G03X556139Y530539I1316J719D01*
G01X555884Y530881D02*
G03X555648Y531098I-439J-240D01*
G01X555284Y531360D02*
G03X555648Y531098I812J742D01*
G01X555284Y531360D02*
G03X554415Y531023I-369J-337D01*
G01Y526562*
X553315Y525462D02*
G03X554415Y526562I0J1100D01*
G01X553315Y525462D02*
X551708D01*
G03X551354Y524608I-0J-500*
G01X552165Y523798*
G03X552814Y523748I353J353*
G01X553465Y523962D02*
G03X552814Y523748I0J-1100D01*
G01X553465Y523962D02*
X557065D01*
X558165Y522862D02*
G03X557065Y523962I-1100J-0D01*
G01X558165Y522862D02*
Y520490D01*
G03X558312Y520137I500J0*
G01X558833Y519615*
X559265Y518702D02*
G03X558833Y519615I-1493J-147D01*
G01X559265Y518702D02*
G03X559540Y518304I498J50D01*
G01X559703Y518204D02*
G03X559540Y518304I-653J-885D01*
G01X559703Y518204D02*
G03X560500Y518607I297J403D01*
G01X554996Y532641D02*
Y533441D01*
G03X554850Y533794I-500J-0*
G01X554769Y533876*
X554300Y535007D02*
G03X554769Y533876I1600J0D01*
G01X554300Y535007D02*
Y547600D01*
G03X553800Y548100I-500J-0*
G01X549007*
X547876Y548569D02*
G03X549007Y548100I1131J1131D01*
G01X547876Y548569D02*
X542691Y553754D01*
G03X542337Y553900I-354J-354*
G01X525807*
X525176Y554030D02*
G03X525807Y553900I631J1470D01*
G01X525176Y554030D02*
G03X524491Y553681I-197J-460D01*
G01X521274Y551941D02*
G03X524491Y553681I847J2279D01*
G01X521274Y551941D02*
G03X520600Y551473I-174J-468D01*
G01Y547328*
G03X520746Y546975I500J0*
G01X522075Y545646*
G03X522428Y545500I353J354*
G01X544400*
X545461Y545061D02*
G03X544400Y545500I-1061J-1061D01*
G01X545461Y545061D02*
X552576Y537945D01*
X553015Y536885D02*
G03X552576Y537945I-1500J-0D01*
G01X553015Y536885D02*
Y533149D01*
G03X553453Y532653I500J0*
G01X554127Y532304D02*
G03X553453Y532653I-812J-742D01*
G01X554127Y532304D02*
G03X554996Y532641I369J337D01*
G01X560733Y560100D02*
G03X561215Y560733I0J500D01*
G01X561176Y561025D02*
G03X561215Y560733I1100J0D01*
G01X561176Y561025D02*
Y562783D01*
G03X561029Y563136I-500J-0*
G01X555809Y568356*
X555370Y569416D02*
G03X555809Y568356I1500J0D01*
G01X555370Y569416D02*
Y577152D01*
G03X555218Y577510I-500J-0*
G01X555206Y577522D02*
G03X555218Y577510I778J778D01*
G01X555206Y577522D02*
X554321Y578408D01*
X553998Y579186D02*
G03X554321Y578408I1100J-0D01*
G01X553998Y579186D02*
Y581351D01*
X554321Y582129D02*
G03X553998Y581351I777J-778D01*
G01X554321Y582129D02*
X555206Y583015D01*
X555984Y583337D02*
G03X555206Y583015I0J-1100D01*
G01X555984Y583337D02*
X557642D01*
G03X558142Y583837I-0J500*
G01Y587985*
G03X557995Y588338I-500J-0*
G01X555580Y590754*
G03X555227Y590900I-353J-354*
G01X540800*
X539739Y591339D02*
G03X540800Y590900I1061J1061D01*
G01X539739Y591339D02*
X535325Y595754D01*
G03X534972Y595900I-353J-354*
G01X532863*
G03X532513Y595043I-0J-500*
G01X532524Y595031D02*
G03X532513Y595043I-1131J-1131D01*
G01X532524Y595031D02*
X543509Y584046D01*
G03X543863Y583900I354J354*
G01X549793*
X550924Y583431D02*
G03X549793Y583900I-1131J-1131D01*
G01X550924Y583431D02*
X552031Y582324D01*
X552500Y581193D02*
G03X552031Y582324I-1600J-0D01*
G01X552500Y581193D02*
Y565063D01*
G03X552646Y564709I500J-0*
G01X557789Y559567*
G03X558496I353J354*
G01X558589Y559661*
X559650Y560100D02*
G03X558589Y559661I0J-1500D01*
G01X559650Y560100D02*
X560733D01*
X567867Y577017D02*
G03Y577783I-321J383D01*
G01X567492Y578431D02*
G03X567867Y577783I1083J194D01*
G01X567492Y578431D02*
G03X566508I-492J-89D01*
G01X565425Y577525D02*
G03X566508Y578431I0J1100D01*
G01X565425Y577525D02*
X562276D01*
X561528Y577819D02*
G03X562276Y577525I748J806D01*
G01X561528Y577819D02*
G03X560801Y577769I-340J-367D01*
G01X560702Y577660D02*
G03X560801Y577769I-1060J1061D01*
G01X560702Y577660D02*
X560046Y577004D01*
G03X559900Y576651I354J-353*
G01Y570715*
G03X560046Y570361I500J0*
G01X562961Y567446*
G03X563315Y567300I354J354*
G01X566975*
G03X567475Y567800I-0J500*
G01Y570575*
X567867Y571417D02*
G03X567475Y570575I708J-842D01*
G01X567867Y571417D02*
G03Y572183I-321J383D01*
G01X567475Y573025D02*
G03X567867Y572183I1100J0D01*
G01X567475Y573025D02*
Y576175D01*
X567867Y577017D02*
G03X567475Y576175I708J-842D01*
G01X590873Y582077D02*
Y582772D01*
G03X590727Y583125I-500J-0*
G01X587898Y585954*
G03X587545Y586100I-353J-354*
G01X582428*
G03X582075Y585246I0J-500*
G01X584887Y582434*
X585327Y581373D02*
G03X584887Y582434I-1500J0D01*
G01X585327Y581373D02*
Y579802D01*
G03X585473Y579448I500J-0*
G01X586956Y577965*
G03X587310Y577819I354J354*
G01X590281*
G03X590781Y578319I0J500*
G01Y581542*
X590844Y581910D02*
G03X590781Y581542I1037J-368D01*
G01X590844Y581910D02*
G03X590873Y582077I-471J167D01*
G01X632609Y543838D02*
G03Y544822I-88J492D01*
G01X631743Y545613D02*
G03X632609Y544822I1061J292D01*
G01X631743Y545613D02*
G03X631261Y545980I-482J-133D01*
G01X630480*
X629419Y546419D02*
G03X630480Y545980I1061J1061D01*
G01X629419Y546419D02*
X627739Y548099D01*
X627300Y549160D02*
G03X627739Y548099I1500J-0D01*
G01X627300Y549160D02*
Y553200D01*
G03X627154Y553554I-500J-0*
G01X625754Y554954*
X625754D02*
G03X624900Y554600I-354J-354D01*
G01Y544228*
G03X625046Y543875I500J0*
G01X625475Y543446*
G03X625828Y543300I353J354*
G01X629000*
X630061Y542861D02*
G03X629000Y543300I-1061J-1061D01*
G01X630061Y542861D02*
X630850Y542071D01*
G03X631704Y542425I354J354*
G01Y542755*
X632609Y543838D02*
G03X631704Y542755I195J-1083D01*
G01X641060Y557563D02*
G03X641142Y558337I-272J420D01*
G01X640597Y558882*
G03X640243Y559028I-354J-354*
G01X638144*
X636394*
X635535Y559442D02*
G03X636394Y559028I859J686D01*
G01X635535Y559442D02*
G03X634753I-391J-312D01*
G01X634393Y559148D02*
G03X634753Y559442I-499J980D01*
G01X634393Y559148D02*
G03X634120Y558703I227J-445D01*
G01Y558584*
G03X634620Y558084I500J-0*
G01X634929*
X636029Y556984D02*
G03X634929Y558084I-1100J-0D01*
G01X636029Y556984D02*
Y552184D01*
X635253Y551133D02*
G03X636029Y552184I-324J1051D01*
G01X635253Y551132D02*
G03X635400Y550155I147J-477D01*
G01X635953*
X637054Y549055D02*
G03X635953Y550155I-1101J-0D01*
G01X637054Y549055D02*
Y545905D01*
X636148Y544822D02*
G03X637054Y545905I-195J1083D01*
G01X636148Y544822D02*
G03Y543838I88J-492D01*
G01X637054Y542755D02*
G03X636148Y543838I-1101J0D01*
G01X637054Y542755D02*
Y540834D01*
G03X637200Y540481I500J0*
G01X637434Y540246*
G03X637788Y540100I354J354*
G01X637804*
G03X638304Y540600I-0J500*
G01Y542755*
X639209Y543838D02*
G03X638304Y542755I195J-1083D01*
G01X639209Y543838D02*
G03Y544822I-88J492D01*
G01X638304Y545905D02*
G03X639209Y544822I1100J0D01*
G01X638304Y545905D02*
Y549055D01*
X639112Y550115D02*
G03X638304Y549055I292J-1060D01*
G01X639112Y550115D02*
G03X639479Y550597I-133J482D01*
G01Y551317*
X639918Y552377D02*
G03X639479Y551317I1061J-1060D01*
G01X639918Y552377D02*
X640554Y553013D01*
G03X640700Y553366I-354J353*
G01Y554139*
G03X640585Y554458I-500J-0*
G01X641060Y557563D02*
G03X640585Y554458I1140J-1763D01*
G01X662900Y532188D02*
Y537670D01*
G03X662285Y538157I-500J0*
G01X659887Y539333D02*
G03X662285Y538157I1913J867D01*
G01X659887Y539333D02*
G03X659650Y539576I-455J-206D01*
G01X659539Y539630*
G03X659321Y539681I-218J-449*
G01X650848*
G03X650494Y538827I-0J-500*
G01X652410Y536911*
G03X652764Y536765I354J354*
G01X657169*
X658269Y535665D02*
G03X657169Y536765I-1100J-0D01*
G01X658269Y535665D02*
Y534200D01*
G03X658769Y533700I500J0*
G01X659518*
X660649Y533231D02*
G03X659518Y533700I-1131J-1131D01*
G01X660649Y533231D02*
X662046Y531834D01*
G03X662900Y532188I354J354*
G01Y542730D02*
Y554069D01*
G03X662754Y554422I-500J-0*
G01X659822Y557354*
G03X659469Y557500I-353J-354*
G01X644507*
G03X644063Y556769I-0J-500*
G01X643815Y554458D02*
G03X644063Y556769I-1615J1342D01*
G01X643815Y554458D02*
G03X643700Y554139I385J-319D01*
G01Y552538*
X643261Y551477D02*
G03X643700Y552538I-1061J1061D01*
G01X643261Y551477D02*
X642709Y550925D01*
G03X642903Y550098I353J-353*
G01X643654Y549055D02*
G03X642903Y550098I-1101J-0D01*
G01X643654Y549055D02*
Y545905D01*
X642748Y544822D02*
G03X643654Y545905I-195J1083D01*
G01X642748Y544822D02*
G03Y543838I88J-492D01*
G01X643614Y543048D02*
G03X642748Y543838I-1061J-293D01*
G01X643614Y543048D02*
G03X644096Y542681I482J133D01*
G01X659781*
X660436Y542530D02*
G03X659781Y542681I-655J-1349D01*
G01X660436Y542530D02*
X660961Y542275D01*
G03X661299Y542239I218J450*
G01X662285Y542243D02*
G03X661299Y542239I-485J-2043D01*
G01X662285Y542243D02*
G03X662900Y542730I115J487D01*
G01X664801Y560848D02*
G03X664944Y561753I-126J483D01*
G01X664676Y561969D02*
G03X664944Y561753I1131J1131D01*
G01X664676Y561969D02*
X663769Y562876D01*
X663300Y564007D02*
G03X663769Y562876I1600J0D01*
G01X663300Y564007D02*
Y572200D01*
G03X662800Y572700I-500J-0*
G01X644769*
G03X644275Y572123I0J-500*
G01X643815Y570458D02*
G03X644275Y572123I-1615J1342D01*
G01X643815Y570458D02*
G03X643700Y570139I385J-319D01*
G01Y569800*
X643261Y568739D02*
G03X643700Y569800I-1061J1061D01*
G01X643261Y568739D02*
X642475Y567954D01*
G03Y567246I353J-354*
G01X643261Y566461*
X643700Y565400D02*
G03X643261Y566461I-1500J0D01*
G01X643700Y565400D02*
Y563861D01*
G03X643815Y563542I500J0*
G01X644063Y561231D02*
G03X643815Y563542I-1863J969D01*
G01X644063Y561231D02*
G03X644507Y560500I444J-231D01*
G01X660297*
X661358Y560061D02*
G03X660297Y560500I-1061J-1061D01*
G01X661358Y560061D02*
X662259Y559160D01*
G03X663062Y559294I353J353*
G01X663369Y559724D02*
G03X663062Y559294I1131J-1131D01*
G01X663369Y559724D02*
X664076Y560431D01*
X664802Y560848D02*
G03X664076Y560431I405J-1548D01*
G01X663300Y576200D02*
Y580324D01*
G03X662454Y580685I-500J-0*
G01X659658Y580585D02*
G03X662454Y580685I1342J1615D01*
G01X659658Y580585D02*
G03X659339Y580700I-319J-385D01*
G01X651154*
X650094Y581139D02*
G03X651154Y580700I1060J1061D01*
G01X650094Y581139D02*
X648204Y583029D01*
G03X647983Y583157I-353J-354*
G01X647276Y583569D02*
G03X647983Y583157I1131J1131D01*
G01X647276Y583569D02*
X645169Y585676D01*
X644848Y586134D02*
G03X645169Y585676I1452J673D01*
G01X644848Y586134D02*
G03X644132Y586349I-453J-210D01*
G01X643847Y586225D02*
G03X644132Y586349I-293J1060D01*
G01X643847Y586225D02*
G03X643479Y585743I132J-482D01*
G01Y582886*
G03X643485Y582815I500J0*
G01X643500Y582600D02*
G03X643485Y582815I-1500J0D01*
G01X643500Y582600D02*
Y578876D01*
G03X643654Y578515I500J0*
G01X644198Y576354D02*
G03X643654Y578515I-1998J646D01*
G01X644198Y576354D02*
G03X644674Y575700I476J-154D01*
G01X662800*
G03X663300Y576200I-0J500*
G01X588972Y501700D02*
G03X589325Y502554I-0J500D01*
G01X587714Y504165*
G03X587407Y504309I-353J-354*
G01X586115Y507885D02*
G03X587407Y504309I1485J-1485D01*
G01X586115Y507885D02*
G03Y508592I-354J353D01*
G01X584354Y510354*
G03X584000Y510500I-354J-354*
G01X577428*
G03X577075Y510354I0J-500*
G01X575461Y508739*
X574400Y508300D02*
G03X575461Y508739I0J1500D01*
G01X574400Y508300D02*
X570461D01*
G03X570142Y508185I0J-500*
G01X567458Y511415D02*
G03X570142Y508185I1342J-1615D01*
G01X567458Y511415D02*
G03X567139Y512300I-319J385D01*
G01X565007*
X563876Y512769D02*
G03X565007Y512300I1131J1131D01*
G01X563876Y512769D02*
X561004Y515640D01*
G03X560150Y515287I-354J-353*
G01Y514169*
X559285Y513095D02*
G03X560150Y514169I-235J1074D01*
G01X559285Y513095D02*
G03X558893Y512566I107J-489D01*
G01X556860Y510301D02*
G03X558893Y512566I-60J2099D01*
G01X556860Y510301D02*
G03X556655Y510251I14J-500D01*
G01X556426Y510162D02*
G03X556655Y510251I-426J1438D01*
G01X556426Y510162D02*
G03X556068Y509682I142J-480D01*
G01Y504286*
X554968Y503186D02*
G03X556068Y504286I-0J1100D01*
G01X554968Y503186D02*
X549431D01*
G03X549173Y503114I-0J-500*
G01X548400Y502900D02*
G03X549173Y503115I0J1500D01*
G01X548400Y502900D02*
X530710D01*
X529582Y503412D02*
G03X530710Y502900I1128J988D01*
G01X529582Y503412D02*
X528396Y504766D01*
G03X528020Y504937I-376J-329*
G01X526324*
X525224Y506037D02*
G03X526324Y504937I1100J-0D01*
G01X525224Y506037D02*
Y507958D01*
G03X525077Y508312I-500J-0*
G01X523957Y509432*
G03X523603Y509578I-354J-354*
G01X519722*
X518661Y510018D02*
G03X519722Y509578I1061J1060D01*
G01X518661Y510018D02*
X516953Y511725D01*
X516514Y512786D02*
G03X516953Y511725I1500J0D01*
G01X516514Y512786D02*
Y518758D01*
G03X516368Y519111I-500J-0*
G01X515525Y519954*
G03X515172Y520100I-353J-354*
G01X507200*
X506139Y520539D02*
G03X507200Y520100I1061J1061D01*
G01X506139Y520539D02*
X505005Y521674D01*
X504601Y522409D02*
G03X505005Y521674I1465J325D01*
G01X504601Y522409D02*
G03X504113Y522800I-488J-109D01*
G01X504050*
X502950Y523900D02*
G03X504050Y522800I1100J0D01*
G01X502950Y523900D02*
Y526900D01*
X503878Y527987D02*
G03X502950Y526900I172J-1087D01*
G01X503878Y527987D02*
G03X504300Y528480I-78J493D01*
G01Y530500*
G03X503800Y531000I-500J-0*
G01X503450*
X502591Y531413D02*
G03X503450Y531000I859J687D01*
G01X502591Y531413D02*
G03X501700Y531101I-391J-312D01*
G01Y502200*
G03X502200Y501700I500J0*
G01X588972*
X703750Y519250D02*
Y549972D01*
G03X703604Y550325I-500J-0*
G01X694358Y559571*
X693919Y560631D02*
G03X694358Y559571I1500J0D01*
G01X693919Y560631D02*
Y598200D01*
G03X693419Y598700I-500J-0*
G01X690407*
X689276Y599169D02*
G03X690407Y598700I1131J1131D01*
G01X689276Y599169D02*
X687769Y600676D01*
X687300Y601807D02*
G03X687769Y600676I1600J0D01*
G01X687300Y601807D02*
Y611737D01*
G03X687154Y612091I-500J0*
G01X685891Y613354*
G03X685537Y613500I-354J-354*
G01X638228*
G03X637875Y613354I0J-500*
G01X637063Y612541*
G03X637112Y611791I353J-353*
G01X637261Y611661D02*
G03X637112Y611791I-1061J-1061D01*
G01X637261Y611661D02*
X638061Y610861D01*
X638488Y609988D02*
G03X638061Y610861I-1488J-188D01*
G01X638488Y609988D02*
G03X638984Y609550I496J62D01*
G01X640000*
X640590Y609378D02*
G03X640000Y609550I-590J-928D01*
G01X640590Y609378D02*
G03X640859Y609300I269J422D01*
G01X648193*
X649324Y608831D02*
G03X648193Y609300I-1131J-1131D01*
G01X649324Y608831D02*
X651431Y606724D01*
X651900Y605593D02*
G03X651431Y606724I-1600J-0D01*
G01X651900Y605593D02*
Y605400D01*
G03X652592Y604938I500J0*
G01X655491Y603193D02*
G03X652592Y604938I-2091J-193D01*
G01X655491Y603193D02*
G03X655635Y602886I498J46D01*
G01X655661Y602861*
X655762Y602748D02*
G03X655661Y602861I-1162J-948D01*
G01X655762Y602748D02*
G03X656149Y602565I387J317D01*
G01X657369*
X658469Y601465D02*
G03X657369Y602565I-1100J-0D01*
G01X658469Y601465D02*
Y600200D01*
G03X658969Y599700I500J0*
G01X659393*
X660128Y599521D02*
G03X659393Y599700I-735J-1421D01*
G01X660128Y599521D02*
G03X660437Y599472I230J444D01*
X660580Y599176I496J57*
G01X662231Y597524*
X662395Y597332D02*
G03X662231Y597524I-1295J-939D01*
G01X662395Y597332D02*
G03X663300Y597626I405J294D01*
G01Y599270*
G03X662685Y599757I-500J0*
G01X661177Y599966D02*
G03X662685Y599757I1023J1834D01*
G01X661177Y599966D02*
G03X660854Y600023I-244J-437D01*
X660712Y600318I-496J-58*
G01X662007Y603891D02*
G03X660712Y600318I193J-2091D01*
G01X662007Y603891D02*
G03X662314Y604035I-46J498D01*
G01X663539Y605261*
X664600Y605700D02*
G03X663539Y605261I0J-1500D01*
G01X664600Y605700D02*
X678600D01*
X679661Y605261D02*
G03X678600Y605700I-1061J-1061D01*
G01X679661Y605261D02*
X680861Y604061D01*
X681299Y603048D02*
G03X680861Y604061I-1499J-48D01*
G01X681299Y603048D02*
G03X681799Y602565I500J17D01*
G01X682565*
X683665Y601465D02*
G03X682565Y602565I-1100J-0D01*
G01X683665Y601465D02*
Y599850D01*
X682565Y598750D02*
G03X683665Y599850I0J1100D01*
G01X682565Y598750D02*
X677054D01*
X675954Y599850D02*
G03X677054Y598750I1100J0D01*
G01X675954Y599850D02*
Y601465D01*
X676077Y601970D02*
G03X675954Y601465I977J-505D01*
G01X676077Y601970D02*
G03X675633Y602700I-444J230D01*
G01X674871*
G03X674433Y601958I-0J-500*
G01X674569Y601495D02*
G03X674433Y601958I-1098J-70D01*
G01X674569Y601495D02*
G03X674647Y601257I499J32D01*
G01X674900Y600393D02*
G03X674647Y601257I-1600J-0D01*
G01X674900Y600393D02*
Y566861D01*
G03X675767Y566522I500J0*
G01X676575Y566875D02*
G03X675767Y566522I-0J-1100D01*
G01X676575Y566875D02*
X679724D01*
X680785Y566067D02*
G03X679724Y566875I-1061J-292D01*
G01X680785Y566067D02*
G03X681267Y565700I482J133D01*
G01X683544*
G03X683968Y565934I0J500*
G01X684900Y566450D02*
G03X683968Y565934I0J-1100D01*
G01X684900Y566450D02*
X687900D01*
X689000Y565350D02*
G03X687900Y566450I-1100J0D01*
G01X689000Y565350D02*
Y561850D01*
X687900Y560750D02*
G03X689000Y561850I0J1100D01*
G01X687900Y560750D02*
X684900D01*
X683800Y561850D02*
G03X684900Y560750I1100J0D01*
G01X683800Y561850D02*
Y562200D01*
G03X683300Y562700I-500J-0*
G01X681267*
G03X680785Y562333I-0J-500*
G01X680224Y561645D02*
G03X680785Y562333I-500J980D01*
G01X680224Y561645D02*
G03Y560755I228J-445D01*
G01X680785Y560067D02*
G03X680224Y560755I-1061J-292D01*
G01X680785Y560067D02*
G03X681267Y559700I482J133D01*
G01X681800*
X682861Y559261D02*
G03X681800Y559700I-1061J-1061D01*
G01X682861Y559261D02*
X683224Y558897D01*
G03X683991Y558969I354J354*
G01X684900Y559450D02*
G03X683991Y558969I0J-1100D01*
G01X684900Y559450D02*
X687900D01*
X689000Y558350D02*
G03X687900Y559450I-1100J0D01*
G01X689000Y558350D02*
Y554850D01*
X687900Y553750D02*
G03X689000Y554850I0J1100D01*
G01X687900Y553750D02*
X684900D01*
X683813Y554679D02*
G03X684900Y553750I1087J171D01*
G01X683813Y554679D02*
G03X683340Y555101I-494J-77D01*
G01X682339Y555539D02*
G03X683340Y555101I1061J1061D01*
G01X682339Y555539D02*
X681543Y556336D01*
G03X680732Y556183I-354J-354*
G01X679724Y555525D02*
G03X680732Y556183I0J1100D01*
G01X679724Y555525D02*
X676575D01*
X675630Y556062D02*
G03X676575Y555525I945J563D01*
G01X675630Y556062D02*
G03X674700Y555807I-430J-255D01*
G01Y542076*
G03X675546Y541715I500J0*
G01X679099Y540271D02*
G03X675546Y541715I-2099J-71D01*
G01X679099Y540271D02*
G03X679245Y539935I500J18D01*
G01X680590Y538590*
X681000Y537600D02*
G03X680590Y538590I-1400J0D01*
G01X681000Y537600D02*
Y537265D01*
G03X681500Y536765I500J-0*
G01X682365*
X683465Y535665D02*
G03X682365Y536765I-1100J-0D01*
G01X683465Y535665D02*
Y534050D01*
X682365Y532950D02*
G03X683465Y534050I0J1100D01*
G01X682365Y532950D02*
X676854D01*
X675754Y534050D02*
G03X676854Y532950I1100J0D01*
G01X675754Y534050D02*
Y535665D01*
X676854Y536765D02*
G03X675754Y535665I-0J-1100D01*
G01X676854Y536765D02*
X677248D01*
G03X677602Y537618I0J500*
G01X677265Y537955*
G03X676929Y538101I-354J-354*
G01X675546Y538685D02*
G03X676929Y538101I1454J1515D01*
G01X675546Y538685D02*
G03X674700Y538324I-346J-361D01*
G01Y520607*
X674449Y519747D02*
G03X674700Y520607I-1349J860D01*
G01X674449Y519747D02*
G03X674371Y519478I422J-269D01*
G01Y519090*
X673271Y517990D02*
G03X674371Y519090I-0J1100D01*
G01X673271Y517990D02*
X672600D01*
G03X672456Y517968I0J-500*
G01X671993Y517900D02*
G03X672456Y517968I-0J1600D01*
G01X671993Y517900D02*
X665807D01*
X665344Y517968D02*
G03X665807Y517900I463J1532D01*
G01X665344Y517968D02*
G03X665200Y517990I-144J-478D01*
G01X664728*
X663683Y518746D02*
G03X664728Y517990I1045J344D01*
G01X663683Y518746D02*
G03X662736Y518755I-475J-156D01*
G01X662356Y518151D02*
G03X662736Y518755I-1131J1131D01*
G01X662356Y518151D02*
X661924Y517719D01*
X660793Y517250D02*
G03X661924Y517719I-0J1600D01*
G01X660793Y517250D02*
X651757D01*
X650876Y517515D02*
G03X651757Y517250I881J1335D01*
G01X650876Y517515D02*
G03X650100Y517098I-276J-417D01*
G01X650100D02*
Y514807D01*
X649631Y513676D02*
G03X650100Y514807I-1131J1131D01*
G01X649631Y513676D02*
X648724Y512769D01*
X647593Y512300D02*
G03X648724Y512769I-0J1600D01*
G01X647593Y512300D02*
X587857D01*
G03X587503Y511446I-0J-500*
G01X594303Y504646*
G03X594657Y504500I354J354*
G01X689000*
G03X689354Y504646I-0J500*
G01X703604Y518897*
G03X703750Y519250I-354J353*
G01X613047Y615616D02*
G03X613047I-4100J0D01*
G01X592083Y621400D02*
G03X592083I-2628J0D01*
G01X583028D02*
G03X583028I-2628J0D01*
G01X562100Y520199D02*
X648500D01*
X562100Y519299D02*
X648500D01*
X562100Y518399D02*
X648500D01*
X562100Y517499D02*
X648500D01*
X562308Y516599D02*
X648500D01*
X563208Y515699D02*
X648500D01*
X564108Y514799D02*
X648451D01*
X562100Y521099D02*
X647994D01*
X562100Y521999D02*
X647094D01*
X562100Y522899D02*
X574994D01*
X562100Y523799D02*
X574094D01*
X562100Y524699D02*
X573194D01*
X562100Y525599D02*
X572294D01*
X562100Y526499D02*
X571394D01*
X562100Y527399D02*
X570494D01*
X562100Y553499D02*
X570300D01*
X562100Y552599D02*
X570300D01*
X562100Y551699D02*
X570300D01*
X562100Y550799D02*
X570300D01*
X562100Y549899D02*
X570300D01*
X562100Y548999D02*
X570300D01*
X562100Y548099D02*
X570300D01*
X562100Y547199D02*
X570300D01*
X562100Y546299D02*
X570300D01*
X562100Y545399D02*
X570300D01*
X562100Y544499D02*
X570300D01*
X562100Y543599D02*
X570300D01*
X562100Y542699D02*
X570300D01*
X562100Y541799D02*
X570300D01*
X562100Y540899D02*
X570300D01*
X562100Y539999D02*
X570300D01*
X562100Y539099D02*
X570300D01*
X562100Y538199D02*
X570300D01*
X562100Y537299D02*
X570300D01*
X562100Y536399D02*
X570300D01*
X562100Y535499D02*
X570300D01*
X562100Y534599D02*
X570300D01*
X562100Y533699D02*
X570300D01*
X562100Y532799D02*
X570300D01*
X562100Y531899D02*
X570300D01*
X562100Y530999D02*
X570300D01*
X562100Y530099D02*
X570300D01*
X562100Y529199D02*
X570300D01*
X562100Y528299D02*
X570300D01*
X562148Y554399D02*
X569694D01*
X563178Y555299D02*
X568622D01*
X664500Y558199D02*
X673100D01*
X664500Y557299D02*
X673100D01*
X664500Y556399D02*
X673100D01*
X664500Y555499D02*
X673100D01*
X664500Y554599D02*
X673100D01*
X664500Y553699D02*
X673100D01*
X664500Y552799D02*
X673100D01*
X664500Y551899D02*
X673100D01*
X664500Y550999D02*
X673100D01*
X664500Y550099D02*
X673100D01*
X664500Y549199D02*
X673100D01*
X664500Y548299D02*
X673100D01*
X664500Y547399D02*
X673100D01*
X664500Y546499D02*
X673100D01*
X664500Y545599D02*
X673100D01*
X664500Y544699D02*
X673100D01*
X664500Y543799D02*
X673100D01*
X664500Y542899D02*
X673100D01*
X664500Y541999D02*
X673100D01*
X664500Y541099D02*
X673100D01*
X664500Y540199D02*
X673100D01*
X664500Y539299D02*
X673100D01*
X664500Y538399D02*
X673100D01*
X664500Y537499D02*
X673100D01*
X664500Y536599D02*
X673100D01*
X664500Y535699D02*
X673100D01*
X664500Y534799D02*
X673100D01*
X664500Y533899D02*
X673100D01*
X664500Y532999D02*
X673100D01*
X664500Y532099D02*
X673100D01*
X664500Y531199D02*
X673100D01*
X664500Y530299D02*
X673100D01*
X664500Y529399D02*
X673100D01*
X664500Y528499D02*
X673100D01*
X664500Y527599D02*
X673100D01*
X664500Y526699D02*
X673100D01*
X664500Y525799D02*
X673100D01*
X664500Y524899D02*
X673100D01*
X664500Y523999D02*
X673100D01*
X664500Y523099D02*
X673100D01*
X664500Y522199D02*
X673100D01*
X664500Y521299D02*
X673100D01*
X664908Y520399D02*
X672892D01*
X665006Y559099D02*
X672594D01*
X664900Y599999D02*
X673300D01*
X664900Y599099D02*
X673300D01*
X664900Y598199D02*
X673300D01*
X664900Y597299D02*
X673300D01*
X664900Y596399D02*
X673300D01*
X664900Y595499D02*
X673300D01*
X664900Y594599D02*
X673300D01*
X664900Y593699D02*
X673300D01*
X664900Y592799D02*
X673300D01*
X664900Y591899D02*
X673300D01*
X664900Y590999D02*
X673300D01*
X664900Y590099D02*
X673300D01*
X664900Y589199D02*
X673300D01*
X664900Y588299D02*
X673300D01*
X664900Y587399D02*
X673300D01*
X664900Y586499D02*
X673300D01*
X664900Y585599D02*
X673300D01*
X664900Y584699D02*
X673300D01*
X664900Y583799D02*
X673300D01*
X664900Y582899D02*
X673300D01*
X664900Y581999D02*
X673300D01*
X664900Y581099D02*
X673300D01*
X664900Y580199D02*
X673300D01*
X664900Y579299D02*
X673300D01*
X664900Y578399D02*
X673300D01*
X664900Y577499D02*
X673300D01*
X664900Y576599D02*
X673300D01*
X664900Y575699D02*
X673300D01*
X664900Y574799D02*
X673300D01*
X664900Y573899D02*
X673300D01*
X664900Y572999D02*
X673300D01*
X664900Y572099D02*
X673300D01*
X664900Y571199D02*
X673300D01*
X664900Y570299D02*
X673300D01*
X664900Y569399D02*
X673300D01*
X664900Y568499D02*
X673300D01*
X664900Y567599D02*
X673300D01*
X664900Y566699D02*
X673300D01*
X664900Y565799D02*
X673300D01*
X664900Y564899D02*
X673300D01*
X664949Y563999D02*
X673300D01*
X665406Y600899D02*
X672794D01*
X700410Y623699D02*
X725900D01*
X700300Y622799D02*
X725900D01*
X700300Y621899D02*
X725900D01*
X700300Y620999D02*
X725900D01*
X700300Y620099D02*
X725900D01*
X700300Y619199D02*
X725900D01*
X700300Y618299D02*
X725900D01*
X700300Y617399D02*
X725900D01*
X700300Y616499D02*
X725900D01*
X700300Y615599D02*
X725900D01*
X700300Y614699D02*
X725900D01*
X700908Y613799D02*
X725900D01*
X704408Y612899D02*
X725900D01*
X705100Y611999D02*
X725900D01*
X705100Y611099D02*
X725900D01*
X705100Y610199D02*
X725900D01*
X705100Y609299D02*
X725900D01*
X705100Y608399D02*
X725900D01*
X704406Y607499D02*
X725900D01*
X701500Y606599D02*
X725900D01*
X701500Y605699D02*
X725900D01*
X701500Y604799D02*
X725900D01*
X701500Y603899D02*
X725886D01*
X701500Y602999D02*
X725092D01*
X701500Y602099D02*
X724192D01*
X701500Y601199D02*
X723292D01*
X633858Y529649D02*
X661225D01*
X634758Y528749D02*
X661225D01*
X635658Y527849D02*
X661225D01*
X636558Y526949D02*
X661225D01*
X647458Y526049D02*
X661225D01*
X648358Y525149D02*
X661225D01*
X649258Y524249D02*
X661225D01*
X650158Y523349D02*
X661225D01*
X650600Y522449D02*
X661225D01*
X650600Y521549D02*
X661225D01*
X650600Y520649D02*
X661225D01*
X650858Y519749D02*
X661225D01*
X633500Y530549D02*
X661069D01*
X633500Y531449D02*
X660169D01*
X633500Y532349D02*
X650944D01*
X633500Y533249D02*
X650044D01*
X633500Y534149D02*
X649144D01*
X633500Y535049D02*
X648244D01*
X633500Y535949D02*
X647344D01*
X633875Y536849D02*
X646444D01*
X644654Y595499D02*
X661100D01*
X644702Y594599D02*
X661100D01*
X645561Y593699D02*
X661100D01*
X646039Y592799D02*
X661100D01*
X646054Y591899D02*
X661100D01*
X646300Y590999D02*
X661100D01*
X646300Y590099D02*
X661100D01*
X646335Y589199D02*
X661100D01*
X647177Y588299D02*
X661100D01*
X648077Y587399D02*
X661100D01*
X648977Y586499D02*
X661100D01*
X649877Y585599D02*
X661100D01*
X644654Y596399D02*
X661052D01*
X644498Y597299D02*
X660194D01*
X633308Y598199D02*
X652094D01*
X633100Y599099D02*
X651054D01*
X633100Y604499D02*
X650300D01*
X633100Y603599D02*
X650300D01*
X633100Y602699D02*
X650300D01*
X633100Y601799D02*
X650300D01*
X633100Y600899D02*
X650300D01*
X633100Y599999D02*
X650300D01*
X633100Y605399D02*
X650300D01*
X633210Y606299D02*
X649594D01*
X634106Y607199D02*
X648694D01*
X637698Y597299D02*
X639461D01*
X637854Y596399D02*
X639305D01*
X637854Y595499D02*
X639305D01*
X637854Y594599D02*
X639305D01*
X637955Y593699D02*
X639204D01*
X633500Y621899D02*
X697700D01*
X633500Y620999D02*
X697700D01*
X633500Y620099D02*
X697700D01*
X633500Y619199D02*
X697700D01*
X633500Y618299D02*
X697700D01*
X633500Y617399D02*
X697700D01*
X633500Y616499D02*
X697700D01*
X633908Y615599D02*
X697700D01*
X686808Y614699D02*
X697700D01*
X687708Y613799D02*
X697700D01*
X688608Y612899D02*
X697700D01*
X688900Y611999D02*
X697700D01*
X688900Y611099D02*
X697700D01*
X688900Y610199D02*
X697700D01*
X688900Y609299D02*
X697700D01*
X688900Y608399D02*
X697700D01*
X688900Y607499D02*
X697700D01*
X688900Y606599D02*
X697700D01*
X688900Y605699D02*
X697700D01*
X688900Y604799D02*
X697700D01*
X688900Y603899D02*
X697700D01*
X688900Y602999D02*
X697700D01*
X688900Y602099D02*
X697700D01*
X689508Y601199D02*
X697700D01*
X633500Y622799D02*
X697652D01*
X633610Y623699D02*
X696794D01*
X634512Y624599D02*
X695888D01*
X543508Y555199D02*
X558900D01*
X544408Y554299D02*
X558900D01*
X545344Y553399D02*
X558900D01*
X547674Y552499D02*
X558900D01*
X547704Y551599D02*
X558900D01*
X548008Y550699D02*
X558900D01*
X548916Y549799D02*
X558900D01*
X555900Y548899D02*
X558900D01*
X555900Y547999D02*
X558900D01*
X555900Y547099D02*
X558900D01*
X555900Y546199D02*
X558900D01*
X555900Y545299D02*
X558900D01*
X555900Y544399D02*
X558900D01*
X555900Y543499D02*
X558900D01*
X555900Y542599D02*
X558900D01*
X555900Y541699D02*
X558900D01*
X555900Y540799D02*
X558900D01*
X555900Y539899D02*
X558900D01*
X555900Y538999D02*
X558900D01*
X555900Y538099D02*
X558900D01*
X555900Y537199D02*
X558900D01*
X555900Y536299D02*
X558900D01*
X555900Y535399D02*
X558900D01*
X525500Y556099D02*
X558887D01*
X530706Y556999D02*
X558094D01*
X531500Y557899D02*
X557194D01*
X531500Y558799D02*
X556294D01*
X531500Y559699D02*
X555394D01*
X531500Y560599D02*
X554494D01*
X531500Y561499D02*
X553594D01*
X531500Y562399D02*
X552694D01*
X531791Y563299D02*
X551794D01*
X531300Y580399D02*
X550900D01*
X531300Y579499D02*
X550900D01*
X531300Y578599D02*
X550900D01*
X531300Y577699D02*
X550900D01*
X531300Y576799D02*
X550900D01*
X530806Y575899D02*
X550900D01*
X525300Y574999D02*
X550900D01*
X530808Y574099D02*
X550900D01*
X531500Y573199D02*
X550900D01*
X533035Y572299D02*
X550900D01*
X533742Y571399D02*
X550900D01*
X533898Y570499D02*
X550900D01*
X533646Y569599D02*
X550900D01*
X533423Y568699D02*
X550900D01*
X534095Y567799D02*
X550900D01*
X534250Y566899D02*
X550900D01*
X533999Y565999D02*
X550900D01*
X533520Y565099D02*
X550900D01*
X532931Y564199D02*
X550900D01*
X531300Y581299D02*
X550790D01*
X530908Y582199D02*
X549888D01*
X530008Y583099D02*
X542194D01*
X529108Y583999D02*
X541294D01*
X528208Y584899D02*
X540394D01*
X501749Y585799D02*
X539494D01*
X501700Y586699D02*
X538594D01*
X501700Y587599D02*
X537694D01*
X501700Y588499D02*
X536794D01*
X501700Y589399D02*
X535894D01*
X501700Y590299D02*
X534994D01*
X501700Y591199D02*
X534094D01*
X501700Y592099D02*
X533194D01*
X501700Y592999D02*
X532294D01*
X501700Y593899D02*
X531222D01*
X501700Y594799D02*
X518094D01*
X501700Y595699D02*
X517194D01*
X501700Y596599D02*
X516294D01*
X501700Y597499D02*
X515394D01*
X501700Y623599D02*
X515300D01*
X501700Y622699D02*
X515300D01*
X501700Y621799D02*
X515300D01*
X501700Y620899D02*
X515300D01*
X501700Y619999D02*
X515300D01*
X501700Y619099D02*
X515300D01*
X501700Y618199D02*
X515300D01*
X501700Y617299D02*
X515300D01*
X501700Y616399D02*
X515300D01*
X501700Y615499D02*
X515300D01*
X501700Y614599D02*
X515300D01*
X501700Y613699D02*
X515300D01*
X501700Y612799D02*
X515300D01*
X501700Y611899D02*
X515300D01*
X501700Y610999D02*
X515300D01*
X501700Y610099D02*
X515300D01*
X501700Y609199D02*
X515300D01*
X501700Y608299D02*
X515300D01*
X501700Y607399D02*
X515300D01*
X501700Y606499D02*
X515300D01*
X501700Y605599D02*
X515300D01*
X501700Y604699D02*
X515300D01*
X501700Y603799D02*
X515300D01*
X501700Y602899D02*
X515300D01*
X501700Y601999D02*
X515300D01*
X501700Y601099D02*
X515300D01*
X501700Y600199D02*
X515300D01*
X501700Y599299D02*
X515300D01*
X501700Y598399D02*
X515300D01*
X501710Y624499D02*
X515290D01*
X674700Y549899D02*
X703750D01*
X674700Y548999D02*
X703750D01*
X674700Y548099D02*
X703750D01*
X674700Y547199D02*
X703750D01*
X674700Y546299D02*
X703750D01*
X674700Y545399D02*
X703750D01*
X674700Y544499D02*
X703750D01*
X674700Y543599D02*
X703750D01*
X674700Y542699D02*
X703750D01*
X678362Y541799D02*
X703750D01*
X678980Y540899D02*
X703750D01*
X679191Y539999D02*
X703750D01*
X680081Y539099D02*
X703750D01*
X680866Y538199D02*
X703750D01*
X681000Y537299D02*
X703750D01*
X683185Y536399D02*
X703750D01*
X683465Y535499D02*
X703750D01*
X683465Y534599D02*
X703750D01*
X683408Y533699D02*
X703750D01*
X674700Y532799D02*
X703750D01*
X674700Y531899D02*
X703750D01*
X674700Y530999D02*
X703750D01*
X674700Y530099D02*
X703750D01*
X674700Y529199D02*
X703750D01*
X674700Y528299D02*
X703750D01*
X674700Y527399D02*
X703750D01*
X674700Y526499D02*
X703750D01*
X674700Y525599D02*
X703750D01*
X674700Y524699D02*
X703750D01*
X674700Y523799D02*
X703750D01*
X674700Y522899D02*
X703750D01*
X674700Y521999D02*
X703750D01*
X674700Y521099D02*
X703750D01*
X674647Y520199D02*
X703750D01*
X674371Y519299D02*
X703750D01*
X674700Y550799D02*
X703130D01*
X674127Y518399D02*
X703106D01*
X674700Y551699D02*
X702230D01*
X661650Y517499D02*
X702206D01*
X674700Y552599D02*
X701330D01*
X650100Y516599D02*
X701306D01*
X674700Y553499D02*
X700430D01*
X650100Y515699D02*
X700406D01*
X688903Y554399D02*
X699530D01*
X650100Y514799D02*
X699506D01*
X689000Y555299D02*
X698630D01*
X649817Y513899D02*
X698606D01*
X689000Y556199D02*
X697730D01*
X648954Y512999D02*
X697706D01*
X689000Y557099D02*
X696830D01*
X587456Y512099D02*
X696806D01*
X689000Y557999D02*
X695930D01*
X587751Y511199D02*
X695906D01*
X688853Y558899D02*
X695030D01*
X588651Y510299D02*
X695006D01*
X680969Y559799D02*
X694171D01*
X589551Y509399D02*
X694106D01*
X674900Y597599D02*
X693919D01*
X674900Y596699D02*
X693919D01*
X674900Y595799D02*
X693919D01*
X674900Y594899D02*
X693919D01*
X674900Y593999D02*
X693919D01*
X674900Y593099D02*
X693919D01*
X674900Y592199D02*
X693919D01*
X674900Y591299D02*
X693919D01*
X674900Y590399D02*
X693919D01*
X674900Y589499D02*
X693919D01*
X674900Y588599D02*
X693919D01*
X674900Y587699D02*
X693919D01*
X674900Y586799D02*
X693919D01*
X674900Y585899D02*
X693919D01*
X674900Y584999D02*
X693919D01*
X674900Y584099D02*
X693919D01*
X674900Y583199D02*
X693919D01*
X674900Y582299D02*
X693919D01*
X674900Y581399D02*
X693919D01*
X674900Y580499D02*
X693919D01*
X674900Y579599D02*
X693919D01*
X674900Y578699D02*
X693919D01*
X674900Y577799D02*
X693919D01*
X674900Y576899D02*
X693919D01*
X674900Y575999D02*
X693919D01*
X674900Y575099D02*
X693919D01*
X674900Y574199D02*
X693919D01*
X674900Y573299D02*
X693919D01*
X674900Y572399D02*
X693919D01*
X674900Y571499D02*
X693919D01*
X674900Y570599D02*
X693919D01*
X674900Y569699D02*
X693919D01*
X674900Y568799D02*
X693919D01*
X674900Y567899D02*
X693919D01*
X674900Y566999D02*
X693919D01*
X688706Y566099D02*
X693919D01*
X689000Y565199D02*
X693919D01*
X689000Y564299D02*
X693919D01*
X689000Y563399D02*
X693919D01*
X689000Y562499D02*
X693919D01*
X688971Y561599D02*
X693919D01*
X680321Y560699D02*
X693919D01*
X674900Y598499D02*
X693820D01*
X590451Y508499D02*
X693206D01*
X591351Y507599D02*
X692306D01*
X592251Y506699D02*
X691406D01*
X593151Y505799D02*
X690506D01*
X594051Y504899D02*
X689606D01*
X683568Y599399D02*
X689046D01*
X683665Y600299D02*
X688146D01*
X683665Y601199D02*
X687420D01*
X637823Y611099D02*
X687300D01*
X638446Y610199D02*
X687300D01*
X648258Y609299D02*
X687300D01*
X649757Y608399D02*
X687300D01*
X650657Y607499D02*
X687300D01*
X651544Y606599D02*
X687300D01*
X678663Y605699D02*
X687300D01*
X680123Y604799D02*
X687300D01*
X681001Y603899D02*
X687300D01*
X681303Y602999D02*
X687300D01*
X683464Y602099D02*
X687300D01*
X636953Y611999D02*
X687226D01*
X637420Y612899D02*
X686346D01*
X680776Y566099D02*
X684094D01*
X683223Y558899D02*
X683933D01*
X674700Y554399D02*
X683897D01*
X680150Y561599D02*
X683829D01*
X680866Y562499D02*
X683701D01*
X674700Y555299D02*
X682654D01*
X680739Y556199D02*
X681680D01*
X674700Y537299D02*
X677747D01*
X674700Y538199D02*
X676364D01*
X674381Y602099D02*
X676122D01*
X674900Y599399D02*
X676051D01*
X674700Y536399D02*
X676034D01*
X674682Y601199D02*
X675954D01*
X674900Y600299D02*
X675954D01*
X674700Y533699D02*
X675811D01*
X674700Y535499D02*
X675754D01*
X674700Y534599D02*
X675754D01*
X674784Y541799D02*
X675638D01*
X674890Y556199D02*
X675510D01*
X651897Y605699D02*
X664537D01*
X662559Y518399D02*
X663872D01*
X661257Y598499D02*
X663300D01*
X662157Y597599D02*
X663299D01*
X660451Y599399D02*
X663283D01*
X654484Y604799D02*
X663077D01*
X655298Y603899D02*
X662059D01*
X658469Y600299D02*
X660730D01*
X655551Y602999D02*
X660476D01*
X658469Y601199D02*
X660188D01*
X658267Y602099D02*
X660121D01*
X650302Y517499D02*
X650900D01*
X501700Y502199D02*
X589472D01*
X549146Y503099D02*
X588780D01*
X556030Y503999D02*
X587880D01*
X575146Y508499D02*
X586188D01*
X556068Y504899D02*
X586132D01*
X556068Y507599D02*
X585876D01*
X556068Y505799D02*
X585588D01*
X556068Y506699D02*
X585521D01*
X576120Y509399D02*
X585308D01*
X577020Y510299D02*
X584408D01*
X558878Y512099D02*
X567540D01*
X558522Y511199D02*
X567234D01*
X556068Y508499D02*
X567152D01*
X556826Y510299D02*
X566760D01*
X556068Y509399D02*
X566739D01*
X559082Y512999D02*
X563646D01*
X560117Y513899D02*
X562746D01*
X560150Y514799D02*
X561846D01*
X560367Y515699D02*
X560934D01*
X501700Y503099D02*
X529964D01*
X501700Y503999D02*
X529068D01*
X501700Y504899D02*
X528211D01*
X501700Y505799D02*
X525250D01*
X501700Y507599D02*
X525224D01*
X501700Y506699D02*
X525224D01*
X501700Y508499D02*
X524890D01*
X501700Y509399D02*
X523990D01*
X501700Y510299D02*
X518380D01*
X501700Y511199D02*
X517480D01*
X501700Y512099D02*
X516681D01*
X501700Y518399D02*
X516514D01*
X501700Y517499D02*
X516514D01*
X501700Y516599D02*
X516514D01*
X501700Y515699D02*
X516514D01*
X501700Y514799D02*
X516514D01*
X501700Y513899D02*
X516514D01*
X501700Y512999D02*
X516514D01*
X501700Y519299D02*
X516180D01*
X501700Y520199D02*
X506665D01*
X501700Y521099D02*
X505580D01*
X501700Y521999D02*
X504758D01*
X501700Y530099D02*
X504300D01*
X501700Y529199D02*
X504300D01*
X501700Y528299D02*
X504266D01*
X501700Y530999D02*
X503836D01*
X501700Y522899D02*
X503595D01*
X501700Y527399D02*
X503070D01*
X501700Y523799D02*
X502955D01*
X501700Y526499D02*
X502950D01*
X501700Y525599D02*
X502950D01*
X501700Y524699D02*
X502950D01*
X643500Y579599D02*
X663300D01*
X643533Y578699D02*
X663300D01*
X644142Y577799D02*
X663300D01*
X644298Y576899D02*
X663300D01*
X662231Y580499D02*
X663268D01*
X644216Y575999D02*
X663258D01*
X643500Y580499D02*
X659769D01*
X643500Y581399D02*
X649834D01*
X643500Y582299D02*
X648934D01*
X643479Y583199D02*
X647854D01*
X643479Y584099D02*
X646746D01*
X643479Y584999D02*
X645846D01*
X643504Y585899D02*
X644983D01*
X644212Y561599D02*
X665097D01*
X644108Y560699D02*
X664430D01*
X644279Y562499D02*
X664146D01*
X661620Y559799D02*
X663443D01*
X643924Y563399D02*
X663420D01*
X644278Y571499D02*
X663300D01*
X643922Y570599D02*
X663300D01*
X643697Y569699D02*
X663300D01*
X643317Y568799D02*
X663300D01*
X642427Y567899D02*
X663300D01*
X642723Y566999D02*
X663300D01*
X643527Y566099D02*
X663300D01*
X643700Y565199D02*
X663300D01*
X643700Y564299D02*
X663300D01*
X644310Y572399D02*
X663259D01*
X643700Y553499D02*
X662900D01*
X643700Y552599D02*
X662900D01*
X643443Y551699D02*
X662900D01*
X642617Y550799D02*
X662900D01*
X643259Y549899D02*
X662900D01*
X643654Y548999D02*
X662900D01*
X643654Y548099D02*
X662900D01*
X643654Y547199D02*
X662900D01*
X643654Y546299D02*
X662900D01*
X643530Y545399D02*
X662900D01*
X642366Y544499D02*
X662900D01*
X643260Y543599D02*
X662900D01*
X643963Y542699D02*
X662899D01*
X643773Y554399D02*
X662776D01*
X644239Y555299D02*
X661877D01*
X644262Y556199D02*
X660977D01*
X644016Y557099D02*
X660077D01*
X652023Y537299D02*
X662900D01*
X657988Y536399D02*
X662900D01*
X658269Y535499D02*
X662900D01*
X658269Y534599D02*
X662900D01*
X659583Y533699D02*
X662900D01*
X661082Y532799D02*
X662900D01*
X661982Y531899D02*
X662808D01*
X651123Y538199D02*
X661164D01*
X650355Y539099D02*
X660012D01*
X635353Y557999D02*
X641288D01*
X636029Y553499D02*
X640700D01*
X636029Y554399D02*
X640627D01*
X634160Y558899D02*
X640579D01*
X636023Y557099D02*
X640550D01*
X636029Y555299D02*
X640161D01*
X636029Y552599D02*
X640139D01*
X636029Y556199D02*
X640138D01*
X635766Y544499D02*
X639592D01*
X635916Y551699D02*
X639528D01*
X634921Y550799D02*
X639479D01*
X636659Y549899D02*
X638698D01*
X636660Y543599D02*
X638697D01*
X636930Y545399D02*
X638427D01*
X637054Y548999D02*
X638304D01*
X637054Y548099D02*
X638304D01*
X637054Y547199D02*
X638304D01*
X637054Y546299D02*
X638304D01*
X637054Y542699D02*
X638304D01*
X637054Y541799D02*
X638304D01*
X637054Y540899D02*
X638304D01*
X624900Y544499D02*
X632992D01*
X625323Y543599D02*
X632097D01*
X624900Y545399D02*
X631827D01*
X630223Y542699D02*
X631704D01*
X624900Y546299D02*
X629555D01*
X624900Y547199D02*
X628640D01*
X624900Y548099D02*
X627740D01*
X624900Y548999D02*
X627309D01*
X624900Y552599D02*
X627300D01*
X624900Y551699D02*
X627300D01*
X624900Y550799D02*
X627300D01*
X624900Y549899D02*
X627300D01*
X624900Y553499D02*
X627201D01*
X624900Y554399D02*
X626308D01*
X585007Y582299D02*
X590873D01*
X585327Y581399D02*
X590781D01*
X585327Y580499D02*
X590781D01*
X585370Y579599D02*
X590781D01*
X586223Y578699D02*
X590781D01*
X584123Y583199D02*
X590653D01*
X583223Y584099D02*
X589753D01*
X582323Y584999D02*
X588853D01*
X582028Y585899D02*
X587953D01*
X559900Y571499D02*
X567945D01*
X566151Y577799D02*
X567849D01*
X559966Y576899D02*
X567747D01*
X559900Y572399D02*
X567671D01*
X559914Y570599D02*
X567475D01*
X559900Y575999D02*
X567475D01*
X559900Y575099D02*
X567475D01*
X559900Y574199D02*
X567475D01*
X559900Y573299D02*
X567475D01*
X560709Y569699D02*
X567475D01*
X561609Y568799D02*
X567475D01*
X562509Y567899D02*
X567475D01*
X566649Y578699D02*
X567351D01*
X560827Y577799D02*
X561550D01*
X556657Y560699D02*
X561223D01*
X554857Y562499D02*
X561176D01*
X555757Y561599D02*
X561176D01*
X553957Y563399D02*
X560767D01*
X553057Y564299D02*
X559867D01*
X552500Y565199D02*
X558967D01*
X557557Y559799D02*
X558748D01*
X539857Y587699D02*
X558142D01*
X540757Y586799D02*
X558142D01*
X541657Y585899D02*
X558142D01*
X542557Y584999D02*
X558142D01*
X543457Y584099D02*
X558142D01*
X552500Y566099D02*
X558067D01*
X538957Y588599D02*
X557735D01*
X552500Y566999D02*
X557167D01*
X538057Y589499D02*
X556835D01*
X552500Y567899D02*
X556267D01*
X537157Y590399D02*
X555935D01*
X552500Y568799D02*
X555503D01*
X551157Y583199D02*
X555450D01*
X552500Y576899D02*
X555370D01*
X552500Y575999D02*
X555370D01*
X552500Y575099D02*
X555370D01*
X552500Y574199D02*
X555370D01*
X552500Y573299D02*
X555370D01*
X552500Y572399D02*
X555370D01*
X552500Y571499D02*
X555370D01*
X552500Y570599D02*
X555370D01*
X552500Y569699D02*
X555370D01*
X552500Y577799D02*
X554930D01*
X552056Y582299D02*
X554490D01*
X552500Y578699D02*
X554112D01*
X552487Y581399D02*
X553999D01*
X552500Y580499D02*
X553998D01*
X552500Y579599D02*
X553998D01*
X536257Y591299D02*
X539782D01*
X535357Y592199D02*
X538880D01*
X534457Y593099D02*
X537980D01*
X533557Y593999D02*
X537080D01*
X532657Y594899D02*
X536180D01*
X532561Y595799D02*
X535273D01*
X553159Y532799D02*
X554996D01*
X553015Y533699D02*
X554925D01*
X553015Y534599D02*
X554353D01*
X520617Y547199D02*
X554300D01*
X521423Y546299D02*
X554300D01*
X544942Y545399D02*
X554300D01*
X546023Y544499D02*
X554300D01*
X546923Y543599D02*
X554300D01*
X547823Y542699D02*
X554300D01*
X548723Y541799D02*
X554300D01*
X549623Y540899D02*
X554300D01*
X550523Y539999D02*
X554300D01*
X551423Y539099D02*
X554300D01*
X552323Y538199D02*
X554300D01*
X552957Y537299D02*
X554300D01*
X553015Y536399D02*
X554300D01*
X553015Y535499D02*
X554300D01*
X520600Y548099D02*
X553836D01*
X520600Y548999D02*
X547446D01*
X520600Y549899D02*
X546546D01*
X520600Y550799D02*
X545646D01*
X520654Y551699D02*
X544746D01*
X523932Y552599D02*
X543846D01*
X524442Y553499D02*
X542946D01*
X554415Y527399D02*
X560500D01*
X554413Y526499D02*
X560500D01*
X553847Y525599D02*
X560500D01*
X551283Y524699D02*
X560500D01*
X557642Y523799D02*
X560500D01*
X558165Y522899D02*
X560500D01*
X558165Y521999D02*
X560500D01*
X558165Y521099D02*
X560500D01*
X558259Y520199D02*
X560500D01*
X559075Y519299D02*
X560500D01*
X559408Y518399D02*
X560455D01*
X559964Y528299D02*
X560036D01*
X554415D02*
X558108D01*
X554415Y529199D02*
X557154D01*
X554415Y530099D02*
X556580D01*
X554415Y530999D02*
X555794D01*
X552164Y523799D02*
X552889D01*
X538981Y535499D02*
X550015D01*
X539125Y534599D02*
X550015D01*
X542264Y533699D02*
X550015D01*
X538981Y536399D02*
X549880D01*
X543164Y532799D02*
X549872D01*
X538981Y537299D02*
X548980D01*
X544064Y531899D02*
X548668D01*
X544964Y530999D02*
X548615D01*
X545864Y530099D02*
X548615D01*
X546764Y529199D02*
X548615D01*
X547664Y528299D02*
X548545D01*
X538981Y538199D02*
X548080D01*
X538981Y539099D02*
X547180D01*
X538981Y539999D02*
X546280D01*
X538752Y540899D02*
X545380D01*
X519200Y541799D02*
X544480D01*
X525852Y540899D02*
X533410D01*
X526081Y539999D02*
X533181D01*
X526081Y539099D02*
X530579D01*
X526750Y538199D02*
X528838D01*
X527729Y537299D02*
X528033D01*
X519200Y542699D02*
X520854D01*
X519200Y540899D02*
X520510D01*
X519200Y539999D02*
X520281D01*
X519200Y539099D02*
X520281D01*
X519200Y538199D02*
X520281D01*
X538179Y513899D02*
X548535D01*
X536829Y517499D02*
X548516D01*
X537786Y516599D02*
X548502D01*
X538179Y515699D02*
X548502D01*
X538179Y514799D02*
X548502D01*
X536862Y518399D02*
X545283D01*
X537603Y521099D02*
X544865D01*
X537603Y520199D02*
X544865D01*
X537563Y519299D02*
X544865D01*
X537603Y521999D02*
X544707D01*
X537603Y522899D02*
X543807D01*
X537421Y523799D02*
X542907D01*
X529816Y524699D02*
X542007D01*
X529815Y525599D02*
X541107D01*
X529815Y526499D02*
X535626D01*
X529815Y530999D02*
X535553D01*
X529815Y530099D02*
X535553D01*
X529815Y529199D02*
X535553D01*
X529815Y528299D02*
X535553D01*
X529815Y527399D02*
X535553D01*
X531004Y523799D02*
X531985D01*
X537935Y509399D02*
X547868D01*
X537979Y508499D02*
X547868D01*
X537979Y507599D02*
X547868D01*
X537979Y506699D02*
X547868D01*
X523125Y517499D02*
X526889D01*
X522316Y524699D02*
X526813D01*
X522455Y525599D02*
X526674D01*
X523090Y518399D02*
X526646D01*
X524683Y516599D02*
X525852D01*
X523504Y523799D02*
X525626D01*
X523685Y519299D02*
X525444D01*
X523715Y522899D02*
X525415D01*
X523715Y521999D02*
X525415D01*
X523715Y521099D02*
X525415D01*
X523715Y520199D02*
X525415D01*
X516900Y611999D02*
X526700D01*
X516900Y611099D02*
X526700D01*
X516900Y610199D02*
X526465D01*
X516900Y612899D02*
X526180D01*
X519357Y595799D02*
X525829D01*
X516900Y609299D02*
X525573D01*
X518457Y596699D02*
X525380D01*
X516900Y613799D02*
X525280D01*
X516900Y608399D02*
X524819D01*
X516900Y614699D02*
X524731D01*
X516900Y615599D02*
X524700D01*
X516900Y616499D02*
X524690D01*
X517611Y597599D02*
X524480D01*
X516900Y607499D02*
X523919D01*
X523278Y598499D02*
X523453D01*
X516900Y606599D02*
X523414D01*
X516900Y605699D02*
X523400D01*
X516900Y604799D02*
X523400D01*
X516900Y603899D02*
X523400D01*
X516900Y617399D02*
X522279D01*
X516900Y624599D02*
X522277D01*
X516900Y623699D02*
X522100D01*
X516900Y622799D02*
X522100D01*
X516900Y621899D02*
X522100D01*
X516900Y620999D02*
X522100D01*
X516900Y620099D02*
X522100D01*
X516900Y619199D02*
X522100D01*
X516900Y618299D02*
X522100D01*
X516900Y602999D02*
X518243D01*
X516900Y598499D02*
X518089D01*
X516900Y602099D02*
X517925D01*
X516900Y601199D02*
X517925D01*
X516900Y600299D02*
X517925D01*
X516900Y599399D02*
X517925D01*
X501700Y580499D02*
X529700D01*
X501700Y579599D02*
X529700D01*
X523827Y578699D02*
X529700D01*
X524405Y577799D02*
X529700D01*
X501700Y581399D02*
X529446D01*
X501700Y582299D02*
X528546D01*
X501700Y583199D02*
X527646D01*
X501700Y578699D02*
X520413D01*
X501700Y561599D02*
X519978D01*
X501700Y575999D02*
X519891D01*
X501700Y577799D02*
X519836D01*
X501700Y576899D02*
X519690D01*
X501700Y575099D02*
X519645D01*
X501700Y562499D02*
X519496D01*
X507300Y530099D02*
X519315D01*
X507300Y529199D02*
X519315D01*
X507334Y528299D02*
X519315D01*
X508530Y527399D02*
X519315D01*
X508650Y526499D02*
X519315D01*
X508650Y525599D02*
X519315D01*
X508650Y524699D02*
X519313D01*
X507409Y530999D02*
X519302D01*
X501700Y560699D02*
X519302D01*
X501700Y559799D02*
X519049D01*
X501700Y563399D02*
X518635D01*
X508131Y531899D02*
X518512D01*
X501700Y570599D02*
X518400D01*
X501700Y569699D02*
X518400D01*
X501700Y568799D02*
X518400D01*
X501700Y567899D02*
X518400D01*
X501700Y566999D02*
X518400D01*
X501700Y566099D02*
X518400D01*
X501700Y565199D02*
X518400D01*
X501700Y564299D02*
X518400D01*
X501700Y571499D02*
X518319D01*
X501700Y558899D02*
X518177D01*
X508645Y523799D02*
X518126D01*
X501700Y574199D02*
X518076D01*
X516751Y522899D02*
X517901D01*
X501700Y572399D02*
X517788D01*
X501700Y573299D02*
X517721D01*
X508150Y532799D02*
X517612D01*
X501700Y557999D02*
X517277D01*
X508150Y533699D02*
X516712D01*
X501700Y557099D02*
X516430D01*
X501700Y556199D02*
X516200D01*
X501700Y555299D02*
X516200D01*
X501700Y554399D02*
X516200D01*
X501700Y553499D02*
X516200D01*
X501700Y552599D02*
X516200D01*
X501700Y551699D02*
X516200D01*
X501700Y550799D02*
X516200D01*
X501700Y549899D02*
X516200D01*
X501700Y548999D02*
X516200D01*
X501700Y548099D02*
X516200D01*
X501700Y547199D02*
X516200D01*
X501700Y546299D02*
X516200D01*
X511261Y545399D02*
X516200D01*
X511896Y544499D02*
X516200D01*
X511900Y543599D02*
X516200D01*
X511974Y542699D02*
X516200D01*
X512854Y541799D02*
X516200D01*
X513754Y540899D02*
X516200D01*
X514654Y539999D02*
X516200D01*
X508150Y534599D02*
X515812D01*
X508150Y535499D02*
X514912D01*
X507900Y536399D02*
X514012D01*
X501700Y537299D02*
X513112D01*
X501700Y538199D02*
X512212D01*
X501700Y545399D02*
X506739D01*
X501700Y539099D02*
X506142D01*
X501700Y544499D02*
X506104D01*
X501700Y543599D02*
X506100D01*
X501700Y542699D02*
X506100D01*
X501700Y541799D02*
X506100D01*
X501700Y540899D02*
X506100D01*
X501700Y539999D02*
X506100D01*
X501800Y536399D02*
X502600D01*
X550123Y624599D02*
X632256D01*
X590729Y623699D02*
X631903D01*
X591680Y622799D02*
X631900D01*
X592035Y621899D02*
X631900D01*
X592052Y620999D02*
X631799D01*
X591738Y620099D02*
X626966D01*
X610940Y619199D02*
X626066D01*
X612047Y618299D02*
X625166D01*
X612639Y617399D02*
X624266D01*
X612951Y616499D02*
X623366D01*
X613047Y615599D02*
X622466D01*
X612943Y614699D02*
X621566D01*
X612623Y613799D02*
X620666D01*
X612018Y612899D02*
X619766D01*
X610878Y611999D02*
X618866D01*
X563700Y611099D02*
X617966D01*
X563700Y610199D02*
X617066D01*
X563700Y609299D02*
X616166D01*
X563700Y608399D02*
X615266D01*
X563700Y607499D02*
X614366D01*
X563700Y606599D02*
X613471D01*
X563700Y605699D02*
X613038D01*
X563722Y604799D02*
X612987D01*
X605300Y595799D02*
X609900D01*
X605033Y594899D02*
X609900D01*
X604167Y593999D02*
X609900D01*
X603717Y593099D02*
X609700D01*
X605300Y596699D02*
X609552D01*
X605364Y598499D02*
X609160D01*
X605300Y597599D02*
X609139D01*
X606653Y603899D02*
X608947D01*
X606703Y599399D02*
X608897D01*
X604342Y592199D02*
X608800D01*
X606800Y602999D02*
X608800D01*
X606800Y602099D02*
X608800D01*
X606800Y601199D02*
X608800D01*
X606800Y600299D02*
X608800D01*
X604498Y591299D02*
X607900D01*
X563700Y611999D02*
X607016D01*
X604246Y590399D02*
X607000D01*
X590891Y619199D02*
X606954D01*
X603716Y589499D02*
X606100D01*
X563700Y612899D02*
X605877D01*
X550300Y618299D02*
X605847D01*
X563646Y613799D02*
X605272D01*
X550489Y617399D02*
X605255D01*
X603716Y588599D02*
X605200D01*
X563023Y614699D02*
X604951D01*
X561223Y616499D02*
X604943D01*
X562123Y615599D02*
X604847D01*
X603771Y587699D02*
X604660D01*
X599631Y598499D02*
X602300D01*
X599779Y597599D02*
X602300D01*
X599779Y596699D02*
X602300D01*
X599215Y603899D02*
X601747D01*
X599779Y595799D02*
X601725D01*
X600039Y599399D02*
X601697D01*
X600061Y602999D02*
X601600D01*
X600075Y602099D02*
X601600D01*
X600075Y601199D02*
X601600D01*
X600075Y600299D02*
X601600D01*
X599805Y594899D02*
X600825D01*
X594733Y596699D02*
X596779D01*
X595633Y595799D02*
X596775D01*
X593833Y597599D02*
X596359D01*
X593149Y598499D02*
X595800D01*
X592815Y603899D02*
X595585D01*
X593639Y599399D02*
X594761D01*
X593661Y602999D02*
X594739D01*
X593675Y602099D02*
X594725D01*
X593675Y601199D02*
X594725D01*
X593675Y600299D02*
X594725D01*
X586415Y603899D02*
X589185D01*
X587239Y599399D02*
X588361D01*
X587261Y602999D02*
X588339D01*
X587275Y602099D02*
X588325D01*
X587275Y601199D02*
X588325D01*
X587275Y600299D02*
X588325D01*
X581674Y623699D02*
X588182D01*
X581835Y619199D02*
X588020D01*
X582625Y622799D02*
X587230D01*
X582683Y620099D02*
X587172D01*
X582980Y621899D02*
X586875D01*
X582997Y620999D02*
X586858D01*
X580015Y603899D02*
X582785D01*
X580839Y599399D02*
X581961D01*
X580861Y602999D02*
X581939D01*
X580875Y602099D02*
X581925D01*
X580875Y601199D02*
X581925D01*
X580875Y600299D02*
X581925D01*
X581016Y598499D02*
X581402D01*
X550300Y623699D02*
X579126D01*
X550300Y619199D02*
X578965D01*
X550300Y622799D02*
X578175D01*
X550300Y620099D02*
X578117D01*
X550300Y621899D02*
X577820D01*
X550300Y620999D02*
X577803D01*
X573432Y597599D02*
X576873D01*
X573432Y596699D02*
X576873D01*
X573432Y595799D02*
X576873D01*
X573432Y594899D02*
X576873D01*
X573441Y593999D02*
X576873D01*
X574223Y593099D02*
X576873D01*
X575123Y592199D02*
X576873D01*
X576023Y591299D02*
X576724D01*
X573447Y598499D02*
X576669D01*
X574043Y603899D02*
X576385D01*
X574366Y599399D02*
X575561D01*
X574475Y602999D02*
X575539D01*
X574475Y602099D02*
X575525D01*
X574475Y601199D02*
X575525D01*
X574475Y600299D02*
X575525D01*
X568253Y603899D02*
X569557D01*
X592176Y573299D02*
X614382D01*
X592176Y563399D02*
X614381D01*
X592194Y561599D02*
X614363D01*
X592196Y575099D02*
X614361D01*
X592211Y571499D02*
X614346D01*
X592214Y565199D02*
X614344D01*
X592228Y555299D02*
X614330D01*
X592237Y559799D02*
X614321D01*
X592245Y569699D02*
X614312D01*
X592246Y566999D02*
X614312D01*
X592251Y557099D02*
X614307D01*
X592253Y557999D02*
X614305D01*
X592253Y575999D02*
X614305D01*
X592253Y574199D02*
X614305D01*
X592253Y572399D02*
X614305D01*
X592253Y570599D02*
X614305D01*
X592253Y568799D02*
X614305D01*
X592253Y567899D02*
X614305D01*
X592253Y566099D02*
X614305D01*
X592253Y564299D02*
X614305D01*
X592253Y562499D02*
X614305D01*
X592253Y560699D02*
X614305D01*
X592253Y558899D02*
X614305D01*
X592253Y556199D02*
X614305D01*
X592448Y554399D02*
X614109D01*
X611669Y553499D02*
X612448D01*
X603551Y576899D02*
X604817D01*
X575457Y524699D02*
X615076D01*
X574557Y525599D02*
X614184D01*
X610920Y533699D02*
X612150D01*
X610020Y532799D02*
X612150D01*
X571900Y531899D02*
X612150D01*
X571900Y530999D02*
X611161D01*
X573657Y526499D02*
X610877D01*
X571900Y530099D02*
X610697D01*
X571900Y529199D02*
X610697D01*
X571928Y528299D02*
X610697D01*
X572757Y527399D02*
X610697D01*
X622105Y593999D02*
X625656D01*
X623052Y594899D02*
X624646D01*
X622100Y593099D02*
X624577D01*
X621868Y592199D02*
X623677D01*
X621020Y591299D02*
X622777D01*
X620120Y590399D02*
X621881D01*
X619220Y589499D02*
X621503D01*
X618320Y588599D02*
X621500D01*
X617420Y587699D02*
X621500D01*
X616520Y586799D02*
X621500D01*
X615627Y585899D02*
X621500D01*
X615527Y584999D02*
X621500D01*
X615527Y584099D02*
X621500D01*
X615527Y583199D02*
X621500D01*
X615527Y582299D02*
X621500D01*
X615619Y581399D02*
X621500D01*
X615619Y580499D02*
X621500D01*
X615619Y579599D02*
X621500D01*
X615619Y578699D02*
X621376D01*
X619552Y577799D02*
X620457D01*
X631520Y592199D02*
X633300D01*
X630620Y591299D02*
X632923D01*
X626120Y590399D02*
X632293D01*
X625220Y589499D02*
X630864D01*
X624501Y588599D02*
X627670D01*
X624500Y587699D02*
X626749D01*
X624500Y586799D02*
X626013D01*
X624500Y585899D02*
X625900D01*
X624500Y584999D02*
X625900D01*
X624500Y584099D02*
X625900D01*
X624500Y583199D02*
X625900D01*
X624500Y582299D02*
X625900D01*
X624500Y581399D02*
X625897D01*
X626700Y577799D02*
X630429D01*
X625800Y576899D02*
X630323D01*
X627600Y578699D02*
X629194D01*
X624900Y575999D02*
X629188D01*
X624000Y575099D02*
X627288D01*
X623407Y574199D02*
X626388D01*
X626051Y558899D02*
X630956D01*
X626951Y557999D02*
X630892D01*
X627851Y557099D02*
X630235D01*
X628751Y556199D02*
X630229D01*
X625558Y559799D02*
X629344D01*
X701000Y597599D02*
X711950D01*
X701000Y596699D02*
X711950D01*
X701000Y595799D02*
X711950D01*
X701000Y594899D02*
X711950D01*
X701000Y593999D02*
X711929D01*
X701099Y598499D02*
X711851D01*
X709592Y593099D02*
X710808D01*
X701008D02*
X704508D01*
X724654Y600299D02*
X726700D01*
X723754Y599399D02*
X726700D01*
X714849Y598499D02*
X726700D01*
X714750Y597599D02*
X726700D01*
X714750Y596699D02*
X726700D01*
X714750Y595799D02*
X726700D01*
X714750Y594899D02*
X726700D01*
X714770Y593999D02*
X726700D01*
X715892Y593099D02*
X726700D01*
X716024Y592199D02*
X726700D01*
X716024Y591299D02*
X726700D01*
X716024Y590399D02*
X726700D01*
X716024Y589499D02*
X726700D01*
X715650Y588599D02*
X726700D01*
X715253Y587699D02*
X726700D01*
X716001Y586799D02*
X726700D01*
X716024Y585899D02*
X726700D01*
X716024Y584999D02*
X726700D01*
X716024Y584099D02*
X726700D01*
X716001Y583199D02*
X726700D01*
X712167Y582299D02*
X726700D01*
X712066Y581399D02*
X726700D01*
X712696Y580499D02*
X726700D01*
X712700Y579599D02*
X726700D01*
X712700Y578699D02*
X726700D01*
X712700Y577799D02*
X726700D01*
X712700Y576899D02*
X726700D01*
X712700Y575999D02*
X726700D01*
X712658Y575099D02*
X726700D01*
X696919Y574199D02*
X726700D01*
X696919Y573299D02*
X726700D01*
X708700Y572399D02*
X726700D01*
X708950Y571499D02*
X726700D01*
X708950Y570599D02*
X726700D01*
X708950Y569699D02*
X726700D01*
X708950Y568799D02*
X726700D01*
X708931Y567899D02*
X726700D01*
X708388Y566999D02*
X726700D01*
X709306Y566099D02*
X726700D01*
X709650Y565199D02*
X726700D01*
X709650Y564299D02*
X726700D01*
X709650Y563399D02*
X726700D01*
X709650Y562499D02*
X726700D01*
X709397Y561599D02*
X726700D01*
X708050Y560699D02*
X726700D01*
X708050Y559799D02*
X726700D01*
X709053Y558899D02*
X726700D01*
X709325Y557999D02*
X726700D01*
X709325Y557099D02*
X726700D01*
X709325Y556199D02*
X726700D01*
X709325Y555299D02*
X726700D01*
X709129Y554399D02*
X726700D01*
X708151Y553499D02*
X726700D01*
X708150Y552599D02*
X726700D01*
X708150Y551699D02*
X726700D01*
X708150Y550799D02*
X726700D01*
X708150Y549899D02*
X726700D01*
X708150Y548999D02*
X726700D01*
X708150Y548099D02*
X726700D01*
X708150Y547199D02*
X726700D01*
X708150Y546299D02*
X726700D01*
X708150Y545399D02*
X726700D01*
X708150Y544499D02*
X726700D01*
X708150Y543599D02*
X726700D01*
X708150Y542699D02*
X726700D01*
X708150Y541799D02*
X726700D01*
X708150Y540899D02*
X726700D01*
X708150Y539999D02*
X726700D01*
X708150Y539099D02*
X726700D01*
X708150Y538199D02*
X726700D01*
X708150Y537299D02*
X726700D01*
X708150Y536399D02*
X726700D01*
X708150Y535499D02*
X726700D01*
X708150Y534599D02*
X726700D01*
X708150Y533699D02*
X726700D01*
X708150Y532799D02*
X726700D01*
X708150Y531899D02*
X726700D01*
X708150Y530999D02*
X726700D01*
X708150Y530099D02*
X726700D01*
X708150Y529199D02*
X726700D01*
X708150Y528299D02*
X726700D01*
X708150Y527399D02*
X726700D01*
X708150Y526499D02*
X726700D01*
X708150Y525599D02*
X726700D01*
X708150Y524699D02*
X726700D01*
X708150Y523799D02*
X726700D01*
X708150Y522899D02*
X726700D01*
X708150Y521999D02*
X726700D01*
X708150Y521099D02*
X726700D01*
X708150Y520199D02*
X726700D01*
X708150Y519299D02*
X726700D01*
X708150Y518399D02*
X726700D01*
X708111Y517499D02*
X726700D01*
X707528Y516599D02*
X726700D01*
X706628Y515699D02*
X726700D01*
X705728Y514799D02*
X726700D01*
X704828Y513899D02*
X726700D01*
X703928Y512999D02*
X726700D01*
X703028Y512099D02*
X726700D01*
X702128Y511199D02*
X726700D01*
X701228Y510299D02*
X726700D01*
X700328Y509399D02*
X726700D01*
X699428Y508499D02*
X726700D01*
X698528Y507599D02*
X726700D01*
X697628Y506699D02*
X726700D01*
X696728Y505799D02*
X726700D01*
X695828Y504899D02*
X726700D01*
X694928Y503999D02*
X726700D01*
X694028Y503099D02*
X726700D01*
X693337Y502199D02*
X726700D01*
X725554Y601199D02*
X726696D01*
X696919Y581399D02*
X707534D01*
X696919Y582299D02*
X707433D01*
X696919Y575099D02*
X706942D01*
X696919Y580499D02*
X706904D01*
X696919Y579599D02*
X706900D01*
X696919Y578699D02*
X706900D01*
X696919Y577799D02*
X706900D01*
X696919Y576899D02*
X706900D01*
X696919Y575999D02*
X706900D01*
X697473Y560699D02*
X705250D01*
X698373Y559799D02*
X705250D01*
X696919Y587699D02*
X705147D01*
X696919Y588599D02*
X704750D01*
X696919Y583199D02*
X704399D01*
X696919Y586799D02*
X704399D01*
X696919Y585899D02*
X704376D01*
X696919Y584999D02*
X704376D01*
X696919Y584099D02*
X704376D01*
X696919Y566099D02*
X704294D01*
X699273Y558899D02*
X704247D01*
X696919Y589499D02*
X704211D01*
X696919Y561599D02*
X704203D01*
X696919Y566999D02*
X704149D01*
X700173Y557999D02*
X703976D01*
X701073Y557099D02*
X703976D01*
X701973Y556199D02*
X703976D01*
X702873Y555299D02*
X703965D01*
X696919Y565199D02*
X703950D01*
X696919Y564299D02*
X703950D01*
X696919Y563399D02*
X703950D01*
X696919Y562499D02*
X703950D01*
X696919Y572399D02*
X703400D01*
X696919Y567899D02*
X703169D01*
X696919Y571499D02*
X703150D01*
X696919Y570599D02*
X703150D01*
X696919Y569699D02*
X703150D01*
X696919Y568799D02*
X703150D01*
X696919Y590399D02*
X699621D01*
X696919Y591299D02*
X698721D01*
X696919Y592199D02*
X698215D01*
X696919Y597599D02*
X698200D01*
X696919Y596699D02*
X698200D01*
X696919Y595799D02*
X698200D01*
X696919Y594899D02*
X698200D01*
X696919Y593999D02*
X698200D01*
X696919Y593099D02*
X698200D01*
X696989Y598499D02*
X698168D01*
X500600Y626584D02*
X727800D01*
Y500600*
X500600*
Y626584*
G54D51*
X527899Y507612D02*
X530710Y504400D01*
X548400*
X551286Y507286*
X551968*
X535329Y511600D02*
X556000D01*
X556800Y512400*
X535329Y511600D02*
Y514256D01*
X535304Y507518D02*
X535329D01*
Y511600*
X568800Y509800D02*
X574400D01*
X576600Y512000*
X584828*
X593828Y503000*
X689828*
X705250Y518422*
X587600Y506400D02*
X592400Y501600D01*
X690408*
X706650Y517842*
Y556600*
X505800Y525400D02*
X506066Y525134D01*
Y522734*
X507200Y521600*
X516000*
X518014Y519586*
Y512786*
X519722Y511078*
X524432*
X527899Y507612*
X505250Y533900D02*
X505750Y533400D01*
X505800*
Y525400*
X528315Y533000D02*
X540841D01*
X552779Y521062*
X555265*
X528315Y521351D02*
X528417D01*
Y514545*
X528315Y521351D02*
Y533000D01*
X520815Y521351D02*
X521573D01*
Y514545*
X522118*
X547765Y521062D02*
X548738D01*
X551190Y518610*
Y515744*
X538453Y529392D02*
X539435D01*
X547765Y521062*
X534703Y521392D02*
X535329D01*
Y514256*
X551176Y515744D02*
X551190D01*
X557200Y531600D02*
X558600Y530200D01*
X559000*
X557200Y531600D02*
Y532694D01*
X557396Y532890*
X555265Y521062D02*
X557772Y518555D01*
Y515744*
X557476D02*
X557772D01*
X607548Y528601D02*
X612058Y533112D01*
Y551227*
X627000Y531050D02*
Y529000D01*
X627800Y528200*
X634600*
X636200Y529800*
Y533350*
X621400Y531200D02*
Y529200D01*
X623800Y526800*
X634000*
X636200Y524600*
Y519850*
X509000Y541900D02*
X510632D01*
X520815Y531717*
Y521351*
X519100Y554496D02*
X523314Y558710D01*
X527620*
X519100Y554496D02*
Y546500D01*
X521600Y544000*
X544400*
X551515Y536885*
Y529062*
X530200Y536600D02*
X531600Y538000D01*
X536081*
Y537827*
X523181D02*
X525000D01*
X528315Y534512*
Y533000*
X553450Y552400D02*
X559650Y558600D01*
X569000*
X574200Y553400*
Y540200*
X575400Y539000*
X603800*
X606153Y541353*
Y551227*
X566950Y552400D02*
X571000D01*
X572200Y551200*
Y535000*
X573800Y533400*
X608500*
X610090Y534990*
Y551227*
X584000Y541200D02*
Y541400D01*
X598600*
X600247Y543047*
Y551227*
X576200Y536200D02*
X607000D01*
X608121Y537321*
Y551227*
X582921Y547446D02*
X583000Y547800D01*
X593542*
X594342Y548600*
Y551227*
X621400Y537200D02*
X621550Y537350D01*
X627000*
X617373Y554573D02*
X617400Y554546D01*
Y535450*
X621400Y531450*
Y531200*
X634379Y541181D02*
X636959Y538600D01*
X648600*
X652403Y534797*
X654413*
Y534857*
X640979Y541181D02*
X659781D01*
X661800Y540200*
X640979Y547480D02*
Y551317D01*
X642200Y552538*
Y555800*
X521200Y559800D02*
X517700Y556300D01*
Y537300*
X524565Y530435*
Y529351*
X570150Y562600D02*
X570200Y562550D01*
Y560200*
X576800Y553600*
Y546400*
X581600Y541600*
Y541400*
X583800*
X584000Y541200*
X570150Y574600D02*
X574200D01*
X576000Y572800*
Y564000*
X581490Y558510*
X584600*
Y558400*
X570150Y569000D02*
Y569082D01*
X570232*
X574200Y565113*
Y563372*
X581172Y556400*
X585000*
X589184*
Y556542*
X585000Y556400D02*
Y553400D01*
X587400Y551000*
X584600Y558400D02*
X587616Y558418D01*
X589184*
Y558510*
X608121Y560479D02*
X612058Y556542D01*
Y551227*
X632000Y574200D02*
Y581529D01*
X632006*
X617373Y574258D02*
X621038D01*
X627400Y580620*
Y586228*
X628572Y587400*
X630886*
X632347Y588860*
X635179*
X617373Y572290D02*
X626600D01*
X628510Y574200*
X632000*
X617373Y570321D02*
X637400D01*
X638200Y571121*
Y574000*
X617373Y568353D02*
X640753D01*
X642200Y569800*
Y571800*
X617373Y566384D02*
X641216D01*
X642200Y565400*
Y562200*
X617373Y564416D02*
X635357D01*
X635812Y563961*
X635812D02*
X637671Y561628D01*
X638144*
X617373Y562447D02*
X624458D01*
X625277Y561628*
X632144*
X617373Y560479D02*
X622350D01*
X628800Y554028*
Y549160*
X630480Y547480*
X634379*
X617373Y558510D02*
X621490D01*
X623400Y556600*
Y543400*
X625000Y541800*
X629000*
X630600Y540200*
Y534550*
X631800Y533350*
X636200*
X617373Y556542D02*
X619858D01*
X621400Y555000*
Y537200*
X632144Y561628D02*
X632620D01*
Y554584*
X633129*
X632144Y561628D02*
X632372D01*
X632400Y561600*
X638000Y574200D02*
X665400D01*
X666759Y572841*
X669573*
X638000Y574200D02*
X638200Y574000D01*
X638144Y561628D02*
Y560528D01*
X641072*
X642600Y559000*
X660297*
X669003Y550294*
X678150Y564200D02*
X686400D01*
Y563600*
X678150Y558200D02*
X681800D01*
X683400Y556600*
X686400*
X558400Y577479D02*
X559642Y578721D01*
Y588813*
X558400Y577479D02*
Y569887D01*
X562487Y565800*
X571513*
X572800Y564513*
Y561186*
X578800Y555186*
Y546673*
X581673Y543800*
X593820*
X598279Y548258*
Y551227*
X570150Y580200D02*
X574600D01*
X577600Y577200*
Y565816*
X579000Y564416*
X589184*
X570150Y585800D02*
X575584D01*
X579000Y582384*
Y568200*
X580816Y566384*
X589184*
X556870Y580268D02*
Y569416D01*
X563768Y562518*
X563850*
Y562600*
X584721Y594446D02*
X584775Y594500D01*
X591642*
X594342Y591800*
Y579573*
X602200Y584979D02*
X602216Y584963D01*
Y591216*
X602400Y591400*
X608184Y594400D02*
Y594551D01*
X608375Y594742*
X600247Y579573D02*
Y592200D01*
X603800Y595753*
Y601200*
X604200Y601600*
X602216Y579573D02*
Y584963D01*
X604184Y579573D02*
Y588800D01*
X608184Y592800*
Y594400*
X606153Y579573D02*
Y587430D01*
X611400Y592677*
Y601600*
X612058Y579573D02*
Y587658D01*
X616000Y591600*
X616200*
X616100Y591700*
X617600Y593200*
Y602200*
X618600Y603200*
X620600*
X631200Y583200D02*
X631469D01*
Y581529*
X632006*
X631200Y583200D02*
X632006Y582394D01*
Y581529*
X614027Y579573D02*
Y586427D01*
X620600Y593000*
Y597200*
X617373Y576227D02*
X621027D01*
X623000Y578200*
Y589400*
X625800Y592200*
X629400*
X631400Y594200*
Y604250*
X632600Y605450*
X637000*
X641979Y588860D02*
Y582621D01*
X642000Y582600*
Y577000*
X642200*
X528124Y607600D02*
X528200Y607524D01*
X523200Y600650D02*
X523550D01*
X526800Y597400*
X535800*
X540800Y592400*
X556055*
X559642Y588813*
X537000Y600476D02*
Y600279D01*
X542879Y594400*
X556035*
X561200Y589235*
Y582850*
X563850Y580200*
X571800Y601251D02*
X571569Y601482D01*
X571932Y601119*
Y593268*
X583827Y581373*
Y578973*
X586573Y576227*
X589184*
X554800Y600476D02*
Y598850D01*
X563850Y589800*
Y585800*
X565800Y601600D02*
X571451D01*
X571569Y601482*
X578200Y601250D02*
X578373Y601077D01*
Y591627*
X582400Y587600*
X588373*
X592373Y583600*
Y579573*
X584600Y601250D02*
X584721D01*
Y594446*
X591000Y601250D02*
Y598310D01*
X596310Y593000*
Y579573*
X611200Y598000D02*
Y601600D01*
X611400*
X597400Y601250D02*
Y598679D01*
X598279Y597800*
Y579573*
X627000Y603550D02*
Y609400D01*
X628200Y610600*
X636200*
X637000Y609800*
Y605450*
X620600Y603200D02*
Y607000D01*
X626200Y612600*
X635000*
X637000Y614600*
Y618950*
X620600Y597200D02*
X620650Y597250D01*
X627000*
X653400Y603000D02*
X654600Y601800D01*
Y600670*
X654613Y600657*
X635179Y595159D02*
X635400D01*
Y592200*
X641979Y595159D02*
X644554Y592585D01*
Y588800*
X651154Y582200*
X661000*
X662200Y601800D02*
X664600Y604200D01*
X678600*
X679800Y603000*
Y600667*
X679809Y600657*
X695419Y605800D02*
Y560631D01*
X705250Y550800*
Y518422*
X526200Y621000D02*
Y615000D01*
X528200Y613000*
Y607524*
X546200Y621000D02*
Y617400D01*
X547800Y615800*
X559800*
X562200Y613400*
Y597800*
X565000Y595000*
X567000*
X570150Y591850*
Y585800*
X536200Y621000D02*
Y615400D01*
X538600Y613000*
X558200*
X559400Y611800*
Y597000*
X563800Y592600*
X565800*
X567000Y591400*
Y581800*
X568600Y580200*
X570150*
G54D52*
X517800Y502800D03*
X517000Y507600D03*
X544800Y507200D03*
X556800Y512400D03*
X568800Y509800D03*
X569400Y504000D03*
X572600Y507200D03*
Y504000D03*
X566800Y507200D03*
X587600Y506400D03*
X591800Y511200D03*
Y508000D03*
X595800Y508200D03*
Y511400D03*
X605000Y505400D03*
X613800D03*
X631000D03*
X622600D03*
X634600Y507000D03*
Y510200D03*
X637800Y507000D03*
Y510200D03*
X667000Y507800D03*
X663400Y505000D03*
X666600D03*
X663800Y507800D03*
X667000Y511000D03*
X670200Y507800D03*
X669800Y505000D03*
X663800Y511000D03*
X670200D03*
X693600Y512800D03*
X690400D03*
X696800D03*
X710400Y511200D03*
X707200D03*
X713600Y504800D03*
X707200Y508000D03*
X710400Y504800D03*
X713600Y511200D03*
X710400Y508000D03*
X707200Y504800D03*
X713600Y508000D03*
X513800Y530000D03*
X524800Y518400D03*
X515800Y527800D03*
X552200Y524600D03*
X541200Y517600D03*
X544800D03*
X559000Y530200D03*
X558800Y523800D03*
X580400Y527200D03*
X583200Y527400D03*
Y530200D03*
X590600D03*
X593800Y527000D03*
X590600D03*
X580600Y530200D03*
X597200Y527200D03*
X600400D03*
X690400Y519200D03*
Y516000D03*
X693600Y519200D03*
X692800Y532000D03*
X693600Y516000D03*
X696800D03*
X696000Y532000D03*
X696800Y519200D03*
X699200Y532000D03*
X723200Y524600D03*
X716800Y521400D03*
X720000Y524600D03*
Y521400D03*
X716800Y524600D03*
X723200Y521400D03*
X716800Y527800D03*
X723200D03*
X720000D03*
X530200Y536600D03*
X527400Y538800D03*
X531600Y546600D03*
X526400Y553000D03*
X528800D03*
X532000Y552600D03*
X531600Y549800D03*
X551000Y545200D03*
X535200Y549000D03*
X539800Y548600D03*
X537200Y546400D03*
X584000Y541200D03*
X576200Y536200D03*
X587400Y551000D03*
X626200Y548000D03*
X626400Y545000D03*
X626200Y553800D03*
Y550600D03*
X652200Y549400D03*
Y552600D03*
X648800Y549400D03*
Y552600D03*
X638800Y553200D03*
X653800Y539000D03*
X661800Y540200D03*
X657200Y539000D03*
X677000Y540200D03*
X692800Y535200D03*
Y538400D03*
X696000D03*
Y535200D03*
X699200D03*
Y538400D03*
X719800Y543800D03*
X723000Y540600D03*
X716600Y537400D03*
Y543800D03*
X723000D03*
Y537400D03*
X719800Y540600D03*
X716600D03*
X719800Y537400D03*
X509400Y567000D03*
X512600D03*
X509400Y563800D03*
X512600D03*
X519800Y573000D03*
X521200Y559800D03*
X531800Y570600D03*
X532153Y567000D03*
X522600Y570200D03*
X581800Y570600D03*
X585400Y570200D03*
X583000Y573000D03*
X584600Y558400D03*
X598200Y558600D03*
Y568200D03*
X601400Y555800D03*
X595000Y574600D03*
X608200Y565000D03*
X611400Y561800D03*
X608200Y558600D03*
X595000D03*
X608200Y574600D03*
X598200Y571400D03*
X601400D03*
Y565000D03*
X611400D03*
X608200Y561800D03*
X601400Y558600D03*
X598200Y574600D03*
X595000Y565000D03*
X605000Y574600D03*
Y555800D03*
X608200D03*
X595000D03*
X608200Y568200D03*
X605000Y561800D03*
Y568200D03*
X611400Y558600D03*
Y571400D03*
X598200Y561800D03*
X595000Y568200D03*
X598200Y555800D03*
X611400Y574600D03*
Y568200D03*
X598200Y565000D03*
X595000Y561800D03*
X608200Y571400D03*
X611400Y555800D03*
X605000Y571400D03*
Y565000D03*
X601400Y568200D03*
X595000Y571400D03*
X601400Y561800D03*
X605000Y558600D03*
X601400Y574600D03*
X632400Y561600D03*
X628800Y558400D03*
X642200Y571800D03*
Y555800D03*
Y562200D03*
X652200Y568600D03*
X638800Y556400D03*
X652200Y565400D03*
X722000Y563000D03*
X718800Y556600D03*
Y563000D03*
X722000Y556600D03*
X725200Y559800D03*
Y563000D03*
Y556600D03*
X722000Y559800D03*
X718800D03*
X515600Y576800D03*
Y580000D03*
X551400Y584600D03*
X549400Y589800D03*
X546200D03*
X544000Y586800D03*
X560400Y576600D03*
X581800Y576200D03*
X586600Y584600D03*
Y581400D03*
X602400Y591400D03*
X631200Y583200D03*
X629800Y589400D03*
X626400Y588200D03*
X625400Y585000D03*
Y582200D03*
X619800Y585400D03*
Y582200D03*
X628000Y576800D03*
X635400Y592200D03*
X642200Y577000D03*
X650800Y577200D03*
X651200Y580000D03*
X645200Y584000D03*
X661000Y582200D03*
X690800Y594400D03*
Y591200D03*
Y588000D03*
X687000Y594400D03*
Y591200D03*
Y588000D03*
X691400Y583000D03*
Y579800D03*
Y576600D03*
X687000Y583000D03*
Y579800D03*
Y576600D03*
X700400Y577400D03*
Y580600D03*
Y583800D03*
X725000Y578400D03*
X721800Y581600D03*
X718600D03*
Y578400D03*
Y584800D03*
X721800D03*
X725000Y581600D03*
X721800Y578400D03*
X725000Y584800D03*
X570800Y611000D03*
X568600Y614400D03*
X587800Y611800D03*
X581400D03*
X601000D03*
X607800Y611000D03*
X611600Y611600D03*
X611200Y598000D03*
X653400Y603000D03*
Y607000D03*
X662200Y601800D03*
X661400Y607000D03*
X657400D03*
X669800D03*
X665400D03*
X706200Y596800D03*
X709400D03*
X519200Y621600D03*
Y617600D03*
X568400D03*
X564200Y623800D03*
X587400Y615000D03*
X581200Y615200D03*
X609400Y622800D03*
X604400Y622400D03*
X600800Y615000D03*
X614600Y623400D03*
G54D59*
G54D85*
X505250Y533900D03*
X512750D03*
X520815Y521351D03*
X528315D03*
X534703Y521392D03*
X542203D03*
X547765Y521062D03*
X555265D03*
X706050Y569900D03*
X713550D03*
G54D90*
X613548Y528601D02*
X613798D01*
X617399Y525000*
X631050*
X636200Y519850*
X613548Y528601D02*
X614000Y529054D01*
Y537173*
X614027Y537200*
Y551227*
X610090Y579573D02*
Y588600D01*
X614290Y592800*
Y594230*
X614860Y594800*
Y605377*
X628433Y618950*
X637000*
X614375Y594742D02*
X614860Y594565D01*
Y594800*
G54D117*
X677000Y619600D03*
X581800Y518000D03*
G54D121*
X598279Y570321D03*
X608121D03*
X598279Y560479D03*
X608121D03*
G54D129*
X592373Y551227D03*
X594342D03*
X596310D03*
X598279D03*
X600247D03*
X602216D03*
X604184D03*
X606153D03*
X608121D03*
X610090D03*
X612058D03*
X614027D03*
Y579573D03*
X612058D03*
X610090D03*
X608121D03*
X606153D03*
X604184D03*
X602216D03*
X600247D03*
X598279D03*
X596310D03*
X594342D03*
X592373D03*
G54D130*
X611400Y607600D03*
Y601600D03*
X620600Y597200D03*
Y603200D03*
X604200Y601600D03*
Y607600D03*
X621400Y537200D03*
Y531200D03*
X686400Y556600D03*
Y550600D03*
Y563600D03*
Y569600D03*
X565800Y601600D03*
Y607600D03*
G54D132*
X677000Y609600D03*
X581800Y508000D03*
G54D133*
X637000Y605450D03*
Y618950D03*
X566950Y552400D03*
X553450D03*
X551968Y507286D03*
X561968D03*
X526200Y621000D03*
X536200D03*
X546200D03*
X556200D03*
X636200Y533350D03*
Y519850D03*
X703750Y619000D03*
X690250D03*
X584721Y594446D03*
G54D134*
X608375Y594742D03*
X614375D03*
X632144Y561628D03*
X638144D03*
X613548Y528601D03*
X607548D03*
X505800Y525400D03*
X511800D03*
X535329Y514256D03*
X541329D03*
X632000Y574200D03*
X638000D03*
X706800Y563800D03*
X712800D03*
G54D140*
X522121Y554220D03*
X522120Y576968D03*
G54D149*
X627000Y603550D03*
Y597250D03*
X640979Y547480D03*
Y541181D03*
X634379Y547480D03*
Y541181D03*
X641979Y595159D03*
Y588860D03*
X635179Y595159D03*
Y588860D03*
X527899Y507612D03*
X521599D03*
X528417Y514545D03*
X522118D03*
X551176Y515744D03*
X557476D03*
X535304Y507518D03*
X541603D03*
X537016Y551999D03*
Y558299D03*
X563850Y569000D03*
X570150D03*
X597400Y607550D03*
Y601250D03*
X591000Y607550D03*
Y601250D03*
X584600Y607550D03*
Y601250D03*
X578200Y607550D03*
Y601250D03*
X563850Y574600D03*
X570150D03*
X678150Y558200D03*
X671850D03*
X678150Y564200D03*
X671850D03*
X627000Y531050D03*
Y537350D03*
X571800Y601450D03*
Y607750D03*
X563850Y585800D03*
X570150D03*
Y580200D03*
X563850D03*
X570150Y562600D03*
X563850D03*
X520600Y606950D03*
Y600650D03*
X707050Y591000D03*
X713350D03*
Y585000D03*
X707050D03*
X712950Y556600D03*
X706650D03*
G54D159*
X669003Y550294D03*
X669573Y572841D03*
G54D161*
X582921Y547446D03*
G54D204*
X653800Y619000D03*
Y611000D03*
X544104Y558246D03*
Y550246D03*
X661400Y619000D03*
Y611000D03*
X618000Y517600D03*
Y509600D03*
X609400Y517600D03*
Y509600D03*
X669000Y619000D03*
Y611000D03*
X646200Y619000D03*
Y611000D03*
X645800Y517000D03*
Y509000D03*
X626400Y517600D03*
Y509600D03*
X601000Y517600D03*
Y509600D03*
G54D205*
X608947Y615616D03*
X618947D03*
X731600Y577400D03*
Y569700D03*
Y562000D03*
Y554300D03*
X732000Y710200D03*
Y702500D03*
Y694800D03*
Y687100D03*
X731600Y846600D03*
Y838900D03*
Y831200D03*
Y823500D03*
X731200Y979000D03*
Y971300D03*
Y963600D03*
Y955900D03*
Y1112600D03*
Y1104900D03*
Y1097200D03*
Y1089500D03*
X605800Y1032000D03*
X613500D03*
X621200D03*
X628900D03*
X837400Y1032400D03*
X845100D03*
X852800D03*
X860500D03*
X835400Y898800D03*
X843100D03*
X850800D03*
X858500D03*
X603800Y898400D03*
X611500D03*
X619200D03*
X626900D03*
X835400Y764000D03*
X843100D03*
X850800D03*
X858500D03*
X603800Y763600D03*
X611500D03*
X619200D03*
X626900D03*
X835800Y630800D03*
X843500D03*
X851200D03*
X858900D03*
X604200Y630400D03*
X611900D03*
X619600D03*
X627300D03*
G54D210*
X527620Y578592D03*
Y575443D03*
Y570521D03*
Y566584D03*
Y564616D03*
Y560679D03*
Y555757D03*
Y552608D03*
Y553592D03*
Y556742D03*
Y558710D03*
Y562647D03*
Y568553D03*
Y572490D03*
Y574458D03*
Y577608D03*
G54D211*
X507580Y582628D03*
X524037Y548572D03*
X507580D03*
X524037Y582628D03*
G54D212*
X557396Y540567D03*
Y538008D03*
Y535449D03*
Y532890D03*
X568813D03*
Y535449D03*
Y538008D03*
Y540567D03*
G54D213*
X564876Y536728D03*
G54D216*
X668999Y527357D03*
X669199Y593157D03*
G54D227*
X654413Y534857D03*
X679609Y519857D03*
Y524857D03*
Y529857D03*
Y534857D03*
X654613Y600657D03*
X679809Y585657D03*
Y590657D03*
Y595657D03*
Y600657D03*
G54D228*
X656381Y529857D03*
Y524857D03*
Y519857D03*
X656581Y595657D03*
Y590657D03*
Y585657D03*
G54D231*
X702112Y601961D03*
Y604520D03*
Y607080D03*
Y609639D03*
X691088D03*
Y607080D03*
Y604520D03*
G54D232*
Y601961D03*
G54D233*
X695419Y605800D03*
G54D234*
X509000Y541900D03*
X524565Y529351D03*
X538453Y529392D03*
X551515Y529062D03*
X709800Y577900D03*
G54D239*
X632006Y581529D03*
X644906D03*
X633129Y554584D03*
X646029D03*
X523181Y537827D03*
X536081D03*
G54D240*
X508200Y509800D03*
X508400Y616200D03*
X720554Y614921D03*
X720646Y511879D03*
G74*
X0Y0D02*
M02*
