*
*
G04 PADS 9.5 Build Number: 522968 generated Gerber (RS-274-X) file*
G04 PC Version=2.1*
*
%IN "IP2368_DEMO_1.4.4.pcb"*%
*
%MOIN*%
*
%FSLAX35Y35*%
*
*
*
*
G04 PC Standard Apertures*
*
*
G04 Thermal Relief Aperture macro.*
%AMTER*
1,1,$1,0,0*
1,0,$1-$2,0,0*
21,0,$3,$4,0,0,45*
21,0,$3,$4,0,0,135*
%
*
*
G04 Annular Aperture macro.*
%AMANN*
1,1,$1,0,0*
1,0,$2,0,0*
%
*
*
G04 Odd Aperture macro.*
%AMODD*
1,1,$1,0,0*
1,0,$1-0.005,0,0*
%
*
*
G04 PC Custom Aperture Macros*
*
*
*
*
*
*
G04 PC Aperture Table*
*
%ADD028R,0.03937X0.00984*%
%ADD049C,0.01*%
%ADD059C,0.001*%
%ADD085R,0.036X0.036*%
%ADD121R,0.09055X0.09055*%
%ADD129R,0.00984X0.03937*%
%ADD130R,0.03X0.035*%
%ADD133R,0.06X0.06*%
%ADD134R,0.035X0.03*%
%ADD149R,0.0315X0.0315*%
%ADD204R,0.05X0.04*%
%ADD210R,0.05118X0.00984*%
%ADD212R,0.02598X0.01575*%
%ADD213R,0.07087X0.07874*%
%ADD216R,0.08543X0.16535*%
%ADD227R,0.05512X0.01614*%
%ADD228R,0.09449X0.01614*%
%ADD231R,0.02362X0.01378*%
%ADD232R,0.02598X0.01378*%
%ADD233R,0.05906X0.07874*%
%ADD234R,0.036X0.05*%
%ADD239R,0.036X0.048*%
*
*
*
*
G04 PC Circuitry*
G04 Layer Name IP2368_DEMO_1.4.4.pcb - circuitry*
%LPD*%
*
*
G04 PC Custom Flashes*
G04 Layer Name IP2368_DEMO_1.4.4.pcb - flashes*
%LPD*%
*
*
G04 PC Circuitry*
G04 Layer Name IP2368_DEMO_1.4.4.pcb - circuitry*
%LPD*%
*
G54D28*
G01X617373Y554573D03*
Y556542D03*
Y558510D03*
Y560479D03*
Y562447D03*
Y564416D03*
Y566384D03*
Y568353D03*
Y570321D03*
Y572290D03*
Y574258D03*
Y576227D03*
X589184D03*
Y574258D03*
Y572290D03*
Y570321D03*
Y568353D03*
Y566384D03*
Y564416D03*
Y562447D03*
Y560479D03*
Y558510D03*
Y556542D03*
Y554573D03*
G54D49*
X557549Y578800D02*
X556191D01*
X555598Y579393*
Y581144*
X556191Y581737*
X557549*
X558142Y581144*
Y579393*
X557549Y578800*
X555991Y579000D02*
X557749D01*
X555598Y580000D02*
X558142D01*
X555598Y581000D02*
X558142D01*
X556000Y578991D02*
Y581545D01*
X557000Y578800D02*
Y581737D01*
X558000Y579251D02*
Y581286D01*
X557549Y585848D02*
X556191D01*
X555598Y586441*
Y588192*
X556191Y588785*
X557549*
X558142Y588192*
Y586441*
X557549Y585848*
X556039Y586000D02*
X557701D01*
X555598Y587000D02*
X558142D01*
X555598Y588000D02*
X558142D01*
X556000Y586039D02*
Y588593D01*
X557000Y585848D02*
Y588785D01*
X558000Y586299D02*
Y588334D01*
X546679Y599008D02*
X545321D01*
X545321D02*
X544728Y599600D01*
Y601352*
X545321Y601944*
X545321D02*
X546679D01*
X546679D02*
X547272Y601352D01*
Y599600*
X546679Y599008*
X544728Y600000D02*
X547272D01*
X544728Y601000D02*
X547272D01*
X545000Y599329D02*
Y601623D01*
X546000Y599008D02*
Y601944D01*
X547000Y599329D02*
Y601623D01*
X546679Y606056D02*
X545321D01*
X545321D02*
X544728Y606648D01*
Y608400*
X545321Y608992*
X545321D02*
X546679D01*
X546679D02*
X547272Y608400D01*
Y606648*
X546679Y606056*
X544728Y607000D02*
X547272D01*
X544728Y608000D02*
X547272D01*
X545000Y606377D02*
Y608671D01*
X546000Y606056D02*
Y608992D01*
X547000Y606377D02*
Y608671D01*
X528879Y599008D02*
X527521D01*
X527521D02*
X526928Y599600D01*
Y601352*
X527521Y601944*
X527521D02*
X528879D01*
X528879D02*
X529472Y601352D01*
Y599600*
X528879Y599008*
X526928Y600000D02*
X529472D01*
X526928Y601000D02*
X529472D01*
X527000Y599529D02*
Y601423D01*
X528000Y599008D02*
Y601944D01*
X529000Y599129D02*
Y601823D01*
X528879Y606056D02*
X527521D01*
X527521D02*
X526928Y606648D01*
Y608400*
X527521Y608992*
X527521D02*
X528879D01*
X528879D02*
X529472Y608400D01*
Y606648*
X528879Y606056*
X526928Y607000D02*
X529472D01*
X526928Y608000D02*
X529472D01*
X527000Y606577D02*
Y608471D01*
X528000Y606056D02*
Y608992D01*
X529000Y606177D02*
Y608871D01*
X536321Y608992D02*
X537679D01*
X537679D02*
X538272Y608400D01*
Y606648*
X537679Y606056*
X537679D02*
X536321D01*
X536321D02*
X535728Y606648D01*
Y608400*
X536321Y608992*
X535728Y607000D02*
X538272D01*
X535728Y608000D02*
X538272D01*
X536000Y606377D02*
Y608671D01*
X537000Y606056D02*
Y608992D01*
X538000Y606377D02*
Y608671D01*
X536321Y601944D02*
X537679D01*
X537679D02*
X538272Y601352D01*
Y599600*
X537679Y599008*
X537679D02*
X536321D01*
X536321D02*
X535728Y599600D01*
Y601352*
X536321Y601944*
X535728Y600000D02*
X538272D01*
X535728Y601000D02*
X538272D01*
X536000Y599329D02*
Y601623D01*
X537000Y599008D02*
Y601944D01*
X538000Y599329D02*
Y601623D01*
X554121Y608992D02*
X555479D01*
X555479D02*
X556072Y608400D01*
Y606648*
X555479Y606056*
X555479D02*
X554121D01*
X554121D02*
X553528Y606648D01*
Y608400*
X554121Y608992*
X553528Y607000D02*
X556072D01*
X553528Y608000D02*
X556072D01*
X554000Y606177D02*
Y608871D01*
X555000Y606056D02*
Y608992D01*
X556000Y606577D02*
Y608471D01*
X554121Y601944D02*
X555479D01*
X555479D02*
X556072Y601352D01*
Y599600*
X555479Y599008*
X555479D02*
X554121D01*
X554121D02*
X553528Y599600D01*
Y601352*
X554121Y601944*
X553528Y600000D02*
X556072D01*
X553528Y601000D02*
X556072D01*
X554000Y599129D02*
Y601823D01*
X555000Y599008D02*
Y601944D01*
X556000Y599529D02*
Y601423D01*
X500600Y626584D02*
X727800D01*
Y500600*
X500600*
Y626584*
X501200Y760384D02*
X728400D01*
Y634400*
X501200*
Y760384*
X500600Y894384D02*
X727800D01*
Y768400*
X500600*
Y894384*
X500800Y1028384D02*
X728000D01*
Y902400*
X500800*
Y1028384*
X500200Y1162384D02*
X727400D01*
Y1036400*
X500200*
Y1162384*
X735400Y626984D02*
X962600D01*
Y501000*
X735400*
Y626984*
X735200Y760384D02*
X962400D01*
Y634400*
X735200*
Y760384*
X734600Y894384D02*
X961800D01*
Y768400*
X734600*
Y894384*
X734800Y1028384D02*
X962000D01*
Y902400*
X734800*
Y1028384*
X734200Y1162384D02*
X961400D01*
Y1036400*
X734200*
Y1162384*
G54D59*
G54D85*
X505250Y533900D03*
X512750D03*
X520815Y521351D03*
X528315D03*
X534703Y521392D03*
X542203D03*
X547765Y521062D03*
X555265D03*
X706050Y569900D03*
X713550D03*
G54D121*
X598279Y570321D03*
X608121D03*
X598279Y560479D03*
X608121D03*
G54D129*
X592373Y551227D03*
X594342D03*
X596310D03*
X598279D03*
X600247D03*
X602216D03*
X604184D03*
X606153D03*
X608121D03*
X610090D03*
X612058D03*
X614027D03*
Y579573D03*
X612058D03*
X610090D03*
X608121D03*
X606153D03*
X604184D03*
X602216D03*
X600247D03*
X598279D03*
X596310D03*
X594342D03*
X592373D03*
G54D130*
X611400Y607600D03*
Y601600D03*
X620600Y597200D03*
Y603200D03*
X604200Y601600D03*
Y607600D03*
X621400Y537200D03*
Y531200D03*
X686400Y556600D03*
Y550600D03*
Y563600D03*
Y569600D03*
X565800Y601600D03*
Y607600D03*
G54D133*
X637000Y605450D03*
Y618950D03*
X566950Y552400D03*
X553450D03*
X636200Y533350D03*
Y519850D03*
X703750Y619000D03*
X690250D03*
G54D134*
X608375Y594742D03*
X614375D03*
X632144Y561628D03*
X638144D03*
X613548Y528601D03*
X607548D03*
X505800Y525400D03*
X511800D03*
X535329Y514256D03*
X541329D03*
X632000Y574200D03*
X638000D03*
X706800Y563800D03*
X712800D03*
G54D149*
X627000Y603550D03*
Y597250D03*
X640979Y547480D03*
Y541181D03*
X634379Y547480D03*
Y541181D03*
X641979Y595159D03*
Y588860D03*
X635179Y595159D03*
Y588860D03*
X527899Y507612D03*
X521599D03*
X528417Y514545D03*
X522118D03*
X551176Y515744D03*
X557476D03*
X535304Y507518D03*
X541603D03*
X537016Y551999D03*
Y558299D03*
X563850Y569000D03*
X570150D03*
X597400Y607550D03*
Y601250D03*
X591000Y607550D03*
Y601250D03*
X584600Y607550D03*
Y601250D03*
X578200Y607550D03*
Y601250D03*
X563850Y574600D03*
X570150D03*
X678150Y558200D03*
X671850D03*
X678150Y564200D03*
X671850D03*
X627000Y531050D03*
Y537350D03*
X571800Y601450D03*
Y607750D03*
X563850Y585800D03*
X570150D03*
Y580200D03*
X563850D03*
X570150Y562600D03*
X563850D03*
X520600Y606950D03*
Y600650D03*
X707050Y591000D03*
X713350D03*
Y585000D03*
X707050D03*
X712950Y556600D03*
X706650D03*
G54D204*
X653800Y619000D03*
Y611000D03*
X544104Y558246D03*
Y550246D03*
X661400Y619000D03*
Y611000D03*
X618000Y517600D03*
Y509600D03*
X609400Y517600D03*
Y509600D03*
X669000Y619000D03*
Y611000D03*
X646200Y619000D03*
Y611000D03*
X645800Y517000D03*
Y509000D03*
X626400Y517600D03*
Y509600D03*
X601000Y517600D03*
Y509600D03*
G54D210*
X527620Y578592D03*
Y575443D03*
Y570521D03*
Y566584D03*
Y564616D03*
Y560679D03*
Y555757D03*
Y552608D03*
Y553592D03*
Y556742D03*
Y558710D03*
Y562647D03*
Y568553D03*
Y572490D03*
Y574458D03*
Y577608D03*
G54D212*
X557396Y540567D03*
Y538008D03*
Y535449D03*
Y532890D03*
X568813D03*
Y535449D03*
Y538008D03*
Y540567D03*
G54D213*
X564876Y536728D03*
G54D216*
X668999Y527357D03*
X669199Y593157D03*
G54D227*
X654413Y534857D03*
X679609Y519857D03*
Y524857D03*
Y529857D03*
Y534857D03*
X654613Y600657D03*
X679809Y585657D03*
Y590657D03*
Y595657D03*
Y600657D03*
G54D228*
X656381Y529857D03*
Y524857D03*
Y519857D03*
X656581Y595657D03*
Y590657D03*
Y585657D03*
G54D231*
X702112Y601961D03*
Y604520D03*
Y607080D03*
Y609639D03*
X691088D03*
Y607080D03*
Y604520D03*
G54D232*
Y601961D03*
G54D233*
X695419Y605800D03*
G54D234*
X509000Y541900D03*
X524565Y529351D03*
X538453Y529392D03*
X551515Y529062D03*
X709800Y577900D03*
G54D239*
X632006Y581529D03*
X644906D03*
X633129Y554584D03*
X646029D03*
X523181Y537827D03*
X536081D03*
X0Y0D02*
M02*
