*
*
G04 PADS 9.5 Build Number: 522968 generated Gerber (RS-274-X) file*
G04 PC Version=2.1*
*
%IN "IP2368_DEMO_1.4.4.pcb"*%
*
%MOIN*%
*
%FSLAX35Y35*%
*
*
*
*
G04 PC Standard Apertures*
*
*
G04 Thermal Relief Aperture macro.*
%AMTER*
1,1,$1,0,0*
1,0,$1-$2,0,0*
21,0,$3,$4,0,0,45*
21,0,$3,$4,0,0,135*
%
*
*
G04 Annular Aperture macro.*
%AMANN*
1,1,$1,0,0*
1,0,$2,0,0*
%
*
*
G04 Odd Aperture macro.*
%AMODD*
1,1,$1,0,0*
1,0,$1-0.005,0,0*
%
*
*
G04 PC Custom Aperture Macros*
*
*
*
*
*
*
G04 PC Aperture Table*
*
%ADD049C,0.01*%
%ADD059C,0.001*%
%ADD065R,0.0365X0.0365*%
%ADD073R,0.065X0.065*%
%ADD084R,0.041X0.041*%
%ADD122R,0.06406X0.06406*%
%ADD125R,0.09555X0.09555*%
%ADD168R,0.04437X0.01484*%
%ADD169R,0.01484X0.04437*%
%ADD170R,0.035X0.04*%
%ADD172C,0.06406*%
%ADD173R,0.04X0.035*%
%ADD179C,0.02862*%
%ADD197C,0.08374*%
%ADD198C,0.05421*%
%ADD207R,0.055X0.045*%
%ADD208C,0.065*%
%ADD218R,0.05618X0.01484*%
%ADD219O,0.08374X0.04437*%
%ADD220R,0.03098X0.02075*%
%ADD221R,0.07587X0.08374*%
%ADD224R,0.09043X0.17035*%
%ADD229R,0.06012X0.02114*%
%ADD230R,0.09949X0.02114*%
%ADD235R,0.02862X0.01878*%
%ADD236R,0.03098X0.01878*%
%ADD237R,0.06406X0.08374*%
%ADD238R,0.041X0.055*%
%ADD243R,0.041X0.053*%
%ADD244R,0.12311X0.16248*%
*
*
*
*
G04 PC Circuitry*
G04 Layer Name IP2368_DEMO_1.4.4.pcb - circuitry*
%LPD*%
*
*
G04 PC Custom Flashes*
G04 Layer Name IP2368_DEMO_1.4.4.pcb - flashes*
%LPD*%
*
*
G04 PC Circuitry*
G04 Layer Name IP2368_DEMO_1.4.4.pcb - circuitry*
%LPD*%
*
G54D49*
G01X557652Y578550D02*
X556088D01*
X555348Y579289*
Y581247*
X555348D02*
X556088Y581987D01*
X557652*
X558392Y581247*
X558392D02*
Y579289D01*
X557652Y578550*
X555638Y579000D02*
X558103D01*
X555348Y580000D02*
X558392D01*
X555348Y581000D02*
X558392D01*
X556000Y578638D02*
Y581899D01*
X557000Y578550D02*
Y581987D01*
X558000Y578898D02*
Y581639D01*
X557652Y585598D02*
X556088D01*
X555348Y586337*
Y588295*
X555348D02*
X556088Y589035D01*
X557652*
X558392Y588295*
X558392D02*
Y586337D01*
X557652Y585598*
X555686Y586000D02*
X558055D01*
X555348Y587000D02*
X558392D01*
X555348Y588000D02*
X558392D01*
X556053Y589000D02*
X557687D01*
X556000Y585686D02*
Y588947D01*
X557000Y585598D02*
Y589035D01*
X558000Y585946D02*
Y588687D01*
X546782Y598758D02*
X545218D01*
X545218D02*
X544478Y599497D01*
Y601455*
X545218Y602194*
X545218D02*
X546782D01*
X546782D02*
X547522Y601455D01*
Y599497*
X546782Y598758*
X544975Y599000D02*
X547025D01*
X544478Y600000D02*
X547522D01*
X544478Y601000D02*
X547522D01*
X545023Y602000D02*
X546977D01*
X545000Y598975D02*
Y601977D01*
X546000Y598758D02*
Y602194D01*
X547000Y598975D02*
Y601977D01*
X546782Y605806D02*
X545218D01*
X545218D02*
X544478Y606545D01*
Y608503*
X545218Y609242*
X545218D02*
X546782D01*
X546782D02*
X547522Y608503D01*
Y606545*
X546782Y605806*
X545023Y606000D02*
X546977D01*
X544478Y607000D02*
X547522D01*
X544478Y608000D02*
X547522D01*
X544975Y609000D02*
X547025D01*
X545000Y606023D02*
Y609025D01*
X546000Y605806D02*
Y609242D01*
X547000Y606023D02*
Y609025D01*
X528982Y598758D02*
X527418D01*
X527418D02*
X526678Y599497D01*
Y601455*
X527418Y602194*
X527418D02*
X528982D01*
X528982D02*
X529722Y601455D01*
Y599497*
X528982Y598758*
X527175Y599000D02*
X529225D01*
X526678Y600000D02*
X529722D01*
X526678Y601000D02*
X529722D01*
X527223Y602000D02*
X529177D01*
X527000Y599175D02*
Y601777D01*
X528000Y598758D02*
Y602194D01*
X529000Y598775D02*
Y602177D01*
X528982Y605806D02*
X527418D01*
X527418D02*
X526678Y606545D01*
Y608503*
X527418Y609242*
X527418D02*
X528982D01*
X528982D02*
X529722Y608503D01*
Y606545*
X528982Y605806*
X527223Y606000D02*
X529177D01*
X526678Y607000D02*
X529722D01*
X526678Y608000D02*
X529722D01*
X527175Y609000D02*
X529225D01*
X527000Y606223D02*
Y608825D01*
X528000Y605806D02*
Y609242D01*
X529000Y605823D02*
Y609225D01*
X536218Y609242D02*
X537782D01*
X537782D02*
X538522Y608503D01*
Y606545*
X537782Y605806*
X537782D02*
X536218D01*
X536218D02*
X535478Y606545D01*
Y608503*
X536218Y609242*
X536023Y606000D02*
X537977D01*
X535478Y607000D02*
X538522D01*
X535478Y608000D02*
X538522D01*
X535975Y609000D02*
X538025D01*
X536000Y606023D02*
Y609025D01*
X537000Y605806D02*
Y609242D01*
X538000Y606023D02*
Y609025D01*
X536218Y602194D02*
X537782D01*
X537782D02*
X538522Y601455D01*
Y599497*
X537782Y598758*
X537782D02*
X536218D01*
X536218D02*
X535478Y599497D01*
Y601455*
X536218Y602194*
X535975Y599000D02*
X538025D01*
X535478Y600000D02*
X538522D01*
X535478Y601000D02*
X538522D01*
X536023Y602000D02*
X537977D01*
X536000Y598975D02*
Y601977D01*
X537000Y598758D02*
Y602194D01*
X538000Y598975D02*
Y601977D01*
X554018Y609242D02*
X555582D01*
X555582D02*
X556322Y608503D01*
Y606545*
X555582Y605806*
X555582D02*
X554018D01*
X554018D02*
X553278Y606545D01*
Y608503*
X554018Y609242*
X553823Y606000D02*
X555777D01*
X553278Y607000D02*
X556322D01*
X553278Y608000D02*
X556322D01*
X553775Y609000D02*
X555825D01*
X554000Y605823D02*
Y609225D01*
X555000Y605806D02*
Y609242D01*
X556000Y606223D02*
Y608825D01*
X554018Y602194D02*
X555582D01*
X555582D02*
X556322Y601455D01*
Y599497*
X555582Y598758*
X555582D02*
X554018D01*
X554018D02*
X553278Y599497D01*
Y601455*
X554018Y602194*
X553775Y599000D02*
X555825D01*
X553278Y600000D02*
X556322D01*
X553278Y601000D02*
X556322D01*
X553823Y602000D02*
X555777D01*
X554000Y598775D02*
Y602177D01*
X555000Y598758D02*
Y602194D01*
X556000Y599175D02*
Y601777D01*
X500600Y626584D02*
X727800D01*
Y500600*
X500600*
Y626584*
X501200Y760384D02*
X728400D01*
Y634400*
X501200*
Y760384*
X500600Y894384D02*
X727800D01*
Y768400*
X500600*
Y894384*
X500800Y1028384D02*
X728000D01*
Y902400*
X500800*
Y1028384*
X500200Y1162384D02*
X727400D01*
Y1036400*
X500200*
Y1162384*
X735400Y626984D02*
X962600D01*
Y501000*
X735400*
Y626984*
X735200Y760384D02*
X962400D01*
Y634400*
X735200*
Y760384*
X734600Y894384D02*
X961800D01*
Y768400*
X734600*
Y894384*
X734800Y1028384D02*
X962000D01*
Y902400*
X734800*
Y1028384*
X734200Y1162384D02*
X961400D01*
Y1036400*
X734200*
Y1162384*
G54D59*
G54D65*
X627000Y603550D03*
Y597250D03*
X640979Y547480D03*
Y541181D03*
X634379Y547480D03*
Y541181D03*
X641979Y595159D03*
Y588860D03*
X635179Y595159D03*
Y588860D03*
X527899Y507612D03*
X521599D03*
X528417Y514545D03*
X522118D03*
X551176Y515744D03*
X557476D03*
X535304Y507518D03*
X541603D03*
X537016Y551999D03*
Y558299D03*
X563850Y569000D03*
X570150D03*
X597400Y607550D03*
Y601250D03*
X591000Y607550D03*
Y601250D03*
X584600Y607550D03*
Y601250D03*
X578200Y607550D03*
Y601250D03*
X563850Y574600D03*
X570150D03*
X678150Y558200D03*
X671850D03*
X678150Y564200D03*
X671850D03*
X627000Y531050D03*
Y537350D03*
X571800Y601450D03*
Y607750D03*
X563850Y585800D03*
X570150D03*
Y580200D03*
X563850D03*
X570150Y562600D03*
X563850D03*
X520600Y606950D03*
Y600650D03*
X707050Y591000D03*
X713350D03*
Y585000D03*
X707050D03*
X712950Y556600D03*
X706650D03*
G54D73*
X637000Y605450D03*
Y618950D03*
X566950Y552400D03*
X553450D03*
X551968Y507286D03*
X561968D03*
X526200Y621000D03*
X536200D03*
X546200D03*
X556200D03*
X636200Y533350D03*
Y519850D03*
X703750Y619000D03*
X690250D03*
X584721Y594446D03*
G54D84*
X505250Y533900D03*
X512750D03*
X520815Y521351D03*
X528315D03*
X534703Y521392D03*
X542203D03*
X547765Y521062D03*
X555265D03*
X706050Y569900D03*
X713550D03*
G54D122*
X677000Y619600D03*
X581800Y518000D03*
G54D125*
X598279Y570321D03*
X608121D03*
X598279Y560479D03*
X608121D03*
G54D168*
X617373Y554573D03*
Y556542D03*
Y558510D03*
Y560479D03*
Y562447D03*
Y564416D03*
Y566384D03*
Y568353D03*
Y570321D03*
Y572290D03*
Y574258D03*
Y576227D03*
X589184D03*
Y574258D03*
Y572290D03*
Y570321D03*
Y568353D03*
Y566384D03*
Y564416D03*
Y562447D03*
Y560479D03*
Y558510D03*
Y556542D03*
Y554573D03*
G54D169*
X592373Y551227D03*
X594342D03*
X596310D03*
X598279D03*
X600247D03*
X602216D03*
X604184D03*
X606153D03*
X608121D03*
X610090D03*
X612058D03*
X614027D03*
Y579573D03*
X612058D03*
X610090D03*
X608121D03*
X606153D03*
X604184D03*
X602216D03*
X600247D03*
X598279D03*
X596310D03*
X594342D03*
X592373D03*
G54D170*
X611400Y607600D03*
Y601600D03*
X620600Y597200D03*
Y603200D03*
X604200Y601600D03*
Y607600D03*
X621400Y537200D03*
Y531200D03*
X686400Y556600D03*
Y550600D03*
Y563600D03*
Y569600D03*
X565800Y601600D03*
Y607600D03*
G54D172*
X677000Y609600D03*
X581800Y508000D03*
G54D173*
X608375Y594742D03*
X614375D03*
X632144Y561628D03*
X638144D03*
X613548Y528601D03*
X607548D03*
X505800Y525400D03*
X511800D03*
X535329Y514256D03*
X541329D03*
X632000Y574200D03*
X638000D03*
X706800Y563800D03*
X712800D03*
G54D179*
X522121Y554220D03*
X522120Y576968D03*
G54D197*
X669003Y550294D03*
X669573Y572841D03*
G54D198*
X582921Y547446D03*
G54D207*
X653800Y619000D03*
Y611000D03*
X544104Y558246D03*
Y550246D03*
X661400Y619000D03*
Y611000D03*
X618000Y517600D03*
Y509600D03*
X609400Y517600D03*
Y509600D03*
X669000Y619000D03*
Y611000D03*
X646200Y619000D03*
Y611000D03*
X645800Y517000D03*
Y509000D03*
X626400Y517600D03*
Y509600D03*
X601000Y517600D03*
Y509600D03*
G54D208*
X608947Y615616D03*
X618947D03*
X731600Y577400D03*
Y569700D03*
Y562000D03*
Y554300D03*
X732000Y710200D03*
Y702500D03*
Y694800D03*
Y687100D03*
X731600Y846600D03*
Y838900D03*
Y831200D03*
Y823500D03*
X731200Y979000D03*
Y971300D03*
Y963600D03*
Y955900D03*
Y1112600D03*
Y1104900D03*
Y1097200D03*
Y1089500D03*
X605800Y1032000D03*
X613500D03*
X621200D03*
X628900D03*
X837400Y1032400D03*
X845100D03*
X852800D03*
X860500D03*
X835400Y898800D03*
X843100D03*
X850800D03*
X858500D03*
X603800Y898400D03*
X611500D03*
X619200D03*
X626900D03*
X835400Y764000D03*
X843100D03*
X850800D03*
X858500D03*
X603800Y763600D03*
X611500D03*
X619200D03*
X626900D03*
X835800Y630800D03*
X843500D03*
X851200D03*
X858900D03*
X604200Y630400D03*
X611900D03*
X619600D03*
X627300D03*
G54D218*
X527620Y578592D03*
Y575443D03*
Y570521D03*
Y566584D03*
Y564616D03*
Y560679D03*
Y555757D03*
Y552608D03*
Y553592D03*
Y556742D03*
Y558710D03*
Y562647D03*
Y568553D03*
Y572490D03*
Y574458D03*
Y577608D03*
G54D219*
X507580Y582628D03*
X524037Y548572D03*
X507580D03*
X524037Y582628D03*
G54D220*
X557396Y540567D03*
Y538008D03*
Y535449D03*
Y532890D03*
X568813D03*
Y535449D03*
Y538008D03*
Y540567D03*
G54D221*
X564876Y536728D03*
G54D224*
X668999Y527357D03*
X669199Y593157D03*
G54D229*
X654413Y534857D03*
X679609Y519857D03*
Y524857D03*
Y529857D03*
Y534857D03*
X654613Y600657D03*
X679809Y585657D03*
Y590657D03*
Y595657D03*
Y600657D03*
G54D230*
X656381Y529857D03*
Y524857D03*
Y519857D03*
X656581Y595657D03*
Y590657D03*
Y585657D03*
G54D235*
X702112Y601961D03*
Y604520D03*
Y607080D03*
Y609639D03*
X691088D03*
Y607080D03*
Y604520D03*
G54D236*
Y601961D03*
G54D237*
X695419Y605800D03*
G54D238*
X509000Y541900D03*
X524565Y529351D03*
X538453Y529392D03*
X551515Y529062D03*
X709800Y577900D03*
G54D243*
X632006Y581529D03*
X644906D03*
X633129Y554584D03*
X646029D03*
X523181Y537827D03*
X536081D03*
G54D244*
X508200Y509800D03*
X508400Y616200D03*
X720554Y614921D03*
X720646Y511879D03*
X0Y0D02*
M02*
