*
*
G04 PADS 9.5 Build Number: 522968 generated Gerber (RS-274-X) file*
G04 PC Version=2.1*
*
%IN "IP2368_DEMO_1.4.4.pcb"*%
*
%MOIN*%
*
%FSLAX35Y35*%
*
*
*
*
G04 PC Standard Apertures*
*
*
G04 Thermal Relief Aperture macro.*
%AMTER*
1,1,$1,0,0*
1,0,$1-$2,0,0*
21,0,$3,$4,0,0,45*
21,0,$3,$4,0,0,135*
%
*
*
G04 Annular Aperture macro.*
%AMANN*
1,1,$1,0,0*
1,0,$2,0,0*
%
*
*
G04 Odd Aperture macro.*
%AMODD*
1,1,$1,0,0*
1,0,$1-0.005,0,0*
%
*
*
G04 PC Custom Aperture Macros*
*
*
*
*
*
*
G04 PC Aperture Table*
*
%ADD011C,0.00394*%
%ADD012C,0.00591*%
%ADD014C,0.00591*%
%ADD015C,0.01181*%
%ADD016C,0.00787*%
%ADD018C,0.005*%
%ADD049C,0.01*%
%ADD051C,0.008*%
%ADD059C,0.001*%
%ADD103C,0.007*%
%ADD115C,0.00394*%
%ADD166C,0.00394*%
*
*
*
*
G04 PC Circuitry*
G04 Layer Name IP2368_DEMO_1.4.4.pcb - circuitry*
%LPD*%
*
*
G04 PC Custom Flashes*
G04 Layer Name IP2368_DEMO_1.4.4.pcb - flashes*
%LPD*%
*
*
G04 PC Circuitry*
G04 Layer Name IP2368_DEMO_1.4.4.pcb - circuitry*
%LPD*%
*
G54D11*
G01X523486Y579576D02*
X497246D01*
Y551820*
X523486*
G54D12*
X690694Y599894D02*
Y611706D01*
X702506*
Y599894*
X690694*
X702888Y597587D02*
G75*
G03X702888I-1414J0D01*
G54D14*
G01X569403Y542831D02*
Y530626D01*
X557199*
Y542831*
X569403*
X559319Y544941D02*
G03X559319I-892J0D01*
G01X678822Y537200D02*
Y517515D01*
X655200*
Y537200*
X678822*
X652754Y538494D02*
G03X652754I-1415J0D01*
G01X679022Y603000D02*
Y583315D01*
X655400*
Y603000*
X679022*
X652954Y604294D02*
G03X652954I-1415J0D01*
G54D15*
G01X591389Y551620D02*
G03X591389I-1969J0D01*
G54D16*
G01X589420Y579180D02*
X616980D01*
Y551620*
X589420*
Y579180*
X728057Y581000D02*
X735143D01*
Y550700*
X728057*
Y581000*
X728457Y713800D02*
X735543D01*
Y683500*
X728457*
Y713800*
X728057Y850200D02*
X735143D01*
Y819900*
X728057*
Y850200*
X727657Y982600D02*
X734743D01*
Y952300*
X727657*
Y982600*
Y1116200D02*
X734743D01*
Y1085900*
X727657*
Y1116200*
X602200Y1028457D02*
Y1035543D01*
X632500*
Y1028457*
X602200*
X833800Y1028857D02*
Y1035943D01*
X864100*
Y1028857*
X833800*
X831800Y895257D02*
Y902343D01*
X862100*
Y895257*
X831800*
X600200Y894857D02*
Y901943D01*
X630500*
Y894857*
X600200*
X831800Y760457D02*
Y767543D01*
X862100*
Y760457*
X831800*
X600200Y760057D02*
Y767143D01*
X630500*
Y760057*
X600200*
X832200Y627257D02*
Y634343D01*
X862500*
Y627257*
X832200*
X600600Y626857D02*
Y633943D01*
X630900*
Y626857*
X600600*
G54D18*
X650300Y608786D02*
Y621192D01*
X657300D02*
G03X650300I-3500J-3252D01*
G01X657300D02*
Y608786D01*
X650300D02*
G03X657300I3500J3333D01*
G01X540604Y548031D02*
Y560438D01*
X547604D02*
G03X540604I-3500J-3252D01*
G01X547604D02*
Y548031D01*
X540604D02*
G03X547604I3500J3333D01*
G01X657900Y608786D02*
Y621192D01*
X664900D02*
G03X657900I-3500J-3252D01*
G01X664900D02*
Y608786D01*
X657900D02*
G03X664900I3500J3333D01*
G01X614500Y507386D02*
Y519792D01*
X621500D02*
G03X614500I-3500J-3252D01*
G01X621500D02*
Y507386D01*
X614500D02*
G03X621500I3500J3333D01*
G01X605900D02*
Y519792D01*
X612900D02*
G03X605900I-3500J-3252D01*
G01X612900D02*
Y507386D01*
X605900D02*
G03X612900I3500J3333D01*
G01X665500Y608786D02*
Y621192D01*
X672500D02*
G03X665500I-3500J-3252D01*
G01X672500D02*
Y608786D01*
X665500D02*
G03X672500I3500J3333D01*
G01X642700D02*
Y621192D01*
X649700D02*
G03X642700I-3500J-3252D01*
G01X649700D02*
Y608786D01*
X642700D02*
G03X649700I3500J3333D01*
G01X642300Y506786D02*
Y519192D01*
X649300D02*
G03X642300I-3500J-3252D01*
G01X649300D02*
Y506786D01*
X642300D02*
G03X649300I3500J3333D01*
G01X622900Y507386D02*
Y519792D01*
X629900D02*
G03X622900I-3500J-3252D01*
G01X629900D02*
Y507386D01*
X622900D02*
G03X629900I3500J3333D01*
G01X597500D02*
Y519792D01*
X604500D02*
G03X597500I-3500J-3252D01*
G01X604500D02*
Y507386D01*
X597500D02*
G03X604500I3500J3333D01*
G01X649527Y580275D02*
Y576994D01*
Y580275D02*
X650323D01*
X650664Y580119*
X650891Y579806*
X651005Y579494*
X651118Y579025*
Y578244*
X651005Y577775*
X650891Y577463*
X650891D02*
X650664Y577150D01*
X650323Y576994*
X649527*
X653505Y579806D02*
X653391Y580119D01*
X653050Y580275*
X652823*
X652482Y580119*
X652255Y579650*
X652141Y578869*
Y578088*
X652141D02*
X652255Y577463D01*
X652255D02*
X652482Y577150D01*
X652823Y576994*
X652936*
X653277Y577150*
X653505Y577463*
X653505D02*
X653618Y577931D01*
Y578088*
X653618D02*
X653505Y578556D01*
X653277Y578869*
X652936Y579025*
X652823*
X652482Y578869*
X652255Y578556*
X652141Y578088*
X612706Y612811D02*
X612394Y612698D01*
X612081Y612470*
X611925Y612243*
Y611789*
X612081Y611561*
X612394Y611334*
X612706Y611220*
X613175Y611107*
X613956*
X614425Y611220*
X614737Y611334*
X615050Y611561*
X615206Y611789*
Y612243*
X615050Y612470*
X614737Y612698*
X614425Y612811*
X612706Y613948D02*
X612550D01*
X612237Y614061*
X612081Y614175*
X611925Y614402*
Y614857*
X612081Y615084*
X612237Y615198*
X612550Y615311*
X612862*
X613175Y615198*
X613644Y614970*
X615206Y613834*
Y615425*
X611925Y617130D02*
X612081Y616789D01*
X612550Y616561*
X613331Y616448*
X613800*
X614581Y616561*
X615050Y616789*
X615206Y617130*
Y617357*
X615050Y617698*
X614581Y617925*
X613800Y618039*
X613331*
X612550Y617925*
X612081Y617698*
X611925Y617357*
Y617130*
X611362Y590471D02*
X611248Y590784D01*
X611021Y591096*
X610793Y591253*
X610339*
X610112Y591096*
X609884Y590784*
X609771Y590471*
X609657Y590003*
Y589221*
X609771Y588753*
X609884Y588440*
X610112Y588128*
X610339Y587971*
X610793*
X611021Y588128*
X611248Y588440*
X611362Y588753*
X612498Y590471D02*
Y590628D01*
X612612Y590940*
X612725Y591096*
X612952Y591253*
X613407*
X613634Y591096*
X613748Y590940*
X613862Y590628*
Y590315*
X613748Y590003*
X613521Y589534*
X612384Y587971*
X613975*
X616362Y590784D02*
X616248Y591096D01*
X615907Y591253*
X615680*
X615339Y591096*
X615112Y590628*
X614998Y589846*
Y589065*
X615112Y588440*
X615339Y588128*
X615680Y587971*
X615793*
X616134Y588128*
X616362Y588440*
X616475Y588909*
Y589065*
X616362Y589534*
X616134Y589846*
X615793Y590003*
X615680*
X615339Y589846*
X615112Y589534*
X614998Y589065*
X619305Y592700D02*
X619191Y593013D01*
X619191D02*
X618964Y593325D01*
X618736Y593481*
X618282*
X618055Y593325*
X617827Y593013*
X617827D02*
X617714Y592700D01*
X617600Y592231*
Y591450*
X617714Y590981*
X617827Y590669*
X618055Y590356*
X618282Y590200*
X618736*
X618964Y590356*
X619191Y590669*
X619305Y590981*
X620441Y592700D02*
Y592856D01*
X620555Y593169*
X620668Y593325*
X620895Y593481*
X621350*
X621577Y593325*
X621691Y593169*
X621805Y592856*
Y592544*
X621691Y592231*
X621464Y591763*
X621464D02*
X620327Y590200D01*
X621918*
X622941Y592856D02*
X623168Y593013D01*
X623168D02*
X623509Y593481D01*
Y590200*
X639630Y567694D02*
X639516Y568006D01*
X639289Y568319*
X639061Y568475*
X638607*
X638380Y568319*
X638152Y568006*
X638039Y567694*
X637925Y567225*
Y566444*
X638039Y565975*
X638152Y565663*
X638152D02*
X638380Y565350D01*
X638607Y565194*
X639061*
X639289Y565350*
X639516Y565663*
X639516D02*
X639630Y565975D01*
X640652Y567850D02*
X640880Y568006D01*
X641220Y568475*
Y565194*
X625000Y593481D02*
Y590200D01*
Y593481D02*
X626023D01*
X626364Y593325*
X626477Y593169*
X626591Y592856*
Y592544*
X626477Y592231*
X626364Y592075*
X626023Y591919*
X625000*
X625795D02*
X626591Y590200D01*
X629091Y592388D02*
X628977Y591919D01*
X628750Y591606*
X628409Y591450*
X628295*
X627955Y591606*
X627727Y591919*
X627614Y592388*
X627614D02*
Y592544D01*
X627727Y593013*
X627727D02*
X627955Y593325D01*
X628295Y593481*
X628409*
X628750Y593325*
X628977Y593013*
X628977D02*
X629091Y592388D01*
X629091D02*
Y591606D01*
X628977Y590825*
X628750Y590356*
X628409Y590200*
X628182*
X627841Y590356*
X627727Y590669*
X608470Y535625D02*
X608356Y535938D01*
X608129Y536250*
X607902Y536406*
X607447*
X607220Y536250*
X606993Y535938*
X606879Y535625*
X606765Y535156*
Y534375*
X606879Y533906*
X606993Y533594*
X607220Y533281*
X607447Y533125*
X607902*
X608129Y533281*
X608356Y533594*
X608470Y533906*
X609606Y535625D02*
Y535781D01*
X609720Y536094*
X609834Y536250*
X610061Y536406*
X610515*
X610743Y536250*
X610856Y536094*
X610970Y535781*
Y535469*
X610856Y535156*
X610629Y534688*
X609493Y533125*
X611084*
X612220Y535625D02*
Y535781D01*
X612334Y536094*
X612447Y536250*
X612675Y536406*
X613129*
X613356Y536250*
X613470Y536094*
X613584Y535781*
Y535469*
X613470Y535156*
X613243Y534688*
X612106Y533125*
X613697*
X603300Y613505D02*
X602987Y613391D01*
X602675Y613164*
X602519Y612936*
Y612482*
X602675Y612255*
X602987Y612027*
X603300Y611914*
X603769Y611800*
X604550*
X605019Y611914*
X605331Y612027*
X605644Y612255*
X605800Y612482*
Y612936*
X605644Y613164*
X605331Y613391*
X605019Y613505*
X603144Y614527D02*
X602987Y614755D01*
X602519Y615095*
X605800*
X603612Y617595D02*
X604081Y617482D01*
X604394Y617255*
X604550Y616914*
Y616800*
X604394Y616459*
X604081Y616232*
X603612Y616118*
X603456*
X602987Y616232*
X602675Y616459*
X602519Y616800*
Y616914*
X602675Y617255*
X602987Y617482*
X603612Y617595*
X604394*
X605175Y617482*
X605644Y617255*
X605800Y616914*
Y616686*
X605644Y616345*
X605331Y616232*
X625400Y612681D02*
Y609400D01*
Y612681D02*
X626423D01*
X626764Y612525*
X626877Y612369*
X626991Y612056*
Y611744*
X626877Y611431*
X626764Y611275*
X626423Y611119*
X625400*
X626195D02*
X626991Y609400D01*
X628127Y611900D02*
Y612056D01*
X628241Y612369*
X628355Y612525*
X628582Y612681*
X629036*
X629264Y612525*
X629377Y612369*
X629491Y612056*
Y611744*
X629377Y611431*
X629150Y610963*
X629150D02*
X628014Y609400D01*
X629605*
X653305Y625700D02*
X653191Y626013D01*
X653191D02*
X652964Y626325D01*
X652736Y626481*
X652282*
X652055Y626325*
X651827Y626013*
X651827D02*
X651714Y625700D01*
X651600Y625231*
Y624450*
X651714Y623981*
X651827Y623669*
X652055Y623356*
X652282Y623200*
X652736*
X652964Y623356*
X653191Y623669*
X653305Y623981*
X654441Y625700D02*
Y625856D01*
X654555Y626169*
X654668Y626325*
X654895Y626481*
X655350*
X655577Y626325*
X655691Y626169*
X655805Y625856*
Y625544*
X655691Y625231*
X655464Y624763*
X655464D02*
X654327Y623200D01*
X655918*
X619400Y585481D02*
Y583138D01*
X619400D02*
X619514Y582669D01*
X619741Y582356*
X620082Y582200*
X620309*
X620650Y582356*
X620877Y582669*
X620991Y583138*
X620991D02*
Y585481D01*
X622014Y584856D02*
X622241Y585013D01*
X622241D02*
X622582Y585481D01*
Y582200*
X650470Y556675D02*
Y553394D01*
Y556675D02*
X651266D01*
X651607Y556519*
X651834Y556206*
X651948Y555894*
X652061Y555425*
Y554644*
X651948Y554175*
X651834Y553863*
X651834D02*
X651607Y553550D01*
X651266Y553394*
X650470*
X654675Y556675D02*
X653539Y553394D01*
X653084Y556675D02*
X654675D01*
X644779Y546012D02*
Y542730D01*
Y546012D02*
X645801D01*
X646142Y545855*
X646256Y545699*
X646370Y545387*
Y545074*
X646256Y544762*
X646142Y544605*
X645801Y544449*
X644779*
X645574D02*
X646370Y542730D01*
X648756Y545543D02*
X648642Y545855D01*
X648301Y546012*
X648074*
X647733Y545855*
X647506Y545387*
X647392Y544605*
Y543824*
X647506Y543199*
X647733Y542887*
X648074Y542730*
X648188*
X648529Y542887*
X648756Y543199*
X648870Y543668*
Y543824*
X648756Y544293*
X648529Y544605*
X648188Y544762*
X648074*
X647733Y544605*
X647506Y544293*
X647392Y543824*
X627014Y548675D02*
Y545394D01*
Y548675D02*
X628036D01*
X628377Y548519*
X628491Y548362*
X628491D02*
X628605Y548050D01*
Y547737*
X628605D02*
X628491Y547425D01*
X628377Y547269*
X628036Y547112*
X628036D02*
X627014D01*
X627809D02*
X628605Y545394D01*
X631105Y548675D02*
X629968D01*
X629855Y547269*
X629968Y547425*
X630309Y547581*
X630650*
X630991Y547425*
X631218Y547112*
X631218D02*
X631332Y546644D01*
X631218Y546331*
X631105Y545862*
X631105D02*
X630877Y545550D01*
X630536Y545394*
X630195*
X629855Y545550*
X629741Y545706*
X629627Y546019*
X646379Y590091D02*
Y586810D01*
Y590091D02*
X647402D01*
X647743Y589935*
X647857Y589778*
X647970Y589466*
Y589153*
X647857Y588841*
X647743Y588685*
X647402Y588528*
X646379*
X647175D02*
X647970Y586810D01*
X649561Y590091D02*
X649220Y589935D01*
X649107Y589622*
Y589310*
X649220Y588997*
X649448Y588841*
X649902Y588685*
X650243Y588528*
X650470Y588216*
X650584Y587903*
Y587435*
X650470Y587122*
X650357Y586966*
X650016Y586810*
X649561*
X649220Y586966*
X649107Y587122*
X648993Y587435*
Y587903*
X649107Y588216*
X649334Y588528*
X649675Y588685*
X650129Y588841*
X650357Y588997*
X650470Y589310*
Y589622*
X650357Y589935*
X650016Y590091*
X649561*
X626470Y589275D02*
Y585994D01*
Y589275D02*
X627493D01*
X627834Y589119*
X627948Y588963*
X627948D02*
X628061Y588650D01*
Y588338*
X628061D02*
X627948Y588025D01*
X627834Y587869*
X627493Y587713*
X627493D02*
X626470D01*
X627266D02*
X628061Y585994D01*
X630675Y589275D02*
X629539Y585994D01*
X629084Y589275D02*
X630675D01*
X522107Y504475D02*
Y501194D01*
Y504475D02*
X523130D01*
X523470Y504319*
X523584Y504163*
X523584D02*
X523698Y503850D01*
Y503538*
X523698D02*
X523584Y503225D01*
X523470Y503069*
X523130Y502913*
X523130D02*
X522107D01*
X522902D02*
X523698Y501194D01*
X525857Y504475D02*
X524720Y502288D01*
X524720D02*
X526425D01*
X525857Y504475D02*
Y501194D01*
X527561Y503694D02*
Y503850D01*
X527675Y504163*
X527675D02*
X527789Y504319D01*
X528016Y504475*
X528470*
X528698Y504319*
X528811Y504163*
X528811D02*
X528925Y503850D01*
Y503538*
X528925D02*
X528811Y503225D01*
X528584Y502756*
X527448Y501194*
X529039*
X512870Y546088D02*
Y543134D01*
Y546088D02*
X514461Y543134D01*
Y546088D02*
Y543134D01*
X515711Y546088D02*
X516961D01*
X516961D02*
X516280Y544963D01*
X516280D02*
X516620D01*
X516620D02*
X516848Y544822D01*
X516961Y544681*
X517075Y544259*
Y543978*
X516961Y543556*
X516734Y543275*
X516393Y543134*
X516052*
X515711Y543275*
X515598Y543416*
X515484Y543697*
X540414Y539275D02*
Y535994D01*
Y539275D02*
X541209D01*
X541550Y539119*
X541777Y538806*
X541891Y538494*
X542005Y538025*
Y537244*
X541891Y536775*
X541777Y536463*
X541777D02*
X541550Y536150D01*
X541209Y535994*
X540414*
X544505Y539275D02*
X543368D01*
X543255Y537869*
X543368Y538025*
X543709Y538181*
X544050*
X544391Y538025*
X544618Y537713*
X544618D02*
X544732Y537244D01*
X544618Y536931*
X544505Y536463*
X544505D02*
X544277Y536150D01*
X543936Y535994*
X543595*
X543255Y536150*
X543141Y536306*
X543027Y536619*
X507298Y531282D02*
X507185Y531594D01*
X506957Y531907*
X506730Y532063*
X506276*
X506048Y531907*
X505821Y531594*
X505707Y531282*
X505594Y530813*
Y530032*
X505707Y529563*
X505821Y529251*
X506048Y528938*
X506276Y528782*
X506730*
X506957Y528938*
X507185Y529251*
X507298Y529563*
X508321Y531438D02*
X508548Y531594D01*
X508889Y532063*
Y528782*
X510594Y532063D02*
X510253Y531907D01*
X510026Y531438*
X509912Y530657*
Y530188*
X510026Y529407*
X510253Y528938*
X510594Y528782*
X510821*
X511162Y528938*
X511389Y529407*
X511503Y530188*
Y530657*
X511389Y531438*
X511162Y531907*
X510821Y532063*
X510594*
X519039Y533875D02*
X518811Y533719D01*
X518584Y533406*
X518470Y533094*
X518357Y532625*
Y531844*
X518470Y531375*
X518584Y531063*
X518584D02*
X518811Y530750D01*
X519039Y530594*
X519493*
X519720Y530750*
X519948Y531063*
X519948D02*
X520061Y531375D01*
X520175Y531844*
Y532625*
X520061Y533094*
X519948Y533406*
X519720Y533719*
X519493Y533875*
X519039*
X519380Y531219D02*
X520061Y530281D01*
X521311Y533094D02*
Y533250D01*
X521425Y533563*
X521425D02*
X521539Y533719D01*
X521766Y533875*
X522220*
X522448Y533719*
X522561Y533563*
X522561D02*
X522675Y533250D01*
Y532938*
X522675D02*
X522561Y532625D01*
X522334Y532156*
X521198Y530594*
X522789*
X518574Y518606D02*
X515293D01*
X518574D02*
Y517584D01*
X518418Y517243*
X518262Y517129*
X517949Y517015*
X517637*
X517324Y517129*
X517168Y517243*
X517012Y517584*
Y518606*
Y517811D02*
X515293Y517015D01*
X518574Y514856D02*
X516387Y515993D01*
Y514288*
X518574Y514856D02*
X515293D01*
X518574Y513038D02*
Y511788D01*
X517324Y512470*
Y512129*
X517168Y511902*
X517012Y511788*
X516543Y511674*
X516231*
X515762Y511788*
X515449Y512015*
X515293Y512356*
Y512697*
X515449Y513038*
X515606Y513152*
X515918Y513265*
X561450Y517475D02*
Y514194D01*
Y517475D02*
X562473D01*
X562814Y517319*
X562927Y517163*
X562927D02*
X563041Y516850D01*
Y516538*
X563041D02*
X562927Y516225D01*
X562814Y516069*
X562473Y515913*
X562473D02*
X561450D01*
X562245D02*
X563041Y514194D01*
X565200Y517475D02*
X564064Y515288D01*
X564064D02*
X565768D01*
X565200Y517475D02*
Y514194D01*
X567927Y517475D02*
X566791Y515288D01*
X566791D02*
X568495D01*
X567927Y517475D02*
Y514194D01*
X545123Y517894D02*
X545009Y518206D01*
X544782Y518519*
X544555Y518675*
X544100*
X543873Y518519*
X543645Y518206*
X543532Y517894*
X543418Y517425*
Y516644*
X543532Y516175*
X543645Y515863*
X543645D02*
X543873Y515550D01*
X544100Y515394*
X544555*
X544782Y515550*
X545009Y515863*
X545009D02*
X545123Y516175D01*
X546145Y518050D02*
X546373Y518206D01*
X546714Y518675*
Y515394*
X547850Y517894D02*
Y518050D01*
X547964Y518363*
X547964D02*
X548077Y518519D01*
X548305Y518675*
X548759*
X548986Y518519*
X549100Y518363*
X549100D02*
X549214Y518050D01*
Y517738*
X549214D02*
X549100Y517425D01*
X548873Y516956*
X547736Y515394*
X549327*
X534818Y504675D02*
Y501394D01*
Y504675D02*
X535841D01*
X536182Y504519*
X536295Y504363*
X536295D02*
X536409Y504050D01*
Y503738*
X536409D02*
X536295Y503425D01*
X536182Y503269*
X535841Y503113*
X535841D02*
X534818D01*
X535614D02*
X536409Y501394D01*
X538568Y504675D02*
X537432Y502488D01*
X537432D02*
X539136D01*
X538568Y504675D02*
Y501394D01*
X540159Y504050D02*
X540386Y504206D01*
X540727Y504675*
Y501394*
X541214Y533475D02*
Y530194D01*
Y533475D02*
X542805Y530194D01*
Y533475D02*
Y530194D01*
X544964Y533475D02*
X543827Y531288D01*
X543827D02*
X545532D01*
X544964Y533475D02*
Y530194D01*
X549639Y535875D02*
X549411Y535719D01*
X549184Y535406*
X549070Y535094*
X548957Y534625*
Y533844*
X549070Y533375*
X549184Y533063*
X549184D02*
X549411Y532750D01*
X549639Y532594*
X550093*
X550320Y532750*
X550548Y533063*
X550548D02*
X550661Y533375D01*
X550775Y533844*
Y534625*
X550661Y535094*
X550548Y535406*
X550320Y535719*
X550093Y535875*
X549639*
X549980Y533219D02*
X550661Y532281D01*
X552025Y535875D02*
X553275D01*
X552593Y534625*
X552934*
X553161Y534469*
X553275Y534313*
X553275D02*
X553389Y533844D01*
Y533531*
X553275Y533063*
X553275D02*
X553048Y532750D01*
X552707Y532594*
X552366*
X552025Y532750*
X551911Y532906*
X551798Y533219*
X573400Y553481D02*
Y550200D01*
Y553481D02*
X574423D01*
X574764Y553325*
X574877Y553169*
X574991Y552856*
Y552544*
X574877Y552231*
X574764Y552075*
X574423Y551919*
X573400*
X574195D02*
X574991Y550200D01*
X576014Y552856D02*
X576241Y553013D01*
X576582Y553481*
Y550200*
X577718Y552700D02*
Y552856D01*
X577832Y553169*
X577945Y553325*
X578173Y553481*
X578627*
X578855Y553325*
X578968Y553169*
X579082Y552856*
Y552544*
X578968Y552231*
X578741Y551763*
X577605Y550200*
X579195*
X543270Y582674D02*
Y579392D01*
X544861Y582674D02*
Y579392D01*
X543270Y581111D02*
X544861D01*
X545884Y582674D02*
Y579392D01*
X547247*
X548270Y582674D02*
Y579392D01*
Y582674D02*
X549747D01*
X548270Y581111D02*
X549179D01*
X548270Y579392D02*
X549747D01*
X550770Y582674D02*
Y579392D01*
Y582674D02*
X551566D01*
X551906Y582517*
X552134Y582205*
X552247Y581892*
X552361Y581424*
Y580642*
X552247Y580174*
X552134Y579861*
X551906Y579549*
X551566Y579392*
X550770*
X534016Y547830D02*
Y544549D01*
Y547830D02*
X535038D01*
X535379Y547674*
X535493Y547518*
X535607Y547205*
Y546893*
X535493Y546580*
X535379Y546424*
X535038Y546268*
X534016*
X534811D02*
X535607Y544549D01*
X536629Y547205D02*
X536857Y547361D01*
X537197Y547830*
Y544549*
X539357Y547830D02*
X538220Y545643D01*
X539925*
X539357Y547830D02*
Y544549D01*
X535200Y570681D02*
Y567400D01*
Y570681D02*
X536223D01*
X536564Y570525*
X536677Y570369*
X536791Y570056*
Y569744*
X536677Y569431*
X536564Y569275*
X536223Y569119*
X535200*
X535995D02*
X536791Y567400D01*
X537814Y570681D02*
Y567400D01*
X540427Y570213D02*
X540200Y570525D01*
X539859Y570681*
X539405*
X539064Y570525*
X538836Y570213*
X538836D02*
Y569900D01*
X538950Y569588*
X538950D02*
X539064Y569431D01*
X539291Y569275*
X539973Y568963*
X539973D02*
X540200Y568806D01*
X540314Y568650*
X540427Y568338*
X540427D02*
Y567869D01*
X540200Y567556*
X539859Y567400*
X539405*
X539064Y567556*
X538836Y567869*
X541450Y570681D02*
Y567400D01*
Y570681D02*
X542927D01*
X541450Y569119D02*
X542359D01*
X541450Y567400D02*
X542927D01*
X544745Y570681D02*
Y567400D01*
X543950Y570681D02*
X545541D01*
X546564Y566775D02*
X548950D01*
X549632Y570681D02*
Y567400D01*
Y570681D02*
X550541Y567400D01*
X551450Y570681D02*
X550541Y567400D01*
X551450Y570681D02*
Y567400D01*
X553155Y570681D02*
X552927Y570525D01*
X552700Y570213*
X552700D02*
X552586Y569900D01*
X552473Y569431*
Y568650*
X552586Y568181*
X552700Y567869*
X552927Y567556*
X553155Y567400*
X553609*
X553836Y567556*
X554064Y567869*
X554177Y568181*
X554291Y568650*
Y569431*
X554177Y569900*
X554064Y570213*
X554064D02*
X553836Y570525D01*
X553609Y570681*
X553155*
X555314D02*
Y567400D01*
Y570681D02*
X556109D01*
X556450Y570525*
X556677Y570213*
X556677D02*
X556791Y569900D01*
X556905Y569431*
Y568650*
X556791Y568181*
X556677Y567869*
X556450Y567556*
X556109Y567400*
X555314*
X557927Y570681D02*
Y567400D01*
Y570681D02*
X559405D01*
X557927Y569119D02*
X558836D01*
X557927Y567400D02*
X559405D01*
X543408Y565746D02*
X543295Y566058D01*
X543068Y566371*
X542840Y566527*
X542386*
X542158Y566371*
X541931Y566058*
X541818Y565746*
X541704Y565277*
Y564496*
X541818Y564027*
X541931Y563714*
X542158Y563402*
X542386Y563246*
X542840*
X543068Y563402*
X543295Y563714*
X543408Y564027*
X544431Y565902D02*
X544658Y566058D01*
X544999Y566527*
Y563246*
X546022Y565902D02*
X546249Y566058D01*
X546590Y566527*
Y563246*
X564501Y529610D02*
Y527266D01*
X564615Y526797*
X564842Y526485*
X565183Y526328*
X565410*
X565751Y526485*
X565978Y526797*
X566092Y527266*
Y529610*
X568251D02*
X567115Y527422D01*
X568819*
X568251Y529610D02*
Y526328D01*
X660905Y625700D02*
X660791Y626013D01*
X660791D02*
X660564Y626325D01*
X660336Y626481*
X659882*
X659655Y626325*
X659427Y626013*
X659427D02*
X659314Y625700D01*
X659200Y625231*
Y624450*
X659314Y623981*
X659427Y623669*
X659655Y623356*
X659882Y623200*
X660336*
X660564Y623356*
X660791Y623669*
X660905Y623981*
X663291Y626013D02*
X663177Y626325D01*
X662836Y626481*
X662609*
X662268Y626325*
X662041Y625856*
X661927Y625075*
Y624294*
X662041Y623669*
X662268Y623356*
X662609Y623200*
X662723*
X663064Y623356*
X663291Y623669*
X663405Y624138*
X663405D02*
Y624294D01*
X663291Y624763*
X663291D02*
X663064Y625075D01*
X662723Y625231*
X662609*
X662268Y625075*
X662041Y624763*
X662041D02*
X661927Y624294D01*
X546400Y596281D02*
Y593000D01*
Y596281D02*
X547195D01*
X547536Y596125*
X547764Y595813*
X547764D02*
X547877Y595500D01*
X547991Y595031*
Y594250*
X547877Y593781*
X547764Y593469*
X547536Y593156*
X547195Y593000*
X546400*
X549241Y596281D02*
X550491D01*
X549809Y595031*
X550150*
X550377Y594875*
X550491Y594719*
X550605Y594250*
Y593938*
X550605D02*
X550491Y593469D01*
X550264Y593156*
X549923Y593000*
X549582*
X549241Y593156*
X549127Y593313*
X549127D02*
X549014Y593625D01*
X595319Y611800D02*
X598600D01*
X595319D02*
Y612823D01*
X595475Y613164*
X595631Y613277*
X595944Y613391*
X596256*
X596569Y613277*
X596725Y613164*
X596881Y612823*
Y611800*
Y612595D02*
X598600Y613391D01*
X595319Y614414D02*
X598600D01*
X595319D02*
Y615436D01*
X595475Y615777*
X595631Y615891*
X595944Y616005*
X596256*
X596569Y615891*
X596725Y615777*
X596881Y615436*
Y614414D02*
Y615436D01*
X597037Y615777*
X597194Y615891*
X597506Y616005*
X597975*
X598287Y615891*
X598444Y615777*
X598600Y615436*
Y614414*
X595319Y617936D02*
X598600Y617027D01*
X595319Y617936D02*
X598600Y618845D01*
X597506Y617368D02*
Y618505D01*
X595319Y620664D02*
X598600D01*
X595319Y619868D02*
Y621459D01*
Y622482D02*
X598600D01*
X595319D02*
X598600Y623391D01*
X595319Y624300D02*
X598600Y623391D01*
X595319Y624300D02*
X598600D01*
X589319Y611800D02*
X592600D01*
X589319D02*
Y612823D01*
X589475Y613164*
X589631Y613277*
X589944Y613391*
X590256*
X590569Y613277*
X590725Y613164*
X590881Y612823*
Y611800*
Y612595D02*
X592600Y613391D01*
X590100Y616118D02*
X589787Y616005D01*
X589475Y615777*
X589319Y615550*
Y615095*
X589475Y614868*
X589787Y614641*
X590100Y614527*
X590569Y614414*
X591350*
X591819Y614527*
X592131Y614641*
X592444Y614868*
X592600Y615095*
Y615550*
X592444Y615777*
X592131Y616005*
X591819Y616118*
X589319Y618050D02*
X592600Y617141D01*
X589319Y618050D02*
X592600Y618959D01*
X591506Y617482D02*
Y618618D01*
X589319Y619982D02*
X592600D01*
X589319D02*
Y621005D01*
X589475Y621345*
X589631Y621459*
X589944Y621573*
X590412*
X590725Y621459*
X590881Y621345*
X591037Y621005*
Y619982*
X617105Y504300D02*
X616991Y504613D01*
X616991D02*
X616764Y504925D01*
X616536Y505081*
X616082*
X615855Y504925*
X615627Y504613*
X615627D02*
X615514Y504300D01*
X615400Y503831*
Y503050*
X615514Y502581*
X615627Y502269*
X615855Y501956*
X616082Y501800*
X616536*
X616764Y501956*
X616991Y502269*
X617105Y502581*
X618127Y504456D02*
X618355Y504613D01*
X618355D02*
X618695Y505081D01*
Y501800*
X621082Y504613D02*
X620968Y504925D01*
X620627Y505081*
X620400*
X620059Y504925*
X619832Y504456*
X619718Y503675*
Y502894*
X619832Y502269*
X620059Y501956*
X620400Y501800*
X620514*
X620855Y501956*
X621082Y502269*
X621195Y502738*
X621195D02*
Y502894D01*
X621082Y503363*
X621082D02*
X620855Y503675D01*
X620514Y503831*
X620400*
X620059Y503675*
X619832Y503363*
X619832D02*
X619718Y502894D01*
X607905Y504500D02*
X607791Y504813D01*
X607791D02*
X607564Y505125D01*
X607336Y505281*
X606882*
X606655Y505125*
X606427Y504813*
X606427D02*
X606314Y504500D01*
X606200Y504031*
Y503250*
X606314Y502781*
X606427Y502469*
X606655Y502156*
X606882Y502000*
X607336*
X607564Y502156*
X607791Y502469*
X607905Y502781*
X608927Y504656D02*
X609155Y504813D01*
X609155D02*
X609495Y505281D01*
Y502000*
X612109Y505281D02*
X610973Y502000D01*
X610518Y505281D02*
X612109D01*
X582519Y611800D02*
X585800D01*
X582519D02*
Y612823D01*
X582675Y613164*
X582831Y613277*
X583144Y613391*
X583456*
X583769Y613277*
X583925Y613164*
X584081Y612823*
Y611800*
Y612595D02*
X585800Y613391D01*
X582519Y614414D02*
X585800Y615323D01*
X582519Y616232D02*
X585800Y615323D01*
X582987Y618845D02*
X582675Y618618D01*
X582519Y618277*
Y617823*
X582675Y617482*
X582987Y617255*
X583300*
X583612Y617368*
X583769Y617482*
X583925Y617709*
X584237Y618391*
X584394Y618618*
X584550Y618732*
X584862Y618845*
X585331*
X585644Y618618*
X585800Y618277*
Y617823*
X585644Y617482*
X585331Y617255*
X582519Y619868D02*
X585800D01*
X582519D02*
Y621345D01*
X584081Y619868D02*
Y620777D01*
X585800Y619868D02*
Y621345D01*
X582519Y623164D02*
X585800D01*
X582519Y622368D02*
Y623959D01*
X576519Y612200D02*
X579800D01*
X576519D02*
Y613223D01*
X576675Y613564*
X576831Y613677*
X577144Y613791*
X577456*
X577769Y613677*
X577925Y613564*
X578081Y613223*
Y612200*
Y612995D02*
X579800Y613791D01*
X576519Y614814D02*
X579800D01*
X576987Y617427D02*
X576675Y617200D01*
X576519Y616859*
Y616405*
X576675Y616064*
X576987Y615836*
X577300*
X577612Y615950*
X577769Y616064*
X577925Y616291*
X578237Y616973*
X578394Y617200*
X578550Y617314*
X578862Y617427*
X579331*
X579644Y617200*
X579800Y616859*
Y616405*
X579644Y616064*
X579331Y615836*
X576519Y618450D02*
X579800D01*
X576519D02*
Y619927D01*
X578081Y618450D02*
Y619359D01*
X579800Y618450D02*
Y619927D01*
X576519Y621745D02*
X579800D01*
X576519Y620950D02*
Y622541D01*
X535600Y576281D02*
Y573000D01*
Y576281D02*
X536623D01*
X536964Y576125*
X537077Y575969*
X537191Y575656*
Y575344*
X537077Y575031*
X536964Y574875*
X536623Y574719*
X535600*
X536395D02*
X537191Y573000D01*
X538214Y576281D02*
Y573000D01*
Y576281D02*
X539236D01*
X539577Y576125*
X539691Y575969*
X539805Y575656*
Y575344*
X539691Y575031*
X539577Y574875*
X539236Y574719*
X538214D02*
X539236D01*
X539577Y574563*
X539577D02*
X539691Y574406D01*
X539805Y574094*
Y573625*
X539691Y573313*
X539691D02*
X539577Y573156D01*
X539236Y573000*
X538214*
X541736Y576281D02*
X540827Y573000D01*
X541736Y576281D02*
X542645Y573000D01*
X541168Y574094D02*
X542305D01*
X544464Y576281D02*
Y573000D01*
X543668Y576281D02*
X545259D01*
X546282Y572375D02*
X548668D01*
X549350Y576281D02*
Y573000D01*
Y576281D02*
X550259Y573000D01*
X551168Y576281D02*
X550259Y573000D01*
X551168Y576281D02*
Y573000D01*
X552873Y576281D02*
X552645Y576125D01*
X552418Y575813*
X552418D02*
X552305Y575500D01*
X552191Y575031*
Y574250*
X552305Y573781*
X552418Y573469*
X552645Y573156*
X552873Y573000*
X553327*
X553555Y573156*
X553782Y573469*
X553895Y573781*
X554009Y574250*
Y575031*
X553895Y575500*
X553782Y575813*
X553782D02*
X553555Y576125D01*
X553327Y576281*
X552873*
X555032D02*
Y573000D01*
Y576281D02*
X555827D01*
X556168Y576125*
X556395Y575813*
X556395D02*
X556509Y575500D01*
X556623Y575031*
Y574250*
X556509Y573781*
X556395Y573469*
X556168Y573156*
X555827Y573000*
X555032*
X557645Y576281D02*
Y573000D01*
Y576281D02*
X559123D01*
X557645Y574719D02*
X558555D01*
X557645Y573000D02*
X559123D01*
X629261Y570294D02*
X629148Y570606D01*
X628920Y570919*
X628693Y571075*
X628239*
X628011Y570919*
X627784Y570606*
X627670Y570294*
X627557Y569825*
Y569044*
X627670Y568575*
X627784Y568263*
X627784D02*
X628011Y567950D01*
X628239Y567794*
X628693*
X628920Y567950*
X629148Y568263*
X629148D02*
X629261Y568575D01*
X631420Y571075D02*
X630284Y568888D01*
X630284D02*
X631989D01*
X631420Y571075D02*
Y567794D01*
X668305Y625700D02*
X668191Y626013D01*
X668191D02*
X667964Y626325D01*
X667736Y626481*
X667282*
X667055Y626325*
X666827Y626013*
X666827D02*
X666714Y625700D01*
X666600Y625231*
Y624450*
X666714Y623981*
X666827Y623669*
X667055Y623356*
X667282Y623200*
X667736*
X667964Y623356*
X668191Y623669*
X668305Y623981*
X669555Y626481D02*
X670805D01*
X670123Y625231*
X670464*
X670691Y625075*
X670805Y624919*
X670918Y624450*
Y624138*
X670918D02*
X670805Y623669D01*
X670577Y623356*
X670236Y623200*
X669895*
X669555Y623356*
X669441Y623513*
X669441D02*
X669327Y623825D01*
X645505Y625700D02*
X645391Y626013D01*
X645391D02*
X645164Y626325D01*
X644936Y626481*
X644482*
X644255Y626325*
X644027Y626013*
X644027D02*
X643914Y625700D01*
X643800Y625231*
Y624450*
X643914Y623981*
X644027Y623669*
X644255Y623356*
X644482Y623200*
X644936*
X645164Y623356*
X645391Y623669*
X645505Y623981*
X648005Y626481D02*
X646868D01*
X646755Y625075*
X646868Y625231*
X647209Y625388*
X647209D02*
X647550D01*
X647550D02*
X647891Y625231D01*
X648118Y624919*
X648232Y624450*
X648118Y624138*
X648118D02*
X648005Y623669D01*
X647777Y623356*
X647436Y623200*
X647095*
X646755Y623356*
X646641Y623513*
X646641D02*
X646527Y623825D01*
X643000Y528281D02*
Y525000D01*
Y528281D02*
X644023D01*
X644364Y528125*
X644477Y527969*
X644591Y527656*
Y527344*
X644477Y527031*
X644364Y526875*
X644023Y526719*
X643000*
X643795D02*
X644591Y525000D01*
X645614Y527656D02*
X645841Y527813D01*
X646182Y528281*
Y525000*
X645505Y503900D02*
X645391Y504213D01*
X645391D02*
X645164Y504525D01*
X644936Y504681*
X644482*
X644255Y504525*
X644027Y504213*
X644027D02*
X643914Y503900D01*
X643800Y503431*
Y502650*
X643914Y502181*
X644027Y501869*
X644255Y501556*
X644482Y501400*
X644936*
X645164Y501556*
X645391Y501869*
X645505Y502181*
X648118Y504681D02*
X646982Y501400D01*
X646527Y504681D02*
X648118D01*
X620505Y543500D02*
X620391Y543813D01*
X620391D02*
X620164Y544125D01*
X619936Y544281*
X619482*
X619255Y544125*
X619027Y543813*
X619027D02*
X618914Y543500D01*
X618800Y543031*
Y542250*
X618914Y541781*
X619027Y541469*
X619255Y541156*
X619482Y541000*
X619936*
X620164Y541156*
X620391Y541469*
X620505Y541781*
X622095Y544281D02*
X621755Y544125D01*
X621641Y543813*
X621641D02*
Y543500D01*
X621755Y543188*
X621755D02*
X621982Y543031D01*
X622436Y542875*
X622777Y542719*
X623005Y542406*
X623118Y542094*
Y541625*
X623005Y541313*
X623005D02*
X622891Y541156D01*
X622550Y541000*
X622095*
X621755Y541156*
X621641Y541313*
X621641D02*
X621527Y541625D01*
Y542094*
X621641Y542406*
X621868Y542719*
X622209Y542875*
X622664Y543031*
X622891Y543188*
X622891D02*
X623005Y543500D01*
Y543813*
X623005D02*
X622891Y544125D01*
X622550Y544281*
X622095*
X691705Y552100D02*
X691591Y552413D01*
X691364Y552725*
X691136Y552881*
X690682*
X690455Y552725*
X690227Y552413*
X690114Y552100*
X690000Y551631*
Y550850*
X690114Y550381*
X690227Y550069*
X690455Y549756*
X690682Y549600*
X691136*
X691364Y549756*
X691591Y550069*
X691705Y550381*
X692727Y552256D02*
X692955Y552413D01*
X693295Y552881*
Y549600*
X694545Y552881D02*
X695795D01*
X695114Y551631*
X695455*
X695682Y551475*
X695795Y551319*
X695909Y550850*
Y550538*
X695795Y550069*
X695568Y549756*
X695227Y549600*
X694886*
X694545Y549756*
X694432Y549913*
X694318Y550225*
X691905Y570100D02*
X691791Y570413D01*
X691791D02*
X691564Y570725D01*
X691336Y570881*
X690882*
X690655Y570725*
X690427Y570413*
X690427D02*
X690314Y570100D01*
X690200Y569631*
Y568850*
X690314Y568381*
X690427Y568069*
X690655Y567756*
X690882Y567600*
X691336*
X691564Y567756*
X691791Y568069*
X691905Y568381*
X692927Y570256D02*
X693155Y570413D01*
X693155D02*
X693495Y570881D01*
Y567600*
X695655Y570881D02*
X694518Y568694D01*
X696223*
X695655Y570881D02*
Y567600D01*
X663800Y559881D02*
Y556600D01*
Y559881D02*
X664823D01*
X665164Y559725*
X665277Y559569*
X665391Y559256*
Y558944*
X665277Y558631*
X665164Y558475*
X664823Y558319*
X663800*
X664595D02*
X665391Y556600D01*
X666641Y559881D02*
X667891D01*
X667209Y558631*
X667550*
X667777Y558475*
X667891Y558319*
X668005Y557850*
Y557538*
X668005D02*
X667891Y557069D01*
X667664Y556756*
X667323Y556600*
X666982*
X666641Y556756*
X666527Y556913*
X666527D02*
X666414Y557225D01*
X663800Y565881D02*
Y562600D01*
Y565881D02*
X664823D01*
X665164Y565725*
X665277Y565569*
X665391Y565256*
Y564944*
X665277Y564631*
X665164Y564475*
X664823Y564319*
X663800*
X664595D02*
X665391Y562600D01*
X667550Y565881D02*
X666414Y563694D01*
X668118*
X667550Y565881D02*
Y562600D01*
X625105Y504300D02*
X624991Y504613D01*
X624991D02*
X624764Y504925D01*
X624536Y505081*
X624082*
X623855Y504925*
X623627Y504613*
X623627D02*
X623514Y504300D01*
X623400Y503831*
Y503050*
X623514Y502581*
X623627Y502269*
X623855Y501956*
X624082Y501800*
X624536*
X624764Y501956*
X624991Y502269*
X625105Y502581*
X626127Y504456D02*
X626355Y504613D01*
X626355D02*
X626695Y505081D01*
Y501800*
X629195Y505081D02*
X628059D01*
X627945Y503675*
X628059Y503831*
X628400Y503988*
X628400D02*
X628741D01*
X628741D02*
X629082Y503831D01*
X629309Y503519*
X629423Y503050*
X629309Y502738*
X629309D02*
X629195Y502269D01*
X628968Y501956*
X628627Y501800*
X628286*
X627945Y501956*
X627832Y502113*
X627832D02*
X627718Y502425D01*
X598905Y504500D02*
X598791Y504813D01*
X598791D02*
X598564Y505125D01*
X598336Y505281*
X597882*
X597655Y505125*
X597427Y504813*
X597427D02*
X597314Y504500D01*
X597200Y504031*
Y503250*
X597314Y502781*
X597427Y502469*
X597655Y502156*
X597882Y502000*
X598336*
X598564Y502156*
X598791Y502469*
X598905Y502781*
X599927Y504656D02*
X600155Y504813D01*
X600155D02*
X600495Y505281D01*
Y502000*
X602086Y505281D02*
X601745Y505125D01*
X601632Y504813*
X601632D02*
Y504500D01*
X601745Y504188*
X601745D02*
X601973Y504031D01*
X602427Y503875*
X602768Y503719*
X602995Y503406*
X603109Y503094*
Y502625*
X602995Y502313*
X602995D02*
X602882Y502156D01*
X602541Y502000*
X602086*
X601745Y502156*
X601632Y502313*
X601632D02*
X601518Y502625D01*
Y503094*
X601632Y503406*
X601859Y503719*
X602200Y503875*
X602655Y504031*
X602882Y504188*
X602882D02*
X602995Y504500D01*
Y504813*
X602995D02*
X602882Y505125D01*
X602541Y505281*
X602086*
X564700Y614305D02*
X564387Y614191D01*
X564075Y613964*
X563919Y613736*
Y613282*
X564075Y613055*
X564387Y612827*
X564700Y612714*
X565169Y612600*
X565950*
X566419Y612714*
X566731Y612827*
X567044Y613055*
X567200Y613282*
Y613736*
X567044Y613964*
X566731Y614191*
X566419Y614305*
X564700Y615441D02*
X564544D01*
X564231Y615555*
X564075Y615668*
X563919Y615895*
Y616350*
X564075Y616577*
X564231Y616691*
X564544Y616805*
X564856*
X565169Y616691*
X565637Y616464*
X567200Y615327*
Y616918*
X563919Y618168D02*
Y619418D01*
X565169Y618736*
Y619077*
X565325Y619305*
X565481Y619418*
X565950Y619532*
X566262*
X566731Y619418*
X567044Y619191*
X567200Y618850*
Y618509*
X567044Y618168*
X566887Y618055*
X566575Y617941*
X624400Y544281D02*
Y541000D01*
Y544281D02*
X625423D01*
X625764Y544125*
X625877Y543969*
X625991Y543656*
Y543344*
X625877Y543031*
X625764Y542875*
X625423Y542719*
X624400*
X625195D02*
X625991Y541000D01*
X627014Y543656D02*
X627241Y543813D01*
X627241D02*
X627582Y544281D01*
Y541000*
X630082Y543188D02*
X629968Y542719D01*
X629741Y542406*
X629400Y542250*
X629286*
X628945Y542406*
X628718Y542719*
X628605Y543188*
X628605D02*
Y543344D01*
X628718Y543813*
X628718D02*
X628945Y544125D01*
X629286Y544281*
X629400*
X629741Y544125*
X629968Y543813*
X629968D02*
X630082Y543188D01*
X630082D02*
Y542406D01*
X629968Y541625*
X629741Y541156*
X629400Y541000*
X629173*
X628832Y541156*
X628718Y541469*
X569719Y612200D02*
X573000D01*
X569719D02*
Y613223D01*
X569875Y613564*
X570031Y613677*
X570344Y613791*
X570656*
X570969Y613677*
X571125Y613564*
X571281Y613223*
Y612200*
Y612995D02*
X573000Y613791D01*
X569719Y614814D02*
X573000D01*
X569719D02*
X573000Y616405D01*
X569719D02*
X573000D01*
X569719Y618223D02*
X573000D01*
X569719Y617427D02*
Y619018D01*
X570500Y621745D02*
X570187Y621632D01*
X569875Y621405*
X569719Y621177*
Y620723*
X569875Y620495*
X570187Y620268*
X570500Y620155*
X570969Y620041*
X571750*
X572219Y620155*
X572531Y620268*
X572844Y620495*
X573000Y620723*
Y621177*
X572844Y621405*
X572531Y621632*
X572219Y621745*
X683870Y529475D02*
Y527131D01*
X683984Y526663*
X684211Y526350*
X684552Y526194*
X684780*
X685120Y526350*
X685348Y526663*
X685461Y527131*
Y529475*
X686598Y528694D02*
Y528850D01*
X686711Y529163*
X686825Y529319*
X687052Y529475*
X687507*
X687734Y529319*
X687848Y529163*
X687961Y528850*
Y528538*
X687848Y528225*
X687620Y527756*
X686484Y526194*
X688075*
X684070Y599275D02*
Y596931D01*
X684184Y596463*
X684411Y596150*
X684752Y595994*
X684980*
X685320Y596150*
X685548Y596463*
X685661Y596931*
Y599275*
X686911D02*
X688161D01*
X687480Y598025*
X687820*
X688048Y597869*
X688161Y597713*
X688275Y597244*
Y596931*
X688161Y596463*
X687934Y596150*
X687593Y595994*
X687252*
X686911Y596150*
X686798Y596306*
X686684Y596619*
X529000Y595881D02*
Y592600D01*
Y595881D02*
X529795D01*
X530136Y595725*
X530364Y595413*
X530364D02*
X530477Y595100D01*
X530591Y594631*
Y593850*
X530477Y593381*
X530364Y593069*
X530136Y592756*
X529795Y592600*
X529000*
X531614Y595256D02*
X531841Y595413D01*
X531841D02*
X532182Y595881D01*
Y592600*
X537000Y596081D02*
Y592800D01*
Y596081D02*
X537795D01*
X538136Y595925*
X538364Y595613*
X538364D02*
X538477Y595300D01*
X538591Y594831*
Y594050*
X538477Y593581*
X538364Y593269*
X538136Y592956*
X537795Y592800*
X537000*
X539727Y595300D02*
Y595456D01*
X539841Y595769*
X539955Y595925*
X540182Y596081*
X540636*
X540864Y595925*
X540977Y595769*
X541091Y595456*
Y595144*
X540977Y594831*
X540750Y594363*
X540750D02*
X539614Y592800D01*
X541205*
X553600Y596281D02*
Y593000D01*
Y596281D02*
X554395D01*
X554736Y596125*
X554964Y595813*
X554964D02*
X555077Y595500D01*
X555191Y595031*
Y594250*
X555077Y593781*
X554964Y593469*
X554736Y593156*
X554395Y593000*
X553600*
X557350Y596281D02*
X556214Y594094D01*
X557918*
X557350Y596281D02*
Y593000D01*
X573800Y588281D02*
Y585000D01*
Y588281D02*
X574823D01*
X575164Y588125*
X575277Y587969*
X575391Y587656*
Y587344*
X575277Y587031*
X575164Y586875*
X574823Y586719*
X573800*
X574595D02*
X575391Y585000D01*
X576414Y587656D02*
X576641Y587813D01*
X576641D02*
X576982Y588281D01*
Y585000*
X578232Y588281D02*
X579482D01*
X578800Y587031*
X579141*
X579368Y586875*
X579482Y586719*
X579595Y586250*
Y585938*
X579595D02*
X579482Y585469D01*
X579255Y585156*
X578914Y585000*
X578573*
X578232Y585156*
X578118Y585313*
X578118D02*
X578005Y585625D01*
X573800Y581481D02*
Y578200D01*
Y581481D02*
X574823D01*
X575164Y581325*
X575277Y581169*
X575391Y580856*
Y580544*
X575277Y580231*
X575164Y580075*
X574823Y579919*
X573800*
X574595D02*
X575391Y578200D01*
X576414Y580856D02*
X576641Y581013D01*
X576982Y581481*
Y578200*
X578686Y581481D02*
X578345Y581325D01*
X578118Y580856*
X578005Y580075*
Y579606*
X578118Y578825*
X578345Y578356*
X578686Y578200*
X578914*
X579255Y578356*
X579482Y578825*
X579595Y579606*
Y580075*
X579482Y580856*
X579255Y581325*
X578914Y581481*
X578686*
X573800Y562681D02*
Y559400D01*
Y562681D02*
X574823D01*
X575164Y562525*
X575277Y562369*
X575391Y562056*
Y561744*
X575277Y561431*
X575164Y561275*
X574823Y561119*
X573800*
X574595D02*
X575391Y559400D01*
X576414Y562056D02*
X576641Y562213D01*
X576982Y562681*
Y559400*
X578005Y562056D02*
X578232Y562213D01*
X578573Y562681*
Y559400*
X517400Y595881D02*
Y592600D01*
Y595881D02*
X518423D01*
X518764Y595725*
X518877Y595569*
X518991Y595256*
Y594944*
X518877Y594631*
X518764Y594475*
X518423Y594319*
X517400*
X518195D02*
X518991Y592600D01*
X520014Y595256D02*
X520241Y595413D01*
X520241D02*
X520582Y595881D01*
Y592600*
X523082Y595881D02*
X521945D01*
X521832Y594475*
X521945Y594631*
X522286Y594788*
X522286D02*
X522627D01*
X522627D02*
X522968Y594631D01*
X523195Y594319*
X523309Y593850*
X523195Y593538*
X523195D02*
X523082Y593069D01*
X522855Y592756*
X522514Y592600*
X522173*
X521832Y592756*
X521718Y592913*
X521718D02*
X521605Y593225D01*
X699932Y577203D02*
X699705Y577063D01*
X699705D02*
X699477Y576781D01*
X699364Y576500*
X699250Y576078*
Y575375*
X699364Y574953*
X699477Y574672*
X699705Y574391*
X699932Y574250*
X700386*
X700614Y574391*
X700841Y574672*
X700955Y574953*
X701068Y575375*
Y576078*
X700955Y576500*
X700841Y576781*
X700614Y577063*
X700614D02*
X700386Y577203D01*
X699932*
X700273Y574813D02*
X700955Y573969D01*
X702091Y576641D02*
X702318Y576781D01*
X702659Y577203*
Y574250*
X698000Y592481D02*
Y589200D01*
Y592481D02*
X699023D01*
X699364Y592325*
X699477Y592169*
X699591Y591856*
Y591544*
X699477Y591231*
X699364Y591075*
X699023Y590919*
X698000*
X698795D02*
X699591Y589200D01*
X700614Y591856D02*
X700841Y592013D01*
X700841D02*
X701182Y592481D01*
Y589200*
X703568Y592013D02*
X703455Y592325D01*
X703114Y592481*
X702886*
X702545Y592325*
X702318Y591856*
X702205Y591075*
Y590294*
X702318Y589669*
X702545Y589356*
X702886Y589200*
X703000*
X703341Y589356*
X703568Y589669*
X703682Y590138*
X703682D02*
Y590294D01*
X703568Y590763*
X703568D02*
X703341Y591075D01*
X703000Y591231*
X702886*
X702545Y591075*
X702318Y590763*
X702318D02*
X702205Y590294D01*
X698000Y586281D02*
Y583000D01*
Y586281D02*
X699023D01*
X699364Y586125*
X699477Y585969*
X699591Y585656*
Y585344*
X699477Y585031*
X699364Y584875*
X699023Y584719*
X698000*
X698795D02*
X699591Y583000D01*
X700614Y585656D02*
X700841Y585813D01*
X700841D02*
X701182Y586281D01*
Y583000*
X703795Y586281D02*
X702659Y583000D01*
X702205Y586281D02*
X703795D01*
X697000Y558081D02*
Y554800D01*
Y558081D02*
X698023D01*
X698364Y557925*
X698477Y557769*
X698591Y557456*
Y557144*
X698477Y556831*
X698364Y556675*
X698023Y556519*
X697000*
X697795D02*
X698591Y554800D01*
X699614Y557456D02*
X699841Y557613D01*
X699841D02*
X700182Y558081D01*
Y554800*
X701773Y558081D02*
X701432Y557925D01*
X701318Y557613*
X701318D02*
Y557300D01*
X701432Y556988*
X701432D02*
X701659Y556831D01*
X702114Y556675*
X702455Y556519*
X702682Y556206*
X702795Y555894*
Y555425*
X702682Y555113*
X702682D02*
X702568Y554956D01*
X702227Y554800*
X701773*
X701432Y554956*
X701318Y555113*
X701318D02*
X701205Y555425D01*
Y555894*
X701318Y556206*
X701545Y556519*
X701886Y556675*
X702341Y556831*
X702568Y556988*
X702568D02*
X702682Y557300D01*
Y557613*
X702682D02*
X702568Y557925D01*
X702227Y558081*
X701773*
X686281Y612600D02*
X683000D01*
X686281D02*
Y611577D01*
X686125Y611236*
X685969Y611123*
X685656Y611009*
X685344*
X685031Y611123*
X684875Y611236*
X684719Y611577*
Y612600*
Y611805D02*
X683000Y611009D01*
X685500Y609873D02*
X685656D01*
X685969Y609759*
X686125Y609645*
X686281Y609418*
Y608964*
X686125Y608736*
X685969Y608623*
X685656Y608509*
X685344*
X685031Y608623*
X684563Y608850*
X684563D02*
X683000Y609986D01*
Y608395*
X686281Y606691D02*
X686125Y607032D01*
X685656Y607259*
X684875Y607373*
X684406*
X683625Y607259*
X683156Y607032*
X683000Y606691*
Y606464*
X683156Y606123*
X683625Y605895*
X684406Y605782*
X684875*
X685656Y605895*
X686125Y606123*
X686281Y606464*
Y606691*
X699505Y563900D02*
X699391Y564213D01*
X699391D02*
X699164Y564525D01*
X698936Y564681*
X698482*
X698255Y564525*
X698027Y564213*
X698027D02*
X697914Y563900D01*
X697800Y563431*
Y562650*
X697914Y562181*
X698027Y561869*
X698255Y561556*
X698482Y561400*
X698936*
X699164Y561556*
X699391Y561869*
X699505Y562181*
X702005Y563588D02*
X701891Y563119D01*
X701664Y562806*
X701323Y562650*
X701209*
X700868Y562806*
X700641Y563119*
X700527Y563588*
X700527D02*
Y563744D01*
X700641Y564213*
X700641D02*
X700868Y564525D01*
X701209Y564681*
X701323*
X701664Y564525*
X701891Y564213*
X701891D02*
X702005Y563588D01*
X702005D02*
Y562806D01*
X701891Y562025*
X701664Y561556*
X701323Y561400*
X701095*
X700755Y561556*
X700641Y561869*
X581200Y544081D02*
Y540800D01*
X582564*
X584382Y544081D02*
Y540800D01*
X583586Y544081D02*
X585177D01*
X523800Y615081D02*
Y611800D01*
X524823Y615081D02*
Y611800D01*
Y615081D02*
X526414Y611800D01*
Y615081D02*
Y611800D01*
X528232Y615081D02*
Y611800D01*
X527436Y615081D02*
X529027D01*
X534991Y614613D02*
X534764Y614925D01*
X534423Y615081*
X533968*
X533627Y614925*
X533400Y614613*
X533400D02*
Y614300D01*
X533514Y613988*
X533514D02*
X533627Y613831D01*
X533855Y613675*
X534536Y613363*
X534536D02*
X534764Y613206D01*
X534877Y613050*
X534991Y612738*
X534991D02*
Y612269D01*
X534764Y611956*
X534423Y611800*
X533968*
X533627Y611956*
X533400Y612269*
X537718Y614300D02*
X537605Y614613D01*
X537605D02*
X537377Y614925D01*
X537150Y615081*
X536695*
X536468Y614925*
X536241Y614613*
X536241D02*
X536127Y614300D01*
X536014Y613831*
Y613050*
X536127Y612581*
X536241Y612269*
X536468Y611956*
X536695Y611800*
X537150*
X537377Y611956*
X537605Y612269*
X537718Y612581*
X538741Y615081D02*
Y611800D01*
X540105*
X544191Y614613D02*
X543964Y614925D01*
X543623Y615081*
X543168*
X542827Y614925*
X542600Y614613*
X542600D02*
Y614300D01*
X542714Y613988*
X542714D02*
X542827Y613831D01*
X543055Y613675*
X543736Y613363*
X543736D02*
X543964Y613206D01*
X544077Y613050*
X544191Y612738*
X544191D02*
Y612269D01*
X543964Y611956*
X543623Y611800*
X543168*
X542827Y611956*
X542600Y612269*
X545214Y615081D02*
Y611800D01*
Y615081D02*
X546009D01*
X546350Y614925*
X546577Y614613*
X546577D02*
X546691Y614300D01*
X546805Y613831*
Y613050*
X546691Y612581*
X546577Y612269*
X546350Y611956*
X546009Y611800*
X545214*
X548736Y615081D02*
X547827Y611800D01*
X548736Y615081D02*
X549645Y611800D01*
X548168Y612894D02*
X549305D01*
X554705Y614300D02*
X554591Y614613D01*
X554591D02*
X554364Y614925D01*
X554136Y615081*
X553682*
X553455Y614925*
X553227Y614613*
X553227D02*
X553114Y614300D01*
X553000Y613831*
Y613050*
X553114Y612581*
X553227Y612269*
X553455Y611956*
X553682Y611800*
X554136*
X554364Y611956*
X554591Y612269*
X554705Y612581*
Y613050*
X554136D02*
X554705D01*
X555727Y615081D02*
Y611800D01*
Y615081D02*
X557318Y611800D01*
Y615081D02*
Y611800D01*
X558341Y615081D02*
Y611800D01*
Y615081D02*
X559136D01*
X559477Y614925*
X559705Y614613*
X559705D02*
X559818Y614300D01*
X559932Y613831*
Y613050*
X559818Y612581*
X559705Y612269*
X559477Y611956*
X559136Y611800*
X558341*
X560800Y538481D02*
Y535200D01*
Y538481D02*
X562391Y535200D01*
Y538481D02*
Y535200D01*
X565118Y537700D02*
X565005Y538013D01*
X565005D02*
X564777Y538325D01*
X564550Y538481*
X564095*
X563868Y538325*
X563641Y538013*
X563641D02*
X563527Y537700D01*
X563414Y537231*
Y536450*
X563527Y535981*
X563641Y535669*
X563868Y535356*
X564095Y535200*
X564550*
X564777Y535356*
X565005Y535669*
X565118Y535981*
X693600Y606881D02*
Y603600D01*
Y606881D02*
X695191Y603600D01*
Y606881D02*
Y603600D01*
X697918Y606100D02*
X697805Y606413D01*
X697805D02*
X697577Y606725D01*
X697350Y606881*
X696895*
X696668Y606725*
X696441Y606413*
X696441D02*
X696327Y606100D01*
X696214Y605631*
Y604850*
X696327Y604381*
X696441Y604069*
X696668Y603756*
X696895Y603600*
X697350*
X697577Y603756*
X697805Y604069*
X697918Y604381*
X695882Y619681D02*
X695541Y619525D01*
X695314Y619056*
X695200Y618275*
Y617806*
X695314Y617025*
X695541Y616556*
X695882Y616400*
X696109*
X696450Y616556*
X696677Y617025*
X696791Y617806*
Y618275*
X696677Y619056*
X696450Y619525*
X696109Y619681*
X695882*
X697814D02*
Y616400D01*
Y619681D02*
X698836D01*
X699177Y619525*
X699291Y619369*
X699405Y619056*
Y618744*
X699291Y618431*
X699177Y618275*
X698836Y618119*
X697814*
X698609D02*
X699405Y616400D01*
X565200Y563856D02*
X565427Y564013D01*
X565427D02*
X565768Y564481D01*
Y561200*
X566791Y564481D02*
Y561200D01*
X568382Y564481D02*
X566791Y562294D01*
X567359Y563075D02*
X568382Y561200D01*
X607519Y511600D02*
X610800D01*
X607519D02*
X610800Y513191D01*
X607519D02*
X610800D01*
X608300Y515918D02*
X607987Y515805D01*
X607987D02*
X607675Y515577D01*
X607519Y515350*
Y514895*
X607675Y514668*
X607987Y514441*
X607987D02*
X608300Y514327D01*
X608769Y514214*
X609550*
X610019Y514327*
X610331Y514441*
X610644Y514668*
X610800Y514895*
Y515350*
X610644Y515577*
X610331Y515805*
X610019Y515918*
X599519Y511600D02*
X602800D01*
X599519D02*
X602800Y513191D01*
X599519D02*
X602800D01*
X600300Y515918D02*
X599987Y515805D01*
X599987D02*
X599675Y515577D01*
X599519Y515350*
Y514895*
X599675Y514668*
X599987Y514441*
X599987D02*
X600300Y514327D01*
X600769Y514214*
X601550*
X602019Y514327*
X602331Y514441*
X602644Y514668*
X602800Y514895*
Y515350*
X602644Y515577*
X602331Y515805*
X602019Y515918*
X652319Y612400D02*
X655600D01*
X652319D02*
X655600Y613991D01*
X652319D02*
X655600D01*
X653100Y616718D02*
X652787Y616605D01*
X652787D02*
X652475Y616377D01*
X652319Y616150*
Y615695*
X652475Y615468*
X652787Y615241*
X652787D02*
X653100Y615127D01*
X653569Y615014*
X654350*
X654819Y615127*
X655131Y615241*
X655444Y615468*
X655600Y615695*
Y616150*
X655444Y616377*
X655131Y616605*
X654819Y616718*
X659919Y612400D02*
X663200D01*
X659919D02*
X663200Y613991D01*
X659919D02*
X663200D01*
X660700Y616718D02*
X660387Y616605D01*
X660387D02*
X660075Y616377D01*
X659919Y616150*
Y615695*
X660075Y615468*
X660387Y615241*
X660387D02*
X660700Y615127D01*
X661169Y615014*
X661950*
X662419Y615127*
X662731Y615241*
X663044Y615468*
X663200Y615695*
Y616150*
X663044Y616377*
X662731Y616605*
X662419Y616718*
X597200Y567281D02*
Y564000D01*
X598223Y567281D02*
Y564000D01*
Y567281D02*
X599245D01*
X599586Y567125*
X599700Y566969*
X599814Y566656*
Y566188*
X599814D02*
X599700Y565875D01*
X599586Y565719*
X599245Y565563*
X599245D02*
X598223D01*
X600950Y566500D02*
Y566656D01*
X601064Y566969*
X601177Y567125*
X601405Y567281*
X601859*
X602086Y567125*
X602200Y566969*
X602314Y566656*
Y566344*
X602200Y566031*
X601973Y565563*
X601973D02*
X600836Y564000D01*
X602427*
X603677Y567281D02*
X604927D01*
X604245Y566031*
X604586*
X604814Y565875*
X604927Y565719*
X605041Y565250*
Y564938*
X605041D02*
X604927Y564469D01*
X604700Y564156*
X604359Y564000*
X604018*
X603677Y564156*
X603564Y564313*
X603564D02*
X603450Y564625D01*
X607427Y566813D02*
X607314Y567125D01*
X606973Y567281*
X606745*
X606405Y567125*
X606177Y566656*
X606064Y565875*
Y565094*
X606177Y564469*
X606405Y564156*
X606745Y564000*
X606859*
X607200Y564156*
X607427Y564469*
X607541Y564938*
X607541D02*
Y565094D01*
X607427Y565563*
X607427D02*
X607200Y565875D01*
X606859Y566031*
X606745*
X606405Y565875*
X606177Y565563*
X606177D02*
X606064Y565094D01*
X609132Y567281D02*
X608791Y567125D01*
X608677Y566813*
X608677D02*
Y566500D01*
X608791Y566188*
X608791D02*
X609018Y566031D01*
X609473Y565875*
X609814Y565719*
X610041Y565406*
X610155Y565094*
Y564625*
X610041Y564313*
X610041D02*
X609927Y564156D01*
X609586Y564000*
X609132*
X608791Y564156*
X608677Y564313*
X608677D02*
X608564Y564625D01*
Y565094*
X608677Y565406*
X608905Y565719*
X609245Y565875*
X609700Y566031*
X609927Y566188*
X609927D02*
X610041Y566500D01*
Y566813*
X610041D02*
X609927Y567125D01*
X609586Y567281*
X609132*
X570000Y597281D02*
Y594000D01*
Y597281D02*
X570795D01*
X571136Y597125*
X571364Y596813*
X571364D02*
X571477Y596500D01*
X571591Y596031*
Y595250*
X571477Y594781*
X571364Y594469*
X571136Y594156*
X570795Y594000*
X570000*
X572614Y595250D02*
X573977D01*
Y595563*
X573977D02*
X573864Y595875D01*
X573750Y596031*
X573523Y596188*
X573523D02*
X573182D01*
X573182D02*
X572955Y596031D01*
X572727Y595719*
X572614Y595250*
Y594938*
X572614D02*
X572727Y594469D01*
X572955Y594156*
X573182Y594000*
X573523*
X573750Y594156*
X573977Y594469*
X575000Y597281D02*
Y594000D01*
Y595719D02*
X575227Y596031D01*
X575455Y596188*
X575455D02*
X575795D01*
X575795D02*
X576023Y596031D01*
X576250Y595719*
X576364Y595250*
Y594938*
X576364D02*
X576250Y594469D01*
X576023Y594156*
X575795Y594000*
X575455*
X575227Y594156*
X575000Y594469*
X577386Y596188D02*
Y594625D01*
X577500Y594156*
X577727Y594000*
X578068*
X578295Y594156*
X578636Y594625*
Y596188D02*
Y594000D01*
X581023Y596188D02*
Y593687D01*
X581023D02*
X580909Y593219D01*
X580795Y593062*
X580795D02*
X580568Y592906D01*
X580227*
X580000Y593062*
X581023Y595719D02*
X580795Y596031D01*
X580568Y596188*
X580568D02*
X580227D01*
X580227D02*
X580000Y596031D01*
X579773Y595719*
X579659Y595250*
Y594938*
X579659D02*
X579773Y594469D01*
X580000Y594156*
X580227Y594000*
X580568*
X580795Y594156*
X581023Y594469*
G54D49*
X632000Y608450D02*
Y600400D01*
X642000*
Y608450*
X632000Y615950D02*
Y624000D01*
X642000*
Y615950*
X506000Y541800D02*
X503500D01*
Y536800*
X512000Y541800D02*
X514500D01*
Y536800*
X508500Y532800D02*
X509500D01*
X521565Y529251D02*
X519065D01*
Y524251*
X527565Y529251D02*
X530065D01*
Y524251*
X524065Y520251D02*
X525065D01*
X535453Y529292D02*
X532953D01*
Y524292*
X541453Y529292D02*
X543953D01*
Y524292*
X537953Y520292D02*
X538953D01*
X548515Y528962D02*
X546015D01*
Y523962*
X554515Y528962D02*
X557015D01*
Y523962*
X551015Y519962D02*
X552015D01*
X563950Y547400D02*
X572000D01*
Y557400*
X563950*
X556450Y547400D02*
X548400D01*
Y557400*
X556450*
X546968Y512286D02*
Y502286D01*
X566968*
Y512286*
X546968*
X521200Y626000D02*
Y616000D01*
X561200*
Y626000*
X521200*
X641200Y530350D02*
Y538400D01*
X631200*
Y530350*
X641200Y522850D02*
Y514800D01*
X631200*
Y522850*
X706800Y577800D02*
X704300D01*
Y572800*
X712800Y577800D02*
X715300D01*
Y572800*
X709300Y568800D02*
X710300D01*
X700750Y614000D02*
X708800D01*
Y624000*
X700750*
X693250Y614000D02*
X685200D01*
Y624000*
X693250*
X712700Y605950D02*
Y599388D01*
Y605950D02*
X714745D01*
X715427Y605638*
X715427D02*
X715655Y605325D01*
X715882Y604700*
Y604075*
X715655Y603450*
X715427Y603138*
X715427D02*
X714745Y602825D01*
X712700D02*
X714745D01*
X715427Y602513*
X715427D02*
X715655Y602200D01*
X715882Y601575*
Y600638*
X715882D02*
X715655Y600013D01*
X715655D02*
X715427Y599700D01*
X714745Y599388*
X714745D02*
X712700D01*
X719745Y605950D02*
X717927Y599388D01*
X719745Y605950D02*
X721564Y599388D01*
X718609Y601575D02*
X720882D01*
X725200Y605950D02*
Y599388D01*
X723609Y605950D02*
X726791D01*
X716409Y528400D02*
X716182Y529025D01*
X715727Y529650*
X715273Y529962*
X715273D02*
X714364D01*
X714364D02*
X713909Y529650D01*
X713455Y529025*
X713227Y528400*
X713000Y527462*
X713000D02*
Y525900D01*
X713227Y524962*
X713227D02*
X713455Y524337D01*
X713455D02*
X713909Y523712D01*
X713909D02*
X714364Y523400D01*
X715273*
X715727Y523712*
X715727D02*
X716182Y524337D01*
X716182D02*
X716409Y524962D01*
X716409D02*
Y525900D01*
X715273D02*
X716409D01*
X718455Y529962D02*
Y523400D01*
Y529962D02*
X721636Y523400D01*
Y529962D02*
Y523400D01*
X723682Y529962D02*
Y523400D01*
Y529962D02*
X725273D01*
X725273D02*
X725955Y529650D01*
X726409Y529025*
X726636Y528400*
X726864Y527462*
X726864D02*
Y525900D01*
X726636Y524962*
X726636D02*
X726409Y524337D01*
X726409D02*
X725955Y523712D01*
X725955D02*
X725273Y523400D01*
X723682*
X502800Y606563D02*
X504618Y600000D01*
X506436Y606563D02*
X504618Y600000D01*
X508482Y606563D02*
Y600000D01*
X510527Y606563D02*
Y600000D01*
Y606563D02*
X513709Y600000D01*
Y606563D02*
Y600000D01*
X500600Y626584D02*
X727800D01*
Y500600*
X500600*
Y626584*
X501200Y760384D02*
X728400D01*
Y634400*
X501200*
Y760384*
X500600Y894384D02*
X727800D01*
Y768400*
X500600*
Y894384*
X500800Y1028384D02*
X728000D01*
Y902400*
X500800*
Y1028384*
X500200Y1162384D02*
X727400D01*
Y1036400*
X500200*
Y1162384*
X735400Y626984D02*
X962600D01*
Y501000*
X735400*
Y626984*
X735200Y760384D02*
X962400D01*
Y634400*
X735200*
Y760384*
X734600Y894384D02*
X961800D01*
Y768400*
X734600*
Y894384*
X734800Y1028384D02*
X962000D01*
Y902400*
X734800*
Y1028384*
X734200Y1162384D02*
X961400D01*
Y1036400*
X734200*
Y1162384*
G54D51*
X647951Y577986D02*
Y585072D01*
X629053*
Y577986*
X647951*
X636821Y581514D02*
X640380Y585072D01*
Y577986*
X636837Y581529*
X634967*
X636606Y577986D02*
Y585072D01*
X642606Y581529D02*
X640406D01*
X613978Y608586D02*
Y601304D01*
X608708D02*
G03X613978I2635J-0D01*
G01X608708D02*
Y608586D01*
X614036Y608166D02*
G03X608592Y608161I-2722J-228D01*
G01X607389Y597320D02*
X614671D01*
Y592050D02*
G03Y597320I0J2635D01*
G01Y592050D02*
X607389D01*
X607809Y597378D02*
G03X607813Y591934I228J-2722D01*
G01X618022Y596214D02*
Y603496D01*
X623292D02*
G03X618022I-2635J0D01*
G01X623292D02*
Y596214D01*
X617964Y596634D02*
G03X623408Y596639I2722J228D01*
G01X631158Y564206D02*
X638441D01*
Y558936D02*
G03Y564206I-0J2635D01*
G01Y558936D02*
X631158D01*
X631578Y564264D02*
G03X631583Y558820I228J-2721D01*
G01X614534Y526023D02*
X607251D01*
Y531293D02*
G03Y526023I0J-2635D01*
G01Y531293D02*
X614534D01*
X614114Y525965D02*
G03X614109Y531409I-229J2722D01*
G01X601622Y600614D02*
Y607896D01*
X606892D02*
G03X601622I-2635J0D01*
G01X606892D02*
Y600614D01*
X601564Y601034D02*
G03X607008Y601039I2722J228D01*
G01X649073Y551040D02*
Y558127D01*
X630176*
Y551040*
X649073*
X637944Y554568D02*
X641503Y558127D01*
Y551040*
X637959Y554584*
X636089*
X637729Y551040D02*
Y558127D01*
X643729Y554584D02*
X641529D01*
X539126Y534284D02*
Y541370D01*
X539126D02*
X520228D01*
X520228D02*
Y534284D01*
X539126*
X527996Y537812D02*
X531555Y541370D01*
X531555D02*
Y534284D01*
X528012Y537827*
X526141*
X527781Y534284D02*
Y541370D01*
X533781Y537827D02*
X531581D01*
X504814Y527978D02*
X512096D01*
Y522708D02*
G03Y527978I0J2635D01*
G01Y522708D02*
X504814D01*
X505234Y528036D02*
G03X505239Y522592I228J-2722D01*
G01X534343Y516834D02*
X541626D01*
Y511564D02*
G03Y516834I-0J2635D01*
G01Y511564D02*
X534343D01*
X534763Y516892D02*
G03X534768Y511448I229J-2722D01*
G01X631014Y576778D02*
X638296D01*
Y571508D02*
G03Y576778I0J2635D01*
G01Y571508D02*
X631014D01*
X631434Y576836D02*
G03X631439Y571392I228J-2722D01*
G01X623978Y538186D02*
Y530904D01*
X618708D02*
G03X623978I2635J-0D01*
G01X618708D02*
Y538186D01*
X624036Y537766D02*
G03X618592Y537761I-2722J-228D01*
G01X688978Y557586D02*
Y550304D01*
X683708D02*
G03X688978I2635J-0D01*
G01X683708D02*
Y557586D01*
X689036Y557166D02*
G03X683592Y557161I-2722J-228D01*
G01X683822Y562614D02*
Y569896D01*
X689092D02*
G03X683822I-2635J0D01*
G01X689092D02*
Y562614D01*
X683764Y563034D02*
G03X689208Y563039I2722J228D01*
G01X563222Y600614D02*
Y607896D01*
X568492D02*
G03X563222I-2635J0D01*
G01X568492D02*
Y600614D01*
X563164Y601034D02*
G03X568608Y601039I2722J228D01*
G01X705814Y566378D02*
X713096D01*
Y561108D02*
G03Y566378I0J2635D01*
G01Y561108D02*
X705814D01*
X706234Y566436D02*
G03X706239Y560992I228J-2722D01*
G54D59*
G54D103*
G01X505786Y521500D02*
X505627Y521938D01*
X505627D02*
X505309Y522375D01*
X504991Y522594*
X504355*
X504036Y522375*
X503718Y521938*
X503718D02*
X503559Y521500D01*
X503400Y520844*
Y519750*
X503559Y519094*
X503718Y518656*
X504036Y518219*
X504355Y518000*
X504991*
X505309Y518219*
X505627Y518656*
X505786Y519094*
Y519750*
X504991D02*
X505786D01*
X507218Y522594D02*
Y518000D01*
Y522594D02*
X509445Y518000D01*
Y522594D02*
Y518000D01*
X510877Y522594D02*
Y518000D01*
Y522594D02*
X511991D01*
X512468Y522375*
X512786Y521938*
X512786D02*
X512945Y521500D01*
X513105Y520844*
Y519750*
X512945Y519094*
X512786Y518656*
X512468Y518219*
X511991Y518000*
X510877*
G54D115*
X629559Y606109D02*
Y594691D01*
X624441*
Y606109*
X629559*
X643538Y550039D02*
Y538622D01*
X638420*
Y550039*
X643538*
X636938D02*
Y538622D01*
X631820*
Y550039*
X636938*
X644538Y597718D02*
Y586301D01*
X639420*
Y597718*
X644538*
X637738D02*
Y586301D01*
X632620*
Y597718*
X637738*
X530458Y505053D02*
X519040D01*
Y510171*
X530458*
Y505053*
X530976Y511986D02*
X519559D01*
Y517104*
X530976*
Y511986*
X548617Y518303D02*
X560035D01*
Y513185*
X548617*
Y518303*
X532745Y510077D02*
X544162D01*
Y504959*
X532745*
Y510077*
X534457Y549440D02*
Y560858D01*
X539575*
Y549440*
X534457*
X561291Y571559D02*
X572709D01*
Y566441*
X561291*
Y571559*
X599959Y610109D02*
Y598691D01*
X594841*
Y610109*
X599959*
X593559D02*
Y598691D01*
X588441*
Y610109*
X593559*
X587159D02*
Y598691D01*
X582041*
Y610109*
X587159*
X580759D02*
Y598691D01*
X575641*
Y610109*
X580759*
X561291Y577159D02*
X572709D01*
Y572041*
X561291*
Y577159*
X680709Y555641D02*
X669291D01*
Y560759*
X680709*
Y555641*
Y561641D02*
X669291D01*
Y566759*
X680709*
Y561641*
X624441Y528491D02*
Y539909D01*
X629559*
Y528491*
X624441*
X569241Y598891D02*
Y610309D01*
X574359*
Y598891*
X569241*
X561291Y588359D02*
X572709D01*
Y583241*
X561291*
Y588359*
X572709Y577641D02*
X561291D01*
Y582759*
X572709*
Y577641*
Y560041D02*
X561291D01*
Y565159*
X572709*
Y560041*
X523159Y609509D02*
Y598091D01*
X518041*
Y609509*
X523159*
X704491Y593559D02*
X715909D01*
Y588441*
X704491*
Y593559*
X715909Y582441D02*
X704491D01*
Y587559*
X715909*
Y582441*
X715509Y554041D02*
X704091D01*
Y559159*
X715509*
Y554041*
G54D166*
X556870Y583359D02*
Y582808D01*
Y584777D02*
Y584344D01*
X555886Y583359*
X557854*
X556870Y584344*
X558327Y590603D02*
X555413D01*
X553839Y589029*
Y576981*
X559902*
Y589029*
X558327Y590603*
X555965Y584344D02*
X556870D01*
X557776*
X555256Y584462D02*
X554587D01*
X555059Y584934D02*
X554587Y584462D01*
X555059Y583910*
X554587Y583438*
X555059Y582966*
X555256Y583438D02*
X554587D01*
X556179Y575141D02*
Y572926D01*
X555374Y574034D02*
X556985D01*
X546000Y603567D02*
Y603016D01*
Y604984D02*
Y604551D01*
X545016Y603567*
X546984*
X546000Y604551*
X547457Y610811D02*
X544543D01*
X542969Y609236*
X542969D02*
Y597189D01*
X542969D02*
X549031D01*
Y609236*
X547457Y610811*
X545094Y604551D02*
X546000D01*
X546906*
X544386Y604669D02*
X543717D01*
X544189Y605142D02*
X543717Y604669D01*
X544189Y604118*
X543717Y603646*
X544189Y603173*
X544386Y603646D02*
X543717D01*
X545309Y595348D02*
Y593134D01*
X544504Y594241D02*
X546115D01*
X528200Y603567D02*
Y603016D01*
Y604984D02*
Y604551D01*
X527216Y603567*
X529184*
X528200Y604551*
X529657Y610811D02*
X526743D01*
X525169Y609236*
X525169D02*
Y597189D01*
X525169D02*
X531231D01*
Y609236*
X529657Y610811*
X527294Y604551D02*
X528200D01*
X529106*
X526586Y604669D02*
X525917D01*
X526389Y605142D02*
X525917Y604669D01*
X526389Y604118*
X525917Y603646*
X526389Y603173*
X526586Y603646D02*
X525917D01*
X527509Y595348D02*
Y593134D01*
X526704Y594241D02*
X528315D01*
X537000Y604433D02*
Y604984D01*
Y603016D02*
Y603449D01*
X537984Y604433*
X536016*
X537000Y603449*
X535543Y597189D02*
X538457D01*
X540031Y598764*
X540031D02*
Y610811D01*
X540031D02*
X533969D01*
Y598764*
X535543Y597189*
X537906Y603449D02*
X537000D01*
X536094*
X538614Y603331D02*
X539283D01*
X538811Y602858D02*
X539283Y603331D01*
X538811Y603882*
X539283Y604354*
X538811Y604827*
X538614Y604354D02*
X539283D01*
X537691Y612652D02*
Y614866D01*
X538496Y613759D02*
X536885D01*
X554800Y604433D02*
Y604984D01*
Y603016D02*
Y603449D01*
X555784Y604433*
X553816*
X554800Y603449*
X553343Y597189D02*
X556257D01*
X557831Y598764*
X557831D02*
Y610811D01*
X557831D02*
X551769D01*
Y598764*
X553343Y597189*
X555706Y603449D02*
X554800D01*
X553894*
X556414Y603331D02*
X557083D01*
X556611Y602858D02*
X557083Y603331D01*
X556611Y603882*
X557083Y604354*
X556611Y604827*
X556414Y604354D02*
X557083D01*
X555491Y612652D02*
Y614866D01*
X556296Y613759D02*
X554685D01*
G74*
X0Y0D02*
M02*
