%TF.GenerationSoftware,KiCad,Pcbnew,8.0.3*%
%TF.CreationDate,2024-10-12T12:31:44+02:00*%
%TF.ProjectId,Parkside-100W-Brick,5061726b-7369-4646-952d-313030572d42,rev?*%
%TF.SameCoordinates,Original*%
%TF.FileFunction,Copper,L8,Bot*%
%TF.FilePolarity,Positive*%
%FSLAX46Y46*%
G04 Gerber Fmt 4.6, Leading zero omitted, Abs format (unit mm)*
G04 Created by KiCad (PCBNEW 8.0.3) date 2024-10-12 12:31:44*
%MOMM*%
%LPD*%
G01*
G04 APERTURE LIST*
%TA.AperFunction,ComponentPad*%
%ADD10C,0.700000*%
%TD*%
%TA.AperFunction,ComponentPad*%
%ADD11C,4.400000*%
%TD*%
%TA.AperFunction,ComponentPad*%
%ADD12O,2.100000X1.000000*%
%TD*%
%TA.AperFunction,ComponentPad*%
%ADD13O,1.600000X1.000000*%
%TD*%
%TA.AperFunction,ComponentPad*%
%ADD14R,6.500000X1.500000*%
%TD*%
%TA.AperFunction,ViaPad*%
%ADD15C,0.600000*%
%TD*%
%TA.AperFunction,ViaPad*%
%ADD16C,0.450000*%
%TD*%
%TA.AperFunction,Conductor*%
%ADD17C,0.250000*%
%TD*%
%TA.AperFunction,Conductor*%
%ADD18C,0.300000*%
%TD*%
%TA.AperFunction,Conductor*%
%ADD19C,0.500000*%
%TD*%
%TA.AperFunction,Conductor*%
%ADD20C,0.200000*%
%TD*%
G04 APERTURE END LIST*
D10*
%TO.P,J1,1,Pin_1*%
%TO.N,Net-(J1-Pin_1)*%
X195850000Y-100000000D03*
X196333274Y-98833274D03*
X196333274Y-101166726D03*
X197500000Y-98350000D03*
D11*
X197500000Y-100000000D03*
D10*
X197500000Y-101650000D03*
X198666726Y-98833274D03*
X198666726Y-101166726D03*
X199150000Y-100000000D03*
%TD*%
D12*
%TO.P,J2,S1,SHIELD*%
%TO.N,GND*%
X155155000Y-95680000D03*
D13*
X150975000Y-95680000D03*
D12*
X155155000Y-104320000D03*
D13*
X150975000Y-104320000D03*
%TD*%
D10*
%TO.P,J3,1,Pin_1*%
%TO.N,GND*%
X156230000Y-90850000D03*
X157396726Y-91333274D03*
X155063274Y-91333274D03*
X157880000Y-92500000D03*
D11*
X156230000Y-92500000D03*
D10*
X154580000Y-92500000D03*
X157396726Y-93666726D03*
X155063274Y-93666726D03*
X156230000Y-94150000D03*
%TD*%
%TO.P,J6,1,Pin_1*%
%TO.N,GND*%
X156230000Y-109150000D03*
X155063274Y-108666726D03*
X157396726Y-108666726D03*
X154580000Y-107500000D03*
D11*
X156230000Y-107500000D03*
D10*
X157880000Y-107500000D03*
X155063274Y-106333274D03*
X157396726Y-106333274D03*
X156230000Y-105850000D03*
%TD*%
D14*
%TO.P,L1,1*%
%TO.N,/IP2368 Buck-Boost-Converter/HB2*%
X187100000Y-110500000D03*
%TO.P,L1,2*%
%TO.N,/IP2368 Buck-Boost-Converter/HB1*%
X177100000Y-110500000D03*
%TD*%
D15*
%TO.N,GND*%
X163500000Y-110500000D03*
X189000000Y-91500000D03*
X152500000Y-101500000D03*
X177000000Y-96000000D03*
X173000000Y-95000000D03*
X159000000Y-110500000D03*
X151500000Y-92500000D03*
X190275352Y-98975000D03*
X162000000Y-109000000D03*
X183000000Y-94500000D03*
X169250000Y-101450000D03*
X175000000Y-97000000D03*
X192200000Y-91600000D03*
X152500000Y-98500000D03*
X189525000Y-101775352D03*
X160500000Y-101500000D03*
D16*
X195025000Y-109200000D03*
D15*
X182200000Y-107025000D03*
X182933333Y-105700000D03*
X151500000Y-94000000D03*
X157500000Y-89500000D03*
X153000000Y-92500000D03*
X159000000Y-104500000D03*
X181100000Y-99600000D03*
D16*
X169550000Y-99850000D03*
D15*
X177000000Y-94000000D03*
X181500000Y-90000000D03*
X199500000Y-110500000D03*
X172500000Y-89190000D03*
X180400000Y-89200000D03*
X151500000Y-109000000D03*
X173000000Y-94000000D03*
X161850000Y-100100000D03*
X153000000Y-110500000D03*
X189000000Y-90000000D03*
X173000000Y-96000000D03*
X186000000Y-90000000D03*
X185800000Y-98800000D03*
X153000000Y-95500000D03*
X177000000Y-97000000D03*
X151000000Y-100000000D03*
X154500000Y-110500000D03*
X152500000Y-100000000D03*
X152500000Y-103000000D03*
X171025352Y-102475000D03*
X151500000Y-107500000D03*
X171000000Y-110500000D03*
X185250000Y-91600000D03*
X178800000Y-89200000D03*
X175000000Y-95000000D03*
X166500000Y-110500000D03*
X159500000Y-107000000D03*
X157750000Y-95000000D03*
X181500000Y-94500000D03*
D16*
X169850000Y-92275000D03*
D15*
X181100000Y-98800000D03*
X151000000Y-101500000D03*
X183000000Y-90000000D03*
X151000000Y-97000000D03*
X192200000Y-89200000D03*
X185800000Y-99600000D03*
X153000000Y-107500000D03*
X153000000Y-89500000D03*
X181500000Y-93000000D03*
X186000000Y-91500000D03*
X159000000Y-106000000D03*
X182933333Y-106350000D03*
X182200000Y-106350000D03*
X181100000Y-98000000D03*
X174000000Y-94000000D03*
X154500000Y-89500000D03*
X182200000Y-107700000D03*
X152500000Y-97000000D03*
X187500000Y-90000000D03*
X169250000Y-105550000D03*
X192200000Y-90000000D03*
X183666666Y-107025000D03*
X174000000Y-93000000D03*
X199500000Y-102900000D03*
X181900000Y-99600000D03*
X175000000Y-93000000D03*
X188500000Y-102050000D03*
X190550000Y-100000000D03*
X182933333Y-107025000D03*
X190275352Y-101025000D03*
X173000000Y-93000000D03*
X181900000Y-100400000D03*
X151500000Y-91000000D03*
X185250000Y-90800000D03*
X185250000Y-89200000D03*
X190500000Y-90000000D03*
X167474648Y-102475000D03*
X184500000Y-90000000D03*
X186724648Y-98975000D03*
X151500000Y-106000000D03*
X160300000Y-107000000D03*
X175000000Y-94000000D03*
D16*
X168675000Y-100275000D03*
D15*
X161100000Y-107000000D03*
X160500000Y-110500000D03*
X183666666Y-107700000D03*
X183666666Y-105700000D03*
X153000000Y-104500000D03*
X181900000Y-98000000D03*
X183000000Y-91500000D03*
X176000000Y-96000000D03*
X198300000Y-102900000D03*
X162000000Y-106000000D03*
X157500000Y-104500000D03*
X162000000Y-101500000D03*
X174000000Y-96000000D03*
X165000000Y-110500000D03*
X160500000Y-104500000D03*
X171300000Y-103500000D03*
X173000000Y-97000000D03*
X181500000Y-91500000D03*
X157500000Y-110500000D03*
X174000000Y-95000000D03*
X176000000Y-97000000D03*
X176000000Y-94000000D03*
X182925000Y-108375000D03*
X160900000Y-99300000D03*
D16*
X168075000Y-100275000D03*
D15*
X182933333Y-107700000D03*
X182200000Y-105700000D03*
X158500000Y-95000000D03*
X181100000Y-100400000D03*
X160500000Y-103000000D03*
X151500000Y-110500000D03*
X157000000Y-95000000D03*
D16*
X169350000Y-96775000D03*
D15*
X181900000Y-98800000D03*
X158500000Y-95750000D03*
X198300000Y-110500000D03*
X162000000Y-110500000D03*
X153000000Y-94000000D03*
X187475000Y-98224648D03*
X170275000Y-105275352D03*
X168000000Y-110500000D03*
X176000000Y-93000000D03*
X162000000Y-103000000D03*
X177000000Y-95000000D03*
X185000000Y-98000000D03*
X186724648Y-101025000D03*
X177000000Y-93000000D03*
X153000000Y-91000000D03*
X187475000Y-101775352D03*
X159000000Y-109000000D03*
X183666666Y-106350000D03*
X157750000Y-95750000D03*
X172500000Y-110500000D03*
X185250000Y-90000000D03*
X174000000Y-97000000D03*
X159000000Y-101500000D03*
X168225000Y-105275352D03*
X168225000Y-101724648D03*
X192200000Y-99300000D03*
X192200000Y-101200000D03*
X156000000Y-110500000D03*
X166962500Y-90350000D03*
X185800000Y-98000000D03*
X192200000Y-98400000D03*
X185000000Y-98800000D03*
D16*
X169850000Y-96775000D03*
D15*
X189525000Y-98224648D03*
X167474648Y-104525000D03*
X160500000Y-109000000D03*
X158800000Y-98850000D03*
X160500000Y-106000000D03*
X162000000Y-104500000D03*
X175000000Y-96000000D03*
X176000000Y-95000000D03*
X192200000Y-100300000D03*
X183666666Y-105050000D03*
X167200000Y-103500000D03*
X187500000Y-91500000D03*
X192200000Y-90800000D03*
X153000000Y-106000000D03*
X185000000Y-99600000D03*
X177800000Y-89200000D03*
X159000000Y-103000000D03*
X151000000Y-103000000D03*
D16*
X170900000Y-100450000D03*
D15*
X179050000Y-103300000D03*
X173650000Y-103300000D03*
X188500000Y-97950000D03*
X151000000Y-98500000D03*
X191750000Y-108750000D03*
X184500000Y-91500000D03*
X151500000Y-89500000D03*
X161900000Y-107000000D03*
X183000000Y-93000000D03*
X182850000Y-110850000D03*
X157000000Y-95750000D03*
X169500000Y-110500000D03*
X161050000Y-100100000D03*
X158500000Y-94250000D03*
X182191666Y-108375000D03*
X160250000Y-100100000D03*
X186450000Y-100000000D03*
X190500000Y-91500000D03*
X171025352Y-104525000D03*
X156000000Y-89500000D03*
X153000000Y-109000000D03*
X170275000Y-101724648D03*
%TO.N,Net-(J1-Pin_1)*%
X198100000Y-96400000D03*
X198100000Y-97050000D03*
X199400000Y-96400000D03*
X198750000Y-97700000D03*
X198750000Y-97050000D03*
X199400000Y-97050000D03*
X199400000Y-97700000D03*
X199400000Y-98350000D03*
X198750000Y-96400000D03*
%TO.N,/IP2368 Buck-Boost-Converter/HB2*%
X186750000Y-107000000D03*
X186750000Y-108500000D03*
X186000000Y-104750000D03*
X187500000Y-104750000D03*
X185250000Y-107750000D03*
X186750000Y-107750000D03*
X186000000Y-107000000D03*
X186000000Y-106250000D03*
X186750000Y-105500000D03*
X186000000Y-105500000D03*
X187500000Y-107750000D03*
X187500000Y-107000000D03*
X187500000Y-106250000D03*
X186000000Y-108500000D03*
X185250000Y-108500000D03*
X186750000Y-104750000D03*
D16*
X176220000Y-99800000D03*
D15*
X185250000Y-105500000D03*
X187500000Y-108500000D03*
X185250000Y-106250000D03*
X185250000Y-104750000D03*
X187500000Y-105500000D03*
X186750000Y-106250000D03*
X186000000Y-107750000D03*
X185250000Y-107000000D03*
%TO.N,/IP2368 Buck-Boost-Converter/HB1*%
X179000000Y-109250000D03*
X181250000Y-104750000D03*
X179750000Y-107000000D03*
X181250000Y-106250000D03*
X179000000Y-107750000D03*
X181250000Y-107000000D03*
X179000000Y-107000000D03*
X179750000Y-107750000D03*
X180500000Y-109250000D03*
X180500000Y-107000000D03*
X179750000Y-106250000D03*
X179000000Y-104750000D03*
X180500000Y-105500000D03*
X179750000Y-104750000D03*
X179750000Y-108500000D03*
D16*
X174980000Y-99800000D03*
D15*
X180500000Y-107750000D03*
X180500000Y-104750000D03*
X181250000Y-105500000D03*
X179750000Y-109250000D03*
X179000000Y-106250000D03*
X181250000Y-108500000D03*
X179000000Y-105500000D03*
X180500000Y-108500000D03*
X180500000Y-106250000D03*
X181250000Y-107750000D03*
X179000000Y-108500000D03*
X179750000Y-105500000D03*
D16*
%TO.N,/Battery Interface/I^{2}C_INT*%
X195025000Y-108200000D03*
X170600000Y-93510000D03*
%TO.N,+5V*%
X185300000Y-103500000D03*
X184750000Y-102700000D03*
X184750000Y-103500000D03*
X168075000Y-95175000D03*
D15*
X177250000Y-103300000D03*
X175450000Y-103300000D03*
D16*
X168075000Y-94675000D03*
X171000000Y-99150000D03*
X168575000Y-94675000D03*
X168575000Y-95175000D03*
X185300000Y-102700000D03*
X171000000Y-99600000D03*
X185025000Y-103100000D03*
%TO.N,/IP2368 Buck-Boost-Converter/HLED*%
X170600000Y-94275000D03*
X165450000Y-90210000D03*
%TO.N,/Connector/PORT1_D+*%
X157875000Y-100800000D03*
X176725000Y-89825000D03*
D15*
%TO.N,/Connector/PORT1_CC2*%
X166962500Y-89550000D03*
D16*
X157850000Y-101800000D03*
X177175000Y-90950000D03*
%TO.N,/Connector/PORT1_CC1*%
X157850000Y-98800000D03*
X175675000Y-90950000D03*
D15*
X159862500Y-89400000D03*
%TO.N,/IP2368 Buck-Boost-Converter/HB_IN*%
X176500000Y-105750000D03*
X175000000Y-108750000D03*
X175000000Y-108000000D03*
X175750000Y-105750000D03*
X175750000Y-106500000D03*
X176500000Y-107250000D03*
X175750000Y-108000000D03*
X178000000Y-108750000D03*
X178000000Y-108000000D03*
X176500000Y-108000000D03*
X175000000Y-106500000D03*
X175750000Y-108750000D03*
X176500000Y-108750000D03*
D16*
X173175000Y-98900000D03*
D15*
X177250000Y-108750000D03*
X175750000Y-107250000D03*
X177250000Y-108000000D03*
X178000000Y-107250000D03*
X176500000Y-106500000D03*
X177250000Y-106500000D03*
X177250000Y-105750000D03*
X175000000Y-107250000D03*
X178000000Y-105000000D03*
X178000000Y-105750000D03*
X175000000Y-105750000D03*
X178000000Y-106500000D03*
X177250000Y-107250000D03*
D16*
%TO.N,/IP2368 Buck-Boost-Converter/LG2*%
X175680000Y-98895000D03*
D15*
X184090005Y-108605004D03*
%TO.N,/IP2368 Buck-Boost-Converter/HB_BAT*%
X190250000Y-107000000D03*
D16*
X192300000Y-104600000D03*
D15*
X190250000Y-104750000D03*
X188750000Y-106250000D03*
X188750000Y-107750000D03*
X189500000Y-104750000D03*
X189500000Y-107000000D03*
X188750000Y-105500000D03*
X188750000Y-104750000D03*
D16*
X180335000Y-99620000D03*
D15*
X189500000Y-106250000D03*
X190250000Y-106250000D03*
D16*
X177800000Y-98900000D03*
D15*
X190250000Y-105500000D03*
X188750000Y-107000000D03*
X189500000Y-105500000D03*
D16*
%TO.N,/IP2368 Buck-Boost-Converter/HG2*%
X177200000Y-98900000D03*
D15*
X190009995Y-108605004D03*
D16*
%TO.N,/Connector/PORT1_D-*%
X157850000Y-99800000D03*
X176125000Y-89814070D03*
D15*
%TO.N,/Connector/POWER_VBUS*%
X158925000Y-96825000D03*
X153500000Y-98000000D03*
X160900000Y-96300000D03*
X154500000Y-100000000D03*
X161150000Y-93150000D03*
X161150000Y-93850000D03*
X160900000Y-97000000D03*
X157575000Y-97525000D03*
X158925000Y-97525000D03*
X158250000Y-96825000D03*
X160900000Y-95600000D03*
X159600000Y-95250000D03*
X159600000Y-96650000D03*
X160450000Y-93850000D03*
X160275000Y-97350000D03*
X159750000Y-93850000D03*
X154500000Y-99000000D03*
X153500000Y-100000000D03*
X154500000Y-101000000D03*
X161150000Y-94550000D03*
X153500000Y-99000000D03*
X159600000Y-97350000D03*
X154750000Y-102000000D03*
X153500000Y-102000000D03*
X159600000Y-95950000D03*
X160275000Y-95950000D03*
X160450000Y-93150000D03*
X160275000Y-96650000D03*
X159750000Y-94550000D03*
X158250000Y-97525000D03*
X160275000Y-95250000D03*
X153500000Y-101000000D03*
X160450000Y-94550000D03*
X154750000Y-98000000D03*
%TO.N,/Battery Interface/VBAT*%
X199500000Y-94075000D03*
X198825000Y-92050000D03*
X198150000Y-94075000D03*
X198825000Y-94075000D03*
X199500000Y-92725000D03*
X199500000Y-92050000D03*
X199500000Y-90700000D03*
X198150000Y-93400000D03*
X198825000Y-91375000D03*
X198825000Y-93400000D03*
X199500000Y-93400000D03*
X198825000Y-92725000D03*
X198825000Y-90700000D03*
X199500000Y-91375000D03*
%TO.N,+3.3V*%
X174450000Y-89090000D03*
D16*
X180300000Y-102240000D03*
X195650000Y-105200000D03*
X183900000Y-102625000D03*
X168200000Y-99367500D03*
D15*
%TO.N,/IP2368 Buck-Boost-Converter/BAT*%
X192000000Y-93500000D03*
X193500000Y-98500000D03*
X194900000Y-92000000D03*
X193500000Y-100750000D03*
X194250000Y-100750000D03*
X197975000Y-90950000D03*
X193500000Y-95000000D03*
X196025000Y-89650000D03*
X193500000Y-97750000D03*
X194900000Y-90500000D03*
X196675000Y-89650000D03*
X187500000Y-95000000D03*
X193500000Y-96500000D03*
X197325000Y-90950000D03*
X193500000Y-89000000D03*
X194250000Y-97750000D03*
X192750000Y-102250000D03*
X197325000Y-92250000D03*
X192200000Y-94400000D03*
X196025000Y-92250000D03*
X196025000Y-90950000D03*
X192200000Y-95200000D03*
X193500000Y-102250000D03*
X194250000Y-102250000D03*
X194250000Y-101500000D03*
D16*
X192300000Y-103900000D03*
D15*
X197975000Y-89650000D03*
X196025000Y-90300000D03*
X195000000Y-96500000D03*
X192200000Y-96800000D03*
X186000000Y-95000000D03*
X189000000Y-96500000D03*
X185250000Y-96800000D03*
X195000000Y-103000000D03*
X192000000Y-102250000D03*
X195000000Y-95000000D03*
X196675000Y-90300000D03*
X194900000Y-89000000D03*
X197325000Y-89650000D03*
X187500000Y-96500000D03*
X189000000Y-93500000D03*
X197975000Y-91600000D03*
X187500000Y-93500000D03*
X189000000Y-95000000D03*
X195000000Y-93500000D03*
X192200000Y-96000000D03*
X194250000Y-99250000D03*
X186000000Y-96500000D03*
X190500000Y-93500000D03*
X193500000Y-92000000D03*
X193500000Y-93500000D03*
X194250000Y-103000000D03*
X196025000Y-91600000D03*
X197325000Y-90300000D03*
X197975000Y-90300000D03*
X193500000Y-103000000D03*
X196675000Y-92250000D03*
X190500000Y-95000000D03*
X195000000Y-102250000D03*
X192750000Y-103000000D03*
D16*
X180305000Y-98650000D03*
D15*
X194250000Y-98500000D03*
X193500000Y-99250000D03*
X194250000Y-100000000D03*
X197975000Y-92250000D03*
X185250000Y-94400000D03*
X193500000Y-90500000D03*
X190500000Y-96500000D03*
X197325000Y-91600000D03*
X186000000Y-93500000D03*
X193500000Y-101500000D03*
X185250000Y-95200000D03*
X185250000Y-96000000D03*
X196675000Y-90950000D03*
X196675000Y-91600000D03*
X193500000Y-100000000D03*
D16*
%TO.N,/IP2368 Buck-Boost-Converter/VBUS_G*%
X170050000Y-95425000D03*
D15*
X161800000Y-95550000D03*
%TO.N,Net-(Q3-D)*%
X197000000Y-96160000D03*
X192400000Y-110750000D03*
%TO.N,Net-(Q5-G)*%
X197000000Y-94310000D03*
X199150000Y-89850000D03*
%TO.N,/IP2368 Buck-Boost-Converter/CSP1*%
X166200000Y-94800000D03*
X163500000Y-101750000D03*
X165500000Y-108750000D03*
X164500000Y-101750000D03*
X163500000Y-99750000D03*
X163500000Y-106750000D03*
X165675000Y-93400000D03*
X165500000Y-103750000D03*
X164100000Y-95500000D03*
X164800000Y-96200000D03*
X163500000Y-103750000D03*
X164500000Y-108750000D03*
X166250000Y-100100000D03*
X167690000Y-106300000D03*
X164500000Y-105750000D03*
X163400000Y-96200000D03*
X162700000Y-96200000D03*
X168500000Y-108750000D03*
X167100000Y-107000000D03*
X162700000Y-93400000D03*
X167275000Y-96225000D03*
X163500000Y-104750000D03*
X166500000Y-105750000D03*
X162700000Y-95500000D03*
X166300000Y-107000000D03*
X163500000Y-107750000D03*
X165500000Y-95500000D03*
X167500000Y-108750000D03*
X170820000Y-106300000D03*
X172500000Y-108750000D03*
X165500000Y-98750000D03*
X164650000Y-100100000D03*
X170500000Y-107750000D03*
X163500000Y-105750000D03*
X164800000Y-94100000D03*
X164100000Y-96200000D03*
X167300000Y-98800000D03*
X162700000Y-94100000D03*
X163400000Y-94800000D03*
X165500000Y-102750000D03*
X169500000Y-107750000D03*
X166900000Y-97900000D03*
X163400000Y-94100000D03*
X163900000Y-97900000D03*
X172375000Y-105725000D03*
X165500000Y-107000000D03*
X164100000Y-93400000D03*
X164900000Y-97900000D03*
D16*
X169350000Y-98350000D03*
X169850000Y-98350000D03*
D15*
X166500000Y-101750000D03*
X167050000Y-100100000D03*
X166500000Y-108750000D03*
X164800000Y-95500000D03*
X164500000Y-103750000D03*
X165500000Y-105750000D03*
X162900000Y-97900000D03*
X164100000Y-94100000D03*
X169500000Y-108750000D03*
X162700000Y-94800000D03*
X171500000Y-106750000D03*
X166200000Y-96200000D03*
X165450000Y-100100000D03*
X164100000Y-94800000D03*
X166200000Y-95500000D03*
X164500000Y-102750000D03*
X171500000Y-107750000D03*
X170500000Y-108750000D03*
X163400000Y-95500000D03*
X166500000Y-94200000D03*
X165900000Y-97900000D03*
X163500000Y-102750000D03*
X164800000Y-94800000D03*
X163500000Y-98750000D03*
X165500000Y-94800000D03*
X167275000Y-95050000D03*
X168500000Y-107750000D03*
X164500000Y-104750000D03*
X166500000Y-98750000D03*
X165500000Y-101750000D03*
X165500000Y-104750000D03*
X164700000Y-107000000D03*
X163500000Y-100750000D03*
X172500000Y-107750000D03*
X165500000Y-96200000D03*
X171500000Y-108750000D03*
X165500000Y-94100000D03*
X169250000Y-106710000D03*
X164800000Y-93400000D03*
X163400000Y-93400000D03*
X164500000Y-98750000D03*
D16*
%TO.N,/Battery Interface/I^{2}C_SDA*%
X182900000Y-102300000D03*
X195025000Y-107200000D03*
D15*
X175400000Y-89850000D03*
D16*
%TO.N,/Battery Interface/I^{2}C_SCL*%
X195025000Y-106200000D03*
X181350000Y-102300000D03*
D15*
X174450000Y-90110000D03*
D16*
%TO.N,Net-(R25-C)*%
X168575000Y-97500000D03*
X182900000Y-103450000D03*
%TD*%
D17*
%TO.N,Net-(Q3-D)*%
X197000000Y-96160000D02*
X197000000Y-96700000D01*
X194950000Y-98750000D02*
X194950000Y-101350000D01*
X197000000Y-96700000D02*
X194950000Y-98750000D01*
X194950000Y-101350000D02*
X196200000Y-102600000D01*
X196200000Y-102600000D02*
X196200000Y-109500000D01*
X196200000Y-109500000D02*
X194950000Y-110750000D01*
X194950000Y-110750000D02*
X192400000Y-110750000D01*
D18*
%TO.N,+3.3V*%
X180300000Y-101500000D02*
X183300000Y-101500000D01*
X183300000Y-101500000D02*
X183900000Y-102100000D01*
X183900000Y-102100000D02*
X183900000Y-102625000D01*
X183900000Y-102625000D02*
X183900000Y-103600000D01*
X183900000Y-103600000D02*
X184350000Y-104050000D01*
X184350000Y-104050000D02*
X190750000Y-104050000D01*
X190750000Y-104050000D02*
X190900000Y-104200000D01*
X190900000Y-104200000D02*
X191162500Y-104462500D01*
X191162500Y-104462500D02*
X191162500Y-105212500D01*
X191625000Y-105675000D02*
X193350000Y-105675000D01*
X191162500Y-105212500D02*
X191625000Y-105675000D01*
X193350000Y-105675000D02*
X193825000Y-105200000D01*
X193825000Y-105200000D02*
X195650000Y-105200000D01*
D19*
%TO.N,GND*%
X155155000Y-95680000D02*
X155155000Y-94755000D01*
X155155000Y-104320000D02*
X155155000Y-105345000D01*
D20*
%TO.N,/Connector/PORT1_D+*%
X176725000Y-89825000D02*
X176655001Y-89894999D01*
%TO.N,/Connector/PORT1_D-*%
X176125000Y-89814070D02*
X176204999Y-89894069D01*
D18*
%TO.N,+3.3V*%
X170200000Y-100675000D02*
X170200000Y-99450000D01*
X171025000Y-101500000D02*
X170200000Y-100675000D01*
X178225000Y-101500000D02*
X174700000Y-101500000D01*
X169875000Y-99125000D02*
X168442500Y-99125000D01*
X176790000Y-89090000D02*
X178500000Y-90800000D01*
X178225000Y-101500000D02*
X180300000Y-101500000D01*
X170200000Y-99450000D02*
X169875000Y-99125000D01*
X174450000Y-89090000D02*
X176790000Y-89090000D01*
X174700000Y-101500000D02*
X171025000Y-101500000D01*
D20*
X180300000Y-102240000D02*
X180300000Y-101500000D01*
D18*
X168442500Y-99125000D02*
X168200000Y-99367500D01*
X178500000Y-101500000D02*
X178225000Y-101500000D01*
X178500000Y-90800000D02*
X178500000Y-101500000D01*
D20*
%TO.N,Net-(Q5-G)*%
X195450000Y-92760000D02*
X197000000Y-94310000D01*
X195800000Y-89000000D02*
X195450000Y-89350000D01*
X198300000Y-89000000D02*
X195800000Y-89000000D01*
X195450000Y-89350000D02*
X195450000Y-92760000D01*
X199150000Y-89850000D02*
X198300000Y-89000000D01*
%TD*%
%TA.AperFunction,Conductor*%
%TO.N,+5V*%
G36*
X171168039Y-98944685D02*
G01*
X171213794Y-98997489D01*
X171225000Y-99049000D01*
X171225000Y-99701000D01*
X171205315Y-99768039D01*
X171152511Y-99813794D01*
X171101000Y-99825000D01*
X170899000Y-99825000D01*
X170831961Y-99805315D01*
X170786206Y-99752511D01*
X170775000Y-99701000D01*
X170775000Y-99049000D01*
X170794685Y-98981961D01*
X170847489Y-98936206D01*
X170899000Y-98925000D01*
X171101000Y-98925000D01*
X171168039Y-98944685D01*
G37*
%TD.AperFunction*%
%TD*%
%TA.AperFunction,Conductor*%
%TO.N,Net-(J1-Pin_1)*%
G36*
X199643039Y-96119685D02*
G01*
X199688794Y-96172489D01*
X199700000Y-96224000D01*
X199700000Y-99876000D01*
X199680315Y-99943039D01*
X199627511Y-99988794D01*
X199576000Y-100000000D01*
X197551362Y-100000000D01*
X197484323Y-99980315D01*
X197463681Y-99963681D01*
X196031906Y-98531906D01*
X195998421Y-98470583D01*
X196003405Y-98400891D01*
X196026140Y-98362717D01*
X197962938Y-96142486D01*
X198021842Y-96104907D01*
X198056381Y-96100000D01*
X199576000Y-96100000D01*
X199643039Y-96119685D01*
G37*
%TD.AperFunction*%
%TD*%
%TA.AperFunction,Conductor*%
%TO.N,/IP2368 Buck-Boost-Converter/CSP1*%
G36*
X170018039Y-98144685D02*
G01*
X170063794Y-98197489D01*
X170075000Y-98249000D01*
X170075000Y-98451000D01*
X170055315Y-98518039D01*
X170002511Y-98563794D01*
X169951000Y-98575000D01*
X169249000Y-98575000D01*
X169181961Y-98555315D01*
X169136206Y-98502511D01*
X169125000Y-98451000D01*
X169125000Y-98249000D01*
X169144685Y-98181961D01*
X169197489Y-98136206D01*
X169249000Y-98125000D01*
X169951000Y-98125000D01*
X170018039Y-98144685D01*
G37*
%TD.AperFunction*%
%TD*%
%TA.AperFunction,Conductor*%
%TO.N,+5V*%
G36*
X168743039Y-94469685D02*
G01*
X168788794Y-94522489D01*
X168800000Y-94574000D01*
X168800000Y-95276000D01*
X168780315Y-95343039D01*
X168727511Y-95388794D01*
X168676000Y-95400000D01*
X167974000Y-95400000D01*
X167906961Y-95380315D01*
X167861206Y-95327511D01*
X167850000Y-95276000D01*
X167850000Y-94574000D01*
X167869685Y-94506961D01*
X167922489Y-94461206D01*
X167974000Y-94450000D01*
X168676000Y-94450000D01*
X168743039Y-94469685D01*
G37*
%TD.AperFunction*%
%TD*%
%TA.AperFunction,Conductor*%
%TO.N,/IP2368 Buck-Boost-Converter/HB1*%
G36*
X181568039Y-104319685D02*
G01*
X181613794Y-104372489D01*
X181625000Y-104424000D01*
X181625000Y-109176000D01*
X181605315Y-109243039D01*
X181552511Y-109288794D01*
X181501000Y-109300000D01*
X181249999Y-109300000D01*
X181050000Y-109499999D01*
X181050000Y-111175500D01*
X181030315Y-111242539D01*
X180977511Y-111288294D01*
X180926000Y-111299500D01*
X173899000Y-111299500D01*
X173831961Y-111279815D01*
X173786206Y-111227011D01*
X173775000Y-111175500D01*
X173775000Y-109724000D01*
X173794685Y-109656961D01*
X173847489Y-109611206D01*
X173899000Y-109600000D01*
X178400000Y-109600000D01*
X178575000Y-109400000D01*
X178575000Y-104424000D01*
X178594685Y-104356961D01*
X178647489Y-104311206D01*
X178699000Y-104300000D01*
X181501000Y-104300000D01*
X181568039Y-104319685D01*
G37*
%TD.AperFunction*%
%TD*%
%TA.AperFunction,Conductor*%
%TO.N,/Battery Interface/VBAT*%
G36*
X199742539Y-90419685D02*
G01*
X199788294Y-90472489D01*
X199799500Y-90524000D01*
X199799500Y-94451000D01*
X199779815Y-94518039D01*
X199727011Y-94563794D01*
X199675500Y-94575000D01*
X197824000Y-94575000D01*
X197756961Y-94555315D01*
X197711206Y-94502511D01*
X197700000Y-94451000D01*
X197700000Y-93024000D01*
X197719685Y-92956961D01*
X197772489Y-92911206D01*
X197824000Y-92900000D01*
X198525000Y-92900000D01*
X198525000Y-90524000D01*
X198544685Y-90456961D01*
X198597489Y-90411206D01*
X198649000Y-90400000D01*
X199675500Y-90400000D01*
X199742539Y-90419685D01*
G37*
%TD.AperFunction*%
%TD*%
%TA.AperFunction,Conductor*%
%TO.N,/IP2368 Buck-Boost-Converter/CSP1*%
G36*
X165415677Y-92719685D02*
G01*
X165436319Y-92736319D01*
X167563291Y-94863291D01*
X167596776Y-94924614D01*
X167599606Y-94951911D01*
X167550384Y-101449188D01*
X167530193Y-101516077D01*
X167514069Y-101535930D01*
X166600000Y-102449999D01*
X166600000Y-102450000D01*
X166600000Y-104600000D01*
X168300000Y-106300000D01*
X170250000Y-106300000D01*
X171113681Y-105436319D01*
X171175004Y-105402834D01*
X171201362Y-105400000D01*
X172773638Y-105400000D01*
X172840677Y-105419685D01*
X172861319Y-105436319D01*
X173013681Y-105588681D01*
X173047166Y-105650004D01*
X173050000Y-105676362D01*
X173050000Y-109076000D01*
X173030315Y-109143039D01*
X172977511Y-109188794D01*
X172926000Y-109200000D01*
X164451362Y-109200000D01*
X164384323Y-109180315D01*
X164363681Y-109163681D01*
X162836319Y-107636319D01*
X162802834Y-107574996D01*
X162800000Y-107548638D01*
X162800000Y-98900000D01*
X162436319Y-98536319D01*
X162402834Y-98474996D01*
X162400000Y-98448638D01*
X162400000Y-92824000D01*
X162419685Y-92756961D01*
X162472489Y-92711206D01*
X162524000Y-92700000D01*
X165348638Y-92700000D01*
X165415677Y-92719685D01*
G37*
%TD.AperFunction*%
%TD*%
%TA.AperFunction,Conductor*%
%TO.N,/IP2368 Buck-Boost-Converter/HB2*%
G36*
X188118039Y-104370185D02*
G01*
X188163794Y-104422989D01*
X188175000Y-104474500D01*
X188175000Y-108275000D01*
X189472499Y-108275000D01*
X189539538Y-108294685D01*
X189585293Y-108347489D01*
X189595237Y-108416647D01*
X189585294Y-108450510D01*
X189573297Y-108476778D01*
X189554862Y-108605004D01*
X189573297Y-108733229D01*
X189627112Y-108851065D01*
X189627113Y-108851067D01*
X189711946Y-108948971D01*
X189820926Y-109019008D01*
X189820933Y-109019010D01*
X189945220Y-109055503D01*
X189945222Y-109055504D01*
X189945223Y-109055504D01*
X190074768Y-109055504D01*
X190074768Y-109055503D01*
X190153567Y-109032366D01*
X190199058Y-109019010D01*
X190199058Y-109019009D01*
X190199064Y-109019008D01*
X190208962Y-109012646D01*
X190275997Y-108992962D01*
X190343037Y-109012645D01*
X190388793Y-109065447D01*
X190400000Y-109116962D01*
X190400000Y-111175500D01*
X190380315Y-111242539D01*
X190327511Y-111288294D01*
X190276000Y-111299500D01*
X183924000Y-111299500D01*
X183856961Y-111279815D01*
X183811206Y-111227011D01*
X183800000Y-111175500D01*
X183800000Y-109724000D01*
X183819685Y-109656961D01*
X183872489Y-109611206D01*
X183924000Y-109600000D01*
X184700000Y-109600000D01*
X184900000Y-109400000D01*
X184900000Y-104474500D01*
X184919685Y-104407461D01*
X184972489Y-104361706D01*
X185024000Y-104350500D01*
X188051000Y-104350500D01*
X188118039Y-104370185D01*
G37*
%TD.AperFunction*%
%TD*%
%TA.AperFunction,Conductor*%
%TO.N,GND*%
G36*
X153662500Y-103231250D02*
G01*
X153800000Y-103300000D01*
X153863953Y-103242442D01*
X154181186Y-103260066D01*
X154273018Y-103351898D01*
X154306503Y-103413221D01*
X154301519Y-103482913D01*
X154259647Y-103538846D01*
X154232793Y-103554139D01*
X154202371Y-103566740D01*
X154063160Y-103659758D01*
X154063152Y-103659764D01*
X153944764Y-103778152D01*
X153944758Y-103778160D01*
X153851740Y-103917371D01*
X153851740Y-103917372D01*
X153788520Y-104069999D01*
X153788520Y-104070000D01*
X154438012Y-104070000D01*
X154420795Y-104079940D01*
X154364940Y-104135795D01*
X154325444Y-104204204D01*
X154305000Y-104280504D01*
X154305000Y-104359496D01*
X154325444Y-104435796D01*
X154364940Y-104504205D01*
X154420795Y-104560060D01*
X154438012Y-104570000D01*
X153788520Y-104570000D01*
X153851740Y-104722627D01*
X153851740Y-104722628D01*
X153944758Y-104861839D01*
X153944764Y-104861847D01*
X154015326Y-104932409D01*
X153339908Y-104941662D01*
X153489908Y-103221662D01*
X153662500Y-103231250D01*
G37*
%TD.AperFunction*%
%TA.AperFunction,Conductor*%
G36*
X156439908Y-103671662D02*
G01*
X156989908Y-103671662D01*
X156989908Y-104891662D01*
X156326328Y-104900752D01*
X156365240Y-104861841D01*
X156365241Y-104861839D01*
X156458259Y-104722628D01*
X156458259Y-104722627D01*
X156521480Y-104570000D01*
X155871988Y-104570000D01*
X155889205Y-104560060D01*
X155945060Y-104504205D01*
X155984556Y-104435796D01*
X156005000Y-104359496D01*
X156005000Y-104280504D01*
X155984556Y-104204204D01*
X155945060Y-104135795D01*
X155889205Y-104079940D01*
X155871988Y-104070000D01*
X156521480Y-104070000D01*
X156521479Y-104069999D01*
X156458259Y-103917372D01*
X156458259Y-103917371D01*
X156365241Y-103778160D01*
X156365235Y-103778152D01*
X156246847Y-103659764D01*
X156246839Y-103659758D01*
X156107628Y-103566740D01*
X155952936Y-103502665D01*
X155952928Y-103502663D01*
X155788721Y-103470000D01*
X155405000Y-103470000D01*
X155405000Y-104020000D01*
X154905000Y-104020000D01*
X154905000Y-103464463D01*
X154924685Y-103397424D01*
X154966998Y-103357077D01*
X154978365Y-103350515D01*
X155022096Y-103306783D01*
X155289908Y-103321662D01*
X155789908Y-103271662D01*
X156439908Y-103671662D01*
G37*
%TD.AperFunction*%
%TD*%
%TA.AperFunction,Conductor*%
%TO.N,GND*%
G36*
X156450000Y-95250000D02*
G01*
X156800000Y-95250000D01*
X156800000Y-96585750D01*
X156794500Y-96624003D01*
X156794500Y-96870500D01*
X156774815Y-96937539D01*
X156722011Y-96983294D01*
X156670500Y-96994500D01*
X155291835Y-96994500D01*
X155290206Y-96994567D01*
X155289934Y-96994500D01*
X155289251Y-96994500D01*
X155289251Y-96994330D01*
X155222406Y-96977689D01*
X155174494Y-96926834D01*
X155165275Y-96902773D01*
X155161281Y-96887865D01*
X155085515Y-96756635D01*
X154978365Y-96649485D01*
X154966998Y-96642922D01*
X154918783Y-96592354D01*
X154905000Y-96535536D01*
X154905000Y-95980000D01*
X155405000Y-95980000D01*
X155405000Y-96530000D01*
X155788720Y-96530000D01*
X155788722Y-96529999D01*
X155952928Y-96497336D01*
X155952936Y-96497334D01*
X156107627Y-96433259D01*
X156107628Y-96433259D01*
X156246839Y-96340241D01*
X156246847Y-96340235D01*
X156365235Y-96221847D01*
X156365241Y-96221839D01*
X156458259Y-96082628D01*
X156458259Y-96082627D01*
X156521480Y-95930000D01*
X155871988Y-95930000D01*
X155889205Y-95920060D01*
X155945060Y-95864205D01*
X155984556Y-95795796D01*
X156005000Y-95719496D01*
X156005000Y-95640504D01*
X155984556Y-95564204D01*
X155945060Y-95495795D01*
X155889205Y-95439940D01*
X155871988Y-95430000D01*
X156521480Y-95430000D01*
X156521479Y-95429999D01*
X156458260Y-95277375D01*
X156432964Y-95239516D01*
X156450000Y-95250000D01*
G37*
%TD.AperFunction*%
%TA.AperFunction,Conductor*%
G36*
X154416204Y-94850900D02*
G01*
X154357069Y-94862663D01*
X154357063Y-94862665D01*
X154202372Y-94926740D01*
X154202371Y-94926740D01*
X154063160Y-95019758D01*
X154063152Y-95019764D01*
X153944764Y-95138152D01*
X153944758Y-95138160D01*
X153851740Y-95277371D01*
X153851740Y-95277372D01*
X153788520Y-95429999D01*
X153788520Y-95430000D01*
X154438012Y-95430000D01*
X154420795Y-95439940D01*
X154364940Y-95495795D01*
X154325444Y-95564204D01*
X154305000Y-95640504D01*
X154305000Y-95719496D01*
X154325444Y-95795796D01*
X154364940Y-95864205D01*
X154420795Y-95920060D01*
X154438012Y-95930000D01*
X153788520Y-95930000D01*
X153851740Y-96082627D01*
X153851740Y-96082628D01*
X153944758Y-96221839D01*
X153944764Y-96221847D01*
X154063152Y-96340235D01*
X154063160Y-96340241D01*
X154202372Y-96433259D01*
X154232790Y-96445859D01*
X154287193Y-96489700D01*
X154309258Y-96555994D01*
X154291979Y-96623694D01*
X154273019Y-96648101D01*
X154164485Y-96756635D01*
X154088719Y-96887863D01*
X154084726Y-96902766D01*
X154048358Y-96962425D01*
X153985510Y-96992952D01*
X153962594Y-96994045D01*
X153962594Y-96994500D01*
X153917500Y-96994500D01*
X153359306Y-96957287D01*
X153500000Y-94800000D01*
X154416204Y-94850900D01*
G37*
%TD.AperFunction*%
%TD*%
%TA.AperFunction,Conductor*%
%TO.N,GND*%
G36*
X152500000Y-94550000D02*
G01*
X152500000Y-96750000D01*
X150200919Y-96750000D01*
X150220185Y-96684388D01*
X150272989Y-96638633D01*
X150342147Y-96628689D01*
X150371954Y-96636866D01*
X150383314Y-96641571D01*
X150383318Y-96641572D01*
X150576504Y-96679999D01*
X150576508Y-96680000D01*
X150725000Y-96680000D01*
X150725000Y-95980000D01*
X151225000Y-95980000D01*
X151225000Y-96680000D01*
X151373492Y-96680000D01*
X151373495Y-96679999D01*
X151566681Y-96641572D01*
X151566693Y-96641569D01*
X151748671Y-96566192D01*
X151748684Y-96566185D01*
X151912462Y-96456751D01*
X151912466Y-96456748D01*
X152051748Y-96317466D01*
X152051751Y-96317462D01*
X152161185Y-96153684D01*
X152161192Y-96153671D01*
X152236569Y-95971692D01*
X152236569Y-95971690D01*
X152244862Y-95930000D01*
X151441988Y-95930000D01*
X151459205Y-95920060D01*
X151515060Y-95864205D01*
X151554556Y-95795796D01*
X151575000Y-95719496D01*
X151575000Y-95640504D01*
X151554556Y-95564204D01*
X151515060Y-95495795D01*
X151459205Y-95439940D01*
X151441988Y-95430000D01*
X152244862Y-95430000D01*
X152236569Y-95388309D01*
X152236569Y-95388307D01*
X152161192Y-95206328D01*
X152161185Y-95206315D01*
X152051751Y-95042537D01*
X152051748Y-95042533D01*
X151912466Y-94903251D01*
X151912462Y-94903248D01*
X151748684Y-94793814D01*
X151748671Y-94793807D01*
X151566693Y-94718430D01*
X151566681Y-94718427D01*
X151373495Y-94680000D01*
X151225000Y-94680000D01*
X151225000Y-95380000D01*
X150725000Y-95380000D01*
X150725000Y-94680000D01*
X150576504Y-94680000D01*
X150377337Y-94719617D01*
X150376845Y-94717144D01*
X150317996Y-94717661D01*
X150258889Y-94680403D01*
X150229308Y-94617104D01*
X150227954Y-94594264D01*
X150229090Y-94560077D01*
X150229123Y-94559828D01*
X150229519Y-94547723D01*
X150229520Y-94547722D01*
X150230771Y-94509477D01*
X152500000Y-94550000D01*
G37*
%TD.AperFunction*%
%TD*%
%TA.AperFunction,Conductor*%
%TO.N,GND*%
G36*
X152500000Y-103200000D02*
G01*
X152500000Y-105400000D01*
X150229433Y-105400000D01*
X150245402Y-105338080D01*
X150296657Y-105290596D01*
X150365447Y-105278362D01*
X150377256Y-105280781D01*
X150377336Y-105280383D01*
X150576504Y-105319999D01*
X150576508Y-105320000D01*
X150725000Y-105320000D01*
X150725000Y-104620000D01*
X151225000Y-104620000D01*
X151225000Y-105320000D01*
X151373492Y-105320000D01*
X151373495Y-105319999D01*
X151566681Y-105281572D01*
X151566693Y-105281569D01*
X151748671Y-105206192D01*
X151748684Y-105206185D01*
X151912462Y-105096751D01*
X151912466Y-105096748D01*
X152051748Y-104957466D01*
X152051751Y-104957462D01*
X152161185Y-104793684D01*
X152161192Y-104793671D01*
X152236569Y-104611692D01*
X152236569Y-104611690D01*
X152244862Y-104570000D01*
X151441988Y-104570000D01*
X151459205Y-104560060D01*
X151515060Y-104504205D01*
X151554556Y-104435796D01*
X151575000Y-104359496D01*
X151575000Y-104280504D01*
X151554556Y-104204204D01*
X151515060Y-104135795D01*
X151459205Y-104079940D01*
X151441988Y-104070000D01*
X152244862Y-104070000D01*
X152236569Y-104028309D01*
X152236569Y-104028307D01*
X152161192Y-103846328D01*
X152161185Y-103846315D01*
X152051751Y-103682537D01*
X152051748Y-103682533D01*
X151912466Y-103543251D01*
X151912462Y-103543248D01*
X151748684Y-103433814D01*
X151748671Y-103433807D01*
X151566693Y-103358430D01*
X151566681Y-103358427D01*
X151373495Y-103320000D01*
X151225000Y-103320000D01*
X151225000Y-104020000D01*
X150725000Y-104020000D01*
X150725000Y-103320000D01*
X150576504Y-103320000D01*
X150383318Y-103358427D01*
X150383307Y-103358430D01*
X150371948Y-103363135D01*
X150302478Y-103370601D01*
X150240000Y-103339323D01*
X150204350Y-103279233D01*
X150200500Y-103248572D01*
X150200500Y-103158937D01*
X152500000Y-103200000D01*
G37*
%TD.AperFunction*%
%TD*%
%TA.AperFunction,Conductor*%
%TO.N,/IP2368 Buck-Boost-Converter/HB_IN*%
G36*
X178243039Y-104719685D02*
G01*
X178288794Y-104772489D01*
X178300000Y-104824000D01*
X178300000Y-108976000D01*
X178280315Y-109043039D01*
X178227511Y-109088794D01*
X178176000Y-109100000D01*
X176200000Y-109100000D01*
X174824000Y-109100000D01*
X174756961Y-109080315D01*
X174711206Y-109027511D01*
X174700000Y-108976000D01*
X174700000Y-104824000D01*
X174719685Y-104756961D01*
X174772489Y-104711206D01*
X174824000Y-104700000D01*
X178176000Y-104700000D01*
X178243039Y-104719685D01*
G37*
%TD.AperFunction*%
%TD*%
%TA.AperFunction,Conductor*%
%TO.N,/IP2368 Buck-Boost-Converter/HB_BAT*%
G36*
X190543039Y-104419685D02*
G01*
X190588794Y-104472489D01*
X190600000Y-104524000D01*
X190600000Y-107976000D01*
X190580315Y-108043039D01*
X190527511Y-108088794D01*
X190476000Y-108100000D01*
X188524000Y-108100000D01*
X188456961Y-108080315D01*
X188411206Y-108027511D01*
X188400000Y-107976000D01*
X188400000Y-104524000D01*
X188419685Y-104456961D01*
X188472489Y-104411206D01*
X188524000Y-104400000D01*
X190476000Y-104400000D01*
X190543039Y-104419685D01*
G37*
%TD.AperFunction*%
%TD*%
%TA.AperFunction,Conductor*%
%TO.N,+5V*%
G36*
X185493039Y-102469685D02*
G01*
X185538794Y-102522489D01*
X185550000Y-102574000D01*
X185550000Y-103625500D01*
X185530315Y-103692539D01*
X185477511Y-103738294D01*
X185426000Y-103749500D01*
X184624000Y-103749500D01*
X184556961Y-103729815D01*
X184511206Y-103677011D01*
X184500000Y-103625500D01*
X184500000Y-102574000D01*
X184519685Y-102506961D01*
X184572489Y-102461206D01*
X184624000Y-102450000D01*
X185426000Y-102450000D01*
X185493039Y-102469685D01*
G37*
%TD.AperFunction*%
%TD*%
%TA.AperFunction,Conductor*%
%TO.N,GND*%
G36*
X158950000Y-92400000D02*
G01*
X159273574Y-92536897D01*
X159237916Y-92555899D01*
X159237913Y-92555901D01*
X159185104Y-92601660D01*
X159167160Y-92619242D01*
X159167154Y-92619249D01*
X159122511Y-92699059D01*
X159122509Y-92699064D01*
X159102826Y-92766096D01*
X159102825Y-92766101D01*
X159102825Y-92766102D01*
X159095901Y-92814261D01*
X159094500Y-92824003D01*
X159094500Y-95763518D01*
X159074815Y-95830557D01*
X159058181Y-95851199D01*
X158651199Y-96258181D01*
X158589876Y-96291666D01*
X158563518Y-96294500D01*
X157123992Y-96294500D01*
X157080313Y-96299197D01*
X157028825Y-96310397D01*
X157018627Y-96312890D01*
X157018624Y-96312891D01*
X156937916Y-96355899D01*
X156937913Y-96355901D01*
X156885104Y-96401660D01*
X156867160Y-96419242D01*
X156867154Y-96419249D01*
X156822511Y-96499059D01*
X156822509Y-96499064D01*
X156802826Y-96566096D01*
X156800000Y-96585750D01*
X156800000Y-95250000D01*
X156450000Y-95250000D01*
X156420216Y-95231671D01*
X156388356Y-95176888D01*
X156269109Y-95045122D01*
X156269105Y-95045119D01*
X156125145Y-94940942D01*
X156125144Y-94940941D01*
X156125142Y-94940940D01*
X155982540Y-94877665D01*
X155962706Y-94868864D01*
X155962700Y-94868862D01*
X155788856Y-94832026D01*
X155781450Y-94831857D01*
X155700000Y-94830000D01*
X154610000Y-94830000D01*
X154534815Y-94831714D01*
X154521143Y-94832026D01*
X154428772Y-94851598D01*
X153500000Y-94800000D01*
X153359306Y-96957287D01*
X152500000Y-96900000D01*
X152600000Y-102700000D01*
X153662500Y-103231250D01*
X153489908Y-103221662D01*
X153339908Y-104941662D01*
X154029432Y-104932216D01*
X154040890Y-104944877D01*
X154184858Y-105049060D01*
X154347295Y-105121136D01*
X154347297Y-105121136D01*
X154347299Y-105121137D01*
X154383664Y-105128842D01*
X154521145Y-105157974D01*
X154610000Y-105160000D01*
X154610011Y-105160000D01*
X155699989Y-105160000D01*
X155700000Y-105160000D01*
X155788855Y-105157974D01*
X155962705Y-105121136D01*
X156125142Y-105049060D01*
X156269110Y-104944877D01*
X156308825Y-104900991D01*
X156989908Y-104891662D01*
X156989908Y-103671662D01*
X156439908Y-103671662D01*
X155789908Y-103271662D01*
X155289908Y-103321662D01*
X155022096Y-103306783D01*
X155085515Y-103243365D01*
X155161281Y-103112135D01*
X155178625Y-103047405D01*
X155214989Y-102987747D01*
X155277835Y-102957217D01*
X155298399Y-102955500D01*
X157375991Y-102955500D01*
X157376000Y-102955500D01*
X157419684Y-102950803D01*
X157448875Y-102944452D01*
X157471174Y-102939602D01*
X157471190Y-102939598D01*
X157471195Y-102939597D01*
X157481373Y-102937110D01*
X157562085Y-102894100D01*
X157614889Y-102848345D01*
X157632843Y-102830754D01*
X157677490Y-102750937D01*
X157697175Y-102683898D01*
X157705500Y-102626000D01*
X157705500Y-102302479D01*
X157725185Y-102235440D01*
X157777989Y-102189685D01*
X157840241Y-102180733D01*
X157840241Y-102180181D01*
X157844087Y-102180181D01*
X157847147Y-102179741D01*
X157848784Y-102179988D01*
X157850000Y-102180181D01*
X157924931Y-102168313D01*
X157967477Y-102161575D01*
X157967478Y-102161575D01*
X157967479Y-102161574D01*
X157967482Y-102161574D01*
X158073465Y-102107573D01*
X158157573Y-102023465D01*
X158211574Y-101917482D01*
X158211575Y-101917477D01*
X158230181Y-101800003D01*
X158230181Y-101799996D01*
X158211575Y-101682522D01*
X158211575Y-101682521D01*
X158211574Y-101682519D01*
X158211574Y-101682518D01*
X158157573Y-101576535D01*
X158157571Y-101576533D01*
X158157568Y-101576529D01*
X158073470Y-101492431D01*
X158073466Y-101492428D01*
X158073465Y-101492427D01*
X157967482Y-101438426D01*
X157967481Y-101438425D01*
X157967478Y-101438424D01*
X157879259Y-101424452D01*
X157816124Y-101394523D01*
X157779193Y-101335211D01*
X157780191Y-101265348D01*
X157818801Y-101207116D01*
X157879255Y-101179506D01*
X157992482Y-101161574D01*
X158098465Y-101107573D01*
X158182573Y-101023465D01*
X158236574Y-100917482D01*
X158255181Y-100800000D01*
X158255181Y-100799996D01*
X158236575Y-100682522D01*
X158236575Y-100682521D01*
X158236574Y-100682519D01*
X158236574Y-100682518D01*
X158182573Y-100576535D01*
X158182571Y-100576533D01*
X158182568Y-100576529D01*
X158098470Y-100492431D01*
X158098466Y-100492428D01*
X158098465Y-100492427D01*
X157992482Y-100438426D01*
X157992481Y-100438425D01*
X157992478Y-100438424D01*
X157879259Y-100420493D01*
X157816125Y-100390564D01*
X157779193Y-100331253D01*
X157780191Y-100261390D01*
X157818801Y-100203157D01*
X157879260Y-100175547D01*
X157967477Y-100161575D01*
X157967478Y-100161575D01*
X157967479Y-100161574D01*
X157967482Y-100161574D01*
X158073465Y-100107573D01*
X158157573Y-100023465D01*
X158211574Y-99917482D01*
X158217419Y-99880580D01*
X158230181Y-99800003D01*
X158230181Y-99799996D01*
X158211575Y-99682522D01*
X158211575Y-99682521D01*
X158211574Y-99682519D01*
X158211574Y-99682518D01*
X158157573Y-99576535D01*
X158157571Y-99576533D01*
X158157568Y-99576529D01*
X158073470Y-99492431D01*
X158073466Y-99492428D01*
X158073465Y-99492427D01*
X157967482Y-99438426D01*
X157967480Y-99438425D01*
X157967477Y-99438424D01*
X157866760Y-99422473D01*
X157803625Y-99392544D01*
X157766693Y-99333233D01*
X157767691Y-99263370D01*
X157806300Y-99205137D01*
X157866760Y-99177527D01*
X157967477Y-99161575D01*
X157967478Y-99161575D01*
X157967479Y-99161574D01*
X157967482Y-99161574D01*
X158073465Y-99107573D01*
X158157573Y-99023465D01*
X158211574Y-98917482D01*
X158215031Y-98895658D01*
X158230181Y-98800003D01*
X158230181Y-98799996D01*
X158214169Y-98698897D01*
X158223124Y-98629604D01*
X158268120Y-98576152D01*
X158334872Y-98555513D01*
X158336642Y-98555500D01*
X158715691Y-98555500D01*
X158715693Y-98555500D01*
X158727472Y-98555079D01*
X158731900Y-98555000D01*
X158868100Y-98555000D01*
X158872528Y-98555079D01*
X158884307Y-98555500D01*
X158884309Y-98555500D01*
X162025991Y-98555500D01*
X162026000Y-98555500D01*
X162069684Y-98550803D01*
X162104476Y-98543234D01*
X162174165Y-98548217D01*
X162230100Y-98590088D01*
X162239665Y-98604971D01*
X162255958Y-98634808D01*
X162290998Y-98681615D01*
X162291002Y-98681619D01*
X162291009Y-98681629D01*
X162291016Y-98681636D01*
X162558181Y-98948801D01*
X162591666Y-99010124D01*
X162594500Y-99036482D01*
X162594500Y-107548638D01*
X162595678Y-107570618D01*
X162598511Y-107596965D01*
X162598512Y-107596967D01*
X162622470Y-107673478D01*
X162622471Y-107673483D01*
X162624978Y-107678074D01*
X162653325Y-107729987D01*
X162655957Y-107734806D01*
X162684768Y-107773292D01*
X162699945Y-107799945D01*
X164202392Y-109302392D01*
X164231314Y-109320618D01*
X164234712Y-109323670D01*
X164234738Y-109323693D01*
X164242920Y-109330286D01*
X164255379Y-109340327D01*
X164326424Y-109377490D01*
X164393456Y-109397173D01*
X164393458Y-109397173D01*
X164393464Y-109397175D01*
X164451362Y-109405500D01*
X164451366Y-109405500D01*
X172925991Y-109405500D01*
X172926000Y-109405500D01*
X172969684Y-109400803D01*
X172998875Y-109394452D01*
X173021174Y-109389602D01*
X173021190Y-109389598D01*
X173021195Y-109389597D01*
X173031373Y-109387110D01*
X173112085Y-109344100D01*
X173128027Y-109330285D01*
X173191583Y-109301262D01*
X173199289Y-109300710D01*
X173200000Y-109300000D01*
X173200000Y-109282404D01*
X173215781Y-109221869D01*
X173227490Y-109200937D01*
X173247175Y-109133898D01*
X173255500Y-109076000D01*
X173255500Y-105676362D01*
X173254322Y-105654393D01*
X173251488Y-105628035D01*
X173227529Y-105551518D01*
X173194044Y-105490195D01*
X173158991Y-105443371D01*
X173006629Y-105291009D01*
X173006628Y-105291008D01*
X173006624Y-105291004D01*
X172990283Y-105276325D01*
X172990269Y-105276313D01*
X172969620Y-105259672D01*
X172898575Y-105222509D01*
X172831543Y-105202826D01*
X172811891Y-105200000D01*
X174544500Y-105200000D01*
X174544500Y-108976008D01*
X174548054Y-109009055D01*
X174559260Y-109060566D01*
X174593686Y-109129342D01*
X174594709Y-109130522D01*
X174595214Y-109131629D01*
X174597998Y-109135795D01*
X174597323Y-109136245D01*
X174623737Y-109194076D01*
X174625000Y-109211729D01*
X174625000Y-109320500D01*
X174605315Y-109387539D01*
X174552511Y-109433294D01*
X174501000Y-109444500D01*
X173898991Y-109444500D01*
X173865944Y-109448054D01*
X173814433Y-109459260D01*
X173745657Y-109493686D01*
X173692860Y-109539436D01*
X173687376Y-109544422D01*
X173645486Y-109613145D01*
X173645483Y-109613151D01*
X173625799Y-109680187D01*
X173625797Y-109680197D01*
X173619500Y-109723996D01*
X173619500Y-111175500D01*
X173599815Y-111242539D01*
X173547011Y-111288294D01*
X173495500Y-111299500D01*
X151309412Y-111299500D01*
X151242373Y-111279815D01*
X151221731Y-111263181D01*
X150408371Y-110449821D01*
X150374886Y-110388498D01*
X150372093Y-110365353D01*
X150372031Y-110362944D01*
X150372043Y-110362799D01*
X150370625Y-110308384D01*
X150370624Y-110308350D01*
X150369645Y-110270375D01*
X150369644Y-110270373D01*
X150369335Y-110258392D01*
X150369318Y-110258263D01*
X150367159Y-110175396D01*
X150367170Y-110175258D01*
X150365765Y-110121866D01*
X150365764Y-110121832D01*
X150364410Y-110069880D01*
X150364392Y-110069734D01*
X150362131Y-109983840D01*
X150362142Y-109983699D01*
X150360715Y-109930028D01*
X150360714Y-109929994D01*
X150359372Y-109879014D01*
X150359355Y-109878878D01*
X150357006Y-109790493D01*
X150357016Y-109790364D01*
X150355591Y-109737224D01*
X150355590Y-109737191D01*
X150354545Y-109697861D01*
X150354544Y-109697860D01*
X150354227Y-109685903D01*
X150354210Y-109685761D01*
X150354061Y-109680189D01*
X150351770Y-109594797D01*
X150351780Y-109594671D01*
X150350961Y-109564409D01*
X150350286Y-109539442D01*
X150350292Y-109539441D01*
X150350285Y-109539411D01*
X150349281Y-109501956D01*
X150349280Y-109501954D01*
X150348960Y-109490013D01*
X150348943Y-109489878D01*
X150346439Y-109397397D01*
X150346449Y-109397284D01*
X150346080Y-109383765D01*
X150346081Y-109383764D01*
X150344895Y-109340327D01*
X150343914Y-109304075D01*
X150343913Y-109304073D01*
X150343564Y-109291176D01*
X150343549Y-109291070D01*
X150340975Y-109196732D01*
X150340984Y-109196607D01*
X150339542Y-109144240D01*
X150339541Y-109144210D01*
X150338459Y-109104565D01*
X150338458Y-109104563D01*
X150338105Y-109091631D01*
X150338089Y-109091506D01*
X150337237Y-109060566D01*
X150335470Y-108996408D01*
X150335480Y-108996287D01*
X150333975Y-108942132D01*
X150333974Y-108942098D01*
X150332919Y-108903753D01*
X150332918Y-108903751D01*
X150332564Y-108890876D01*
X150332549Y-108890765D01*
X150329880Y-108794643D01*
X150329890Y-108794526D01*
X150328416Y-108741902D01*
X150328415Y-108741869D01*
X150326949Y-108689069D01*
X150326932Y-108688939D01*
X150324212Y-108591785D01*
X150324221Y-108591668D01*
X150323871Y-108579284D01*
X150323872Y-108579283D01*
X150322689Y-108537411D01*
X150322689Y-108537410D01*
X150322694Y-108537409D01*
X150322688Y-108537381D01*
X150321631Y-108499595D01*
X150321629Y-108499592D01*
X150321270Y-108486732D01*
X150321255Y-108486616D01*
X150318503Y-108389118D01*
X150318512Y-108388995D01*
X150318159Y-108376607D01*
X150318160Y-108376606D01*
X150317004Y-108335996D01*
X150315901Y-108296922D01*
X150315900Y-108296920D01*
X150315536Y-108284018D01*
X150315519Y-108283896D01*
X150312747Y-108186500D01*
X150312757Y-108186378D01*
X150311247Y-108133800D01*
X150311246Y-108133768D01*
X150310123Y-108094301D01*
X150310122Y-108094298D01*
X150309787Y-108082532D01*
X150309772Y-108082406D01*
X150306988Y-107985445D01*
X150306999Y-107985320D01*
X150305416Y-107930669D01*
X150305415Y-107930634D01*
X150304309Y-107892073D01*
X150304308Y-107892071D01*
X150303956Y-107879796D01*
X150303940Y-107879678D01*
X150301155Y-107783464D01*
X150301166Y-107783343D01*
X150299609Y-107730023D01*
X150299608Y-107729987D01*
X150298110Y-107678213D01*
X150298093Y-107678082D01*
X150295306Y-107582599D01*
X150295316Y-107582462D01*
X150293720Y-107528260D01*
X150293719Y-107528223D01*
X150292232Y-107477272D01*
X150292215Y-107477139D01*
X150289449Y-107383159D01*
X150289459Y-107383018D01*
X150287827Y-107328052D01*
X150287826Y-107328016D01*
X150286361Y-107278215D01*
X150286341Y-107278068D01*
X150283616Y-107186294D01*
X150283626Y-107186152D01*
X150282077Y-107134484D01*
X150282076Y-107134444D01*
X150280515Y-107081860D01*
X150280495Y-107081708D01*
X150277797Y-106991705D01*
X150277808Y-106991571D01*
X150277406Y-106978286D01*
X150277407Y-106978285D01*
X150276190Y-106938042D01*
X150275008Y-106898612D01*
X150275007Y-106898611D01*
X150274636Y-106886206D01*
X150274617Y-106886061D01*
X150271969Y-106798511D01*
X150271980Y-106798357D01*
X150270383Y-106746064D01*
X150270382Y-106746026D01*
X150268787Y-106693307D01*
X150268765Y-106693146D01*
X150266163Y-106607928D01*
X150266175Y-106607763D01*
X150264557Y-106555336D01*
X150264556Y-106555295D01*
X150262967Y-106503283D01*
X150262945Y-106503117D01*
X150260416Y-106421177D01*
X150260429Y-106421005D01*
X150258663Y-106364355D01*
X150258662Y-106364317D01*
X150258498Y-106359036D01*
X150257567Y-106328835D01*
X150257566Y-106328833D01*
X150257195Y-106316816D01*
X150257175Y-106316657D01*
X150254722Y-106237998D01*
X150254735Y-106237815D01*
X150254330Y-106224972D01*
X150253079Y-106185301D01*
X150253091Y-106185256D01*
X150253078Y-106185257D01*
X150251833Y-106145318D01*
X150251832Y-106145317D01*
X150251462Y-106133430D01*
X150251437Y-106133241D01*
X150249071Y-106058234D01*
X150249086Y-106058039D01*
X150247311Y-106002392D01*
X150247310Y-106002346D01*
X150245754Y-105953015D01*
X150245728Y-105952826D01*
X150243470Y-105882024D01*
X150243485Y-105881811D01*
X150241791Y-105829406D01*
X150241789Y-105829349D01*
X150240130Y-105777309D01*
X150240101Y-105777096D01*
X150237961Y-105710831D01*
X150237975Y-105710615D01*
X150237573Y-105698344D01*
X150237574Y-105698343D01*
X150236323Y-105660122D01*
X150236333Y-105660122D01*
X150236321Y-105660069D01*
X150236138Y-105654393D01*
X150234985Y-105618706D01*
X150234984Y-105618705D01*
X150234596Y-105606679D01*
X150234566Y-105606446D01*
X150232541Y-105544593D01*
X150232557Y-105544347D01*
X150232144Y-105531903D01*
X150232145Y-105531901D01*
X150230803Y-105491487D01*
X150229520Y-105452277D01*
X150229519Y-105452276D01*
X150229132Y-105440429D01*
X150229098Y-105440166D01*
X150227763Y-105400000D01*
X152500000Y-105400000D01*
X152500000Y-103200000D01*
X150200500Y-103158937D01*
X150200500Y-96750000D01*
X152500000Y-96750000D01*
X152500000Y-94550000D01*
X150230771Y-94509478D01*
X150230842Y-94507312D01*
X150232145Y-94468098D01*
X150232144Y-94468096D01*
X150232550Y-94455885D01*
X150232533Y-94455635D01*
X150234556Y-94393831D01*
X150234587Y-94393605D01*
X150236371Y-94338395D01*
X150236387Y-94338343D01*
X150236373Y-94338343D01*
X150236723Y-94327649D01*
X150237574Y-94301656D01*
X150237573Y-94301653D01*
X150237966Y-94289646D01*
X150237952Y-94289435D01*
X150240090Y-94223220D01*
X150240120Y-94223015D01*
X150241791Y-94170594D01*
X150241797Y-94170594D01*
X150241792Y-94170543D01*
X150243089Y-94130442D01*
X150243088Y-94130440D01*
X150243476Y-94118449D01*
X150243462Y-94118230D01*
X150245717Y-94047539D01*
X150245742Y-94047354D01*
X150246148Y-94034436D01*
X150246150Y-94034434D01*
X150247351Y-93996309D01*
X150247367Y-93996261D01*
X150247353Y-93996261D01*
X150249077Y-93942252D01*
X150249062Y-93942050D01*
X150251426Y-93867085D01*
X150251451Y-93866905D01*
X150251832Y-93854682D01*
X150251833Y-93854681D01*
X150253137Y-93812855D01*
X150253137Y-93812854D01*
X150253142Y-93812854D01*
X150253138Y-93812808D01*
X150253392Y-93804759D01*
X150254330Y-93775027D01*
X150254329Y-93775025D01*
X150254724Y-93762516D01*
X150254711Y-93762341D01*
X150257162Y-93683752D01*
X150257183Y-93683591D01*
X150258713Y-93634016D01*
X150258714Y-93633973D01*
X150258916Y-93627482D01*
X150260039Y-93591503D01*
X150260037Y-93591500D01*
X150260418Y-93579310D01*
X150260406Y-93579138D01*
X150262932Y-93497292D01*
X150262954Y-93497130D01*
X150264561Y-93444547D01*
X150264562Y-93444508D01*
X150266165Y-93392568D01*
X150266153Y-93392392D01*
X150268753Y-93307268D01*
X150268775Y-93307102D01*
X150270423Y-93252615D01*
X150270424Y-93252574D01*
X150271968Y-93202038D01*
X150271957Y-93201880D01*
X150274603Y-93114402D01*
X150274622Y-93114268D01*
X150276260Y-93059624D01*
X150276261Y-93059588D01*
X150277796Y-93008852D01*
X150277785Y-93008700D01*
X150280482Y-92918735D01*
X150280501Y-92918593D01*
X150282102Y-92864712D01*
X150282105Y-92864712D01*
X150282102Y-92864686D01*
X150283247Y-92826503D01*
X150283246Y-92826500D01*
X150283613Y-92814261D01*
X150283603Y-92814128D01*
X150286326Y-92722428D01*
X150286346Y-92722292D01*
X150287897Y-92669581D01*
X150287898Y-92669546D01*
X150288268Y-92657092D01*
X150289096Y-92629213D01*
X150289095Y-92629211D01*
X150289447Y-92617373D01*
X150289437Y-92617235D01*
X150292199Y-92523399D01*
X150292216Y-92523280D01*
X150293720Y-92471759D01*
X150293723Y-92471759D01*
X150293720Y-92471732D01*
X150294944Y-92430180D01*
X150294943Y-92430177D01*
X150295303Y-92417952D01*
X150295294Y-92417811D01*
X150298078Y-92322433D01*
X150298095Y-92322299D01*
X150299608Y-92270011D01*
X150299609Y-92269975D01*
X150301153Y-92217107D01*
X150301143Y-92216970D01*
X150301634Y-92200000D01*
X150303924Y-92120876D01*
X150303940Y-92120763D01*
X150304308Y-92107927D01*
X150304309Y-92107926D01*
X150305416Y-92069330D01*
X150306606Y-92028243D01*
X150306985Y-92015162D01*
X150306974Y-92015033D01*
X150309757Y-91918105D01*
X150309773Y-91917982D01*
X150311247Y-91866200D01*
X150311250Y-91866200D01*
X150311247Y-91866172D01*
X150312401Y-91826013D01*
X150312400Y-91826012D01*
X150312744Y-91814066D01*
X150312735Y-91813934D01*
X150315504Y-91716652D01*
X150315520Y-91716536D01*
X150315900Y-91703078D01*
X150315901Y-91703077D01*
X150317026Y-91663223D01*
X150317026Y-91663222D01*
X150317028Y-91663222D01*
X150317026Y-91663201D01*
X150318160Y-91623393D01*
X150318159Y-91623390D01*
X150318499Y-91611449D01*
X150318490Y-91611334D01*
X150321238Y-91513977D01*
X150321254Y-91513864D01*
X150322690Y-91462585D01*
X150322692Y-91462585D01*
X150322689Y-91462560D01*
X150323872Y-91420716D01*
X150323870Y-91420712D01*
X150324208Y-91408776D01*
X150324200Y-91408653D01*
X150326917Y-91311602D01*
X150326934Y-91311482D01*
X150328485Y-91255631D01*
X150328488Y-91255631D01*
X150328485Y-91255603D01*
X150329530Y-91218327D01*
X150329877Y-91205958D01*
X150329867Y-91205823D01*
X150332532Y-91109843D01*
X150332548Y-91109724D01*
X150333975Y-91057866D01*
X150333978Y-91057866D01*
X150333975Y-91057838D01*
X150335123Y-91016557D01*
X150335122Y-91016555D01*
X150335466Y-91004192D01*
X150335457Y-91004067D01*
X150338074Y-90909032D01*
X150338090Y-90908921D01*
X150338458Y-90895435D01*
X150338459Y-90895434D01*
X150339542Y-90855758D01*
X150339542Y-90855757D01*
X150339545Y-90855757D01*
X150339542Y-90855731D01*
X150340644Y-90815749D01*
X150340643Y-90815748D01*
X150340972Y-90803839D01*
X150340963Y-90803706D01*
X150343533Y-90709533D01*
X150343548Y-90709423D01*
X150343913Y-90695925D01*
X150343914Y-90695924D01*
X150344917Y-90658845D01*
X150344917Y-90658844D01*
X150344920Y-90658844D01*
X150344917Y-90658818D01*
X150346081Y-90616235D01*
X150346079Y-90616232D01*
X150346436Y-90603199D01*
X150346426Y-90603081D01*
X150348930Y-90510597D01*
X150348947Y-90510469D01*
X150349280Y-90498044D01*
X150349281Y-90498043D01*
X150350359Y-90457837D01*
X150350368Y-90457807D01*
X150350360Y-90457807D01*
X150351428Y-90418358D01*
X150351427Y-90418356D01*
X150351768Y-90405778D01*
X150351758Y-90405644D01*
X150353088Y-90356063D01*
X150354197Y-90314705D01*
X150354214Y-90314575D01*
X150354544Y-90302139D01*
X150354545Y-90302138D01*
X150355654Y-90260381D01*
X150355657Y-90260381D01*
X150355654Y-90260352D01*
X150356672Y-90222451D01*
X150356671Y-90222450D01*
X150357003Y-90210119D01*
X150356993Y-90209992D01*
X150359341Y-90121620D01*
X150359358Y-90121501D01*
X150359699Y-90108541D01*
X150359700Y-90108540D01*
X150360715Y-90069971D01*
X150360715Y-90069970D01*
X150360718Y-90069970D01*
X150360715Y-90069942D01*
X150361808Y-90028855D01*
X150362131Y-90016721D01*
X150362120Y-90016579D01*
X150364379Y-89930726D01*
X150364397Y-89930598D01*
X150364736Y-89917590D01*
X150364737Y-89917589D01*
X150365767Y-89878050D01*
X150365767Y-89878049D01*
X150365770Y-89878049D01*
X150365767Y-89878021D01*
X150366824Y-89837906D01*
X150366823Y-89837904D01*
X150367159Y-89825160D01*
X150367148Y-89825017D01*
X150367903Y-89796063D01*
X150369306Y-89742213D01*
X150369323Y-89742081D01*
X150369644Y-89729625D01*
X150369645Y-89729624D01*
X150370625Y-89691601D01*
X150370628Y-89691601D01*
X150370625Y-89691572D01*
X150371711Y-89649941D01*
X150371710Y-89649939D01*
X150372032Y-89637600D01*
X150372021Y-89637453D01*
X150372093Y-89634661D01*
X150393499Y-89568152D01*
X150408366Y-89550183D01*
X151221731Y-88736819D01*
X151283054Y-88703334D01*
X151309412Y-88700500D01*
X158992040Y-88700500D01*
X158950000Y-92400000D01*
G37*
%TD.AperFunction*%
%TA.AperFunction,Conductor*%
G36*
X154083449Y-103092469D02*
G01*
X154088719Y-103112136D01*
X154115062Y-103157762D01*
X154164485Y-103243365D01*
X154181186Y-103260066D01*
X153863953Y-103242442D01*
X154073178Y-103054139D01*
X154083449Y-103092469D01*
G37*
%TD.AperFunction*%
%TD*%
%TA.AperFunction,Conductor*%
%TO.N,/Connector/POWER_VBUS*%
G36*
X162093039Y-92719685D02*
G01*
X162138794Y-92772489D01*
X162150000Y-92824000D01*
X162150000Y-94965494D01*
X162130315Y-95032533D01*
X162077511Y-95078288D01*
X162008353Y-95088232D01*
X161991066Y-95084471D01*
X161871963Y-95049500D01*
X161871961Y-95049500D01*
X161728039Y-95049500D01*
X161728036Y-95049500D01*
X161589949Y-95090045D01*
X161468873Y-95167856D01*
X161374623Y-95276626D01*
X161374622Y-95276628D01*
X161314834Y-95407543D01*
X161294353Y-95550000D01*
X161314834Y-95692456D01*
X161374622Y-95823371D01*
X161374623Y-95823373D01*
X161468872Y-95932143D01*
X161589947Y-96009953D01*
X161589950Y-96009954D01*
X161589949Y-96009954D01*
X161728036Y-96050499D01*
X161728038Y-96050500D01*
X161728039Y-96050500D01*
X161871961Y-96050500D01*
X161991066Y-96015528D01*
X162060935Y-96015528D01*
X162119713Y-96053302D01*
X162148738Y-96116858D01*
X162150000Y-96134505D01*
X162150000Y-98226000D01*
X162130315Y-98293039D01*
X162077511Y-98338794D01*
X162026000Y-98350000D01*
X158884307Y-98350000D01*
X158877316Y-98349500D01*
X158871961Y-98349500D01*
X158728039Y-98349500D01*
X158722684Y-98349500D01*
X158715693Y-98350000D01*
X157750000Y-98350000D01*
X157716172Y-98383827D01*
X157684788Y-98406628D01*
X157596778Y-98451472D01*
X157501476Y-98546774D01*
X157501473Y-98546778D01*
X157440279Y-98666878D01*
X157419196Y-98799997D01*
X157419196Y-98800002D01*
X157440279Y-98933123D01*
X157486485Y-99023806D01*
X157500000Y-99080101D01*
X157500000Y-99519898D01*
X157486485Y-99576192D01*
X157440279Y-99666876D01*
X157419196Y-99799997D01*
X157419196Y-99800002D01*
X157440279Y-99933123D01*
X157486485Y-100023806D01*
X157500000Y-100080101D01*
X157500000Y-100568964D01*
X157486485Y-100625258D01*
X157465279Y-100666876D01*
X157444196Y-100799997D01*
X157444196Y-100800002D01*
X157465279Y-100933123D01*
X157465281Y-100933126D01*
X157486485Y-100974742D01*
X157500000Y-101031035D01*
X157500000Y-101519898D01*
X157486485Y-101576192D01*
X157440279Y-101666876D01*
X157419196Y-101799997D01*
X157419196Y-101800002D01*
X157440279Y-101933123D01*
X157486485Y-102023806D01*
X157500000Y-102080101D01*
X157500000Y-102626000D01*
X157480315Y-102693039D01*
X157427511Y-102738794D01*
X157376000Y-102750000D01*
X155278156Y-102750000D01*
X155211117Y-102730315D01*
X155165362Y-102677511D01*
X155163592Y-102673446D01*
X155161283Y-102667873D01*
X155161281Y-102667865D01*
X155085515Y-102536635D01*
X154978365Y-102429485D01*
X154912750Y-102391602D01*
X154847136Y-102353719D01*
X154773950Y-102334109D01*
X154700766Y-102314500D01*
X154549234Y-102314500D01*
X154402863Y-102353719D01*
X154271635Y-102429485D01*
X154271632Y-102429487D01*
X154164487Y-102536632D01*
X154164485Y-102536635D01*
X154088720Y-102667863D01*
X154086408Y-102673446D01*
X154042570Y-102727852D01*
X153976278Y-102749921D01*
X153971844Y-102750000D01*
X153324000Y-102750000D01*
X153256961Y-102730315D01*
X153211206Y-102677511D01*
X153200000Y-102626000D01*
X153200000Y-97324000D01*
X153219685Y-97256961D01*
X153272489Y-97211206D01*
X153324000Y-97200000D01*
X153958165Y-97200000D01*
X154025204Y-97219685D01*
X154070959Y-97272489D01*
X154077939Y-97291903D01*
X154088719Y-97332135D01*
X154164485Y-97463365D01*
X154271635Y-97570515D01*
X154402865Y-97646281D01*
X154549234Y-97685500D01*
X154549236Y-97685500D01*
X154700764Y-97685500D01*
X154700766Y-97685500D01*
X154847135Y-97646281D01*
X154978365Y-97570515D01*
X155085515Y-97463365D01*
X155161281Y-97332135D01*
X155172060Y-97291905D01*
X155208426Y-97232246D01*
X155271273Y-97201717D01*
X155291835Y-97200000D01*
X157000000Y-97200000D01*
X157000000Y-96624000D01*
X157019685Y-96556961D01*
X157072489Y-96511206D01*
X157124000Y-96500000D01*
X158700000Y-96500000D01*
X159300000Y-95900000D01*
X159300000Y-92824000D01*
X159319685Y-92756961D01*
X159372489Y-92711206D01*
X159424000Y-92700000D01*
X162026000Y-92700000D01*
X162093039Y-92719685D01*
G37*
%TD.AperFunction*%
%TD*%
%TA.AperFunction,Conductor*%
%TO.N,GND*%
G36*
X153917500Y-96994500D02*
G01*
X153323992Y-96994500D01*
X153280313Y-96999197D01*
X153228825Y-97010397D01*
X153218627Y-97012890D01*
X153218624Y-97012891D01*
X153137916Y-97055899D01*
X153137913Y-97055901D01*
X153085104Y-97101660D01*
X153067160Y-97119242D01*
X153067154Y-97119249D01*
X153022511Y-97199059D01*
X153022509Y-97199064D01*
X153002826Y-97266096D01*
X152994500Y-97324003D01*
X152994500Y-102626007D01*
X152999197Y-102669686D01*
X153010397Y-102721174D01*
X153012890Y-102731372D01*
X153012891Y-102731375D01*
X153055899Y-102812083D01*
X153055901Y-102812086D01*
X153101660Y-102864895D01*
X153119242Y-102882839D01*
X153119246Y-102882843D01*
X153119247Y-102882844D01*
X153119249Y-102882845D01*
X153199059Y-102927488D01*
X153199063Y-102927490D01*
X153266102Y-102947175D01*
X153324000Y-102955500D01*
X153324004Y-102955500D01*
X153951601Y-102955500D01*
X154018640Y-102975185D01*
X154064395Y-103027989D01*
X154071373Y-103047400D01*
X154073179Y-103054138D01*
X153800000Y-103300000D01*
X152600000Y-102700000D01*
X152500000Y-96900000D01*
X153917500Y-96994500D01*
G37*
%TD.AperFunction*%
%TD*%
%TA.AperFunction,Conductor*%
%TO.N,/IP2368 Buck-Boost-Converter/BAT*%
G36*
X195512916Y-88720185D02*
G01*
X195558671Y-88772989D01*
X195568615Y-88842147D01*
X195539590Y-88905703D01*
X195533574Y-88912164D01*
X195397531Y-89048206D01*
X195290665Y-89155072D01*
X195290661Y-89155078D01*
X195237636Y-89208103D01*
X195199500Y-89300170D01*
X195199500Y-92809829D01*
X195237636Y-92901897D01*
X196313681Y-93977942D01*
X196347166Y-94039265D01*
X196350000Y-94065623D01*
X196350000Y-96909022D01*
X196330315Y-96976061D01*
X196313681Y-96996703D01*
X194793942Y-98516443D01*
X194716444Y-98593940D01*
X194716443Y-98593941D01*
X194716443Y-98593942D01*
X194706372Y-98618256D01*
X194674500Y-98695199D01*
X194674500Y-101404800D01*
X194704040Y-101476114D01*
X194704041Y-101476116D01*
X194716442Y-101506057D01*
X195363681Y-102153296D01*
X195397166Y-102214619D01*
X195400000Y-102240977D01*
X195400000Y-103376000D01*
X195380315Y-103443039D01*
X195327511Y-103488794D01*
X195276000Y-103500000D01*
X191971272Y-103500000D01*
X191904233Y-103480315D01*
X191883591Y-103463681D01*
X191141819Y-102721909D01*
X191108334Y-102660586D01*
X191105500Y-102634228D01*
X191105500Y-101779500D01*
X191125185Y-101712461D01*
X191177989Y-101666706D01*
X191229500Y-101655500D01*
X192475991Y-101655500D01*
X192476000Y-101655500D01*
X192509055Y-101651946D01*
X192560566Y-101640740D01*
X192629342Y-101606313D01*
X192682146Y-101560558D01*
X192687621Y-101555580D01*
X192729516Y-101486850D01*
X192749201Y-101419811D01*
X192755500Y-101376000D01*
X192755500Y-97674000D01*
X192751946Y-97640945D01*
X192740740Y-97589434D01*
X192723545Y-97555084D01*
X192706313Y-97520657D01*
X192660563Y-97467860D01*
X192655577Y-97462376D01*
X192586854Y-97420486D01*
X192586848Y-97420483D01*
X192519812Y-97400799D01*
X192519802Y-97400797D01*
X192476003Y-97394500D01*
X192476000Y-97394500D01*
X184979500Y-97394500D01*
X184912461Y-97374815D01*
X184866706Y-97322011D01*
X184855500Y-97270500D01*
X184855500Y-92529500D01*
X184875185Y-92462461D01*
X184927989Y-92416706D01*
X184979500Y-92405500D01*
X192625991Y-92405500D01*
X192626000Y-92405500D01*
X192659055Y-92401946D01*
X192710566Y-92390740D01*
X192779342Y-92356313D01*
X192832146Y-92310558D01*
X192837621Y-92305580D01*
X192879516Y-92236850D01*
X192899201Y-92169811D01*
X192905500Y-92126000D01*
X192905500Y-88824500D01*
X192925185Y-88757461D01*
X192977989Y-88711706D01*
X193029500Y-88700500D01*
X195445877Y-88700500D01*
X195512916Y-88720185D01*
G37*
%TD.AperFunction*%
%TA.AperFunction,Conductor*%
G36*
X198211915Y-89270185D02*
G01*
X198232556Y-89286817D01*
X198263681Y-89317942D01*
X198297166Y-89379263D01*
X198300000Y-89405623D01*
X198300000Y-92476000D01*
X198280315Y-92543039D01*
X198227511Y-92588794D01*
X198176000Y-92600000D01*
X196700000Y-92600000D01*
X196699999Y-92600000D01*
X196699998Y-92600001D01*
X196350000Y-92900000D01*
X196350000Y-93006377D01*
X196330315Y-93073416D01*
X196277511Y-93119171D01*
X196208353Y-93129115D01*
X196144797Y-93100090D01*
X196138319Y-93094058D01*
X195736819Y-92692558D01*
X195703334Y-92631235D01*
X195700500Y-92604877D01*
X195700500Y-89505122D01*
X195720185Y-89438083D01*
X195736819Y-89417441D01*
X195867441Y-89286819D01*
X195928764Y-89253334D01*
X195955122Y-89250500D01*
X198144876Y-89250500D01*
X198211915Y-89270185D01*
G37*
%TD.AperFunction*%
%TD*%
%TA.AperFunction,Conductor*%
%TO.N,GND*%
G36*
X195439176Y-105514014D02*
G01*
X195532518Y-105561574D01*
X195532520Y-105561574D01*
X195532522Y-105561575D01*
X195649997Y-105580181D01*
X195650000Y-105580181D01*
X195650003Y-105580181D01*
X195777121Y-105560048D01*
X195777565Y-105562856D01*
X195832018Y-105561300D01*
X195891853Y-105597378D01*
X195922683Y-105660078D01*
X195924500Y-105681227D01*
X195924500Y-109334523D01*
X195904815Y-109401562D01*
X195888181Y-109422204D01*
X194872204Y-110438181D01*
X194810881Y-110471666D01*
X194784523Y-110474500D01*
X192814005Y-110474500D01*
X192746966Y-110454815D01*
X192720291Y-110431702D01*
X192698049Y-110406033D01*
X192589069Y-110335996D01*
X192589065Y-110335994D01*
X192589064Y-110335994D01*
X192464774Y-110299500D01*
X192464772Y-110299500D01*
X192335228Y-110299500D01*
X192335226Y-110299500D01*
X192210935Y-110335994D01*
X192210932Y-110335995D01*
X192210931Y-110335996D01*
X192159677Y-110368934D01*
X192101950Y-110406033D01*
X192017118Y-110503937D01*
X192017117Y-110503938D01*
X191963302Y-110621774D01*
X191944867Y-110750000D01*
X191963302Y-110878225D01*
X192017117Y-110996061D01*
X192017118Y-110996063D01*
X192055087Y-111039882D01*
X192102238Y-111094298D01*
X192131262Y-111157854D01*
X192121318Y-111227012D01*
X192075563Y-111279816D01*
X192008524Y-111299500D01*
X190974000Y-111299500D01*
X190906961Y-111279815D01*
X190861206Y-111227011D01*
X190850000Y-111175500D01*
X190850000Y-108199996D01*
X194644819Y-108199996D01*
X194644819Y-108200003D01*
X194663424Y-108317477D01*
X194663424Y-108317478D01*
X194717428Y-108423466D01*
X194717431Y-108423470D01*
X194801529Y-108507568D01*
X194801533Y-108507571D01*
X194801535Y-108507573D01*
X194907518Y-108561574D01*
X194907520Y-108561574D01*
X194907522Y-108561575D01*
X195024997Y-108580181D01*
X195025000Y-108580181D01*
X195025003Y-108580181D01*
X195142477Y-108561575D01*
X195142478Y-108561575D01*
X195142479Y-108561574D01*
X195142482Y-108561574D01*
X195248465Y-108507573D01*
X195332573Y-108423465D01*
X195386574Y-108317482D01*
X195396954Y-108251946D01*
X195405181Y-108200003D01*
X195405181Y-108199996D01*
X195386575Y-108082522D01*
X195386575Y-108082521D01*
X195386574Y-108082519D01*
X195386574Y-108082518D01*
X195332573Y-107976535D01*
X195332571Y-107976533D01*
X195332568Y-107976529D01*
X195248470Y-107892431D01*
X195248466Y-107892428D01*
X195248465Y-107892427D01*
X195142482Y-107838426D01*
X195142480Y-107838425D01*
X195142477Y-107838424D01*
X195041760Y-107822473D01*
X195025312Y-107814676D01*
X195008240Y-107822473D01*
X194907521Y-107838424D01*
X194801533Y-107892428D01*
X194801529Y-107892431D01*
X194717431Y-107976529D01*
X194717428Y-107976533D01*
X194663424Y-108082521D01*
X194663424Y-108082522D01*
X194644819Y-108199996D01*
X190850000Y-108199996D01*
X190850000Y-107199996D01*
X194644819Y-107199996D01*
X194644819Y-107200003D01*
X194663424Y-107317477D01*
X194663424Y-107317478D01*
X194717428Y-107423466D01*
X194717431Y-107423470D01*
X194801529Y-107507568D01*
X194801533Y-107507571D01*
X194801535Y-107507573D01*
X194907518Y-107561574D01*
X194907519Y-107561574D01*
X194907521Y-107561575D01*
X195008240Y-107577527D01*
X195024686Y-107585323D01*
X195041760Y-107577527D01*
X195142477Y-107561575D01*
X195142478Y-107561575D01*
X195142479Y-107561574D01*
X195142482Y-107561574D01*
X195248465Y-107507573D01*
X195332573Y-107423465D01*
X195386574Y-107317482D01*
X195405181Y-107200000D01*
X195405181Y-107199996D01*
X195386575Y-107082522D01*
X195386575Y-107082521D01*
X195386574Y-107082519D01*
X195386574Y-107082518D01*
X195332573Y-106976535D01*
X195332571Y-106976533D01*
X195332568Y-106976529D01*
X195248470Y-106892431D01*
X195248466Y-106892428D01*
X195248465Y-106892427D01*
X195142482Y-106838426D01*
X195142480Y-106838425D01*
X195142477Y-106838424D01*
X195041760Y-106822473D01*
X195025312Y-106814676D01*
X195008240Y-106822473D01*
X194907521Y-106838424D01*
X194801533Y-106892428D01*
X194801529Y-106892431D01*
X194717431Y-106976529D01*
X194717428Y-106976533D01*
X194663424Y-107082521D01*
X194663424Y-107082522D01*
X194644819Y-107199996D01*
X190850000Y-107199996D01*
X190850000Y-106199996D01*
X194644819Y-106199996D01*
X194644819Y-106200003D01*
X194663424Y-106317477D01*
X194663424Y-106317478D01*
X194717428Y-106423466D01*
X194717431Y-106423470D01*
X194801529Y-106507568D01*
X194801533Y-106507571D01*
X194801535Y-106507573D01*
X194907518Y-106561574D01*
X194907519Y-106561574D01*
X194907521Y-106561575D01*
X195008240Y-106577527D01*
X195024686Y-106585323D01*
X195041760Y-106577527D01*
X195142477Y-106561575D01*
X195142478Y-106561575D01*
X195142479Y-106561574D01*
X195142482Y-106561574D01*
X195248465Y-106507573D01*
X195332573Y-106423465D01*
X195386574Y-106317482D01*
X195405181Y-106200000D01*
X195405181Y-106199996D01*
X195386575Y-106082522D01*
X195386575Y-106082521D01*
X195386574Y-106082519D01*
X195386574Y-106082518D01*
X195332573Y-105976535D01*
X195332571Y-105976533D01*
X195332568Y-105976529D01*
X195248470Y-105892431D01*
X195248466Y-105892428D01*
X195248465Y-105892427D01*
X195142482Y-105838426D01*
X195142480Y-105838425D01*
X195142477Y-105838424D01*
X195025003Y-105819819D01*
X195024997Y-105819819D01*
X194907522Y-105838424D01*
X194907521Y-105838424D01*
X194801533Y-105892428D01*
X194801529Y-105892431D01*
X194717431Y-105976529D01*
X194717428Y-105976533D01*
X194663424Y-106082521D01*
X194663424Y-106082522D01*
X194644819Y-106199996D01*
X190850000Y-106199996D01*
X190850000Y-105624333D01*
X190869685Y-105557294D01*
X190922489Y-105511539D01*
X190991647Y-105501595D01*
X191055203Y-105530620D01*
X191061681Y-105536652D01*
X191440489Y-105915460D01*
X191499829Y-105949720D01*
X191509008Y-105955020D01*
X191509012Y-105955022D01*
X191585438Y-105975500D01*
X191585440Y-105975500D01*
X193389560Y-105975500D01*
X193389562Y-105975500D01*
X193465989Y-105955021D01*
X193534511Y-105915460D01*
X193590460Y-105859511D01*
X193913152Y-105536819D01*
X193974475Y-105503334D01*
X194000833Y-105500500D01*
X195382885Y-105500500D01*
X195439176Y-105514014D01*
G37*
%TD.AperFunction*%
%TA.AperFunction,Conductor*%
G36*
X199742539Y-102519685D02*
G01*
X199788294Y-102572489D01*
X199799500Y-102624000D01*
X199799500Y-110865588D01*
X199779815Y-110932627D01*
X199763181Y-110953269D01*
X199453269Y-111263181D01*
X199391946Y-111296666D01*
X199365588Y-111299500D01*
X192791476Y-111299500D01*
X192724437Y-111279815D01*
X192678682Y-111227011D01*
X192668738Y-111157853D01*
X192697763Y-111094298D01*
X192720292Y-111068298D01*
X192779070Y-111030523D01*
X192814005Y-111025500D01*
X195004799Y-111025500D01*
X195004800Y-111025500D01*
X195106058Y-110983557D01*
X195183557Y-110906058D01*
X196433557Y-109656058D01*
X196475500Y-109554800D01*
X196475500Y-102624000D01*
X196495185Y-102556961D01*
X196547989Y-102511206D01*
X196599500Y-102500000D01*
X199675500Y-102500000D01*
X199742539Y-102519685D01*
G37*
%TD.AperFunction*%
%TA.AperFunction,Conductor*%
G36*
X195760703Y-102550764D02*
G01*
X195767181Y-102556796D01*
X195888181Y-102677796D01*
X195921666Y-102739119D01*
X195924500Y-102765477D01*
X195924500Y-104718772D01*
X195904815Y-104785811D01*
X195852011Y-104831566D01*
X195782853Y-104841510D01*
X195774076Y-104839469D01*
X195650003Y-104819819D01*
X195649997Y-104819819D01*
X195532522Y-104838424D01*
X195532521Y-104838424D01*
X195526465Y-104841510D01*
X195439176Y-104885985D01*
X195382885Y-104899500D01*
X193785438Y-104899500D01*
X193755310Y-104907573D01*
X193709009Y-104919979D01*
X193709004Y-104919982D01*
X193640495Y-104959535D01*
X193640487Y-104959541D01*
X193261848Y-105338181D01*
X193200525Y-105371666D01*
X193174167Y-105374500D01*
X191800833Y-105374500D01*
X191733794Y-105354815D01*
X191713152Y-105338181D01*
X191499319Y-105124348D01*
X191465834Y-105063025D01*
X191463000Y-105036667D01*
X191463000Y-104422939D01*
X191450566Y-104376535D01*
X191442521Y-104346511D01*
X191433001Y-104330021D01*
X191402964Y-104277995D01*
X191402958Y-104277987D01*
X191068980Y-103944009D01*
X191800000Y-103600000D01*
X191773636Y-103573636D01*
X191773650Y-103573649D01*
X191773661Y-103573659D01*
X191785999Y-103584742D01*
X191786015Y-103584755D01*
X191786021Y-103584761D01*
X191806663Y-103601395D01*
X191860422Y-103629516D01*
X191860427Y-103629517D01*
X191860432Y-103629520D01*
X191866076Y-103631800D01*
X191864790Y-103634982D01*
X191911310Y-103663261D01*
X191941914Y-103726072D01*
X191938500Y-103772649D01*
X191939952Y-103772879D01*
X191919819Y-103899996D01*
X191919819Y-103900003D01*
X191938424Y-104017477D01*
X191938424Y-104017478D01*
X191992428Y-104123466D01*
X191992431Y-104123470D01*
X192031280Y-104162319D01*
X192064765Y-104223642D01*
X192059781Y-104293334D01*
X192031280Y-104337681D01*
X191992431Y-104376529D01*
X191992428Y-104376533D01*
X191938424Y-104482521D01*
X191938424Y-104482522D01*
X191919819Y-104599996D01*
X191919819Y-104600003D01*
X191938424Y-104717477D01*
X191938424Y-104717478D01*
X191938425Y-104717481D01*
X191938426Y-104717482D01*
X191990569Y-104819819D01*
X191992428Y-104823466D01*
X191992431Y-104823470D01*
X192076529Y-104907568D01*
X192076533Y-104907571D01*
X192076535Y-104907573D01*
X192182518Y-104961574D01*
X192182520Y-104961574D01*
X192182522Y-104961575D01*
X192299997Y-104980181D01*
X192300000Y-104980181D01*
X192300003Y-104980181D01*
X192417477Y-104961575D01*
X192417478Y-104961575D01*
X192417479Y-104961574D01*
X192417482Y-104961574D01*
X192523465Y-104907573D01*
X192607573Y-104823465D01*
X192661574Y-104717482D01*
X192680181Y-104600000D01*
X192680181Y-104599996D01*
X192661575Y-104482522D01*
X192661575Y-104482521D01*
X192661574Y-104482519D01*
X192661574Y-104482518D01*
X192607573Y-104376535D01*
X192607571Y-104376533D01*
X192607568Y-104376529D01*
X192568720Y-104337681D01*
X192535235Y-104276358D01*
X192540219Y-104206666D01*
X192568720Y-104162319D01*
X192607568Y-104123470D01*
X192607573Y-104123465D01*
X192661574Y-104017482D01*
X192670751Y-103959540D01*
X192680181Y-103900003D01*
X192680181Y-103899996D01*
X192664169Y-103798897D01*
X192673124Y-103729604D01*
X192718120Y-103676152D01*
X192784872Y-103655513D01*
X192786642Y-103655500D01*
X195275991Y-103655500D01*
X195276000Y-103655500D01*
X195309055Y-103651946D01*
X195360566Y-103640740D01*
X195429342Y-103606313D01*
X195454210Y-103584765D01*
X195459378Y-103580287D01*
X195478400Y-103571599D01*
X195499999Y-103550000D01*
X195500000Y-103550000D01*
X195500000Y-103549999D01*
X195507840Y-103542159D01*
X195518120Y-103505544D01*
X195529516Y-103486850D01*
X195549201Y-103419811D01*
X195555500Y-103376000D01*
X195555500Y-102644477D01*
X195575185Y-102577438D01*
X195627989Y-102531683D01*
X195697147Y-102521739D01*
X195760703Y-102550764D01*
G37*
%TD.AperFunction*%
%TD*%
%TA.AperFunction,Conductor*%
%TO.N,GND*%
G36*
X169766206Y-99445185D02*
G01*
X169786848Y-99461819D01*
X169863181Y-99538152D01*
X169896666Y-99599475D01*
X169899500Y-99625833D01*
X169899500Y-100714562D01*
X169919979Y-100790989D01*
X169925181Y-100799999D01*
X169959540Y-100859511D01*
X170784540Y-101684511D01*
X170840489Y-101740460D01*
X170840491Y-101740461D01*
X170840495Y-101740464D01*
X170908024Y-101779451D01*
X170909011Y-101780021D01*
X170985438Y-101800500D01*
X174660438Y-101800500D01*
X178185438Y-101800500D01*
X178460438Y-101800500D01*
X178539562Y-101800500D01*
X179909099Y-101800500D01*
X179976138Y-101820185D01*
X180021893Y-101872989D01*
X180031837Y-101942147D01*
X180002812Y-102005703D01*
X179996780Y-102012181D01*
X179992431Y-102016529D01*
X179992428Y-102016533D01*
X179938424Y-102122521D01*
X179938424Y-102122522D01*
X179919819Y-102239996D01*
X179919819Y-102240003D01*
X179938424Y-102357477D01*
X179938424Y-102357478D01*
X179938425Y-102357481D01*
X179938426Y-102357482D01*
X179992266Y-102463150D01*
X179992428Y-102463466D01*
X179992431Y-102463470D01*
X180076529Y-102547568D01*
X180076533Y-102547571D01*
X180076535Y-102547573D01*
X180182518Y-102601574D01*
X180182520Y-102601574D01*
X180182522Y-102601575D01*
X180299997Y-102620181D01*
X180300000Y-102620181D01*
X180300003Y-102620181D01*
X180417477Y-102601575D01*
X180417478Y-102601575D01*
X180417479Y-102601574D01*
X180417482Y-102601574D01*
X180523465Y-102547573D01*
X180607573Y-102463465D01*
X180661574Y-102357482D01*
X180663814Y-102343338D01*
X180680181Y-102240003D01*
X180680181Y-102239996D01*
X180661575Y-102122522D01*
X180661575Y-102122521D01*
X180661574Y-102122519D01*
X180661574Y-102122518D01*
X180607573Y-102016535D01*
X180607571Y-102016533D01*
X180607568Y-102016529D01*
X180603220Y-102012181D01*
X180569735Y-101950858D01*
X180574719Y-101881166D01*
X180616591Y-101825233D01*
X180682055Y-101800816D01*
X180690901Y-101800500D01*
X181019099Y-101800500D01*
X181086138Y-101820185D01*
X181131893Y-101872989D01*
X181141837Y-101942147D01*
X181112812Y-102005703D01*
X181106780Y-102012181D01*
X181042431Y-102076529D01*
X181042428Y-102076533D01*
X180988424Y-102182521D01*
X180988424Y-102182522D01*
X180969819Y-102299996D01*
X180969819Y-102300003D01*
X180988424Y-102417477D01*
X180988424Y-102417478D01*
X180988425Y-102417481D01*
X180988426Y-102417482D01*
X181040661Y-102520000D01*
X181042428Y-102523466D01*
X181042431Y-102523470D01*
X181126529Y-102607568D01*
X181126533Y-102607571D01*
X181126535Y-102607573D01*
X181232518Y-102661574D01*
X181232520Y-102661574D01*
X181232522Y-102661575D01*
X181349997Y-102680181D01*
X181350000Y-102680181D01*
X181350003Y-102680181D01*
X181467477Y-102661575D01*
X181467478Y-102661575D01*
X181467479Y-102661574D01*
X181467482Y-102661574D01*
X181573465Y-102607573D01*
X181657573Y-102523465D01*
X181711574Y-102417482D01*
X181711575Y-102417477D01*
X181730181Y-102300003D01*
X181730181Y-102299996D01*
X181711575Y-102182522D01*
X181711575Y-102182521D01*
X181711574Y-102182519D01*
X181711574Y-102182518D01*
X181657573Y-102076535D01*
X181657571Y-102076533D01*
X181657568Y-102076529D01*
X181593220Y-102012181D01*
X181559735Y-101950858D01*
X181564719Y-101881166D01*
X181606591Y-101825233D01*
X181672055Y-101800816D01*
X181680901Y-101800500D01*
X182569099Y-101800500D01*
X182636138Y-101820185D01*
X182681893Y-101872989D01*
X182691837Y-101942147D01*
X182662812Y-102005703D01*
X182656780Y-102012181D01*
X182592431Y-102076529D01*
X182592428Y-102076533D01*
X182538424Y-102182521D01*
X182538424Y-102182522D01*
X182519819Y-102299996D01*
X182519819Y-102300003D01*
X182538424Y-102417477D01*
X182538424Y-102417478D01*
X182538425Y-102417481D01*
X182538426Y-102417482D01*
X182590661Y-102520000D01*
X182592428Y-102523466D01*
X182592431Y-102523470D01*
X182676529Y-102607568D01*
X182676533Y-102607571D01*
X182676535Y-102607573D01*
X182782518Y-102661574D01*
X182782520Y-102661574D01*
X182782522Y-102661575D01*
X182899997Y-102680181D01*
X182900000Y-102680181D01*
X182900003Y-102680181D01*
X183017477Y-102661575D01*
X183017478Y-102661575D01*
X183017479Y-102661574D01*
X183017482Y-102661574D01*
X183123465Y-102607573D01*
X183207573Y-102523465D01*
X183261574Y-102417482D01*
X183261575Y-102417477D01*
X183280181Y-102300003D01*
X183280181Y-102299997D01*
X183265575Y-102207779D01*
X183274530Y-102138485D01*
X183319526Y-102085033D01*
X183386277Y-102064394D01*
X183453591Y-102083119D01*
X183475729Y-102100700D01*
X183563181Y-102188152D01*
X183596666Y-102249475D01*
X183599500Y-102275833D01*
X183599500Y-102357884D01*
X183585985Y-102414178D01*
X183538425Y-102507518D01*
X183538424Y-102507522D01*
X183519819Y-102624996D01*
X183519819Y-102625003D01*
X183538424Y-102742477D01*
X183538424Y-102742478D01*
X183538425Y-102742481D01*
X183538426Y-102742482D01*
X183585985Y-102835823D01*
X183599500Y-102892115D01*
X183599500Y-103639562D01*
X183608585Y-103673466D01*
X183619979Y-103715990D01*
X183619980Y-103715991D01*
X183651150Y-103769979D01*
X183651151Y-103769981D01*
X183659537Y-103784507D01*
X183659539Y-103784510D01*
X183659540Y-103784511D01*
X184109540Y-104234511D01*
X184165489Y-104290460D01*
X184165491Y-104290461D01*
X184165495Y-104290464D01*
X184204789Y-104313150D01*
X184234011Y-104330021D01*
X184310438Y-104350500D01*
X184476000Y-104350500D01*
X184543039Y-104370185D01*
X184588794Y-104422989D01*
X184600000Y-104474500D01*
X184600000Y-108173178D01*
X184580315Y-108240217D01*
X184527511Y-108285972D01*
X184458353Y-108295916D01*
X184394797Y-108266891D01*
X184394705Y-108266799D01*
X184388058Y-108261039D01*
X184339006Y-108229516D01*
X184279074Y-108191000D01*
X184279070Y-108190998D01*
X184279069Y-108190998D01*
X184154779Y-108154504D01*
X184154777Y-108154504D01*
X184025233Y-108154504D01*
X184025231Y-108154504D01*
X183900940Y-108190998D01*
X183900937Y-108190999D01*
X183900936Y-108191000D01*
X183849682Y-108223938D01*
X183791955Y-108261037D01*
X183707123Y-108358941D01*
X183707122Y-108358942D01*
X183653307Y-108476778D01*
X183634872Y-108605004D01*
X183653307Y-108733229D01*
X183703880Y-108843967D01*
X183707123Y-108851067D01*
X183791956Y-108948971D01*
X183900936Y-109019008D01*
X183900937Y-109019008D01*
X183905101Y-109021684D01*
X183950856Y-109074488D01*
X183960800Y-109143646D01*
X183931775Y-109207202D01*
X183872997Y-109244977D01*
X183838062Y-109250000D01*
X183500000Y-109250000D01*
X183500000Y-111126000D01*
X183480315Y-111193039D01*
X183427511Y-111238794D01*
X183376000Y-111250000D01*
X181329500Y-111250000D01*
X181262461Y-111230315D01*
X181216706Y-111177511D01*
X181205500Y-111126000D01*
X181205500Y-109615771D01*
X181225185Y-109548732D01*
X181241819Y-109528090D01*
X181278090Y-109491819D01*
X181339413Y-109458334D01*
X181365771Y-109455500D01*
X181500991Y-109455500D01*
X181501000Y-109455500D01*
X181534055Y-109451946D01*
X181585566Y-109440740D01*
X181654342Y-109406313D01*
X181707146Y-109360558D01*
X181712621Y-109355580D01*
X181754516Y-109286850D01*
X181774201Y-109219811D01*
X181780500Y-109176000D01*
X181780500Y-104424000D01*
X181776946Y-104390945D01*
X181765740Y-104339434D01*
X181733925Y-104275876D01*
X181731313Y-104270657D01*
X181685563Y-104217860D01*
X181680577Y-104212376D01*
X181611854Y-104170486D01*
X181611848Y-104170483D01*
X181544812Y-104150799D01*
X181544802Y-104150797D01*
X181501003Y-104144500D01*
X181501000Y-104144500D01*
X178699000Y-104144500D01*
X178698991Y-104144500D01*
X178665944Y-104148054D01*
X178614433Y-104159260D01*
X178545657Y-104193686D01*
X178492860Y-104239436D01*
X178487376Y-104244422D01*
X178445486Y-104313145D01*
X178445483Y-104313151D01*
X178425799Y-104380187D01*
X178425797Y-104380197D01*
X178419500Y-104423996D01*
X178419500Y-104443788D01*
X178399815Y-104510827D01*
X178347011Y-104556582D01*
X178277853Y-104566526D01*
X178260565Y-104562765D01*
X178219816Y-104550800D01*
X178219802Y-104550797D01*
X178176003Y-104544500D01*
X178176000Y-104544500D01*
X174824000Y-104544500D01*
X174823991Y-104544500D01*
X174790944Y-104548054D01*
X174739433Y-104559260D01*
X174670657Y-104593686D01*
X174617860Y-104639436D01*
X174612376Y-104644422D01*
X174570486Y-104713145D01*
X174570483Y-104713151D01*
X174550799Y-104780187D01*
X174550797Y-104780197D01*
X174544500Y-104823996D01*
X174544500Y-105200000D01*
X172811889Y-105200000D01*
X172773638Y-105194500D01*
X171201362Y-105194500D01*
X171201361Y-105194500D01*
X171179381Y-105195678D01*
X171146979Y-105199163D01*
X171146916Y-105198578D01*
X171133117Y-105200000D01*
X170999999Y-105200000D01*
X170236319Y-105963681D01*
X170174996Y-105997166D01*
X170148638Y-106000000D01*
X168351362Y-106000000D01*
X168284323Y-105980315D01*
X168263681Y-105963681D01*
X166841819Y-104541819D01*
X166808334Y-104480496D01*
X166805500Y-104454138D01*
X166805500Y-103385258D01*
X167499500Y-103385258D01*
X167499500Y-103614741D01*
X167521851Y-103784507D01*
X167529452Y-103842238D01*
X167529453Y-103842240D01*
X167588842Y-104063887D01*
X167676650Y-104275876D01*
X167676657Y-104275890D01*
X167791392Y-104474617D01*
X167931081Y-104656661D01*
X167931089Y-104656670D01*
X168093330Y-104818911D01*
X168093338Y-104818918D01*
X168093339Y-104818919D01*
X168099961Y-104824000D01*
X168275382Y-104958607D01*
X168275385Y-104958608D01*
X168275388Y-104958611D01*
X168474112Y-105073344D01*
X168474117Y-105073346D01*
X168474123Y-105073349D01*
X168523900Y-105093967D01*
X168686113Y-105161158D01*
X168907762Y-105220548D01*
X169135266Y-105250500D01*
X169135273Y-105250500D01*
X169364727Y-105250500D01*
X169364734Y-105250500D01*
X169592238Y-105220548D01*
X169813887Y-105161158D01*
X170025888Y-105073344D01*
X170224612Y-104958611D01*
X170406661Y-104818919D01*
X170406665Y-104818914D01*
X170406670Y-104818911D01*
X170568911Y-104656670D01*
X170568914Y-104656665D01*
X170568919Y-104656661D01*
X170708611Y-104474612D01*
X170823344Y-104275888D01*
X170911158Y-104063887D01*
X170970548Y-103842238D01*
X171000500Y-103614734D01*
X171000500Y-103385266D01*
X170989274Y-103300000D01*
X174994867Y-103300000D01*
X175013302Y-103428225D01*
X175063630Y-103538426D01*
X175067118Y-103546063D01*
X175151951Y-103643967D01*
X175260931Y-103714004D01*
X175385225Y-103750499D01*
X175385227Y-103750500D01*
X175385228Y-103750500D01*
X175514773Y-103750500D01*
X175514773Y-103750499D01*
X175639069Y-103714004D01*
X175748049Y-103643967D01*
X175832882Y-103546063D01*
X175886697Y-103428226D01*
X175905133Y-103300000D01*
X176794867Y-103300000D01*
X176813302Y-103428225D01*
X176863630Y-103538426D01*
X176867118Y-103546063D01*
X176951951Y-103643967D01*
X177060931Y-103714004D01*
X177185225Y-103750499D01*
X177185227Y-103750500D01*
X177185228Y-103750500D01*
X177314773Y-103750500D01*
X177314773Y-103750499D01*
X177439069Y-103714004D01*
X177548049Y-103643967D01*
X177632882Y-103546063D01*
X177676755Y-103449996D01*
X182519819Y-103449996D01*
X182519819Y-103450003D01*
X182538424Y-103567477D01*
X182538424Y-103567478D01*
X182538425Y-103567481D01*
X182538426Y-103567482D01*
X182590310Y-103669311D01*
X182592428Y-103673466D01*
X182592431Y-103673470D01*
X182676529Y-103757568D01*
X182676533Y-103757571D01*
X182676535Y-103757573D01*
X182782518Y-103811574D01*
X182782520Y-103811574D01*
X182782522Y-103811575D01*
X182899997Y-103830181D01*
X182900000Y-103830181D01*
X182900003Y-103830181D01*
X183017477Y-103811575D01*
X183017478Y-103811575D01*
X183017479Y-103811574D01*
X183017482Y-103811574D01*
X183123465Y-103757573D01*
X183207573Y-103673465D01*
X183261574Y-103567482D01*
X183261575Y-103567477D01*
X183280181Y-103450003D01*
X183280181Y-103449996D01*
X183261575Y-103332522D01*
X183261575Y-103332521D01*
X183261574Y-103332519D01*
X183261574Y-103332518D01*
X183207573Y-103226535D01*
X183207571Y-103226533D01*
X183207568Y-103226529D01*
X183123470Y-103142431D01*
X183123466Y-103142428D01*
X183123465Y-103142427D01*
X183017482Y-103088426D01*
X183017480Y-103088425D01*
X183017477Y-103088424D01*
X182900003Y-103069819D01*
X182899997Y-103069819D01*
X182782522Y-103088424D01*
X182782521Y-103088424D01*
X182676533Y-103142428D01*
X182676529Y-103142431D01*
X182592431Y-103226529D01*
X182592428Y-103226533D01*
X182538424Y-103332521D01*
X182538424Y-103332522D01*
X182519819Y-103449996D01*
X177676755Y-103449996D01*
X177686697Y-103428226D01*
X177705133Y-103300000D01*
X177686697Y-103171774D01*
X177632882Y-103053937D01*
X177548049Y-102956033D01*
X177439069Y-102885996D01*
X177439065Y-102885994D01*
X177439064Y-102885994D01*
X177314774Y-102849500D01*
X177314772Y-102849500D01*
X177185228Y-102849500D01*
X177185226Y-102849500D01*
X177060935Y-102885994D01*
X177060932Y-102885995D01*
X177060931Y-102885996D01*
X177018215Y-102913448D01*
X176951950Y-102956033D01*
X176867118Y-103053937D01*
X176867117Y-103053938D01*
X176813302Y-103171774D01*
X176794867Y-103300000D01*
X175905133Y-103300000D01*
X175886697Y-103171774D01*
X175832882Y-103053937D01*
X175748049Y-102956033D01*
X175639069Y-102885996D01*
X175639065Y-102885994D01*
X175639064Y-102885994D01*
X175514774Y-102849500D01*
X175514772Y-102849500D01*
X175385228Y-102849500D01*
X175385226Y-102849500D01*
X175260935Y-102885994D01*
X175260932Y-102885995D01*
X175260931Y-102885996D01*
X175218215Y-102913448D01*
X175151950Y-102956033D01*
X175067118Y-103053937D01*
X175067117Y-103053938D01*
X175013302Y-103171774D01*
X174994867Y-103300000D01*
X170989274Y-103300000D01*
X170970548Y-103157762D01*
X170911158Y-102936113D01*
X170842606Y-102770615D01*
X170823349Y-102724123D01*
X170823346Y-102724117D01*
X170823344Y-102724112D01*
X170708611Y-102525388D01*
X170708608Y-102525385D01*
X170708607Y-102525382D01*
X170579768Y-102357478D01*
X170568919Y-102343339D01*
X170568918Y-102343338D01*
X170568911Y-102343330D01*
X170406670Y-102181089D01*
X170406661Y-102181081D01*
X170224617Y-102041392D01*
X170025890Y-101926657D01*
X170025876Y-101926650D01*
X169813887Y-101838842D01*
X169744257Y-101820185D01*
X169592238Y-101779452D01*
X169554215Y-101774446D01*
X169364741Y-101749500D01*
X169364734Y-101749500D01*
X169135266Y-101749500D01*
X169135258Y-101749500D01*
X168918715Y-101778009D01*
X168907762Y-101779452D01*
X168832941Y-101799500D01*
X168686112Y-101838842D01*
X168474123Y-101926650D01*
X168474109Y-101926657D01*
X168275382Y-102041392D01*
X168093338Y-102181081D01*
X167931081Y-102343338D01*
X167791392Y-102525382D01*
X167676657Y-102724109D01*
X167676650Y-102724123D01*
X167588842Y-102936112D01*
X167529453Y-103157759D01*
X167529451Y-103157770D01*
X167499500Y-103385258D01*
X166805500Y-103385258D01*
X166805500Y-102598009D01*
X166825185Y-102530970D01*
X166844092Y-102508112D01*
X167800000Y-101600000D01*
X167800000Y-99787473D01*
X167819685Y-99720434D01*
X167872489Y-99674679D01*
X167941647Y-99664735D01*
X167980290Y-99676986D01*
X168082518Y-99729074D01*
X168082520Y-99729074D01*
X168082522Y-99729075D01*
X168199997Y-99747681D01*
X168200000Y-99747681D01*
X168200003Y-99747681D01*
X168317477Y-99729075D01*
X168317478Y-99729075D01*
X168317479Y-99729074D01*
X168317482Y-99729074D01*
X168423465Y-99675073D01*
X168507573Y-99590965D01*
X168557384Y-99493204D01*
X168605357Y-99442409D01*
X168667868Y-99425500D01*
X169699167Y-99425500D01*
X169766206Y-99445185D01*
G37*
%TD.AperFunction*%
%TA.AperFunction,Conductor*%
G36*
X192693039Y-88720185D02*
G01*
X192738794Y-88772989D01*
X192750000Y-88824500D01*
X192750000Y-92126000D01*
X192730315Y-92193039D01*
X192677511Y-92238794D01*
X192626000Y-92250000D01*
X184700000Y-92250000D01*
X184700000Y-97550000D01*
X192476000Y-97550000D01*
X192543039Y-97569685D01*
X192588794Y-97622489D01*
X192600000Y-97674000D01*
X192600000Y-101376000D01*
X192580315Y-101443039D01*
X192527511Y-101488794D01*
X192476000Y-101500000D01*
X190950000Y-101500000D01*
X190950000Y-102750000D01*
X191800000Y-103600000D01*
X191068980Y-103944009D01*
X190934511Y-103809540D01*
X190934510Y-103809539D01*
X190934507Y-103809537D01*
X190926788Y-103805081D01*
X190926786Y-103805080D01*
X190865991Y-103769980D01*
X190865990Y-103769979D01*
X190840513Y-103763152D01*
X190789562Y-103749500D01*
X190789560Y-103749500D01*
X185829500Y-103749500D01*
X185762461Y-103729815D01*
X185716706Y-103677011D01*
X185705500Y-103625500D01*
X185705500Y-102574008D01*
X185705499Y-102573991D01*
X185705024Y-102569570D01*
X185701946Y-102540945D01*
X185690740Y-102489434D01*
X185673545Y-102455084D01*
X185656313Y-102420657D01*
X185610563Y-102367860D01*
X185605577Y-102362376D01*
X185536854Y-102320486D01*
X185536848Y-102320483D01*
X185469812Y-102300799D01*
X185469802Y-102300797D01*
X185426003Y-102294500D01*
X185426000Y-102294500D01*
X184624000Y-102294500D01*
X184623991Y-102294500D01*
X184590944Y-102298054D01*
X184539433Y-102309260D01*
X184470657Y-102343686D01*
X184417863Y-102389433D01*
X184407916Y-102398478D01*
X184345070Y-102429011D01*
X184275694Y-102420720D01*
X184221814Y-102376238D01*
X184200535Y-102309688D01*
X184200500Y-102306729D01*
X184200500Y-102060439D01*
X184200500Y-102060438D01*
X184180021Y-101984011D01*
X184153703Y-101938426D01*
X184140464Y-101915495D01*
X184140458Y-101915487D01*
X183484512Y-101259541D01*
X183484507Y-101259537D01*
X183467124Y-101249502D01*
X183467120Y-101249498D01*
X183467120Y-101249499D01*
X183441555Y-101234739D01*
X183415990Y-101219979D01*
X183390513Y-101213152D01*
X183339562Y-101199500D01*
X183339560Y-101199500D01*
X178924500Y-101199500D01*
X178857461Y-101179815D01*
X178811706Y-101127011D01*
X178800500Y-101075500D01*
X178800500Y-98649996D01*
X179924819Y-98649996D01*
X179924819Y-98650003D01*
X179943424Y-98767477D01*
X179943424Y-98767478D01*
X179943425Y-98767481D01*
X179943426Y-98767482D01*
X179995064Y-98868828D01*
X179997428Y-98873466D01*
X179997431Y-98873470D01*
X180081529Y-98957568D01*
X180081533Y-98957571D01*
X180081535Y-98957573D01*
X180187518Y-99011574D01*
X180208531Y-99014902D01*
X180271664Y-99044829D01*
X180308597Y-99104140D01*
X180307601Y-99174002D01*
X180268993Y-99232236D01*
X180225706Y-99252033D01*
X180226803Y-99255409D01*
X180217521Y-99258424D01*
X180111533Y-99312428D01*
X180111529Y-99312431D01*
X180027431Y-99396529D01*
X180027428Y-99396533D01*
X179973424Y-99502521D01*
X179973424Y-99502522D01*
X179954819Y-99619996D01*
X179954819Y-99620003D01*
X179973424Y-99737477D01*
X179973424Y-99737478D01*
X179973425Y-99737481D01*
X179973426Y-99737482D01*
X180011320Y-99811854D01*
X180027428Y-99843466D01*
X180027431Y-99843470D01*
X180111529Y-99927568D01*
X180111533Y-99927571D01*
X180111535Y-99927573D01*
X180217518Y-99981574D01*
X180217520Y-99981574D01*
X180217522Y-99981575D01*
X180334997Y-100000181D01*
X180335000Y-100000181D01*
X180335003Y-100000181D01*
X180452477Y-99981575D01*
X180452478Y-99981575D01*
X180452479Y-99981574D01*
X180452482Y-99981574D01*
X180558465Y-99927573D01*
X180600780Y-99885258D01*
X186749500Y-99885258D01*
X186749500Y-100114741D01*
X186758116Y-100180181D01*
X186779452Y-100342238D01*
X186779453Y-100342240D01*
X186838842Y-100563887D01*
X186926650Y-100775876D01*
X186926657Y-100775890D01*
X187041392Y-100974617D01*
X187181081Y-101156661D01*
X187181089Y-101156670D01*
X187343330Y-101318911D01*
X187343338Y-101318918D01*
X187525382Y-101458607D01*
X187525385Y-101458608D01*
X187525388Y-101458611D01*
X187724112Y-101573344D01*
X187724117Y-101573346D01*
X187724123Y-101573349D01*
X187788465Y-101600000D01*
X187936113Y-101661158D01*
X188157762Y-101720548D01*
X188385266Y-101750500D01*
X188385273Y-101750500D01*
X188614727Y-101750500D01*
X188614734Y-101750500D01*
X188842238Y-101720548D01*
X189063887Y-101661158D01*
X189275888Y-101573344D01*
X189474612Y-101458611D01*
X189656661Y-101318919D01*
X189656665Y-101318914D01*
X189656670Y-101318911D01*
X189818911Y-101156670D01*
X189818914Y-101156665D01*
X189818919Y-101156661D01*
X189958611Y-100974612D01*
X190073344Y-100775888D01*
X190161158Y-100563887D01*
X190220548Y-100342238D01*
X190250500Y-100114734D01*
X190250500Y-99885266D01*
X190220548Y-99657762D01*
X190161158Y-99436113D01*
X190088862Y-99261575D01*
X190073349Y-99224123D01*
X190073346Y-99224117D01*
X190073344Y-99224112D01*
X189958611Y-99025388D01*
X189958608Y-99025385D01*
X189958607Y-99025382D01*
X189838932Y-98869420D01*
X189818919Y-98843339D01*
X189818918Y-98843338D01*
X189818911Y-98843330D01*
X189656670Y-98681089D01*
X189656661Y-98681081D01*
X189474617Y-98541392D01*
X189467200Y-98537110D01*
X189318067Y-98451008D01*
X189275890Y-98426657D01*
X189275876Y-98426650D01*
X189063887Y-98338842D01*
X188842238Y-98279452D01*
X188804215Y-98274446D01*
X188614741Y-98249500D01*
X188614734Y-98249500D01*
X188385266Y-98249500D01*
X188385258Y-98249500D01*
X188168715Y-98278009D01*
X188157762Y-98279452D01*
X188064076Y-98304554D01*
X187936112Y-98338842D01*
X187724123Y-98426650D01*
X187724109Y-98426657D01*
X187525382Y-98541392D01*
X187343338Y-98681081D01*
X187181081Y-98843338D01*
X187041392Y-99025382D01*
X186926657Y-99224109D01*
X186926650Y-99224123D01*
X186838842Y-99436112D01*
X186779453Y-99657759D01*
X186779451Y-99657770D01*
X186749500Y-99885258D01*
X180600780Y-99885258D01*
X180642573Y-99843465D01*
X180696574Y-99737482D01*
X180705279Y-99682521D01*
X180715181Y-99620003D01*
X180715181Y-99619996D01*
X180696575Y-99502522D01*
X180696575Y-99502521D01*
X180696574Y-99502519D01*
X180696574Y-99502518D01*
X180642573Y-99396535D01*
X180642571Y-99396533D01*
X180642568Y-99396529D01*
X180558470Y-99312431D01*
X180558466Y-99312428D01*
X180558465Y-99312427D01*
X180452482Y-99258426D01*
X180452481Y-99258425D01*
X180452478Y-99258424D01*
X180431467Y-99255097D01*
X180368332Y-99225168D01*
X180331401Y-99165856D01*
X180332399Y-99095994D01*
X180371009Y-99037761D01*
X180414306Y-99018004D01*
X180413197Y-99014591D01*
X180422478Y-99011575D01*
X180422479Y-99011574D01*
X180422482Y-99011574D01*
X180528465Y-98957573D01*
X180612573Y-98873465D01*
X180666574Y-98767482D01*
X180672325Y-98731172D01*
X180685181Y-98650003D01*
X180685181Y-98649996D01*
X180666575Y-98532522D01*
X180666575Y-98532521D01*
X180666574Y-98532519D01*
X180666574Y-98532518D01*
X180612573Y-98426535D01*
X180612571Y-98426533D01*
X180612568Y-98426529D01*
X180528470Y-98342431D01*
X180528466Y-98342428D01*
X180528465Y-98342427D01*
X180422482Y-98288426D01*
X180422480Y-98288425D01*
X180422477Y-98288424D01*
X180305003Y-98269819D01*
X180304997Y-98269819D01*
X180187522Y-98288424D01*
X180187521Y-98288424D01*
X180081533Y-98342428D01*
X180081529Y-98342431D01*
X179997431Y-98426529D01*
X179997428Y-98426533D01*
X179943424Y-98532521D01*
X179943424Y-98532522D01*
X179924819Y-98649996D01*
X178800500Y-98649996D01*
X178800500Y-90760439D01*
X178800500Y-90760438D01*
X178780021Y-90684011D01*
X178756015Y-90642431D01*
X178740464Y-90615495D01*
X178740458Y-90615487D01*
X177037152Y-88912181D01*
X177003667Y-88850858D01*
X177008651Y-88781166D01*
X177050523Y-88725233D01*
X177115987Y-88700816D01*
X177124833Y-88700500D01*
X192626000Y-88700500D01*
X192693039Y-88720185D01*
G37*
%TD.AperFunction*%
%TA.AperFunction,Conductor*%
G36*
X174006715Y-88720185D02*
G01*
X174052470Y-88772989D01*
X174062414Y-88842147D01*
X174052470Y-88876012D01*
X174013302Y-88961774D01*
X173994867Y-89090000D01*
X174013302Y-89218225D01*
X174037758Y-89271774D01*
X174067118Y-89336063D01*
X174151951Y-89433967D01*
X174247985Y-89495684D01*
X174293740Y-89548488D01*
X174303684Y-89617647D01*
X174274659Y-89681203D01*
X174247985Y-89704316D01*
X174151950Y-89766033D01*
X174067118Y-89863937D01*
X174067117Y-89863938D01*
X174013302Y-89981774D01*
X173994867Y-90110000D01*
X174013302Y-90238225D01*
X174054065Y-90327482D01*
X174067118Y-90356063D01*
X174151951Y-90453967D01*
X174260931Y-90524004D01*
X174385225Y-90560499D01*
X174385227Y-90560500D01*
X174385228Y-90560500D01*
X174514773Y-90560500D01*
X174514773Y-90560499D01*
X174639069Y-90524004D01*
X174748049Y-90453967D01*
X174832882Y-90356063D01*
X174886697Y-90238226D01*
X174886698Y-90238216D01*
X174886904Y-90237519D01*
X174887304Y-90236896D01*
X174890381Y-90230159D01*
X174891349Y-90230601D01*
X174924677Y-90178740D01*
X174988232Y-90149714D01*
X175057391Y-90159655D01*
X175099596Y-90191249D01*
X175101951Y-90193967D01*
X175210931Y-90264004D01*
X175335225Y-90300499D01*
X175335227Y-90300500D01*
X175335228Y-90300500D01*
X175464773Y-90300500D01*
X175464773Y-90300499D01*
X175589069Y-90264004D01*
X175698049Y-90193967D01*
X175700404Y-90191250D01*
X175740592Y-90144869D01*
X175799369Y-90107093D01*
X175869239Y-90107092D01*
X175892234Y-90118399D01*
X175892840Y-90117212D01*
X175901533Y-90121641D01*
X175901535Y-90121643D01*
X176007518Y-90175644D01*
X176007520Y-90175644D01*
X176007522Y-90175645D01*
X176124997Y-90194251D01*
X176125000Y-90194251D01*
X176125003Y-90194251D01*
X176242477Y-90175645D01*
X176242478Y-90175645D01*
X176242479Y-90175644D01*
X176242482Y-90175644D01*
X176348465Y-90121643D01*
X176348466Y-90121641D01*
X176357160Y-90117212D01*
X176358268Y-90119386D01*
X176410903Y-90100600D01*
X176478959Y-90116418D01*
X176493292Y-90127307D01*
X176493636Y-90126834D01*
X176501533Y-90132571D01*
X176501535Y-90132573D01*
X176607518Y-90186574D01*
X176607520Y-90186574D01*
X176607522Y-90186575D01*
X176724997Y-90205181D01*
X176725000Y-90205181D01*
X176725003Y-90205181D01*
X176842477Y-90186575D01*
X176842478Y-90186575D01*
X176842479Y-90186574D01*
X176842482Y-90186574D01*
X176948465Y-90132573D01*
X177032573Y-90048465D01*
X177053288Y-90007808D01*
X177101261Y-89957014D01*
X177169082Y-89940219D01*
X177235217Y-89962756D01*
X177251453Y-89976424D01*
X178163181Y-90888152D01*
X178196666Y-90949475D01*
X178199500Y-90975833D01*
X178199500Y-98479772D01*
X178179815Y-98546811D01*
X178127011Y-98592566D01*
X178057853Y-98602510D01*
X178019207Y-98590257D01*
X177917482Y-98538426D01*
X177917480Y-98538425D01*
X177917477Y-98538424D01*
X177800003Y-98519819D01*
X177799997Y-98519819D01*
X177682522Y-98538424D01*
X177682521Y-98538424D01*
X177576530Y-98592429D01*
X177572880Y-98595082D01*
X177507072Y-98618558D01*
X177439019Y-98602729D01*
X177427120Y-98595082D01*
X177423469Y-98592429D01*
X177386283Y-98573482D01*
X177317482Y-98538426D01*
X177317480Y-98538425D01*
X177317477Y-98538424D01*
X177200003Y-98519819D01*
X177199997Y-98519819D01*
X177082522Y-98538424D01*
X177082521Y-98538424D01*
X176976533Y-98592428D01*
X176976529Y-98592431D01*
X176892431Y-98676529D01*
X176892428Y-98676533D01*
X176838424Y-98782521D01*
X176838424Y-98782522D01*
X176819819Y-98899996D01*
X176819819Y-98900003D01*
X176838424Y-99017477D01*
X176838424Y-99017478D01*
X176838425Y-99017481D01*
X176838426Y-99017482D01*
X176889879Y-99118465D01*
X176892428Y-99123466D01*
X176892431Y-99123470D01*
X176976529Y-99207568D01*
X176976533Y-99207571D01*
X176976535Y-99207573D01*
X177082518Y-99261574D01*
X177082520Y-99261574D01*
X177082522Y-99261575D01*
X177199997Y-99280181D01*
X177200000Y-99280181D01*
X177200003Y-99280181D01*
X177317477Y-99261575D01*
X177317478Y-99261575D01*
X177317479Y-99261574D01*
X177317482Y-99261574D01*
X177423465Y-99207573D01*
X177423471Y-99207566D01*
X177427114Y-99204921D01*
X177492921Y-99181441D01*
X177560974Y-99197266D01*
X177572886Y-99204921D01*
X177576531Y-99207569D01*
X177576535Y-99207573D01*
X177682518Y-99261574D01*
X177682520Y-99261574D01*
X177682522Y-99261575D01*
X177799997Y-99280181D01*
X177800000Y-99280181D01*
X177800003Y-99280181D01*
X177917477Y-99261575D01*
X177917477Y-99261574D01*
X177917482Y-99261574D01*
X178019209Y-99209741D01*
X178087874Y-99196846D01*
X178152614Y-99223122D01*
X178192872Y-99280228D01*
X178199500Y-99320227D01*
X178199500Y-101075500D01*
X178179815Y-101142539D01*
X178127011Y-101188294D01*
X178075500Y-101199500D01*
X171200833Y-101199500D01*
X171133794Y-101179815D01*
X171113152Y-101163181D01*
X170536819Y-100586848D01*
X170503334Y-100525525D01*
X170500500Y-100499167D01*
X170500500Y-99992548D01*
X170520185Y-99925509D01*
X170572989Y-99879754D01*
X170642147Y-99869810D01*
X170705703Y-99898835D01*
X170716237Y-99909121D01*
X170719420Y-99912621D01*
X170719422Y-99912622D01*
X170719424Y-99912624D01*
X170788145Y-99954513D01*
X170788150Y-99954516D01*
X170855189Y-99974201D01*
X170899000Y-99980500D01*
X170899003Y-99980500D01*
X171100991Y-99980500D01*
X171101000Y-99980500D01*
X171134055Y-99976946D01*
X171185566Y-99965740D01*
X171254342Y-99931313D01*
X171307146Y-99885558D01*
X171312621Y-99880580D01*
X171313125Y-99879754D01*
X171335245Y-99843465D01*
X171354516Y-99811850D01*
X171357997Y-99799996D01*
X174599819Y-99799996D01*
X174599819Y-99800003D01*
X174618424Y-99917477D01*
X174618424Y-99917478D01*
X174618425Y-99917481D01*
X174618426Y-99917482D01*
X174660563Y-100000181D01*
X174672428Y-100023466D01*
X174672431Y-100023470D01*
X174756529Y-100107568D01*
X174756533Y-100107571D01*
X174756535Y-100107573D01*
X174862518Y-100161574D01*
X174862520Y-100161574D01*
X174862522Y-100161575D01*
X174979997Y-100180181D01*
X174980000Y-100180181D01*
X174980003Y-100180181D01*
X175097477Y-100161575D01*
X175097478Y-100161575D01*
X175097479Y-100161574D01*
X175097482Y-100161574D01*
X175203465Y-100107573D01*
X175287573Y-100023465D01*
X175341574Y-99917482D01*
X175341575Y-99917477D01*
X175360181Y-99800003D01*
X175360181Y-99799996D01*
X175839819Y-99799996D01*
X175839819Y-99800003D01*
X175858424Y-99917477D01*
X175858424Y-99917478D01*
X175858425Y-99917481D01*
X175858426Y-99917482D01*
X175900563Y-100000181D01*
X175912428Y-100023466D01*
X175912431Y-100023470D01*
X175996529Y-100107568D01*
X175996533Y-100107571D01*
X175996535Y-100107573D01*
X176102518Y-100161574D01*
X176102520Y-100161574D01*
X176102522Y-100161575D01*
X176219997Y-100180181D01*
X176220000Y-100180181D01*
X176220003Y-100180181D01*
X176337477Y-100161575D01*
X176337478Y-100161575D01*
X176337479Y-100161574D01*
X176337482Y-100161574D01*
X176443465Y-100107573D01*
X176527573Y-100023465D01*
X176581574Y-99917482D01*
X176581575Y-99917477D01*
X176600181Y-99800003D01*
X176600181Y-99799996D01*
X176581575Y-99682522D01*
X176581575Y-99682521D01*
X176581574Y-99682519D01*
X176581574Y-99682518D01*
X176527573Y-99576535D01*
X176527571Y-99576533D01*
X176527568Y-99576529D01*
X176443470Y-99492431D01*
X176443466Y-99492428D01*
X176443465Y-99492427D01*
X176337482Y-99438426D01*
X176337480Y-99438425D01*
X176337477Y-99438424D01*
X176220003Y-99419819D01*
X176219997Y-99419819D01*
X176102522Y-99438424D01*
X176102521Y-99438424D01*
X175996533Y-99492428D01*
X175996529Y-99492431D01*
X175912431Y-99576529D01*
X175912428Y-99576533D01*
X175858424Y-99682521D01*
X175858424Y-99682522D01*
X175839819Y-99799996D01*
X175360181Y-99799996D01*
X175341575Y-99682522D01*
X175341575Y-99682521D01*
X175341574Y-99682519D01*
X175341574Y-99682518D01*
X175287573Y-99576535D01*
X175287571Y-99576533D01*
X175287568Y-99576529D01*
X175203470Y-99492431D01*
X175203466Y-99492428D01*
X175203465Y-99492427D01*
X175097482Y-99438426D01*
X175097480Y-99438425D01*
X175097477Y-99438424D01*
X174980003Y-99419819D01*
X174979997Y-99419819D01*
X174862522Y-99438424D01*
X174862521Y-99438424D01*
X174756533Y-99492428D01*
X174756529Y-99492431D01*
X174672431Y-99576529D01*
X174672428Y-99576533D01*
X174618424Y-99682521D01*
X174618424Y-99682522D01*
X174599819Y-99799996D01*
X171357997Y-99799996D01*
X171374201Y-99744811D01*
X171380500Y-99701000D01*
X171380500Y-99049000D01*
X171376946Y-99015945D01*
X171365740Y-98964434D01*
X171333488Y-98900003D01*
X171333484Y-98899996D01*
X172794819Y-98899996D01*
X172794819Y-98900003D01*
X172813424Y-99017477D01*
X172813424Y-99017478D01*
X172813425Y-99017481D01*
X172813426Y-99017482D01*
X172864879Y-99118465D01*
X172867428Y-99123466D01*
X172867431Y-99123470D01*
X172951529Y-99207568D01*
X172951533Y-99207571D01*
X172951535Y-99207573D01*
X173057518Y-99261574D01*
X173057520Y-99261574D01*
X173057522Y-99261575D01*
X173174997Y-99280181D01*
X173175000Y-99280181D01*
X173175003Y-99280181D01*
X173292477Y-99261575D01*
X173292478Y-99261575D01*
X173292479Y-99261574D01*
X173292482Y-99261574D01*
X173398465Y-99207573D01*
X173482573Y-99123465D01*
X173536574Y-99017482D01*
X173536575Y-99017477D01*
X173555181Y-98900003D01*
X173555181Y-98899996D01*
X173554389Y-98894996D01*
X175299819Y-98894996D01*
X175299819Y-98895003D01*
X175318424Y-99012477D01*
X175318424Y-99012478D01*
X175318425Y-99012481D01*
X175318426Y-99012482D01*
X175360977Y-99095994D01*
X175372428Y-99118466D01*
X175372431Y-99118470D01*
X175456529Y-99202568D01*
X175456533Y-99202571D01*
X175456535Y-99202573D01*
X175562518Y-99256574D01*
X175562520Y-99256574D01*
X175562522Y-99256575D01*
X175679997Y-99275181D01*
X175680000Y-99275181D01*
X175680003Y-99275181D01*
X175797477Y-99256575D01*
X175797478Y-99256575D01*
X175797479Y-99256574D01*
X175797482Y-99256574D01*
X175903465Y-99202573D01*
X175987573Y-99118465D01*
X176041574Y-99012482D01*
X176041718Y-99011573D01*
X176060181Y-98895003D01*
X176060181Y-98894996D01*
X176041575Y-98777522D01*
X176041575Y-98777521D01*
X176041574Y-98777519D01*
X176041574Y-98777518D01*
X175987573Y-98671535D01*
X175987571Y-98671533D01*
X175987568Y-98671529D01*
X175903470Y-98587431D01*
X175903466Y-98587428D01*
X175903465Y-98587427D01*
X175797482Y-98533426D01*
X175797480Y-98533425D01*
X175797477Y-98533424D01*
X175680003Y-98514819D01*
X175679997Y-98514819D01*
X175562522Y-98533424D01*
X175562521Y-98533424D01*
X175456533Y-98587428D01*
X175456529Y-98587431D01*
X175372431Y-98671529D01*
X175372428Y-98671533D01*
X175318424Y-98777521D01*
X175318424Y-98777522D01*
X175299819Y-98894996D01*
X173554389Y-98894996D01*
X173536575Y-98782522D01*
X173536575Y-98782521D01*
X173536574Y-98782519D01*
X173536574Y-98782518D01*
X173482573Y-98676535D01*
X173482571Y-98676533D01*
X173482568Y-98676529D01*
X173398470Y-98592431D01*
X173398466Y-98592428D01*
X173398465Y-98592427D01*
X173292482Y-98538426D01*
X173292480Y-98538425D01*
X173292477Y-98538424D01*
X173175003Y-98519819D01*
X173174997Y-98519819D01*
X173057522Y-98538424D01*
X173057521Y-98538424D01*
X172951533Y-98592428D01*
X172951529Y-98592431D01*
X172867431Y-98676529D01*
X172867428Y-98676533D01*
X172813424Y-98782521D01*
X172813424Y-98782522D01*
X172794819Y-98899996D01*
X171333484Y-98899996D01*
X171331313Y-98895657D01*
X171285563Y-98842860D01*
X171280577Y-98837376D01*
X171211854Y-98795486D01*
X171211848Y-98795483D01*
X171144812Y-98775799D01*
X171144802Y-98775797D01*
X171101003Y-98769500D01*
X171101000Y-98769500D01*
X170899000Y-98769500D01*
X170898991Y-98769500D01*
X170865944Y-98773054D01*
X170814433Y-98784260D01*
X170745657Y-98818686D01*
X170692860Y-98864436D01*
X170687376Y-98869422D01*
X170645486Y-98938145D01*
X170645483Y-98938151D01*
X170625799Y-99005187D01*
X170625797Y-99005197D01*
X170619500Y-99048996D01*
X170619500Y-99145167D01*
X170599815Y-99212206D01*
X170547011Y-99257961D01*
X170477853Y-99267905D01*
X170414297Y-99238880D01*
X170407819Y-99232848D01*
X170060625Y-98885654D01*
X170027140Y-98824331D01*
X170032124Y-98754639D01*
X170073996Y-98698706D01*
X170092801Y-98687089D01*
X170104342Y-98681313D01*
X170157146Y-98635558D01*
X170162621Y-98630580D01*
X170204516Y-98561850D01*
X170224201Y-98494811D01*
X170230500Y-98451000D01*
X170230500Y-98249000D01*
X170226946Y-98215945D01*
X170215740Y-98164434D01*
X170198545Y-98130084D01*
X170181313Y-98095657D01*
X170135563Y-98042860D01*
X170130577Y-98037376D01*
X170061854Y-97995486D01*
X170061848Y-97995483D01*
X169994812Y-97975799D01*
X169994802Y-97975797D01*
X169951003Y-97969500D01*
X169951000Y-97969500D01*
X169249000Y-97969500D01*
X169248991Y-97969500D01*
X169215944Y-97973054D01*
X169164433Y-97984260D01*
X169095657Y-98018686D01*
X169042860Y-98064436D01*
X169037376Y-98069422D01*
X168995486Y-98138145D01*
X168995483Y-98138151D01*
X168975799Y-98205187D01*
X168975797Y-98205197D01*
X168969500Y-98248996D01*
X168969500Y-98451008D01*
X168973054Y-98484055D01*
X168984260Y-98535566D01*
X169018686Y-98604342D01*
X169031645Y-98619297D01*
X169060670Y-98682853D01*
X169050726Y-98752012D01*
X169004971Y-98804815D01*
X168937932Y-98824500D01*
X168402938Y-98824500D01*
X168326510Y-98844978D01*
X168257989Y-98884540D01*
X168257985Y-98884543D01*
X168175268Y-98967259D01*
X168113945Y-99000744D01*
X168106992Y-99002049D01*
X168100779Y-99003033D01*
X168082516Y-99005926D01*
X167980294Y-99058011D01*
X167911625Y-99070907D01*
X167846885Y-99044630D01*
X167806628Y-98987524D01*
X167800000Y-98947526D01*
X167800000Y-97499996D01*
X168194819Y-97499996D01*
X168194819Y-97500003D01*
X168213424Y-97617477D01*
X168213424Y-97617478D01*
X168213425Y-97617481D01*
X168213426Y-97617482D01*
X168242223Y-97674000D01*
X168267428Y-97723466D01*
X168267431Y-97723470D01*
X168351529Y-97807568D01*
X168351533Y-97807571D01*
X168351535Y-97807573D01*
X168457518Y-97861574D01*
X168457520Y-97861574D01*
X168457522Y-97861575D01*
X168574997Y-97880181D01*
X168575000Y-97880181D01*
X168575003Y-97880181D01*
X168692477Y-97861575D01*
X168692478Y-97861575D01*
X168692479Y-97861574D01*
X168692482Y-97861574D01*
X168798465Y-97807573D01*
X168882573Y-97723465D01*
X168936574Y-97617482D01*
X168955181Y-97500000D01*
X168955181Y-97499996D01*
X168936575Y-97382522D01*
X168936575Y-97382521D01*
X168936574Y-97382519D01*
X168936574Y-97382518D01*
X168882573Y-97276535D01*
X168882571Y-97276533D01*
X168882568Y-97276529D01*
X168798470Y-97192431D01*
X168798466Y-97192428D01*
X168798465Y-97192427D01*
X168692482Y-97138426D01*
X168692480Y-97138425D01*
X168692477Y-97138424D01*
X168575003Y-97119819D01*
X168574997Y-97119819D01*
X168457522Y-97138424D01*
X168457521Y-97138424D01*
X168351533Y-97192428D01*
X168351529Y-97192431D01*
X168267431Y-97276529D01*
X168267428Y-97276533D01*
X168213424Y-97382521D01*
X168213424Y-97382522D01*
X168194819Y-97499996D01*
X167800000Y-97499996D01*
X167800000Y-95673586D01*
X167819685Y-95606547D01*
X167872489Y-95560792D01*
X167941645Y-95550848D01*
X167974000Y-95555500D01*
X167974003Y-95555500D01*
X168675991Y-95555500D01*
X168676000Y-95555500D01*
X168709055Y-95551946D01*
X168760566Y-95540740D01*
X168829342Y-95506313D01*
X168882146Y-95460558D01*
X168887621Y-95455580D01*
X168906264Y-95424996D01*
X169669819Y-95424996D01*
X169669819Y-95425003D01*
X169688424Y-95542477D01*
X169688424Y-95542478D01*
X169688425Y-95542481D01*
X169688426Y-95542482D01*
X169697755Y-95560792D01*
X169742428Y-95648466D01*
X169742431Y-95648470D01*
X169826529Y-95732568D01*
X169826533Y-95732571D01*
X169826535Y-95732573D01*
X169932518Y-95786574D01*
X169932520Y-95786574D01*
X169932522Y-95786575D01*
X170049997Y-95805181D01*
X170050000Y-95805181D01*
X170050003Y-95805181D01*
X170167477Y-95786575D01*
X170167478Y-95786575D01*
X170167479Y-95786574D01*
X170167482Y-95786574D01*
X170273465Y-95732573D01*
X170357573Y-95648465D01*
X170411574Y-95542482D01*
X170419626Y-95491645D01*
X170430181Y-95425003D01*
X170430181Y-95424996D01*
X170411575Y-95307522D01*
X170411575Y-95307521D01*
X170411574Y-95307519D01*
X170411574Y-95307518D01*
X170357573Y-95201535D01*
X170357571Y-95201533D01*
X170357568Y-95201529D01*
X170273470Y-95117431D01*
X170273466Y-95117428D01*
X170273465Y-95117427D01*
X170167482Y-95063426D01*
X170167480Y-95063425D01*
X170167477Y-95063424D01*
X170050003Y-95044819D01*
X170049997Y-95044819D01*
X169932522Y-95063424D01*
X169932521Y-95063424D01*
X169826533Y-95117428D01*
X169826529Y-95117431D01*
X169742431Y-95201529D01*
X169742428Y-95201533D01*
X169688424Y-95307521D01*
X169688424Y-95307522D01*
X169669819Y-95424996D01*
X168906264Y-95424996D01*
X168929516Y-95386850D01*
X168949201Y-95319811D01*
X168955500Y-95276000D01*
X168955500Y-94574000D01*
X168951946Y-94540945D01*
X168940740Y-94489434D01*
X168923545Y-94455084D01*
X168906313Y-94420657D01*
X168860563Y-94367860D01*
X168855577Y-94362376D01*
X168786854Y-94320486D01*
X168786848Y-94320483D01*
X168719812Y-94300799D01*
X168719802Y-94300797D01*
X168676003Y-94294500D01*
X168676000Y-94294500D01*
X167974000Y-94294500D01*
X167973991Y-94294500D01*
X167940944Y-94298054D01*
X167889433Y-94309260D01*
X167820657Y-94343686D01*
X167767860Y-94389436D01*
X167762376Y-94394422D01*
X167720486Y-94463145D01*
X167720482Y-94463154D01*
X167718822Y-94468808D01*
X167681043Y-94527584D01*
X167617485Y-94556604D01*
X167548328Y-94546656D01*
X167512166Y-94521546D01*
X166500617Y-93509996D01*
X170219819Y-93509996D01*
X170219819Y-93510003D01*
X170238424Y-93627477D01*
X170238424Y-93627478D01*
X170292428Y-93733466D01*
X170292431Y-93733470D01*
X170363780Y-93804819D01*
X170397265Y-93866142D01*
X170392281Y-93935834D01*
X170363780Y-93980181D01*
X170292431Y-94051529D01*
X170292428Y-94051533D01*
X170238424Y-94157521D01*
X170238424Y-94157522D01*
X170219819Y-94274996D01*
X170219819Y-94275003D01*
X170238424Y-94392477D01*
X170238424Y-94392478D01*
X170238425Y-94392481D01*
X170238426Y-94392482D01*
X170287825Y-94489434D01*
X170292428Y-94498466D01*
X170292431Y-94498470D01*
X170376529Y-94582568D01*
X170376533Y-94582571D01*
X170376535Y-94582573D01*
X170482518Y-94636574D01*
X170482520Y-94636574D01*
X170482522Y-94636575D01*
X170599997Y-94655181D01*
X170600000Y-94655181D01*
X170600003Y-94655181D01*
X170717477Y-94636575D01*
X170717478Y-94636575D01*
X170717479Y-94636574D01*
X170717482Y-94636574D01*
X170823465Y-94582573D01*
X170907573Y-94498465D01*
X170961574Y-94392482D01*
X170961575Y-94392477D01*
X170980181Y-94275003D01*
X170980181Y-94274996D01*
X170961575Y-94157522D01*
X170961575Y-94157521D01*
X170961574Y-94157519D01*
X170961574Y-94157518D01*
X170907573Y-94051535D01*
X170907571Y-94051533D01*
X170907568Y-94051529D01*
X170836220Y-93980181D01*
X170802735Y-93918858D01*
X170807719Y-93849166D01*
X170836220Y-93804819D01*
X170907568Y-93733470D01*
X170907573Y-93733465D01*
X170961574Y-93627482D01*
X170980181Y-93510000D01*
X170980181Y-93509996D01*
X170961575Y-93392522D01*
X170961575Y-93392521D01*
X170961574Y-93392519D01*
X170961574Y-93392518D01*
X170907573Y-93286535D01*
X170907571Y-93286533D01*
X170907568Y-93286529D01*
X170823470Y-93202431D01*
X170823466Y-93202428D01*
X170823465Y-93202427D01*
X170717482Y-93148426D01*
X170717480Y-93148425D01*
X170717477Y-93148424D01*
X170600003Y-93129819D01*
X170599997Y-93129819D01*
X170482522Y-93148424D01*
X170482521Y-93148424D01*
X170376533Y-93202428D01*
X170376529Y-93202431D01*
X170292431Y-93286529D01*
X170292428Y-93286533D01*
X170238424Y-93392521D01*
X170238424Y-93392522D01*
X170219819Y-93509996D01*
X166500617Y-93509996D01*
X165581634Y-92591013D01*
X165581633Y-92591012D01*
X165565283Y-92576325D01*
X165565269Y-92576313D01*
X165544620Y-92559672D01*
X165473575Y-92522509D01*
X165406543Y-92502826D01*
X165405894Y-92502732D01*
X165348638Y-92494500D01*
X162524000Y-92494500D01*
X162523992Y-92494500D01*
X162480313Y-92499197D01*
X162428825Y-92510397D01*
X162418627Y-92512890D01*
X162332484Y-92558794D01*
X162264063Y-92572948D01*
X162213637Y-92557582D01*
X162150937Y-92522510D01*
X162150935Y-92522509D01*
X162083903Y-92502826D01*
X162083899Y-92502825D01*
X162083898Y-92502825D01*
X162026000Y-92494500D01*
X159424000Y-92494500D01*
X159423992Y-92494500D01*
X159380313Y-92499197D01*
X159328825Y-92510397D01*
X159318627Y-92512890D01*
X159318624Y-92512891D01*
X159273574Y-92536897D01*
X158950000Y-92400000D01*
X158966477Y-90949996D01*
X175294819Y-90949996D01*
X175294819Y-90950003D01*
X175313424Y-91067477D01*
X175313424Y-91067478D01*
X175367428Y-91173466D01*
X175367431Y-91173470D01*
X175451529Y-91257568D01*
X175451533Y-91257571D01*
X175451535Y-91257573D01*
X175557518Y-91311574D01*
X175557520Y-91311574D01*
X175557522Y-91311575D01*
X175674997Y-91330181D01*
X175675000Y-91330181D01*
X175675003Y-91330181D01*
X175792477Y-91311575D01*
X175792478Y-91311575D01*
X175792479Y-91311574D01*
X175792482Y-91311574D01*
X175898465Y-91257573D01*
X175982573Y-91173465D01*
X176036574Y-91067482D01*
X176055181Y-90950000D01*
X176055181Y-90949996D01*
X176794819Y-90949996D01*
X176794819Y-90950003D01*
X176813424Y-91067477D01*
X176813424Y-91067478D01*
X176867428Y-91173466D01*
X176867431Y-91173470D01*
X176951529Y-91257568D01*
X176951533Y-91257571D01*
X176951535Y-91257573D01*
X177057518Y-91311574D01*
X177057520Y-91311574D01*
X177057522Y-91311575D01*
X177174997Y-91330181D01*
X177175000Y-91330181D01*
X177175003Y-91330181D01*
X177292477Y-91311575D01*
X177292478Y-91311575D01*
X177292479Y-91311574D01*
X177292482Y-91311574D01*
X177398465Y-91257573D01*
X177482573Y-91173465D01*
X177536574Y-91067482D01*
X177555181Y-90950000D01*
X177555181Y-90949996D01*
X177536575Y-90832522D01*
X177536575Y-90832521D01*
X177536574Y-90832519D01*
X177536574Y-90832518D01*
X177482573Y-90726535D01*
X177482571Y-90726533D01*
X177482568Y-90726529D01*
X177398470Y-90642431D01*
X177398466Y-90642428D01*
X177398465Y-90642427D01*
X177292482Y-90588426D01*
X177292480Y-90588425D01*
X177292477Y-90588424D01*
X177175003Y-90569819D01*
X177174997Y-90569819D01*
X177057522Y-90588424D01*
X177057521Y-90588424D01*
X176951533Y-90642428D01*
X176951529Y-90642431D01*
X176867431Y-90726529D01*
X176867428Y-90726533D01*
X176813424Y-90832521D01*
X176813424Y-90832522D01*
X176794819Y-90949996D01*
X176055181Y-90949996D01*
X176036575Y-90832522D01*
X176036575Y-90832521D01*
X176036574Y-90832519D01*
X176036574Y-90832518D01*
X175982573Y-90726535D01*
X175982571Y-90726533D01*
X175982568Y-90726529D01*
X175898470Y-90642431D01*
X175898466Y-90642428D01*
X175898465Y-90642427D01*
X175792482Y-90588426D01*
X175792480Y-90588425D01*
X175792477Y-90588424D01*
X175675003Y-90569819D01*
X175674997Y-90569819D01*
X175557522Y-90588424D01*
X175557521Y-90588424D01*
X175451533Y-90642428D01*
X175451529Y-90642431D01*
X175367431Y-90726529D01*
X175367428Y-90726533D01*
X175313424Y-90832521D01*
X175313424Y-90832522D01*
X175294819Y-90949996D01*
X158966477Y-90949996D01*
X158974886Y-90209996D01*
X165069819Y-90209996D01*
X165069819Y-90210003D01*
X165088424Y-90327477D01*
X165088424Y-90327478D01*
X165142428Y-90433466D01*
X165142431Y-90433470D01*
X165226529Y-90517568D01*
X165226533Y-90517571D01*
X165226535Y-90517573D01*
X165332518Y-90571574D01*
X165332520Y-90571574D01*
X165332522Y-90571575D01*
X165449997Y-90590181D01*
X165450000Y-90590181D01*
X165450003Y-90590181D01*
X165567477Y-90571575D01*
X165567478Y-90571575D01*
X165567479Y-90571574D01*
X165567482Y-90571574D01*
X165673465Y-90517573D01*
X165757573Y-90433465D01*
X165811574Y-90327482D01*
X165811575Y-90327477D01*
X165830181Y-90210003D01*
X165830181Y-90209996D01*
X165811575Y-90092522D01*
X165811575Y-90092521D01*
X165811574Y-90092519D01*
X165811574Y-90092518D01*
X165757573Y-89986535D01*
X165757571Y-89986533D01*
X165757568Y-89986529D01*
X165673470Y-89902431D01*
X165673466Y-89902428D01*
X165673465Y-89902427D01*
X165567482Y-89848426D01*
X165567480Y-89848425D01*
X165567477Y-89848424D01*
X165450003Y-89829819D01*
X165449997Y-89829819D01*
X165332522Y-89848424D01*
X165332521Y-89848424D01*
X165226533Y-89902428D01*
X165226529Y-89902431D01*
X165142431Y-89986529D01*
X165142428Y-89986533D01*
X165088424Y-90092521D01*
X165088424Y-90092522D01*
X165069819Y-90209996D01*
X158974886Y-90209996D01*
X158984091Y-89400000D01*
X159407367Y-89400000D01*
X159425802Y-89528225D01*
X159479617Y-89646061D01*
X159479618Y-89646063D01*
X159564451Y-89743967D01*
X159673431Y-89814004D01*
X159797725Y-89850499D01*
X159797727Y-89850500D01*
X159797728Y-89850500D01*
X159927273Y-89850500D01*
X159927273Y-89850499D01*
X160051569Y-89814004D01*
X160160549Y-89743967D01*
X160245382Y-89646063D01*
X160289253Y-89550000D01*
X166507367Y-89550000D01*
X166525802Y-89678225D01*
X166579617Y-89796061D01*
X166579618Y-89796063D01*
X166664451Y-89893967D01*
X166773431Y-89964004D01*
X166897725Y-90000499D01*
X166897727Y-90000500D01*
X166897728Y-90000500D01*
X167027273Y-90000500D01*
X167027273Y-90000499D01*
X167151569Y-89964004D01*
X167260549Y-89893967D01*
X167345382Y-89796063D01*
X167399197Y-89678226D01*
X167417633Y-89550000D01*
X167399197Y-89421774D01*
X167345382Y-89303937D01*
X167260549Y-89206033D01*
X167151569Y-89135996D01*
X167151565Y-89135994D01*
X167151564Y-89135994D01*
X167027274Y-89099500D01*
X167027272Y-89099500D01*
X166897728Y-89099500D01*
X166897726Y-89099500D01*
X166773435Y-89135994D01*
X166773432Y-89135995D01*
X166773431Y-89135996D01*
X166745513Y-89153938D01*
X166664450Y-89206033D01*
X166579618Y-89303937D01*
X166579617Y-89303938D01*
X166525802Y-89421774D01*
X166507367Y-89550000D01*
X160289253Y-89550000D01*
X160299197Y-89528226D01*
X160317633Y-89400000D01*
X160299197Y-89271774D01*
X160245382Y-89153937D01*
X160160549Y-89056033D01*
X160051569Y-88985996D01*
X160051565Y-88985994D01*
X160051564Y-88985994D01*
X159927274Y-88949500D01*
X159927272Y-88949500D01*
X159797728Y-88949500D01*
X159797726Y-88949500D01*
X159673435Y-88985994D01*
X159673432Y-88985995D01*
X159673431Y-88985996D01*
X159622177Y-89018934D01*
X159564450Y-89056033D01*
X159479618Y-89153937D01*
X159479617Y-89153938D01*
X159425802Y-89271774D01*
X159407367Y-89400000D01*
X158984091Y-89400000D01*
X158992040Y-88700500D01*
X173939676Y-88700500D01*
X174006715Y-88720185D01*
G37*
%TD.AperFunction*%
%TD*%
M02*
