%TF.GenerationSoftware,KiCad,Pcbnew,8.0.3*%
%TF.CreationDate,2024-10-12T12:31:44+02:00*%
%TF.ProjectId,Parkside-100W-Brick,5061726b-7369-4646-952d-313030572d42,rev?*%
%TF.SameCoordinates,Original*%
%TF.FileFunction,Soldermask,Top*%
%TF.FilePolarity,Negative*%
%FSLAX46Y46*%
G04 Gerber Fmt 4.6, Leading zero omitted, Abs format (unit mm)*
G04 Created by KiCad (PCBNEW 8.0.3) date 2024-10-12 12:31:44*
%MOMM*%
%LPD*%
G01*
G04 APERTURE LIST*
G04 Aperture macros list*
%AMRoundRect*
0 Rectangle with rounded corners*
0 $1 Rounding radius*
0 $2 $3 $4 $5 $6 $7 $8 $9 X,Y pos of 4 corners*
0 Add a 4 corners polygon primitive as box body*
4,1,4,$2,$3,$4,$5,$6,$7,$8,$9,$2,$3,0*
0 Add four circle primitives for the rounded corners*
1,1,$1+$1,$2,$3*
1,1,$1+$1,$4,$5*
1,1,$1+$1,$6,$7*
1,1,$1+$1,$8,$9*
0 Add four rect primitives between the rounded corners*
20,1,$1+$1,$2,$3,$4,$5,0*
20,1,$1+$1,$4,$5,$6,$7,0*
20,1,$1+$1,$6,$7,$8,$9,0*
20,1,$1+$1,$8,$9,$2,$3,0*%
%AMRotRect*
0 Rectangle, with rotation*
0 The origin of the aperture is its center*
0 $1 length*
0 $2 width*
0 $3 Rotation angle, in degrees counterclockwise*
0 Add horizontal line*
21,1,$1,$2,0,0,$3*%
%AMFreePoly0*
4,1,5,0.110000,-0.125000,-0.110000,-0.125000,-0.110000,0.125000,0.360000,0.125000,0.110000,-0.125000,0.110000,-0.125000,$1*%
%AMFreePoly1*
4,1,6,0.290000,-0.055000,0.290000,-0.125000,-0.110000,-0.125000,-0.110000,0.125000,0.110000,0.125000,0.290000,-0.055000,0.290000,-0.055000,$1*%
%AMFreePoly2*
4,1,7,0.110000,-0.125000,-0.110000,-0.125000,-0.290000,-0.125000,-0.290000,-0.055000,-0.110000,0.125000,0.110000,0.125000,0.110000,-0.125000,0.110000,-0.125000,$1*%
%AMFreePoly3*
4,1,6,0.110000,-0.125000,-0.110000,-0.125000,-0.290000,0.055000,-0.290000,0.125000,0.110000,0.125000,0.110000,-0.125000,0.110000,-0.125000,$1*%
%AMFreePoly4*
4,1,93,-1.755578,2.630679,-1.440813,2.572996,-1.135297,2.477793,-0.843484,2.346458,-0.569628,2.180907,-0.317725,1.983553,-0.091447,1.757275,0.105907,1.505372,0.271458,1.231516,0.402793,0.939703,0.497996,0.634187,0.555679,0.319422,0.575000,0.000000,0.555679,-0.319422,0.497996,-0.634187,0.402793,-0.939703,0.271458,-1.231516,0.105907,-1.505372,-0.091447,-1.757275,-0.317725,-1.983553,
-0.569628,-2.180907,-0.843484,-2.346458,-1.135297,-2.477793,-1.440813,-2.572996,-1.755578,-2.630679,-2.075000,-2.650000,-2.394422,-2.630679,-2.709187,-2.572996,-3.014703,-2.477793,-3.306516,-2.346458,-3.580372,-2.180907,-3.832275,-1.983553,-4.058553,-1.757275,-4.255907,-1.505372,-4.421458,-1.231516,-4.552793,-0.939703,-4.647996,-0.634187,-4.705679,-0.319422,-4.725000,0.000000,-3.580141,0.000000,
-3.559613,-0.247738,-3.498588,-0.488718,-3.398732,-0.716368,-3.262768,-0.924477,-3.094404,-1.107368,-2.898234,-1.260054,-2.679608,-1.378368,-2.444490,-1.459084,-2.199294,-1.500000,-1.950706,-1.500000,-1.705510,-1.459084,-1.470392,-1.378368,-1.251766,-1.260054,-1.055596,-1.107368,-0.887232,-0.924477,-0.751268,-0.716368,-0.651412,-0.488718,-0.590387,-0.247738,-0.569859,0.000000,-0.590387,0.247738,
-0.651412,0.488718,-0.751268,0.716368,-0.887232,0.924477,-1.055596,1.107368,-1.251766,1.260054,-1.470392,1.378368,-1.705510,1.459084,-1.950706,1.500000,-2.199294,1.500000,-2.444490,1.459084,-2.679608,1.378368,-2.898234,1.260054,-3.094404,1.107368,-3.262768,0.924477,-3.398732,0.716368,-3.498588,0.488718,-3.559613,0.247738,-3.580141,0.000000,-4.725000,0.000000,-4.705679,0.319422,
-4.647996,0.634187,-4.552793,0.939703,-4.421458,1.231516,-4.255907,1.505372,-4.058553,1.757275,-3.832275,1.983553,-3.580372,2.180907,-3.306516,2.346458,-3.014703,2.477793,-2.709187,2.572996,-2.394422,2.630679,-2.075000,2.650000,-1.755578,2.630679,-1.755578,2.630679,$1*%
%AMFreePoly5*
4,1,17,2.400000,-0.600000,2.310008,-0.600000,2.310008,-1.549987,1.510008,-1.549987,1.510008,-0.700000,1.040005,-0.700000,1.040005,-1.549987,0.240005,-1.549987,0.240005,-0.700000,-0.229997,-0.700000,-0.229997,-1.549987,-1.014986,-1.549987,-1.014986,0.164999,-2.400000,0.164999,-2.400000,0.700000,2.394996,0.700000,2.400000,-0.600000,2.400000,-0.600000,$1*%
%AMFreePoly6*
4,1,9,3.862500,-0.866500,0.737500,-0.866500,0.737500,-0.450000,-0.737500,-0.450000,-0.737500,0.450000,0.737500,0.450000,0.737500,0.866500,3.862500,0.866500,3.862500,-0.866500,3.862500,-0.866500,$1*%
G04 Aperture macros list end*
%ADD10C,0.000000*%
%ADD11RoundRect,0.225000X0.250000X-0.225000X0.250000X0.225000X-0.250000X0.225000X-0.250000X-0.225000X0*%
%ADD12RoundRect,0.140000X-0.170000X0.140000X-0.170000X-0.140000X0.170000X-0.140000X0.170000X0.140000X0*%
%ADD13RoundRect,0.250000X-0.312500X-0.625000X0.312500X-0.625000X0.312500X0.625000X-0.312500X0.625000X0*%
%ADD14RoundRect,0.135000X-0.185000X0.135000X-0.185000X-0.135000X0.185000X-0.135000X0.185000X0.135000X0*%
%ADD15RoundRect,0.250000X-0.475000X0.250000X-0.475000X-0.250000X0.475000X-0.250000X0.475000X0.250000X0*%
%ADD16RoundRect,0.203125X1.446875X0.446875X-1.446875X0.446875X-1.446875X-0.446875X1.446875X-0.446875X0*%
%ADD17R,0.400000X0.700000*%
%ADD18RoundRect,0.140000X-0.140000X-0.170000X0.140000X-0.170000X0.140000X0.170000X-0.140000X0.170000X0*%
%ADD19RoundRect,0.050000X-0.250000X0.250000X-0.250000X-0.250000X0.250000X-0.250000X0.250000X0.250000X0*%
%ADD20RoundRect,0.150000X0.512500X0.150000X-0.512500X0.150000X-0.512500X-0.150000X0.512500X-0.150000X0*%
%ADD21RoundRect,0.140000X0.140000X0.170000X-0.140000X0.170000X-0.140000X-0.170000X0.140000X-0.170000X0*%
%ADD22RoundRect,0.062500X-0.362500X-0.062500X0.362500X-0.062500X0.362500X0.062500X-0.362500X0.062500X0*%
%ADD23RoundRect,0.062500X-0.062500X-0.362500X0.062500X-0.362500X0.062500X0.362500X-0.062500X0.362500X0*%
%ADD24R,5.450000X5.450000*%
%ADD25RoundRect,0.135000X0.135000X0.185000X-0.135000X0.185000X-0.135000X-0.185000X0.135000X-0.185000X0*%
%ADD26R,0.700000X0.420000*%
%ADD27R,0.450000X0.420000*%
%ADD28R,1.930000X2.490000*%
%ADD29RoundRect,0.140000X0.170000X-0.140000X0.170000X0.140000X-0.170000X0.140000X-0.170000X-0.140000X0*%
%ADD30RoundRect,0.250000X0.250000X0.475000X-0.250000X0.475000X-0.250000X-0.475000X0.250000X-0.475000X0*%
%ADD31C,0.700000*%
%ADD32C,4.400000*%
%ADD33RoundRect,0.225000X0.225000X0.250000X-0.225000X0.250000X-0.225000X-0.250000X0.225000X-0.250000X0*%
%ADD34RoundRect,0.135000X0.185000X-0.135000X0.185000X0.135000X-0.185000X0.135000X-0.185000X-0.135000X0*%
%ADD35RoundRect,0.135000X-0.135000X-0.185000X0.135000X-0.185000X0.135000X0.185000X-0.135000X0.185000X0*%
%ADD36FreePoly0,0.000000*%
%ADD37FreePoly1,0.000000*%
%ADD38FreePoly2,0.000000*%
%ADD39FreePoly3,0.000000*%
%ADD40RotRect,0.480000X0.480000X45.000000*%
%ADD41RoundRect,0.203125X0.446875X-1.446875X0.446875X1.446875X-0.446875X1.446875X-0.446875X-1.446875X0*%
%ADD42RoundRect,0.250000X-0.625000X0.375000X-0.625000X-0.375000X0.625000X-0.375000X0.625000X0.375000X0*%
%ADD43C,3.000000*%
%ADD44FreePoly4,0.000000*%
%ADD45C,0.650000*%
%ADD46R,1.450000X0.600000*%
%ADD47R,1.450000X0.300000*%
%ADD48O,2.100000X1.000000*%
%ADD49O,1.600000X1.000000*%
%ADD50RoundRect,0.085000X-0.265000X-0.085000X0.265000X-0.085000X0.265000X0.085000X-0.265000X0.085000X0*%
%ADD51R,1.000000X0.800000*%
%ADD52FreePoly5,90.000000*%
%ADD53R,2.600000X4.800000*%
%ADD54FreePoly5,270.000000*%
%ADD55RoundRect,0.150000X0.625000X-0.150000X0.625000X0.150000X-0.625000X0.150000X-0.625000X-0.150000X0*%
%ADD56RoundRect,0.250000X0.650000X-0.350000X0.650000X0.350000X-0.650000X0.350000X-0.650000X-0.350000X0*%
%ADD57RoundRect,0.225000X0.225000X-0.425000X0.225000X0.425000X-0.225000X0.425000X-0.225000X-0.425000X0*%
%ADD58FreePoly6,90.000000*%
%ADD59RoundRect,0.225000X-0.225000X-0.250000X0.225000X-0.250000X0.225000X0.250000X-0.225000X0.250000X0*%
%ADD60R,0.450000X0.700000*%
%ADD61RoundRect,0.250000X0.625000X-0.312500X0.625000X0.312500X-0.625000X0.312500X-0.625000X-0.312500X0*%
%ADD62RoundRect,0.050000X0.350000X-0.225000X0.350000X0.225000X-0.350000X0.225000X-0.350000X-0.225000X0*%
%ADD63R,6.500000X1.500000*%
G04 APERTURE END LIST*
D10*
G36*
X152323641Y-106876816D02*
G01*
X152215922Y-106876816D01*
X152215922Y-106769097D01*
X152323641Y-106769097D01*
X152323641Y-106876816D01*
G37*
G36*
X153733222Y-105730699D02*
G01*
X153742224Y-105731379D01*
X153751092Y-105732500D01*
X153759816Y-105734049D01*
X153768383Y-105736017D01*
X153776785Y-105738392D01*
X153785008Y-105741163D01*
X153793043Y-105744320D01*
X153800879Y-105747851D01*
X153808504Y-105751746D01*
X153815908Y-105755993D01*
X153823079Y-105760582D01*
X153830008Y-105765502D01*
X153836682Y-105770741D01*
X153843091Y-105776290D01*
X153849224Y-105782136D01*
X153855070Y-105788269D01*
X153860619Y-105794678D01*
X153865858Y-105801352D01*
X153870778Y-105808281D01*
X153875367Y-105815452D01*
X153879614Y-105822856D01*
X153883509Y-105830481D01*
X153887040Y-105838317D01*
X153890197Y-105846352D01*
X153892968Y-105854575D01*
X153895343Y-105862977D01*
X153897311Y-105871544D01*
X153898860Y-105880268D01*
X153899981Y-105889136D01*
X153900661Y-105898138D01*
X153900890Y-105907263D01*
X153900890Y-109031360D01*
X153900661Y-109040485D01*
X153899981Y-109049487D01*
X153898860Y-109058355D01*
X153897311Y-109067079D01*
X153895343Y-109075646D01*
X153892968Y-109084048D01*
X153890197Y-109092271D01*
X153887040Y-109100306D01*
X153883509Y-109108142D01*
X153879614Y-109115767D01*
X153875367Y-109123171D01*
X153870778Y-109130342D01*
X153865858Y-109137271D01*
X153860619Y-109143945D01*
X153855070Y-109150354D01*
X153849224Y-109156487D01*
X153843091Y-109162333D01*
X153836682Y-109167882D01*
X153830008Y-109173121D01*
X153823079Y-109178041D01*
X153815908Y-109182630D01*
X153808504Y-109186877D01*
X153800879Y-109190772D01*
X153793043Y-109194303D01*
X153785008Y-109197460D01*
X153776785Y-109200231D01*
X153768383Y-109202606D01*
X153759816Y-109204574D01*
X153751092Y-109206123D01*
X153742224Y-109207244D01*
X153733222Y-109207924D01*
X153724097Y-109208153D01*
X150600000Y-109208153D01*
X150590875Y-109207924D01*
X150581873Y-109207244D01*
X150573005Y-109206123D01*
X150564281Y-109204574D01*
X150555714Y-109202606D01*
X150547312Y-109200231D01*
X150539089Y-109197460D01*
X150531054Y-109194303D01*
X150523218Y-109190772D01*
X150515593Y-109186877D01*
X150508189Y-109182630D01*
X150501018Y-109178041D01*
X150494089Y-109173121D01*
X150487415Y-109167882D01*
X150481006Y-109162333D01*
X150474873Y-109156487D01*
X150469027Y-109150354D01*
X150463478Y-109143945D01*
X150458239Y-109137271D01*
X150453319Y-109130342D01*
X150448730Y-109123171D01*
X150444483Y-109115767D01*
X150440588Y-109108142D01*
X150437057Y-109100306D01*
X150433900Y-109092271D01*
X150431129Y-109084048D01*
X150428754Y-109075646D01*
X150426786Y-109067079D01*
X150425237Y-109058355D01*
X150424116Y-109049487D01*
X150423436Y-109040485D01*
X150423207Y-109031360D01*
X150423207Y-108277273D01*
X150600000Y-108277273D01*
X150600000Y-109031360D01*
X151354088Y-109031360D01*
X151354088Y-108815895D01*
X151461834Y-108815895D01*
X151461834Y-109031360D01*
X151677272Y-109031360D01*
X151677272Y-108923614D01*
X151785018Y-108923614D01*
X151785018Y-109031360D01*
X151892737Y-109031360D01*
X151892737Y-108923614D01*
X151785018Y-108923614D01*
X151785018Y-108708176D01*
X151677272Y-108708176D01*
X151677272Y-108923614D01*
X151569553Y-108923614D01*
X151569553Y-108815895D01*
X151461834Y-108815895D01*
X151354088Y-108815895D01*
X151354088Y-108708176D01*
X151354088Y-108600430D01*
X151461834Y-108600430D01*
X151461834Y-108708176D01*
X151569553Y-108708176D01*
X151569553Y-108600430D01*
X151461834Y-108600430D01*
X151354088Y-108600430D01*
X151354088Y-108277273D01*
X150600000Y-108277273D01*
X150423207Y-108277273D01*
X150423207Y-106769097D01*
X150600000Y-106769097D01*
X150600000Y-107092281D01*
X150707746Y-107092281D01*
X150707746Y-107200000D01*
X150600000Y-107200000D01*
X150600000Y-107630904D01*
X150707746Y-107630904D01*
X150707746Y-107846342D01*
X150600000Y-107846342D01*
X150600000Y-108169526D01*
X150707746Y-108169526D01*
X150707746Y-107954088D01*
X151030931Y-107954088D01*
X151030931Y-108061807D01*
X151246369Y-108061807D01*
X151246369Y-108169526D01*
X151354088Y-108169526D01*
X151354088Y-108061807D01*
X151461834Y-108061807D01*
X151461834Y-107954088D01*
X151569553Y-107954088D01*
X151569553Y-107846342D01*
X151461834Y-107846342D01*
X151461834Y-107630904D01*
X151677272Y-107630904D01*
X151677272Y-107846342D01*
X151785018Y-107846342D01*
X151785018Y-107738623D01*
X151892737Y-107738623D01*
X151892737Y-107630904D01*
X152000456Y-107630904D01*
X152000456Y-108061807D01*
X152108175Y-108061807D01*
X152108175Y-108277273D01*
X152000456Y-108277273D01*
X152000456Y-108384992D01*
X151892737Y-108384992D01*
X151892737Y-107846342D01*
X151785018Y-107846342D01*
X151785018Y-108384992D01*
X151677272Y-108384992D01*
X151677272Y-107954088D01*
X151569553Y-107954088D01*
X151569553Y-108277273D01*
X151461834Y-108277273D01*
X151461834Y-108384992D01*
X151569553Y-108384992D01*
X151569553Y-108600430D01*
X151785018Y-108600430D01*
X151785018Y-108384992D01*
X151892737Y-108384992D01*
X151892737Y-108492710D01*
X152000456Y-108492710D01*
X152000456Y-108384992D01*
X152108175Y-108384992D01*
X152108175Y-108277273D01*
X152215922Y-108277273D01*
X152215922Y-108492710D01*
X152108175Y-108492710D01*
X152108175Y-108600430D01*
X152323641Y-108600430D01*
X152323641Y-108708176D01*
X152431360Y-108708176D01*
X152431360Y-108815895D01*
X152215922Y-108815895D01*
X152215922Y-108708176D01*
X152000456Y-108708176D01*
X152000456Y-108600430D01*
X151892737Y-108600430D01*
X151892737Y-108815895D01*
X152000456Y-108815895D01*
X152000456Y-109031360D01*
X152215922Y-109031360D01*
X152215922Y-108923614D01*
X152539079Y-108923614D01*
X152539079Y-108815895D01*
X152862263Y-108815895D01*
X152862263Y-109031360D01*
X152970010Y-109031360D01*
X152970010Y-108923614D01*
X153077729Y-108923614D01*
X153077729Y-109031360D01*
X153293167Y-109031360D01*
X153293167Y-108923614D01*
X153400913Y-108923614D01*
X153400913Y-109031360D01*
X153508632Y-109031360D01*
X153508632Y-108923614D01*
X153724097Y-108923614D01*
X153724097Y-108815895D01*
X153508632Y-108815895D01*
X153508632Y-108708176D01*
X153724097Y-108708176D01*
X153724097Y-108600430D01*
X153508632Y-108600430D01*
X153508632Y-108708176D01*
X153400913Y-108708176D01*
X153400913Y-108492710D01*
X153400913Y-108384992D01*
X153293167Y-108384992D01*
X153293167Y-108277273D01*
X153508632Y-108277273D01*
X153508632Y-108492710D01*
X153724097Y-108492710D01*
X153724097Y-108277273D01*
X153508632Y-108277273D01*
X153293167Y-108277273D01*
X153293167Y-108061807D01*
X153508632Y-108061807D01*
X153508632Y-108169526D01*
X153724097Y-108169526D01*
X153724097Y-107738623D01*
X153400913Y-107738623D01*
X153400913Y-107954088D01*
X153293167Y-107954088D01*
X153293167Y-107846342D01*
X153077729Y-107846342D01*
X153077729Y-107738623D01*
X152970010Y-107738623D01*
X152970010Y-107630904D01*
X153185447Y-107630904D01*
X153185447Y-107738623D01*
X153293167Y-107738623D01*
X153293167Y-107630904D01*
X153185447Y-107630904D01*
X153185447Y-107415438D01*
X153185447Y-107307719D01*
X153293167Y-107307719D01*
X153293167Y-107415438D01*
X153400913Y-107415438D01*
X153400913Y-107523185D01*
X153508632Y-107523185D01*
X153508632Y-107630904D01*
X153616351Y-107630904D01*
X153616351Y-107523185D01*
X153724097Y-107523185D01*
X153724097Y-107307719D01*
X153508632Y-107307719D01*
X153508632Y-107415438D01*
X153400913Y-107415438D01*
X153400913Y-107307719D01*
X153293167Y-107307719D01*
X153293167Y-107200000D01*
X153724097Y-107200000D01*
X153724097Y-106984535D01*
X153616351Y-106984535D01*
X153616351Y-106876816D01*
X153724097Y-106876816D01*
X153724097Y-106769097D01*
X153616351Y-106769097D01*
X153616351Y-106876816D01*
X153508632Y-106876816D01*
X153508632Y-106769097D01*
X153293167Y-106769097D01*
X153293167Y-106876816D01*
X153185447Y-106876816D01*
X153185447Y-106769097D01*
X152862263Y-106769097D01*
X152862263Y-106984535D01*
X152754544Y-106984535D01*
X152754544Y-107092281D01*
X152646825Y-107092281D01*
X152646825Y-106984535D01*
X152539079Y-106984535D01*
X152539079Y-106876816D01*
X152646825Y-106876816D01*
X152646825Y-106769097D01*
X152754544Y-106769097D01*
X152754544Y-106661351D01*
X152862263Y-106661351D01*
X152862263Y-106553632D01*
X152754544Y-106553632D01*
X152754544Y-106445913D01*
X152862263Y-106445913D01*
X152862263Y-106338194D01*
X152754544Y-106338194D01*
X152754544Y-106230447D01*
X152646825Y-106230447D01*
X152646825Y-106122728D01*
X152431360Y-106122728D01*
X152431360Y-106338194D01*
X152323641Y-106338194D01*
X152323641Y-106230447D01*
X152215922Y-106230447D01*
X152215922Y-106122728D01*
X152108175Y-106122728D01*
X152108175Y-106015009D01*
X152215922Y-106015009D01*
X152215922Y-105907263D01*
X152539079Y-105907263D01*
X152539079Y-106015009D01*
X152646825Y-106015009D01*
X152754544Y-106015009D01*
X152754544Y-106122728D01*
X152862263Y-106122728D01*
X152862263Y-106015009D01*
X152754544Y-106015009D01*
X152646825Y-106015009D01*
X152646825Y-105907263D01*
X152970010Y-105907263D01*
X152970010Y-106661351D01*
X153724097Y-106661351D01*
X153724097Y-105907263D01*
X152970010Y-105907263D01*
X152646825Y-105907263D01*
X152539079Y-105907263D01*
X152215922Y-105907263D01*
X151461834Y-105907263D01*
X151461834Y-106015009D01*
X151569553Y-106015009D01*
X151569553Y-106122728D01*
X151461834Y-106122728D01*
X151461834Y-106338194D01*
X151569553Y-106338194D01*
X151569553Y-106230447D01*
X151677272Y-106230447D01*
X151677272Y-106445913D01*
X151785018Y-106445913D01*
X151785018Y-106553632D01*
X151677272Y-106553632D01*
X151677272Y-106661351D01*
X151569553Y-106661351D01*
X151569553Y-106445913D01*
X151461834Y-106445913D01*
X151461834Y-106769097D01*
X151246369Y-106769097D01*
X151246369Y-106876816D01*
X151354088Y-106876816D01*
X151354088Y-106984535D01*
X151138650Y-106984535D01*
X151138650Y-106876816D01*
X151030931Y-106876816D01*
X151030931Y-106769097D01*
X150923184Y-106769097D01*
X150923184Y-106876816D01*
X150815465Y-106876816D01*
X150815465Y-106769097D01*
X150600000Y-106769097D01*
X150423207Y-106769097D01*
X150423207Y-106661351D01*
X150423207Y-105907263D01*
X150600000Y-105907263D01*
X150600000Y-106661351D01*
X151354088Y-106661351D01*
X151354088Y-105907263D01*
X150600000Y-105907263D01*
X150423207Y-105907263D01*
X150423436Y-105898138D01*
X150424116Y-105889136D01*
X150425237Y-105880268D01*
X150426786Y-105871544D01*
X150428754Y-105862977D01*
X150431129Y-105854575D01*
X150433900Y-105846352D01*
X150437057Y-105838317D01*
X150440588Y-105830481D01*
X150444483Y-105822856D01*
X150448730Y-105815452D01*
X150453319Y-105808281D01*
X150458239Y-105801352D01*
X150463478Y-105794678D01*
X150469027Y-105788269D01*
X150474873Y-105782136D01*
X150481006Y-105776290D01*
X150487415Y-105770741D01*
X150494089Y-105765502D01*
X150501018Y-105760582D01*
X150508189Y-105755993D01*
X150515593Y-105751746D01*
X150523218Y-105747851D01*
X150531054Y-105744320D01*
X150539089Y-105741163D01*
X150547312Y-105738392D01*
X150555714Y-105736017D01*
X150564281Y-105734049D01*
X150573005Y-105732500D01*
X150581873Y-105731379D01*
X150590875Y-105730699D01*
X150600000Y-105730470D01*
X153724097Y-105730470D01*
X153733222Y-105730699D01*
G37*
G36*
X153185447Y-107307719D02*
G01*
X153077729Y-107307719D01*
X153077729Y-107200000D01*
X153185447Y-107200000D01*
X153185447Y-107307719D01*
G37*
G36*
X152323641Y-108169526D02*
G01*
X152215922Y-108169526D01*
X152215922Y-107954088D01*
X152323641Y-107954088D01*
X152323641Y-108169526D01*
G37*
G36*
X152539079Y-107954088D02*
G01*
X152646825Y-107954088D01*
X152646825Y-108061807D01*
X152431360Y-108061807D01*
X152431360Y-107846342D01*
X152215922Y-107846342D01*
X152215922Y-107738623D01*
X152539079Y-107738623D01*
X152539079Y-107954088D01*
G37*
G36*
X151246369Y-108923614D02*
G01*
X150707746Y-108923614D01*
X150707746Y-108815895D01*
X150707746Y-108492710D01*
X150815465Y-108492710D01*
X150815465Y-108815895D01*
X151138650Y-108815895D01*
X151138650Y-108492710D01*
X150815465Y-108492710D01*
X150707746Y-108492710D01*
X150707746Y-108384992D01*
X151246369Y-108384992D01*
X151246369Y-108923614D01*
G37*
G36*
X152646825Y-107307719D02*
G01*
X152539079Y-107307719D01*
X152539079Y-107415438D01*
X152215922Y-107415438D01*
X152215922Y-107307719D01*
X152431360Y-107307719D01*
X152431360Y-107200000D01*
X152539079Y-107200000D01*
X152539079Y-107092281D01*
X152646825Y-107092281D01*
X152646825Y-107307719D01*
G37*
G36*
X151892737Y-106445913D02*
G01*
X151785018Y-106445913D01*
X151785018Y-106338194D01*
X151892737Y-106338194D01*
X151892737Y-106445913D01*
G37*
G36*
X151461834Y-107415438D02*
G01*
X151569553Y-107415438D01*
X151569553Y-107523185D01*
X151354088Y-107523185D01*
X151354088Y-107415438D01*
X151246369Y-107415438D01*
X151246369Y-107307719D01*
X151461834Y-107307719D01*
X151461834Y-107415438D01*
G37*
G36*
X152215922Y-107954088D02*
G01*
X152108175Y-107954088D01*
X152108175Y-107846342D01*
X152215922Y-107846342D01*
X152215922Y-107954088D01*
G37*
G36*
X160925000Y-97100000D02*
G01*
X160450000Y-97575000D01*
X159100000Y-97575000D01*
X159100000Y-96600000D01*
X159575000Y-96125000D01*
X159575000Y-95550000D01*
X160450000Y-95550000D01*
X160450000Y-93550000D01*
X160925000Y-93550000D01*
X160925000Y-97100000D01*
G37*
G36*
X153400913Y-108815895D02*
G01*
X153293167Y-108815895D01*
X153293167Y-108708176D01*
X153400913Y-108708176D01*
X153400913Y-108815895D01*
G37*
G36*
X151030931Y-107092281D02*
G01*
X150923184Y-107092281D01*
X150923184Y-106876816D01*
X151030931Y-106876816D01*
X151030931Y-107092281D01*
G37*
G36*
X153185447Y-108815895D02*
G01*
X153293167Y-108815895D01*
X153293167Y-108923614D01*
X153077729Y-108923614D01*
X153077729Y-108815895D01*
X152970010Y-108815895D01*
X152970010Y-108708176D01*
X153185447Y-108708176D01*
X153185447Y-108815895D01*
G37*
G36*
X151354088Y-108061807D02*
G01*
X151246369Y-108061807D01*
X151246369Y-107954088D01*
X151354088Y-107954088D01*
X151354088Y-108061807D01*
G37*
G36*
X150815465Y-107092281D02*
G01*
X150707746Y-107092281D01*
X150707746Y-106876816D01*
X150815465Y-106876816D01*
X150815465Y-107092281D01*
G37*
G36*
X195600000Y-92900000D02*
G01*
X196100000Y-92900000D01*
X196100000Y-97300000D01*
X195850000Y-97550000D01*
X193850000Y-97550000D01*
X193150000Y-97550000D01*
X193150000Y-96600000D01*
X193150000Y-93600000D01*
X191250000Y-93600000D01*
X191250000Y-96800000D01*
X186200000Y-96800000D01*
X186200000Y-93600000D01*
X184850000Y-93600000D01*
X184850000Y-92750000D01*
X193500000Y-92750000D01*
X193500000Y-89150000D01*
X195600000Y-89150000D01*
X195600000Y-92900000D01*
G37*
G36*
X152754544Y-108277273D02*
G01*
X152646825Y-108277273D01*
X152646825Y-108169526D01*
X152754544Y-108169526D01*
X152754544Y-108277273D01*
G37*
G36*
X151246369Y-107307719D02*
G01*
X151138650Y-107307719D01*
X151138650Y-107415438D01*
X150923184Y-107415438D01*
X150923184Y-107630904D01*
X150707746Y-107630904D01*
X150707746Y-107415438D01*
X150815465Y-107415438D01*
X150815465Y-107307719D01*
X150923184Y-107307719D01*
X150923184Y-107200000D01*
X151246369Y-107200000D01*
X151246369Y-107307719D01*
G37*
G36*
X151138650Y-107954088D02*
G01*
X151030931Y-107954088D01*
X151030931Y-107738623D01*
X151138650Y-107738623D01*
X151138650Y-107954088D01*
G37*
G36*
X153293167Y-108708176D02*
G01*
X153185447Y-108708176D01*
X153185447Y-108600430D01*
X153293167Y-108600430D01*
X153293167Y-108708176D01*
G37*
G36*
X152970010Y-108061807D02*
G01*
X152862263Y-108061807D01*
X152862263Y-107846342D01*
X152754544Y-107846342D01*
X152754544Y-107738623D01*
X152970010Y-107738623D01*
X152970010Y-108061807D01*
G37*
G36*
X152754544Y-108492710D02*
G01*
X152646825Y-108492710D01*
X152646825Y-108600430D01*
X152754544Y-108600430D01*
X152754544Y-108708176D01*
X152539079Y-108708176D01*
X152539079Y-108600430D01*
X152431360Y-108600430D01*
X152431360Y-108492710D01*
X152539079Y-108492710D01*
X152539079Y-108384992D01*
X152754544Y-108384992D01*
X152754544Y-108492710D01*
G37*
G36*
X152539079Y-107092281D02*
G01*
X152431360Y-107092281D01*
X152431360Y-106984535D01*
X152539079Y-106984535D01*
X152539079Y-107092281D01*
G37*
G36*
X151354088Y-107630904D02*
G01*
X151246369Y-107630904D01*
X151246369Y-107523185D01*
X151354088Y-107523185D01*
X151354088Y-107630904D01*
G37*
G36*
X151569553Y-106876816D02*
G01*
X151461834Y-106876816D01*
X151461834Y-106769097D01*
X151569553Y-106769097D01*
X151569553Y-106876816D01*
G37*
G36*
X195750000Y-102000000D02*
G01*
X195750000Y-103250000D01*
X193475000Y-103250000D01*
X193475000Y-102100000D01*
X193250000Y-102100000D01*
X193250000Y-101775000D01*
X195525000Y-101775000D01*
X195750000Y-102000000D01*
G37*
G36*
X153077729Y-106984535D02*
G01*
X153508632Y-106984535D01*
X153508632Y-107092281D01*
X152970010Y-107092281D01*
X152970010Y-107200000D01*
X152754544Y-107200000D01*
X152754544Y-107092281D01*
X152862263Y-107092281D01*
X152862263Y-106984535D01*
X152970010Y-106984535D01*
X152970010Y-106876816D01*
X153077729Y-106876816D01*
X153077729Y-106984535D01*
G37*
G36*
X171230551Y-106080101D02*
G01*
X171225000Y-107900000D01*
X167750000Y-107900000D01*
X167750000Y-106399999D01*
X167950000Y-106399998D01*
X168119483Y-106473053D01*
X168471491Y-106583997D01*
X168833980Y-106653417D01*
X169202071Y-106680380D01*
X169570807Y-106664521D01*
X169935223Y-106606056D01*
X170290414Y-106505770D01*
X170631597Y-106365014D01*
X170954177Y-106185683D01*
X171029864Y-106132892D01*
X171100000Y-106075000D01*
X171230551Y-106080101D01*
G37*
G36*
X153616351Y-106553632D02*
G01*
X153077729Y-106553632D01*
X153077729Y-106445913D01*
X153077729Y-106122728D01*
X153185447Y-106122728D01*
X153185447Y-106445913D01*
X153508632Y-106445913D01*
X153508632Y-106122728D01*
X153185447Y-106122728D01*
X153077729Y-106122728D01*
X153077729Y-106015009D01*
X153616351Y-106015009D01*
X153616351Y-106553632D01*
G37*
G36*
X153185447Y-108492710D02*
G01*
X152862263Y-108492710D01*
X152862263Y-108384992D01*
X152862263Y-108277273D01*
X152970010Y-108277273D01*
X152970010Y-108384992D01*
X153077729Y-108384992D01*
X153077729Y-108277273D01*
X152970010Y-108277273D01*
X152862263Y-108277273D01*
X152862263Y-108169526D01*
X153185447Y-108169526D01*
X153185447Y-108492710D01*
G37*
G36*
X151354088Y-107846342D02*
G01*
X151246369Y-107846342D01*
X151246369Y-107738623D01*
X151354088Y-107738623D01*
X151354088Y-107846342D01*
G37*
G36*
X167100055Y-101094279D02*
G01*
X166974893Y-101212030D01*
X166747433Y-101469644D01*
X166548372Y-101749784D01*
X166379927Y-102049333D01*
X166243970Y-102364958D01*
X166142016Y-102693148D01*
X166075197Y-103030251D01*
X166044257Y-103372517D01*
X166044676Y-103544362D01*
X166046982Y-103715076D01*
X166083279Y-104054569D01*
X166155456Y-104388281D01*
X166262693Y-104712430D01*
X166403778Y-105023346D01*
X166577110Y-105317504D01*
X166780726Y-105591572D01*
X167012320Y-105842445D01*
X167139298Y-105956572D01*
X167125000Y-106050000D01*
X165850055Y-106050000D01*
X165850055Y-101000000D01*
X167100000Y-101000000D01*
X167100055Y-101094279D01*
G37*
G36*
X152000456Y-106122728D02*
G01*
X151892737Y-106122728D01*
X151892737Y-106230447D01*
X151785018Y-106230447D01*
X151785018Y-106015009D01*
X152000456Y-106015009D01*
X152000456Y-106122728D01*
G37*
G36*
X152431360Y-106553632D02*
G01*
X152323641Y-106553632D01*
X152323641Y-106661351D01*
X152215922Y-106661351D01*
X152215922Y-106445913D01*
X152431360Y-106445913D01*
X152431360Y-106553632D01*
G37*
G36*
X152323641Y-107630904D02*
G01*
X152215922Y-107630904D01*
X152215922Y-107523185D01*
X152323641Y-107523185D01*
X152323641Y-107630904D01*
G37*
G36*
X152108175Y-106876816D02*
G01*
X152215922Y-106876816D01*
X152215922Y-107307719D01*
X152108175Y-107307719D01*
X152108175Y-107415438D01*
X151892737Y-107415438D01*
X151892737Y-107630904D01*
X151677272Y-107630904D01*
X151677272Y-107415438D01*
X151785018Y-107415438D01*
X151785018Y-107200000D01*
X152000456Y-107200000D01*
X152000456Y-107092281D01*
X152108175Y-107092281D01*
X152108175Y-106984535D01*
X152000456Y-106984535D01*
X152000456Y-107092281D01*
X151785018Y-107092281D01*
X151785018Y-106984535D01*
X151677272Y-106984535D01*
X151677272Y-107200000D01*
X151569553Y-107200000D01*
X151569553Y-107307719D01*
X151461834Y-107307719D01*
X151461834Y-107200000D01*
X151246369Y-107200000D01*
X151246369Y-107092281D01*
X151461834Y-107092281D01*
X151461834Y-106984535D01*
X151569553Y-106984535D01*
X151569553Y-106876816D01*
X151892737Y-106876816D01*
X151892737Y-106984535D01*
X152000456Y-106984535D01*
X152000456Y-106876816D01*
X151892737Y-106876816D01*
X151892737Y-106769097D01*
X151785018Y-106769097D01*
X151785018Y-106553632D01*
X151892737Y-106553632D01*
X151892737Y-106661351D01*
X152000456Y-106661351D01*
X152000456Y-106445913D01*
X152108175Y-106445913D01*
X152108175Y-106876816D01*
G37*
G36*
X167350000Y-95100000D02*
G01*
X167350000Y-99100000D01*
X163850000Y-99100000D01*
X163850000Y-101000000D01*
X166000000Y-101000000D01*
X166000000Y-106050000D01*
X163850000Y-106050000D01*
X163850000Y-107950000D01*
X167400000Y-107950000D01*
X167400000Y-108950000D01*
X164550000Y-108950000D01*
X163075000Y-107475000D01*
X163075000Y-98475000D01*
X162650000Y-98050000D01*
X162650000Y-96500000D01*
X165300000Y-96500000D01*
X165300000Y-93200000D01*
X165450000Y-93200000D01*
X167350000Y-95100000D01*
G37*
G36*
X153077729Y-107415438D02*
G01*
X152970010Y-107415438D01*
X152970010Y-107523185D01*
X152862263Y-107523185D01*
X152862263Y-107307719D01*
X153077729Y-107307719D01*
X153077729Y-107415438D01*
G37*
G36*
X152215922Y-106338194D02*
G01*
X151892737Y-106338194D01*
X151892737Y-106230447D01*
X152215922Y-106230447D01*
X152215922Y-106338194D01*
G37*
G36*
X153508632Y-108923614D02*
G01*
X153400913Y-108923614D01*
X153400913Y-108815895D01*
X153508632Y-108815895D01*
X153508632Y-108923614D01*
G37*
G36*
X152431360Y-106984535D02*
G01*
X152323641Y-106984535D01*
X152323641Y-106876816D01*
X152431360Y-106876816D01*
X152431360Y-106984535D01*
G37*
G36*
X153293167Y-108061807D02*
G01*
X153077729Y-108061807D01*
X153077729Y-107954088D01*
X153293167Y-107954088D01*
X153293167Y-108061807D01*
G37*
G36*
X152539079Y-108384992D02*
G01*
X152323641Y-108384992D01*
X152323641Y-108277273D01*
X152539079Y-108277273D01*
X152539079Y-108384992D01*
G37*
G36*
X151246369Y-106553632D02*
G01*
X150707746Y-106553632D01*
X150707746Y-106445913D01*
X150707746Y-106122728D01*
X150815465Y-106122728D01*
X150815465Y-106445913D01*
X151138650Y-106445913D01*
X151138650Y-106122728D01*
X150815465Y-106122728D01*
X150707746Y-106122728D01*
X150707746Y-106015009D01*
X151246369Y-106015009D01*
X151246369Y-106553632D01*
G37*
G36*
X152539079Y-107630904D02*
G01*
X152431360Y-107630904D01*
X152431360Y-107523185D01*
X152539079Y-107523185D01*
X152539079Y-107630904D01*
G37*
G36*
X153616351Y-107523185D02*
G01*
X153508632Y-107523185D01*
X153508632Y-107415438D01*
X153616351Y-107415438D01*
X153616351Y-107523185D01*
G37*
G36*
X151138650Y-107630904D02*
G01*
X151030931Y-107630904D01*
X151030931Y-107523185D01*
X151138650Y-107523185D01*
X151138650Y-107630904D01*
G37*
G36*
X150923184Y-107846342D02*
G01*
X150815465Y-107846342D01*
X150815465Y-107738623D01*
X150923184Y-107738623D01*
X150923184Y-107846342D01*
G37*
G36*
X152108175Y-107630904D02*
G01*
X152000456Y-107630904D01*
X152000456Y-107523185D01*
X152108175Y-107523185D01*
X152108175Y-107630904D01*
G37*
G36*
X151246369Y-107523185D02*
G01*
X151138650Y-107523185D01*
X151138650Y-107415438D01*
X151246369Y-107415438D01*
X151246369Y-107523185D01*
G37*
G36*
X152215922Y-107523185D02*
G01*
X152108175Y-107523185D01*
X152108175Y-107415438D01*
X152215922Y-107415438D01*
X152215922Y-107523185D01*
G37*
G36*
X152539079Y-106876816D02*
G01*
X152431360Y-106876816D01*
X152431360Y-106769097D01*
X152323641Y-106769097D01*
X152323641Y-106661351D01*
X152431360Y-106661351D01*
X152431360Y-106553632D01*
X152539079Y-106553632D01*
X152539079Y-106876816D01*
G37*
G36*
X152754544Y-106661351D02*
G01*
X152646825Y-106661351D01*
X152646825Y-106553632D01*
X152754544Y-106553632D01*
X152754544Y-106661351D01*
G37*
G36*
X151030931Y-107738623D02*
G01*
X150923184Y-107738623D01*
X150923184Y-107630904D01*
X151030931Y-107630904D01*
X151030931Y-107738623D01*
G37*
G36*
X152862263Y-107630904D02*
G01*
X152754544Y-107630904D01*
X152754544Y-107738623D01*
X152646825Y-107738623D01*
X152646825Y-107523185D01*
X152862263Y-107523185D01*
X152862263Y-107630904D01*
G37*
D11*
%TO.C,C16*%
X180950000Y-96825000D03*
X180950000Y-95275000D03*
%TD*%
D12*
%TO.C,C21*%
X168200000Y-99367500D03*
X168200000Y-100327500D03*
%TD*%
D13*
%TO.C,R1*%
X172087500Y-106850000D03*
X175012500Y-106850000D03*
%TD*%
D14*
%TO.C,R3*%
X173900000Y-104290000D03*
X173900000Y-105310000D03*
%TD*%
D15*
%TO.C,C14*%
X170400000Y-108700000D03*
X170400000Y-110600000D03*
%TD*%
D16*
%TO.C,C18*%
X165800000Y-100050000D03*
X160700000Y-100050000D03*
%TD*%
D17*
%TO.C,D7*%
X157850000Y-101800000D03*
X158550000Y-101800000D03*
%TD*%
D18*
%TO.C,C10*%
X180050000Y-94125000D03*
X181010000Y-94125000D03*
%TD*%
D19*
%TO.C,D3*%
X173650000Y-101100000D03*
X173650000Y-103300000D03*
%TD*%
D20*
%TO.C,Q2*%
X169237500Y-91300000D03*
X169237500Y-90350000D03*
X169237500Y-89400000D03*
X166962500Y-89400000D03*
X166962500Y-90350000D03*
X166962500Y-91300000D03*
%TD*%
D17*
%TO.C,D5*%
X157850000Y-98800000D03*
X158550000Y-98800000D03*
%TD*%
D19*
%TO.C,D10*%
X168350000Y-92550000D03*
X168350000Y-94750000D03*
%TD*%
D21*
%TO.C,C2*%
X174980000Y-99800000D03*
X174020000Y-99800000D03*
%TD*%
D22*
%TO.C,U1*%
X171480000Y-92130000D03*
X171480000Y-92630000D03*
X171480000Y-93130000D03*
X171480000Y-93630000D03*
X171480000Y-94130000D03*
X171480000Y-94630000D03*
X171480000Y-95130000D03*
X171480000Y-95630000D03*
X171480000Y-96130000D03*
X171480000Y-96630000D03*
X171480000Y-97130000D03*
X171480000Y-97630000D03*
D23*
X172180000Y-98330000D03*
X172680000Y-98330000D03*
X173180000Y-98330000D03*
X173680000Y-98330000D03*
X174180000Y-98330000D03*
X174680000Y-98330000D03*
X175180000Y-98330000D03*
X175680000Y-98330000D03*
X176180000Y-98330000D03*
X176680000Y-98330000D03*
X177180000Y-98330000D03*
X177680000Y-98330000D03*
D22*
X178380000Y-97630000D03*
X178380000Y-97130000D03*
X178380000Y-96630000D03*
X178380000Y-96130000D03*
X178380000Y-95630000D03*
X178380000Y-95130000D03*
X178380000Y-94630000D03*
X178380000Y-94130000D03*
X178380000Y-93630000D03*
X178380000Y-93130000D03*
X178380000Y-92630000D03*
X178380000Y-92130000D03*
D23*
X177680000Y-91430000D03*
X177180000Y-91430000D03*
X176680000Y-91430000D03*
X176180000Y-91430000D03*
X175680000Y-91430000D03*
X175180000Y-91430000D03*
X174680000Y-91430000D03*
X174180000Y-91430000D03*
X173680000Y-91430000D03*
X173180000Y-91430000D03*
X172680000Y-91430000D03*
X172180000Y-91430000D03*
D24*
X174930000Y-94880000D03*
%TD*%
D25*
%TO.C,R10*%
X181050000Y-93175000D03*
X180030000Y-93175000D03*
%TD*%
D18*
%TO.C,C3*%
X171895000Y-99800000D03*
X172855000Y-99800000D03*
%TD*%
D14*
%TO.C,R15*%
X172500000Y-89190000D03*
X172500000Y-90210000D03*
%TD*%
D26*
%TO.C,Q5*%
X199150000Y-91925000D03*
X199150000Y-91275000D03*
X199150000Y-90625000D03*
X199150000Y-89975000D03*
D27*
X196225000Y-91925000D03*
X196225000Y-91275000D03*
D28*
X197300000Y-90950000D03*
D27*
X196225000Y-90625000D03*
X196225000Y-89975000D03*
%TD*%
D14*
%TO.C,R13*%
X181900000Y-109840000D03*
X181900000Y-110860000D03*
%TD*%
D29*
%TO.C,C5*%
X177770000Y-90075000D03*
X177770000Y-89115000D03*
%TD*%
D30*
%TO.C,C26*%
X193950000Y-100750000D03*
X192050000Y-100750000D03*
%TD*%
D19*
%TO.C,D6*%
X177250000Y-101100000D03*
X177250000Y-103300000D03*
%TD*%
D17*
%TO.C,D8*%
X157850000Y-100800000D03*
X158550000Y-100800000D03*
%TD*%
D29*
%TO.C,C22*%
X182850000Y-110830000D03*
X182850000Y-109870000D03*
%TD*%
D18*
%TO.C,C1*%
X176220000Y-99800000D03*
X177180000Y-99800000D03*
%TD*%
D31*
%TO.C,J1*%
X195850000Y-100000000D03*
X196333274Y-98833274D03*
X196333274Y-101166726D03*
X197500000Y-98350000D03*
D32*
X197500000Y-100000000D03*
D31*
X197500000Y-101650000D03*
X198666726Y-98833274D03*
X198666726Y-101166726D03*
X199150000Y-100000000D03*
%TD*%
D33*
%TO.C,C19*%
X159725000Y-94800000D03*
X158175000Y-94800000D03*
%TD*%
D14*
%TO.C,R17*%
X163525000Y-89190000D03*
X163525000Y-90210000D03*
%TD*%
D29*
%TO.C,C7*%
X171600000Y-90180000D03*
X171600000Y-89220000D03*
%TD*%
D34*
%TO.C,R23*%
X169850000Y-93510000D03*
X169850000Y-92490000D03*
%TD*%
D11*
%TO.C,C17*%
X169600000Y-98325000D03*
X169600000Y-96775000D03*
%TD*%
D35*
%TO.C,R6*%
X159190000Y-92950000D03*
X160210000Y-92950000D03*
%TD*%
D19*
%TO.C,D4*%
X175450000Y-101100000D03*
X175450000Y-103300000D03*
%TD*%
D35*
%TO.C,R4*%
X179315000Y-99620000D03*
X180335000Y-99620000D03*
%TD*%
%TO.C,R19*%
X191890000Y-107675000D03*
X192910000Y-107675000D03*
%TD*%
D18*
%TO.C,C4*%
X179345000Y-98650000D03*
X180305000Y-98650000D03*
%TD*%
D36*
%TO.C,U3*%
X169010000Y-99525000D03*
D37*
X169010000Y-100175000D03*
D38*
X170090000Y-100175000D03*
D39*
X170090000Y-99525000D03*
D40*
X169550000Y-99850000D03*
%TD*%
D34*
%TO.C,R12*%
X178720000Y-90105000D03*
X178720000Y-89085000D03*
%TD*%
D16*
%TO.C,C12*%
X165800000Y-107000000D03*
X160700000Y-107000000D03*
%TD*%
D14*
%TO.C,R16*%
X165450000Y-89190000D03*
X165450000Y-90210000D03*
%TD*%
D17*
%TO.C,D9*%
X157850000Y-99800000D03*
X158550000Y-99800000D03*
%TD*%
D14*
%TO.C,R27*%
X180300000Y-102240000D03*
X180300000Y-103260000D03*
%TD*%
D29*
%TO.C,C9*%
X164500000Y-90180000D03*
X164500000Y-89220000D03*
%TD*%
D15*
%TO.C,C8*%
X168500000Y-108700000D03*
X168500000Y-110600000D03*
%TD*%
%TO.C,C15*%
X172300000Y-108700000D03*
X172300000Y-110600000D03*
%TD*%
D26*
%TO.C,Q6*%
X161800000Y-93525000D03*
X161800000Y-94175000D03*
X161800000Y-94825000D03*
X161800000Y-95475000D03*
D27*
X164725000Y-93525000D03*
X164725000Y-94175000D03*
D28*
X163650000Y-94500000D03*
D27*
X164725000Y-94825000D03*
X164725000Y-95475000D03*
%TD*%
D41*
%TO.C,C11*%
X192200000Y-95550000D03*
X192200000Y-90450000D03*
%TD*%
D12*
%TO.C,C25*%
X170900000Y-99367500D03*
X170900000Y-100327500D03*
%TD*%
D14*
%TO.C,R22*%
X175400000Y-89090000D03*
X175400000Y-90110000D03*
%TD*%
D30*
%TO.C,C20*%
X193950000Y-98850000D03*
X192050000Y-98850000D03*
%TD*%
D42*
%TO.C,F1*%
X198750000Y-93950000D03*
X198750000Y-96750000D03*
%TD*%
D43*
%TO.C,J7*%
X169250000Y-103500000D03*
D44*
X171325000Y-103500000D03*
%TD*%
D45*
%TO.C,J2*%
X154625000Y-97110000D03*
X154625000Y-102890000D03*
D46*
X156070000Y-96750000D03*
X156070000Y-97550000D03*
D47*
X156070000Y-98750000D03*
X156070000Y-99750000D03*
X156070000Y-100250000D03*
X156070000Y-101250000D03*
D46*
X156070000Y-102450000D03*
X156070000Y-103250000D03*
X156070000Y-103250000D03*
X156070000Y-102450000D03*
D47*
X156070000Y-101750000D03*
X156070000Y-100750000D03*
X156070000Y-99250000D03*
X156070000Y-98250000D03*
D46*
X156070000Y-97550000D03*
X156070000Y-96750000D03*
D48*
X155155000Y-95680000D03*
D49*
X150975000Y-95680000D03*
D48*
X155155000Y-104320000D03*
D49*
X150975000Y-104320000D03*
%TD*%
D34*
%TO.C,R20*%
X197000000Y-94310000D03*
X197000000Y-93290000D03*
%TD*%
D50*
%TO.C,U4*%
X181350000Y-102400000D03*
X181350000Y-102900000D03*
X181350000Y-103400000D03*
X182850000Y-103400000D03*
X182850000Y-102900000D03*
X182850000Y-102400000D03*
%TD*%
D14*
%TO.C,R21*%
X174450000Y-89090000D03*
X174450000Y-90110000D03*
%TD*%
D19*
%TO.C,D2*%
X179050000Y-101100000D03*
X179050000Y-103300000D03*
%TD*%
D25*
%TO.C,R18*%
X188810000Y-103500000D03*
X187790000Y-103500000D03*
%TD*%
D14*
%TO.C,R14*%
X170625000Y-89190000D03*
X170625000Y-90210000D03*
%TD*%
D21*
%TO.C,C23*%
X190630000Y-103500000D03*
X189670000Y-103500000D03*
%TD*%
D31*
%TO.C,J3*%
X156230000Y-90850000D03*
X157396726Y-91333274D03*
X155063274Y-91333274D03*
X157880000Y-92500000D03*
D32*
X156230000Y-92500000D03*
D31*
X154580000Y-92500000D03*
X157396726Y-93666726D03*
X155063274Y-93666726D03*
X156230000Y-94150000D03*
%TD*%
D12*
%TO.C,C27*%
X183900000Y-102420000D03*
X183900000Y-103380000D03*
%TD*%
D41*
%TO.C,C13*%
X185250000Y-95550000D03*
X185250000Y-90450000D03*
%TD*%
D51*
%TO.C,Q13*%
X190009995Y-108605004D03*
D52*
X188960008Y-106705004D03*
D51*
X184090005Y-104794996D03*
X184090005Y-106064999D03*
X184090005Y-107335001D03*
X184090005Y-108605004D03*
D53*
X186490056Y-106700000D03*
%TD*%
D51*
%TO.C,Q12*%
X176555005Y-104794996D03*
D54*
X177604992Y-106694996D03*
D51*
X182474995Y-108605004D03*
X182474995Y-107335001D03*
X182474995Y-106064999D03*
X182474995Y-104794996D03*
D53*
X180074944Y-106700000D03*
%TD*%
D34*
%TO.C,R24*%
X197000000Y-96160000D03*
X197000000Y-95140000D03*
%TD*%
D20*
%TO.C,Q1*%
X162137500Y-91300000D03*
X162137500Y-90350000D03*
X162137500Y-89400000D03*
X159862500Y-89400000D03*
X159862500Y-90350000D03*
X159862500Y-91300000D03*
%TD*%
D43*
%TO.C,J4*%
X188500000Y-100000000D03*
D44*
X190575000Y-100000000D03*
%TD*%
D14*
%TO.C,R25*%
X168200000Y-96480000D03*
X168200000Y-97500000D03*
X168200000Y-98515000D03*
%TD*%
D55*
%TO.C,J5*%
X195025000Y-109200000D03*
X195025000Y-108200000D03*
X195025000Y-107200000D03*
X195025000Y-106200000D03*
X195025000Y-105200000D03*
X195025000Y-104200000D03*
D56*
X198900000Y-110500000D03*
X198900000Y-102900000D03*
%TD*%
D57*
%TO.C,U2*%
X181750000Y-100900000D03*
D58*
X183250000Y-100812500D03*
D57*
X184750000Y-100900000D03*
%TD*%
D29*
%TO.C,C6*%
X179750000Y-96105000D03*
X179750000Y-95145000D03*
%TD*%
D31*
%TO.C,J6*%
X156230000Y-109150000D03*
X155063274Y-108666726D03*
X157396726Y-108666726D03*
X154580000Y-107500000D03*
D32*
X156230000Y-107500000D03*
D31*
X157880000Y-107500000D03*
X155063274Y-106333274D03*
X157396726Y-106333274D03*
X156230000Y-105850000D03*
%TD*%
D59*
%TO.C,C24*%
X185075000Y-103250000D03*
X186625000Y-103250000D03*
%TD*%
D25*
%TO.C,R11*%
X181050000Y-92225000D03*
X180030000Y-92225000D03*
%TD*%
%TO.C,R9*%
X181050000Y-91275000D03*
X180030000Y-91275000D03*
%TD*%
D60*
%TO.C,Q3*%
X193050000Y-108750000D03*
X191750000Y-108750000D03*
X192400000Y-110750000D03*
%TD*%
D61*
%TO.C,R2*%
X192300000Y-105862500D03*
X192300000Y-102937500D03*
%TD*%
D62*
%TO.C,D1*%
X158200000Y-97225000D03*
X158200000Y-95975000D03*
%TD*%
D25*
%TO.C,R5*%
X181050000Y-90325000D03*
X180030000Y-90325000D03*
%TD*%
D63*
%TO.C,L1*%
X187100000Y-110500000D03*
X177100000Y-110500000D03*
%TD*%
M02*
