%TF.GenerationSoftware,KiCad,Pcbnew,8.0.3*%
%TF.CreationDate,2024-10-12T12:31:44+02:00*%
%TF.ProjectId,Parkside-100W-Brick,5061726b-7369-4646-952d-313030572d42,rev?*%
%TF.SameCoordinates,Original*%
%TF.FileFunction,Copper,L5,Inr*%
%TF.FilePolarity,Positive*%
%FSLAX46Y46*%
G04 Gerber Fmt 4.6, Leading zero omitted, Abs format (unit mm)*
G04 Created by KiCad (PCBNEW 8.0.3) date 2024-10-12 12:31:44*
%MOMM*%
%LPD*%
G01*
G04 APERTURE LIST*
%TA.AperFunction,ComponentPad*%
%ADD10C,0.700000*%
%TD*%
%TA.AperFunction,ComponentPad*%
%ADD11C,4.400000*%
%TD*%
%TA.AperFunction,ComponentPad*%
%ADD12O,2.100000X1.000000*%
%TD*%
%TA.AperFunction,ComponentPad*%
%ADD13O,1.600000X1.000000*%
%TD*%
%TA.AperFunction,ComponentPad*%
%ADD14R,6.500000X1.500000*%
%TD*%
%TA.AperFunction,ViaPad*%
%ADD15C,0.600000*%
%TD*%
%TA.AperFunction,ViaPad*%
%ADD16C,0.450000*%
%TD*%
%TA.AperFunction,Conductor*%
%ADD17C,0.200000*%
%TD*%
%TA.AperFunction,Conductor*%
%ADD18C,0.250000*%
%TD*%
G04 APERTURE END LIST*
D10*
%TO.N,Net-(J1-Pin_1)*%
%TO.C,J1*%
X195850000Y-100000000D03*
X196333274Y-98833274D03*
X196333274Y-101166726D03*
X197500000Y-98350000D03*
D11*
X197500000Y-100000000D03*
D10*
X197500000Y-101650000D03*
X198666726Y-98833274D03*
X198666726Y-101166726D03*
X199150000Y-100000000D03*
%TD*%
D12*
%TO.N,GND*%
%TO.C,J2*%
X155155000Y-95680000D03*
D13*
X150975000Y-95680000D03*
D12*
X155155000Y-104320000D03*
D13*
X150975000Y-104320000D03*
%TD*%
D10*
%TO.N,GND*%
%TO.C,J3*%
X156230000Y-90850000D03*
X157396726Y-91333274D03*
X155063274Y-91333274D03*
X157880000Y-92500000D03*
D11*
X156230000Y-92500000D03*
D10*
X154580000Y-92500000D03*
X157396726Y-93666726D03*
X155063274Y-93666726D03*
X156230000Y-94150000D03*
%TD*%
%TO.N,GND*%
%TO.C,J6*%
X156230000Y-109150000D03*
X155063274Y-108666726D03*
X157396726Y-108666726D03*
X154580000Y-107500000D03*
D11*
X156230000Y-107500000D03*
D10*
X157880000Y-107500000D03*
X155063274Y-106333274D03*
X157396726Y-106333274D03*
X156230000Y-105850000D03*
%TD*%
D14*
%TO.N,/IP2368 Buck-Boost-Converter/HB2*%
%TO.C,L1*%
X187100000Y-110500000D03*
%TO.N,/IP2368 Buck-Boost-Converter/HB1*%
X177100000Y-110500000D03*
%TD*%
D15*
%TO.N,GND*%
X163500000Y-110500000D03*
X189000000Y-91500000D03*
X152500000Y-101500000D03*
X177000000Y-96000000D03*
X173000000Y-95000000D03*
X159000000Y-110500000D03*
X151500000Y-92500000D03*
X190275352Y-98975000D03*
X162000000Y-109000000D03*
X183000000Y-94500000D03*
X169250000Y-101450000D03*
X175000000Y-97000000D03*
X192200000Y-91600000D03*
X152500000Y-98500000D03*
X189525000Y-101775352D03*
X160500000Y-101500000D03*
D16*
X195025000Y-109200000D03*
D15*
X182200000Y-107025000D03*
X182933333Y-105700000D03*
X151500000Y-94000000D03*
X157500000Y-89500000D03*
X153000000Y-92500000D03*
X159000000Y-104500000D03*
X181100000Y-99600000D03*
D16*
X169550000Y-99850000D03*
D15*
X177000000Y-94000000D03*
X181500000Y-90000000D03*
X199500000Y-110500000D03*
X172500000Y-89190000D03*
X180400000Y-89200000D03*
X151500000Y-109000000D03*
X173000000Y-94000000D03*
X161850000Y-100100000D03*
X153000000Y-110500000D03*
X189000000Y-90000000D03*
X173000000Y-96000000D03*
X186000000Y-90000000D03*
X185800000Y-98800000D03*
X153000000Y-95500000D03*
X177000000Y-97000000D03*
X151000000Y-100000000D03*
X154500000Y-110500000D03*
X152500000Y-100000000D03*
X152500000Y-103000000D03*
X171025352Y-102475000D03*
X151500000Y-107500000D03*
X171000000Y-110500000D03*
X185250000Y-91600000D03*
X178800000Y-89200000D03*
X175000000Y-95000000D03*
X166500000Y-110500000D03*
X159500000Y-107000000D03*
X157750000Y-95000000D03*
X181500000Y-94500000D03*
D16*
X169850000Y-92275000D03*
D15*
X181100000Y-98800000D03*
X151000000Y-101500000D03*
X183000000Y-90000000D03*
X151000000Y-97000000D03*
X192200000Y-89200000D03*
X185800000Y-99600000D03*
X153000000Y-107500000D03*
X153000000Y-89500000D03*
X181500000Y-93000000D03*
X186000000Y-91500000D03*
X159000000Y-106000000D03*
X182933333Y-106350000D03*
X182200000Y-106350000D03*
X181100000Y-98000000D03*
X174000000Y-94000000D03*
X154500000Y-89500000D03*
X182200000Y-107700000D03*
X152500000Y-97000000D03*
X187500000Y-90000000D03*
X169250000Y-105550000D03*
X192200000Y-90000000D03*
X183666666Y-107025000D03*
X174000000Y-93000000D03*
X199500000Y-102900000D03*
X181900000Y-99600000D03*
X175000000Y-93000000D03*
X188500000Y-102050000D03*
X190550000Y-100000000D03*
X182933333Y-107025000D03*
X190275352Y-101025000D03*
X173000000Y-93000000D03*
X181900000Y-100400000D03*
X151500000Y-91000000D03*
X185250000Y-90800000D03*
X185250000Y-89200000D03*
X190500000Y-90000000D03*
X167474648Y-102475000D03*
X184500000Y-90000000D03*
X186724648Y-98975000D03*
X151500000Y-106000000D03*
X160300000Y-107000000D03*
X175000000Y-94000000D03*
D16*
X168675000Y-100275000D03*
D15*
X161100000Y-107000000D03*
X160500000Y-110500000D03*
X183666666Y-107700000D03*
X183666666Y-105700000D03*
X153000000Y-104500000D03*
X181900000Y-98000000D03*
X183000000Y-91500000D03*
X176000000Y-96000000D03*
X198300000Y-102900000D03*
X162000000Y-106000000D03*
X157500000Y-104500000D03*
X162000000Y-101500000D03*
X174000000Y-96000000D03*
X165000000Y-110500000D03*
X160500000Y-104500000D03*
X171300000Y-103500000D03*
X173000000Y-97000000D03*
X181500000Y-91500000D03*
X157500000Y-110500000D03*
X174000000Y-95000000D03*
X176000000Y-97000000D03*
X176000000Y-94000000D03*
X182925000Y-108375000D03*
X160900000Y-99300000D03*
D16*
X168075000Y-100275000D03*
D15*
X182933333Y-107700000D03*
X182200000Y-105700000D03*
X158500000Y-95000000D03*
X181100000Y-100400000D03*
X160500000Y-103000000D03*
X151500000Y-110500000D03*
X157000000Y-95000000D03*
D16*
X169350000Y-96775000D03*
D15*
X181900000Y-98800000D03*
X158500000Y-95750000D03*
X198300000Y-110500000D03*
X162000000Y-110500000D03*
X153000000Y-94000000D03*
X187475000Y-98224648D03*
X170275000Y-105275352D03*
X168000000Y-110500000D03*
X176000000Y-93000000D03*
X162000000Y-103000000D03*
X177000000Y-95000000D03*
X185000000Y-98000000D03*
X186724648Y-101025000D03*
X177000000Y-93000000D03*
X153000000Y-91000000D03*
X187475000Y-101775352D03*
X159000000Y-109000000D03*
X183666666Y-106350000D03*
X157750000Y-95750000D03*
X172500000Y-110500000D03*
X185250000Y-90000000D03*
X174000000Y-97000000D03*
X159000000Y-101500000D03*
X168225000Y-105275352D03*
X168225000Y-101724648D03*
X192200000Y-99300000D03*
X192200000Y-101200000D03*
X156000000Y-110500000D03*
X166962500Y-90350000D03*
X185800000Y-98000000D03*
X192200000Y-98400000D03*
X185000000Y-98800000D03*
D16*
X169850000Y-96775000D03*
D15*
X189525000Y-98224648D03*
X167474648Y-104525000D03*
X160500000Y-109000000D03*
X158800000Y-98850000D03*
X160500000Y-106000000D03*
X162000000Y-104500000D03*
X175000000Y-96000000D03*
X176000000Y-95000000D03*
X192200000Y-100300000D03*
X183666666Y-105050000D03*
X167200000Y-103500000D03*
X187500000Y-91500000D03*
X192200000Y-90800000D03*
X153000000Y-106000000D03*
X185000000Y-99600000D03*
X177800000Y-89200000D03*
X159000000Y-103000000D03*
X151000000Y-103000000D03*
D16*
X170900000Y-100450000D03*
D15*
X179050000Y-103300000D03*
X173650000Y-103300000D03*
X188500000Y-97950000D03*
X151000000Y-98500000D03*
X191750000Y-108750000D03*
X184500000Y-91500000D03*
X151500000Y-89500000D03*
X161900000Y-107000000D03*
X183000000Y-93000000D03*
X182850000Y-110850000D03*
X157000000Y-95750000D03*
X169500000Y-110500000D03*
X161050000Y-100100000D03*
X158500000Y-94250000D03*
X182191666Y-108375000D03*
X160250000Y-100100000D03*
X186450000Y-100000000D03*
X190500000Y-91500000D03*
X171025352Y-104525000D03*
X156000000Y-89500000D03*
X153000000Y-109000000D03*
X170275000Y-101724648D03*
%TO.N,Net-(J1-Pin_1)*%
X198100000Y-96400000D03*
X198100000Y-97050000D03*
X199400000Y-96400000D03*
X198750000Y-97700000D03*
X198750000Y-97050000D03*
X199400000Y-97050000D03*
X199400000Y-97700000D03*
X199400000Y-98350000D03*
X198750000Y-96400000D03*
%TO.N,/IP2368 Buck-Boost-Converter/HB2*%
X186750000Y-107000000D03*
X186750000Y-108500000D03*
X186000000Y-104750000D03*
X187500000Y-104750000D03*
X185250000Y-107750000D03*
X186750000Y-107750000D03*
X186000000Y-107000000D03*
X186000000Y-106250000D03*
X186750000Y-105500000D03*
X186000000Y-105500000D03*
X187500000Y-107750000D03*
X187500000Y-107000000D03*
X187500000Y-106250000D03*
X186000000Y-108500000D03*
X185250000Y-108500000D03*
X186750000Y-104750000D03*
D16*
X176220000Y-99800000D03*
D15*
X185250000Y-105500000D03*
X187500000Y-108500000D03*
X185250000Y-106250000D03*
X185250000Y-104750000D03*
X187500000Y-105500000D03*
X186750000Y-106250000D03*
X186000000Y-107750000D03*
X185250000Y-107000000D03*
%TO.N,/IP2368 Buck-Boost-Converter/HB1*%
X179000000Y-109250000D03*
X181250000Y-104750000D03*
X179750000Y-107000000D03*
X181250000Y-106250000D03*
X179000000Y-107750000D03*
X181250000Y-107000000D03*
X179000000Y-107000000D03*
X179750000Y-107750000D03*
X180500000Y-109250000D03*
X180500000Y-107000000D03*
X179750000Y-106250000D03*
X179000000Y-104750000D03*
X180500000Y-105500000D03*
X179750000Y-104750000D03*
X179750000Y-108500000D03*
D16*
X174980000Y-99800000D03*
D15*
X180500000Y-107750000D03*
X180500000Y-104750000D03*
X181250000Y-105500000D03*
X179750000Y-109250000D03*
X179000000Y-106250000D03*
X181250000Y-108500000D03*
X179000000Y-105500000D03*
X180500000Y-108500000D03*
X180500000Y-106250000D03*
X181250000Y-107750000D03*
X179000000Y-108500000D03*
X179750000Y-105500000D03*
D16*
%TO.N,/Battery Interface/I^{2}C_INT*%
X195025000Y-108200000D03*
X170600000Y-93510000D03*
%TO.N,+5V*%
X185300000Y-103500000D03*
X184750000Y-102700000D03*
X184750000Y-103500000D03*
X168075000Y-95175000D03*
D15*
X177250000Y-103300000D03*
X175450000Y-103300000D03*
D16*
X168075000Y-94675000D03*
X171000000Y-99150000D03*
X168575000Y-94675000D03*
X168575000Y-95175000D03*
X185300000Y-102700000D03*
X171000000Y-99600000D03*
X185025000Y-103100000D03*
%TO.N,/IP2368 Buck-Boost-Converter/HLED*%
X170600000Y-94275000D03*
X165450000Y-90210000D03*
%TO.N,/Connector/PORT1_D+*%
X157875000Y-100800000D03*
X176725000Y-89825000D03*
D15*
%TO.N,/Connector/PORT1_CC2*%
X166962500Y-89550000D03*
D16*
X157850000Y-101800000D03*
X177175000Y-90950000D03*
%TO.N,/Connector/PORT1_CC1*%
X157850000Y-98800000D03*
X175675000Y-90950000D03*
D15*
X159862500Y-89400000D03*
%TO.N,/IP2368 Buck-Boost-Converter/HB_IN*%
X176500000Y-105750000D03*
X175000000Y-108750000D03*
X175000000Y-108000000D03*
X175750000Y-105750000D03*
X175750000Y-106500000D03*
X176500000Y-107250000D03*
X175750000Y-108000000D03*
X178000000Y-108750000D03*
X178000000Y-108000000D03*
X176500000Y-108000000D03*
X175000000Y-106500000D03*
X175750000Y-108750000D03*
X176500000Y-108750000D03*
D16*
X173175000Y-98900000D03*
D15*
X177250000Y-108750000D03*
X175750000Y-107250000D03*
X177250000Y-108000000D03*
X178000000Y-107250000D03*
X176500000Y-106500000D03*
X177250000Y-106500000D03*
X177250000Y-105750000D03*
X175000000Y-107250000D03*
X178000000Y-105000000D03*
X178000000Y-105750000D03*
X175000000Y-105750000D03*
X178000000Y-106500000D03*
X177250000Y-107250000D03*
D16*
%TO.N,/IP2368 Buck-Boost-Converter/LG2*%
X175680000Y-98895000D03*
D15*
X184090005Y-108605004D03*
%TO.N,/IP2368 Buck-Boost-Converter/HB_BAT*%
X190250000Y-107000000D03*
D16*
X192300000Y-104600000D03*
D15*
X190250000Y-104750000D03*
X188750000Y-106250000D03*
X188750000Y-107750000D03*
X189500000Y-104750000D03*
X189500000Y-107000000D03*
X188750000Y-105500000D03*
X188750000Y-104750000D03*
D16*
X180335000Y-99620000D03*
D15*
X189500000Y-106250000D03*
X190250000Y-106250000D03*
D16*
X177800000Y-98900000D03*
D15*
X190250000Y-105500000D03*
X188750000Y-107000000D03*
X189500000Y-105500000D03*
D16*
%TO.N,/IP2368 Buck-Boost-Converter/HG2*%
X177200000Y-98900000D03*
D15*
X190009995Y-108605004D03*
D16*
%TO.N,/Connector/PORT1_D-*%
X157850000Y-99800000D03*
X176125000Y-89814070D03*
D15*
%TO.N,/Connector/POWER_VBUS*%
X158925000Y-96825000D03*
X153500000Y-98000000D03*
X160900000Y-96300000D03*
X154500000Y-100000000D03*
X161150000Y-93150000D03*
X161150000Y-93850000D03*
X160900000Y-97000000D03*
X157575000Y-97525000D03*
X158925000Y-97525000D03*
X158250000Y-96825000D03*
X160900000Y-95600000D03*
X159600000Y-95250000D03*
X159600000Y-96650000D03*
X160450000Y-93850000D03*
X160275000Y-97350000D03*
X159750000Y-93850000D03*
X154500000Y-99000000D03*
X153500000Y-100000000D03*
X154500000Y-101000000D03*
X161150000Y-94550000D03*
X153500000Y-99000000D03*
X159600000Y-97350000D03*
X154750000Y-102000000D03*
X153500000Y-102000000D03*
X159600000Y-95950000D03*
X160275000Y-95950000D03*
X160450000Y-93150000D03*
X160275000Y-96650000D03*
X159750000Y-94550000D03*
X158250000Y-97525000D03*
X160275000Y-95250000D03*
X153500000Y-101000000D03*
X160450000Y-94550000D03*
X154750000Y-98000000D03*
%TO.N,/Battery Interface/VBAT*%
X199500000Y-94075000D03*
X198825000Y-92050000D03*
X198150000Y-94075000D03*
X198825000Y-94075000D03*
X199500000Y-92725000D03*
X199500000Y-92050000D03*
X199500000Y-90700000D03*
X198150000Y-93400000D03*
X198825000Y-91375000D03*
X198825000Y-93400000D03*
X199500000Y-93400000D03*
X198825000Y-92725000D03*
X198825000Y-90700000D03*
X199500000Y-91375000D03*
%TO.N,+3.3V*%
X174450000Y-89090000D03*
D16*
X180300000Y-102240000D03*
X195650000Y-105200000D03*
X183900000Y-102625000D03*
X168200000Y-99367500D03*
D15*
%TO.N,/IP2368 Buck-Boost-Converter/BAT*%
X192000000Y-93500000D03*
X193500000Y-98500000D03*
X194900000Y-92000000D03*
X193500000Y-100750000D03*
X194250000Y-100750000D03*
X197975000Y-90950000D03*
X193500000Y-95000000D03*
X196025000Y-89650000D03*
X193500000Y-97750000D03*
X194900000Y-90500000D03*
X196675000Y-89650000D03*
X187500000Y-95000000D03*
X193500000Y-96500000D03*
X197325000Y-90950000D03*
X193500000Y-89000000D03*
X194250000Y-97750000D03*
X192750000Y-102250000D03*
X197325000Y-92250000D03*
X192200000Y-94400000D03*
X196025000Y-92250000D03*
X196025000Y-90950000D03*
X192200000Y-95200000D03*
X193500000Y-102250000D03*
X194250000Y-102250000D03*
X194250000Y-101500000D03*
D16*
X192300000Y-103900000D03*
D15*
X197975000Y-89650000D03*
X196025000Y-90300000D03*
X195000000Y-96500000D03*
X192200000Y-96800000D03*
X186000000Y-95000000D03*
X189000000Y-96500000D03*
X185250000Y-96800000D03*
X195000000Y-103000000D03*
X192000000Y-102250000D03*
X195000000Y-95000000D03*
X196675000Y-90300000D03*
X194900000Y-89000000D03*
X197325000Y-89650000D03*
X187500000Y-96500000D03*
X189000000Y-93500000D03*
X197975000Y-91600000D03*
X187500000Y-93500000D03*
X189000000Y-95000000D03*
X195000000Y-93500000D03*
X192200000Y-96000000D03*
X194250000Y-99250000D03*
X186000000Y-96500000D03*
X190500000Y-93500000D03*
X193500000Y-92000000D03*
X193500000Y-93500000D03*
X194250000Y-103000000D03*
X196025000Y-91600000D03*
X197325000Y-90300000D03*
X197975000Y-90300000D03*
X193500000Y-103000000D03*
X196675000Y-92250000D03*
X190500000Y-95000000D03*
X195000000Y-102250000D03*
X192750000Y-103000000D03*
D16*
X180305000Y-98650000D03*
D15*
X194250000Y-98500000D03*
X193500000Y-99250000D03*
X194250000Y-100000000D03*
X197975000Y-92250000D03*
X185250000Y-94400000D03*
X193500000Y-90500000D03*
X190500000Y-96500000D03*
X197325000Y-91600000D03*
X186000000Y-93500000D03*
X193500000Y-101500000D03*
X185250000Y-95200000D03*
X185250000Y-96000000D03*
X196675000Y-90950000D03*
X196675000Y-91600000D03*
X193500000Y-100000000D03*
D16*
%TO.N,/IP2368 Buck-Boost-Converter/VBUS_G*%
X170050000Y-95425000D03*
D15*
X161800000Y-95550000D03*
%TO.N,Net-(Q3-D)*%
X197000000Y-96160000D03*
X192400000Y-110750000D03*
%TO.N,Net-(Q5-G)*%
X197000000Y-94310000D03*
X199150000Y-89850000D03*
%TO.N,/IP2368 Buck-Boost-Converter/CSP1*%
X166200000Y-94800000D03*
X163500000Y-101750000D03*
X165500000Y-108750000D03*
X164500000Y-101750000D03*
X163500000Y-99750000D03*
X163500000Y-106750000D03*
X165675000Y-93400000D03*
X165500000Y-103750000D03*
X164100000Y-95500000D03*
X164800000Y-96200000D03*
X163500000Y-103750000D03*
X164500000Y-108750000D03*
X166250000Y-100100000D03*
X167690000Y-106300000D03*
X164500000Y-105750000D03*
X163400000Y-96200000D03*
X162700000Y-96200000D03*
X168500000Y-108750000D03*
X167100000Y-107000000D03*
X162700000Y-93400000D03*
X167275000Y-96225000D03*
X163500000Y-104750000D03*
X166500000Y-105750000D03*
X162700000Y-95500000D03*
X166300000Y-107000000D03*
X163500000Y-107750000D03*
X165500000Y-95500000D03*
X167500000Y-108750000D03*
X170820000Y-106300000D03*
X172500000Y-108750000D03*
X165500000Y-98750000D03*
X164650000Y-100100000D03*
X170500000Y-107750000D03*
X163500000Y-105750000D03*
X164800000Y-94100000D03*
X164100000Y-96200000D03*
X167300000Y-98800000D03*
X162700000Y-94100000D03*
X163400000Y-94800000D03*
X165500000Y-102750000D03*
X169500000Y-107750000D03*
X166900000Y-97900000D03*
X163400000Y-94100000D03*
X163900000Y-97900000D03*
X172375000Y-105725000D03*
X165500000Y-107000000D03*
X164100000Y-93400000D03*
X164900000Y-97900000D03*
D16*
X169350000Y-98350000D03*
X169850000Y-98350000D03*
D15*
X166500000Y-101750000D03*
X167050000Y-100100000D03*
X166500000Y-108750000D03*
X164800000Y-95500000D03*
X164500000Y-103750000D03*
X165500000Y-105750000D03*
X162900000Y-97900000D03*
X164100000Y-94100000D03*
X169500000Y-108750000D03*
X162700000Y-94800000D03*
X171500000Y-106750000D03*
X166200000Y-96200000D03*
X165450000Y-100100000D03*
X164100000Y-94800000D03*
X166200000Y-95500000D03*
X164500000Y-102750000D03*
X171500000Y-107750000D03*
X170500000Y-108750000D03*
X163400000Y-95500000D03*
X166500000Y-94200000D03*
X165900000Y-97900000D03*
X163500000Y-102750000D03*
X164800000Y-94800000D03*
X163500000Y-98750000D03*
X165500000Y-94800000D03*
X167275000Y-95050000D03*
X168500000Y-107750000D03*
X164500000Y-104750000D03*
X166500000Y-98750000D03*
X165500000Y-101750000D03*
X165500000Y-104750000D03*
X164700000Y-107000000D03*
X163500000Y-100750000D03*
X172500000Y-107750000D03*
X165500000Y-96200000D03*
X171500000Y-108750000D03*
X165500000Y-94100000D03*
X169250000Y-106710000D03*
X164800000Y-93400000D03*
X163400000Y-93400000D03*
X164500000Y-98750000D03*
D16*
%TO.N,/Battery Interface/I^{2}C_SDA*%
X182900000Y-102300000D03*
X195025000Y-107200000D03*
D15*
X175400000Y-89850000D03*
D16*
%TO.N,/Battery Interface/I^{2}C_SCL*%
X195025000Y-106200000D03*
X181350000Y-102300000D03*
D15*
X174450000Y-90110000D03*
D16*
%TO.N,Net-(R25-C)*%
X168575000Y-97500000D03*
X182900000Y-103450000D03*
%TD*%
D17*
%TO.N,/IP2368 Buck-Boost-Converter/HLED*%
X169515000Y-94275000D02*
X165450000Y-90210000D01*
X170600000Y-94275000D02*
X169515000Y-94275000D01*
%TO.N,/Connector/PORT1_CC2*%
X159027000Y-93698000D02*
X159027000Y-95973000D01*
X168912500Y-91500000D02*
X176625000Y-91500000D01*
X176825000Y-91300000D02*
X177175000Y-90950000D01*
X176825000Y-91300000D02*
X176723000Y-91402000D01*
X158702000Y-96298000D02*
X157727000Y-96298000D01*
X157048000Y-96977000D02*
X157048000Y-100998000D01*
X157727000Y-96298000D02*
X157048000Y-96977000D01*
X157048000Y-100998000D02*
X157850000Y-101800000D01*
X163175000Y-89550000D02*
X159027000Y-93698000D01*
X166962500Y-89550000D02*
X168912500Y-91500000D01*
X176625000Y-91500000D02*
X176825000Y-91300000D01*
X166962500Y-89550000D02*
X163175000Y-89550000D01*
X159027000Y-95973000D02*
X158702000Y-96298000D01*
%TO.N,/Connector/PORT1_CC1*%
X162500000Y-89400000D02*
X159862500Y-89400000D01*
X167525000Y-88975000D02*
X162925000Y-88975000D01*
X175675000Y-90950000D02*
X169500000Y-90950000D01*
X162925000Y-88975000D02*
X162500000Y-89400000D01*
X169500000Y-90950000D02*
X167525000Y-88975000D01*
%TO.N,/IP2368 Buck-Boost-Converter/HB_BAT*%
X190900000Y-103200000D02*
X187200000Y-103200000D01*
X185025000Y-101025000D02*
X180775000Y-101025000D01*
X180775000Y-101025000D02*
X180335000Y-100585000D01*
X192300000Y-104600000D02*
X190900000Y-103200000D01*
X180335000Y-100585000D02*
X180335000Y-99620000D01*
X187200000Y-103200000D02*
X185025000Y-101025000D01*
%TO.N,/IP2368 Buck-Boost-Converter/BAT*%
X192300000Y-103900000D02*
X191200000Y-102800000D01*
X187400000Y-102800000D02*
X185100000Y-100500000D01*
X180305000Y-97845000D02*
X180305000Y-98650000D01*
X182800000Y-99100000D02*
X182800000Y-97900000D01*
X185100000Y-100500000D02*
X184200000Y-100500000D01*
X191200000Y-102800000D02*
X187400000Y-102800000D01*
X180750000Y-97400000D02*
X180305000Y-97845000D01*
X184200000Y-100500000D02*
X182800000Y-99100000D01*
X182300000Y-97400000D02*
X180750000Y-97400000D01*
X182800000Y-97900000D02*
X182300000Y-97400000D01*
D18*
%TO.N,/IP2368 Buck-Boost-Converter/VBUS_G*%
X161800000Y-95550000D02*
X161800000Y-96550000D01*
X168425420Y-97025000D02*
X170025420Y-95425000D01*
X162275000Y-97025000D02*
X168425420Y-97025000D01*
X161800000Y-96550000D02*
X162275000Y-97025000D01*
X170025420Y-95425000D02*
X170050000Y-95425000D01*
D17*
%TO.N,/Battery Interface/I^{2}C_SDA*%
X175950000Y-89300000D02*
X175400000Y-89850000D01*
X179800000Y-100800000D02*
X179800000Y-92075000D01*
X190750000Y-103600000D02*
X187000000Y-103600000D01*
X185500000Y-102100000D02*
X183600000Y-102100000D01*
X182150000Y-101550000D02*
X180550000Y-101550000D01*
X183600000Y-102100000D02*
X183400000Y-102300000D01*
X195575000Y-106650000D02*
X195575000Y-105950000D01*
X187000000Y-103600000D02*
X185500000Y-102100000D01*
X180550000Y-101550000D02*
X179800000Y-100800000D01*
X177025000Y-89300000D02*
X175950000Y-89300000D01*
X191450000Y-104675000D02*
X191450000Y-104300000D01*
X194825000Y-105200000D02*
X191975000Y-105200000D01*
X183400000Y-102300000D02*
X182900000Y-102300000D01*
X179800000Y-92075000D02*
X177025000Y-89300000D01*
X195575000Y-105950000D02*
X194825000Y-105200000D01*
X195025000Y-107200000D02*
X195575000Y-106650000D01*
X191975000Y-105200000D02*
X191450000Y-104675000D01*
X182900000Y-102300000D02*
X182150000Y-101550000D01*
X191450000Y-104300000D02*
X190750000Y-103600000D01*
%TO.N,/Battery Interface/I^{2}C_SCL*%
X180850000Y-102800000D02*
X181350000Y-102300000D01*
X190925000Y-104775000D02*
X190925000Y-104325000D01*
X191850000Y-105700000D02*
X190925000Y-104775000D01*
X194525000Y-105700000D02*
X191850000Y-105700000D01*
X179300000Y-92200000D02*
X179300000Y-102100000D01*
X180000000Y-102800000D02*
X180850000Y-102800000D01*
X179300000Y-102100000D02*
X180000000Y-102800000D01*
X184250000Y-104000000D02*
X183150000Y-102900000D01*
X195025000Y-106200000D02*
X194525000Y-105700000D01*
X174450000Y-90110000D02*
X174810000Y-90470000D01*
X190925000Y-104325000D02*
X190600000Y-104000000D01*
X190600000Y-104000000D02*
X184250000Y-104000000D01*
X183150000Y-102900000D02*
X181950000Y-102900000D01*
X174810000Y-90470000D02*
X177570000Y-90470000D01*
X181950000Y-102900000D02*
X181350000Y-102300000D01*
X177570000Y-90470000D02*
X179300000Y-92200000D01*
%TD*%
%TA.AperFunction,Conductor*%
%TO.N,+5V*%
G36*
X171168039Y-98944685D02*
G01*
X171213794Y-98997489D01*
X171225000Y-99049000D01*
X171225000Y-99701000D01*
X171205315Y-99768039D01*
X171152511Y-99813794D01*
X171101000Y-99825000D01*
X170899000Y-99825000D01*
X170831961Y-99805315D01*
X170786206Y-99752511D01*
X170775000Y-99701000D01*
X170775000Y-99049000D01*
X170794685Y-98981961D01*
X170847489Y-98936206D01*
X170899000Y-98925000D01*
X171101000Y-98925000D01*
X171168039Y-98944685D01*
G37*
%TD.AperFunction*%
%TD*%
%TA.AperFunction,Conductor*%
%TO.N,Net-(J1-Pin_1)*%
G36*
X199643039Y-96119685D02*
G01*
X199688794Y-96172489D01*
X199700000Y-96224000D01*
X199700000Y-99876000D01*
X199680315Y-99943039D01*
X199627511Y-99988794D01*
X199576000Y-100000000D01*
X197551362Y-100000000D01*
X197484323Y-99980315D01*
X197463681Y-99963681D01*
X196031906Y-98531906D01*
X195998421Y-98470583D01*
X196003405Y-98400891D01*
X196026140Y-98362717D01*
X197962938Y-96142486D01*
X198021842Y-96104907D01*
X198056381Y-96100000D01*
X199576000Y-96100000D01*
X199643039Y-96119685D01*
G37*
%TD.AperFunction*%
%TD*%
%TA.AperFunction,Conductor*%
%TO.N,/IP2368 Buck-Boost-Converter/CSP1*%
G36*
X170018039Y-98144685D02*
G01*
X170063794Y-98197489D01*
X170075000Y-98249000D01*
X170075000Y-98451000D01*
X170055315Y-98518039D01*
X170002511Y-98563794D01*
X169951000Y-98575000D01*
X169249000Y-98575000D01*
X169181961Y-98555315D01*
X169136206Y-98502511D01*
X169125000Y-98451000D01*
X169125000Y-98249000D01*
X169144685Y-98181961D01*
X169197489Y-98136206D01*
X169249000Y-98125000D01*
X169951000Y-98125000D01*
X170018039Y-98144685D01*
G37*
%TD.AperFunction*%
%TD*%
%TA.AperFunction,Conductor*%
%TO.N,+5V*%
G36*
X168743039Y-94469685D02*
G01*
X168788794Y-94522489D01*
X168800000Y-94574000D01*
X168800000Y-95276000D01*
X168780315Y-95343039D01*
X168727511Y-95388794D01*
X168676000Y-95400000D01*
X167974000Y-95400000D01*
X167906961Y-95380315D01*
X167861206Y-95327511D01*
X167850000Y-95276000D01*
X167850000Y-94574000D01*
X167869685Y-94506961D01*
X167922489Y-94461206D01*
X167974000Y-94450000D01*
X168676000Y-94450000D01*
X168743039Y-94469685D01*
G37*
%TD.AperFunction*%
%TD*%
%TA.AperFunction,Conductor*%
%TO.N,/IP2368 Buck-Boost-Converter/HB1*%
G36*
X181568039Y-104319685D02*
G01*
X181613794Y-104372489D01*
X181625000Y-104424000D01*
X181625000Y-109176000D01*
X181605315Y-109243039D01*
X181552511Y-109288794D01*
X181501000Y-109300000D01*
X181249999Y-109300000D01*
X181050000Y-109499999D01*
X181050000Y-111175500D01*
X181030315Y-111242539D01*
X180977511Y-111288294D01*
X180926000Y-111299500D01*
X173899000Y-111299500D01*
X173831961Y-111279815D01*
X173786206Y-111227011D01*
X173775000Y-111175500D01*
X173775000Y-109724000D01*
X173794685Y-109656961D01*
X173847489Y-109611206D01*
X173899000Y-109600000D01*
X178400000Y-109600000D01*
X178575000Y-109400000D01*
X178575000Y-104424000D01*
X178594685Y-104356961D01*
X178647489Y-104311206D01*
X178699000Y-104300000D01*
X181501000Y-104300000D01*
X181568039Y-104319685D01*
G37*
%TD.AperFunction*%
%TD*%
%TA.AperFunction,Conductor*%
%TO.N,/Battery Interface/VBAT*%
G36*
X199742539Y-90419685D02*
G01*
X199788294Y-90472489D01*
X199799500Y-90524000D01*
X199799500Y-94451000D01*
X199779815Y-94518039D01*
X199727011Y-94563794D01*
X199675500Y-94575000D01*
X197824000Y-94575000D01*
X197756961Y-94555315D01*
X197711206Y-94502511D01*
X197700000Y-94451000D01*
X197700000Y-93024000D01*
X197719685Y-92956961D01*
X197772489Y-92911206D01*
X197824000Y-92900000D01*
X198525000Y-92900000D01*
X198525000Y-90524000D01*
X198544685Y-90456961D01*
X198597489Y-90411206D01*
X198649000Y-90400000D01*
X199675500Y-90400000D01*
X199742539Y-90419685D01*
G37*
%TD.AperFunction*%
%TD*%
%TA.AperFunction,Conductor*%
%TO.N,/IP2368 Buck-Boost-Converter/CSP1*%
G36*
X167523532Y-97370185D02*
G01*
X167569287Y-97422989D01*
X167580489Y-97475439D01*
X167550384Y-101449188D01*
X167530193Y-101516077D01*
X167514069Y-101535930D01*
X166600000Y-102449999D01*
X166600000Y-102450000D01*
X166600000Y-104600000D01*
X168300000Y-106300000D01*
X170250000Y-106300000D01*
X171113681Y-105436319D01*
X171175004Y-105402834D01*
X171201362Y-105400000D01*
X172773638Y-105400000D01*
X172840677Y-105419685D01*
X172861319Y-105436319D01*
X173013681Y-105588681D01*
X173047166Y-105650004D01*
X173050000Y-105676362D01*
X173050000Y-109076000D01*
X173030315Y-109143039D01*
X172977511Y-109188794D01*
X172926000Y-109200000D01*
X164451362Y-109200000D01*
X164384323Y-109180315D01*
X164363681Y-109163681D01*
X162836319Y-107636319D01*
X162802834Y-107574996D01*
X162800000Y-107548638D01*
X162800000Y-98900000D01*
X162436319Y-98536319D01*
X162402834Y-98474996D01*
X162400000Y-98448638D01*
X162400000Y-97474500D01*
X162419685Y-97407461D01*
X162472489Y-97361706D01*
X162524000Y-97350500D01*
X167456493Y-97350500D01*
X167523532Y-97370185D01*
G37*
%TD.AperFunction*%
%TA.AperFunction,Conductor*%
G36*
X165415677Y-92719685D02*
G01*
X165436319Y-92736319D01*
X167563291Y-94863291D01*
X167596776Y-94924614D01*
X167599606Y-94951911D01*
X167587299Y-96576439D01*
X167567108Y-96643328D01*
X167513959Y-96688681D01*
X167463303Y-96699500D01*
X162524000Y-96699500D01*
X162456961Y-96679815D01*
X162411206Y-96627011D01*
X162400000Y-96575500D01*
X162400000Y-92824000D01*
X162419685Y-92756961D01*
X162472489Y-92711206D01*
X162524000Y-92700000D01*
X165348638Y-92700000D01*
X165415677Y-92719685D01*
G37*
%TD.AperFunction*%
%TD*%
%TA.AperFunction,Conductor*%
%TO.N,/IP2368 Buck-Boost-Converter/HB2*%
G36*
X188118039Y-104319685D02*
G01*
X188163794Y-104372489D01*
X188175000Y-104424000D01*
X188175000Y-108275000D01*
X189472499Y-108275000D01*
X189539538Y-108294685D01*
X189585293Y-108347489D01*
X189595237Y-108416647D01*
X189585294Y-108450510D01*
X189573297Y-108476778D01*
X189554862Y-108605004D01*
X189573297Y-108733229D01*
X189627112Y-108851065D01*
X189627113Y-108851067D01*
X189711946Y-108948971D01*
X189820926Y-109019008D01*
X189820933Y-109019010D01*
X189945220Y-109055503D01*
X189945222Y-109055504D01*
X189945223Y-109055504D01*
X190074768Y-109055504D01*
X190074768Y-109055503D01*
X190153567Y-109032366D01*
X190199058Y-109019010D01*
X190199058Y-109019009D01*
X190199064Y-109019008D01*
X190208962Y-109012646D01*
X190275997Y-108992962D01*
X190343037Y-109012645D01*
X190388793Y-109065447D01*
X190400000Y-109116962D01*
X190400000Y-111175500D01*
X190380315Y-111242539D01*
X190327511Y-111288294D01*
X190276000Y-111299500D01*
X183924000Y-111299500D01*
X183856961Y-111279815D01*
X183811206Y-111227011D01*
X183800000Y-111175500D01*
X183800000Y-109724000D01*
X183819685Y-109656961D01*
X183872489Y-109611206D01*
X183924000Y-109600000D01*
X184700000Y-109600000D01*
X184900000Y-109400000D01*
X184900000Y-104424000D01*
X184919685Y-104356961D01*
X184972489Y-104311206D01*
X185024000Y-104300000D01*
X188051000Y-104300000D01*
X188118039Y-104319685D01*
G37*
%TD.AperFunction*%
%TD*%
%TA.AperFunction,Conductor*%
%TO.N,/IP2368 Buck-Boost-Converter/BAT*%
G36*
X194600000Y-101900000D02*
G01*
X195166667Y-101900000D01*
X195176000Y-101900000D01*
X195243039Y-101919685D01*
X195288794Y-101972489D01*
X195295989Y-102005566D01*
X195299999Y-102014283D01*
X195300000Y-102014283D01*
X195300000Y-103300000D01*
X192200000Y-103300000D01*
X191700000Y-102800000D01*
X191700000Y-101900000D01*
X193200000Y-101900000D01*
X193200000Y-97400000D01*
X194600000Y-97400000D01*
X194600000Y-101900000D01*
G37*
%TD.AperFunction*%
%TD*%
%TA.AperFunction,Conductor*%
%TO.N,GND*%
G36*
X155100069Y-96551850D02*
G01*
X155100010Y-96781740D01*
X155085515Y-96756635D01*
X155070561Y-96741681D01*
X155037076Y-96680358D01*
X155042060Y-96610666D01*
X155083932Y-96554733D01*
X155149396Y-96530316D01*
X155158242Y-96530000D01*
X155711081Y-96530000D01*
X155100069Y-96551850D01*
G37*
%TD.AperFunction*%
%TA.AperFunction,Conductor*%
G36*
X154464306Y-94841332D02*
G01*
X154357069Y-94862663D01*
X154357063Y-94862665D01*
X154202372Y-94926740D01*
X154202371Y-94926740D01*
X154063160Y-95019758D01*
X154063152Y-95019764D01*
X153944764Y-95138152D01*
X153944758Y-95138160D01*
X153851740Y-95277371D01*
X153851740Y-95277372D01*
X153787665Y-95432063D01*
X153787663Y-95432071D01*
X153755000Y-95596277D01*
X153755000Y-95763722D01*
X153787663Y-95927928D01*
X153787665Y-95927936D01*
X153851740Y-96082627D01*
X153851740Y-96082628D01*
X153944758Y-96221839D01*
X153944764Y-96221847D01*
X154063152Y-96340235D01*
X154063160Y-96340241D01*
X154202372Y-96433259D01*
X154232790Y-96445859D01*
X154287193Y-96489700D01*
X154309258Y-96555994D01*
X154300205Y-96591464D01*
X154300240Y-96581473D01*
X153750000Y-96600000D01*
X153750000Y-94650000D01*
X154464306Y-94841332D01*
G37*
%TD.AperFunction*%
%TA.AperFunction,Conductor*%
G36*
X156550000Y-96500000D02*
G01*
X155805736Y-96526615D01*
X155952928Y-96497336D01*
X155952936Y-96497334D01*
X156107627Y-96433259D01*
X156107628Y-96433259D01*
X156246839Y-96340241D01*
X156246847Y-96340235D01*
X156365235Y-96221847D01*
X156365241Y-96221839D01*
X156458259Y-96082628D01*
X156458259Y-96082627D01*
X156522334Y-95927936D01*
X156522336Y-95927928D01*
X156550000Y-95788856D01*
X156550000Y-96500000D01*
G37*
%TD.AperFunction*%
%TA.AperFunction,Conductor*%
G36*
X156550000Y-95400000D02*
G01*
X156550000Y-95571142D01*
X156522336Y-95432071D01*
X156522334Y-95432063D01*
X156503943Y-95387663D01*
X156550000Y-95400000D01*
G37*
%TD.AperFunction*%
%TD*%
%TA.AperFunction,Conductor*%
%TO.N,GND*%
G36*
X152500000Y-94650000D02*
G01*
X152500000Y-96850000D01*
X150200500Y-96850000D01*
X150200500Y-96480828D01*
X150220185Y-96413789D01*
X150272989Y-96368034D01*
X150342147Y-96358090D01*
X150371954Y-96366267D01*
X150456236Y-96401178D01*
X150456240Y-96401179D01*
X150601126Y-96429999D01*
X150601129Y-96430000D01*
X151348871Y-96430000D01*
X151348873Y-96429999D01*
X151493759Y-96401179D01*
X151493767Y-96401177D01*
X151630254Y-96344642D01*
X151630264Y-96344637D01*
X151753096Y-96262563D01*
X151753100Y-96262560D01*
X151857560Y-96158100D01*
X151857563Y-96158096D01*
X151939637Y-96035264D01*
X151939642Y-96035254D01*
X151996177Y-95898767D01*
X151996179Y-95898759D01*
X152024999Y-95753873D01*
X152025000Y-95753871D01*
X152025000Y-95606128D01*
X152024999Y-95606126D01*
X151996179Y-95461240D01*
X151996177Y-95461232D01*
X151939642Y-95324745D01*
X151939637Y-95324735D01*
X151857563Y-95201903D01*
X151857560Y-95201899D01*
X151753100Y-95097439D01*
X151753096Y-95097436D01*
X151630264Y-95015362D01*
X151630254Y-95015357D01*
X151493767Y-94958822D01*
X151493759Y-94958820D01*
X151348872Y-94930000D01*
X150601128Y-94930000D01*
X150456240Y-94958820D01*
X150456228Y-94958823D01*
X150390161Y-94986189D01*
X150320691Y-94993658D01*
X150258212Y-94962382D01*
X150222561Y-94902293D01*
X150218779Y-94867447D01*
X150218864Y-94864911D01*
X150218866Y-94864908D01*
X150220226Y-94824557D01*
X150220226Y-94824553D01*
X150220234Y-94824553D01*
X150220228Y-94824484D01*
X150221573Y-94785306D01*
X150221572Y-94785304D01*
X150221984Y-94773316D01*
X150221964Y-94773019D01*
X150223694Y-94721716D01*
X150223730Y-94721456D01*
X150225522Y-94667533D01*
X150225524Y-94667471D01*
X150227223Y-94617071D01*
X150227205Y-94616810D01*
X150227450Y-94609418D01*
X152500000Y-94650000D01*
G37*
%TD.AperFunction*%
%TD*%
%TA.AperFunction,Conductor*%
%TO.N,GND*%
G36*
X153711428Y-103255714D02*
G01*
X153800000Y-103300000D01*
X153847112Y-103257598D01*
X154183389Y-103262269D01*
X154273018Y-103351898D01*
X154306503Y-103413221D01*
X154301519Y-103482913D01*
X154259647Y-103538846D01*
X154232793Y-103554139D01*
X154202371Y-103566740D01*
X154063160Y-103659758D01*
X154063152Y-103659764D01*
X153944764Y-103778152D01*
X153944758Y-103778160D01*
X153851740Y-103917371D01*
X153851740Y-103917372D01*
X153787665Y-104072063D01*
X153787663Y-104072071D01*
X153755000Y-104236277D01*
X153755000Y-104403722D01*
X153787663Y-104567928D01*
X153787665Y-104567936D01*
X153851740Y-104722627D01*
X153851740Y-104722628D01*
X153944758Y-104861839D01*
X153944764Y-104861847D01*
X154063152Y-104980235D01*
X154063160Y-104980241D01*
X154202371Y-105073259D01*
X154357063Y-105137334D01*
X154357071Y-105137336D01*
X154521277Y-105169999D01*
X154521280Y-105170000D01*
X154583333Y-105170000D01*
X153300000Y-105500000D01*
X153300000Y-103250000D01*
X153711428Y-103255714D01*
G37*
%TD.AperFunction*%
%TA.AperFunction,Conductor*%
G36*
X156900000Y-103300000D02*
G01*
X156800000Y-104600000D01*
X156474369Y-104683733D01*
X156522334Y-104567936D01*
X156522336Y-104567928D01*
X156554999Y-104403722D01*
X156555000Y-104403720D01*
X156555000Y-104236279D01*
X156554999Y-104236277D01*
X156522336Y-104072071D01*
X156522334Y-104072063D01*
X156458259Y-103917372D01*
X156458259Y-103917371D01*
X156365241Y-103778160D01*
X156365235Y-103778152D01*
X156246847Y-103659764D01*
X156246839Y-103659758D01*
X156107628Y-103566740D01*
X155952936Y-103502665D01*
X155952928Y-103502663D01*
X155788721Y-103470000D01*
X155158242Y-103470000D01*
X155091203Y-103450315D01*
X155045448Y-103397511D01*
X155035504Y-103328353D01*
X155060122Y-103274446D01*
X156900000Y-103300000D01*
G37*
%TD.AperFunction*%
%TD*%
%TA.AperFunction,Conductor*%
%TO.N,GND*%
G36*
X152500000Y-103300000D02*
G01*
X152500000Y-105500000D01*
X150231086Y-105500000D01*
X150230803Y-105491487D01*
X150229520Y-105452277D01*
X150229519Y-105452276D01*
X150229132Y-105440429D01*
X150229098Y-105440166D01*
X150227212Y-105383401D01*
X150227230Y-105383150D01*
X150226806Y-105370576D01*
X150226807Y-105370575D01*
X150225500Y-105331820D01*
X150224143Y-105290957D01*
X150224142Y-105290955D01*
X150223738Y-105278791D01*
X150223702Y-105278517D01*
X150221970Y-105227164D01*
X150221991Y-105226869D01*
X150220226Y-105175442D01*
X150220226Y-105175441D01*
X150218866Y-105135091D01*
X150218864Y-105135087D01*
X150218779Y-105132551D01*
X150236193Y-105064886D01*
X150287425Y-105017377D01*
X150356209Y-105005108D01*
X150390162Y-105013810D01*
X150456232Y-105041177D01*
X150456240Y-105041179D01*
X150601126Y-105069999D01*
X150601129Y-105070000D01*
X151348871Y-105070000D01*
X151348873Y-105069999D01*
X151493759Y-105041179D01*
X151493767Y-105041177D01*
X151630254Y-104984642D01*
X151630264Y-104984637D01*
X151753096Y-104902563D01*
X151753100Y-104902560D01*
X151857560Y-104798100D01*
X151857563Y-104798096D01*
X151939637Y-104675264D01*
X151939642Y-104675254D01*
X151996177Y-104538767D01*
X151996179Y-104538759D01*
X152024999Y-104393873D01*
X152025000Y-104393871D01*
X152025000Y-104246128D01*
X152024999Y-104246126D01*
X151996179Y-104101240D01*
X151996177Y-104101232D01*
X151939642Y-103964745D01*
X151939637Y-103964735D01*
X151857563Y-103841903D01*
X151857560Y-103841899D01*
X151753100Y-103737439D01*
X151753096Y-103737436D01*
X151630264Y-103655362D01*
X151630254Y-103655357D01*
X151493767Y-103598822D01*
X151493759Y-103598820D01*
X151348872Y-103570000D01*
X150601128Y-103570000D01*
X150456240Y-103598820D01*
X150456232Y-103598822D01*
X150371953Y-103633732D01*
X150302483Y-103641201D01*
X150240004Y-103609926D01*
X150204352Y-103549837D01*
X150200500Y-103519171D01*
X150200500Y-103258937D01*
X152500000Y-103300000D01*
G37*
%TD.AperFunction*%
%TD*%
%TA.AperFunction,Conductor*%
%TO.N,/IP2368 Buck-Boost-Converter/HB_IN*%
G36*
X178243039Y-104719685D02*
G01*
X178288794Y-104772489D01*
X178300000Y-104824000D01*
X178300000Y-108976000D01*
X178280315Y-109043039D01*
X178227511Y-109088794D01*
X178176000Y-109100000D01*
X174824000Y-109100000D01*
X174756961Y-109080315D01*
X174711206Y-109027511D01*
X174700000Y-108976000D01*
X174700000Y-104824000D01*
X174719685Y-104756961D01*
X174772489Y-104711206D01*
X174824000Y-104700000D01*
X178176000Y-104700000D01*
X178243039Y-104719685D01*
G37*
%TD.AperFunction*%
%TD*%
%TA.AperFunction,Conductor*%
%TO.N,/IP2368 Buck-Boost-Converter/HB_BAT*%
G36*
X190543039Y-104419685D02*
G01*
X190588794Y-104472489D01*
X190600000Y-104524000D01*
X190600000Y-107976000D01*
X190580315Y-108043039D01*
X190527511Y-108088794D01*
X190476000Y-108100000D01*
X188524000Y-108100000D01*
X188456961Y-108080315D01*
X188411206Y-108027511D01*
X188400000Y-107976000D01*
X188400000Y-104524000D01*
X188419685Y-104456961D01*
X188472489Y-104411206D01*
X188524000Y-104400000D01*
X190476000Y-104400000D01*
X190543039Y-104419685D01*
G37*
%TD.AperFunction*%
%TD*%
%TA.AperFunction,Conductor*%
%TO.N,+5V*%
G36*
X185493039Y-102469685D02*
G01*
X185538794Y-102522489D01*
X185550000Y-102574000D01*
X185550000Y-103625500D01*
X185530315Y-103692539D01*
X185477511Y-103738294D01*
X185426000Y-103749500D01*
X184624000Y-103749500D01*
X184556961Y-103729815D01*
X184511206Y-103677011D01*
X184500000Y-103625500D01*
X184500000Y-102574000D01*
X184519685Y-102506961D01*
X184572489Y-102461206D01*
X184624000Y-102450000D01*
X185426000Y-102450000D01*
X185493039Y-102469685D01*
G37*
%TD.AperFunction*%
%TD*%
%TA.AperFunction,Conductor*%
%TO.N,GND*%
G36*
X160443039Y-88720185D02*
G01*
X160488794Y-88772989D01*
X160500000Y-88824500D01*
X160500000Y-89025500D01*
X160480315Y-89092539D01*
X160427511Y-89138294D01*
X160376000Y-89149500D01*
X160298167Y-89149500D01*
X160231128Y-89129815D01*
X160204453Y-89106702D01*
X160160549Y-89056033D01*
X160051569Y-88985996D01*
X160051565Y-88985994D01*
X160051564Y-88985994D01*
X159927274Y-88949500D01*
X159927272Y-88949500D01*
X159797728Y-88949500D01*
X159797726Y-88949500D01*
X159673435Y-88985994D01*
X159673432Y-88985995D01*
X159673431Y-88985996D01*
X159622177Y-89018934D01*
X159564450Y-89056033D01*
X159479618Y-89153937D01*
X159479617Y-89153938D01*
X159425802Y-89271774D01*
X159407367Y-89400000D01*
X159425802Y-89528225D01*
X159451813Y-89585180D01*
X159479618Y-89646063D01*
X159564451Y-89743967D01*
X159673431Y-89814004D01*
X159797725Y-89850499D01*
X159797727Y-89850500D01*
X159797728Y-89850500D01*
X159927273Y-89850500D01*
X159927273Y-89850499D01*
X160051569Y-89814004D01*
X160160549Y-89743967D01*
X160204453Y-89693297D01*
X160263231Y-89655523D01*
X160298167Y-89650500D01*
X160376000Y-89650500D01*
X160443039Y-89670185D01*
X160488794Y-89722989D01*
X160500000Y-89774500D01*
X160500000Y-91819376D01*
X160480315Y-91886415D01*
X160463681Y-91907057D01*
X158867661Y-93503076D01*
X158867662Y-93503077D01*
X158814636Y-93556103D01*
X158776500Y-93648170D01*
X158776500Y-95817877D01*
X158756815Y-95884916D01*
X158740181Y-95905558D01*
X158634558Y-96011181D01*
X158573235Y-96044666D01*
X158546877Y-96047500D01*
X157677170Y-96047500D01*
X157585102Y-96085636D01*
X156835636Y-96835102D01*
X156798261Y-96925334D01*
X156754420Y-96979737D01*
X156688125Y-97001802D01*
X156666058Y-97000619D01*
X156623500Y-96994500D01*
X155291835Y-96994500D01*
X155290206Y-96994567D01*
X155289934Y-96994500D01*
X155289251Y-96994500D01*
X155289251Y-96994330D01*
X155222406Y-96977689D01*
X155174494Y-96926834D01*
X155165275Y-96902773D01*
X155161281Y-96887865D01*
X155100010Y-96781742D01*
X155100069Y-96551850D01*
X156550000Y-96500000D01*
X156550000Y-95400000D01*
X156497333Y-95385892D01*
X156477695Y-95330506D01*
X156457933Y-95296525D01*
X156388356Y-95176888D01*
X156269109Y-95045122D01*
X156269105Y-95045119D01*
X156125145Y-94940942D01*
X156125144Y-94940941D01*
X156125142Y-94940940D01*
X155982540Y-94877665D01*
X155962706Y-94868864D01*
X155962700Y-94868862D01*
X155788856Y-94832026D01*
X155781450Y-94831857D01*
X155700000Y-94830000D01*
X154610000Y-94830000D01*
X154534815Y-94831714D01*
X154521143Y-94832026D01*
X154470011Y-94842860D01*
X153750000Y-94650000D01*
X153750000Y-96600000D01*
X154300240Y-96581473D01*
X154300059Y-96633073D01*
X154271635Y-96649485D01*
X154271632Y-96649487D01*
X154164487Y-96756632D01*
X154164485Y-96756635D01*
X154088719Y-96887863D01*
X154084726Y-96902766D01*
X154048358Y-96962425D01*
X153985510Y-96992952D01*
X153962594Y-96994045D01*
X153962594Y-96994500D01*
X153917500Y-96994500D01*
X152500000Y-96900000D01*
X152600000Y-102700000D01*
X153711428Y-103255714D01*
X153300000Y-103250000D01*
X153300000Y-105500000D01*
X154622222Y-105160000D01*
X155699989Y-105160000D01*
X155700000Y-105160000D01*
X155788855Y-105157974D01*
X155962705Y-105121136D01*
X156125142Y-105049060D01*
X156269110Y-104944877D01*
X156388354Y-104813114D01*
X156461703Y-104686990D01*
X156800000Y-104600000D01*
X156900000Y-103300000D01*
X155054511Y-103274368D01*
X155085515Y-103243365D01*
X155161281Y-103112135D01*
X155178625Y-103047405D01*
X155214989Y-102987747D01*
X155277835Y-102957217D01*
X155298399Y-102955500D01*
X157375991Y-102955500D01*
X157376000Y-102955500D01*
X157419684Y-102950803D01*
X157448875Y-102944452D01*
X157471174Y-102939602D01*
X157471190Y-102939598D01*
X157471195Y-102939597D01*
X157481373Y-102937110D01*
X157562085Y-102894100D01*
X157614889Y-102848345D01*
X157632843Y-102830754D01*
X157677490Y-102750937D01*
X157697175Y-102683898D01*
X157705500Y-102626000D01*
X157705500Y-102302479D01*
X157725185Y-102235440D01*
X157777989Y-102189685D01*
X157840241Y-102180733D01*
X157840241Y-102180181D01*
X157844087Y-102180181D01*
X157847147Y-102179741D01*
X157848784Y-102179988D01*
X157850000Y-102180181D01*
X157924931Y-102168313D01*
X157967477Y-102161575D01*
X157967478Y-102161575D01*
X157967479Y-102161574D01*
X157967482Y-102161574D01*
X158073465Y-102107573D01*
X158157573Y-102023465D01*
X158211574Y-101917482D01*
X158211575Y-101917477D01*
X158230181Y-101800003D01*
X158230181Y-101799996D01*
X158211575Y-101682522D01*
X158211575Y-101682521D01*
X158211574Y-101682519D01*
X158211574Y-101682518D01*
X158157573Y-101576535D01*
X158157571Y-101576533D01*
X158157568Y-101576529D01*
X158073470Y-101492431D01*
X158073466Y-101492428D01*
X158073465Y-101492427D01*
X157967482Y-101438426D01*
X157967481Y-101438425D01*
X157967478Y-101438424D01*
X157879259Y-101424452D01*
X157816124Y-101394523D01*
X157779193Y-101335211D01*
X157780191Y-101265348D01*
X157818801Y-101207116D01*
X157879255Y-101179506D01*
X157992482Y-101161574D01*
X158098465Y-101107573D01*
X158182573Y-101023465D01*
X158236574Y-100917482D01*
X158236575Y-100917477D01*
X158255181Y-100800003D01*
X158255181Y-100799996D01*
X158236575Y-100682522D01*
X158236575Y-100682521D01*
X158236574Y-100682519D01*
X158236574Y-100682518D01*
X158182573Y-100576535D01*
X158182571Y-100576533D01*
X158182568Y-100576529D01*
X158098470Y-100492431D01*
X158098466Y-100492428D01*
X158098465Y-100492427D01*
X157992482Y-100438426D01*
X157992481Y-100438425D01*
X157992478Y-100438424D01*
X157879259Y-100420493D01*
X157816125Y-100390564D01*
X157779193Y-100331253D01*
X157780191Y-100261390D01*
X157818801Y-100203157D01*
X157879260Y-100175547D01*
X157967477Y-100161575D01*
X157967478Y-100161575D01*
X157967479Y-100161574D01*
X157967482Y-100161574D01*
X158073465Y-100107573D01*
X158157573Y-100023465D01*
X158211574Y-99917482D01*
X158217419Y-99880580D01*
X158230181Y-99800003D01*
X158230181Y-99799996D01*
X158211575Y-99682522D01*
X158211575Y-99682521D01*
X158211574Y-99682519D01*
X158211574Y-99682518D01*
X158157573Y-99576535D01*
X158157571Y-99576533D01*
X158157568Y-99576529D01*
X158073470Y-99492431D01*
X158073466Y-99492428D01*
X158073465Y-99492427D01*
X157967482Y-99438426D01*
X157967480Y-99438425D01*
X157967477Y-99438424D01*
X157866760Y-99422473D01*
X157803625Y-99392544D01*
X157766693Y-99333233D01*
X157767691Y-99263370D01*
X157806300Y-99205137D01*
X157866760Y-99177527D01*
X157967477Y-99161575D01*
X157967478Y-99161575D01*
X157967479Y-99161574D01*
X157967482Y-99161574D01*
X158073465Y-99107573D01*
X158157573Y-99023465D01*
X158211574Y-98917482D01*
X158224261Y-98837379D01*
X158230181Y-98800003D01*
X158230181Y-98799996D01*
X158214169Y-98698897D01*
X158223124Y-98629604D01*
X158268120Y-98576152D01*
X158334872Y-98555513D01*
X158336642Y-98555500D01*
X158715691Y-98555500D01*
X158715693Y-98555500D01*
X158727472Y-98555079D01*
X158731900Y-98555000D01*
X158868100Y-98555000D01*
X158872528Y-98555079D01*
X158884307Y-98555500D01*
X158884309Y-98555500D01*
X162025991Y-98555500D01*
X162026000Y-98555500D01*
X162069684Y-98550803D01*
X162104476Y-98543234D01*
X162174165Y-98548217D01*
X162230100Y-98590088D01*
X162239665Y-98604971D01*
X162255958Y-98634808D01*
X162290998Y-98681615D01*
X162291002Y-98681619D01*
X162291009Y-98681629D01*
X162291016Y-98681636D01*
X162558181Y-98948801D01*
X162591666Y-99010124D01*
X162594500Y-99036482D01*
X162594500Y-107548638D01*
X162595678Y-107570618D01*
X162598511Y-107596965D01*
X162598512Y-107596967D01*
X162622470Y-107673478D01*
X162622471Y-107673483D01*
X162624978Y-107678074D01*
X162653325Y-107729987D01*
X162655957Y-107734806D01*
X162684768Y-107773292D01*
X162699945Y-107799945D01*
X164202392Y-109302392D01*
X164231314Y-109320618D01*
X164234712Y-109323670D01*
X164234738Y-109323693D01*
X164242920Y-109330286D01*
X164255379Y-109340327D01*
X164326424Y-109377490D01*
X164393456Y-109397173D01*
X164393458Y-109397173D01*
X164393464Y-109397175D01*
X164451362Y-109405500D01*
X164451366Y-109405500D01*
X172925991Y-109405500D01*
X172926000Y-109405500D01*
X172969684Y-109400803D01*
X172998875Y-109394452D01*
X173021174Y-109389602D01*
X173021190Y-109389598D01*
X173021195Y-109389597D01*
X173031373Y-109387110D01*
X173112085Y-109344100D01*
X173128027Y-109330285D01*
X173191583Y-109301262D01*
X173199289Y-109300710D01*
X173200000Y-109300000D01*
X173200000Y-109282404D01*
X173215781Y-109221869D01*
X173227490Y-109200937D01*
X173247175Y-109133898D01*
X173255500Y-109076000D01*
X173255500Y-105676362D01*
X173254322Y-105654393D01*
X173251488Y-105628035D01*
X173227529Y-105551518D01*
X173194044Y-105490195D01*
X173158991Y-105443371D01*
X173088693Y-105373073D01*
X174544500Y-105352854D01*
X174544500Y-108976008D01*
X174548054Y-109009055D01*
X174559260Y-109060566D01*
X174593686Y-109129342D01*
X174594709Y-109130522D01*
X174595214Y-109131629D01*
X174597998Y-109135795D01*
X174597323Y-109136245D01*
X174623737Y-109194076D01*
X174625000Y-109211729D01*
X174625000Y-109320500D01*
X174605315Y-109387539D01*
X174552511Y-109433294D01*
X174501000Y-109444500D01*
X173898991Y-109444500D01*
X173865944Y-109448054D01*
X173814433Y-109459260D01*
X173745657Y-109493686D01*
X173692860Y-109539436D01*
X173687376Y-109544422D01*
X173645486Y-109613145D01*
X173645483Y-109613151D01*
X173625799Y-109680187D01*
X173625797Y-109680197D01*
X173619500Y-109723996D01*
X173619500Y-111175500D01*
X173599815Y-111242539D01*
X173547011Y-111288294D01*
X173495500Y-111299500D01*
X151309412Y-111299500D01*
X151242373Y-111279815D01*
X151221731Y-111263181D01*
X150408371Y-110449821D01*
X150374886Y-110388498D01*
X150372093Y-110365353D01*
X150372031Y-110362944D01*
X150372043Y-110362799D01*
X150370625Y-110308384D01*
X150370624Y-110308350D01*
X150369645Y-110270375D01*
X150369644Y-110270373D01*
X150369335Y-110258392D01*
X150369318Y-110258263D01*
X150367159Y-110175396D01*
X150367170Y-110175258D01*
X150365765Y-110121866D01*
X150365764Y-110121832D01*
X150364410Y-110069880D01*
X150364392Y-110069734D01*
X150362131Y-109983840D01*
X150362142Y-109983699D01*
X150360715Y-109930028D01*
X150360714Y-109929994D01*
X150359372Y-109879014D01*
X150359355Y-109878878D01*
X150357006Y-109790493D01*
X150357016Y-109790364D01*
X150355591Y-109737224D01*
X150355590Y-109737191D01*
X150354545Y-109697861D01*
X150354544Y-109697860D01*
X150354227Y-109685903D01*
X150354210Y-109685761D01*
X150354061Y-109680189D01*
X150351770Y-109594797D01*
X150351780Y-109594671D01*
X150350961Y-109564409D01*
X150350286Y-109539442D01*
X150350292Y-109539441D01*
X150350285Y-109539411D01*
X150349281Y-109501956D01*
X150349280Y-109501954D01*
X150348960Y-109490013D01*
X150348943Y-109489878D01*
X150346439Y-109397397D01*
X150346449Y-109397284D01*
X150346080Y-109383765D01*
X150346081Y-109383764D01*
X150344895Y-109340327D01*
X150343914Y-109304075D01*
X150343913Y-109304073D01*
X150343564Y-109291176D01*
X150343549Y-109291070D01*
X150340975Y-109196732D01*
X150340984Y-109196607D01*
X150339542Y-109144240D01*
X150339541Y-109144210D01*
X150338459Y-109104565D01*
X150338458Y-109104563D01*
X150338105Y-109091631D01*
X150338089Y-109091506D01*
X150337237Y-109060566D01*
X150335470Y-108996408D01*
X150335480Y-108996287D01*
X150333975Y-108942132D01*
X150333974Y-108942098D01*
X150332919Y-108903753D01*
X150332918Y-108903751D01*
X150332564Y-108890876D01*
X150332549Y-108890765D01*
X150329880Y-108794643D01*
X150329890Y-108794526D01*
X150328416Y-108741902D01*
X150328415Y-108741869D01*
X150326949Y-108689069D01*
X150326932Y-108688939D01*
X150324212Y-108591785D01*
X150324221Y-108591668D01*
X150323871Y-108579284D01*
X150323872Y-108579283D01*
X150322689Y-108537411D01*
X150322689Y-108537410D01*
X150322694Y-108537409D01*
X150322688Y-108537381D01*
X150321631Y-108499595D01*
X150321629Y-108499592D01*
X150321270Y-108486732D01*
X150321255Y-108486616D01*
X150318503Y-108389118D01*
X150318512Y-108388995D01*
X150318159Y-108376607D01*
X150318160Y-108376606D01*
X150317004Y-108335996D01*
X150315901Y-108296922D01*
X150315900Y-108296920D01*
X150315536Y-108284018D01*
X150315519Y-108283896D01*
X150312747Y-108186500D01*
X150312757Y-108186378D01*
X150311247Y-108133800D01*
X150311246Y-108133768D01*
X150310123Y-108094301D01*
X150310122Y-108094298D01*
X150309787Y-108082532D01*
X150309772Y-108082406D01*
X150306988Y-107985445D01*
X150306999Y-107985320D01*
X150305416Y-107930669D01*
X150305415Y-107930634D01*
X150304309Y-107892073D01*
X150304308Y-107892071D01*
X150303956Y-107879796D01*
X150303940Y-107879678D01*
X150301155Y-107783464D01*
X150301166Y-107783343D01*
X150299609Y-107730023D01*
X150299608Y-107729987D01*
X150298110Y-107678213D01*
X150298093Y-107678082D01*
X150295306Y-107582599D01*
X150295316Y-107582462D01*
X150293720Y-107528260D01*
X150293719Y-107528223D01*
X150292232Y-107477272D01*
X150292215Y-107477139D01*
X150289449Y-107383159D01*
X150289459Y-107383018D01*
X150287827Y-107328052D01*
X150287826Y-107328016D01*
X150286361Y-107278215D01*
X150286341Y-107278068D01*
X150283616Y-107186294D01*
X150283626Y-107186152D01*
X150282077Y-107134484D01*
X150282076Y-107134444D01*
X150280515Y-107081860D01*
X150280495Y-107081708D01*
X150277797Y-106991705D01*
X150277808Y-106991571D01*
X150277406Y-106978286D01*
X150277407Y-106978285D01*
X150276190Y-106938042D01*
X150275008Y-106898612D01*
X150275007Y-106898611D01*
X150274636Y-106886206D01*
X150274617Y-106886061D01*
X150271969Y-106798511D01*
X150271980Y-106798357D01*
X150270383Y-106746064D01*
X150270382Y-106746026D01*
X150268787Y-106693307D01*
X150268765Y-106693146D01*
X150266163Y-106607928D01*
X150266175Y-106607763D01*
X150264557Y-106555336D01*
X150264556Y-106555295D01*
X150262967Y-106503283D01*
X150262945Y-106503117D01*
X150260416Y-106421177D01*
X150260429Y-106421005D01*
X150258663Y-106364355D01*
X150258662Y-106364317D01*
X150258498Y-106359036D01*
X150257567Y-106328835D01*
X150257566Y-106328833D01*
X150257195Y-106316816D01*
X150257175Y-106316657D01*
X150254722Y-106237998D01*
X150254735Y-106237815D01*
X150254330Y-106224972D01*
X150253079Y-106185301D01*
X150253091Y-106185256D01*
X150253078Y-106185257D01*
X150251833Y-106145318D01*
X150251832Y-106145317D01*
X150251462Y-106133430D01*
X150251437Y-106133241D01*
X150249071Y-106058234D01*
X150249086Y-106058039D01*
X150247311Y-106002392D01*
X150247310Y-106002346D01*
X150245754Y-105953015D01*
X150245728Y-105952826D01*
X150243470Y-105882024D01*
X150243485Y-105881811D01*
X150241791Y-105829406D01*
X150241789Y-105829349D01*
X150240130Y-105777309D01*
X150240101Y-105777096D01*
X150237961Y-105710831D01*
X150237975Y-105710615D01*
X150237573Y-105698344D01*
X150237574Y-105698343D01*
X150236323Y-105660122D01*
X150236333Y-105660122D01*
X150236321Y-105660069D01*
X150236138Y-105654393D01*
X150234985Y-105618706D01*
X150234984Y-105618705D01*
X150234596Y-105606679D01*
X150234566Y-105606446D01*
X150232541Y-105544593D01*
X150232557Y-105544347D01*
X150232144Y-105531903D01*
X150232145Y-105531901D01*
X150231086Y-105500000D01*
X152500000Y-105500000D01*
X152500000Y-103300000D01*
X150200500Y-103258937D01*
X150200500Y-96850000D01*
X152500000Y-96850000D01*
X152500000Y-94650000D01*
X150227450Y-94609418D01*
X150229090Y-94560076D01*
X150229123Y-94559828D01*
X150229519Y-94547723D01*
X150229520Y-94547722D01*
X150230842Y-94507312D01*
X150232145Y-94468098D01*
X150232144Y-94468096D01*
X150232550Y-94455885D01*
X150232533Y-94455635D01*
X150234556Y-94393831D01*
X150234587Y-94393605D01*
X150236371Y-94338395D01*
X150236387Y-94338343D01*
X150236373Y-94338343D01*
X150236723Y-94327649D01*
X150237574Y-94301656D01*
X150237573Y-94301653D01*
X150237966Y-94289646D01*
X150237952Y-94289435D01*
X150240090Y-94223220D01*
X150240120Y-94223015D01*
X150241791Y-94170594D01*
X150241797Y-94170594D01*
X150241792Y-94170543D01*
X150243089Y-94130442D01*
X150243088Y-94130440D01*
X150243476Y-94118449D01*
X150243462Y-94118230D01*
X150245717Y-94047539D01*
X150245742Y-94047354D01*
X150246148Y-94034436D01*
X150246150Y-94034434D01*
X150247351Y-93996309D01*
X150247367Y-93996261D01*
X150247353Y-93996261D01*
X150249077Y-93942252D01*
X150249062Y-93942050D01*
X150251426Y-93867085D01*
X150251451Y-93866905D01*
X150251832Y-93854682D01*
X150251833Y-93854681D01*
X150253137Y-93812855D01*
X150253137Y-93812854D01*
X150253142Y-93812854D01*
X150253138Y-93812808D01*
X150253392Y-93804759D01*
X150254330Y-93775027D01*
X150254329Y-93775025D01*
X150254724Y-93762516D01*
X150254711Y-93762341D01*
X150257162Y-93683752D01*
X150257183Y-93683591D01*
X150258713Y-93634016D01*
X150258714Y-93633973D01*
X150258916Y-93627482D01*
X150260039Y-93591503D01*
X150260037Y-93591500D01*
X150260418Y-93579310D01*
X150260406Y-93579138D01*
X150262932Y-93497292D01*
X150262954Y-93497130D01*
X150264561Y-93444547D01*
X150264562Y-93444508D01*
X150266165Y-93392568D01*
X150266153Y-93392392D01*
X150268753Y-93307268D01*
X150268775Y-93307102D01*
X150270423Y-93252615D01*
X150270424Y-93252574D01*
X150271968Y-93202038D01*
X150271957Y-93201880D01*
X150274603Y-93114402D01*
X150274622Y-93114268D01*
X150276260Y-93059624D01*
X150276261Y-93059588D01*
X150277796Y-93008852D01*
X150277785Y-93008700D01*
X150280482Y-92918735D01*
X150280501Y-92918593D01*
X150282102Y-92864712D01*
X150282105Y-92864712D01*
X150282102Y-92864686D01*
X150283247Y-92826503D01*
X150283246Y-92826500D01*
X150283613Y-92814261D01*
X150283603Y-92814128D01*
X150286326Y-92722428D01*
X150286346Y-92722292D01*
X150287897Y-92669581D01*
X150287898Y-92669546D01*
X150288268Y-92657092D01*
X150289096Y-92629213D01*
X150289095Y-92629211D01*
X150289447Y-92617373D01*
X150289437Y-92617235D01*
X150292199Y-92523399D01*
X150292216Y-92523280D01*
X150293720Y-92471759D01*
X150293723Y-92471759D01*
X150293720Y-92471732D01*
X150294944Y-92430180D01*
X150294943Y-92430177D01*
X150295303Y-92417952D01*
X150295294Y-92417811D01*
X150298078Y-92322433D01*
X150298095Y-92322299D01*
X150299608Y-92270011D01*
X150299609Y-92269975D01*
X150301153Y-92217107D01*
X150301143Y-92216970D01*
X150303924Y-92120876D01*
X150303940Y-92120763D01*
X150304308Y-92107927D01*
X150304309Y-92107926D01*
X150305416Y-92069330D01*
X150306606Y-92028243D01*
X150306985Y-92015162D01*
X150306974Y-92015033D01*
X150309757Y-91918105D01*
X150309773Y-91917982D01*
X150311247Y-91866200D01*
X150311250Y-91866200D01*
X150311247Y-91866172D01*
X150312401Y-91826013D01*
X150312400Y-91826012D01*
X150312744Y-91814066D01*
X150312735Y-91813934D01*
X150315504Y-91716652D01*
X150315520Y-91716536D01*
X150315900Y-91703078D01*
X150315901Y-91703077D01*
X150317026Y-91663223D01*
X150317026Y-91663222D01*
X150317028Y-91663222D01*
X150317026Y-91663201D01*
X150318160Y-91623393D01*
X150318159Y-91623390D01*
X150318499Y-91611449D01*
X150318490Y-91611334D01*
X150321238Y-91513977D01*
X150321254Y-91513864D01*
X150322690Y-91462585D01*
X150322692Y-91462585D01*
X150322689Y-91462560D01*
X150323872Y-91420716D01*
X150323870Y-91420712D01*
X150324208Y-91408776D01*
X150324200Y-91408653D01*
X150325615Y-91358103D01*
X150326917Y-91311602D01*
X150326934Y-91311482D01*
X150328485Y-91255631D01*
X150328488Y-91255631D01*
X150328485Y-91255603D01*
X150329530Y-91218327D01*
X150329877Y-91205958D01*
X150329867Y-91205823D01*
X150332532Y-91109843D01*
X150332548Y-91109724D01*
X150333975Y-91057866D01*
X150333978Y-91057866D01*
X150333975Y-91057838D01*
X150335123Y-91016557D01*
X150335122Y-91016555D01*
X150335466Y-91004192D01*
X150335457Y-91004067D01*
X150335574Y-90999828D01*
X150338074Y-90909032D01*
X150338090Y-90908921D01*
X150338458Y-90895435D01*
X150338459Y-90895434D01*
X150339542Y-90855758D01*
X150339542Y-90855757D01*
X150339545Y-90855757D01*
X150339542Y-90855731D01*
X150340644Y-90815749D01*
X150340643Y-90815748D01*
X150340972Y-90803839D01*
X150340963Y-90803706D01*
X150343533Y-90709533D01*
X150343548Y-90709423D01*
X150343913Y-90695925D01*
X150343914Y-90695924D01*
X150344917Y-90658845D01*
X150344917Y-90658844D01*
X150344920Y-90658844D01*
X150344917Y-90658818D01*
X150346081Y-90616235D01*
X150346079Y-90616232D01*
X150346436Y-90603199D01*
X150346426Y-90603081D01*
X150348930Y-90510597D01*
X150348947Y-90510469D01*
X150349280Y-90498044D01*
X150349281Y-90498043D01*
X150350359Y-90457837D01*
X150350368Y-90457807D01*
X150350360Y-90457807D01*
X150351428Y-90418358D01*
X150351427Y-90418356D01*
X150351768Y-90405778D01*
X150351758Y-90405644D01*
X150353838Y-90328103D01*
X150354197Y-90314705D01*
X150354214Y-90314575D01*
X150354544Y-90302139D01*
X150354545Y-90302138D01*
X150355654Y-90260381D01*
X150355657Y-90260381D01*
X150355654Y-90260352D01*
X150356672Y-90222451D01*
X150356671Y-90222450D01*
X150357003Y-90210119D01*
X150356993Y-90209992D01*
X150359341Y-90121620D01*
X150359358Y-90121501D01*
X150359699Y-90108541D01*
X150359700Y-90108540D01*
X150360715Y-90069971D01*
X150360715Y-90069970D01*
X150360718Y-90069970D01*
X150360715Y-90069942D01*
X150361808Y-90028855D01*
X150362131Y-90016721D01*
X150362120Y-90016579D01*
X150364379Y-89930726D01*
X150364397Y-89930598D01*
X150364736Y-89917590D01*
X150364737Y-89917589D01*
X150365767Y-89878050D01*
X150365767Y-89878049D01*
X150365770Y-89878049D01*
X150365767Y-89878021D01*
X150366824Y-89837906D01*
X150366823Y-89837904D01*
X150367159Y-89825160D01*
X150367148Y-89825017D01*
X150368465Y-89774500D01*
X150369306Y-89742213D01*
X150369323Y-89742081D01*
X150369644Y-89729625D01*
X150369645Y-89729624D01*
X150370625Y-89691601D01*
X150370628Y-89691601D01*
X150370625Y-89691572D01*
X150371711Y-89649941D01*
X150371710Y-89649939D01*
X150372032Y-89637600D01*
X150372021Y-89637453D01*
X150372093Y-89634661D01*
X150393499Y-89568152D01*
X150408366Y-89550183D01*
X151221731Y-88736819D01*
X151283054Y-88703334D01*
X151309412Y-88700500D01*
X160376000Y-88700500D01*
X160443039Y-88720185D01*
G37*
%TD.AperFunction*%
%TA.AperFunction,Conductor*%
G36*
X154083449Y-103092469D02*
G01*
X154088719Y-103112136D01*
X154115062Y-103157762D01*
X154164485Y-103243365D01*
X154183389Y-103262269D01*
X153847112Y-103257598D01*
X154073178Y-103054139D01*
X154083449Y-103092469D01*
G37*
%TD.AperFunction*%
%TD*%
%TA.AperFunction,Conductor*%
%TO.N,/Connector/POWER_VBUS*%
G36*
X154025204Y-97219685D02*
G01*
X154070959Y-97272489D01*
X154077939Y-97291903D01*
X154088719Y-97332135D01*
X154164485Y-97463365D01*
X154271635Y-97570515D01*
X154402865Y-97646281D01*
X154549234Y-97685500D01*
X154549236Y-97685500D01*
X154700764Y-97685500D01*
X154700766Y-97685500D01*
X154847135Y-97646281D01*
X154978365Y-97570515D01*
X155085515Y-97463365D01*
X155161281Y-97332135D01*
X155172060Y-97291905D01*
X155208426Y-97232246D01*
X155271273Y-97201717D01*
X155291835Y-97200000D01*
X156623500Y-97200000D01*
X156690539Y-97219685D01*
X156736294Y-97272489D01*
X156747500Y-97324000D01*
X156747500Y-101037562D01*
X156751696Y-101053220D01*
X156767979Y-101113990D01*
X156767980Y-101113991D01*
X156781553Y-101137500D01*
X156781554Y-101137501D01*
X156807539Y-101182509D01*
X156807541Y-101182512D01*
X157389608Y-101764579D01*
X157423093Y-101825902D01*
X157424400Y-101832862D01*
X157440279Y-101933123D01*
X157486485Y-102023806D01*
X157500000Y-102080101D01*
X157500000Y-102626000D01*
X157480315Y-102693039D01*
X157427511Y-102738794D01*
X157376000Y-102750000D01*
X155278156Y-102750000D01*
X155211117Y-102730315D01*
X155165362Y-102677511D01*
X155163592Y-102673446D01*
X155161283Y-102667873D01*
X155161281Y-102667865D01*
X155085515Y-102536635D01*
X154978365Y-102429485D01*
X154912750Y-102391602D01*
X154847136Y-102353719D01*
X154773950Y-102334109D01*
X154700766Y-102314500D01*
X154549234Y-102314500D01*
X154402863Y-102353719D01*
X154271635Y-102429485D01*
X154271632Y-102429487D01*
X154164487Y-102536632D01*
X154164485Y-102536635D01*
X154088720Y-102667863D01*
X154086408Y-102673446D01*
X154042570Y-102727852D01*
X153976278Y-102749921D01*
X153971844Y-102750000D01*
X153324000Y-102750000D01*
X153256961Y-102730315D01*
X153211206Y-102677511D01*
X153200000Y-102626000D01*
X153200000Y-97324000D01*
X153219685Y-97256961D01*
X153272489Y-97211206D01*
X153324000Y-97200000D01*
X153958165Y-97200000D01*
X154025204Y-97219685D01*
G37*
%TD.AperFunction*%
%TA.AperFunction,Conductor*%
G36*
X162093039Y-92719685D02*
G01*
X162138794Y-92772489D01*
X162150000Y-92824000D01*
X162150000Y-94965494D01*
X162130315Y-95032533D01*
X162077511Y-95078288D01*
X162008353Y-95088232D01*
X161991066Y-95084471D01*
X161871963Y-95049500D01*
X161871961Y-95049500D01*
X161728039Y-95049500D01*
X161728036Y-95049500D01*
X161589949Y-95090045D01*
X161468873Y-95167856D01*
X161374623Y-95276626D01*
X161374622Y-95276628D01*
X161314834Y-95407543D01*
X161294353Y-95550000D01*
X161314834Y-95692456D01*
X161374622Y-95823371D01*
X161374623Y-95823373D01*
X161444213Y-95903685D01*
X161473238Y-95967240D01*
X161474500Y-95984887D01*
X161474500Y-96507147D01*
X161474500Y-96592853D01*
X161485591Y-96634246D01*
X161496682Y-96675640D01*
X161510458Y-96699500D01*
X161539535Y-96749862D01*
X162014534Y-97224861D01*
X162014535Y-97224862D01*
X162075138Y-97285465D01*
X162086294Y-97291906D01*
X162087999Y-97292890D01*
X162136215Y-97343457D01*
X162150000Y-97400278D01*
X162150000Y-98226000D01*
X162130315Y-98293039D01*
X162077511Y-98338794D01*
X162026000Y-98350000D01*
X158884307Y-98350000D01*
X158877316Y-98349500D01*
X158871961Y-98349500D01*
X158728039Y-98349500D01*
X158722684Y-98349500D01*
X158715693Y-98350000D01*
X157750000Y-98350000D01*
X157716172Y-98383827D01*
X157684788Y-98406628D01*
X157596778Y-98451472D01*
X157560181Y-98488070D01*
X157498858Y-98521555D01*
X157429166Y-98516571D01*
X157373233Y-98474699D01*
X157348816Y-98409235D01*
X157348500Y-98400389D01*
X157348500Y-97152833D01*
X157368185Y-97085794D01*
X157384819Y-97065152D01*
X157815152Y-96634819D01*
X157876475Y-96601334D01*
X157902833Y-96598500D01*
X158741560Y-96598500D01*
X158741562Y-96598500D01*
X158817989Y-96578021D01*
X158886511Y-96538460D01*
X158942460Y-96482511D01*
X159267460Y-96157511D01*
X159292876Y-96113489D01*
X159307021Y-96088989D01*
X159327500Y-96012562D01*
X159327500Y-93873833D01*
X159347185Y-93806794D01*
X159363819Y-93786152D01*
X160413652Y-92736319D01*
X160474975Y-92702834D01*
X160501333Y-92700000D01*
X162026000Y-92700000D01*
X162093039Y-92719685D01*
G37*
%TD.AperFunction*%
%TD*%
%TA.AperFunction,Conductor*%
%TO.N,GND*%
G36*
X153917500Y-96994500D02*
G01*
X153323992Y-96994500D01*
X153280313Y-96999197D01*
X153228825Y-97010397D01*
X153218627Y-97012890D01*
X153218624Y-97012891D01*
X153137916Y-97055899D01*
X153137913Y-97055901D01*
X153085104Y-97101660D01*
X153067160Y-97119242D01*
X153067154Y-97119249D01*
X153022511Y-97199059D01*
X153022509Y-97199064D01*
X153002826Y-97266096D01*
X152994500Y-97324003D01*
X152994500Y-102626007D01*
X152999197Y-102669686D01*
X153010397Y-102721174D01*
X153012890Y-102731372D01*
X153012891Y-102731375D01*
X153055899Y-102812083D01*
X153055901Y-102812086D01*
X153101660Y-102864895D01*
X153119242Y-102882839D01*
X153119246Y-102882843D01*
X153119247Y-102882844D01*
X153119249Y-102882845D01*
X153199059Y-102927488D01*
X153199063Y-102927490D01*
X153266102Y-102947175D01*
X153324000Y-102955500D01*
X153324004Y-102955500D01*
X153951601Y-102955500D01*
X154018640Y-102975185D01*
X154064395Y-103027989D01*
X154071373Y-103047400D01*
X154073179Y-103054138D01*
X153800000Y-103300000D01*
X152600000Y-102700000D01*
X152500000Y-96900000D01*
X153917500Y-96994500D01*
G37*
%TD.AperFunction*%
%TD*%
%TA.AperFunction,Conductor*%
%TO.N,GND*%
G36*
X168005203Y-90947410D02*
G01*
X168011681Y-90953442D01*
X168770603Y-91712364D01*
X168862672Y-91750500D01*
X168862674Y-91750500D01*
X176674826Y-91750500D01*
X176674828Y-91750500D01*
X176766897Y-91712364D01*
X176928761Y-91550500D01*
X176949452Y-91529808D01*
X176949457Y-91529804D01*
X177115710Y-91363549D01*
X177177033Y-91330063D01*
X177183949Y-91328763D01*
X177292482Y-91311574D01*
X177398465Y-91257573D01*
X177482573Y-91173465D01*
X177536574Y-91067482D01*
X177536575Y-91067477D01*
X177539591Y-91058197D01*
X177541215Y-91058724D01*
X177566250Y-91005901D01*
X177625558Y-90968964D01*
X177695421Y-90969955D01*
X177746483Y-91000744D01*
X179013181Y-92267442D01*
X179046666Y-92328765D01*
X179049500Y-92355123D01*
X179049500Y-102149829D01*
X179086849Y-102239996D01*
X179087636Y-102241897D01*
X179858103Y-103012364D01*
X179950172Y-103050500D01*
X179950174Y-103050500D01*
X180899826Y-103050500D01*
X180899828Y-103050500D01*
X180991897Y-103012364D01*
X181262320Y-102741939D01*
X181323640Y-102708456D01*
X181393332Y-102713440D01*
X181437680Y-102741941D01*
X181808103Y-103112364D01*
X181900172Y-103150500D01*
X181999828Y-103150500D01*
X182428820Y-103150500D01*
X182495859Y-103170185D01*
X182541614Y-103222989D01*
X182551558Y-103292147D01*
X182539305Y-103330791D01*
X182538426Y-103332518D01*
X182538424Y-103332522D01*
X182519819Y-103449996D01*
X182519819Y-103450003D01*
X182538424Y-103567477D01*
X182538424Y-103567478D01*
X182538425Y-103567481D01*
X182538426Y-103567482D01*
X182590310Y-103669311D01*
X182592428Y-103673466D01*
X182592431Y-103673470D01*
X182676529Y-103757568D01*
X182676533Y-103757571D01*
X182676535Y-103757573D01*
X182782518Y-103811574D01*
X182782520Y-103811574D01*
X182782522Y-103811575D01*
X182899997Y-103830181D01*
X182900000Y-103830181D01*
X182900003Y-103830181D01*
X183017477Y-103811575D01*
X183017478Y-103811575D01*
X183017479Y-103811574D01*
X183017482Y-103811574D01*
X183123465Y-103757573D01*
X183207573Y-103673465D01*
X183252155Y-103585965D01*
X183300128Y-103535172D01*
X183367949Y-103518376D01*
X183434084Y-103540913D01*
X183450320Y-103554581D01*
X184030565Y-104134825D01*
X184030568Y-104134829D01*
X184037636Y-104141897D01*
X184108103Y-104212364D01*
X184200172Y-104250500D01*
X184376000Y-104250500D01*
X184443039Y-104270185D01*
X184488794Y-104322989D01*
X184500000Y-104374500D01*
X184500000Y-107876000D01*
X184480315Y-107943039D01*
X184427511Y-107988794D01*
X184376000Y-108000000D01*
X183500000Y-108000000D01*
X183500000Y-109126000D01*
X183480315Y-109193039D01*
X183427511Y-109238794D01*
X183376000Y-109250000D01*
X182024000Y-109250000D01*
X181956961Y-109230315D01*
X181911206Y-109177511D01*
X181900000Y-109126000D01*
X181900000Y-104050000D01*
X178350000Y-104050000D01*
X178350000Y-104426413D01*
X178330315Y-104493452D01*
X178277511Y-104539207D01*
X178208356Y-104549151D01*
X178176006Y-104544500D01*
X178176000Y-104544500D01*
X174824000Y-104544500D01*
X174823991Y-104544500D01*
X174790944Y-104548054D01*
X174739433Y-104559260D01*
X174670657Y-104593686D01*
X174617860Y-104639436D01*
X174612376Y-104644422D01*
X174570486Y-104713145D01*
X174570483Y-104713151D01*
X174550799Y-104780187D01*
X174550797Y-104780197D01*
X174544500Y-104823996D01*
X174544500Y-105352854D01*
X173088692Y-105373072D01*
X173006629Y-105291009D01*
X173006628Y-105291008D01*
X173006624Y-105291004D01*
X172990283Y-105276325D01*
X172990269Y-105276313D01*
X172969620Y-105259672D01*
X172898575Y-105222509D01*
X172831543Y-105202826D01*
X172830894Y-105202732D01*
X172773638Y-105194500D01*
X171201362Y-105194500D01*
X171201361Y-105194500D01*
X171179381Y-105195678D01*
X171153034Y-105198511D01*
X171153032Y-105198512D01*
X171076521Y-105222470D01*
X171076516Y-105222471D01*
X171015188Y-105255960D01*
X170968384Y-105290998D01*
X170968363Y-105291016D01*
X170201199Y-106058181D01*
X170139876Y-106091666D01*
X170113518Y-106094500D01*
X168436482Y-106094500D01*
X168369443Y-106074815D01*
X168348801Y-106058181D01*
X166841819Y-104551199D01*
X166808334Y-104489876D01*
X166805500Y-104463518D01*
X166805500Y-103385258D01*
X167499500Y-103385258D01*
X167499500Y-103614741D01*
X167524446Y-103804215D01*
X167529452Y-103842238D01*
X167529453Y-103842240D01*
X167588842Y-104063887D01*
X167676650Y-104275876D01*
X167676657Y-104275890D01*
X167791392Y-104474617D01*
X167931081Y-104656661D01*
X167931089Y-104656670D01*
X168093330Y-104818911D01*
X168093338Y-104818918D01*
X168093339Y-104818919D01*
X168099961Y-104824000D01*
X168275382Y-104958607D01*
X168275385Y-104958608D01*
X168275388Y-104958611D01*
X168474112Y-105073344D01*
X168474117Y-105073346D01*
X168474123Y-105073349D01*
X168523900Y-105093967D01*
X168686113Y-105161158D01*
X168907762Y-105220548D01*
X169135266Y-105250500D01*
X169135273Y-105250500D01*
X169364727Y-105250500D01*
X169364734Y-105250500D01*
X169592238Y-105220548D01*
X169813887Y-105161158D01*
X170025888Y-105073344D01*
X170224612Y-104958611D01*
X170406661Y-104818919D01*
X170406665Y-104818914D01*
X170406670Y-104818911D01*
X170568911Y-104656670D01*
X170568914Y-104656665D01*
X170568919Y-104656661D01*
X170708611Y-104474612D01*
X170823344Y-104275888D01*
X170911158Y-104063887D01*
X170970548Y-103842238D01*
X171000500Y-103614734D01*
X171000500Y-103385266D01*
X170989274Y-103300000D01*
X174994867Y-103300000D01*
X175013302Y-103428225D01*
X175061878Y-103534590D01*
X175067118Y-103546063D01*
X175151951Y-103643967D01*
X175260931Y-103714004D01*
X175385225Y-103750499D01*
X175385227Y-103750500D01*
X175385228Y-103750500D01*
X175514773Y-103750500D01*
X175514773Y-103750499D01*
X175639069Y-103714004D01*
X175748049Y-103643967D01*
X175832882Y-103546063D01*
X175886697Y-103428226D01*
X175905133Y-103300000D01*
X176794867Y-103300000D01*
X176813302Y-103428225D01*
X176861878Y-103534590D01*
X176867118Y-103546063D01*
X176951951Y-103643967D01*
X177060931Y-103714004D01*
X177185225Y-103750499D01*
X177185227Y-103750500D01*
X177185228Y-103750500D01*
X177314773Y-103750500D01*
X177314773Y-103750499D01*
X177439069Y-103714004D01*
X177548049Y-103643967D01*
X177632882Y-103546063D01*
X177686697Y-103428226D01*
X177705133Y-103300000D01*
X177686697Y-103171774D01*
X177632882Y-103053937D01*
X177548049Y-102956033D01*
X177439069Y-102885996D01*
X177439065Y-102885994D01*
X177439064Y-102885994D01*
X177314774Y-102849500D01*
X177314772Y-102849500D01*
X177185228Y-102849500D01*
X177185226Y-102849500D01*
X177060935Y-102885994D01*
X177060932Y-102885995D01*
X177060931Y-102885996D01*
X177047358Y-102894719D01*
X176951950Y-102956033D01*
X176867118Y-103053937D01*
X176867117Y-103053938D01*
X176813302Y-103171774D01*
X176794867Y-103300000D01*
X175905133Y-103300000D01*
X175886697Y-103171774D01*
X175832882Y-103053937D01*
X175748049Y-102956033D01*
X175639069Y-102885996D01*
X175639065Y-102885994D01*
X175639064Y-102885994D01*
X175514774Y-102849500D01*
X175514772Y-102849500D01*
X175385228Y-102849500D01*
X175385226Y-102849500D01*
X175260935Y-102885994D01*
X175260932Y-102885995D01*
X175260931Y-102885996D01*
X175247358Y-102894719D01*
X175151950Y-102956033D01*
X175067118Y-103053937D01*
X175067117Y-103053938D01*
X175013302Y-103171774D01*
X174994867Y-103300000D01*
X170989274Y-103300000D01*
X170970548Y-103157762D01*
X170911158Y-102936113D01*
X170823344Y-102724112D01*
X170708611Y-102525388D01*
X170708608Y-102525385D01*
X170708607Y-102525382D01*
X170568918Y-102343338D01*
X170568911Y-102343330D01*
X170406670Y-102181089D01*
X170406661Y-102181081D01*
X170224617Y-102041392D01*
X170025890Y-101926657D01*
X170025876Y-101926650D01*
X169813887Y-101838842D01*
X169763097Y-101825233D01*
X169592238Y-101779452D01*
X169554215Y-101774446D01*
X169364741Y-101749500D01*
X169364734Y-101749500D01*
X169135266Y-101749500D01*
X169135258Y-101749500D01*
X168918715Y-101778009D01*
X168907762Y-101779452D01*
X168832941Y-101799500D01*
X168686112Y-101838842D01*
X168474123Y-101926650D01*
X168474109Y-101926657D01*
X168275382Y-102041392D01*
X168093338Y-102181081D01*
X167931081Y-102343338D01*
X167791392Y-102525382D01*
X167676657Y-102724109D01*
X167676650Y-102724123D01*
X167588842Y-102936112D01*
X167557271Y-103053938D01*
X167541617Y-103112363D01*
X167529453Y-103157759D01*
X167529451Y-103157770D01*
X167499500Y-103385258D01*
X166805500Y-103385258D01*
X166805500Y-102586481D01*
X166825185Y-102519442D01*
X166841819Y-102498800D01*
X167659366Y-101681253D01*
X167659379Y-101681240D01*
X167673586Y-101665485D01*
X167689710Y-101645632D01*
X167726925Y-101575462D01*
X167747116Y-101508573D01*
X167755878Y-101450745D01*
X167756309Y-101393849D01*
X167776498Y-101326964D01*
X167794511Y-101305260D01*
X167800000Y-101300000D01*
X167800000Y-99787473D01*
X167819685Y-99720434D01*
X167872489Y-99674679D01*
X167941647Y-99664735D01*
X167980290Y-99676986D01*
X168082518Y-99729074D01*
X168082520Y-99729074D01*
X168082522Y-99729075D01*
X168199997Y-99747681D01*
X168200000Y-99747681D01*
X168200003Y-99747681D01*
X168317477Y-99729075D01*
X168317478Y-99729075D01*
X168317479Y-99729074D01*
X168317482Y-99729074D01*
X168423465Y-99675073D01*
X168507573Y-99590965D01*
X168561574Y-99484982D01*
X168571895Y-99419819D01*
X168580181Y-99367503D01*
X168580181Y-99367496D01*
X168561575Y-99250022D01*
X168561575Y-99250021D01*
X168561574Y-99250019D01*
X168561574Y-99250018D01*
X168507573Y-99144035D01*
X168507571Y-99144033D01*
X168507568Y-99144029D01*
X168423470Y-99059931D01*
X168423466Y-99059928D01*
X168423465Y-99059927D01*
X168402012Y-99048996D01*
X170619500Y-99048996D01*
X170619500Y-99701008D01*
X170623054Y-99734055D01*
X170634260Y-99785566D01*
X170668686Y-99854342D01*
X170714436Y-99907139D01*
X170719422Y-99912623D01*
X170783858Y-99951900D01*
X170788150Y-99954516D01*
X170855189Y-99974201D01*
X170899000Y-99980500D01*
X170899003Y-99980500D01*
X171100991Y-99980500D01*
X171101000Y-99980500D01*
X171134055Y-99976946D01*
X171185566Y-99965740D01*
X171254342Y-99931313D01*
X171307146Y-99885558D01*
X171312621Y-99880580D01*
X171354516Y-99811850D01*
X171357997Y-99799996D01*
X174599819Y-99799996D01*
X174599819Y-99800003D01*
X174618424Y-99917477D01*
X174618424Y-99917478D01*
X174618425Y-99917481D01*
X174618426Y-99917482D01*
X174650535Y-99980500D01*
X174672428Y-100023466D01*
X174672431Y-100023470D01*
X174756529Y-100107568D01*
X174756533Y-100107571D01*
X174756535Y-100107573D01*
X174862518Y-100161574D01*
X174862520Y-100161574D01*
X174862522Y-100161575D01*
X174979997Y-100180181D01*
X174980000Y-100180181D01*
X174980003Y-100180181D01*
X175097477Y-100161575D01*
X175097478Y-100161575D01*
X175097479Y-100161574D01*
X175097482Y-100161574D01*
X175203465Y-100107573D01*
X175287573Y-100023465D01*
X175341574Y-99917482D01*
X175344258Y-99900538D01*
X175360181Y-99800003D01*
X175360181Y-99799996D01*
X175839819Y-99799996D01*
X175839819Y-99800003D01*
X175858424Y-99917477D01*
X175858424Y-99917478D01*
X175858425Y-99917481D01*
X175858426Y-99917482D01*
X175890535Y-99980500D01*
X175912428Y-100023466D01*
X175912431Y-100023470D01*
X175996529Y-100107568D01*
X175996533Y-100107571D01*
X175996535Y-100107573D01*
X176102518Y-100161574D01*
X176102520Y-100161574D01*
X176102522Y-100161575D01*
X176219997Y-100180181D01*
X176220000Y-100180181D01*
X176220003Y-100180181D01*
X176337477Y-100161575D01*
X176337478Y-100161575D01*
X176337479Y-100161574D01*
X176337482Y-100161574D01*
X176443465Y-100107573D01*
X176527573Y-100023465D01*
X176581574Y-99917482D01*
X176584258Y-99900538D01*
X176600181Y-99800003D01*
X176600181Y-99799996D01*
X176581575Y-99682522D01*
X176581575Y-99682521D01*
X176581574Y-99682519D01*
X176581574Y-99682518D01*
X176527573Y-99576535D01*
X176527571Y-99576533D01*
X176527568Y-99576529D01*
X176443470Y-99492431D01*
X176443466Y-99492428D01*
X176443465Y-99492427D01*
X176337482Y-99438426D01*
X176337480Y-99438425D01*
X176337477Y-99438424D01*
X176220003Y-99419819D01*
X176219997Y-99419819D01*
X176102522Y-99438424D01*
X176102521Y-99438424D01*
X175996533Y-99492428D01*
X175996529Y-99492431D01*
X175912431Y-99576529D01*
X175912428Y-99576533D01*
X175858424Y-99682521D01*
X175858424Y-99682522D01*
X175839819Y-99799996D01*
X175360181Y-99799996D01*
X175341575Y-99682522D01*
X175341575Y-99682521D01*
X175341574Y-99682519D01*
X175341574Y-99682518D01*
X175287573Y-99576535D01*
X175287571Y-99576533D01*
X175287568Y-99576529D01*
X175203470Y-99492431D01*
X175203466Y-99492428D01*
X175203465Y-99492427D01*
X175097482Y-99438426D01*
X175097480Y-99438425D01*
X175097477Y-99438424D01*
X174980003Y-99419819D01*
X174979997Y-99419819D01*
X174862522Y-99438424D01*
X174862521Y-99438424D01*
X174756533Y-99492428D01*
X174756529Y-99492431D01*
X174672431Y-99576529D01*
X174672428Y-99576533D01*
X174618424Y-99682521D01*
X174618424Y-99682522D01*
X174599819Y-99799996D01*
X171357997Y-99799996D01*
X171374201Y-99744811D01*
X171380500Y-99701000D01*
X171380500Y-99049000D01*
X171376946Y-99015945D01*
X171365740Y-98964434D01*
X171346771Y-98926538D01*
X171333485Y-98899996D01*
X172794819Y-98899996D01*
X172794819Y-98900003D01*
X172813424Y-99017477D01*
X172813424Y-99017478D01*
X172813425Y-99017481D01*
X172813426Y-99017482D01*
X172866565Y-99121774D01*
X172867428Y-99123466D01*
X172867431Y-99123470D01*
X172951529Y-99207568D01*
X172951533Y-99207571D01*
X172951535Y-99207573D01*
X173057518Y-99261574D01*
X173057520Y-99261574D01*
X173057522Y-99261575D01*
X173174997Y-99280181D01*
X173175000Y-99280181D01*
X173175003Y-99280181D01*
X173292477Y-99261575D01*
X173292478Y-99261575D01*
X173292479Y-99261574D01*
X173292482Y-99261574D01*
X173398465Y-99207573D01*
X173482573Y-99123465D01*
X173536574Y-99017482D01*
X173536575Y-99017477D01*
X173555181Y-98900003D01*
X173555181Y-98899996D01*
X173554389Y-98894996D01*
X175299819Y-98894996D01*
X175299819Y-98895003D01*
X175318424Y-99012477D01*
X175318424Y-99012478D01*
X175318425Y-99012481D01*
X175318426Y-99012482D01*
X175360977Y-99095994D01*
X175372428Y-99118466D01*
X175372431Y-99118470D01*
X175456529Y-99202568D01*
X175456533Y-99202571D01*
X175456535Y-99202573D01*
X175562518Y-99256574D01*
X175562520Y-99256574D01*
X175562522Y-99256575D01*
X175679997Y-99275181D01*
X175680000Y-99275181D01*
X175680003Y-99275181D01*
X175797477Y-99256575D01*
X175797478Y-99256575D01*
X175797479Y-99256574D01*
X175797482Y-99256574D01*
X175903465Y-99202573D01*
X175987573Y-99118465D01*
X176041574Y-99012482D01*
X176041718Y-99011574D01*
X176059390Y-98899996D01*
X176819819Y-98899996D01*
X176819819Y-98900003D01*
X176838424Y-99017477D01*
X176838424Y-99017478D01*
X176838425Y-99017481D01*
X176838426Y-99017482D01*
X176891565Y-99121774D01*
X176892428Y-99123466D01*
X176892431Y-99123470D01*
X176976529Y-99207568D01*
X176976533Y-99207571D01*
X176976535Y-99207573D01*
X177082518Y-99261574D01*
X177082520Y-99261574D01*
X177082522Y-99261575D01*
X177199997Y-99280181D01*
X177200000Y-99280181D01*
X177200003Y-99280181D01*
X177317477Y-99261575D01*
X177317478Y-99261575D01*
X177317479Y-99261574D01*
X177317482Y-99261574D01*
X177423465Y-99207573D01*
X177423471Y-99207566D01*
X177427114Y-99204921D01*
X177492921Y-99181441D01*
X177560974Y-99197266D01*
X177572886Y-99204921D01*
X177576531Y-99207569D01*
X177576535Y-99207573D01*
X177682518Y-99261574D01*
X177682520Y-99261574D01*
X177682522Y-99261575D01*
X177799997Y-99280181D01*
X177800000Y-99280181D01*
X177800003Y-99280181D01*
X177917477Y-99261575D01*
X177917478Y-99261575D01*
X177917479Y-99261574D01*
X177917482Y-99261574D01*
X178023465Y-99207573D01*
X178107573Y-99123465D01*
X178161574Y-99017482D01*
X178161575Y-99017477D01*
X178180181Y-98900003D01*
X178180181Y-98899996D01*
X178161575Y-98782522D01*
X178161575Y-98782521D01*
X178161574Y-98782519D01*
X178161574Y-98782518D01*
X178107573Y-98676535D01*
X178107571Y-98676533D01*
X178107568Y-98676529D01*
X178023470Y-98592431D01*
X178023466Y-98592428D01*
X178023465Y-98592427D01*
X177917482Y-98538426D01*
X177917480Y-98538425D01*
X177917477Y-98538424D01*
X177800003Y-98519819D01*
X177799997Y-98519819D01*
X177682522Y-98538424D01*
X177682521Y-98538424D01*
X177576530Y-98592429D01*
X177572880Y-98595082D01*
X177507072Y-98618558D01*
X177439019Y-98602729D01*
X177427120Y-98595082D01*
X177423469Y-98592429D01*
X177386283Y-98573482D01*
X177317482Y-98538426D01*
X177317480Y-98538425D01*
X177317477Y-98538424D01*
X177200003Y-98519819D01*
X177199997Y-98519819D01*
X177082522Y-98538424D01*
X177082521Y-98538424D01*
X176976533Y-98592428D01*
X176976529Y-98592431D01*
X176892431Y-98676529D01*
X176892428Y-98676533D01*
X176838424Y-98782521D01*
X176838424Y-98782522D01*
X176819819Y-98899996D01*
X176059390Y-98899996D01*
X176060181Y-98895003D01*
X176060181Y-98894996D01*
X176041575Y-98777522D01*
X176041575Y-98777521D01*
X176041574Y-98777519D01*
X176041574Y-98777518D01*
X175987573Y-98671535D01*
X175987571Y-98671533D01*
X175987568Y-98671529D01*
X175903470Y-98587431D01*
X175903466Y-98587428D01*
X175903465Y-98587427D01*
X175797482Y-98533426D01*
X175797480Y-98533425D01*
X175797477Y-98533424D01*
X175680003Y-98514819D01*
X175679997Y-98514819D01*
X175562522Y-98533424D01*
X175562521Y-98533424D01*
X175456533Y-98587428D01*
X175456529Y-98587431D01*
X175372431Y-98671529D01*
X175372428Y-98671533D01*
X175318424Y-98777521D01*
X175318424Y-98777522D01*
X175299819Y-98894996D01*
X173554389Y-98894996D01*
X173536575Y-98782522D01*
X173536575Y-98782521D01*
X173536574Y-98782519D01*
X173536574Y-98782518D01*
X173482573Y-98676535D01*
X173482571Y-98676533D01*
X173482568Y-98676529D01*
X173398470Y-98592431D01*
X173398466Y-98592428D01*
X173398465Y-98592427D01*
X173292482Y-98538426D01*
X173292480Y-98538425D01*
X173292477Y-98538424D01*
X173175003Y-98519819D01*
X173174997Y-98519819D01*
X173057522Y-98538424D01*
X173057521Y-98538424D01*
X172951533Y-98592428D01*
X172951529Y-98592431D01*
X172867431Y-98676529D01*
X172867428Y-98676533D01*
X172813424Y-98782521D01*
X172813424Y-98782522D01*
X172794819Y-98899996D01*
X171333485Y-98899996D01*
X171331313Y-98895657D01*
X171285563Y-98842860D01*
X171280577Y-98837376D01*
X171211854Y-98795486D01*
X171211848Y-98795483D01*
X171144812Y-98775799D01*
X171144802Y-98775797D01*
X171101003Y-98769500D01*
X171101000Y-98769500D01*
X170899000Y-98769500D01*
X170898991Y-98769500D01*
X170865944Y-98773054D01*
X170814433Y-98784260D01*
X170745657Y-98818686D01*
X170692860Y-98864436D01*
X170687376Y-98869422D01*
X170645486Y-98938145D01*
X170645483Y-98938151D01*
X170625799Y-99005187D01*
X170625797Y-99005197D01*
X170619500Y-99048996D01*
X168402012Y-99048996D01*
X168317482Y-99005926D01*
X168317480Y-99005925D01*
X168317477Y-99005924D01*
X168200003Y-98987319D01*
X168199997Y-98987319D01*
X168082522Y-99005924D01*
X168082518Y-99005925D01*
X167980294Y-99058011D01*
X167911625Y-99070907D01*
X167846884Y-99044630D01*
X167806628Y-98987523D01*
X167800000Y-98947526D01*
X167800000Y-98248996D01*
X168969500Y-98248996D01*
X168969500Y-98451008D01*
X168973054Y-98484055D01*
X168984260Y-98535566D01*
X169018686Y-98604342D01*
X169064436Y-98657139D01*
X169069422Y-98662623D01*
X169138145Y-98704513D01*
X169138150Y-98704516D01*
X169205189Y-98724201D01*
X169249000Y-98730500D01*
X169249003Y-98730500D01*
X169950991Y-98730500D01*
X169951000Y-98730500D01*
X169984055Y-98726946D01*
X170035566Y-98715740D01*
X170104342Y-98681313D01*
X170157146Y-98635558D01*
X170162621Y-98630580D01*
X170204516Y-98561850D01*
X170224201Y-98494811D01*
X170230500Y-98451000D01*
X170230500Y-98249000D01*
X170226946Y-98215945D01*
X170215740Y-98164434D01*
X170196001Y-98125000D01*
X170181313Y-98095657D01*
X170135563Y-98042860D01*
X170130577Y-98037376D01*
X170061854Y-97995486D01*
X170061848Y-97995483D01*
X169994812Y-97975799D01*
X169994802Y-97975797D01*
X169951003Y-97969500D01*
X169951000Y-97969500D01*
X169249000Y-97969500D01*
X169248991Y-97969500D01*
X169215944Y-97973054D01*
X169164433Y-97984260D01*
X169095657Y-98018686D01*
X169042860Y-98064436D01*
X169037376Y-98069422D01*
X168995486Y-98138145D01*
X168995483Y-98138151D01*
X168975799Y-98205187D01*
X168975797Y-98205197D01*
X168969500Y-98248996D01*
X167800000Y-98248996D01*
X167800000Y-97424500D01*
X167819685Y-97357461D01*
X167872489Y-97311706D01*
X167924000Y-97300500D01*
X168081231Y-97300500D01*
X168148270Y-97320185D01*
X168194025Y-97372989D01*
X168203969Y-97442147D01*
X168203704Y-97443897D01*
X168194819Y-97499996D01*
X168194819Y-97500003D01*
X168213424Y-97617477D01*
X168213424Y-97617478D01*
X168213425Y-97617481D01*
X168213426Y-97617482D01*
X168249171Y-97687636D01*
X168267428Y-97723466D01*
X168267431Y-97723470D01*
X168351529Y-97807568D01*
X168351533Y-97807571D01*
X168351535Y-97807573D01*
X168457518Y-97861574D01*
X168457520Y-97861574D01*
X168457522Y-97861575D01*
X168574997Y-97880181D01*
X168575000Y-97880181D01*
X168575003Y-97880181D01*
X168692477Y-97861575D01*
X168692478Y-97861575D01*
X168692479Y-97861574D01*
X168692482Y-97861574D01*
X168798465Y-97807573D01*
X168882573Y-97723465D01*
X168936574Y-97617482D01*
X168951984Y-97520187D01*
X168955181Y-97500003D01*
X168955181Y-97499996D01*
X168936575Y-97382522D01*
X168936575Y-97382521D01*
X168936574Y-97382519D01*
X168936574Y-97382518D01*
X168882573Y-97276535D01*
X168882571Y-97276533D01*
X168882568Y-97276529D01*
X168810717Y-97204678D01*
X168777232Y-97143355D01*
X168782216Y-97073663D01*
X168810715Y-97029319D01*
X170003515Y-95836519D01*
X170064836Y-95803036D01*
X170071797Y-95801729D01*
X170167477Y-95786575D01*
X170167478Y-95786575D01*
X170167479Y-95786574D01*
X170167482Y-95786574D01*
X170273465Y-95732573D01*
X170357573Y-95648465D01*
X170411574Y-95542482D01*
X170419626Y-95491645D01*
X170430181Y-95425003D01*
X170430181Y-95424996D01*
X170411575Y-95307522D01*
X170411575Y-95307521D01*
X170411574Y-95307519D01*
X170411574Y-95307518D01*
X170357573Y-95201535D01*
X170357571Y-95201533D01*
X170357568Y-95201529D01*
X170273470Y-95117431D01*
X170273466Y-95117428D01*
X170273465Y-95117427D01*
X170167482Y-95063426D01*
X170167480Y-95063425D01*
X170167477Y-95063424D01*
X170050003Y-95044819D01*
X170049997Y-95044819D01*
X169932522Y-95063424D01*
X169932521Y-95063424D01*
X169826533Y-95117428D01*
X169826529Y-95117431D01*
X169742431Y-95201529D01*
X169742428Y-95201533D01*
X169688424Y-95307522D01*
X169682522Y-95344789D01*
X169652593Y-95407924D01*
X169647730Y-95413072D01*
X168347624Y-96713181D01*
X168286301Y-96746666D01*
X168259943Y-96749500D01*
X167924000Y-96749500D01*
X167856961Y-96729815D01*
X167811206Y-96677011D01*
X167800000Y-96625500D01*
X167800000Y-95673586D01*
X167819685Y-95606547D01*
X167872489Y-95560792D01*
X167941645Y-95550848D01*
X167974000Y-95555500D01*
X167974003Y-95555500D01*
X168675991Y-95555500D01*
X168676000Y-95555500D01*
X168709055Y-95551946D01*
X168760566Y-95540740D01*
X168829342Y-95506313D01*
X168882146Y-95460558D01*
X168887621Y-95455580D01*
X168929516Y-95386850D01*
X168949201Y-95319811D01*
X168955500Y-95276000D01*
X168955500Y-94574000D01*
X168951946Y-94540945D01*
X168940740Y-94489434D01*
X168923545Y-94455084D01*
X168906313Y-94420657D01*
X168860563Y-94367860D01*
X168855577Y-94362376D01*
X168786854Y-94320486D01*
X168786848Y-94320483D01*
X168719812Y-94300799D01*
X168719802Y-94300797D01*
X168676003Y-94294500D01*
X168676000Y-94294500D01*
X167974000Y-94294500D01*
X167973991Y-94294500D01*
X167937643Y-94298409D01*
X167937474Y-94296838D01*
X167874306Y-94288789D01*
X167820774Y-94243888D01*
X167800016Y-94177173D01*
X167800000Y-94175182D01*
X167800000Y-93213623D01*
X167819685Y-93146584D01*
X167872489Y-93100829D01*
X167941647Y-93090885D01*
X168005203Y-93119910D01*
X168011681Y-93125942D01*
X169302636Y-94416897D01*
X169373103Y-94487364D01*
X169465172Y-94525500D01*
X170268099Y-94525500D01*
X170335138Y-94545185D01*
X170355780Y-94561819D01*
X170376529Y-94582568D01*
X170376533Y-94582571D01*
X170376535Y-94582573D01*
X170482518Y-94636574D01*
X170482520Y-94636574D01*
X170482522Y-94636575D01*
X170599997Y-94655181D01*
X170600000Y-94655181D01*
X170600003Y-94655181D01*
X170717477Y-94636575D01*
X170717478Y-94636575D01*
X170717479Y-94636574D01*
X170717482Y-94636574D01*
X170823465Y-94582573D01*
X170907573Y-94498465D01*
X170961574Y-94392482D01*
X170961575Y-94392477D01*
X170980181Y-94275003D01*
X170980181Y-94274996D01*
X170961575Y-94157522D01*
X170961575Y-94157521D01*
X170961574Y-94157519D01*
X170961574Y-94157518D01*
X170907573Y-94051535D01*
X170907571Y-94051533D01*
X170907568Y-94051529D01*
X170836220Y-93980181D01*
X170802735Y-93918858D01*
X170807719Y-93849166D01*
X170836220Y-93804819D01*
X170907568Y-93733470D01*
X170907573Y-93733465D01*
X170961574Y-93627482D01*
X170980181Y-93510000D01*
X170980181Y-93509996D01*
X170961575Y-93392522D01*
X170961575Y-93392521D01*
X170961574Y-93392519D01*
X170961574Y-93392518D01*
X170907573Y-93286535D01*
X170907571Y-93286533D01*
X170907568Y-93286529D01*
X170823470Y-93202431D01*
X170823466Y-93202428D01*
X170823465Y-93202427D01*
X170717482Y-93148426D01*
X170717480Y-93148425D01*
X170717477Y-93148424D01*
X170600003Y-93129819D01*
X170599997Y-93129819D01*
X170482522Y-93148424D01*
X170482521Y-93148424D01*
X170376533Y-93202428D01*
X170376529Y-93202431D01*
X170292431Y-93286529D01*
X170292428Y-93286533D01*
X170238424Y-93392521D01*
X170238424Y-93392522D01*
X170219819Y-93509996D01*
X170219819Y-93510003D01*
X170238424Y-93627477D01*
X170238424Y-93627478D01*
X170292428Y-93733466D01*
X170292431Y-93733470D01*
X170363780Y-93804819D01*
X170397265Y-93866142D01*
X170392281Y-93935834D01*
X170363780Y-93980181D01*
X170355780Y-93988181D01*
X170294457Y-94021666D01*
X170268099Y-94024500D01*
X169670123Y-94024500D01*
X169603084Y-94004815D01*
X169582442Y-93988181D01*
X167836319Y-92242058D01*
X167802834Y-92180735D01*
X167800000Y-92154377D01*
X167800000Y-91041123D01*
X167819685Y-90974084D01*
X167872489Y-90928329D01*
X167941647Y-90918385D01*
X168005203Y-90947410D01*
G37*
%TD.AperFunction*%
%TA.AperFunction,Conductor*%
G36*
X192843039Y-88720185D02*
G01*
X192888794Y-88772989D01*
X192900000Y-88824500D01*
X192900000Y-92176000D01*
X192880315Y-92243039D01*
X192827511Y-92288794D01*
X192776000Y-92300000D01*
X184700000Y-92300000D01*
X184700000Y-97600000D01*
X191300000Y-97600000D01*
X192576000Y-97600000D01*
X192643039Y-97619685D01*
X192688794Y-97672489D01*
X192700000Y-97724000D01*
X192700000Y-101376000D01*
X192680315Y-101443039D01*
X192627511Y-101488794D01*
X192576000Y-101500000D01*
X191300000Y-101500000D01*
X191300000Y-102425500D01*
X191280315Y-102492539D01*
X191227511Y-102538294D01*
X191176000Y-102549500D01*
X187555123Y-102549500D01*
X187488084Y-102529815D01*
X187467442Y-102513181D01*
X185241897Y-100287636D01*
X185149829Y-100249500D01*
X185149828Y-100249500D01*
X184355123Y-100249500D01*
X184288084Y-100229815D01*
X184267442Y-100213181D01*
X183939519Y-99885258D01*
X186749500Y-99885258D01*
X186749500Y-100114741D01*
X186772263Y-100287636D01*
X186779452Y-100342238D01*
X186796546Y-100406033D01*
X186838842Y-100563887D01*
X186926650Y-100775876D01*
X186926657Y-100775890D01*
X187041392Y-100974617D01*
X187181081Y-101156661D01*
X187181089Y-101156670D01*
X187343330Y-101318911D01*
X187343338Y-101318918D01*
X187343339Y-101318919D01*
X187367731Y-101337636D01*
X187525382Y-101458607D01*
X187525385Y-101458608D01*
X187525388Y-101458611D01*
X187724112Y-101573344D01*
X187724117Y-101573346D01*
X187724123Y-101573349D01*
X187815480Y-101611190D01*
X187936113Y-101661158D01*
X188157762Y-101720548D01*
X188385266Y-101750500D01*
X188385273Y-101750500D01*
X188614727Y-101750500D01*
X188614734Y-101750500D01*
X188842238Y-101720548D01*
X189063887Y-101661158D01*
X189275888Y-101573344D01*
X189474612Y-101458611D01*
X189656661Y-101318919D01*
X189656665Y-101318914D01*
X189656670Y-101318911D01*
X189818911Y-101156670D01*
X189818914Y-101156665D01*
X189818919Y-101156661D01*
X189958611Y-100974612D01*
X190073344Y-100775888D01*
X190161158Y-100563887D01*
X190220548Y-100342238D01*
X190250500Y-100114734D01*
X190250500Y-99885266D01*
X190220548Y-99657762D01*
X190161158Y-99436113D01*
X190088862Y-99261575D01*
X190073349Y-99224123D01*
X190073346Y-99224117D01*
X190073344Y-99224112D01*
X189958611Y-99025388D01*
X189958608Y-99025385D01*
X189958607Y-99025382D01*
X189818918Y-98843338D01*
X189818911Y-98843330D01*
X189656670Y-98681089D01*
X189656661Y-98681081D01*
X189474617Y-98541392D01*
X189460819Y-98533426D01*
X189318067Y-98451008D01*
X189275890Y-98426657D01*
X189275876Y-98426650D01*
X189063887Y-98338842D01*
X188986472Y-98318099D01*
X188842238Y-98279452D01*
X188804215Y-98274446D01*
X188614741Y-98249500D01*
X188614734Y-98249500D01*
X188385266Y-98249500D01*
X188385258Y-98249500D01*
X188168715Y-98278009D01*
X188157762Y-98279452D01*
X188064076Y-98304554D01*
X187936112Y-98338842D01*
X187724123Y-98426650D01*
X187724109Y-98426657D01*
X187525382Y-98541392D01*
X187343338Y-98681081D01*
X187181081Y-98843338D01*
X187041392Y-99025382D01*
X186926657Y-99224109D01*
X186926650Y-99224123D01*
X186838842Y-99436112D01*
X186821049Y-99502518D01*
X186788231Y-99625000D01*
X186779453Y-99657759D01*
X186779451Y-99657770D01*
X186749500Y-99885258D01*
X183939519Y-99885258D01*
X183086819Y-99032558D01*
X183053334Y-98971235D01*
X183050500Y-98944877D01*
X183050500Y-97964270D01*
X183050501Y-97964261D01*
X183050501Y-97850173D01*
X183050501Y-97850172D01*
X183019237Y-97774696D01*
X183012364Y-97758103D01*
X182941897Y-97687636D01*
X182934832Y-97680571D01*
X182934825Y-97680565D01*
X182441897Y-97187636D01*
X182349829Y-97149500D01*
X182349828Y-97149500D01*
X180799828Y-97149500D01*
X180700172Y-97149500D01*
X180700170Y-97149500D01*
X180608102Y-97187636D01*
X180608101Y-97187637D01*
X180262181Y-97533558D01*
X180200858Y-97567043D01*
X180131166Y-97562059D01*
X180075233Y-97520187D01*
X180050816Y-97454723D01*
X180050500Y-97445877D01*
X180050500Y-92139270D01*
X180050501Y-92139261D01*
X180050501Y-92025174D01*
X180050500Y-92025170D01*
X180012364Y-91933104D01*
X180012363Y-91933102D01*
X179934832Y-91855571D01*
X179934825Y-91855565D01*
X178579260Y-90500000D01*
X177166897Y-89087636D01*
X177074829Y-89049500D01*
X177074828Y-89049500D01*
X175999827Y-89049500D01*
X175900172Y-89049500D01*
X175900170Y-89049500D01*
X175808102Y-89087636D01*
X175532557Y-89363181D01*
X175471234Y-89396666D01*
X175444876Y-89399500D01*
X175335226Y-89399500D01*
X175210935Y-89435994D01*
X175210932Y-89435995D01*
X175210931Y-89435996D01*
X175159677Y-89468934D01*
X175101950Y-89506033D01*
X175017118Y-89603937D01*
X175017117Y-89603938D01*
X174963299Y-89721782D01*
X174963090Y-89722495D01*
X174962688Y-89723119D01*
X174959619Y-89729841D01*
X174958651Y-89729399D01*
X174925310Y-89781270D01*
X174861751Y-89810288D01*
X174792594Y-89800337D01*
X174750402Y-89768748D01*
X174748050Y-89766034D01*
X174748049Y-89766033D01*
X174652012Y-89704314D01*
X174606259Y-89651512D01*
X174596315Y-89582354D01*
X174625340Y-89518798D01*
X174652010Y-89495687D01*
X174748049Y-89433967D01*
X174832882Y-89336063D01*
X174886697Y-89218226D01*
X174905133Y-89090000D01*
X174886697Y-88961774D01*
X174847529Y-88876010D01*
X174837586Y-88806854D01*
X174866611Y-88743298D01*
X174925388Y-88705523D01*
X174960324Y-88700500D01*
X192776000Y-88700500D01*
X192843039Y-88720185D01*
G37*
%TD.AperFunction*%
%TA.AperFunction,Conductor*%
G36*
X182211916Y-97670185D02*
G01*
X182232558Y-97686819D01*
X182513181Y-97967441D01*
X182546666Y-98028764D01*
X182549500Y-98055122D01*
X182549500Y-99149829D01*
X182587636Y-99241897D01*
X183908558Y-100562819D01*
X183942043Y-100624142D01*
X183937059Y-100693834D01*
X183895187Y-100749767D01*
X183829723Y-100774184D01*
X183820877Y-100774500D01*
X180930123Y-100774500D01*
X180863084Y-100754815D01*
X180842442Y-100738181D01*
X180621819Y-100517558D01*
X180588334Y-100456235D01*
X180585500Y-100429877D01*
X180585500Y-99951900D01*
X180605185Y-99884861D01*
X180621815Y-99864222D01*
X180642573Y-99843465D01*
X180696574Y-99737482D01*
X180705279Y-99682521D01*
X180715181Y-99620003D01*
X180715181Y-99619996D01*
X180696575Y-99502522D01*
X180696575Y-99502521D01*
X180696574Y-99502519D01*
X180696574Y-99502518D01*
X180642573Y-99396535D01*
X180642571Y-99396533D01*
X180642568Y-99396529D01*
X180558470Y-99312431D01*
X180558466Y-99312428D01*
X180558465Y-99312427D01*
X180452482Y-99258426D01*
X180452481Y-99258425D01*
X180452478Y-99258424D01*
X180431467Y-99255097D01*
X180368332Y-99225168D01*
X180331401Y-99165856D01*
X180332399Y-99095994D01*
X180371009Y-99037761D01*
X180414306Y-99018004D01*
X180413197Y-99014591D01*
X180422478Y-99011575D01*
X180422479Y-99011574D01*
X180422482Y-99011574D01*
X180528465Y-98957573D01*
X180612573Y-98873465D01*
X180666574Y-98767482D01*
X180666575Y-98767477D01*
X180685181Y-98650003D01*
X180685181Y-98649996D01*
X180666575Y-98532522D01*
X180666575Y-98532521D01*
X180666574Y-98532519D01*
X180666574Y-98532518D01*
X180612573Y-98426535D01*
X180612571Y-98426533D01*
X180612568Y-98426529D01*
X180591819Y-98405780D01*
X180558334Y-98344457D01*
X180555500Y-98318099D01*
X180555500Y-98000123D01*
X180575185Y-97933084D01*
X180591819Y-97912442D01*
X180817442Y-97686819D01*
X180878765Y-97653334D01*
X180905123Y-97650500D01*
X182144877Y-97650500D01*
X182211916Y-97670185D01*
G37*
%TD.AperFunction*%
%TA.AperFunction,Conductor*%
G36*
X174006715Y-88720185D02*
G01*
X174052470Y-88772989D01*
X174062414Y-88842147D01*
X174052470Y-88876012D01*
X174013302Y-88961774D01*
X173994867Y-89090000D01*
X174013302Y-89218225D01*
X174050420Y-89299500D01*
X174067118Y-89336063D01*
X174151951Y-89433967D01*
X174177677Y-89450500D01*
X174247985Y-89495684D01*
X174293740Y-89548488D01*
X174303684Y-89617647D01*
X174274659Y-89681203D01*
X174247985Y-89704316D01*
X174151950Y-89766033D01*
X174067118Y-89863937D01*
X174067117Y-89863938D01*
X174013302Y-89981774D01*
X173994867Y-90110000D01*
X174013302Y-90238225D01*
X174020478Y-90253937D01*
X174067118Y-90356063D01*
X174151951Y-90453967D01*
X174178742Y-90471185D01*
X174224497Y-90523988D01*
X174234441Y-90593146D01*
X174205417Y-90656702D01*
X174146639Y-90694477D01*
X174111703Y-90699500D01*
X169655122Y-90699500D01*
X169588083Y-90679815D01*
X169567441Y-90663181D01*
X167836319Y-88932058D01*
X167802834Y-88870735D01*
X167800000Y-88844377D01*
X167800000Y-88824500D01*
X167819685Y-88757461D01*
X167872489Y-88711706D01*
X167924000Y-88700500D01*
X173939676Y-88700500D01*
X174006715Y-88720185D01*
G37*
%TD.AperFunction*%
%TD*%
%TA.AperFunction,Conductor*%
%TO.N,GND*%
G36*
X199742539Y-102519685D02*
G01*
X199788294Y-102572489D01*
X199799500Y-102624000D01*
X199799500Y-110865588D01*
X199779815Y-110932627D01*
X199763181Y-110953269D01*
X199453269Y-111263181D01*
X199391946Y-111296666D01*
X199365588Y-111299500D01*
X192791476Y-111299500D01*
X192724437Y-111279815D01*
X192678682Y-111227011D01*
X192668738Y-111157853D01*
X192697762Y-111094298D01*
X192698049Y-111093967D01*
X192782882Y-110996063D01*
X192836697Y-110878226D01*
X192855133Y-110750000D01*
X192836697Y-110621774D01*
X192782882Y-110503937D01*
X192698049Y-110406033D01*
X192589069Y-110335996D01*
X192589065Y-110335994D01*
X192589064Y-110335994D01*
X192464774Y-110299500D01*
X192464772Y-110299500D01*
X192335228Y-110299500D01*
X192335226Y-110299500D01*
X192210935Y-110335994D01*
X192210932Y-110335995D01*
X192210931Y-110335996D01*
X192159677Y-110368934D01*
X192101950Y-110406033D01*
X192017118Y-110503937D01*
X192017117Y-110503938D01*
X191963302Y-110621774D01*
X191944867Y-110750000D01*
X191963302Y-110878225D01*
X191988147Y-110932627D01*
X192017118Y-110996063D01*
X192055087Y-111039882D01*
X192102238Y-111094298D01*
X192131262Y-111157854D01*
X192121318Y-111227012D01*
X192075563Y-111279816D01*
X192008524Y-111299500D01*
X190974000Y-111299500D01*
X190906961Y-111279815D01*
X190861206Y-111227011D01*
X190850000Y-111175500D01*
X190850000Y-108199996D01*
X194644819Y-108199996D01*
X194644819Y-108200003D01*
X194663424Y-108317477D01*
X194663424Y-108317478D01*
X194717428Y-108423466D01*
X194717431Y-108423470D01*
X194801529Y-108507568D01*
X194801533Y-108507571D01*
X194801535Y-108507573D01*
X194907518Y-108561574D01*
X194907520Y-108561574D01*
X194907522Y-108561575D01*
X195024997Y-108580181D01*
X195025000Y-108580181D01*
X195025003Y-108580181D01*
X195142477Y-108561575D01*
X195142478Y-108561575D01*
X195142479Y-108561574D01*
X195142482Y-108561574D01*
X195248465Y-108507573D01*
X195332573Y-108423465D01*
X195386574Y-108317482D01*
X195396954Y-108251946D01*
X195405181Y-108200003D01*
X195405181Y-108199996D01*
X195386575Y-108082522D01*
X195386575Y-108082521D01*
X195386574Y-108082519D01*
X195386574Y-108082518D01*
X195332573Y-107976535D01*
X195332571Y-107976533D01*
X195332568Y-107976529D01*
X195248470Y-107892431D01*
X195248466Y-107892428D01*
X195248465Y-107892427D01*
X195142482Y-107838426D01*
X195142480Y-107838425D01*
X195142477Y-107838424D01*
X195041760Y-107822473D01*
X195025312Y-107814676D01*
X195008240Y-107822473D01*
X194907521Y-107838424D01*
X194801533Y-107892428D01*
X194801529Y-107892431D01*
X194717431Y-107976529D01*
X194717428Y-107976533D01*
X194663424Y-108082521D01*
X194663424Y-108082522D01*
X194644819Y-108199996D01*
X190850000Y-108199996D01*
X190850000Y-105353622D01*
X190869685Y-105286583D01*
X190922489Y-105240828D01*
X190991647Y-105230884D01*
X191055203Y-105259909D01*
X191061681Y-105265941D01*
X191630565Y-105834825D01*
X191630568Y-105834829D01*
X191637636Y-105841897D01*
X191708103Y-105912364D01*
X191731243Y-105921948D01*
X191731246Y-105921951D01*
X191731246Y-105921950D01*
X191800173Y-105950501D01*
X191800174Y-105950501D01*
X191914262Y-105950501D01*
X191914270Y-105950500D01*
X194369877Y-105950500D01*
X194436916Y-105970185D01*
X194457553Y-105986814D01*
X194611452Y-106140712D01*
X194644936Y-106202034D01*
X194646243Y-106208994D01*
X194663424Y-106317478D01*
X194717428Y-106423466D01*
X194717431Y-106423470D01*
X194801529Y-106507568D01*
X194801533Y-106507571D01*
X194801535Y-106507573D01*
X194907518Y-106561574D01*
X195008241Y-106577526D01*
X195071374Y-106607454D01*
X195108305Y-106666765D01*
X195107309Y-106736628D01*
X195068699Y-106794861D01*
X195008241Y-106822472D01*
X194907521Y-106838425D01*
X194907519Y-106838425D01*
X194907518Y-106838426D01*
X194805219Y-106890549D01*
X194801533Y-106892428D01*
X194801529Y-106892431D01*
X194717431Y-106976529D01*
X194717428Y-106976533D01*
X194663424Y-107082521D01*
X194663424Y-107082522D01*
X194644819Y-107199996D01*
X194644819Y-107200003D01*
X194663424Y-107317477D01*
X194663424Y-107317478D01*
X194717428Y-107423466D01*
X194717431Y-107423470D01*
X194801529Y-107507568D01*
X194801533Y-107507571D01*
X194801535Y-107507573D01*
X194907518Y-107561574D01*
X194907519Y-107561574D01*
X194907521Y-107561575D01*
X195008240Y-107577527D01*
X195024686Y-107585323D01*
X195041760Y-107577527D01*
X195142477Y-107561575D01*
X195142478Y-107561575D01*
X195142479Y-107561574D01*
X195142482Y-107561574D01*
X195248465Y-107507573D01*
X195332573Y-107423465D01*
X195386574Y-107317482D01*
X195403757Y-107208990D01*
X195433684Y-107145860D01*
X195438529Y-107140730D01*
X195787364Y-106791897D01*
X195825500Y-106699828D01*
X195825500Y-106600173D01*
X195825500Y-105900172D01*
X195787364Y-105808103D01*
X195738019Y-105758758D01*
X195704534Y-105697435D01*
X195709518Y-105627743D01*
X195751390Y-105571810D01*
X195769391Y-105560601D01*
X195873465Y-105507573D01*
X195957573Y-105423465D01*
X196011574Y-105317482D01*
X196011575Y-105317477D01*
X196030181Y-105200003D01*
X196030181Y-105199996D01*
X196011575Y-105082522D01*
X196011575Y-105082521D01*
X196011574Y-105082519D01*
X196011574Y-105082518D01*
X195957573Y-104976535D01*
X195957571Y-104976533D01*
X195957568Y-104976529D01*
X195873470Y-104892431D01*
X195873466Y-104892428D01*
X195873465Y-104892427D01*
X195767482Y-104838426D01*
X195767480Y-104838425D01*
X195767477Y-104838424D01*
X195650003Y-104819819D01*
X195649997Y-104819819D01*
X195532522Y-104838424D01*
X195532521Y-104838424D01*
X195426533Y-104892428D01*
X195426529Y-104892431D01*
X195342431Y-104976529D01*
X195342428Y-104976533D01*
X195342427Y-104976535D01*
X195289405Y-105080595D01*
X195241432Y-105131390D01*
X195173612Y-105148185D01*
X195107477Y-105125648D01*
X195091241Y-105111980D01*
X194966897Y-104987636D01*
X194874829Y-104949500D01*
X194874828Y-104949500D01*
X192745704Y-104949500D01*
X192678665Y-104929815D01*
X192632910Y-104877011D01*
X192622966Y-104807853D01*
X192635217Y-104769209D01*
X192661574Y-104717482D01*
X192668898Y-104671239D01*
X192680181Y-104600003D01*
X192680181Y-104599996D01*
X192661575Y-104482522D01*
X192661575Y-104482521D01*
X192661574Y-104482519D01*
X192661574Y-104482518D01*
X192607573Y-104376535D01*
X192607571Y-104376533D01*
X192607568Y-104376529D01*
X192568720Y-104337681D01*
X192535235Y-104276358D01*
X192540219Y-104206666D01*
X192568720Y-104162319D01*
X192607568Y-104123470D01*
X192607573Y-104123465D01*
X192661574Y-104017482D01*
X192680181Y-103900000D01*
X192680181Y-103899996D01*
X192664169Y-103798897D01*
X192673124Y-103729604D01*
X192718120Y-103676152D01*
X192784872Y-103655513D01*
X192786642Y-103655500D01*
X195275991Y-103655500D01*
X195276000Y-103655500D01*
X195309055Y-103651946D01*
X195360566Y-103640740D01*
X195429342Y-103606313D01*
X195459378Y-103580287D01*
X195478400Y-103571599D01*
X195499999Y-103550000D01*
X195500000Y-103550000D01*
X195500000Y-103549999D01*
X195507840Y-103542159D01*
X195518120Y-103505544D01*
X195529516Y-103486850D01*
X195549201Y-103419811D01*
X195555500Y-103376000D01*
X195555500Y-102624000D01*
X195575185Y-102556961D01*
X195627989Y-102511206D01*
X195679500Y-102500000D01*
X199675500Y-102500000D01*
X199742539Y-102519685D01*
G37*
%TD.AperFunction*%
%TD*%
%TA.AperFunction,Conductor*%
%TO.N,/IP2368 Buck-Boost-Converter/BAT*%
G36*
X195356699Y-102062885D02*
G01*
X195394788Y-102121458D01*
X195400000Y-102157031D01*
X195400000Y-103376000D01*
X195380315Y-103443039D01*
X195327511Y-103488794D01*
X195276000Y-103500000D01*
X192451362Y-103500000D01*
X192384323Y-103480315D01*
X192363681Y-103463681D01*
X192200000Y-103300000D01*
X195300000Y-103300000D01*
X195300000Y-102014285D01*
X195356699Y-102062885D01*
G37*
%TD.AperFunction*%
%TA.AperFunction,Conductor*%
G36*
X198243039Y-88720185D02*
G01*
X198288794Y-88772989D01*
X198300000Y-88824500D01*
X198300000Y-92476000D01*
X198280315Y-92543039D01*
X198227511Y-92588794D01*
X198176000Y-92600000D01*
X196700000Y-92600000D01*
X196699999Y-92600000D01*
X196699998Y-92600001D01*
X196350000Y-92900000D01*
X196350000Y-97448638D01*
X196330315Y-97515677D01*
X196313681Y-97536319D01*
X195050000Y-98799999D01*
X195050000Y-98800000D01*
X195050000Y-101800000D01*
X195166667Y-101900000D01*
X194600000Y-101900000D01*
X194600000Y-97400000D01*
X193200000Y-97400000D01*
X193200000Y-101900000D01*
X191700000Y-101900000D01*
X191700000Y-102800000D01*
X191486319Y-102586319D01*
X191452834Y-102524996D01*
X191450000Y-102498638D01*
X191450000Y-102472622D01*
X191451262Y-102454975D01*
X191452540Y-102446085D01*
X191455500Y-102425500D01*
X191455500Y-101779500D01*
X191475185Y-101712461D01*
X191527989Y-101666706D01*
X191579500Y-101655500D01*
X192575991Y-101655500D01*
X192576000Y-101655500D01*
X192609055Y-101651946D01*
X192660566Y-101640740D01*
X192729342Y-101606313D01*
X192782146Y-101560558D01*
X192787621Y-101555580D01*
X192829516Y-101486850D01*
X192849201Y-101419811D01*
X192855500Y-101376000D01*
X192855500Y-97724000D01*
X192851946Y-97690945D01*
X192840740Y-97639434D01*
X192808251Y-97574529D01*
X192806313Y-97570657D01*
X192760563Y-97517860D01*
X192759649Y-97516855D01*
X192755580Y-97512379D01*
X192755579Y-97512378D01*
X192755577Y-97512376D01*
X192686854Y-97470486D01*
X192686848Y-97470483D01*
X192619812Y-97450799D01*
X192619802Y-97450797D01*
X192576003Y-97444500D01*
X192576000Y-97444500D01*
X184979500Y-97444500D01*
X184912461Y-97424815D01*
X184866706Y-97372011D01*
X184855500Y-97320500D01*
X184855500Y-92579500D01*
X184875185Y-92512461D01*
X184927989Y-92466706D01*
X184979500Y-92455500D01*
X192775991Y-92455500D01*
X192776000Y-92455500D01*
X192809055Y-92451946D01*
X192860566Y-92440740D01*
X192929342Y-92406313D01*
X192982146Y-92360558D01*
X192987621Y-92355580D01*
X193029516Y-92286850D01*
X193049201Y-92219811D01*
X193055500Y-92176000D01*
X193055500Y-88824500D01*
X193075185Y-88757461D01*
X193127989Y-88711706D01*
X193179500Y-88700500D01*
X198176000Y-88700500D01*
X198243039Y-88720185D01*
G37*
%TD.AperFunction*%
%TD*%
M02*
