%TF.GenerationSoftware,KiCad,Pcbnew,8.0.3*%
%TF.CreationDate,2024-10-12T12:31:44+02:00*%
%TF.ProjectId,Parkside-100W-Brick,5061726b-7369-4646-952d-313030572d42,rev?*%
%TF.SameCoordinates,Original*%
%TF.FileFunction,Copper,L6,Inr*%
%TF.FilePolarity,Positive*%
%FSLAX46Y46*%
G04 Gerber Fmt 4.6, Leading zero omitted, Abs format (unit mm)*
G04 Created by KiCad (PCBNEW 8.0.3) date 2024-10-12 12:31:44*
%MOMM*%
%LPD*%
G01*
G04 APERTURE LIST*
%TA.AperFunction,ComponentPad*%
%ADD10C,0.700000*%
%TD*%
%TA.AperFunction,ComponentPad*%
%ADD11C,4.400000*%
%TD*%
%TA.AperFunction,ComponentPad*%
%ADD12O,2.100000X1.000000*%
%TD*%
%TA.AperFunction,ComponentPad*%
%ADD13O,1.600000X1.000000*%
%TD*%
%TA.AperFunction,ComponentPad*%
%ADD14R,6.500000X1.500000*%
%TD*%
%TA.AperFunction,ViaPad*%
%ADD15C,0.600000*%
%TD*%
%TA.AperFunction,ViaPad*%
%ADD16C,0.450000*%
%TD*%
G04 APERTURE END LIST*
D10*
%TO.N,Net-(J1-Pin_1)*%
%TO.C,J1*%
X195850000Y-100000000D03*
X196333274Y-98833274D03*
X196333274Y-101166726D03*
X197500000Y-98350000D03*
D11*
X197500000Y-100000000D03*
D10*
X197500000Y-101650000D03*
X198666726Y-98833274D03*
X198666726Y-101166726D03*
X199150000Y-100000000D03*
%TD*%
D12*
%TO.N,GND*%
%TO.C,J2*%
X155155000Y-95680000D03*
D13*
X150975000Y-95680000D03*
D12*
X155155000Y-104320000D03*
D13*
X150975000Y-104320000D03*
%TD*%
D10*
%TO.N,GND*%
%TO.C,J3*%
X156230000Y-90850000D03*
X157396726Y-91333274D03*
X155063274Y-91333274D03*
X157880000Y-92500000D03*
D11*
X156230000Y-92500000D03*
D10*
X154580000Y-92500000D03*
X157396726Y-93666726D03*
X155063274Y-93666726D03*
X156230000Y-94150000D03*
%TD*%
%TO.N,GND*%
%TO.C,J6*%
X156230000Y-109150000D03*
X155063274Y-108666726D03*
X157396726Y-108666726D03*
X154580000Y-107500000D03*
D11*
X156230000Y-107500000D03*
D10*
X157880000Y-107500000D03*
X155063274Y-106333274D03*
X157396726Y-106333274D03*
X156230000Y-105850000D03*
%TD*%
D14*
%TO.N,/IP2368 Buck-Boost-Converter/HB2*%
%TO.C,L1*%
X187100000Y-110500000D03*
%TO.N,/IP2368 Buck-Boost-Converter/HB1*%
X177100000Y-110500000D03*
%TD*%
D15*
%TO.N,GND*%
X163500000Y-110500000D03*
X189000000Y-91500000D03*
X152500000Y-101500000D03*
X177000000Y-96000000D03*
X173000000Y-95000000D03*
X159000000Y-110500000D03*
X151500000Y-92500000D03*
X190275352Y-98975000D03*
X162000000Y-109000000D03*
X183000000Y-94500000D03*
X169250000Y-101450000D03*
X175000000Y-97000000D03*
X192200000Y-91600000D03*
X152500000Y-98500000D03*
X189525000Y-101775352D03*
X160500000Y-101500000D03*
D16*
X195025000Y-109200000D03*
D15*
X182200000Y-107025000D03*
X182933333Y-105700000D03*
X151500000Y-94000000D03*
X157500000Y-89500000D03*
X153000000Y-92500000D03*
X159000000Y-104500000D03*
X181100000Y-99600000D03*
D16*
X169550000Y-99850000D03*
D15*
X177000000Y-94000000D03*
X181500000Y-90000000D03*
X199500000Y-110500000D03*
X172500000Y-89190000D03*
X180400000Y-89200000D03*
X151500000Y-109000000D03*
X173000000Y-94000000D03*
X161850000Y-100100000D03*
X153000000Y-110500000D03*
X189000000Y-90000000D03*
X173000000Y-96000000D03*
X186000000Y-90000000D03*
X185800000Y-98800000D03*
X153000000Y-95500000D03*
X177000000Y-97000000D03*
X151000000Y-100000000D03*
X154500000Y-110500000D03*
X152500000Y-100000000D03*
X152500000Y-103000000D03*
X171025352Y-102475000D03*
X151500000Y-107500000D03*
X171000000Y-110500000D03*
X185250000Y-91600000D03*
X178800000Y-89200000D03*
X175000000Y-95000000D03*
X166500000Y-110500000D03*
X159500000Y-107000000D03*
X157750000Y-95000000D03*
X181500000Y-94500000D03*
D16*
X169850000Y-92275000D03*
D15*
X181100000Y-98800000D03*
X151000000Y-101500000D03*
X183000000Y-90000000D03*
X151000000Y-97000000D03*
X192200000Y-89200000D03*
X185800000Y-99600000D03*
X153000000Y-107500000D03*
X153000000Y-89500000D03*
X181500000Y-93000000D03*
X186000000Y-91500000D03*
X159000000Y-106000000D03*
X182933333Y-106350000D03*
X182200000Y-106350000D03*
X181100000Y-98000000D03*
X174000000Y-94000000D03*
X154500000Y-89500000D03*
X182200000Y-107700000D03*
X152500000Y-97000000D03*
X187500000Y-90000000D03*
X169250000Y-105550000D03*
X192200000Y-90000000D03*
X183666666Y-107025000D03*
X174000000Y-93000000D03*
X199500000Y-102900000D03*
X181900000Y-99600000D03*
X175000000Y-93000000D03*
X188500000Y-102050000D03*
X190550000Y-100000000D03*
X182933333Y-107025000D03*
X190275352Y-101025000D03*
X173000000Y-93000000D03*
X181900000Y-100400000D03*
X151500000Y-91000000D03*
X185250000Y-90800000D03*
X185250000Y-89200000D03*
X190500000Y-90000000D03*
X167474648Y-102475000D03*
X184500000Y-90000000D03*
X186724648Y-98975000D03*
X151500000Y-106000000D03*
X160300000Y-107000000D03*
X175000000Y-94000000D03*
D16*
X168675000Y-100275000D03*
D15*
X161100000Y-107000000D03*
X160500000Y-110500000D03*
X183666666Y-107700000D03*
X183666666Y-105700000D03*
X153000000Y-104500000D03*
X181900000Y-98000000D03*
X183000000Y-91500000D03*
X176000000Y-96000000D03*
X198300000Y-102900000D03*
X162000000Y-106000000D03*
X157500000Y-104500000D03*
X162000000Y-101500000D03*
X174000000Y-96000000D03*
X165000000Y-110500000D03*
X160500000Y-104500000D03*
X171300000Y-103500000D03*
X173000000Y-97000000D03*
X181500000Y-91500000D03*
X157500000Y-110500000D03*
X174000000Y-95000000D03*
X176000000Y-97000000D03*
X176000000Y-94000000D03*
X182925000Y-108375000D03*
X160900000Y-99300000D03*
D16*
X168075000Y-100275000D03*
D15*
X182933333Y-107700000D03*
X182200000Y-105700000D03*
X158500000Y-95000000D03*
X181100000Y-100400000D03*
X160500000Y-103000000D03*
X151500000Y-110500000D03*
X157000000Y-95000000D03*
D16*
X169350000Y-96775000D03*
D15*
X181900000Y-98800000D03*
X158500000Y-95750000D03*
X198300000Y-110500000D03*
X162000000Y-110500000D03*
X153000000Y-94000000D03*
X187475000Y-98224648D03*
X170275000Y-105275352D03*
X168000000Y-110500000D03*
X176000000Y-93000000D03*
X162000000Y-103000000D03*
X177000000Y-95000000D03*
X185000000Y-98000000D03*
X186724648Y-101025000D03*
X177000000Y-93000000D03*
X153000000Y-91000000D03*
X187475000Y-101775352D03*
X159000000Y-109000000D03*
X183666666Y-106350000D03*
X157750000Y-95750000D03*
X172500000Y-110500000D03*
X185250000Y-90000000D03*
X174000000Y-97000000D03*
X159000000Y-101500000D03*
X168225000Y-105275352D03*
X168225000Y-101724648D03*
X192200000Y-99300000D03*
X192200000Y-101200000D03*
X156000000Y-110500000D03*
X166962500Y-90350000D03*
X185800000Y-98000000D03*
X192200000Y-98400000D03*
X185000000Y-98800000D03*
D16*
X169850000Y-96775000D03*
D15*
X189525000Y-98224648D03*
X167474648Y-104525000D03*
X160500000Y-109000000D03*
X158800000Y-98850000D03*
X160500000Y-106000000D03*
X162000000Y-104500000D03*
X175000000Y-96000000D03*
X176000000Y-95000000D03*
X192200000Y-100300000D03*
X183666666Y-105050000D03*
X167200000Y-103500000D03*
X187500000Y-91500000D03*
X192200000Y-90800000D03*
X153000000Y-106000000D03*
X185000000Y-99600000D03*
X177800000Y-89200000D03*
X159000000Y-103000000D03*
X151000000Y-103000000D03*
D16*
X170900000Y-100450000D03*
D15*
X179050000Y-103300000D03*
X173650000Y-103300000D03*
X188500000Y-97950000D03*
X151000000Y-98500000D03*
X191750000Y-108750000D03*
X184500000Y-91500000D03*
X151500000Y-89500000D03*
X161900000Y-107000000D03*
X183000000Y-93000000D03*
X182850000Y-110850000D03*
X157000000Y-95750000D03*
X169500000Y-110500000D03*
X161050000Y-100100000D03*
X158500000Y-94250000D03*
X182191666Y-108375000D03*
X160250000Y-100100000D03*
X186450000Y-100000000D03*
X190500000Y-91500000D03*
X171025352Y-104525000D03*
X156000000Y-89500000D03*
X153000000Y-109000000D03*
X170275000Y-101724648D03*
%TO.N,Net-(J1-Pin_1)*%
X198100000Y-96400000D03*
X198100000Y-97050000D03*
X199400000Y-96400000D03*
X198750000Y-97700000D03*
X198750000Y-97050000D03*
X199400000Y-97050000D03*
X199400000Y-97700000D03*
X199400000Y-98350000D03*
X198750000Y-96400000D03*
%TO.N,/IP2368 Buck-Boost-Converter/HB2*%
X186750000Y-107000000D03*
X186750000Y-108500000D03*
X186000000Y-104750000D03*
X187500000Y-104750000D03*
X185250000Y-107750000D03*
X186750000Y-107750000D03*
X186000000Y-107000000D03*
X186000000Y-106250000D03*
X186750000Y-105500000D03*
X186000000Y-105500000D03*
X187500000Y-107750000D03*
X187500000Y-107000000D03*
X187500000Y-106250000D03*
X186000000Y-108500000D03*
X185250000Y-108500000D03*
X186750000Y-104750000D03*
D16*
X176220000Y-99800000D03*
D15*
X185250000Y-105500000D03*
X187500000Y-108500000D03*
X185250000Y-106250000D03*
X185250000Y-104750000D03*
X187500000Y-105500000D03*
X186750000Y-106250000D03*
X186000000Y-107750000D03*
X185250000Y-107000000D03*
%TO.N,/IP2368 Buck-Boost-Converter/HB1*%
X179000000Y-109250000D03*
X181250000Y-104750000D03*
X179750000Y-107000000D03*
X181250000Y-106250000D03*
X179000000Y-107750000D03*
X181250000Y-107000000D03*
X179000000Y-107000000D03*
X179750000Y-107750000D03*
X180500000Y-109250000D03*
X180500000Y-107000000D03*
X179750000Y-106250000D03*
X179000000Y-104750000D03*
X180500000Y-105500000D03*
X179750000Y-104750000D03*
X179750000Y-108500000D03*
D16*
X174980000Y-99800000D03*
D15*
X180500000Y-107750000D03*
X180500000Y-104750000D03*
X181250000Y-105500000D03*
X179750000Y-109250000D03*
X179000000Y-106250000D03*
X181250000Y-108500000D03*
X179000000Y-105500000D03*
X180500000Y-108500000D03*
X180500000Y-106250000D03*
X181250000Y-107750000D03*
X179000000Y-108500000D03*
X179750000Y-105500000D03*
D16*
%TO.N,/Battery Interface/I^{2}C_INT*%
X195025000Y-108200000D03*
X170600000Y-93510000D03*
%TO.N,+5V*%
X185300000Y-103500000D03*
X184750000Y-102700000D03*
X184750000Y-103500000D03*
X168075000Y-95175000D03*
D15*
X177250000Y-103300000D03*
X175450000Y-103300000D03*
D16*
X168075000Y-94675000D03*
X171000000Y-99150000D03*
X168575000Y-94675000D03*
X168575000Y-95175000D03*
X185300000Y-102700000D03*
X171000000Y-99600000D03*
X185025000Y-103100000D03*
%TO.N,/IP2368 Buck-Boost-Converter/HLED*%
X170600000Y-94275000D03*
X165450000Y-90210000D03*
%TO.N,/Connector/PORT1_D+*%
X157875000Y-100800000D03*
X176725000Y-89825000D03*
D15*
%TO.N,/Connector/PORT1_CC2*%
X166962500Y-89550000D03*
D16*
X157850000Y-101800000D03*
X177175000Y-90950000D03*
%TO.N,/Connector/PORT1_CC1*%
X157850000Y-98800000D03*
X175675000Y-90950000D03*
D15*
X159862500Y-89400000D03*
%TO.N,/IP2368 Buck-Boost-Converter/HB_IN*%
X176500000Y-105750000D03*
X175000000Y-108750000D03*
X175000000Y-108000000D03*
X175750000Y-105750000D03*
X175750000Y-106500000D03*
X176500000Y-107250000D03*
X175750000Y-108000000D03*
X178000000Y-108750000D03*
X178000000Y-108000000D03*
X176500000Y-108000000D03*
X175000000Y-106500000D03*
X175750000Y-108750000D03*
X176500000Y-108750000D03*
D16*
X173175000Y-98900000D03*
D15*
X177250000Y-108750000D03*
X175750000Y-107250000D03*
X177250000Y-108000000D03*
X178000000Y-107250000D03*
X176500000Y-106500000D03*
X177250000Y-106500000D03*
X177250000Y-105750000D03*
X175000000Y-107250000D03*
X178000000Y-105000000D03*
X178000000Y-105750000D03*
X175000000Y-105750000D03*
X178000000Y-106500000D03*
X177250000Y-107250000D03*
D16*
%TO.N,/IP2368 Buck-Boost-Converter/LG2*%
X175680000Y-98895000D03*
D15*
X184090005Y-108605004D03*
%TO.N,/IP2368 Buck-Boost-Converter/HB_BAT*%
X190250000Y-107000000D03*
D16*
X192300000Y-104600000D03*
D15*
X190250000Y-104750000D03*
X188750000Y-106250000D03*
X188750000Y-107750000D03*
X189500000Y-104750000D03*
X189500000Y-107000000D03*
X188750000Y-105500000D03*
X188750000Y-104750000D03*
D16*
X180335000Y-99620000D03*
D15*
X189500000Y-106250000D03*
X190250000Y-106250000D03*
D16*
X177800000Y-98900000D03*
D15*
X190250000Y-105500000D03*
X188750000Y-107000000D03*
X189500000Y-105500000D03*
D16*
%TO.N,/IP2368 Buck-Boost-Converter/HG2*%
X177200000Y-98900000D03*
D15*
X190009995Y-108605004D03*
D16*
%TO.N,/Connector/PORT1_D-*%
X157850000Y-99800000D03*
X176125000Y-89814070D03*
D15*
%TO.N,/Connector/POWER_VBUS*%
X158925000Y-96825000D03*
X153500000Y-98000000D03*
X160900000Y-96300000D03*
X154500000Y-100000000D03*
X161150000Y-93150000D03*
X161150000Y-93850000D03*
X160900000Y-97000000D03*
X157575000Y-97525000D03*
X158925000Y-97525000D03*
X158250000Y-96825000D03*
X160900000Y-95600000D03*
X159600000Y-95250000D03*
X159600000Y-96650000D03*
X160450000Y-93850000D03*
X160275000Y-97350000D03*
X159750000Y-93850000D03*
X154500000Y-99000000D03*
X153500000Y-100000000D03*
X154500000Y-101000000D03*
X161150000Y-94550000D03*
X153500000Y-99000000D03*
X159600000Y-97350000D03*
X154750000Y-102000000D03*
X153500000Y-102000000D03*
X159600000Y-95950000D03*
X160275000Y-95950000D03*
X160450000Y-93150000D03*
X160275000Y-96650000D03*
X159750000Y-94550000D03*
X158250000Y-97525000D03*
X160275000Y-95250000D03*
X153500000Y-101000000D03*
X160450000Y-94550000D03*
X154750000Y-98000000D03*
%TO.N,/Battery Interface/VBAT*%
X199500000Y-94075000D03*
X198825000Y-92050000D03*
X198150000Y-94075000D03*
X198825000Y-94075000D03*
X199500000Y-92725000D03*
X199500000Y-92050000D03*
X199500000Y-90700000D03*
X198150000Y-93400000D03*
X198825000Y-91375000D03*
X198825000Y-93400000D03*
X199500000Y-93400000D03*
X198825000Y-92725000D03*
X198825000Y-90700000D03*
X199500000Y-91375000D03*
%TO.N,+3.3V*%
X174450000Y-89090000D03*
D16*
X180300000Y-102240000D03*
X195650000Y-105200000D03*
X183900000Y-102625000D03*
X168200000Y-99367500D03*
D15*
%TO.N,/IP2368 Buck-Boost-Converter/BAT*%
X192000000Y-93500000D03*
X193500000Y-98500000D03*
X194900000Y-92000000D03*
X193500000Y-100750000D03*
X194250000Y-100750000D03*
X197975000Y-90950000D03*
X193500000Y-95000000D03*
X196025000Y-89650000D03*
X193500000Y-97750000D03*
X194900000Y-90500000D03*
X196675000Y-89650000D03*
X187500000Y-95000000D03*
X193500000Y-96500000D03*
X197325000Y-90950000D03*
X193500000Y-89000000D03*
X194250000Y-97750000D03*
X192750000Y-102250000D03*
X197325000Y-92250000D03*
X192200000Y-94400000D03*
X196025000Y-92250000D03*
X196025000Y-90950000D03*
X192200000Y-95200000D03*
X193500000Y-102250000D03*
X194250000Y-102250000D03*
X194250000Y-101500000D03*
D16*
X192300000Y-103900000D03*
D15*
X197975000Y-89650000D03*
X196025000Y-90300000D03*
X195000000Y-96500000D03*
X192200000Y-96800000D03*
X186000000Y-95000000D03*
X189000000Y-96500000D03*
X185250000Y-96800000D03*
X195000000Y-103000000D03*
X192000000Y-102250000D03*
X195000000Y-95000000D03*
X196675000Y-90300000D03*
X194900000Y-89000000D03*
X197325000Y-89650000D03*
X187500000Y-96500000D03*
X189000000Y-93500000D03*
X197975000Y-91600000D03*
X187500000Y-93500000D03*
X189000000Y-95000000D03*
X195000000Y-93500000D03*
X192200000Y-96000000D03*
X194250000Y-99250000D03*
X186000000Y-96500000D03*
X190500000Y-93500000D03*
X193500000Y-92000000D03*
X193500000Y-93500000D03*
X194250000Y-103000000D03*
X196025000Y-91600000D03*
X197325000Y-90300000D03*
X197975000Y-90300000D03*
X193500000Y-103000000D03*
X196675000Y-92250000D03*
X190500000Y-95000000D03*
X195000000Y-102250000D03*
X192750000Y-103000000D03*
D16*
X180305000Y-98650000D03*
D15*
X194250000Y-98500000D03*
X193500000Y-99250000D03*
X194250000Y-100000000D03*
X197975000Y-92250000D03*
X185250000Y-94400000D03*
X193500000Y-90500000D03*
X190500000Y-96500000D03*
X197325000Y-91600000D03*
X186000000Y-93500000D03*
X193500000Y-101500000D03*
X185250000Y-95200000D03*
X185250000Y-96000000D03*
X196675000Y-90950000D03*
X196675000Y-91600000D03*
X193500000Y-100000000D03*
D16*
%TO.N,/IP2368 Buck-Boost-Converter/VBUS_G*%
X170050000Y-95425000D03*
D15*
X161800000Y-95550000D03*
%TO.N,Net-(Q3-D)*%
X197000000Y-96160000D03*
X192400000Y-110750000D03*
%TO.N,Net-(Q5-G)*%
X197000000Y-94310000D03*
X199150000Y-89850000D03*
%TO.N,/IP2368 Buck-Boost-Converter/CSP1*%
X166200000Y-94800000D03*
X163500000Y-101750000D03*
X165500000Y-108750000D03*
X164500000Y-101750000D03*
X163500000Y-99750000D03*
X163500000Y-106750000D03*
X165675000Y-93400000D03*
X165500000Y-103750000D03*
X164100000Y-95500000D03*
X164800000Y-96200000D03*
X163500000Y-103750000D03*
X164500000Y-108750000D03*
X166250000Y-100100000D03*
X167690000Y-106300000D03*
X164500000Y-105750000D03*
X163400000Y-96200000D03*
X162700000Y-96200000D03*
X168500000Y-108750000D03*
X167100000Y-107000000D03*
X162700000Y-93400000D03*
X167275000Y-96225000D03*
X163500000Y-104750000D03*
X166500000Y-105750000D03*
X162700000Y-95500000D03*
X166300000Y-107000000D03*
X163500000Y-107750000D03*
X165500000Y-95500000D03*
X167500000Y-108750000D03*
X170820000Y-106300000D03*
X172500000Y-108750000D03*
X165500000Y-98750000D03*
X164650000Y-100100000D03*
X170500000Y-107750000D03*
X163500000Y-105750000D03*
X164800000Y-94100000D03*
X164100000Y-96200000D03*
X167300000Y-98800000D03*
X162700000Y-94100000D03*
X163400000Y-94800000D03*
X165500000Y-102750000D03*
X169500000Y-107750000D03*
X166900000Y-97900000D03*
X163400000Y-94100000D03*
X163900000Y-97900000D03*
X172375000Y-105725000D03*
X165500000Y-107000000D03*
X164100000Y-93400000D03*
X164900000Y-97900000D03*
D16*
X169350000Y-98350000D03*
X169850000Y-98350000D03*
D15*
X166500000Y-101750000D03*
X167050000Y-100100000D03*
X166500000Y-108750000D03*
X164800000Y-95500000D03*
X164500000Y-103750000D03*
X165500000Y-105750000D03*
X162900000Y-97900000D03*
X164100000Y-94100000D03*
X169500000Y-108750000D03*
X162700000Y-94800000D03*
X171500000Y-106750000D03*
X166200000Y-96200000D03*
X165450000Y-100100000D03*
X164100000Y-94800000D03*
X166200000Y-95500000D03*
X164500000Y-102750000D03*
X171500000Y-107750000D03*
X170500000Y-108750000D03*
X163400000Y-95500000D03*
X166500000Y-94200000D03*
X165900000Y-97900000D03*
X163500000Y-102750000D03*
X164800000Y-94800000D03*
X163500000Y-98750000D03*
X165500000Y-94800000D03*
X167275000Y-95050000D03*
X168500000Y-107750000D03*
X164500000Y-104750000D03*
X166500000Y-98750000D03*
X165500000Y-101750000D03*
X165500000Y-104750000D03*
X164700000Y-107000000D03*
X163500000Y-100750000D03*
X172500000Y-107750000D03*
X165500000Y-96200000D03*
X171500000Y-108750000D03*
X165500000Y-94100000D03*
X169250000Y-106710000D03*
X164800000Y-93400000D03*
X163400000Y-93400000D03*
X164500000Y-98750000D03*
D16*
%TO.N,/Battery Interface/I^{2}C_SDA*%
X182900000Y-102300000D03*
X195025000Y-107200000D03*
D15*
X175400000Y-89850000D03*
D16*
%TO.N,/Battery Interface/I^{2}C_SCL*%
X195025000Y-106200000D03*
X181350000Y-102300000D03*
D15*
X174450000Y-90110000D03*
D16*
%TO.N,Net-(R25-C)*%
X168575000Y-97500000D03*
X182900000Y-103450000D03*
%TD*%
%TA.AperFunction,Conductor*%
%TO.N,+5V*%
G36*
X171168039Y-98944685D02*
G01*
X171213794Y-98997489D01*
X171225000Y-99049000D01*
X171225000Y-99701000D01*
X171205315Y-99768039D01*
X171152511Y-99813794D01*
X171101000Y-99825000D01*
X170899000Y-99825000D01*
X170831961Y-99805315D01*
X170786206Y-99752511D01*
X170775000Y-99701000D01*
X170775000Y-99049000D01*
X170794685Y-98981961D01*
X170847489Y-98936206D01*
X170899000Y-98925000D01*
X171101000Y-98925000D01*
X171168039Y-98944685D01*
G37*
%TD.AperFunction*%
%TD*%
%TA.AperFunction,Conductor*%
%TO.N,Net-(J1-Pin_1)*%
G36*
X199643039Y-96119685D02*
G01*
X199688794Y-96172489D01*
X199700000Y-96224000D01*
X199700000Y-99876000D01*
X199680315Y-99943039D01*
X199627511Y-99988794D01*
X199576000Y-100000000D01*
X197551362Y-100000000D01*
X197484323Y-99980315D01*
X197463681Y-99963681D01*
X196031906Y-98531906D01*
X195998421Y-98470583D01*
X196003405Y-98400891D01*
X196026140Y-98362717D01*
X197962938Y-96142486D01*
X198021842Y-96104907D01*
X198056381Y-96100000D01*
X199576000Y-96100000D01*
X199643039Y-96119685D01*
G37*
%TD.AperFunction*%
%TD*%
%TA.AperFunction,Conductor*%
%TO.N,/IP2368 Buck-Boost-Converter/CSP1*%
G36*
X170018039Y-98144685D02*
G01*
X170063794Y-98197489D01*
X170075000Y-98249000D01*
X170075000Y-98451000D01*
X170055315Y-98518039D01*
X170002511Y-98563794D01*
X169951000Y-98575000D01*
X169249000Y-98575000D01*
X169181961Y-98555315D01*
X169136206Y-98502511D01*
X169125000Y-98451000D01*
X169125000Y-98249000D01*
X169144685Y-98181961D01*
X169197489Y-98136206D01*
X169249000Y-98125000D01*
X169951000Y-98125000D01*
X170018039Y-98144685D01*
G37*
%TD.AperFunction*%
%TD*%
%TA.AperFunction,Conductor*%
%TO.N,+5V*%
G36*
X168743039Y-94469685D02*
G01*
X168788794Y-94522489D01*
X168800000Y-94574000D01*
X168800000Y-95276000D01*
X168780315Y-95343039D01*
X168727511Y-95388794D01*
X168676000Y-95400000D01*
X167974000Y-95400000D01*
X167906961Y-95380315D01*
X167861206Y-95327511D01*
X167850000Y-95276000D01*
X167850000Y-94574000D01*
X167869685Y-94506961D01*
X167922489Y-94461206D01*
X167974000Y-94450000D01*
X168676000Y-94450000D01*
X168743039Y-94469685D01*
G37*
%TD.AperFunction*%
%TD*%
%TA.AperFunction,Conductor*%
%TO.N,/IP2368 Buck-Boost-Converter/BAT*%
G36*
X194543039Y-97419685D02*
G01*
X194588794Y-97472489D01*
X194600000Y-97524000D01*
X194600000Y-101900000D01*
X195176000Y-101900000D01*
X195243039Y-101919685D01*
X195288794Y-101972489D01*
X195300000Y-102024000D01*
X195300000Y-103176000D01*
X195280315Y-103243039D01*
X195227511Y-103288794D01*
X195176000Y-103300000D01*
X192251362Y-103300000D01*
X192184323Y-103280315D01*
X192163681Y-103263681D01*
X191736319Y-102836319D01*
X191702834Y-102774996D01*
X191700000Y-102748638D01*
X191700000Y-102024000D01*
X191719685Y-101956961D01*
X191772489Y-101911206D01*
X191824000Y-101900000D01*
X193200000Y-101900000D01*
X193200000Y-97524000D01*
X193219685Y-97456961D01*
X193272489Y-97411206D01*
X193324000Y-97400000D01*
X194476000Y-97400000D01*
X194543039Y-97419685D01*
G37*
%TD.AperFunction*%
%TD*%
%TA.AperFunction,Conductor*%
%TO.N,GND*%
G36*
X152500000Y-94650000D02*
G01*
X152500000Y-96850000D01*
X150200500Y-96850000D01*
X150200500Y-96480828D01*
X150220185Y-96413789D01*
X150272989Y-96368034D01*
X150342147Y-96358090D01*
X150371954Y-96366267D01*
X150456236Y-96401178D01*
X150456240Y-96401179D01*
X150601126Y-96429999D01*
X150601129Y-96430000D01*
X151348871Y-96430000D01*
X151348873Y-96429999D01*
X151493759Y-96401179D01*
X151493767Y-96401177D01*
X151630254Y-96344642D01*
X151630264Y-96344637D01*
X151753096Y-96262563D01*
X151753100Y-96262560D01*
X151857560Y-96158100D01*
X151857563Y-96158096D01*
X151939637Y-96035264D01*
X151939642Y-96035254D01*
X151996177Y-95898767D01*
X151996179Y-95898759D01*
X152024999Y-95753873D01*
X152025000Y-95753871D01*
X152025000Y-95606128D01*
X152024999Y-95606126D01*
X151996179Y-95461240D01*
X151996177Y-95461232D01*
X151939642Y-95324745D01*
X151939637Y-95324735D01*
X151857563Y-95201903D01*
X151857560Y-95201899D01*
X151753100Y-95097439D01*
X151753096Y-95097436D01*
X151630264Y-95015362D01*
X151630254Y-95015357D01*
X151493767Y-94958822D01*
X151493759Y-94958820D01*
X151348872Y-94930000D01*
X150601128Y-94930000D01*
X150456240Y-94958820D01*
X150456228Y-94958823D01*
X150390161Y-94986189D01*
X150320691Y-94993658D01*
X150258212Y-94962382D01*
X150222561Y-94902293D01*
X150218779Y-94867447D01*
X150218864Y-94864911D01*
X150218866Y-94864908D01*
X150220226Y-94824557D01*
X150220226Y-94824553D01*
X150220234Y-94824553D01*
X150220228Y-94824484D01*
X150221573Y-94785306D01*
X150221572Y-94785304D01*
X150221984Y-94773316D01*
X150221964Y-94773019D01*
X150223694Y-94721716D01*
X150223730Y-94721456D01*
X150225522Y-94667533D01*
X150225524Y-94667471D01*
X150227223Y-94617071D01*
X150227205Y-94616810D01*
X150227450Y-94609418D01*
X152500000Y-94650000D01*
G37*
%TD.AperFunction*%
%TD*%
%TA.AperFunction,Conductor*%
%TO.N,GND*%
G36*
X154183389Y-103262269D02*
G01*
X154273018Y-103351898D01*
X154306503Y-103413221D01*
X154301519Y-103482913D01*
X154259647Y-103538846D01*
X154232793Y-103554139D01*
X154202371Y-103566740D01*
X154063160Y-103659758D01*
X154063152Y-103659764D01*
X153944764Y-103778152D01*
X153944758Y-103778160D01*
X153851740Y-103917371D01*
X153851740Y-103917372D01*
X153787665Y-104072063D01*
X153787663Y-104072071D01*
X153755000Y-104236277D01*
X153755000Y-104403722D01*
X153787663Y-104567928D01*
X153787665Y-104567936D01*
X153851740Y-104722627D01*
X153851740Y-104722628D01*
X153944758Y-104861839D01*
X153944764Y-104861847D01*
X154063152Y-104980235D01*
X154063160Y-104980241D01*
X154202371Y-105073259D01*
X154357063Y-105137334D01*
X154357071Y-105137336D01*
X154521277Y-105169999D01*
X154521280Y-105170000D01*
X154583333Y-105170000D01*
X153300000Y-105500000D01*
X153300000Y-103250000D01*
X154183389Y-103262269D01*
G37*
%TD.AperFunction*%
%TA.AperFunction,Conductor*%
G36*
X156900000Y-103300000D02*
G01*
X156800000Y-104600000D01*
X156474369Y-104683733D01*
X156522334Y-104567936D01*
X156522336Y-104567928D01*
X156554999Y-104403722D01*
X156555000Y-104403720D01*
X156555000Y-104236279D01*
X156554999Y-104236277D01*
X156522336Y-104072071D01*
X156522334Y-104072063D01*
X156458259Y-103917372D01*
X156458259Y-103917371D01*
X156365241Y-103778160D01*
X156365235Y-103778152D01*
X156246847Y-103659764D01*
X156246839Y-103659758D01*
X156107628Y-103566740D01*
X155952936Y-103502665D01*
X155952928Y-103502663D01*
X155788721Y-103470000D01*
X155158242Y-103470000D01*
X155091203Y-103450315D01*
X155045448Y-103397511D01*
X155035504Y-103328353D01*
X155060122Y-103274446D01*
X156900000Y-103300000D01*
G37*
%TD.AperFunction*%
%TD*%
%TA.AperFunction,Conductor*%
%TO.N,GND*%
G36*
X152500000Y-103300000D02*
G01*
X152500000Y-105500000D01*
X150231086Y-105500000D01*
X150230803Y-105491487D01*
X150229520Y-105452277D01*
X150229519Y-105452276D01*
X150229132Y-105440429D01*
X150229098Y-105440166D01*
X150227212Y-105383401D01*
X150227230Y-105383150D01*
X150226806Y-105370576D01*
X150226807Y-105370575D01*
X150225500Y-105331820D01*
X150224143Y-105290957D01*
X150224142Y-105290955D01*
X150223738Y-105278791D01*
X150223702Y-105278517D01*
X150221970Y-105227164D01*
X150221991Y-105226869D01*
X150220226Y-105175442D01*
X150220226Y-105175441D01*
X150218866Y-105135091D01*
X150218864Y-105135087D01*
X150218779Y-105132551D01*
X150236193Y-105064886D01*
X150287425Y-105017377D01*
X150356209Y-105005108D01*
X150390162Y-105013810D01*
X150456232Y-105041177D01*
X150456240Y-105041179D01*
X150601126Y-105069999D01*
X150601129Y-105070000D01*
X151348871Y-105070000D01*
X151348873Y-105069999D01*
X151493759Y-105041179D01*
X151493767Y-105041177D01*
X151630254Y-104984642D01*
X151630264Y-104984637D01*
X151753096Y-104902563D01*
X151753100Y-104902560D01*
X151857560Y-104798100D01*
X151857563Y-104798096D01*
X151939637Y-104675264D01*
X151939642Y-104675254D01*
X151996177Y-104538767D01*
X151996179Y-104538759D01*
X152024999Y-104393873D01*
X152025000Y-104393871D01*
X152025000Y-104246128D01*
X152024999Y-104246126D01*
X151996179Y-104101240D01*
X151996177Y-104101232D01*
X151939642Y-103964745D01*
X151939637Y-103964735D01*
X151857563Y-103841903D01*
X151857560Y-103841899D01*
X151753100Y-103737439D01*
X151753096Y-103737436D01*
X151630264Y-103655362D01*
X151630254Y-103655357D01*
X151493767Y-103598822D01*
X151493759Y-103598820D01*
X151348872Y-103570000D01*
X150601128Y-103570000D01*
X150456240Y-103598820D01*
X150456232Y-103598822D01*
X150371953Y-103633732D01*
X150302483Y-103641201D01*
X150240004Y-103609926D01*
X150204352Y-103549837D01*
X150200500Y-103519171D01*
X150200500Y-103258937D01*
X152500000Y-103300000D01*
G37*
%TD.AperFunction*%
%TD*%
%TA.AperFunction,Conductor*%
%TO.N,/IP2368 Buck-Boost-Converter/HB_IN*%
G36*
X178243039Y-104719685D02*
G01*
X178288794Y-104772489D01*
X178300000Y-104824000D01*
X178300000Y-108976000D01*
X178280315Y-109043039D01*
X178227511Y-109088794D01*
X178176000Y-109100000D01*
X176200000Y-109100000D01*
X174824000Y-109100000D01*
X174756961Y-109080315D01*
X174711206Y-109027511D01*
X174700000Y-108976000D01*
X174700000Y-104824000D01*
X174719685Y-104756961D01*
X174772489Y-104711206D01*
X174824000Y-104700000D01*
X178176000Y-104700000D01*
X178243039Y-104719685D01*
G37*
%TD.AperFunction*%
%TD*%
%TA.AperFunction,Conductor*%
%TO.N,/IP2368 Buck-Boost-Converter/BAT*%
G36*
X186243039Y-93219685D02*
G01*
X186288794Y-93272489D01*
X186300000Y-93324000D01*
X186300000Y-96976000D01*
X186280315Y-97043039D01*
X186227511Y-97088794D01*
X186176000Y-97100000D01*
X185074000Y-97100000D01*
X185006961Y-97080315D01*
X184961206Y-97027511D01*
X184950000Y-96976000D01*
X184950000Y-94224000D01*
X184969685Y-94156961D01*
X185022489Y-94111206D01*
X185074000Y-94100000D01*
X185700000Y-94100000D01*
X185700000Y-93324000D01*
X185719685Y-93256961D01*
X185772489Y-93211206D01*
X185824000Y-93200000D01*
X186176000Y-93200000D01*
X186243039Y-93219685D01*
G37*
%TD.AperFunction*%
%TD*%
%TA.AperFunction,Conductor*%
%TO.N,/IP2368 Buck-Boost-Converter/HB_BAT*%
G36*
X190543039Y-104419685D02*
G01*
X190588794Y-104472489D01*
X190600000Y-104524000D01*
X190600000Y-107976000D01*
X190580315Y-108043039D01*
X190527511Y-108088794D01*
X190476000Y-108100000D01*
X188524000Y-108100000D01*
X188456961Y-108080315D01*
X188411206Y-108027511D01*
X188400000Y-107976000D01*
X188400000Y-104524000D01*
X188419685Y-104456961D01*
X188472489Y-104411206D01*
X188524000Y-104400000D01*
X190476000Y-104400000D01*
X190543039Y-104419685D01*
G37*
%TD.AperFunction*%
%TD*%
%TA.AperFunction,Conductor*%
%TO.N,/IP2368 Buck-Boost-Converter/BAT*%
G36*
X192443039Y-93219685D02*
G01*
X192488794Y-93272489D01*
X192500000Y-93324000D01*
X192500000Y-96976000D01*
X192480315Y-97043039D01*
X192427511Y-97088794D01*
X192376000Y-97100000D01*
X192024000Y-97100000D01*
X191956961Y-97080315D01*
X191911206Y-97027511D01*
X191900000Y-96976000D01*
X191900000Y-93949999D01*
X191749600Y-93837199D01*
X191707779Y-93781227D01*
X191700000Y-93737999D01*
X191700000Y-93324000D01*
X191719685Y-93256961D01*
X191772489Y-93211206D01*
X191824000Y-93200000D01*
X192376000Y-93200000D01*
X192443039Y-93219685D01*
G37*
%TD.AperFunction*%
%TD*%
%TA.AperFunction,Conductor*%
%TO.N,+5V*%
G36*
X185493039Y-102469685D02*
G01*
X185538794Y-102522489D01*
X185550000Y-102574000D01*
X185550000Y-103626000D01*
X185530315Y-103693039D01*
X185477511Y-103738794D01*
X185426000Y-103750000D01*
X184624000Y-103750000D01*
X184556961Y-103730315D01*
X184511206Y-103677511D01*
X184500000Y-103626000D01*
X184500000Y-102574000D01*
X184519685Y-102506961D01*
X184572489Y-102461206D01*
X184624000Y-102450000D01*
X185426000Y-102450000D01*
X185493039Y-102469685D01*
G37*
%TD.AperFunction*%
%TD*%
%TA.AperFunction,Conductor*%
%TO.N,/IP2368 Buck-Boost-Converter/HB2*%
G36*
X187743039Y-104419685D02*
G01*
X187788794Y-104472489D01*
X187800000Y-104524000D01*
X187800000Y-108726000D01*
X187780315Y-108793039D01*
X187727511Y-108838794D01*
X187676000Y-108850000D01*
X185074000Y-108850000D01*
X185006961Y-108830315D01*
X184961206Y-108777511D01*
X184950000Y-108726000D01*
X184950000Y-104524000D01*
X184969685Y-104456961D01*
X185022489Y-104411206D01*
X185074000Y-104400000D01*
X187676000Y-104400000D01*
X187743039Y-104419685D01*
G37*
%TD.AperFunction*%
%TD*%
%TA.AperFunction,Conductor*%
%TO.N,/IP2368 Buck-Boost-Converter/BAT*%
G36*
X198218039Y-89369685D02*
G01*
X198263794Y-89422489D01*
X198275000Y-89474000D01*
X198275000Y-92426000D01*
X198255315Y-92493039D01*
X198202511Y-92538794D01*
X198151000Y-92550000D01*
X195849000Y-92550000D01*
X195781961Y-92530315D01*
X195736206Y-92477511D01*
X195725000Y-92426000D01*
X195725000Y-89474000D01*
X195744685Y-89406961D01*
X195797489Y-89361206D01*
X195849000Y-89350000D01*
X198151000Y-89350000D01*
X198218039Y-89369685D01*
G37*
%TD.AperFunction*%
%TD*%
%TA.AperFunction,Conductor*%
%TO.N,/Battery Interface/VBAT*%
G36*
X199742539Y-90419685D02*
G01*
X199788294Y-90472489D01*
X199799500Y-90524000D01*
X199799500Y-94276000D01*
X199779815Y-94343039D01*
X199727011Y-94388794D01*
X199675500Y-94400000D01*
X197974000Y-94400000D01*
X197906961Y-94380315D01*
X197861206Y-94327511D01*
X197850000Y-94276000D01*
X197850000Y-93224000D01*
X197869685Y-93156961D01*
X197922489Y-93111206D01*
X197974000Y-93100000D01*
X198500000Y-93100000D01*
X198500000Y-90524000D01*
X198519685Y-90456961D01*
X198572489Y-90411206D01*
X198624000Y-90400000D01*
X199675500Y-90400000D01*
X199742539Y-90419685D01*
G37*
%TD.AperFunction*%
%TD*%
%TA.AperFunction,Conductor*%
%TO.N,/IP2368 Buck-Boost-Converter/CSP1*%
G36*
X167400000Y-97907407D02*
G01*
X167400000Y-97907408D01*
X167562011Y-98063418D01*
X167596647Y-98124099D01*
X167600000Y-98152738D01*
X167600000Y-101152230D01*
X167580315Y-101219269D01*
X167567950Y-101235423D01*
X166650000Y-102249999D01*
X166650000Y-102250000D01*
X166650000Y-104600000D01*
X167240953Y-105230350D01*
X167398541Y-105398444D01*
X167401397Y-105401598D01*
X168100000Y-106200000D01*
X170400000Y-106200000D01*
X171063681Y-105536319D01*
X171125004Y-105502834D01*
X171151362Y-105500000D01*
X172876000Y-105500000D01*
X172943039Y-105519685D01*
X172988794Y-105572489D01*
X173000000Y-105624000D01*
X173000000Y-108976000D01*
X172980315Y-109043039D01*
X172927511Y-109088794D01*
X172876000Y-109100000D01*
X164147094Y-109100000D01*
X164080055Y-109080315D01*
X164059218Y-109063486D01*
X163136124Y-108136284D01*
X163102776Y-108074887D01*
X163100000Y-108048798D01*
X163100000Y-99050000D01*
X162524000Y-99050000D01*
X162456961Y-99030315D01*
X162411206Y-98977511D01*
X162400000Y-98926000D01*
X162400000Y-97450000D01*
X166925000Y-97450000D01*
X167400000Y-97907407D01*
G37*
%TD.AperFunction*%
%TD*%
%TA.AperFunction,Conductor*%
%TO.N,/IP2368 Buck-Boost-Converter/HB1*%
G36*
X181493039Y-104419685D02*
G01*
X181538794Y-104472489D01*
X181550000Y-104524000D01*
X181550000Y-110076000D01*
X181530315Y-110143039D01*
X181477511Y-110188794D01*
X181426000Y-110200000D01*
X178824000Y-110200000D01*
X178756961Y-110180315D01*
X178711206Y-110127511D01*
X178700000Y-110076000D01*
X178700000Y-104524000D01*
X178719685Y-104456961D01*
X178772489Y-104411206D01*
X178824000Y-104400000D01*
X181426000Y-104400000D01*
X181493039Y-104419685D01*
G37*
%TD.AperFunction*%
%TD*%
%TA.AperFunction,Conductor*%
%TO.N,/Connector/POWER_VBUS*%
G36*
X162093039Y-92869685D02*
G01*
X162138794Y-92922489D01*
X162150000Y-92974000D01*
X162150000Y-94926000D01*
X162130315Y-94993039D01*
X162077511Y-95038794D01*
X162026000Y-95050000D01*
X161350000Y-95050000D01*
X161350000Y-95505429D01*
X161348738Y-95523075D01*
X161344867Y-95549999D01*
X161348738Y-95576923D01*
X161350000Y-95594570D01*
X161350000Y-97198638D01*
X161330315Y-97265677D01*
X161313681Y-97286319D01*
X160436319Y-98163681D01*
X160374996Y-98197166D01*
X160348638Y-98200000D01*
X157499999Y-98200000D01*
X157100000Y-98599999D01*
X157100000Y-102676000D01*
X157080315Y-102743039D01*
X157027511Y-102788794D01*
X156976000Y-102800000D01*
X155291835Y-102800000D01*
X155224796Y-102780315D01*
X155179041Y-102727511D01*
X155172060Y-102708094D01*
X155161281Y-102667865D01*
X155085515Y-102536635D01*
X154978365Y-102429485D01*
X154912750Y-102391602D01*
X154847136Y-102353719D01*
X154773950Y-102334109D01*
X154700766Y-102314500D01*
X154549234Y-102314500D01*
X154402863Y-102353719D01*
X154271635Y-102429485D01*
X154271632Y-102429487D01*
X154164487Y-102536632D01*
X154164485Y-102536635D01*
X154088719Y-102667865D01*
X154077940Y-102708094D01*
X154041574Y-102767754D01*
X153978727Y-102798283D01*
X153958165Y-102800000D01*
X153324000Y-102800000D01*
X153256961Y-102780315D01*
X153211206Y-102727511D01*
X153200000Y-102676000D01*
X153200000Y-96724000D01*
X153219685Y-96656961D01*
X153272489Y-96611206D01*
X153324000Y-96600000D01*
X154040144Y-96600000D01*
X154107183Y-96619685D01*
X154152938Y-96672489D01*
X154162882Y-96741647D01*
X154147531Y-96785998D01*
X154128778Y-96818480D01*
X154088719Y-96887863D01*
X154049500Y-97034234D01*
X154049500Y-97185765D01*
X154088719Y-97332136D01*
X154126602Y-97397750D01*
X154164485Y-97463365D01*
X154271635Y-97570515D01*
X154402865Y-97646281D01*
X154549234Y-97685500D01*
X154549236Y-97685500D01*
X154700764Y-97685500D01*
X154700766Y-97685500D01*
X154847135Y-97646281D01*
X154978365Y-97570515D01*
X155085515Y-97463365D01*
X155161281Y-97332135D01*
X155200500Y-97185766D01*
X155200500Y-97034234D01*
X155161281Y-96887865D01*
X155102468Y-96785999D01*
X155085996Y-96718101D01*
X155108848Y-96652074D01*
X155163769Y-96608883D01*
X155209856Y-96600000D01*
X157800000Y-96600000D01*
X158063681Y-96336319D01*
X158125004Y-96302834D01*
X158151362Y-96300000D01*
X159100000Y-96300000D01*
X159100000Y-92974000D01*
X159119685Y-92906961D01*
X159172489Y-92861206D01*
X159224000Y-92850000D01*
X162026000Y-92850000D01*
X162093039Y-92869685D01*
G37*
%TD.AperFunction*%
%TD*%
%TA.AperFunction,Conductor*%
%TO.N,GND*%
G36*
X174006715Y-88720185D02*
G01*
X174052470Y-88772989D01*
X174062414Y-88842147D01*
X174052470Y-88876012D01*
X174013302Y-88961774D01*
X173994867Y-89090000D01*
X174013302Y-89218225D01*
X174048100Y-89294420D01*
X174067118Y-89336063D01*
X174151951Y-89433967D01*
X174247985Y-89495684D01*
X174293740Y-89548488D01*
X174303684Y-89617647D01*
X174274659Y-89681203D01*
X174247985Y-89704315D01*
X174231420Y-89714961D01*
X174151950Y-89766033D01*
X174067118Y-89863937D01*
X174067117Y-89863938D01*
X174013302Y-89981774D01*
X173994867Y-90110000D01*
X174013302Y-90238225D01*
X174054065Y-90327482D01*
X174067118Y-90356063D01*
X174121096Y-90418358D01*
X174147047Y-90448308D01*
X174151951Y-90453967D01*
X174260931Y-90524004D01*
X174385225Y-90560499D01*
X174385227Y-90560500D01*
X174385228Y-90560500D01*
X174514773Y-90560500D01*
X174514773Y-90560499D01*
X174639069Y-90524004D01*
X174676420Y-90500000D01*
X193044867Y-90500000D01*
X193063302Y-90628225D01*
X193094220Y-90695924D01*
X193117118Y-90746063D01*
X193201951Y-90843967D01*
X193310931Y-90914004D01*
X193435225Y-90950499D01*
X193435227Y-90950500D01*
X193435228Y-90950500D01*
X193564773Y-90950500D01*
X193564773Y-90950499D01*
X193689069Y-90914004D01*
X193798049Y-90843967D01*
X193882882Y-90746063D01*
X193936697Y-90628226D01*
X193955133Y-90500000D01*
X193936697Y-90371774D01*
X193882882Y-90253937D01*
X193798049Y-90156033D01*
X193689069Y-90085996D01*
X193689065Y-90085994D01*
X193689064Y-90085994D01*
X193564774Y-90049500D01*
X193564772Y-90049500D01*
X193435228Y-90049500D01*
X193435226Y-90049500D01*
X193310935Y-90085994D01*
X193310932Y-90085995D01*
X193310931Y-90085996D01*
X193275852Y-90108540D01*
X193201950Y-90156033D01*
X193117118Y-90253937D01*
X193117117Y-90253938D01*
X193063302Y-90371774D01*
X193044867Y-90500000D01*
X174676420Y-90500000D01*
X174748049Y-90453967D01*
X174832882Y-90356063D01*
X174886697Y-90238226D01*
X174886698Y-90238216D01*
X174886904Y-90237519D01*
X174887304Y-90236896D01*
X174890381Y-90230159D01*
X174891349Y-90230601D01*
X174924677Y-90178740D01*
X174988232Y-90149714D01*
X175057391Y-90159655D01*
X175099596Y-90191249D01*
X175101951Y-90193967D01*
X175210931Y-90264004D01*
X175335225Y-90300499D01*
X175335227Y-90300500D01*
X175335228Y-90300500D01*
X175464773Y-90300500D01*
X175464773Y-90300499D01*
X175589069Y-90264004D01*
X175698049Y-90193967D01*
X175700404Y-90191250D01*
X175740592Y-90144869D01*
X175799369Y-90107093D01*
X175869239Y-90107092D01*
X175892234Y-90118399D01*
X175892840Y-90117212D01*
X175901533Y-90121641D01*
X175901535Y-90121643D01*
X176007518Y-90175644D01*
X176007520Y-90175644D01*
X176007522Y-90175645D01*
X176124997Y-90194251D01*
X176125000Y-90194251D01*
X176125003Y-90194251D01*
X176242477Y-90175645D01*
X176242478Y-90175645D01*
X176242479Y-90175644D01*
X176242482Y-90175644D01*
X176348465Y-90121643D01*
X176348466Y-90121641D01*
X176357160Y-90117212D01*
X176358268Y-90119386D01*
X176410903Y-90100600D01*
X176478959Y-90116418D01*
X176493292Y-90127307D01*
X176493636Y-90126834D01*
X176501533Y-90132571D01*
X176501535Y-90132573D01*
X176607518Y-90186574D01*
X176607520Y-90186574D01*
X176607522Y-90186575D01*
X176724997Y-90205181D01*
X176725000Y-90205181D01*
X176725003Y-90205181D01*
X176842477Y-90186575D01*
X176842478Y-90186575D01*
X176842479Y-90186574D01*
X176842482Y-90186574D01*
X176948465Y-90132573D01*
X177032573Y-90048465D01*
X177086574Y-89942482D01*
X177090517Y-89917589D01*
X177105181Y-89825003D01*
X177105181Y-89824996D01*
X177086575Y-89707522D01*
X177086575Y-89707521D01*
X177086574Y-89707519D01*
X177086574Y-89707518D01*
X177032573Y-89601535D01*
X177032571Y-89601533D01*
X177032568Y-89601529D01*
X176948470Y-89517431D01*
X176948466Y-89517428D01*
X176948465Y-89517427D01*
X176842482Y-89463426D01*
X176842480Y-89463425D01*
X176842477Y-89463424D01*
X176725003Y-89444819D01*
X176724997Y-89444819D01*
X176607522Y-89463424D01*
X176607521Y-89463424D01*
X176560532Y-89487366D01*
X176501535Y-89517427D01*
X176501533Y-89517428D01*
X176492840Y-89521858D01*
X176491733Y-89519686D01*
X176439065Y-89538471D01*
X176371013Y-89522636D01*
X176356706Y-89511764D01*
X176356364Y-89512236D01*
X176348466Y-89506498D01*
X176348465Y-89506497D01*
X176242482Y-89452496D01*
X176242480Y-89452495D01*
X176242477Y-89452494D01*
X176125003Y-89433889D01*
X176124997Y-89433889D01*
X176007522Y-89452494D01*
X176007521Y-89452494D01*
X175901533Y-89506498D01*
X175901528Y-89506502D01*
X175886904Y-89521126D01*
X175825580Y-89554610D01*
X175755889Y-89549624D01*
X175705510Y-89514644D01*
X175698049Y-89506033D01*
X175589069Y-89435996D01*
X175589065Y-89435994D01*
X175589064Y-89435994D01*
X175464774Y-89399500D01*
X175464772Y-89399500D01*
X175335228Y-89399500D01*
X175335226Y-89399500D01*
X175210935Y-89435994D01*
X175210932Y-89435995D01*
X175210931Y-89435996D01*
X175168252Y-89463424D01*
X175101950Y-89506033D01*
X175017118Y-89603937D01*
X175017117Y-89603938D01*
X174963299Y-89721782D01*
X174963090Y-89722495D01*
X174962688Y-89723119D01*
X174959619Y-89729841D01*
X174958651Y-89729399D01*
X174925310Y-89781270D01*
X174861751Y-89810288D01*
X174792594Y-89800337D01*
X174750402Y-89768748D01*
X174748050Y-89766034D01*
X174748049Y-89766033D01*
X174652012Y-89704314D01*
X174606259Y-89651512D01*
X174596315Y-89582354D01*
X174625340Y-89518798D01*
X174652010Y-89495687D01*
X174748049Y-89433967D01*
X174832882Y-89336063D01*
X174886697Y-89218226D01*
X174905133Y-89090000D01*
X174886697Y-88961774D01*
X174847529Y-88876010D01*
X174837586Y-88806854D01*
X174866611Y-88743298D01*
X174925388Y-88705523D01*
X174960324Y-88700500D01*
X192948574Y-88700500D01*
X193015613Y-88720185D01*
X193061368Y-88772989D01*
X193071312Y-88842147D01*
X193065164Y-88863080D01*
X193065801Y-88863267D01*
X193063302Y-88871773D01*
X193044867Y-89000000D01*
X193063302Y-89128225D01*
X193104405Y-89218226D01*
X193117118Y-89246063D01*
X193167266Y-89303938D01*
X193195100Y-89336061D01*
X193201951Y-89343967D01*
X193310931Y-89414004D01*
X193402686Y-89440945D01*
X193435225Y-89450499D01*
X193435227Y-89450500D01*
X193435228Y-89450500D01*
X193564773Y-89450500D01*
X193564773Y-89450499D01*
X193689069Y-89414004D01*
X193798049Y-89343967D01*
X193882882Y-89246063D01*
X193936697Y-89128226D01*
X193955133Y-89000000D01*
X193936697Y-88871774D01*
X193936697Y-88871773D01*
X193934199Y-88863267D01*
X193936695Y-88862533D01*
X193928687Y-88806862D01*
X193957707Y-88743304D01*
X194016482Y-88705526D01*
X194051426Y-88700500D01*
X194348574Y-88700500D01*
X194415613Y-88720185D01*
X194461368Y-88772989D01*
X194471312Y-88842147D01*
X194465164Y-88863080D01*
X194465801Y-88863267D01*
X194463302Y-88871773D01*
X194444867Y-89000000D01*
X194463302Y-89128225D01*
X194504405Y-89218226D01*
X194517118Y-89246063D01*
X194567266Y-89303938D01*
X194595100Y-89336061D01*
X194601951Y-89343967D01*
X194710931Y-89414004D01*
X194802686Y-89440945D01*
X194835225Y-89450499D01*
X194835227Y-89450500D01*
X194835228Y-89450500D01*
X194964773Y-89450500D01*
X194964773Y-89450499D01*
X195089069Y-89414004D01*
X195198049Y-89343967D01*
X195282882Y-89246063D01*
X195336697Y-89128226D01*
X195355133Y-89000000D01*
X195336697Y-88871774D01*
X195336697Y-88871773D01*
X195334199Y-88863267D01*
X195336695Y-88862533D01*
X195328687Y-88806862D01*
X195357707Y-88743304D01*
X195416482Y-88705526D01*
X195451426Y-88700500D01*
X199365588Y-88700500D01*
X199432627Y-88720185D01*
X199453269Y-88736819D01*
X199763181Y-89046731D01*
X199796666Y-89108054D01*
X199799500Y-89134412D01*
X199799500Y-89617729D01*
X199779815Y-89684768D01*
X199727011Y-89730523D01*
X199657853Y-89740467D01*
X199594297Y-89711442D01*
X199562706Y-89669241D01*
X199550766Y-89643097D01*
X199532882Y-89603937D01*
X199448049Y-89506033D01*
X199339069Y-89435996D01*
X199339065Y-89435994D01*
X199339064Y-89435994D01*
X199214774Y-89399500D01*
X199214772Y-89399500D01*
X199085228Y-89399500D01*
X199085226Y-89399500D01*
X198960935Y-89435994D01*
X198960932Y-89435995D01*
X198960931Y-89435996D01*
X198918252Y-89463424D01*
X198851950Y-89506033D01*
X198767118Y-89603937D01*
X198767117Y-89603938D01*
X198713302Y-89721774D01*
X198694867Y-89850000D01*
X198713302Y-89978225D01*
X198754753Y-90068988D01*
X198764697Y-90138147D01*
X198735672Y-90201702D01*
X198676894Y-90239477D01*
X198641959Y-90244500D01*
X198623991Y-90244500D01*
X198590942Y-90248054D01*
X198580858Y-90250248D01*
X198511167Y-90245264D01*
X198455233Y-90203393D01*
X198430816Y-90137928D01*
X198430500Y-90129082D01*
X198430500Y-89474008D01*
X198430499Y-89473996D01*
X198426946Y-89440945D01*
X198415740Y-89389434D01*
X198392980Y-89343966D01*
X198381313Y-89320657D01*
X198335563Y-89267860D01*
X198330577Y-89262376D01*
X198261854Y-89220486D01*
X198261848Y-89220483D01*
X198194812Y-89200799D01*
X198194802Y-89200797D01*
X198151003Y-89194500D01*
X198151000Y-89194500D01*
X195849000Y-89194500D01*
X195848991Y-89194500D01*
X195815944Y-89198054D01*
X195764433Y-89209260D01*
X195695657Y-89243686D01*
X195642860Y-89289436D01*
X195637376Y-89294422D01*
X195595486Y-89363145D01*
X195595483Y-89363151D01*
X195575799Y-89430187D01*
X195575797Y-89430197D01*
X195569500Y-89473996D01*
X195569500Y-90311523D01*
X195549815Y-90378562D01*
X195497011Y-90424317D01*
X195427853Y-90434261D01*
X195364297Y-90405236D01*
X195332706Y-90363035D01*
X195294099Y-90278499D01*
X195282882Y-90253937D01*
X195198049Y-90156033D01*
X195089069Y-90085996D01*
X195089065Y-90085994D01*
X195089064Y-90085994D01*
X194964774Y-90049500D01*
X194964772Y-90049500D01*
X194835228Y-90049500D01*
X194835226Y-90049500D01*
X194710935Y-90085994D01*
X194710932Y-90085995D01*
X194710931Y-90085996D01*
X194675852Y-90108540D01*
X194601950Y-90156033D01*
X194517118Y-90253937D01*
X194517117Y-90253938D01*
X194463302Y-90371774D01*
X194444867Y-90500000D01*
X194463302Y-90628225D01*
X194494220Y-90695924D01*
X194517118Y-90746063D01*
X194601951Y-90843967D01*
X194710931Y-90914004D01*
X194835225Y-90950499D01*
X194835227Y-90950500D01*
X194835228Y-90950500D01*
X194964773Y-90950500D01*
X194964773Y-90950499D01*
X195089069Y-90914004D01*
X195198049Y-90843967D01*
X195282882Y-90746063D01*
X195332706Y-90636962D01*
X195378461Y-90584161D01*
X195445500Y-90564476D01*
X195512540Y-90584161D01*
X195558294Y-90636965D01*
X195569500Y-90688476D01*
X195569500Y-91811523D01*
X195549815Y-91878562D01*
X195497011Y-91924317D01*
X195427853Y-91934261D01*
X195364297Y-91905236D01*
X195332706Y-91863035D01*
X195282882Y-91753938D01*
X195282882Y-91753937D01*
X195198049Y-91656033D01*
X195089069Y-91585996D01*
X195089065Y-91585994D01*
X195089064Y-91585994D01*
X194964774Y-91549500D01*
X194964772Y-91549500D01*
X194835228Y-91549500D01*
X194835226Y-91549500D01*
X194710935Y-91585994D01*
X194710932Y-91585995D01*
X194710931Y-91585996D01*
X194671518Y-91611325D01*
X194601950Y-91656033D01*
X194517118Y-91753937D01*
X194517117Y-91753938D01*
X194463302Y-91871774D01*
X194444867Y-92000000D01*
X194463302Y-92128225D01*
X194503894Y-92217107D01*
X194517118Y-92246063D01*
X194601951Y-92343967D01*
X194710931Y-92414004D01*
X194766023Y-92430180D01*
X194835225Y-92450499D01*
X194835227Y-92450500D01*
X194835228Y-92450500D01*
X194964773Y-92450500D01*
X194964773Y-92450499D01*
X195089069Y-92414004D01*
X195198049Y-92343967D01*
X195282882Y-92246063D01*
X195332706Y-92136962D01*
X195378461Y-92084161D01*
X195445500Y-92064476D01*
X195512540Y-92084161D01*
X195558294Y-92136965D01*
X195569500Y-92188476D01*
X195569500Y-92426008D01*
X195573054Y-92459055D01*
X195584260Y-92510566D01*
X195618686Y-92579342D01*
X195664436Y-92632139D01*
X195669422Y-92637623D01*
X195721794Y-92669546D01*
X195738150Y-92679516D01*
X195805189Y-92699201D01*
X195849000Y-92705500D01*
X195849003Y-92705500D01*
X197902579Y-92705500D01*
X197969618Y-92725185D01*
X198015373Y-92777989D01*
X198025317Y-92847147D01*
X197996292Y-92910703D01*
X197937514Y-92948477D01*
X197928938Y-92950666D01*
X197889433Y-92959260D01*
X197820657Y-92993686D01*
X197767860Y-93039436D01*
X197762376Y-93044422D01*
X197720486Y-93113145D01*
X197720483Y-93113151D01*
X197700799Y-93180187D01*
X197700797Y-93180197D01*
X197694500Y-93223996D01*
X197694500Y-94241086D01*
X197683273Y-94279318D01*
X197697973Y-94308683D01*
X197709260Y-94360566D01*
X197743686Y-94429342D01*
X197789436Y-94482139D01*
X197794422Y-94487623D01*
X197826825Y-94507374D01*
X197863150Y-94529516D01*
X197930189Y-94549201D01*
X197974000Y-94555500D01*
X197974003Y-94555500D01*
X199675500Y-94555500D01*
X199742539Y-94575185D01*
X199788294Y-94627989D01*
X199799500Y-94679500D01*
X199799500Y-95785805D01*
X199779815Y-95852844D01*
X199727011Y-95898599D01*
X199657853Y-95908543D01*
X199640564Y-95904782D01*
X199633905Y-95902826D01*
X199624328Y-95901449D01*
X199576000Y-95894500D01*
X198056381Y-95894500D01*
X198056372Y-95894500D01*
X198027486Y-95896542D01*
X198027462Y-95896544D01*
X197992940Y-95901449D01*
X197992932Y-95901451D01*
X197911315Y-95931661D01*
X197852414Y-95969237D01*
X197808085Y-96007392D01*
X197808076Y-96007400D01*
X197663945Y-96172624D01*
X197605042Y-96210203D01*
X197535173Y-96209970D01*
X197476520Y-96172001D01*
X197447765Y-96108756D01*
X197446042Y-96096774D01*
X197436697Y-96031774D01*
X197382882Y-95913937D01*
X197298049Y-95816033D01*
X197189069Y-95745996D01*
X197189065Y-95745994D01*
X197189064Y-95745994D01*
X197064774Y-95709500D01*
X197064772Y-95709500D01*
X196935228Y-95709500D01*
X196935226Y-95709500D01*
X196810935Y-95745994D01*
X196810932Y-95745995D01*
X196810931Y-95745996D01*
X196759677Y-95778934D01*
X196701950Y-95816033D01*
X196617118Y-95913937D01*
X196617117Y-95913938D01*
X196563302Y-96031774D01*
X196544867Y-96160000D01*
X196563302Y-96288225D01*
X196617117Y-96406061D01*
X196617118Y-96406063D01*
X196701951Y-96503967D01*
X196810931Y-96574004D01*
X196935225Y-96610499D01*
X196935227Y-96610500D01*
X197009249Y-96610500D01*
X197076288Y-96630185D01*
X197122043Y-96682989D01*
X197131987Y-96752147D01*
X197102962Y-96815702D01*
X195871282Y-98227628D01*
X195871277Y-98227633D01*
X195871275Y-98227637D01*
X195849579Y-98257565D01*
X195849577Y-98257568D01*
X195826846Y-98295736D01*
X195825088Y-98298746D01*
X195825086Y-98298751D01*
X195811280Y-98344055D01*
X195785894Y-98389665D01*
X195631223Y-98566034D01*
X195460043Y-98822223D01*
X195460034Y-98822238D01*
X195323769Y-99098556D01*
X195323760Y-99098577D01*
X195224722Y-99390333D01*
X195224718Y-99390348D01*
X195164611Y-99692529D01*
X195164609Y-99692541D01*
X195144457Y-100000000D01*
X195164609Y-100307458D01*
X195164611Y-100307470D01*
X195224718Y-100609651D01*
X195224723Y-100609671D01*
X195323758Y-100901419D01*
X195323762Y-100901429D01*
X195460037Y-101177767D01*
X195460041Y-101177774D01*
X195631212Y-101433951D01*
X195631218Y-101433958D01*
X195631222Y-101433964D01*
X195726142Y-101542200D01*
X195834379Y-101665620D01*
X195931505Y-101750797D01*
X196066036Y-101868778D01*
X196066042Y-101868782D01*
X196066048Y-101868787D01*
X196322225Y-102039958D01*
X196322232Y-102039962D01*
X196598570Y-102176237D01*
X196598580Y-102176241D01*
X196890328Y-102275276D01*
X196890332Y-102275277D01*
X196890341Y-102275280D01*
X197192540Y-102335391D01*
X197500000Y-102355543D01*
X197807460Y-102335391D01*
X198109659Y-102275280D01*
X198144586Y-102263424D01*
X198401419Y-102176241D01*
X198401429Y-102176237D01*
X198510352Y-102122522D01*
X198677772Y-102039960D01*
X198919528Y-101878424D01*
X198933951Y-101868787D01*
X198933952Y-101868785D01*
X198933964Y-101868778D01*
X199165620Y-101665620D01*
X199368778Y-101433964D01*
X199378230Y-101419819D01*
X199438285Y-101329939D01*
X199539960Y-101177772D01*
X199564288Y-101128438D01*
X199611592Y-101077020D01*
X199679188Y-101059338D01*
X199745612Y-101081007D01*
X199789776Y-101135149D01*
X199799500Y-101183283D01*
X199799500Y-110865588D01*
X199779815Y-110932627D01*
X199763181Y-110953269D01*
X199453269Y-111263181D01*
X199391946Y-111296666D01*
X199365588Y-111299500D01*
X192791476Y-111299500D01*
X192724437Y-111279815D01*
X192678682Y-111227011D01*
X192668738Y-111157853D01*
X192697762Y-111094298D01*
X192698049Y-111093967D01*
X192782882Y-110996063D01*
X192836697Y-110878226D01*
X192855133Y-110750000D01*
X192836697Y-110621774D01*
X192782882Y-110503937D01*
X192698049Y-110406033D01*
X192589069Y-110335996D01*
X192589065Y-110335994D01*
X192589064Y-110335994D01*
X192464774Y-110299500D01*
X192464772Y-110299500D01*
X192335228Y-110299500D01*
X192335226Y-110299500D01*
X192210935Y-110335994D01*
X192210932Y-110335995D01*
X192210931Y-110335996D01*
X192180584Y-110355499D01*
X192101950Y-110406033D01*
X192017118Y-110503937D01*
X192017117Y-110503938D01*
X191963302Y-110621774D01*
X191944867Y-110750000D01*
X191963302Y-110878225D01*
X191988147Y-110932627D01*
X192017118Y-110996063D01*
X192055087Y-111039882D01*
X192102238Y-111094298D01*
X192131262Y-111157854D01*
X192121318Y-111227012D01*
X192075563Y-111279816D01*
X192008524Y-111299500D01*
X190624500Y-111299500D01*
X190557461Y-111279815D01*
X190511706Y-111227011D01*
X190500500Y-111175500D01*
X190500500Y-109735177D01*
X190491768Y-109691282D01*
X190491767Y-109691281D01*
X190491767Y-109691278D01*
X190458504Y-109641496D01*
X190458503Y-109641495D01*
X190408724Y-109608234D01*
X190408717Y-109608231D01*
X190364822Y-109599500D01*
X190364820Y-109599500D01*
X183835180Y-109599500D01*
X183835178Y-109599500D01*
X183791282Y-109608231D01*
X183791275Y-109608234D01*
X183741496Y-109641495D01*
X183741495Y-109641496D01*
X183708234Y-109691275D01*
X183708231Y-109691282D01*
X183699500Y-109735177D01*
X183699500Y-111175500D01*
X183679815Y-111242539D01*
X183627011Y-111288294D01*
X183575500Y-111299500D01*
X180624500Y-111299500D01*
X180557461Y-111279815D01*
X180511706Y-111227011D01*
X180500500Y-111175500D01*
X180500500Y-110479500D01*
X180520185Y-110412461D01*
X180572989Y-110366706D01*
X180624500Y-110355500D01*
X181425991Y-110355500D01*
X181426000Y-110355500D01*
X181459055Y-110351946D01*
X181510566Y-110340740D01*
X181579342Y-110306313D01*
X181632146Y-110260558D01*
X181637621Y-110255580D01*
X181679516Y-110186850D01*
X181699201Y-110119811D01*
X181705500Y-110076000D01*
X181705500Y-108605004D01*
X183634872Y-108605004D01*
X183653307Y-108733229D01*
X183700629Y-108836848D01*
X183707123Y-108851067D01*
X183791956Y-108948971D01*
X183900936Y-109019008D01*
X184025230Y-109055503D01*
X184025232Y-109055504D01*
X184025233Y-109055504D01*
X184154778Y-109055504D01*
X184154778Y-109055503D01*
X184279074Y-109019008D01*
X184388054Y-108948971D01*
X184472887Y-108851067D01*
X184526702Y-108733230D01*
X184545138Y-108605004D01*
X184526702Y-108476778D01*
X184472887Y-108358941D01*
X184388054Y-108261037D01*
X184279074Y-108191000D01*
X184279070Y-108190998D01*
X184279069Y-108190998D01*
X184154779Y-108154504D01*
X184154777Y-108154504D01*
X184025233Y-108154504D01*
X184025231Y-108154504D01*
X183900940Y-108190998D01*
X183900937Y-108190999D01*
X183900936Y-108191000D01*
X183870589Y-108210503D01*
X183791955Y-108261037D01*
X183707123Y-108358941D01*
X183707122Y-108358942D01*
X183653307Y-108476778D01*
X183634872Y-108605004D01*
X181705500Y-108605004D01*
X181705500Y-104524000D01*
X181705500Y-104523996D01*
X184794500Y-104523996D01*
X184794500Y-108726008D01*
X184798054Y-108759055D01*
X184809260Y-108810566D01*
X184843686Y-108879342D01*
X184889436Y-108932139D01*
X184894422Y-108937623D01*
X184957377Y-108975997D01*
X184963150Y-108979516D01*
X185030189Y-108999201D01*
X185074000Y-109005500D01*
X185074003Y-109005500D01*
X187675991Y-109005500D01*
X187676000Y-109005500D01*
X187709055Y-109001946D01*
X187760566Y-108990740D01*
X187829342Y-108956313D01*
X187882146Y-108910558D01*
X187887621Y-108905580D01*
X187888748Y-108903732D01*
X187903615Y-108879342D01*
X187929516Y-108836850D01*
X187949201Y-108769811D01*
X187955500Y-108726000D01*
X187955500Y-104524000D01*
X187955500Y-104523996D01*
X188244500Y-104523996D01*
X188244500Y-107976008D01*
X188248054Y-108009055D01*
X188259260Y-108060566D01*
X188293686Y-108129342D01*
X188339436Y-108182139D01*
X188344422Y-108187623D01*
X188413145Y-108229513D01*
X188413150Y-108229516D01*
X188480189Y-108249201D01*
X188524000Y-108255500D01*
X189481405Y-108255500D01*
X189548444Y-108275185D01*
X189594199Y-108327989D01*
X189604143Y-108397147D01*
X189594199Y-108431012D01*
X189573297Y-108476778D01*
X189554862Y-108605004D01*
X189573297Y-108733229D01*
X189620619Y-108836848D01*
X189627113Y-108851067D01*
X189711946Y-108948971D01*
X189820926Y-109019008D01*
X189945220Y-109055503D01*
X189945222Y-109055504D01*
X189945223Y-109055504D01*
X190074768Y-109055504D01*
X190074768Y-109055503D01*
X190199064Y-109019008D01*
X190308044Y-108948971D01*
X190392877Y-108851067D01*
X190446692Y-108733230D01*
X190465128Y-108605004D01*
X190446692Y-108476778D01*
X190422849Y-108424570D01*
X190412906Y-108355415D01*
X190441930Y-108291859D01*
X190500708Y-108254084D01*
X190509272Y-108251898D01*
X190560566Y-108240740D01*
X190629342Y-108206313D01*
X190636632Y-108199996D01*
X194644819Y-108199996D01*
X194644819Y-108200003D01*
X194663424Y-108317477D01*
X194663424Y-108317478D01*
X194663425Y-108317481D01*
X194663426Y-108317482D01*
X194704017Y-108397147D01*
X194717428Y-108423466D01*
X194717431Y-108423470D01*
X194801529Y-108507568D01*
X194801533Y-108507571D01*
X194801535Y-108507573D01*
X194907518Y-108561574D01*
X194907520Y-108561574D01*
X194907522Y-108561575D01*
X195024997Y-108580181D01*
X195025000Y-108580181D01*
X195025003Y-108580181D01*
X195142477Y-108561575D01*
X195142478Y-108561575D01*
X195142479Y-108561574D01*
X195142482Y-108561574D01*
X195248465Y-108507573D01*
X195332573Y-108423465D01*
X195386574Y-108317482D01*
X195386575Y-108317477D01*
X195405181Y-108200003D01*
X195405181Y-108199996D01*
X195386575Y-108082522D01*
X195386575Y-108082521D01*
X195386574Y-108082519D01*
X195386574Y-108082518D01*
X195332573Y-107976535D01*
X195332571Y-107976533D01*
X195332568Y-107976529D01*
X195248470Y-107892431D01*
X195248466Y-107892428D01*
X195248465Y-107892427D01*
X195142482Y-107838426D01*
X195142480Y-107838425D01*
X195142477Y-107838424D01*
X195041760Y-107822473D01*
X195025312Y-107814676D01*
X195008240Y-107822473D01*
X194907521Y-107838424D01*
X194801533Y-107892428D01*
X194801529Y-107892431D01*
X194717431Y-107976529D01*
X194717428Y-107976533D01*
X194663424Y-108082521D01*
X194663424Y-108082522D01*
X194644819Y-108199996D01*
X190636632Y-108199996D01*
X190682146Y-108160558D01*
X190687621Y-108155580D01*
X190691566Y-108149109D01*
X190726779Y-108091340D01*
X190729516Y-108086850D01*
X190749201Y-108019811D01*
X190755500Y-107976000D01*
X190755500Y-107199996D01*
X194644819Y-107199996D01*
X194644819Y-107200003D01*
X194663424Y-107317477D01*
X194663424Y-107317478D01*
X194663425Y-107317481D01*
X194663426Y-107317482D01*
X194696818Y-107383018D01*
X194717428Y-107423466D01*
X194717431Y-107423470D01*
X194801529Y-107507568D01*
X194801533Y-107507571D01*
X194801535Y-107507573D01*
X194907518Y-107561574D01*
X194907519Y-107561574D01*
X194907521Y-107561575D01*
X195008240Y-107577527D01*
X195024686Y-107585323D01*
X195041760Y-107577527D01*
X195142477Y-107561575D01*
X195142478Y-107561575D01*
X195142479Y-107561574D01*
X195142482Y-107561574D01*
X195248465Y-107507573D01*
X195332573Y-107423465D01*
X195386574Y-107317482D01*
X195392793Y-107278215D01*
X195405181Y-107200003D01*
X195405181Y-107199996D01*
X195386575Y-107082522D01*
X195386575Y-107082521D01*
X195386574Y-107082519D01*
X195386574Y-107082518D01*
X195332573Y-106976535D01*
X195332571Y-106976533D01*
X195332568Y-106976529D01*
X195248470Y-106892431D01*
X195248466Y-106892428D01*
X195248465Y-106892427D01*
X195142482Y-106838426D01*
X195142480Y-106838425D01*
X195142477Y-106838424D01*
X195041760Y-106822473D01*
X195025312Y-106814676D01*
X195008240Y-106822473D01*
X194907521Y-106838424D01*
X194801533Y-106892428D01*
X194801529Y-106892431D01*
X194717431Y-106976529D01*
X194717428Y-106976533D01*
X194663424Y-107082521D01*
X194663424Y-107082522D01*
X194644819Y-107199996D01*
X190755500Y-107199996D01*
X190755500Y-106199996D01*
X194644819Y-106199996D01*
X194644819Y-106200003D01*
X194663424Y-106317477D01*
X194663424Y-106317478D01*
X194663425Y-106317481D01*
X194663426Y-106317482D01*
X194716174Y-106421006D01*
X194717428Y-106423466D01*
X194717431Y-106423470D01*
X194801529Y-106507568D01*
X194801533Y-106507571D01*
X194801535Y-106507573D01*
X194907518Y-106561574D01*
X194907519Y-106561574D01*
X194907521Y-106561575D01*
X195008240Y-106577527D01*
X195024686Y-106585323D01*
X195041760Y-106577527D01*
X195142477Y-106561575D01*
X195142478Y-106561575D01*
X195142479Y-106561574D01*
X195142482Y-106561574D01*
X195248465Y-106507573D01*
X195332573Y-106423465D01*
X195386574Y-106317482D01*
X195386575Y-106317477D01*
X195405181Y-106200003D01*
X195405181Y-106199996D01*
X195386575Y-106082522D01*
X195386575Y-106082521D01*
X195386574Y-106082519D01*
X195386574Y-106082518D01*
X195332573Y-105976535D01*
X195332571Y-105976533D01*
X195332568Y-105976529D01*
X195248470Y-105892431D01*
X195248466Y-105892428D01*
X195248465Y-105892427D01*
X195142482Y-105838426D01*
X195142480Y-105838425D01*
X195142477Y-105838424D01*
X195025003Y-105819819D01*
X195024997Y-105819819D01*
X194907522Y-105838424D01*
X194907521Y-105838424D01*
X194801533Y-105892428D01*
X194801529Y-105892431D01*
X194717431Y-105976529D01*
X194717428Y-105976533D01*
X194663424Y-106082521D01*
X194663424Y-106082522D01*
X194644819Y-106199996D01*
X190755500Y-106199996D01*
X190755500Y-105199996D01*
X195269819Y-105199996D01*
X195269819Y-105200003D01*
X195288424Y-105317477D01*
X195288424Y-105317478D01*
X195288425Y-105317481D01*
X195288426Y-105317482D01*
X195339571Y-105417860D01*
X195342428Y-105423466D01*
X195342431Y-105423470D01*
X195426529Y-105507568D01*
X195426533Y-105507571D01*
X195426535Y-105507573D01*
X195532518Y-105561574D01*
X195532520Y-105561574D01*
X195532522Y-105561575D01*
X195649997Y-105580181D01*
X195650000Y-105580181D01*
X195650003Y-105580181D01*
X195767477Y-105561575D01*
X195767478Y-105561575D01*
X195767479Y-105561574D01*
X195767482Y-105561574D01*
X195873465Y-105507573D01*
X195957573Y-105423465D01*
X196011574Y-105317482D01*
X196014476Y-105299158D01*
X196030181Y-105200003D01*
X196030181Y-105199996D01*
X196011575Y-105082521D01*
X196011574Y-105082519D01*
X196011574Y-105082518D01*
X195957573Y-104976535D01*
X195957571Y-104976533D01*
X195957568Y-104976529D01*
X195873470Y-104892431D01*
X195873466Y-104892428D01*
X195873465Y-104892427D01*
X195767482Y-104838426D01*
X195767480Y-104838425D01*
X195767477Y-104838424D01*
X195650003Y-104819819D01*
X195649997Y-104819819D01*
X195532522Y-104838424D01*
X195532521Y-104838424D01*
X195426533Y-104892428D01*
X195426529Y-104892431D01*
X195342431Y-104976529D01*
X195342428Y-104976533D01*
X195342427Y-104976535D01*
X195288426Y-105082518D01*
X195288425Y-105082519D01*
X195288425Y-105082521D01*
X195269819Y-105199996D01*
X190755500Y-105199996D01*
X190755500Y-104524000D01*
X190751946Y-104490945D01*
X190740740Y-104439434D01*
X190709252Y-104376529D01*
X190706313Y-104370657D01*
X190660563Y-104317860D01*
X190655577Y-104312376D01*
X190586854Y-104270486D01*
X190586848Y-104270483D01*
X190519812Y-104250799D01*
X190519802Y-104250797D01*
X190476003Y-104244500D01*
X190476000Y-104244500D01*
X188524000Y-104244500D01*
X188523991Y-104244500D01*
X188490944Y-104248054D01*
X188439433Y-104259260D01*
X188370657Y-104293686D01*
X188317860Y-104339436D01*
X188312376Y-104344422D01*
X188270486Y-104413145D01*
X188270483Y-104413151D01*
X188250799Y-104480187D01*
X188250797Y-104480197D01*
X188244500Y-104523996D01*
X187955500Y-104523996D01*
X187951946Y-104490945D01*
X187940740Y-104439434D01*
X187909252Y-104376529D01*
X187906313Y-104370657D01*
X187860563Y-104317860D01*
X187855577Y-104312376D01*
X187786854Y-104270486D01*
X187786848Y-104270483D01*
X187719812Y-104250799D01*
X187719802Y-104250797D01*
X187676003Y-104244500D01*
X187676000Y-104244500D01*
X185074000Y-104244500D01*
X185073991Y-104244500D01*
X185040944Y-104248054D01*
X184989433Y-104259260D01*
X184920657Y-104293686D01*
X184867860Y-104339436D01*
X184862376Y-104344422D01*
X184820486Y-104413145D01*
X184820483Y-104413151D01*
X184800799Y-104480187D01*
X184800797Y-104480197D01*
X184794500Y-104523996D01*
X181705500Y-104523996D01*
X181701946Y-104490945D01*
X181690740Y-104439434D01*
X181659252Y-104376529D01*
X181656313Y-104370657D01*
X181610563Y-104317860D01*
X181605577Y-104312376D01*
X181536854Y-104270486D01*
X181536848Y-104270483D01*
X181469812Y-104250799D01*
X181469802Y-104250797D01*
X181426003Y-104244500D01*
X181426000Y-104244500D01*
X178824000Y-104244500D01*
X178823991Y-104244500D01*
X178790944Y-104248054D01*
X178739433Y-104259260D01*
X178670657Y-104293686D01*
X178617860Y-104339436D01*
X178612376Y-104344422D01*
X178570486Y-104413145D01*
X178570483Y-104413151D01*
X178550799Y-104480187D01*
X178550797Y-104480194D01*
X178544348Y-104525054D01*
X178515323Y-104588610D01*
X178456545Y-104626384D01*
X178386675Y-104626384D01*
X178357070Y-104613287D01*
X178286850Y-104570484D01*
X178286848Y-104570483D01*
X178219812Y-104550799D01*
X178219802Y-104550797D01*
X178176003Y-104544500D01*
X178176000Y-104544500D01*
X174824000Y-104544500D01*
X174823991Y-104544500D01*
X174790944Y-104548054D01*
X174739433Y-104559260D01*
X174670657Y-104593686D01*
X174617860Y-104639436D01*
X174612376Y-104644422D01*
X174570486Y-104713145D01*
X174570483Y-104713151D01*
X174550799Y-104780187D01*
X174550797Y-104780197D01*
X174544500Y-104823996D01*
X174544500Y-108976008D01*
X174548054Y-109009055D01*
X174559260Y-109060566D01*
X174593686Y-109129342D01*
X174620740Y-109160563D01*
X174639442Y-109182146D01*
X174641544Y-109184458D01*
X174644422Y-109187623D01*
X174704690Y-109224359D01*
X174713150Y-109229516D01*
X174780189Y-109249201D01*
X174824000Y-109255500D01*
X174824003Y-109255500D01*
X178175991Y-109255500D01*
X178176000Y-109255500D01*
X178209055Y-109251946D01*
X178260566Y-109240740D01*
X178329342Y-109206313D01*
X178335142Y-109201287D01*
X178339296Y-109197688D01*
X178402851Y-109168662D01*
X178472009Y-109178605D01*
X178524814Y-109224359D01*
X178544500Y-109291398D01*
X178544500Y-109475500D01*
X178524815Y-109542539D01*
X178472011Y-109588294D01*
X178420500Y-109599500D01*
X173835178Y-109599500D01*
X173791282Y-109608231D01*
X173791275Y-109608234D01*
X173741496Y-109641495D01*
X173741495Y-109641496D01*
X173708234Y-109691275D01*
X173708231Y-109691282D01*
X173699500Y-109735177D01*
X173699500Y-111175500D01*
X173679815Y-111242539D01*
X173627011Y-111288294D01*
X173575500Y-111299500D01*
X151309412Y-111299500D01*
X151242373Y-111279815D01*
X151221731Y-111263181D01*
X150408371Y-110449821D01*
X150374886Y-110388498D01*
X150372093Y-110365353D01*
X150372031Y-110362944D01*
X150372043Y-110362799D01*
X150371345Y-110335996D01*
X150370625Y-110308383D01*
X150369645Y-110270375D01*
X150369644Y-110270373D01*
X150369335Y-110258392D01*
X150369318Y-110258263D01*
X150367159Y-110175396D01*
X150367170Y-110175258D01*
X150365765Y-110121866D01*
X150365764Y-110121832D01*
X150364410Y-110069880D01*
X150364392Y-110069734D01*
X150362131Y-109983840D01*
X150362142Y-109983699D01*
X150360715Y-109930028D01*
X150360714Y-109929994D01*
X150359372Y-109879014D01*
X150359355Y-109878878D01*
X150357006Y-109790493D01*
X150357016Y-109790364D01*
X150355591Y-109737224D01*
X150355590Y-109737191D01*
X150355537Y-109735180D01*
X150354545Y-109697861D01*
X150354544Y-109697860D01*
X150354227Y-109685903D01*
X150354210Y-109685761D01*
X150353023Y-109641495D01*
X150351770Y-109594796D01*
X150351780Y-109594669D01*
X150351427Y-109581642D01*
X150351428Y-109581641D01*
X150350343Y-109541567D01*
X150350343Y-109541566D01*
X150350349Y-109541565D01*
X150350342Y-109541534D01*
X150349281Y-109501956D01*
X150349280Y-109501954D01*
X150348960Y-109490012D01*
X150348943Y-109489872D01*
X150348554Y-109475500D01*
X150346439Y-109397400D01*
X150346450Y-109397280D01*
X150344917Y-109341154D01*
X150344916Y-109341119D01*
X150343565Y-109291183D01*
X150343549Y-109291062D01*
X150341869Y-109229513D01*
X150340975Y-109196732D01*
X150340984Y-109196607D01*
X150340488Y-109178605D01*
X150339542Y-109144240D01*
X150338459Y-109104565D01*
X150338458Y-109104563D01*
X150338105Y-109091631D01*
X150338089Y-109091506D01*
X150337237Y-109060566D01*
X150335470Y-108996408D01*
X150335480Y-108996287D01*
X150333975Y-108942132D01*
X150333974Y-108942098D01*
X150332969Y-108905577D01*
X150332919Y-108903753D01*
X150332918Y-108903751D01*
X150332564Y-108890876D01*
X150332549Y-108890765D01*
X150329880Y-108794644D01*
X150329890Y-108794526D01*
X150328317Y-108738343D01*
X150328316Y-108738311D01*
X150328175Y-108733229D01*
X150327308Y-108701986D01*
X150327307Y-108701985D01*
X150326949Y-108689069D01*
X150326932Y-108688939D01*
X150324582Y-108605004D01*
X150324212Y-108591785D01*
X150324221Y-108591668D01*
X150323871Y-108579284D01*
X150323872Y-108579283D01*
X150322689Y-108537411D01*
X150322689Y-108537410D01*
X150322694Y-108537409D01*
X150322688Y-108537381D01*
X150321631Y-108499595D01*
X150321629Y-108499592D01*
X150321270Y-108486732D01*
X150321255Y-108486616D01*
X150318503Y-108389113D01*
X150318512Y-108388995D01*
X150318159Y-108376607D01*
X150318160Y-108376606D01*
X150317004Y-108335996D01*
X150315901Y-108296922D01*
X150315900Y-108296920D01*
X150315536Y-108284018D01*
X150315519Y-108283896D01*
X150312747Y-108186500D01*
X150312757Y-108186378D01*
X150311247Y-108133800D01*
X150311246Y-108133768D01*
X150311120Y-108129342D01*
X150310123Y-108094301D01*
X150310122Y-108094298D01*
X150309787Y-108082532D01*
X150309772Y-108082406D01*
X150306988Y-107985445D01*
X150306999Y-107985320D01*
X150305416Y-107930669D01*
X150305415Y-107930634D01*
X150304319Y-107892428D01*
X150304309Y-107892073D01*
X150304308Y-107892071D01*
X150303956Y-107879796D01*
X150303940Y-107879678D01*
X150301155Y-107783464D01*
X150301166Y-107783343D01*
X150299609Y-107730023D01*
X150299608Y-107729987D01*
X150298110Y-107678213D01*
X150298093Y-107678082D01*
X150295306Y-107582599D01*
X150295316Y-107582462D01*
X150293720Y-107528260D01*
X150293719Y-107528223D01*
X150293672Y-107526618D01*
X150292608Y-107490139D01*
X150292607Y-107490137D01*
X150292232Y-107477272D01*
X150292215Y-107477139D01*
X150289449Y-107383159D01*
X150289459Y-107383018D01*
X150287827Y-107328052D01*
X150287826Y-107328016D01*
X150286361Y-107278215D01*
X150286341Y-107278068D01*
X150283616Y-107186294D01*
X150283626Y-107186152D01*
X150282077Y-107134484D01*
X150282076Y-107134444D01*
X150280515Y-107081860D01*
X150280495Y-107081708D01*
X150277797Y-106991705D01*
X150277808Y-106991571D01*
X150277406Y-106978286D01*
X150277407Y-106978285D01*
X150276190Y-106938042D01*
X150275008Y-106898612D01*
X150275007Y-106898611D01*
X150274636Y-106886206D01*
X150274617Y-106886061D01*
X150272613Y-106819819D01*
X150271969Y-106798510D01*
X150271980Y-106798357D01*
X150270383Y-106746064D01*
X150270382Y-106746026D01*
X150268787Y-106693307D01*
X150268765Y-106693146D01*
X150266163Y-106607928D01*
X150266175Y-106607764D01*
X150264543Y-106554870D01*
X150264542Y-106554832D01*
X150264370Y-106549227D01*
X150263349Y-106515782D01*
X150263348Y-106515780D01*
X150262966Y-106503279D01*
X150262945Y-106503116D01*
X150260487Y-106423470D01*
X150260416Y-106421178D01*
X150260429Y-106421006D01*
X150258663Y-106364355D01*
X150258662Y-106364317D01*
X150258498Y-106359036D01*
X150257567Y-106328835D01*
X150257566Y-106328833D01*
X150257195Y-106316816D01*
X150257175Y-106316657D01*
X150254722Y-106237998D01*
X150254735Y-106237815D01*
X150253543Y-106200003D01*
X150253079Y-106185301D01*
X150253091Y-106185256D01*
X150253078Y-106185257D01*
X150251833Y-106145318D01*
X150251832Y-106145317D01*
X150251462Y-106133430D01*
X150251437Y-106133241D01*
X150249071Y-106058234D01*
X150249086Y-106058039D01*
X150247311Y-106002392D01*
X150247310Y-106002346D01*
X150245754Y-105953015D01*
X150245728Y-105952826D01*
X150243470Y-105882024D01*
X150243485Y-105881811D01*
X150241791Y-105829406D01*
X150241789Y-105829349D01*
X150240130Y-105777309D01*
X150240101Y-105777096D01*
X150237961Y-105710831D01*
X150237975Y-105710615D01*
X150237573Y-105698344D01*
X150237574Y-105698343D01*
X150236323Y-105660122D01*
X150236333Y-105660122D01*
X150236321Y-105660069D01*
X150235156Y-105624000D01*
X150234985Y-105618706D01*
X150234984Y-105618705D01*
X150234596Y-105606679D01*
X150234566Y-105606446D01*
X150232541Y-105544593D01*
X150232557Y-105544347D01*
X150232144Y-105531903D01*
X150232145Y-105531901D01*
X150231086Y-105500000D01*
X152500000Y-105500000D01*
X152500000Y-103300000D01*
X150200500Y-103258937D01*
X150200500Y-96850000D01*
X152500000Y-96850000D01*
X152500000Y-96723996D01*
X153044500Y-96723996D01*
X153044500Y-102676008D01*
X153048054Y-102709055D01*
X153059260Y-102760566D01*
X153093686Y-102829342D01*
X153139436Y-102882139D01*
X153144422Y-102887623D01*
X153202821Y-102923220D01*
X153213150Y-102929516D01*
X153280189Y-102949201D01*
X153324000Y-102955500D01*
X153324003Y-102955500D01*
X153951601Y-102955500D01*
X154018640Y-102975185D01*
X154064395Y-103027989D01*
X154071373Y-103047400D01*
X154077381Y-103069819D01*
X154088719Y-103112136D01*
X154106210Y-103142431D01*
X154164485Y-103243365D01*
X154183389Y-103262269D01*
X153300000Y-103250000D01*
X153300000Y-105500000D01*
X154622222Y-105160000D01*
X155699989Y-105160000D01*
X155700000Y-105160000D01*
X155788855Y-105157974D01*
X155962705Y-105121136D01*
X156125142Y-105049060D01*
X156269110Y-104944877D01*
X156388354Y-104813114D01*
X156461703Y-104686990D01*
X156800000Y-104600000D01*
X156900000Y-103300000D01*
X155054511Y-103274368D01*
X155085515Y-103243365D01*
X155161281Y-103112135D01*
X155178625Y-103047405D01*
X155214989Y-102987747D01*
X155277835Y-102957217D01*
X155298399Y-102955500D01*
X156975991Y-102955500D01*
X156976000Y-102955500D01*
X157009055Y-102951946D01*
X157060566Y-102940740D01*
X157129342Y-102906313D01*
X157182146Y-102860558D01*
X157187621Y-102855580D01*
X157229516Y-102786850D01*
X157249201Y-102719811D01*
X157255500Y-102676000D01*
X157255500Y-101976835D01*
X157275185Y-101909796D01*
X157327989Y-101864041D01*
X157397147Y-101854097D01*
X157460703Y-101883122D01*
X157489982Y-101920536D01*
X157542427Y-102023465D01*
X157542428Y-102023466D01*
X157542431Y-102023470D01*
X157626529Y-102107568D01*
X157626533Y-102107571D01*
X157626535Y-102107573D01*
X157732518Y-102161574D01*
X157732520Y-102161574D01*
X157732522Y-102161575D01*
X157849997Y-102180181D01*
X157850000Y-102180181D01*
X157850003Y-102180181D01*
X157967477Y-102161575D01*
X157967478Y-102161575D01*
X157967479Y-102161574D01*
X157967482Y-102161574D01*
X158073465Y-102107573D01*
X158157573Y-102023465D01*
X158211574Y-101917482D01*
X158212261Y-101913145D01*
X158230181Y-101800003D01*
X158230181Y-101799996D01*
X158211575Y-101682522D01*
X158211575Y-101682521D01*
X158211574Y-101682519D01*
X158211574Y-101682518D01*
X158157573Y-101576535D01*
X158157571Y-101576533D01*
X158157568Y-101576529D01*
X158073470Y-101492431D01*
X158073466Y-101492428D01*
X158073465Y-101492427D01*
X157967482Y-101438426D01*
X157967481Y-101438425D01*
X157967478Y-101438424D01*
X157879259Y-101424452D01*
X157858558Y-101414639D01*
X157845740Y-101420493D01*
X157732521Y-101438424D01*
X157626533Y-101492428D01*
X157626529Y-101492431D01*
X157542431Y-101576529D01*
X157542429Y-101576533D01*
X157542427Y-101576535D01*
X157497036Y-101665620D01*
X157489985Y-101679459D01*
X157442010Y-101730255D01*
X157374189Y-101747050D01*
X157308054Y-101724513D01*
X157264603Y-101669797D01*
X157255500Y-101623164D01*
X157255500Y-100864569D01*
X157274164Y-100801008D01*
X157480080Y-100801008D01*
X157498477Y-100829634D01*
X157501973Y-100845172D01*
X157513424Y-100917477D01*
X157513424Y-100917478D01*
X157567428Y-101023466D01*
X157567431Y-101023470D01*
X157651529Y-101107568D01*
X157651533Y-101107571D01*
X157651535Y-101107573D01*
X157757518Y-101161574D01*
X157757520Y-101161574D01*
X157757522Y-101161575D01*
X157845739Y-101175547D01*
X157866439Y-101185360D01*
X157879255Y-101179506D01*
X157992482Y-101161574D01*
X158098465Y-101107573D01*
X158182573Y-101023465D01*
X158236574Y-100917482D01*
X158239118Y-100901419D01*
X158255181Y-100800003D01*
X158255181Y-100799996D01*
X158236575Y-100682522D01*
X158236575Y-100682521D01*
X158236574Y-100682519D01*
X158236574Y-100682518D01*
X158182573Y-100576535D01*
X158182571Y-100576533D01*
X158182568Y-100576529D01*
X158098470Y-100492431D01*
X158098466Y-100492428D01*
X158098465Y-100492427D01*
X157992482Y-100438426D01*
X157992481Y-100438425D01*
X157992478Y-100438424D01*
X157879259Y-100420493D01*
X157867065Y-100414712D01*
X157845740Y-100424452D01*
X157757522Y-100438424D01*
X157757521Y-100438424D01*
X157651533Y-100492428D01*
X157651529Y-100492431D01*
X157567431Y-100576529D01*
X157567428Y-100576533D01*
X157513424Y-100682521D01*
X157513424Y-100682522D01*
X157501973Y-100754827D01*
X157480080Y-100801008D01*
X157274164Y-100801008D01*
X157275185Y-100797530D01*
X157276377Y-100796496D01*
X157256523Y-100751323D01*
X157255500Y-100735430D01*
X157255500Y-99976835D01*
X157275185Y-99909796D01*
X157327989Y-99864041D01*
X157397147Y-99854097D01*
X157460703Y-99883122D01*
X157489982Y-99920536D01*
X157542427Y-100023465D01*
X157542428Y-100023466D01*
X157542431Y-100023470D01*
X157626529Y-100107568D01*
X157626533Y-100107571D01*
X157626535Y-100107573D01*
X157732518Y-100161574D01*
X157845742Y-100179506D01*
X157857933Y-100185286D01*
X157879260Y-100175547D01*
X157967477Y-100161575D01*
X157967478Y-100161575D01*
X157967479Y-100161574D01*
X157967482Y-100161574D01*
X158073465Y-100107573D01*
X158157573Y-100023465D01*
X158211574Y-99917482D01*
X158212344Y-99912621D01*
X158230181Y-99800003D01*
X158230181Y-99799996D01*
X158211575Y-99682522D01*
X158211575Y-99682521D01*
X158211574Y-99682519D01*
X158211574Y-99682518D01*
X158157573Y-99576535D01*
X158157571Y-99576533D01*
X158157568Y-99576529D01*
X158073470Y-99492431D01*
X158073466Y-99492428D01*
X158073465Y-99492427D01*
X157967482Y-99438426D01*
X157967480Y-99438425D01*
X157967477Y-99438424D01*
X157866760Y-99422473D01*
X157850312Y-99414676D01*
X157833240Y-99422473D01*
X157732521Y-99438424D01*
X157626533Y-99492428D01*
X157626529Y-99492431D01*
X157542431Y-99576529D01*
X157542429Y-99576533D01*
X157542427Y-99576535D01*
X157489985Y-99679459D01*
X157442010Y-99730255D01*
X157374189Y-99747050D01*
X157308054Y-99724513D01*
X157264603Y-99669797D01*
X157255500Y-99623164D01*
X157255500Y-98976835D01*
X157275185Y-98909796D01*
X157327989Y-98864041D01*
X157397147Y-98854097D01*
X157460703Y-98883122D01*
X157489982Y-98920536D01*
X157542427Y-99023465D01*
X157542428Y-99023466D01*
X157542431Y-99023470D01*
X157626529Y-99107568D01*
X157626533Y-99107571D01*
X157626535Y-99107573D01*
X157732518Y-99161574D01*
X157732519Y-99161574D01*
X157732521Y-99161575D01*
X157833240Y-99177527D01*
X157849686Y-99185323D01*
X157866760Y-99177527D01*
X157967477Y-99161575D01*
X157967478Y-99161575D01*
X157967479Y-99161574D01*
X157967482Y-99161574D01*
X158073465Y-99107573D01*
X158157573Y-99023465D01*
X158211574Y-98917482D01*
X158211575Y-98917477D01*
X158230181Y-98800003D01*
X158230181Y-98799996D01*
X158211575Y-98682522D01*
X158211575Y-98682521D01*
X158211574Y-98682519D01*
X158211574Y-98682518D01*
X158157573Y-98576535D01*
X158157571Y-98576533D01*
X158157568Y-98576529D01*
X158148220Y-98567181D01*
X158114735Y-98505858D01*
X158119719Y-98436166D01*
X158161591Y-98380233D01*
X158227055Y-98355816D01*
X158235901Y-98355500D01*
X160348638Y-98355500D01*
X160365261Y-98354609D01*
X160391619Y-98351775D01*
X160449519Y-98333645D01*
X160510842Y-98300160D01*
X160546274Y-98273636D01*
X161423636Y-97396274D01*
X161434761Y-97383889D01*
X161451395Y-97363247D01*
X161479516Y-97309488D01*
X161499201Y-97242449D01*
X161505500Y-97198638D01*
X161505500Y-96098691D01*
X161525185Y-96031652D01*
X161577989Y-95985897D01*
X161647147Y-95975953D01*
X161664434Y-95979714D01*
X161735225Y-96000499D01*
X161735227Y-96000500D01*
X161735228Y-96000500D01*
X161864773Y-96000500D01*
X161864773Y-96000499D01*
X161919081Y-95984553D01*
X161989064Y-95964006D01*
X161989065Y-95964005D01*
X161989069Y-95964004D01*
X162053463Y-95922620D01*
X162120500Y-95902937D01*
X162187540Y-95922622D01*
X162233294Y-95975426D01*
X162244500Y-96026937D01*
X162244500Y-98926008D01*
X162248054Y-98959055D01*
X162259260Y-99010566D01*
X162293686Y-99079342D01*
X162339436Y-99132139D01*
X162344422Y-99137623D01*
X162383717Y-99161575D01*
X162413150Y-99179516D01*
X162480189Y-99199201D01*
X162524000Y-99205500D01*
X162820500Y-99205500D01*
X162887539Y-99225185D01*
X162933294Y-99277989D01*
X162944500Y-99329500D01*
X162944500Y-108048812D01*
X162945372Y-108065247D01*
X162948149Y-108091343D01*
X162948150Y-108091345D01*
X162966131Y-108149109D01*
X162997203Y-108206313D01*
X162999479Y-108210503D01*
X163025925Y-108245995D01*
X163025926Y-108245996D01*
X163863058Y-109086854D01*
X163949019Y-109173197D01*
X163961515Y-109184458D01*
X163965434Y-109187623D01*
X163982349Y-109201285D01*
X163982350Y-109201286D01*
X163982352Y-109201287D01*
X164036244Y-109229516D01*
X164103283Y-109249201D01*
X164147094Y-109255500D01*
X164147097Y-109255500D01*
X172875991Y-109255500D01*
X172876000Y-109255500D01*
X172909055Y-109251946D01*
X172960566Y-109240740D01*
X173029342Y-109206313D01*
X173082146Y-109160558D01*
X173087621Y-109155580D01*
X173129516Y-109086850D01*
X173149201Y-109019811D01*
X173155500Y-108976000D01*
X173155500Y-105624000D01*
X173151946Y-105590945D01*
X173140740Y-105539434D01*
X173123545Y-105505084D01*
X173106313Y-105470657D01*
X173060563Y-105417860D01*
X173055577Y-105412376D01*
X172986854Y-105370486D01*
X172986848Y-105370483D01*
X172919812Y-105350799D01*
X172919802Y-105350797D01*
X172876003Y-105344500D01*
X172876000Y-105344500D01*
X172652612Y-105344500D01*
X172585573Y-105324815D01*
X172564071Y-105310996D01*
X172564066Y-105310994D01*
X172439774Y-105274500D01*
X172439772Y-105274500D01*
X172310228Y-105274500D01*
X172310226Y-105274500D01*
X172185933Y-105310994D01*
X172185928Y-105310996D01*
X172164427Y-105324815D01*
X172097388Y-105344500D01*
X171151362Y-105344500D01*
X171134754Y-105345390D01*
X171134745Y-105345390D01*
X171134739Y-105345391D01*
X171134733Y-105345391D01*
X171134702Y-105345394D01*
X171108380Y-105348224D01*
X171108378Y-105348225D01*
X171050483Y-105366354D01*
X171050473Y-105366358D01*
X170989163Y-105399836D01*
X170989155Y-105399841D01*
X170953733Y-105426357D01*
X170953715Y-105426373D01*
X170371909Y-106008181D01*
X170310586Y-106041666D01*
X170284228Y-106044500D01*
X168226829Y-106044500D01*
X168159790Y-106024815D01*
X168133510Y-106002155D01*
X168017521Y-105869596D01*
X167518423Y-105299200D01*
X167518386Y-105299158D01*
X167516688Y-105297250D01*
X167513849Y-105294115D01*
X167513807Y-105294069D01*
X167511984Y-105292091D01*
X167448922Y-105224825D01*
X167354396Y-105123996D01*
X167354396Y-105123997D01*
X166839037Y-104574279D01*
X166807547Y-104511908D01*
X166805500Y-104489470D01*
X166805500Y-103385258D01*
X167499500Y-103385258D01*
X167499500Y-103614741D01*
X167521590Y-103782521D01*
X167529452Y-103842238D01*
X167545451Y-103901946D01*
X167588842Y-104063887D01*
X167676650Y-104275876D01*
X167676657Y-104275890D01*
X167697722Y-104312376D01*
X167780263Y-104455342D01*
X167791392Y-104474617D01*
X167931081Y-104656661D01*
X167931089Y-104656670D01*
X168093330Y-104818911D01*
X168093338Y-104818918D01*
X168093339Y-104818919D01*
X168143962Y-104857764D01*
X168275382Y-104958607D01*
X168275385Y-104958608D01*
X168275388Y-104958611D01*
X168474112Y-105073344D01*
X168474117Y-105073346D01*
X168474123Y-105073349D01*
X168565480Y-105111190D01*
X168686113Y-105161158D01*
X168907762Y-105220548D01*
X169135266Y-105250500D01*
X169135273Y-105250500D01*
X169364727Y-105250500D01*
X169364734Y-105250500D01*
X169592238Y-105220548D01*
X169813887Y-105161158D01*
X170025888Y-105073344D01*
X170224612Y-104958611D01*
X170406661Y-104818919D01*
X170406665Y-104818914D01*
X170406670Y-104818911D01*
X170568911Y-104656670D01*
X170568914Y-104656665D01*
X170568919Y-104656661D01*
X170708611Y-104474612D01*
X170823344Y-104275888D01*
X170911158Y-104063887D01*
X170970548Y-103842238D01*
X171000500Y-103614734D01*
X171000500Y-103385266D01*
X170989274Y-103300000D01*
X174994867Y-103300000D01*
X175013302Y-103428225D01*
X175062598Y-103536166D01*
X175067118Y-103546063D01*
X175151951Y-103643967D01*
X175260931Y-103714004D01*
X175338753Y-103736854D01*
X175385225Y-103750499D01*
X175385227Y-103750500D01*
X175385228Y-103750500D01*
X175514773Y-103750500D01*
X175514773Y-103750499D01*
X175639069Y-103714004D01*
X175748049Y-103643967D01*
X175832882Y-103546063D01*
X175886697Y-103428226D01*
X175905133Y-103300000D01*
X176794867Y-103300000D01*
X176813302Y-103428225D01*
X176862598Y-103536166D01*
X176867118Y-103546063D01*
X176951951Y-103643967D01*
X177060931Y-103714004D01*
X177138753Y-103736854D01*
X177185225Y-103750499D01*
X177185227Y-103750500D01*
X177185228Y-103750500D01*
X177314773Y-103750500D01*
X177314773Y-103750499D01*
X177439069Y-103714004D01*
X177548049Y-103643967D01*
X177632882Y-103546063D01*
X177676755Y-103449996D01*
X182519819Y-103449996D01*
X182519819Y-103450003D01*
X182538424Y-103567477D01*
X182538424Y-103567478D01*
X182538425Y-103567481D01*
X182538426Y-103567482D01*
X182590565Y-103669811D01*
X182592428Y-103673466D01*
X182592431Y-103673470D01*
X182676529Y-103757568D01*
X182676533Y-103757571D01*
X182676535Y-103757573D01*
X182782518Y-103811574D01*
X182782520Y-103811574D01*
X182782522Y-103811575D01*
X182899997Y-103830181D01*
X182900000Y-103830181D01*
X182900003Y-103830181D01*
X183017477Y-103811575D01*
X183017478Y-103811575D01*
X183017479Y-103811574D01*
X183017482Y-103811574D01*
X183123465Y-103757573D01*
X183207573Y-103673465D01*
X183261574Y-103567482D01*
X183261575Y-103567477D01*
X183280181Y-103450003D01*
X183280181Y-103449996D01*
X183261575Y-103332522D01*
X183261575Y-103332521D01*
X183261574Y-103332519D01*
X183261574Y-103332518D01*
X183207573Y-103226535D01*
X183207571Y-103226533D01*
X183207568Y-103226529D01*
X183123470Y-103142431D01*
X183123466Y-103142428D01*
X183123465Y-103142427D01*
X183017482Y-103088426D01*
X183017480Y-103088425D01*
X183017477Y-103088424D01*
X182900003Y-103069819D01*
X182899997Y-103069819D01*
X182782522Y-103088424D01*
X182782521Y-103088424D01*
X182676533Y-103142428D01*
X182676529Y-103142431D01*
X182592431Y-103226529D01*
X182592428Y-103226533D01*
X182538424Y-103332521D01*
X182538424Y-103332522D01*
X182519819Y-103449996D01*
X177676755Y-103449996D01*
X177686697Y-103428226D01*
X177705133Y-103300000D01*
X177686697Y-103171774D01*
X177632882Y-103053937D01*
X177548049Y-102956033D01*
X177439069Y-102885996D01*
X177439065Y-102885994D01*
X177439064Y-102885994D01*
X177314774Y-102849500D01*
X177314772Y-102849500D01*
X177185228Y-102849500D01*
X177185226Y-102849500D01*
X177060935Y-102885994D01*
X177060932Y-102885995D01*
X177060931Y-102885996D01*
X177047358Y-102894719D01*
X176951950Y-102956033D01*
X176867118Y-103053937D01*
X176867117Y-103053938D01*
X176813302Y-103171774D01*
X176794867Y-103300000D01*
X175905133Y-103300000D01*
X175886697Y-103171774D01*
X175832882Y-103053937D01*
X175748049Y-102956033D01*
X175639069Y-102885996D01*
X175639065Y-102885994D01*
X175639064Y-102885994D01*
X175514774Y-102849500D01*
X175514772Y-102849500D01*
X175385228Y-102849500D01*
X175385226Y-102849500D01*
X175260935Y-102885994D01*
X175260932Y-102885995D01*
X175260931Y-102885996D01*
X175247358Y-102894719D01*
X175151950Y-102956033D01*
X175067118Y-103053937D01*
X175067117Y-103053938D01*
X175013302Y-103171774D01*
X174994867Y-103300000D01*
X170989274Y-103300000D01*
X170970548Y-103157762D01*
X170911158Y-102936113D01*
X170851307Y-102791621D01*
X170823349Y-102724123D01*
X170823346Y-102724117D01*
X170823344Y-102724112D01*
X170708611Y-102525388D01*
X170708608Y-102525385D01*
X170708607Y-102525382D01*
X170579768Y-102357478D01*
X170568919Y-102343339D01*
X170568918Y-102343338D01*
X170568911Y-102343330D01*
X170465577Y-102239996D01*
X179919819Y-102239996D01*
X179919819Y-102240003D01*
X179938424Y-102357477D01*
X179938424Y-102357478D01*
X179938425Y-102357481D01*
X179938426Y-102357482D01*
X179992266Y-102463150D01*
X179992428Y-102463466D01*
X179992431Y-102463470D01*
X180076529Y-102547568D01*
X180076533Y-102547571D01*
X180076535Y-102547573D01*
X180182518Y-102601574D01*
X180182520Y-102601574D01*
X180182522Y-102601575D01*
X180299997Y-102620181D01*
X180300000Y-102620181D01*
X180300003Y-102620181D01*
X180417477Y-102601575D01*
X180417478Y-102601575D01*
X180417479Y-102601574D01*
X180417482Y-102601574D01*
X180523465Y-102547573D01*
X180607573Y-102463465D01*
X180661574Y-102357482D01*
X180663814Y-102343338D01*
X180670679Y-102299996D01*
X180969819Y-102299996D01*
X180969819Y-102300003D01*
X180988424Y-102417477D01*
X180988424Y-102417478D01*
X180988425Y-102417481D01*
X180988426Y-102417482D01*
X181034303Y-102507521D01*
X181042428Y-102523466D01*
X181042431Y-102523470D01*
X181126529Y-102607568D01*
X181126533Y-102607571D01*
X181126535Y-102607573D01*
X181232518Y-102661574D01*
X181232520Y-102661574D01*
X181232522Y-102661575D01*
X181349997Y-102680181D01*
X181350000Y-102680181D01*
X181350003Y-102680181D01*
X181467477Y-102661575D01*
X181467478Y-102661575D01*
X181467479Y-102661574D01*
X181467482Y-102661574D01*
X181573465Y-102607573D01*
X181657573Y-102523465D01*
X181711574Y-102417482D01*
X181714330Y-102400084D01*
X181730181Y-102300003D01*
X181730181Y-102299996D01*
X182519819Y-102299996D01*
X182519819Y-102300003D01*
X182538424Y-102417477D01*
X182538424Y-102417478D01*
X182538425Y-102417481D01*
X182538426Y-102417482D01*
X182584303Y-102507521D01*
X182592428Y-102523466D01*
X182592431Y-102523470D01*
X182676529Y-102607568D01*
X182676533Y-102607571D01*
X182676535Y-102607573D01*
X182782518Y-102661574D01*
X182782520Y-102661574D01*
X182782522Y-102661575D01*
X182899997Y-102680181D01*
X182900000Y-102680181D01*
X182900003Y-102680181D01*
X183017477Y-102661575D01*
X183017478Y-102661575D01*
X183017479Y-102661574D01*
X183017482Y-102661574D01*
X183089270Y-102624996D01*
X183519819Y-102624996D01*
X183519819Y-102625003D01*
X183538424Y-102742477D01*
X183538424Y-102742478D01*
X183538425Y-102742481D01*
X183538426Y-102742482D01*
X183582683Y-102829342D01*
X183592428Y-102848466D01*
X183592431Y-102848470D01*
X183676529Y-102932568D01*
X183676533Y-102932571D01*
X183676535Y-102932573D01*
X183782518Y-102986574D01*
X183782520Y-102986574D01*
X183782522Y-102986575D01*
X183899997Y-103005181D01*
X183900000Y-103005181D01*
X183900003Y-103005181D01*
X184017477Y-102986575D01*
X184017478Y-102986575D01*
X184017479Y-102986574D01*
X184017482Y-102986574D01*
X184123465Y-102932573D01*
X184126525Y-102929513D01*
X184132819Y-102923220D01*
X184194142Y-102889735D01*
X184263834Y-102894719D01*
X184319767Y-102936591D01*
X184344184Y-103002055D01*
X184344500Y-103010901D01*
X184344500Y-103626008D01*
X184348054Y-103659055D01*
X184359260Y-103710566D01*
X184393686Y-103779342D01*
X184439436Y-103832139D01*
X184444422Y-103837623D01*
X184513145Y-103879513D01*
X184513150Y-103879516D01*
X184580189Y-103899201D01*
X184624000Y-103905500D01*
X184624003Y-103905500D01*
X185425991Y-103905500D01*
X185426000Y-103905500D01*
X185459055Y-103901946D01*
X185510566Y-103890740D01*
X185579342Y-103856313D01*
X185632146Y-103810558D01*
X185637621Y-103805580D01*
X185679516Y-103736850D01*
X185699201Y-103669811D01*
X185705500Y-103626000D01*
X185705500Y-102574000D01*
X185701946Y-102540945D01*
X185690740Y-102489434D01*
X185665852Y-102439714D01*
X185656313Y-102420657D01*
X185610563Y-102367860D01*
X185605577Y-102362376D01*
X185536854Y-102320486D01*
X185536848Y-102320483D01*
X185469812Y-102300799D01*
X185469802Y-102300797D01*
X185426003Y-102294500D01*
X185426000Y-102294500D01*
X184624000Y-102294500D01*
X184623991Y-102294500D01*
X184590944Y-102298054D01*
X184539433Y-102309260D01*
X184470657Y-102343686D01*
X184417860Y-102389436D01*
X184412376Y-102394422D01*
X184406733Y-102401258D01*
X184405311Y-102400084D01*
X184361703Y-102439714D01*
X184292799Y-102451289D01*
X184228575Y-102423773D01*
X184209278Y-102403239D01*
X184123470Y-102317431D01*
X184123466Y-102317428D01*
X184123465Y-102317427D01*
X184017482Y-102263426D01*
X184017480Y-102263425D01*
X184017477Y-102263424D01*
X183900003Y-102244819D01*
X183899997Y-102244819D01*
X183782522Y-102263424D01*
X183782521Y-102263424D01*
X183676533Y-102317428D01*
X183676529Y-102317431D01*
X183592431Y-102401529D01*
X183592428Y-102401533D01*
X183538424Y-102507521D01*
X183538424Y-102507522D01*
X183519819Y-102624996D01*
X183089270Y-102624996D01*
X183123465Y-102607573D01*
X183207573Y-102523465D01*
X183261574Y-102417482D01*
X183264330Y-102400084D01*
X183280181Y-102300003D01*
X183280181Y-102299996D01*
X183261575Y-102182522D01*
X183261575Y-102182521D01*
X183261574Y-102182519D01*
X183261574Y-102182518D01*
X183207573Y-102076535D01*
X183207571Y-102076533D01*
X183207568Y-102076529D01*
X183155035Y-102023996D01*
X191544500Y-102023996D01*
X191544500Y-102748638D01*
X191545390Y-102765245D01*
X191545394Y-102765297D01*
X191548224Y-102791619D01*
X191548225Y-102791621D01*
X191566354Y-102849516D01*
X191566358Y-102849526D01*
X191599836Y-102910836D01*
X191599841Y-102910844D01*
X191626357Y-102946266D01*
X191626373Y-102946284D01*
X191851864Y-103171774D01*
X192053726Y-103373636D01*
X192053740Y-103373649D01*
X192053751Y-103373659D01*
X192066089Y-103384742D01*
X192066099Y-103384750D01*
X192066111Y-103384761D01*
X192080430Y-103396300D01*
X192120279Y-103453689D01*
X192122775Y-103523515D01*
X192087124Y-103583604D01*
X192077096Y-103591864D01*
X191992431Y-103676529D01*
X191992428Y-103676533D01*
X191938424Y-103782521D01*
X191938424Y-103782522D01*
X191919819Y-103899996D01*
X191919819Y-103900003D01*
X191938424Y-104017477D01*
X191938424Y-104017478D01*
X191992428Y-104123466D01*
X191992431Y-104123470D01*
X192031280Y-104162319D01*
X192064765Y-104223642D01*
X192059781Y-104293334D01*
X192031280Y-104337681D01*
X191992431Y-104376529D01*
X191992428Y-104376533D01*
X191938424Y-104482521D01*
X191938424Y-104482522D01*
X191919819Y-104599996D01*
X191919819Y-104600003D01*
X191938424Y-104717477D01*
X191938424Y-104717478D01*
X191938425Y-104717481D01*
X191938426Y-104717482D01*
X191990569Y-104819819D01*
X191992428Y-104823466D01*
X191992431Y-104823470D01*
X192076529Y-104907568D01*
X192076533Y-104907571D01*
X192076535Y-104907573D01*
X192182518Y-104961574D01*
X192182520Y-104961574D01*
X192182522Y-104961575D01*
X192299997Y-104980181D01*
X192300000Y-104980181D01*
X192300003Y-104980181D01*
X192417477Y-104961575D01*
X192417478Y-104961575D01*
X192417479Y-104961574D01*
X192417482Y-104961574D01*
X192523465Y-104907573D01*
X192607573Y-104823465D01*
X192661574Y-104717482D01*
X192665655Y-104691716D01*
X192680181Y-104600003D01*
X192680181Y-104599996D01*
X192661575Y-104482522D01*
X192661575Y-104482521D01*
X192661574Y-104482519D01*
X192661574Y-104482518D01*
X192607573Y-104376535D01*
X192607571Y-104376533D01*
X192607568Y-104376529D01*
X192568720Y-104337681D01*
X192535235Y-104276358D01*
X192540219Y-104206666D01*
X192568720Y-104162319D01*
X192607568Y-104123470D01*
X192607573Y-104123465D01*
X192661574Y-104017482D01*
X192679310Y-103905500D01*
X192680181Y-103900003D01*
X192680181Y-103899996D01*
X192661575Y-103782522D01*
X192661575Y-103782521D01*
X192661574Y-103782519D01*
X192661574Y-103782518D01*
X192607573Y-103676535D01*
X192607571Y-103676533D01*
X192607568Y-103676529D01*
X192598220Y-103667181D01*
X192564735Y-103605858D01*
X192569719Y-103536166D01*
X192611591Y-103480233D01*
X192677055Y-103455816D01*
X192685901Y-103455500D01*
X195175991Y-103455500D01*
X195176000Y-103455500D01*
X195209055Y-103451946D01*
X195260566Y-103440740D01*
X195329342Y-103406313D01*
X195382146Y-103360558D01*
X195387621Y-103355580D01*
X195390709Y-103350515D01*
X195421500Y-103300000D01*
X195429516Y-103286850D01*
X195449201Y-103219811D01*
X195455500Y-103176000D01*
X195455500Y-102024000D01*
X195451946Y-101990945D01*
X195440740Y-101939434D01*
X195412552Y-101883122D01*
X195406313Y-101870657D01*
X195360563Y-101817860D01*
X195355577Y-101812376D01*
X195286854Y-101770486D01*
X195286848Y-101770483D01*
X195219812Y-101750799D01*
X195219802Y-101750797D01*
X195176003Y-101744500D01*
X195176000Y-101744500D01*
X194879500Y-101744500D01*
X194812461Y-101724815D01*
X194766706Y-101672011D01*
X194755500Y-101620500D01*
X194755500Y-97524008D01*
X194755499Y-97523996D01*
X194751946Y-97490945D01*
X194740740Y-97439434D01*
X194712252Y-97382522D01*
X194706313Y-97370657D01*
X194660563Y-97317860D01*
X194655577Y-97312376D01*
X194586854Y-97270486D01*
X194586848Y-97270483D01*
X194519812Y-97250799D01*
X194519802Y-97250797D01*
X194476003Y-97244500D01*
X194476000Y-97244500D01*
X193324000Y-97244500D01*
X193323991Y-97244500D01*
X193290944Y-97248054D01*
X193239433Y-97259260D01*
X193170657Y-97293686D01*
X193117860Y-97339436D01*
X193112376Y-97344422D01*
X193070486Y-97413145D01*
X193070483Y-97413151D01*
X193050799Y-97480187D01*
X193050797Y-97480197D01*
X193044500Y-97523996D01*
X193044500Y-101620500D01*
X193024815Y-101687539D01*
X192972011Y-101733294D01*
X192920500Y-101744500D01*
X191823991Y-101744500D01*
X191790944Y-101748054D01*
X191739433Y-101759260D01*
X191670657Y-101793686D01*
X191617860Y-101839436D01*
X191612376Y-101844422D01*
X191570486Y-101913145D01*
X191570483Y-101913151D01*
X191550799Y-101980187D01*
X191550797Y-101980197D01*
X191544500Y-102023996D01*
X183155035Y-102023996D01*
X183123470Y-101992431D01*
X183123466Y-101992428D01*
X183123465Y-101992427D01*
X183017482Y-101938426D01*
X183017480Y-101938425D01*
X183017477Y-101938424D01*
X182900003Y-101919819D01*
X182899997Y-101919819D01*
X182782522Y-101938424D01*
X182782521Y-101938424D01*
X182676533Y-101992428D01*
X182676529Y-101992431D01*
X182592431Y-102076529D01*
X182592428Y-102076533D01*
X182538424Y-102182521D01*
X182538424Y-102182522D01*
X182519819Y-102299996D01*
X181730181Y-102299996D01*
X181711575Y-102182522D01*
X181711575Y-102182521D01*
X181711574Y-102182519D01*
X181711574Y-102182518D01*
X181657573Y-102076535D01*
X181657571Y-102076533D01*
X181657568Y-102076529D01*
X181573470Y-101992431D01*
X181573466Y-101992428D01*
X181573465Y-101992427D01*
X181467482Y-101938426D01*
X181467480Y-101938425D01*
X181467477Y-101938424D01*
X181350003Y-101919819D01*
X181349997Y-101919819D01*
X181232522Y-101938424D01*
X181232521Y-101938424D01*
X181126533Y-101992428D01*
X181126529Y-101992431D01*
X181042431Y-102076529D01*
X181042428Y-102076533D01*
X180988424Y-102182521D01*
X180988424Y-102182522D01*
X180969819Y-102299996D01*
X180670679Y-102299996D01*
X180680181Y-102240003D01*
X180680181Y-102239996D01*
X180661575Y-102122522D01*
X180661575Y-102122521D01*
X180661574Y-102122519D01*
X180661574Y-102122518D01*
X180607573Y-102016535D01*
X180607571Y-102016533D01*
X180607568Y-102016529D01*
X180523470Y-101932431D01*
X180523466Y-101932428D01*
X180523465Y-101932427D01*
X180417482Y-101878426D01*
X180417480Y-101878425D01*
X180417477Y-101878424D01*
X180300003Y-101859819D01*
X180299997Y-101859819D01*
X180182522Y-101878424D01*
X180182521Y-101878424D01*
X180076533Y-101932428D01*
X180076529Y-101932431D01*
X179992431Y-102016529D01*
X179992428Y-102016533D01*
X179938424Y-102122521D01*
X179938424Y-102122522D01*
X179919819Y-102239996D01*
X170465577Y-102239996D01*
X170406670Y-102181089D01*
X170406661Y-102181081D01*
X170224617Y-102041392D01*
X170025890Y-101926657D01*
X170025876Y-101926650D01*
X169813887Y-101838842D01*
X169735580Y-101817860D01*
X169592238Y-101779452D01*
X169554215Y-101774446D01*
X169364741Y-101749500D01*
X169364734Y-101749500D01*
X169135266Y-101749500D01*
X169135258Y-101749500D01*
X168918715Y-101778009D01*
X168907762Y-101779452D01*
X168854636Y-101793687D01*
X168686112Y-101838842D01*
X168474123Y-101926650D01*
X168474109Y-101926657D01*
X168275382Y-102041392D01*
X168093338Y-102181081D01*
X167931081Y-102343338D01*
X167791392Y-102525382D01*
X167676657Y-102724109D01*
X167676650Y-102724123D01*
X167588842Y-102936112D01*
X167529453Y-103157759D01*
X167529451Y-103157770D01*
X167499500Y-103385258D01*
X166805500Y-103385258D01*
X166805500Y-102357673D01*
X166825185Y-102290634D01*
X166837550Y-102274480D01*
X166847552Y-102263426D01*
X167683259Y-101339750D01*
X167691429Y-101329939D01*
X167703794Y-101313785D01*
X167729516Y-101263080D01*
X167749201Y-101196041D01*
X167755500Y-101152230D01*
X167755500Y-99753401D01*
X167775185Y-99686362D01*
X167827989Y-99640607D01*
X167897147Y-99630663D01*
X167960703Y-99659688D01*
X167967181Y-99665720D01*
X167976529Y-99675068D01*
X167976533Y-99675071D01*
X167976535Y-99675073D01*
X168082518Y-99729074D01*
X168082520Y-99729074D01*
X168082522Y-99729075D01*
X168199997Y-99747681D01*
X168200000Y-99747681D01*
X168200003Y-99747681D01*
X168317477Y-99729075D01*
X168317478Y-99729075D01*
X168317479Y-99729074D01*
X168317482Y-99729074D01*
X168423465Y-99675073D01*
X168507573Y-99590965D01*
X168561574Y-99484982D01*
X168569314Y-99436112D01*
X168580181Y-99367503D01*
X168580181Y-99367496D01*
X168561575Y-99250022D01*
X168561575Y-99250021D01*
X168561574Y-99250019D01*
X168561574Y-99250018D01*
X168507573Y-99144035D01*
X168507571Y-99144033D01*
X168507568Y-99144029D01*
X168423470Y-99059931D01*
X168423466Y-99059928D01*
X168423465Y-99059927D01*
X168402012Y-99048996D01*
X170619500Y-99048996D01*
X170619500Y-99701008D01*
X170623054Y-99734055D01*
X170634260Y-99785566D01*
X170668686Y-99854342D01*
X170695740Y-99885563D01*
X170714442Y-99907146D01*
X170719420Y-99912621D01*
X170719422Y-99912623D01*
X170788145Y-99954513D01*
X170788150Y-99954516D01*
X170855189Y-99974201D01*
X170899000Y-99980500D01*
X170899003Y-99980500D01*
X171100991Y-99980500D01*
X171101000Y-99980500D01*
X171134055Y-99976946D01*
X171185566Y-99965740D01*
X171254342Y-99931313D01*
X171307146Y-99885558D01*
X171312621Y-99880580D01*
X171354516Y-99811850D01*
X171357997Y-99799996D01*
X174599819Y-99799996D01*
X174599819Y-99800003D01*
X174618424Y-99917477D01*
X174618424Y-99917478D01*
X174618425Y-99917481D01*
X174618426Y-99917482D01*
X174660563Y-100000181D01*
X174672428Y-100023466D01*
X174672431Y-100023470D01*
X174756529Y-100107568D01*
X174756533Y-100107571D01*
X174756535Y-100107573D01*
X174862518Y-100161574D01*
X174862520Y-100161574D01*
X174862522Y-100161575D01*
X174979997Y-100180181D01*
X174980000Y-100180181D01*
X174980003Y-100180181D01*
X175097477Y-100161575D01*
X175097478Y-100161575D01*
X175097479Y-100161574D01*
X175097482Y-100161574D01*
X175203465Y-100107573D01*
X175287573Y-100023465D01*
X175341574Y-99917482D01*
X175342344Y-99912621D01*
X175360181Y-99800003D01*
X175360181Y-99799996D01*
X175839819Y-99799996D01*
X175839819Y-99800003D01*
X175858424Y-99917477D01*
X175858424Y-99917478D01*
X175858425Y-99917481D01*
X175858426Y-99917482D01*
X175900563Y-100000181D01*
X175912428Y-100023466D01*
X175912431Y-100023470D01*
X175996529Y-100107568D01*
X175996533Y-100107571D01*
X175996535Y-100107573D01*
X176102518Y-100161574D01*
X176102520Y-100161574D01*
X176102522Y-100161575D01*
X176219997Y-100180181D01*
X176220000Y-100180181D01*
X176220003Y-100180181D01*
X176337477Y-100161575D01*
X176337478Y-100161575D01*
X176337479Y-100161574D01*
X176337482Y-100161574D01*
X176443465Y-100107573D01*
X176527573Y-100023465D01*
X176581574Y-99917482D01*
X176582344Y-99912621D01*
X176600181Y-99800003D01*
X176600181Y-99799996D01*
X176581575Y-99682522D01*
X176581575Y-99682521D01*
X176581574Y-99682519D01*
X176581574Y-99682518D01*
X176527573Y-99576535D01*
X176527571Y-99576533D01*
X176527568Y-99576529D01*
X176443470Y-99492431D01*
X176443466Y-99492428D01*
X176443465Y-99492427D01*
X176337482Y-99438426D01*
X176337480Y-99438425D01*
X176337477Y-99438424D01*
X176220003Y-99419819D01*
X176219997Y-99419819D01*
X176102522Y-99438424D01*
X176102521Y-99438424D01*
X175996533Y-99492428D01*
X175996529Y-99492431D01*
X175912431Y-99576529D01*
X175912428Y-99576533D01*
X175858424Y-99682521D01*
X175858424Y-99682522D01*
X175839819Y-99799996D01*
X175360181Y-99799996D01*
X175341575Y-99682522D01*
X175341575Y-99682521D01*
X175341574Y-99682519D01*
X175341574Y-99682518D01*
X175287573Y-99576535D01*
X175287571Y-99576533D01*
X175287568Y-99576529D01*
X175203470Y-99492431D01*
X175203466Y-99492428D01*
X175203465Y-99492427D01*
X175097482Y-99438426D01*
X175097480Y-99438425D01*
X175097477Y-99438424D01*
X174980003Y-99419819D01*
X174979997Y-99419819D01*
X174862522Y-99438424D01*
X174862521Y-99438424D01*
X174756533Y-99492428D01*
X174756529Y-99492431D01*
X174672431Y-99576529D01*
X174672428Y-99576533D01*
X174618424Y-99682521D01*
X174618424Y-99682522D01*
X174599819Y-99799996D01*
X171357997Y-99799996D01*
X171374201Y-99744811D01*
X171380500Y-99701000D01*
X171380500Y-99049000D01*
X171376946Y-99015945D01*
X171365740Y-98964434D01*
X171343768Y-98920540D01*
X171333485Y-98899996D01*
X172794819Y-98899996D01*
X172794819Y-98900003D01*
X172813424Y-99017477D01*
X172813424Y-99017478D01*
X172813425Y-99017481D01*
X172813426Y-99017482D01*
X172864879Y-99118465D01*
X172867428Y-99123466D01*
X172867431Y-99123470D01*
X172951529Y-99207568D01*
X172951533Y-99207571D01*
X172951535Y-99207573D01*
X173057518Y-99261574D01*
X173057520Y-99261574D01*
X173057522Y-99261575D01*
X173174997Y-99280181D01*
X173175000Y-99280181D01*
X173175003Y-99280181D01*
X173292477Y-99261575D01*
X173292478Y-99261575D01*
X173292479Y-99261574D01*
X173292482Y-99261574D01*
X173398465Y-99207573D01*
X173482573Y-99123465D01*
X173536574Y-99017482D01*
X173536575Y-99017477D01*
X173555181Y-98900003D01*
X173555181Y-98899996D01*
X173554389Y-98894996D01*
X175299819Y-98894996D01*
X175299819Y-98895003D01*
X175318424Y-99012477D01*
X175318424Y-99012478D01*
X175318425Y-99012481D01*
X175318426Y-99012482D01*
X175366877Y-99107573D01*
X175372428Y-99118466D01*
X175372431Y-99118470D01*
X175456529Y-99202568D01*
X175456533Y-99202571D01*
X175456535Y-99202573D01*
X175562518Y-99256574D01*
X175562520Y-99256574D01*
X175562522Y-99256575D01*
X175679997Y-99275181D01*
X175680000Y-99275181D01*
X175680003Y-99275181D01*
X175797477Y-99256575D01*
X175797478Y-99256575D01*
X175797479Y-99256574D01*
X175797482Y-99256574D01*
X175903465Y-99202573D01*
X175987573Y-99118465D01*
X176041574Y-99012482D01*
X176041718Y-99011573D01*
X176059390Y-98899996D01*
X176819819Y-98899996D01*
X176819819Y-98900003D01*
X176838424Y-99017477D01*
X176838424Y-99017478D01*
X176838425Y-99017481D01*
X176838426Y-99017482D01*
X176889879Y-99118465D01*
X176892428Y-99123466D01*
X176892431Y-99123470D01*
X176976529Y-99207568D01*
X176976533Y-99207571D01*
X176976535Y-99207573D01*
X177082518Y-99261574D01*
X177082520Y-99261574D01*
X177082522Y-99261575D01*
X177199997Y-99280181D01*
X177200000Y-99280181D01*
X177200003Y-99280181D01*
X177317477Y-99261575D01*
X177317478Y-99261575D01*
X177317479Y-99261574D01*
X177317482Y-99261574D01*
X177423465Y-99207573D01*
X177423471Y-99207566D01*
X177427114Y-99204921D01*
X177492921Y-99181441D01*
X177560974Y-99197266D01*
X177572886Y-99204921D01*
X177576531Y-99207569D01*
X177576535Y-99207573D01*
X177682518Y-99261574D01*
X177682520Y-99261574D01*
X177682522Y-99261575D01*
X177799997Y-99280181D01*
X177800000Y-99280181D01*
X177800003Y-99280181D01*
X177917477Y-99261575D01*
X177917478Y-99261575D01*
X177917479Y-99261574D01*
X177917482Y-99261574D01*
X178023465Y-99207573D01*
X178107573Y-99123465D01*
X178161574Y-99017482D01*
X178161575Y-99017477D01*
X178180181Y-98900003D01*
X178180181Y-98899996D01*
X178161575Y-98782522D01*
X178161575Y-98782521D01*
X178161574Y-98782519D01*
X178161574Y-98782518D01*
X178107573Y-98676535D01*
X178107571Y-98676533D01*
X178107568Y-98676529D01*
X178081035Y-98649996D01*
X179924819Y-98649996D01*
X179924819Y-98650003D01*
X179943424Y-98767477D01*
X179943424Y-98767478D01*
X179943425Y-98767481D01*
X179943426Y-98767482D01*
X179992826Y-98864436D01*
X179997428Y-98873466D01*
X179997431Y-98873470D01*
X180081529Y-98957568D01*
X180081533Y-98957571D01*
X180081535Y-98957573D01*
X180187518Y-99011574D01*
X180208531Y-99014902D01*
X180271664Y-99044829D01*
X180308597Y-99104140D01*
X180307601Y-99174002D01*
X180268993Y-99232236D01*
X180225706Y-99252033D01*
X180226803Y-99255409D01*
X180217521Y-99258424D01*
X180111533Y-99312428D01*
X180111529Y-99312431D01*
X180027431Y-99396529D01*
X180027428Y-99396533D01*
X179973424Y-99502521D01*
X179973424Y-99502522D01*
X179954819Y-99619996D01*
X179954819Y-99620003D01*
X179973424Y-99737477D01*
X179973424Y-99737478D01*
X179973425Y-99737481D01*
X179973426Y-99737482D01*
X180011320Y-99811854D01*
X180027428Y-99843466D01*
X180027431Y-99843470D01*
X180111529Y-99927568D01*
X180111533Y-99927571D01*
X180111535Y-99927573D01*
X180217518Y-99981574D01*
X180217520Y-99981574D01*
X180217522Y-99981575D01*
X180334997Y-100000181D01*
X180335000Y-100000181D01*
X180335003Y-100000181D01*
X180452477Y-99981575D01*
X180452478Y-99981575D01*
X180452479Y-99981574D01*
X180452482Y-99981574D01*
X180558465Y-99927573D01*
X180600780Y-99885258D01*
X186749500Y-99885258D01*
X186749500Y-100114741D01*
X186774446Y-100304215D01*
X186779452Y-100342238D01*
X186779453Y-100342240D01*
X186838842Y-100563887D01*
X186926650Y-100775876D01*
X186926657Y-100775890D01*
X187041392Y-100974617D01*
X187181081Y-101156661D01*
X187181089Y-101156670D01*
X187343330Y-101318911D01*
X187343338Y-101318918D01*
X187343339Y-101318919D01*
X187357703Y-101329941D01*
X187525382Y-101458607D01*
X187525385Y-101458608D01*
X187525388Y-101458611D01*
X187724112Y-101573344D01*
X187724117Y-101573346D01*
X187724123Y-101573349D01*
X187815480Y-101611190D01*
X187936113Y-101661158D01*
X188157762Y-101720548D01*
X188385266Y-101750500D01*
X188385273Y-101750500D01*
X188614727Y-101750500D01*
X188614734Y-101750500D01*
X188842238Y-101720548D01*
X189063887Y-101661158D01*
X189275888Y-101573344D01*
X189474612Y-101458611D01*
X189656661Y-101318919D01*
X189656665Y-101318914D01*
X189656670Y-101318911D01*
X189818911Y-101156670D01*
X189818914Y-101156665D01*
X189818919Y-101156661D01*
X189958611Y-100974612D01*
X190073344Y-100775888D01*
X190161158Y-100563887D01*
X190220548Y-100342238D01*
X190250500Y-100114734D01*
X190250500Y-99885266D01*
X190220548Y-99657762D01*
X190161158Y-99436113D01*
X190088862Y-99261575D01*
X190073349Y-99224123D01*
X190073346Y-99224117D01*
X190073344Y-99224112D01*
X189958611Y-99025388D01*
X189958608Y-99025385D01*
X189958607Y-99025382D01*
X189818918Y-98843338D01*
X189818911Y-98843330D01*
X189656670Y-98681089D01*
X189656661Y-98681081D01*
X189474617Y-98541392D01*
X189460819Y-98533426D01*
X189318067Y-98451008D01*
X189275890Y-98426657D01*
X189275876Y-98426650D01*
X189063887Y-98338842D01*
X189044476Y-98333641D01*
X188842238Y-98279452D01*
X188804215Y-98274446D01*
X188614741Y-98249500D01*
X188614734Y-98249500D01*
X188385266Y-98249500D01*
X188385258Y-98249500D01*
X188168715Y-98278009D01*
X188157762Y-98279452D01*
X188080485Y-98300158D01*
X187936112Y-98338842D01*
X187724123Y-98426650D01*
X187724109Y-98426657D01*
X187525382Y-98541392D01*
X187343338Y-98681081D01*
X187181081Y-98843338D01*
X187041392Y-99025382D01*
X186926657Y-99224109D01*
X186926650Y-99224123D01*
X186838842Y-99436112D01*
X186823752Y-99492431D01*
X186788723Y-99623164D01*
X186779453Y-99657759D01*
X186779451Y-99657770D01*
X186749500Y-99885258D01*
X180600780Y-99885258D01*
X180642573Y-99843465D01*
X180696574Y-99737482D01*
X180703694Y-99692529D01*
X180715181Y-99620003D01*
X180715181Y-99619996D01*
X180696575Y-99502522D01*
X180696575Y-99502521D01*
X180696574Y-99502519D01*
X180696574Y-99502518D01*
X180642573Y-99396535D01*
X180642571Y-99396533D01*
X180642568Y-99396529D01*
X180558470Y-99312431D01*
X180558466Y-99312428D01*
X180558465Y-99312427D01*
X180452482Y-99258426D01*
X180452481Y-99258425D01*
X180452478Y-99258424D01*
X180431467Y-99255097D01*
X180368332Y-99225168D01*
X180331401Y-99165856D01*
X180332399Y-99095994D01*
X180371009Y-99037761D01*
X180414306Y-99018004D01*
X180413197Y-99014591D01*
X180422478Y-99011575D01*
X180422479Y-99011574D01*
X180422482Y-99011574D01*
X180528465Y-98957573D01*
X180612573Y-98873465D01*
X180666574Y-98767482D01*
X180666575Y-98767477D01*
X180685181Y-98650003D01*
X180685181Y-98649996D01*
X180666575Y-98532522D01*
X180666575Y-98532521D01*
X180666574Y-98532519D01*
X180666574Y-98532518D01*
X180612573Y-98426535D01*
X180612571Y-98426533D01*
X180612568Y-98426529D01*
X180528470Y-98342431D01*
X180528466Y-98342428D01*
X180528465Y-98342427D01*
X180422482Y-98288426D01*
X180422480Y-98288425D01*
X180422477Y-98288424D01*
X180305003Y-98269819D01*
X180304997Y-98269819D01*
X180187522Y-98288424D01*
X180187521Y-98288424D01*
X180081533Y-98342428D01*
X180081529Y-98342431D01*
X179997431Y-98426529D01*
X179997428Y-98426533D01*
X179943424Y-98532521D01*
X179943424Y-98532522D01*
X179924819Y-98649996D01*
X178081035Y-98649996D01*
X178023470Y-98592431D01*
X178023466Y-98592428D01*
X178023465Y-98592427D01*
X177917482Y-98538426D01*
X177917480Y-98538425D01*
X177917477Y-98538424D01*
X177800003Y-98519819D01*
X177799997Y-98519819D01*
X177682522Y-98538424D01*
X177682521Y-98538424D01*
X177576530Y-98592429D01*
X177572880Y-98595082D01*
X177507072Y-98618558D01*
X177439019Y-98602729D01*
X177427120Y-98595082D01*
X177423469Y-98592429D01*
X177392263Y-98576529D01*
X177317482Y-98538426D01*
X177317480Y-98538425D01*
X177317477Y-98538424D01*
X177200003Y-98519819D01*
X177199997Y-98519819D01*
X177082522Y-98538424D01*
X177082521Y-98538424D01*
X176976533Y-98592428D01*
X176976529Y-98592431D01*
X176892431Y-98676529D01*
X176892428Y-98676533D01*
X176838424Y-98782521D01*
X176838424Y-98782522D01*
X176819819Y-98899996D01*
X176059390Y-98899996D01*
X176060181Y-98895003D01*
X176060181Y-98894996D01*
X176041575Y-98777522D01*
X176041575Y-98777521D01*
X176041574Y-98777519D01*
X176041574Y-98777518D01*
X175987573Y-98671535D01*
X175987571Y-98671533D01*
X175987568Y-98671529D01*
X175903470Y-98587431D01*
X175903466Y-98587428D01*
X175903465Y-98587427D01*
X175797482Y-98533426D01*
X175797480Y-98533425D01*
X175797477Y-98533424D01*
X175680003Y-98514819D01*
X175679997Y-98514819D01*
X175562522Y-98533424D01*
X175562521Y-98533424D01*
X175456533Y-98587428D01*
X175456529Y-98587431D01*
X175372431Y-98671529D01*
X175372428Y-98671533D01*
X175318424Y-98777521D01*
X175318424Y-98777522D01*
X175299819Y-98894996D01*
X173554389Y-98894996D01*
X173536575Y-98782522D01*
X173536575Y-98782521D01*
X173536574Y-98782519D01*
X173536574Y-98782518D01*
X173482573Y-98676535D01*
X173482571Y-98676533D01*
X173482568Y-98676529D01*
X173398470Y-98592431D01*
X173398466Y-98592428D01*
X173398465Y-98592427D01*
X173292482Y-98538426D01*
X173292480Y-98538425D01*
X173292477Y-98538424D01*
X173175003Y-98519819D01*
X173174997Y-98519819D01*
X173057522Y-98538424D01*
X173057521Y-98538424D01*
X172951533Y-98592428D01*
X172951529Y-98592431D01*
X172867431Y-98676529D01*
X172867428Y-98676533D01*
X172813424Y-98782521D01*
X172813424Y-98782522D01*
X172794819Y-98899996D01*
X171333485Y-98899996D01*
X171331313Y-98895657D01*
X171285563Y-98842860D01*
X171280577Y-98837376D01*
X171211854Y-98795486D01*
X171211848Y-98795483D01*
X171144812Y-98775799D01*
X171144802Y-98775797D01*
X171101003Y-98769500D01*
X171101000Y-98769500D01*
X170899000Y-98769500D01*
X170898991Y-98769500D01*
X170865944Y-98773054D01*
X170814433Y-98784260D01*
X170745657Y-98818686D01*
X170692860Y-98864436D01*
X170687376Y-98869422D01*
X170645486Y-98938145D01*
X170645483Y-98938151D01*
X170625799Y-99005187D01*
X170625797Y-99005197D01*
X170619500Y-99048996D01*
X168402012Y-99048996D01*
X168317482Y-99005926D01*
X168317480Y-99005925D01*
X168317477Y-99005924D01*
X168200003Y-98987319D01*
X168199997Y-98987319D01*
X168082522Y-99005924D01*
X168082521Y-99005924D01*
X167976533Y-99059928D01*
X167976529Y-99059931D01*
X167967181Y-99069280D01*
X167905858Y-99102765D01*
X167836166Y-99097781D01*
X167780233Y-99055909D01*
X167755816Y-98990445D01*
X167755500Y-98981599D01*
X167755500Y-98248996D01*
X168969500Y-98248996D01*
X168969500Y-98451008D01*
X168973054Y-98484055D01*
X168984260Y-98535566D01*
X169018686Y-98604342D01*
X169064436Y-98657139D01*
X169069422Y-98662623D01*
X169138145Y-98704513D01*
X169138150Y-98704516D01*
X169205189Y-98724201D01*
X169249000Y-98730500D01*
X169249003Y-98730500D01*
X169950991Y-98730500D01*
X169951000Y-98730500D01*
X169984055Y-98726946D01*
X170035566Y-98715740D01*
X170104342Y-98681313D01*
X170157146Y-98635558D01*
X170162621Y-98630580D01*
X170204516Y-98561850D01*
X170224201Y-98494811D01*
X170230500Y-98451000D01*
X170230500Y-98249000D01*
X170226946Y-98215945D01*
X170215740Y-98164434D01*
X170198545Y-98130084D01*
X170181313Y-98095657D01*
X170144108Y-98052722D01*
X170135558Y-98042854D01*
X170130580Y-98037379D01*
X170130579Y-98037378D01*
X170130577Y-98037376D01*
X170061854Y-97995486D01*
X170061848Y-97995483D01*
X169994812Y-97975799D01*
X169994802Y-97975797D01*
X169951003Y-97969500D01*
X169951000Y-97969500D01*
X169249000Y-97969500D01*
X169248991Y-97969500D01*
X169215944Y-97973054D01*
X169164433Y-97984260D01*
X169095657Y-98018686D01*
X169042860Y-98064436D01*
X169037376Y-98069422D01*
X168995486Y-98138145D01*
X168995483Y-98138151D01*
X168975799Y-98205187D01*
X168975797Y-98205197D01*
X168969500Y-98248996D01*
X167755500Y-98248996D01*
X167755500Y-98152745D01*
X167755499Y-98152712D01*
X167755071Y-98145398D01*
X167754445Y-98134656D01*
X167751092Y-98106017D01*
X167731696Y-98047015D01*
X167697060Y-97986334D01*
X167669872Y-97951408D01*
X167593488Y-97877853D01*
X167558853Y-97817172D01*
X167555500Y-97788533D01*
X167555500Y-97499996D01*
X168194819Y-97499996D01*
X168194819Y-97500003D01*
X168213424Y-97617477D01*
X168213424Y-97617478D01*
X168267428Y-97723466D01*
X168267431Y-97723470D01*
X168351529Y-97807568D01*
X168351533Y-97807571D01*
X168351535Y-97807573D01*
X168457518Y-97861574D01*
X168457520Y-97861574D01*
X168457522Y-97861575D01*
X168574997Y-97880181D01*
X168575000Y-97880181D01*
X168575003Y-97880181D01*
X168692477Y-97861575D01*
X168692478Y-97861575D01*
X168692479Y-97861574D01*
X168692482Y-97861574D01*
X168798465Y-97807573D01*
X168882573Y-97723465D01*
X168936574Y-97617482D01*
X168951380Y-97524000D01*
X168955181Y-97500003D01*
X168955181Y-97499996D01*
X168936575Y-97382522D01*
X168936575Y-97382521D01*
X168936574Y-97382519D01*
X168936574Y-97382518D01*
X168882573Y-97276535D01*
X168882571Y-97276533D01*
X168882568Y-97276529D01*
X168798470Y-97192431D01*
X168798466Y-97192428D01*
X168798465Y-97192427D01*
X168692482Y-97138426D01*
X168692480Y-97138425D01*
X168692477Y-97138424D01*
X168575003Y-97119819D01*
X168574997Y-97119819D01*
X168457522Y-97138424D01*
X168457521Y-97138424D01*
X168351533Y-97192428D01*
X168351529Y-97192431D01*
X168267431Y-97276529D01*
X168267428Y-97276533D01*
X168213424Y-97382521D01*
X168213424Y-97382522D01*
X168194819Y-97499996D01*
X167555500Y-97499996D01*
X167555500Y-96635469D01*
X167575185Y-96568430D01*
X167585787Y-96554267D01*
X167657879Y-96471067D01*
X167657879Y-96471065D01*
X167657882Y-96471063D01*
X167711697Y-96353226D01*
X167730133Y-96225000D01*
X167711697Y-96096774D01*
X167657882Y-95978937D01*
X167609085Y-95922621D01*
X167585786Y-95895732D01*
X167556762Y-95832176D01*
X167555500Y-95814530D01*
X167555500Y-95544619D01*
X167575185Y-95477580D01*
X167627989Y-95431825D01*
X167697147Y-95421881D01*
X167760703Y-95450906D01*
X167773208Y-95463411D01*
X167789442Y-95482146D01*
X167794420Y-95487621D01*
X167794422Y-95487623D01*
X167863145Y-95529513D01*
X167863150Y-95529516D01*
X167930189Y-95549201D01*
X167974000Y-95555500D01*
X167974003Y-95555500D01*
X168675991Y-95555500D01*
X168676000Y-95555500D01*
X168709055Y-95551946D01*
X168760566Y-95540740D01*
X168829342Y-95506313D01*
X168882146Y-95460558D01*
X168887621Y-95455580D01*
X168906264Y-95424996D01*
X169669819Y-95424996D01*
X169669819Y-95425003D01*
X169688424Y-95542477D01*
X169688424Y-95542478D01*
X169688425Y-95542481D01*
X169688426Y-95542482D01*
X169695058Y-95555499D01*
X169742428Y-95648466D01*
X169742431Y-95648470D01*
X169826529Y-95732568D01*
X169826533Y-95732571D01*
X169826535Y-95732573D01*
X169932518Y-95786574D01*
X169932520Y-95786574D01*
X169932522Y-95786575D01*
X170049997Y-95805181D01*
X170050000Y-95805181D01*
X170050003Y-95805181D01*
X170167477Y-95786575D01*
X170167478Y-95786575D01*
X170167479Y-95786574D01*
X170167482Y-95786574D01*
X170273465Y-95732573D01*
X170357573Y-95648465D01*
X170411574Y-95542482D01*
X170411850Y-95540739D01*
X170430181Y-95425003D01*
X170430181Y-95424996D01*
X170411575Y-95307522D01*
X170411575Y-95307521D01*
X170411574Y-95307519D01*
X170411574Y-95307518D01*
X170357573Y-95201535D01*
X170357571Y-95201533D01*
X170357568Y-95201529D01*
X170273470Y-95117431D01*
X170273466Y-95117428D01*
X170273465Y-95117427D01*
X170167482Y-95063426D01*
X170167480Y-95063425D01*
X170167477Y-95063424D01*
X170050003Y-95044819D01*
X170049997Y-95044819D01*
X169932522Y-95063424D01*
X169932521Y-95063424D01*
X169826533Y-95117428D01*
X169826529Y-95117431D01*
X169742431Y-95201529D01*
X169742428Y-95201533D01*
X169688424Y-95307521D01*
X169688424Y-95307522D01*
X169669819Y-95424996D01*
X168906264Y-95424996D01*
X168929516Y-95386850D01*
X168949201Y-95319811D01*
X168955500Y-95276000D01*
X168955500Y-94574000D01*
X168951946Y-94540945D01*
X168940740Y-94489434D01*
X168915107Y-94438226D01*
X168906313Y-94420657D01*
X168860563Y-94367860D01*
X168855577Y-94362376D01*
X168786854Y-94320486D01*
X168786848Y-94320483D01*
X168719812Y-94300799D01*
X168719802Y-94300797D01*
X168676003Y-94294500D01*
X168676000Y-94294500D01*
X167974000Y-94294500D01*
X167973991Y-94294500D01*
X167940944Y-94298054D01*
X167889433Y-94309260D01*
X167820657Y-94343686D01*
X167767860Y-94389436D01*
X167762376Y-94394422D01*
X167720486Y-94463145D01*
X167720484Y-94463149D01*
X167701626Y-94527372D01*
X167663850Y-94586149D01*
X167600294Y-94615173D01*
X167531136Y-94605229D01*
X167483381Y-94566744D01*
X167473639Y-94553730D01*
X167473626Y-94553715D01*
X166906297Y-93986387D01*
X166888558Y-93960838D01*
X166887680Y-93961403D01*
X166882883Y-93953940D01*
X166882882Y-93953937D01*
X166862378Y-93930274D01*
X166798050Y-93856033D01*
X166747400Y-93823483D01*
X166726758Y-93806848D01*
X166429906Y-93509996D01*
X170219819Y-93509996D01*
X170219819Y-93510003D01*
X170238424Y-93627477D01*
X170238424Y-93627478D01*
X170238425Y-93627481D01*
X170238426Y-93627482D01*
X170260697Y-93671192D01*
X170292428Y-93733466D01*
X170292431Y-93733470D01*
X170363780Y-93804819D01*
X170397265Y-93866142D01*
X170392281Y-93935834D01*
X170363780Y-93980181D01*
X170292431Y-94051529D01*
X170292428Y-94051533D01*
X170238424Y-94157521D01*
X170238424Y-94157522D01*
X170219819Y-94274996D01*
X170219819Y-94275003D01*
X170238424Y-94392477D01*
X170238424Y-94392478D01*
X170238425Y-94392481D01*
X170238426Y-94392482D01*
X170287825Y-94489434D01*
X170292428Y-94498466D01*
X170292431Y-94498470D01*
X170376529Y-94582568D01*
X170376533Y-94582571D01*
X170376535Y-94582573D01*
X170482518Y-94636574D01*
X170482520Y-94636574D01*
X170482522Y-94636575D01*
X170599997Y-94655181D01*
X170600000Y-94655181D01*
X170600003Y-94655181D01*
X170717477Y-94636575D01*
X170717478Y-94636575D01*
X170717479Y-94636574D01*
X170717482Y-94636574D01*
X170823465Y-94582573D01*
X170907573Y-94498465D01*
X170961574Y-94392482D01*
X170961575Y-94392477D01*
X170980181Y-94275003D01*
X170980181Y-94274996D01*
X170972103Y-94223996D01*
X184794500Y-94223996D01*
X184794500Y-96976008D01*
X184798054Y-97009055D01*
X184809260Y-97060566D01*
X184843686Y-97129342D01*
X184889436Y-97182139D01*
X184894422Y-97187623D01*
X184963145Y-97229513D01*
X184963150Y-97229516D01*
X185030189Y-97249201D01*
X185074000Y-97255500D01*
X185074003Y-97255500D01*
X186175991Y-97255500D01*
X186176000Y-97255500D01*
X186209055Y-97251946D01*
X186260566Y-97240740D01*
X186329342Y-97206313D01*
X186382146Y-97160558D01*
X186387621Y-97155580D01*
X186429516Y-97086850D01*
X186449201Y-97019811D01*
X186455500Y-96976000D01*
X186455500Y-96500000D01*
X187044867Y-96500000D01*
X187063302Y-96628225D01*
X187107040Y-96723996D01*
X187117118Y-96746063D01*
X187201951Y-96843967D01*
X187310931Y-96914004D01*
X187435225Y-96950499D01*
X187435227Y-96950500D01*
X187435228Y-96950500D01*
X187564773Y-96950500D01*
X187564773Y-96950499D01*
X187689069Y-96914004D01*
X187798049Y-96843967D01*
X187882882Y-96746063D01*
X187936697Y-96628226D01*
X187955133Y-96500000D01*
X188544867Y-96500000D01*
X188563302Y-96628225D01*
X188607040Y-96723996D01*
X188617118Y-96746063D01*
X188701951Y-96843967D01*
X188810931Y-96914004D01*
X188935225Y-96950499D01*
X188935227Y-96950500D01*
X188935228Y-96950500D01*
X189064773Y-96950500D01*
X189064773Y-96950499D01*
X189189069Y-96914004D01*
X189298049Y-96843967D01*
X189382882Y-96746063D01*
X189436697Y-96628226D01*
X189455133Y-96500000D01*
X190044867Y-96500000D01*
X190063302Y-96628225D01*
X190107040Y-96723996D01*
X190117118Y-96746063D01*
X190201951Y-96843967D01*
X190310931Y-96914004D01*
X190435225Y-96950499D01*
X190435227Y-96950500D01*
X190435228Y-96950500D01*
X190564773Y-96950500D01*
X190564773Y-96950499D01*
X190689069Y-96914004D01*
X190798049Y-96843967D01*
X190882882Y-96746063D01*
X190936697Y-96628226D01*
X190955133Y-96500000D01*
X190936697Y-96371774D01*
X190882882Y-96253937D01*
X190798049Y-96156033D01*
X190689069Y-96085996D01*
X190689065Y-96085994D01*
X190689064Y-96085994D01*
X190564774Y-96049500D01*
X190564772Y-96049500D01*
X190435228Y-96049500D01*
X190435226Y-96049500D01*
X190310935Y-96085994D01*
X190310932Y-96085995D01*
X190310931Y-96085996D01*
X190275516Y-96108756D01*
X190201950Y-96156033D01*
X190117118Y-96253937D01*
X190117117Y-96253938D01*
X190063302Y-96371774D01*
X190044867Y-96500000D01*
X189455133Y-96500000D01*
X189436697Y-96371774D01*
X189382882Y-96253937D01*
X189298049Y-96156033D01*
X189189069Y-96085996D01*
X189189065Y-96085994D01*
X189189064Y-96085994D01*
X189064774Y-96049500D01*
X189064772Y-96049500D01*
X188935228Y-96049500D01*
X188935226Y-96049500D01*
X188810935Y-96085994D01*
X188810932Y-96085995D01*
X188810931Y-96085996D01*
X188775516Y-96108756D01*
X188701950Y-96156033D01*
X188617118Y-96253937D01*
X188617117Y-96253938D01*
X188563302Y-96371774D01*
X188544867Y-96500000D01*
X187955133Y-96500000D01*
X187936697Y-96371774D01*
X187882882Y-96253937D01*
X187798049Y-96156033D01*
X187689069Y-96085996D01*
X187689065Y-96085994D01*
X187689064Y-96085994D01*
X187564774Y-96049500D01*
X187564772Y-96049500D01*
X187435228Y-96049500D01*
X187435226Y-96049500D01*
X187310935Y-96085994D01*
X187310932Y-96085995D01*
X187310931Y-96085996D01*
X187275516Y-96108756D01*
X187201950Y-96156033D01*
X187117118Y-96253937D01*
X187117117Y-96253938D01*
X187063302Y-96371774D01*
X187044867Y-96500000D01*
X186455500Y-96500000D01*
X186455500Y-95000000D01*
X187044867Y-95000000D01*
X187063302Y-95128225D01*
X187115154Y-95241763D01*
X187117118Y-95246063D01*
X187201951Y-95343967D01*
X187310931Y-95414004D01*
X187435225Y-95450499D01*
X187435227Y-95450500D01*
X187435228Y-95450500D01*
X187564773Y-95450500D01*
X187564773Y-95450499D01*
X187689069Y-95414004D01*
X187798049Y-95343967D01*
X187882882Y-95246063D01*
X187936697Y-95128226D01*
X187955133Y-95000000D01*
X188544867Y-95000000D01*
X188563302Y-95128225D01*
X188615154Y-95241763D01*
X188617118Y-95246063D01*
X188701951Y-95343967D01*
X188810931Y-95414004D01*
X188935225Y-95450499D01*
X188935227Y-95450500D01*
X188935228Y-95450500D01*
X189064773Y-95450500D01*
X189064773Y-95450499D01*
X189189069Y-95414004D01*
X189298049Y-95343967D01*
X189382882Y-95246063D01*
X189436697Y-95128226D01*
X189455133Y-95000000D01*
X190044867Y-95000000D01*
X190063302Y-95128225D01*
X190115154Y-95241763D01*
X190117118Y-95246063D01*
X190201951Y-95343967D01*
X190310931Y-95414004D01*
X190435225Y-95450499D01*
X190435227Y-95450500D01*
X190435228Y-95450500D01*
X190564773Y-95450500D01*
X190564773Y-95450499D01*
X190689069Y-95414004D01*
X190798049Y-95343967D01*
X190882882Y-95246063D01*
X190936697Y-95128226D01*
X190955133Y-95000000D01*
X190936697Y-94871774D01*
X190882882Y-94753937D01*
X190798049Y-94656033D01*
X190689069Y-94585996D01*
X190689065Y-94585994D01*
X190689064Y-94585994D01*
X190564774Y-94549500D01*
X190564772Y-94549500D01*
X190435228Y-94549500D01*
X190435226Y-94549500D01*
X190310935Y-94585994D01*
X190310932Y-94585995D01*
X190310931Y-94585996D01*
X190281004Y-94605229D01*
X190201950Y-94656033D01*
X190117118Y-94753937D01*
X190117117Y-94753938D01*
X190063302Y-94871774D01*
X190044867Y-95000000D01*
X189455133Y-95000000D01*
X189436697Y-94871774D01*
X189382882Y-94753937D01*
X189298049Y-94656033D01*
X189189069Y-94585996D01*
X189189065Y-94585994D01*
X189189064Y-94585994D01*
X189064774Y-94549500D01*
X189064772Y-94549500D01*
X188935228Y-94549500D01*
X188935226Y-94549500D01*
X188810935Y-94585994D01*
X188810932Y-94585995D01*
X188810931Y-94585996D01*
X188781004Y-94605229D01*
X188701950Y-94656033D01*
X188617118Y-94753937D01*
X188617117Y-94753938D01*
X188563302Y-94871774D01*
X188544867Y-95000000D01*
X187955133Y-95000000D01*
X187936697Y-94871774D01*
X187882882Y-94753937D01*
X187798049Y-94656033D01*
X187689069Y-94585996D01*
X187689065Y-94585994D01*
X187689064Y-94585994D01*
X187564774Y-94549500D01*
X187564772Y-94549500D01*
X187435228Y-94549500D01*
X187435226Y-94549500D01*
X187310935Y-94585994D01*
X187310932Y-94585995D01*
X187310931Y-94585996D01*
X187281004Y-94605229D01*
X187201950Y-94656033D01*
X187117118Y-94753937D01*
X187117117Y-94753938D01*
X187063302Y-94871774D01*
X187044867Y-95000000D01*
X186455500Y-95000000D01*
X186455500Y-93500000D01*
X187044867Y-93500000D01*
X187063302Y-93628225D01*
X187111365Y-93733466D01*
X187117118Y-93746063D01*
X187201951Y-93843967D01*
X187310931Y-93914004D01*
X187435225Y-93950499D01*
X187435227Y-93950500D01*
X187435228Y-93950500D01*
X187564773Y-93950500D01*
X187564773Y-93950499D01*
X187689069Y-93914004D01*
X187798049Y-93843967D01*
X187882882Y-93746063D01*
X187936697Y-93628226D01*
X187955133Y-93500000D01*
X188544867Y-93500000D01*
X188563302Y-93628225D01*
X188611365Y-93733466D01*
X188617118Y-93746063D01*
X188701951Y-93843967D01*
X188810931Y-93914004D01*
X188935225Y-93950499D01*
X188935227Y-93950500D01*
X188935228Y-93950500D01*
X189064773Y-93950500D01*
X189064773Y-93950499D01*
X189189069Y-93914004D01*
X189298049Y-93843967D01*
X189382882Y-93746063D01*
X189436697Y-93628226D01*
X189455133Y-93500000D01*
X190044867Y-93500000D01*
X190063302Y-93628225D01*
X190111365Y-93733466D01*
X190117118Y-93746063D01*
X190201951Y-93843967D01*
X190310931Y-93914004D01*
X190435225Y-93950499D01*
X190435227Y-93950500D01*
X190435228Y-93950500D01*
X190564773Y-93950500D01*
X190564773Y-93950499D01*
X190689069Y-93914004D01*
X190798049Y-93843967D01*
X190882882Y-93746063D01*
X190936697Y-93628226D01*
X190955133Y-93500000D01*
X190936697Y-93371774D01*
X190914877Y-93323996D01*
X191544500Y-93323996D01*
X191544500Y-93738008D01*
X191546956Y-93765534D01*
X191554736Y-93808765D01*
X191554737Y-93808767D01*
X191583210Y-93874302D01*
X191612874Y-93914004D01*
X191625035Y-93930279D01*
X191656298Y-93961598D01*
X191656299Y-93961599D01*
X191694900Y-93990549D01*
X191736721Y-94046520D01*
X191744500Y-94089749D01*
X191744500Y-96976008D01*
X191748054Y-97009055D01*
X191759260Y-97060566D01*
X191793686Y-97129342D01*
X191839436Y-97182139D01*
X191844422Y-97187623D01*
X191913145Y-97229513D01*
X191913150Y-97229516D01*
X191980189Y-97249201D01*
X192024000Y-97255500D01*
X192024003Y-97255500D01*
X192375991Y-97255500D01*
X192376000Y-97255500D01*
X192409055Y-97251946D01*
X192460566Y-97240740D01*
X192529342Y-97206313D01*
X192582146Y-97160558D01*
X192587621Y-97155580D01*
X192629516Y-97086850D01*
X192649201Y-97019811D01*
X192655500Y-96976000D01*
X192655500Y-96500000D01*
X193044867Y-96500000D01*
X193063302Y-96628225D01*
X193107040Y-96723996D01*
X193117118Y-96746063D01*
X193201951Y-96843967D01*
X193310931Y-96914004D01*
X193435225Y-96950499D01*
X193435227Y-96950500D01*
X193435228Y-96950500D01*
X193564773Y-96950500D01*
X193564773Y-96950499D01*
X193689069Y-96914004D01*
X193798049Y-96843967D01*
X193882882Y-96746063D01*
X193936697Y-96628226D01*
X193955133Y-96500000D01*
X194544867Y-96500000D01*
X194563302Y-96628225D01*
X194607040Y-96723996D01*
X194617118Y-96746063D01*
X194701951Y-96843967D01*
X194810931Y-96914004D01*
X194935225Y-96950499D01*
X194935227Y-96950500D01*
X194935228Y-96950500D01*
X195064773Y-96950500D01*
X195064773Y-96950499D01*
X195189069Y-96914004D01*
X195298049Y-96843967D01*
X195382882Y-96746063D01*
X195436697Y-96628226D01*
X195455133Y-96500000D01*
X195436697Y-96371774D01*
X195382882Y-96253937D01*
X195298049Y-96156033D01*
X195189069Y-96085996D01*
X195189065Y-96085994D01*
X195189064Y-96085994D01*
X195064774Y-96049500D01*
X195064772Y-96049500D01*
X194935228Y-96049500D01*
X194935226Y-96049500D01*
X194810935Y-96085994D01*
X194810932Y-96085995D01*
X194810931Y-96085996D01*
X194775516Y-96108756D01*
X194701950Y-96156033D01*
X194617118Y-96253937D01*
X194617117Y-96253938D01*
X194563302Y-96371774D01*
X194544867Y-96500000D01*
X193955133Y-96500000D01*
X193936697Y-96371774D01*
X193882882Y-96253937D01*
X193798049Y-96156033D01*
X193689069Y-96085996D01*
X193689065Y-96085994D01*
X193689064Y-96085994D01*
X193564774Y-96049500D01*
X193564772Y-96049500D01*
X193435228Y-96049500D01*
X193435226Y-96049500D01*
X193310935Y-96085994D01*
X193310932Y-96085995D01*
X193310931Y-96085996D01*
X193275516Y-96108756D01*
X193201950Y-96156033D01*
X193117118Y-96253937D01*
X193117117Y-96253938D01*
X193063302Y-96371774D01*
X193044867Y-96500000D01*
X192655500Y-96500000D01*
X192655500Y-95000000D01*
X193044867Y-95000000D01*
X193063302Y-95128225D01*
X193115154Y-95241763D01*
X193117118Y-95246063D01*
X193201951Y-95343967D01*
X193310931Y-95414004D01*
X193435225Y-95450499D01*
X193435227Y-95450500D01*
X193435228Y-95450500D01*
X193564773Y-95450500D01*
X193564773Y-95450499D01*
X193689069Y-95414004D01*
X193798049Y-95343967D01*
X193882882Y-95246063D01*
X193936697Y-95128226D01*
X193955133Y-95000000D01*
X194544867Y-95000000D01*
X194563302Y-95128225D01*
X194615154Y-95241763D01*
X194617118Y-95246063D01*
X194701951Y-95343967D01*
X194810931Y-95414004D01*
X194935225Y-95450499D01*
X194935227Y-95450500D01*
X194935228Y-95450500D01*
X195064773Y-95450500D01*
X195064773Y-95450499D01*
X195189069Y-95414004D01*
X195298049Y-95343967D01*
X195382882Y-95246063D01*
X195436697Y-95128226D01*
X195455133Y-95000000D01*
X195436697Y-94871774D01*
X195382882Y-94753937D01*
X195298049Y-94656033D01*
X195189069Y-94585996D01*
X195189065Y-94585994D01*
X195189064Y-94585994D01*
X195064774Y-94549500D01*
X195064772Y-94549500D01*
X194935228Y-94549500D01*
X194935226Y-94549500D01*
X194810935Y-94585994D01*
X194810932Y-94585995D01*
X194810931Y-94585996D01*
X194781004Y-94605229D01*
X194701950Y-94656033D01*
X194617118Y-94753937D01*
X194617117Y-94753938D01*
X194563302Y-94871774D01*
X194544867Y-95000000D01*
X193955133Y-95000000D01*
X193936697Y-94871774D01*
X193882882Y-94753937D01*
X193798049Y-94656033D01*
X193689069Y-94585996D01*
X193689065Y-94585994D01*
X193689064Y-94585994D01*
X193564774Y-94549500D01*
X193564772Y-94549500D01*
X193435228Y-94549500D01*
X193435226Y-94549500D01*
X193310935Y-94585994D01*
X193310932Y-94585995D01*
X193310931Y-94585996D01*
X193281004Y-94605229D01*
X193201950Y-94656033D01*
X193117118Y-94753937D01*
X193117117Y-94753938D01*
X193063302Y-94871774D01*
X193044867Y-95000000D01*
X192655500Y-95000000D01*
X192655500Y-94310000D01*
X196544867Y-94310000D01*
X196563302Y-94438225D01*
X196616860Y-94555499D01*
X196617118Y-94556063D01*
X196701951Y-94653967D01*
X196810931Y-94724004D01*
X196935225Y-94760499D01*
X196935227Y-94760500D01*
X196935228Y-94760500D01*
X197064773Y-94760500D01*
X197064773Y-94760499D01*
X197189069Y-94724004D01*
X197298049Y-94653967D01*
X197382882Y-94556063D01*
X197436697Y-94438226D01*
X197454069Y-94317395D01*
X197464057Y-94295525D01*
X197451523Y-94276021D01*
X197447762Y-94258733D01*
X197436697Y-94181774D01*
X197425621Y-94157521D01*
X197382882Y-94063937D01*
X197298049Y-93966033D01*
X197189069Y-93895996D01*
X197189065Y-93895994D01*
X197189064Y-93895994D01*
X197064774Y-93859500D01*
X197064772Y-93859500D01*
X196935228Y-93859500D01*
X196935226Y-93859500D01*
X196810935Y-93895994D01*
X196810932Y-93895995D01*
X196810931Y-93895996D01*
X196775357Y-93918858D01*
X196701950Y-93966033D01*
X196617118Y-94063937D01*
X196617117Y-94063938D01*
X196563302Y-94181774D01*
X196544867Y-94310000D01*
X192655500Y-94310000D01*
X192655500Y-93500000D01*
X193044867Y-93500000D01*
X193063302Y-93628225D01*
X193111365Y-93733466D01*
X193117118Y-93746063D01*
X193201951Y-93843967D01*
X193310931Y-93914004D01*
X193435225Y-93950499D01*
X193435227Y-93950500D01*
X193435228Y-93950500D01*
X193564773Y-93950500D01*
X193564773Y-93950499D01*
X193689069Y-93914004D01*
X193798049Y-93843967D01*
X193882882Y-93746063D01*
X193936697Y-93628226D01*
X193955133Y-93500000D01*
X194544867Y-93500000D01*
X194563302Y-93628225D01*
X194611365Y-93733466D01*
X194617118Y-93746063D01*
X194701951Y-93843967D01*
X194810931Y-93914004D01*
X194935225Y-93950499D01*
X194935227Y-93950500D01*
X194935228Y-93950500D01*
X195064773Y-93950500D01*
X195064773Y-93950499D01*
X195189069Y-93914004D01*
X195298049Y-93843967D01*
X195382882Y-93746063D01*
X195436697Y-93628226D01*
X195455133Y-93500000D01*
X195436697Y-93371774D01*
X195382882Y-93253937D01*
X195298049Y-93156033D01*
X195189069Y-93085996D01*
X195189065Y-93085994D01*
X195189064Y-93085994D01*
X195064774Y-93049500D01*
X195064772Y-93049500D01*
X194935228Y-93049500D01*
X194935226Y-93049500D01*
X194810935Y-93085994D01*
X194810932Y-93085995D01*
X194810931Y-93085996D01*
X194768677Y-93113151D01*
X194701950Y-93156033D01*
X194617118Y-93253937D01*
X194617117Y-93253938D01*
X194563302Y-93371774D01*
X194544867Y-93500000D01*
X193955133Y-93500000D01*
X193936697Y-93371774D01*
X193882882Y-93253937D01*
X193798049Y-93156033D01*
X193689069Y-93085996D01*
X193689065Y-93085994D01*
X193689064Y-93085994D01*
X193564774Y-93049500D01*
X193564772Y-93049500D01*
X193435228Y-93049500D01*
X193435226Y-93049500D01*
X193310935Y-93085994D01*
X193310932Y-93085995D01*
X193310931Y-93085996D01*
X193268677Y-93113151D01*
X193201950Y-93156033D01*
X193117118Y-93253937D01*
X193117117Y-93253938D01*
X193063302Y-93371774D01*
X193044867Y-93500000D01*
X192655500Y-93500000D01*
X192655500Y-93324000D01*
X192651946Y-93290945D01*
X192640740Y-93239434D01*
X192611083Y-93180187D01*
X192606313Y-93170657D01*
X192560563Y-93117860D01*
X192557426Y-93114410D01*
X192555580Y-93112379D01*
X192555579Y-93112378D01*
X192555577Y-93112376D01*
X192486854Y-93070486D01*
X192486848Y-93070483D01*
X192419812Y-93050799D01*
X192419802Y-93050797D01*
X192376003Y-93044500D01*
X192376000Y-93044500D01*
X191824000Y-93044500D01*
X191823991Y-93044500D01*
X191790944Y-93048054D01*
X191739433Y-93059260D01*
X191670657Y-93093686D01*
X191617860Y-93139436D01*
X191612376Y-93144422D01*
X191570486Y-93213145D01*
X191570483Y-93213151D01*
X191550799Y-93280187D01*
X191550797Y-93280197D01*
X191544500Y-93323996D01*
X190914877Y-93323996D01*
X190882882Y-93253937D01*
X190798049Y-93156033D01*
X190689069Y-93085996D01*
X190689065Y-93085994D01*
X190689064Y-93085994D01*
X190564774Y-93049500D01*
X190564772Y-93049500D01*
X190435228Y-93049500D01*
X190435226Y-93049500D01*
X190310935Y-93085994D01*
X190310932Y-93085995D01*
X190310931Y-93085996D01*
X190268677Y-93113151D01*
X190201950Y-93156033D01*
X190117118Y-93253937D01*
X190117117Y-93253938D01*
X190063302Y-93371774D01*
X190044867Y-93500000D01*
X189455133Y-93500000D01*
X189436697Y-93371774D01*
X189382882Y-93253937D01*
X189298049Y-93156033D01*
X189189069Y-93085996D01*
X189189065Y-93085994D01*
X189189064Y-93085994D01*
X189064774Y-93049500D01*
X189064772Y-93049500D01*
X188935228Y-93049500D01*
X188935226Y-93049500D01*
X188810935Y-93085994D01*
X188810932Y-93085995D01*
X188810931Y-93085996D01*
X188768677Y-93113151D01*
X188701950Y-93156033D01*
X188617118Y-93253937D01*
X188617117Y-93253938D01*
X188563302Y-93371774D01*
X188544867Y-93500000D01*
X187955133Y-93500000D01*
X187936697Y-93371774D01*
X187882882Y-93253937D01*
X187798049Y-93156033D01*
X187689069Y-93085996D01*
X187689065Y-93085994D01*
X187689064Y-93085994D01*
X187564774Y-93049500D01*
X187564772Y-93049500D01*
X187435228Y-93049500D01*
X187435226Y-93049500D01*
X187310935Y-93085994D01*
X187310932Y-93085995D01*
X187310931Y-93085996D01*
X187268677Y-93113151D01*
X187201950Y-93156033D01*
X187117118Y-93253937D01*
X187117117Y-93253938D01*
X187063302Y-93371774D01*
X187044867Y-93500000D01*
X186455500Y-93500000D01*
X186455500Y-93324000D01*
X186451946Y-93290945D01*
X186440740Y-93239434D01*
X186411083Y-93180187D01*
X186406313Y-93170657D01*
X186360563Y-93117860D01*
X186357426Y-93114410D01*
X186355580Y-93112379D01*
X186355579Y-93112378D01*
X186355577Y-93112376D01*
X186286854Y-93070486D01*
X186286848Y-93070483D01*
X186219812Y-93050799D01*
X186219802Y-93050797D01*
X186176003Y-93044500D01*
X186176000Y-93044500D01*
X185824000Y-93044500D01*
X185823991Y-93044500D01*
X185790944Y-93048054D01*
X185739433Y-93059260D01*
X185670657Y-93093686D01*
X185617860Y-93139436D01*
X185612376Y-93144422D01*
X185570486Y-93213145D01*
X185570483Y-93213151D01*
X185550799Y-93280187D01*
X185550797Y-93280197D01*
X185544500Y-93323996D01*
X185544500Y-93820500D01*
X185524815Y-93887539D01*
X185472011Y-93933294D01*
X185420500Y-93944500D01*
X185073991Y-93944500D01*
X185040944Y-93948054D01*
X184989433Y-93959260D01*
X184920657Y-93993686D01*
X184867860Y-94039436D01*
X184862376Y-94044422D01*
X184820486Y-94113145D01*
X184820483Y-94113151D01*
X184800799Y-94180187D01*
X184800797Y-94180197D01*
X184794500Y-94223996D01*
X170972103Y-94223996D01*
X170961575Y-94157522D01*
X170961575Y-94157521D01*
X170961574Y-94157519D01*
X170961574Y-94157518D01*
X170907573Y-94051535D01*
X170907571Y-94051533D01*
X170907568Y-94051529D01*
X170836220Y-93980181D01*
X170802735Y-93918858D01*
X170807719Y-93849166D01*
X170836220Y-93804819D01*
X170907568Y-93733470D01*
X170907573Y-93733465D01*
X170961574Y-93627482D01*
X170963013Y-93618399D01*
X170980181Y-93510003D01*
X170980181Y-93509996D01*
X170961575Y-93392522D01*
X170961575Y-93392521D01*
X170961574Y-93392519D01*
X170961574Y-93392518D01*
X170907573Y-93286535D01*
X170907571Y-93286533D01*
X170907568Y-93286529D01*
X170823470Y-93202431D01*
X170823466Y-93202428D01*
X170823465Y-93202427D01*
X170717482Y-93148426D01*
X170717480Y-93148425D01*
X170717477Y-93148424D01*
X170600003Y-93129819D01*
X170599997Y-93129819D01*
X170482522Y-93148424D01*
X170482521Y-93148424D01*
X170376533Y-93202428D01*
X170376529Y-93202431D01*
X170292431Y-93286529D01*
X170292428Y-93286533D01*
X170238424Y-93392521D01*
X170238424Y-93392522D01*
X170219819Y-93509996D01*
X166429906Y-93509996D01*
X165946289Y-93026379D01*
X165946274Y-93026364D01*
X165946260Y-93026351D01*
X165946248Y-93026340D01*
X165933910Y-93015257D01*
X165933883Y-93015234D01*
X165913250Y-92998607D01*
X165913245Y-92998604D01*
X165903843Y-92993686D01*
X165859488Y-92970484D01*
X165859487Y-92970483D01*
X165859482Y-92970481D01*
X165792454Y-92950800D01*
X165792440Y-92950797D01*
X165748641Y-92944500D01*
X165748638Y-92944500D01*
X162524000Y-92944500D01*
X162523991Y-92944500D01*
X162490944Y-92948054D01*
X162431854Y-92960909D01*
X162431169Y-92957764D01*
X162376132Y-92960701D01*
X162315425Y-92926112D01*
X162293794Y-92895535D01*
X162256313Y-92820657D01*
X162210563Y-92767860D01*
X162205577Y-92762376D01*
X162136854Y-92720486D01*
X162136848Y-92720483D01*
X162069812Y-92700799D01*
X162069802Y-92700797D01*
X162026003Y-92694500D01*
X162026000Y-92694500D01*
X159224000Y-92694500D01*
X159223991Y-92694500D01*
X159190944Y-92698054D01*
X159139433Y-92709260D01*
X159070657Y-92743686D01*
X159017860Y-92789436D01*
X159012376Y-92794422D01*
X158970486Y-92863145D01*
X158970483Y-92863151D01*
X158950799Y-92930187D01*
X158950797Y-92930197D01*
X158944500Y-92973996D01*
X158944500Y-96020500D01*
X158924815Y-96087539D01*
X158872011Y-96133294D01*
X158820500Y-96144500D01*
X158151362Y-96144500D01*
X158134754Y-96145390D01*
X158134745Y-96145390D01*
X158134739Y-96145391D01*
X158134733Y-96145391D01*
X158134702Y-96145394D01*
X158108380Y-96148224D01*
X158108378Y-96148225D01*
X158050483Y-96166354D01*
X158050473Y-96166358D01*
X157989163Y-96199836D01*
X157989155Y-96199841D01*
X157953733Y-96226357D01*
X157953715Y-96226373D01*
X157771909Y-96408181D01*
X157710586Y-96441666D01*
X157684228Y-96444500D01*
X156370000Y-96444500D01*
X156370000Y-96220000D01*
X156460000Y-96080000D01*
X156580000Y-95950000D01*
X156520000Y-95230000D01*
X156405273Y-95205977D01*
X156388356Y-95176888D01*
X156269109Y-95045122D01*
X156269105Y-95045119D01*
X156125145Y-94940942D01*
X156125144Y-94940941D01*
X156125142Y-94940940D01*
X155982540Y-94877665D01*
X155962706Y-94868864D01*
X155962700Y-94868862D01*
X155788856Y-94832026D01*
X155781450Y-94831857D01*
X155700000Y-94830000D01*
X154610000Y-94830000D01*
X154609689Y-94830007D01*
X153750000Y-94650000D01*
X153750000Y-95800439D01*
X153790000Y-95930000D01*
X153850000Y-96080000D01*
X153940000Y-96220000D01*
X153940000Y-96444500D01*
X153324000Y-96444500D01*
X153323991Y-96444500D01*
X153290944Y-96448054D01*
X153239433Y-96459260D01*
X153170657Y-96493686D01*
X153117860Y-96539436D01*
X153112376Y-96544422D01*
X153070486Y-96613145D01*
X153070483Y-96613151D01*
X153050799Y-96680187D01*
X153050797Y-96680197D01*
X153044500Y-96723996D01*
X152500000Y-96723996D01*
X152500000Y-94650000D01*
X150227450Y-94609418D01*
X150229090Y-94560076D01*
X150229123Y-94559828D01*
X150229519Y-94547723D01*
X150229520Y-94547722D01*
X150230842Y-94507312D01*
X150232145Y-94468098D01*
X150232144Y-94468096D01*
X150232550Y-94455885D01*
X150232533Y-94455635D01*
X150234556Y-94393831D01*
X150234587Y-94393605D01*
X150236371Y-94338395D01*
X150236387Y-94338343D01*
X150236373Y-94338343D01*
X150236723Y-94327649D01*
X150237574Y-94301656D01*
X150237573Y-94301653D01*
X150237966Y-94289646D01*
X150237952Y-94289435D01*
X150240090Y-94223220D01*
X150240120Y-94223015D01*
X150241791Y-94170594D01*
X150241797Y-94170594D01*
X150241792Y-94170543D01*
X150243089Y-94130442D01*
X150243088Y-94130440D01*
X150243476Y-94118449D01*
X150243462Y-94118230D01*
X150245717Y-94047539D01*
X150245742Y-94047354D01*
X150246148Y-94034436D01*
X150246150Y-94034434D01*
X150247351Y-93996309D01*
X150247367Y-93996261D01*
X150247353Y-93996261D01*
X150249077Y-93942252D01*
X150249062Y-93942050D01*
X150251426Y-93867085D01*
X150251451Y-93866905D01*
X150251832Y-93854682D01*
X150251833Y-93854681D01*
X150253137Y-93812855D01*
X150253137Y-93812854D01*
X150253142Y-93812854D01*
X150253138Y-93812808D01*
X150254330Y-93775027D01*
X150254329Y-93775025D01*
X150254724Y-93762516D01*
X150254711Y-93762341D01*
X150257162Y-93683752D01*
X150257183Y-93683591D01*
X150258713Y-93634016D01*
X150258714Y-93633973D01*
X150258916Y-93627482D01*
X150260039Y-93591503D01*
X150260037Y-93591500D01*
X150260418Y-93579310D01*
X150260406Y-93579138D01*
X150262932Y-93497292D01*
X150262954Y-93497130D01*
X150264561Y-93444547D01*
X150264562Y-93444508D01*
X150266165Y-93392568D01*
X150266153Y-93392392D01*
X150268753Y-93307268D01*
X150268775Y-93307102D01*
X150270423Y-93252615D01*
X150270424Y-93252574D01*
X150270825Y-93239434D01*
X150271587Y-93214510D01*
X150271586Y-93214509D01*
X150271968Y-93202038D01*
X150271957Y-93201880D01*
X150272613Y-93180187D01*
X150274603Y-93114402D01*
X150274622Y-93114268D01*
X150276270Y-93059295D01*
X150276271Y-93059259D01*
X150277796Y-93008852D01*
X150277785Y-93008700D01*
X150278235Y-92993686D01*
X150280482Y-92918731D01*
X150280501Y-92918593D01*
X150282102Y-92864712D01*
X150282105Y-92864712D01*
X150282102Y-92864686D01*
X150283247Y-92826503D01*
X150283246Y-92826500D01*
X150283613Y-92814261D01*
X150283603Y-92814128D01*
X150286326Y-92722428D01*
X150286346Y-92722292D01*
X150287897Y-92669581D01*
X150287898Y-92669546D01*
X150288846Y-92637621D01*
X150289096Y-92629213D01*
X150289095Y-92629211D01*
X150289447Y-92617373D01*
X150289437Y-92617235D01*
X150292199Y-92523401D01*
X150292216Y-92523280D01*
X150293777Y-92469812D01*
X150293780Y-92469812D01*
X150293777Y-92469785D01*
X150294944Y-92430180D01*
X150294943Y-92430177D01*
X150295303Y-92417952D01*
X150295294Y-92417812D01*
X150297450Y-92343967D01*
X150298078Y-92322432D01*
X150298095Y-92322299D01*
X150299608Y-92270011D01*
X150299609Y-92269975D01*
X150301153Y-92217107D01*
X150301143Y-92216970D01*
X150303459Y-92136964D01*
X150303924Y-92120876D01*
X150303940Y-92120763D01*
X150304308Y-92107927D01*
X150304309Y-92107926D01*
X150305416Y-92069330D01*
X150306606Y-92028243D01*
X150306985Y-92015162D01*
X150306974Y-92015033D01*
X150307406Y-92000000D01*
X193044867Y-92000000D01*
X193063302Y-92128225D01*
X193103894Y-92217107D01*
X193117118Y-92246063D01*
X193201951Y-92343967D01*
X193310931Y-92414004D01*
X193366023Y-92430180D01*
X193435225Y-92450499D01*
X193435227Y-92450500D01*
X193435228Y-92450500D01*
X193564773Y-92450500D01*
X193564773Y-92450499D01*
X193689069Y-92414004D01*
X193798049Y-92343967D01*
X193882882Y-92246063D01*
X193936697Y-92128226D01*
X193955133Y-92000000D01*
X193936697Y-91871774D01*
X193882882Y-91753937D01*
X193798049Y-91656033D01*
X193689069Y-91585996D01*
X193689065Y-91585994D01*
X193689064Y-91585994D01*
X193564774Y-91549500D01*
X193564772Y-91549500D01*
X193435228Y-91549500D01*
X193435226Y-91549500D01*
X193310935Y-91585994D01*
X193310932Y-91585995D01*
X193310931Y-91585996D01*
X193271518Y-91611325D01*
X193201950Y-91656033D01*
X193117118Y-91753937D01*
X193117117Y-91753938D01*
X193063302Y-91871774D01*
X193044867Y-92000000D01*
X150307406Y-92000000D01*
X150309757Y-91918100D01*
X150309772Y-91917989D01*
X150310122Y-91905699D01*
X150310123Y-91905698D01*
X150311300Y-91864354D01*
X150311300Y-91864353D01*
X150311303Y-91864353D01*
X150311300Y-91864328D01*
X150312401Y-91826013D01*
X150312400Y-91826012D01*
X150312744Y-91814066D01*
X150312735Y-91813934D01*
X150315504Y-91716652D01*
X150315520Y-91716536D01*
X150315900Y-91703078D01*
X150315901Y-91703077D01*
X150317026Y-91663223D01*
X150317026Y-91663222D01*
X150317028Y-91663222D01*
X150317026Y-91663201D01*
X150318160Y-91623393D01*
X150318159Y-91623390D01*
X150318499Y-91611449D01*
X150318490Y-91611334D01*
X150321238Y-91513977D01*
X150321254Y-91513864D01*
X150322690Y-91462585D01*
X150322692Y-91462585D01*
X150322689Y-91462560D01*
X150323872Y-91420716D01*
X150323870Y-91420712D01*
X150324208Y-91408776D01*
X150324200Y-91408653D01*
X150326917Y-91311602D01*
X150326934Y-91311482D01*
X150328485Y-91255631D01*
X150328488Y-91255631D01*
X150328485Y-91255603D01*
X150329530Y-91218327D01*
X150329877Y-91205958D01*
X150329867Y-91205823D01*
X150330766Y-91173470D01*
X150332532Y-91109842D01*
X150332548Y-91109724D01*
X150333975Y-91057866D01*
X150333978Y-91057866D01*
X150333975Y-91057838D01*
X150335123Y-91016557D01*
X150335122Y-91016555D01*
X150335466Y-91004192D01*
X150335457Y-91004067D01*
X150336932Y-90950499D01*
X150336946Y-90949996D01*
X175294819Y-90949996D01*
X175294819Y-90950003D01*
X175313424Y-91067477D01*
X175313424Y-91067478D01*
X175313425Y-91067481D01*
X175313426Y-91067482D01*
X175334949Y-91109724D01*
X175367428Y-91173466D01*
X175367431Y-91173470D01*
X175451529Y-91257568D01*
X175451533Y-91257571D01*
X175451535Y-91257573D01*
X175557518Y-91311574D01*
X175557520Y-91311574D01*
X175557522Y-91311575D01*
X175674997Y-91330181D01*
X175675000Y-91330181D01*
X175675003Y-91330181D01*
X175792477Y-91311575D01*
X175792478Y-91311575D01*
X175792479Y-91311574D01*
X175792482Y-91311574D01*
X175898465Y-91257573D01*
X175982573Y-91173465D01*
X176036574Y-91067482D01*
X176038103Y-91057829D01*
X176055181Y-90950003D01*
X176055181Y-90949996D01*
X176794819Y-90949996D01*
X176794819Y-90950003D01*
X176813424Y-91067477D01*
X176813424Y-91067478D01*
X176813425Y-91067481D01*
X176813426Y-91067482D01*
X176834949Y-91109724D01*
X176867428Y-91173466D01*
X176867431Y-91173470D01*
X176951529Y-91257568D01*
X176951533Y-91257571D01*
X176951535Y-91257573D01*
X177057518Y-91311574D01*
X177057520Y-91311574D01*
X177057522Y-91311575D01*
X177174997Y-91330181D01*
X177175000Y-91330181D01*
X177175003Y-91330181D01*
X177292477Y-91311575D01*
X177292478Y-91311575D01*
X177292479Y-91311574D01*
X177292482Y-91311574D01*
X177398465Y-91257573D01*
X177482573Y-91173465D01*
X177536574Y-91067482D01*
X177538103Y-91057829D01*
X177555181Y-90950003D01*
X177555181Y-90949996D01*
X177536575Y-90832522D01*
X177536575Y-90832521D01*
X177536574Y-90832519D01*
X177536574Y-90832518D01*
X177482573Y-90726535D01*
X177482571Y-90726533D01*
X177482568Y-90726529D01*
X177398470Y-90642431D01*
X177398466Y-90642428D01*
X177398465Y-90642427D01*
X177292482Y-90588426D01*
X177292480Y-90588425D01*
X177292477Y-90588424D01*
X177175003Y-90569819D01*
X177174997Y-90569819D01*
X177057522Y-90588424D01*
X177057521Y-90588424D01*
X176951533Y-90642428D01*
X176951529Y-90642431D01*
X176867431Y-90726529D01*
X176867428Y-90726533D01*
X176813424Y-90832521D01*
X176813424Y-90832522D01*
X176794819Y-90949996D01*
X176055181Y-90949996D01*
X176036575Y-90832522D01*
X176036575Y-90832521D01*
X176036574Y-90832519D01*
X176036574Y-90832518D01*
X175982573Y-90726535D01*
X175982571Y-90726533D01*
X175982568Y-90726529D01*
X175898470Y-90642431D01*
X175898466Y-90642428D01*
X175898465Y-90642427D01*
X175792482Y-90588426D01*
X175792480Y-90588425D01*
X175792477Y-90588424D01*
X175675003Y-90569819D01*
X175674997Y-90569819D01*
X175557522Y-90588424D01*
X175557521Y-90588424D01*
X175451533Y-90642428D01*
X175451529Y-90642431D01*
X175367431Y-90726529D01*
X175367428Y-90726533D01*
X175313424Y-90832521D01*
X175313424Y-90832522D01*
X175294819Y-90949996D01*
X150336946Y-90949996D01*
X150338074Y-90909032D01*
X150338090Y-90908921D01*
X150338458Y-90895435D01*
X150338459Y-90895434D01*
X150339542Y-90855758D01*
X150339542Y-90855757D01*
X150339545Y-90855757D01*
X150339542Y-90855731D01*
X150340644Y-90815749D01*
X150340643Y-90815748D01*
X150340972Y-90803839D01*
X150340963Y-90803706D01*
X150343533Y-90709533D01*
X150343548Y-90709423D01*
X150343913Y-90695925D01*
X150343914Y-90695924D01*
X150344917Y-90658845D01*
X150344917Y-90658844D01*
X150344920Y-90658844D01*
X150344917Y-90658818D01*
X150346081Y-90616235D01*
X150346079Y-90616232D01*
X150346436Y-90603199D01*
X150346426Y-90603081D01*
X150348930Y-90510597D01*
X150348947Y-90510469D01*
X150349280Y-90498044D01*
X150349281Y-90498043D01*
X150350359Y-90457837D01*
X150350368Y-90457807D01*
X150350360Y-90457807D01*
X150351428Y-90418358D01*
X150351427Y-90418356D01*
X150351768Y-90405778D01*
X150351758Y-90405644D01*
X150351769Y-90405236D01*
X150354197Y-90314708D01*
X150354214Y-90314578D01*
X150354589Y-90300500D01*
X150355685Y-90259261D01*
X150355688Y-90259261D01*
X150355685Y-90259235D01*
X150356672Y-90222451D01*
X150356671Y-90222450D01*
X150357003Y-90210116D01*
X150356993Y-90209996D01*
X165069819Y-90209996D01*
X165069819Y-90210003D01*
X165088424Y-90327477D01*
X165088424Y-90327478D01*
X165142428Y-90433466D01*
X165142431Y-90433470D01*
X165226529Y-90517568D01*
X165226533Y-90517571D01*
X165226535Y-90517573D01*
X165332518Y-90571574D01*
X165332520Y-90571574D01*
X165332522Y-90571575D01*
X165449997Y-90590181D01*
X165450000Y-90590181D01*
X165450003Y-90590181D01*
X165567477Y-90571575D01*
X165567478Y-90571575D01*
X165567479Y-90571574D01*
X165567482Y-90571574D01*
X165673465Y-90517573D01*
X165757573Y-90433465D01*
X165811574Y-90327482D01*
X165815588Y-90302138D01*
X165830181Y-90210003D01*
X165830181Y-90209996D01*
X165811575Y-90092522D01*
X165811575Y-90092521D01*
X165811574Y-90092519D01*
X165811574Y-90092518D01*
X165757573Y-89986535D01*
X165757571Y-89986533D01*
X165757568Y-89986529D01*
X165673470Y-89902431D01*
X165673466Y-89902428D01*
X165673465Y-89902427D01*
X165567482Y-89848426D01*
X165567480Y-89848425D01*
X165567477Y-89848424D01*
X165450003Y-89829819D01*
X165449997Y-89829819D01*
X165332522Y-89848424D01*
X165332521Y-89848424D01*
X165226533Y-89902428D01*
X165226529Y-89902431D01*
X165142431Y-89986529D01*
X165142428Y-89986533D01*
X165088424Y-90092521D01*
X165088424Y-90092522D01*
X165069819Y-90209996D01*
X150356993Y-90209996D01*
X150356993Y-90209991D01*
X150359341Y-90121620D01*
X150359358Y-90121501D01*
X150359699Y-90108541D01*
X150359700Y-90108540D01*
X150360715Y-90069971D01*
X150360715Y-90069970D01*
X150360718Y-90069970D01*
X150360715Y-90069942D01*
X150361808Y-90028855D01*
X150362131Y-90016721D01*
X150362120Y-90016579D01*
X150364379Y-89930726D01*
X150364397Y-89930598D01*
X150364736Y-89917590D01*
X150364737Y-89917589D01*
X150365767Y-89878050D01*
X150365767Y-89878049D01*
X150365770Y-89878049D01*
X150365767Y-89878021D01*
X150366824Y-89837906D01*
X150366823Y-89837904D01*
X150367159Y-89825160D01*
X150367148Y-89825017D01*
X150369306Y-89742213D01*
X150369323Y-89742081D01*
X150369644Y-89729625D01*
X150369645Y-89729624D01*
X150370625Y-89691601D01*
X150370628Y-89691601D01*
X150370625Y-89691572D01*
X150371711Y-89649941D01*
X150371710Y-89649939D01*
X150372032Y-89637600D01*
X150372021Y-89637453D01*
X150372093Y-89634661D01*
X150393499Y-89568152D01*
X150408366Y-89550183D01*
X150558549Y-89400000D01*
X159407367Y-89400000D01*
X159425802Y-89528225D01*
X159474411Y-89634661D01*
X159479618Y-89646063D01*
X159564451Y-89743967D01*
X159673431Y-89814004D01*
X159797725Y-89850499D01*
X159797727Y-89850500D01*
X159797728Y-89850500D01*
X159927273Y-89850500D01*
X159927273Y-89850499D01*
X160051569Y-89814004D01*
X160160549Y-89743967D01*
X160245382Y-89646063D01*
X160289253Y-89550000D01*
X166507367Y-89550000D01*
X166525802Y-89678225D01*
X166572862Y-89781270D01*
X166579618Y-89796063D01*
X166664451Y-89893967D01*
X166773431Y-89964004D01*
X166897725Y-90000499D01*
X166897727Y-90000500D01*
X166897728Y-90000500D01*
X167027273Y-90000500D01*
X167027273Y-90000499D01*
X167151569Y-89964004D01*
X167260549Y-89893967D01*
X167345382Y-89796063D01*
X167399197Y-89678226D01*
X167417633Y-89550000D01*
X167399197Y-89421774D01*
X167345382Y-89303937D01*
X167260549Y-89206033D01*
X167151569Y-89135996D01*
X167151565Y-89135994D01*
X167151564Y-89135994D01*
X167027274Y-89099500D01*
X167027272Y-89099500D01*
X166897728Y-89099500D01*
X166897726Y-89099500D01*
X166773435Y-89135994D01*
X166773432Y-89135995D01*
X166773431Y-89135996D01*
X166745513Y-89153938D01*
X166664450Y-89206033D01*
X166579618Y-89303937D01*
X166579617Y-89303938D01*
X166525802Y-89421774D01*
X166507367Y-89550000D01*
X160289253Y-89550000D01*
X160299197Y-89528226D01*
X160317633Y-89400000D01*
X160299197Y-89271774D01*
X160245382Y-89153937D01*
X160160549Y-89056033D01*
X160051569Y-88985996D01*
X160051565Y-88985994D01*
X160051564Y-88985994D01*
X159927274Y-88949500D01*
X159927272Y-88949500D01*
X159797728Y-88949500D01*
X159797726Y-88949500D01*
X159673435Y-88985994D01*
X159673432Y-88985995D01*
X159673431Y-88985996D01*
X159622177Y-89018934D01*
X159564450Y-89056033D01*
X159479618Y-89153937D01*
X159479617Y-89153938D01*
X159425802Y-89271774D01*
X159407367Y-89400000D01*
X150558549Y-89400000D01*
X151221731Y-88736819D01*
X151283054Y-88703334D01*
X151309412Y-88700500D01*
X173939676Y-88700500D01*
X174006715Y-88720185D01*
G37*
%TD.AperFunction*%
%TD*%
%TA.AperFunction,Conductor*%
%TO.N,/IP2368 Buck-Boost-Converter/CSP1*%
G36*
X165815677Y-93119685D02*
G01*
X165836319Y-93136319D01*
X167363681Y-94663681D01*
X167397166Y-94725004D01*
X167400000Y-94751362D01*
X167400000Y-97907407D01*
X166925000Y-97450000D01*
X162400000Y-97450000D01*
X162400000Y-94950000D01*
X162400000Y-93224000D01*
X162419685Y-93156961D01*
X162472489Y-93111206D01*
X162524000Y-93100000D01*
X165748638Y-93100000D01*
X165815677Y-93119685D01*
G37*
%TD.AperFunction*%
%TD*%
%TA.AperFunction,Conductor*%
%TO.N,GND*%
G36*
X156580000Y-95950000D02*
G01*
X156460456Y-96079505D01*
X156462228Y-96073047D01*
X156522334Y-95927936D01*
X156522336Y-95927928D01*
X156554999Y-95763722D01*
X156555000Y-95763720D01*
X156555000Y-95650000D01*
X156580000Y-95950000D01*
G37*
%TD.AperFunction*%
%TA.AperFunction,Conductor*%
G36*
X153847772Y-96073047D02*
G01*
X153847975Y-96074938D01*
X153831650Y-96034127D01*
X153847772Y-96073047D01*
G37*
%TD.AperFunction*%
%TA.AperFunction,Conductor*%
G36*
X154609655Y-94830000D02*
G01*
X154521279Y-94830000D01*
X154357071Y-94862663D01*
X154357063Y-94862665D01*
X154202372Y-94926740D01*
X154202371Y-94926740D01*
X154063160Y-95019758D01*
X154063152Y-95019764D01*
X153944764Y-95138152D01*
X153944758Y-95138160D01*
X153851740Y-95277371D01*
X153851740Y-95277372D01*
X153787665Y-95432063D01*
X153787663Y-95432071D01*
X153755000Y-95596277D01*
X153755000Y-95763722D01*
X153784588Y-95912472D01*
X153750000Y-95800439D01*
X153750000Y-94650000D01*
X154609655Y-94830000D01*
G37*
%TD.AperFunction*%
%TA.AperFunction,Conductor*%
G36*
X156520000Y-95230000D02*
G01*
X156547295Y-95557548D01*
X156522336Y-95432071D01*
X156522334Y-95432063D01*
X156458260Y-95277374D01*
X156424314Y-95226571D01*
X156418749Y-95208799D01*
X156520000Y-95230000D01*
G37*
%TD.AperFunction*%
%TD*%
M02*
