M48
; DRILL file {KiCad 8.0.3} date 2024-10-12T12:31:44+0200
; FORMAT={-:-/ absolute / inch / decimal}
; #@! TF.CreationDate,2024-10-12T12:31:44+02:00
; #@! TF.GenerationSoftware,Kicad,Pcbnew,8.0.3
; #@! TF.FileFunction,Plated,1,8,PTH
FMAT,2
INCH
; #@! TA.AperFunction,Plated,PTH,ViaDrill
T1C0.0079
; #@! TA.AperFunction,Plated,PTH,ViaDrill
T2C0.0118
; #@! TA.AperFunction,Plated,PTH,ComponentDrill
T3C0.0157
; #@! TA.AperFunction,Plated,PTH,ComponentDrill
T4C0.0197
; #@! TA.AperFunction,Plated,PTH,ComponentDrill
T5C0.0236
; #@! TA.AperFunction,Plated,PTH,ComponentDrill
T6C0.0866
%
G90
G05
T1
X6.2146Y-3.8898
X6.2146Y-3.9291
X6.2146Y-4.0079
X6.2156Y-3.9685
X6.5138Y-3.5516
X6.6171Y-3.7274
X6.6171Y-3.747
X6.6171Y-3.9478
X6.622Y-3.9121
X6.6368Y-3.7274
X6.6368Y-3.747
X6.6368Y-3.8386
X6.6407Y-3.9478
X6.6673Y-3.81
X6.6673Y-3.872
X6.6752Y-3.9311
X6.687Y-3.6329
X6.687Y-3.81
X6.687Y-3.872
X6.6949Y-3.7569
X6.7165Y-3.6815
X6.7165Y-3.7116
X6.7283Y-3.9547
X6.7323Y-3.9035
X6.7323Y-3.9213
X6.8179Y-3.8937
X6.889Y-3.9291
X6.9163Y-3.5807
X6.9165Y-3.8935
X6.9341Y-3.536
X6.9378Y-3.9291
X6.9577Y-3.5364
X6.9754Y-3.5807
X6.9764Y-3.8937
X7.0Y-3.8937
X7.0984Y-4.0252
X7.0986Y-3.8839
X7.0998Y-3.922
X7.1398Y-4.0276
X7.2008Y-4.0276
X7.2008Y-4.0728
X7.2402Y-4.0404
X7.2736Y-4.0433
X7.2736Y-4.0748
X7.2844Y-4.0591
X7.2953Y-4.0433
X7.2953Y-4.0748
X7.5709Y-4.0906
X7.5709Y-4.1181
X7.6781Y-4.1811
X7.6781Y-4.2205
X7.6781Y-4.2598
X7.6781Y-4.2992
X7.7028Y-4.1417
T2
X5.9449Y-3.8189
X5.9449Y-3.878
X5.9449Y-3.937
X5.9449Y-3.9961
X5.9449Y-4.0551
X5.9646Y-3.5236
X5.9646Y-3.5827
X5.9646Y-3.6417
X5.9646Y-3.7008
X5.9646Y-4.1732
X5.9646Y-4.2323
X5.9646Y-4.2913
X5.9646Y-4.3504
X6.0039Y-3.8189
X6.0039Y-3.878
X6.0039Y-3.937
X6.0039Y-3.9961
X6.0039Y-4.0551
X6.0236Y-3.5236
X6.0236Y-3.5827
X6.0236Y-3.6417
X6.0236Y-3.7008
X6.0236Y-3.7598
X6.0236Y-4.1142
X6.0236Y-4.1732
X6.0236Y-4.2323
X6.0236Y-4.2913
X6.0236Y-4.3504
X6.0433Y-3.8583
X6.0433Y-3.8976
X6.0433Y-3.937
X6.0433Y-3.9764
X6.0433Y-4.0157
X6.0827Y-3.5236
X6.0827Y-3.8976
X6.0827Y-3.937
X6.0827Y-3.9764
X6.0827Y-4.3504
X6.0925Y-3.8583
X6.0925Y-4.0157
X6.1417Y-3.5236
X6.1417Y-4.3504
X6.1811Y-3.7402
X6.1811Y-3.7697
X6.2008Y-3.5236
X6.2008Y-4.1142
X6.2008Y-4.3504
X6.2037Y-3.8396
X6.2106Y-3.7402
X6.2106Y-3.7697
X6.2303Y-3.812
X6.2303Y-3.8396
X6.2402Y-3.7106
X6.2402Y-3.7402
X6.2402Y-3.7697
X6.252Y-3.8917
X6.2569Y-3.812
X6.2569Y-3.8396
X6.2598Y-3.9961
X6.2598Y-4.0551
X6.2598Y-4.1142
X6.2598Y-4.1732
X6.2598Y-4.2913
X6.2598Y-4.3504
X6.2795Y-4.2126
X6.2835Y-3.75
X6.2835Y-3.7776
X6.2835Y-3.8051
X6.2835Y-3.8327
X6.2894Y-3.6949
X6.2894Y-3.7224
X6.2938Y-3.5197
X6.3091Y-3.9409
X6.31Y-3.75
X6.31Y-3.7776
X6.31Y-3.8051
X6.31Y-3.8327
X6.311Y-4.2126
X6.3169Y-3.6673
X6.3169Y-3.6949
X6.3169Y-3.7224
X6.3189Y-3.9961
X6.3189Y-4.0551
X6.3189Y-4.1142
X6.3189Y-4.1732
X6.3189Y-4.2913
X6.3189Y-4.3504
X6.3346Y-3.7638
X6.3346Y-3.7913
X6.3346Y-3.8189
X6.3346Y-3.9094
X6.3406Y-3.9409
X6.3425Y-4.2126
X6.3445Y-3.6673
X6.3445Y-3.6949
X6.3445Y-3.7224
X6.3701Y-3.7618
X6.372Y-3.9409
X6.374Y-4.2126
X6.378Y-3.9961
X6.378Y-4.0551
X6.378Y-4.1142
X6.378Y-4.1732
X6.378Y-4.2913
X6.378Y-4.3504
X6.4055Y-3.6772
X6.4055Y-3.7047
X6.4055Y-3.7323
X6.4055Y-3.7598
X6.4055Y-3.7874
X6.4134Y-3.8543
X6.4331Y-3.6772
X6.4331Y-3.7047
X6.4331Y-3.7323
X6.4331Y-3.7598
X6.4331Y-3.7874
X6.437Y-3.8878
X6.437Y-3.9272
X6.437Y-3.9665
X6.437Y-4.0059
X6.437Y-4.0453
X6.437Y-4.0846
X6.437Y-4.124
X6.437Y-4.1634
X6.437Y-4.2028
X6.437Y-4.2421
X6.437Y-4.3504
X6.4528Y-3.8543
X6.4606Y-3.6772
X6.4606Y-3.7047
X6.4606Y-3.7323
X6.4606Y-3.7598
X6.4606Y-3.7874
X6.4764Y-3.8878
X6.4764Y-4.0059
X6.4764Y-4.0453
X6.4764Y-4.0846
X6.4764Y-4.124
X6.4764Y-4.1634
X6.4764Y-4.2815
X6.4823Y-3.9409
X6.4843Y-4.2126
X6.4882Y-3.6772
X6.4882Y-3.7047
X6.4882Y-3.7323
X6.4882Y-3.7598
X6.4882Y-3.7874
X6.4921Y-3.8543
X6.4961Y-4.3504
X6.5138Y-3.9409
X6.5157Y-3.7047
X6.5157Y-3.7323
X6.5157Y-3.7598
X6.5157Y-3.7874
X6.5157Y-3.8878
X6.5157Y-4.0059
X6.5157Y-4.0453
X6.5157Y-4.0846
X6.5157Y-4.124
X6.5157Y-4.1634
X6.5157Y-4.2126
X6.5157Y-4.2815
X6.5226Y-3.6772
X6.5315Y-3.8543
X6.5433Y-3.7323
X6.5433Y-3.7598
X6.5433Y-3.7874
X6.5453Y-3.9409
X6.5472Y-4.2126
X6.5551Y-3.7087
X6.5551Y-3.8878
X6.5551Y-4.0059
X6.5551Y-4.1634
X6.5551Y-4.2815
X6.5551Y-4.3504
X6.5709Y-3.8543
X6.5733Y-3.5256
X6.5733Y-3.5571
X6.5768Y-3.9409
X6.5787Y-4.2126
X6.5827Y-4.0748
X6.5856Y-3.7421
X6.5856Y-3.7884
X6.5866Y-3.8898
X6.5935Y-4.0344
X6.5935Y-4.1152
X6.5945Y-4.2815
X6.602Y-4.185
X6.6142Y-4.3504
X6.623Y-4.0049
X6.623Y-4.1447
X6.6339Y-4.2421
X6.6339Y-4.2815
X6.6634Y-3.9941
X6.6634Y-4.1555
X6.6634Y-4.2012
X6.6732Y-4.2421
X6.6732Y-4.2815
X6.6732Y-4.3504
X6.7037Y-4.0049
X6.7037Y-4.1447
X6.7126Y-4.2421
X6.7126Y-4.2815
X6.7252Y-4.185
X6.7323Y-4.3504
X6.7333Y-4.0344
X6.7333Y-4.1152
X6.7441Y-4.0748
X6.752Y-4.2028
X6.752Y-4.2421
X6.752Y-4.2815
X6.7864Y-4.1624
X6.7913Y-3.5114
X6.7913Y-4.2421
X6.7913Y-4.2815
X6.7913Y-4.3504
X6.811Y-3.6614
X6.811Y-3.7008
X6.811Y-3.7402
X6.811Y-3.7795
X6.811Y-3.8189
X6.8366Y-4.0669
X6.8504Y-3.6614
X6.8504Y-3.7008
X6.8504Y-3.7402
X6.8504Y-3.7795
X6.8504Y-3.8189
X6.8681Y-3.5075
X6.8681Y-3.5476
X6.8898Y-3.6614
X6.8898Y-3.7008
X6.8898Y-3.7402
X6.8898Y-3.7795
X6.8898Y-3.8189
X6.8898Y-4.1634
X6.8898Y-4.1929
X6.8898Y-4.2224
X6.8898Y-4.252
X6.8898Y-4.2815
X6.9055Y-3.5374
X6.9075Y-4.0669
X6.9193Y-4.1634
X6.9193Y-4.1929
X6.9193Y-4.2224
X6.9193Y-4.252
X6.9193Y-4.2815
X6.9291Y-3.6614
X6.9291Y-3.7008
X6.9291Y-3.7402
X6.9291Y-3.7795
X6.9291Y-3.8189
X6.9488Y-4.1634
X6.9488Y-4.1929
X6.9488Y-4.2224
X6.9488Y-4.252
X6.9488Y-4.2815
X6.9685Y-3.6614
X6.9685Y-3.7008
X6.9685Y-3.7402
X6.9685Y-3.7795
X6.9685Y-3.8189
X6.9783Y-4.0669
X6.9783Y-4.1634
X6.9783Y-4.1929
X6.9783Y-4.2224
X6.9783Y-4.252
X6.9783Y-4.2815
X7.0Y-3.5118
X7.0079Y-4.1339
X7.0079Y-4.1634
X7.0079Y-4.1929
X7.0079Y-4.2224
X7.0079Y-4.252
X7.0079Y-4.2815
X7.0394Y-3.5118
X7.0472Y-4.124
X7.0472Y-4.1535
X7.0472Y-4.1831
X7.0472Y-4.2126
X7.0472Y-4.2421
X7.0472Y-4.2717
X7.0472Y-4.3012
X7.0492Y-4.0669
X7.0768Y-4.124
X7.0768Y-4.1535
X7.0768Y-4.1831
X7.0768Y-4.2126
X7.0768Y-4.2421
X7.0768Y-4.2717
X7.0768Y-4.3012
X7.1024Y-3.5118
X7.1063Y-4.124
X7.1063Y-4.1535
X7.1063Y-4.1831
X7.1063Y-4.2126
X7.1063Y-4.2421
X7.1063Y-4.2717
X7.1063Y-4.3012
X7.1299Y-3.8583
X7.1299Y-3.8898
X7.1299Y-3.9213
X7.1299Y-3.9528
X7.1358Y-4.124
X7.1358Y-4.1535
X7.1358Y-4.1831
X7.1358Y-4.2126
X7.1358Y-4.2421
X7.1358Y-4.2717
X7.1457Y-3.5433
X7.1457Y-3.6024
X7.1457Y-3.6614
X7.1457Y-3.7205
X7.1614Y-3.8583
X7.1614Y-3.8898
X7.1614Y-3.9213
X7.1614Y-3.9528
X7.1729Y-4.2667
X7.1732Y-4.1614
X7.1732Y-4.187
X7.1732Y-4.2136
X7.1732Y-4.2402
X7.1988Y-4.3642
X7.2018Y-4.2667
X7.2021Y-4.1614
X7.2021Y-4.187
X7.2021Y-4.2136
X7.2021Y-4.2402
X7.2047Y-3.5433
X7.2047Y-3.6024
X7.2047Y-3.6614
X7.2047Y-3.7205
X7.231Y-4.1358
X7.231Y-4.1614
X7.231Y-4.187
X7.231Y-4.2136
X7.231Y-4.2402
X7.2476Y-4.2758
X7.2638Y-3.5433
X7.2638Y-3.6024
X7.2835Y-3.8583
X7.2835Y-3.8898
X7.2835Y-3.9213
X7.2933Y-3.5118
X7.2933Y-3.5433
X7.2933Y-3.5748
X7.2933Y-3.6063
X7.2933Y-3.7165
X7.2933Y-3.748
X7.2933Y-3.7795
X7.2933Y-3.811
X7.2933Y-4.124
X7.2933Y-4.1535
X7.2933Y-4.1831
X7.2933Y-4.2126
X7.2933Y-4.2421
X7.2933Y-4.2717
X7.315Y-3.8583
X7.315Y-3.8898
X7.315Y-3.9213
X7.3228Y-3.5433
X7.3228Y-3.6024
X7.3228Y-3.6811
X7.3228Y-3.7402
X7.3228Y-3.7992
X7.3228Y-4.124
X7.3228Y-4.1535
X7.3228Y-4.1831
X7.3228Y-4.2126
X7.3228Y-4.2421
X7.3228Y-4.2717
X7.3406Y-3.937
X7.3514Y-3.8967
X7.3514Y-3.9774
X7.3524Y-4.124
X7.3524Y-4.1535
X7.3524Y-4.1831
X7.3524Y-4.2126
X7.3524Y-4.2421
X7.3524Y-4.2717
X7.3809Y-3.8671
X7.3809Y-4.0069
X7.3819Y-3.5433
X7.3819Y-3.6024
X7.3819Y-3.6811
X7.3819Y-3.7402
X7.3819Y-3.7992
X7.3819Y-4.124
X7.3819Y-4.1535
X7.3819Y-4.1831
X7.3819Y-4.2126
X7.3819Y-4.2421
X7.3819Y-4.2717
X7.4213Y-3.8563
X7.4213Y-4.0177
X7.4311Y-4.124
X7.4311Y-4.1535
X7.4311Y-4.1831
X7.4311Y-4.2126
X7.4311Y-4.2421
X7.4409Y-3.5433
X7.4409Y-3.6024
X7.4409Y-3.6811
X7.4409Y-3.7402
X7.4409Y-3.7992
X7.4606Y-4.124
X7.4606Y-4.1535
X7.4606Y-4.1831
X7.4606Y-4.2126
X7.4616Y-3.8671
X7.4616Y-4.0069
X7.4807Y-4.2758
X7.4902Y-4.124
X7.4902Y-4.1535
X7.4902Y-4.1831
X7.4902Y-4.2126
X7.4912Y-3.8967
X7.4912Y-3.9774
X7.5Y-3.5433
X7.5Y-3.6024
X7.5Y-3.6811
X7.5Y-3.7402
X7.5Y-3.7992
X7.502Y-3.937
X7.5492Y-4.2815
X7.5591Y-3.6811
X7.5591Y-4.0256
X7.5669Y-3.5118
X7.5669Y-3.5433
X7.5669Y-3.5748
X7.5669Y-3.6063
X7.5669Y-3.7165
X7.5669Y-3.748
X7.5669Y-3.7795
X7.5669Y-3.811
X7.5669Y-3.874
X7.5669Y-3.9094
X7.5669Y-3.9488
X7.5669Y-3.9843
X7.5748Y-4.3602
X7.5886Y-4.0256
X7.5886Y-4.0551
X7.6181Y-3.5039
X7.6181Y-3.563
X7.6181Y-3.622
X7.6181Y-3.6811
X7.6181Y-3.7402
X7.6181Y-3.7992
X7.6181Y-3.8484
X7.6181Y-3.878
X7.6181Y-3.9075
X7.6181Y-3.937
X7.6181Y-3.9665
X7.6181Y-3.9961
X7.6181Y-4.0256
X7.6181Y-4.0551
X7.6476Y-3.8484
X7.6476Y-3.878
X7.6476Y-3.9075
X7.6476Y-3.937
X7.6476Y-3.9665
X7.6476Y-3.9961
X7.6476Y-4.0256
X7.6476Y-4.0551
X7.6732Y-3.5039
X7.6732Y-3.563
X7.6732Y-3.622
X7.6772Y-3.6811
X7.6772Y-3.7402
X7.6772Y-3.7992
X7.6772Y-4.0256
X7.6772Y-4.0551
X7.7175Y-3.5295
X7.7175Y-3.5551
X7.7175Y-3.5807
X7.7175Y-3.6063
X7.7175Y-3.6319
X7.7431Y-3.5295
X7.7431Y-3.5551
X7.7431Y-3.5807
X7.7431Y-3.6063
X7.7431Y-3.6319
X7.7559Y-3.713
X7.7559Y-3.7858
X7.7687Y-3.5295
X7.7687Y-3.5551
X7.7687Y-3.5807
X7.7687Y-3.6063
X7.7687Y-3.6319
X7.7943Y-3.5295
X7.7943Y-3.5551
X7.7943Y-3.5807
X7.7943Y-3.6063
X7.7943Y-3.6319
X7.7992Y-3.7953
X7.7992Y-3.8209
X7.8012Y-3.6772
X7.8012Y-3.7037
X7.8071Y-4.0512
X7.8071Y-4.3504
X7.8248Y-3.7953
X7.8248Y-3.8209
X7.8248Y-3.8465
X7.8278Y-3.5709
X7.8278Y-3.5974
X7.8278Y-3.624
X7.8278Y-3.6506
X7.8278Y-3.6772
X7.8278Y-3.7037
X7.8406Y-3.5374
X7.8504Y-3.7953
X7.8504Y-3.8209
X7.8504Y-3.8465
X7.8504Y-3.872
X7.8543Y-3.5709
X7.8543Y-3.5974
X7.8543Y-3.624
X7.8543Y-3.6506
X7.8543Y-3.6772
X7.8543Y-3.7037
X7.8543Y-4.0512
X7.8543Y-4.3504
T3
X6.0858Y-3.6417
X6.0858Y-4.2323
X6.1049Y-3.5958
X6.1049Y-3.6877
X6.1049Y-4.1863
X6.1049Y-4.2782
X6.1508Y-3.5768
X6.1508Y-3.7067
X6.1508Y-4.1673
X6.1508Y-4.2972
X6.1967Y-3.5958
X6.1967Y-3.6877
X6.1967Y-4.1863
X6.1967Y-4.2782
X6.2157Y-3.6417
X6.2157Y-4.2323
X7.7106Y-3.937
X7.7297Y-3.8911
X7.7297Y-3.9829
X7.7756Y-3.872
X7.7756Y-4.002
X7.8215Y-3.8911
X7.8215Y-3.9829
X7.8406Y-3.937
T6
X6.1508Y-3.6417
X6.1508Y-4.2323
X7.7756Y-3.937
T4
G00X7.0709Y-4.3504
M15
G01X6.874Y-4.3504
M16
G05
G00X7.4646Y-4.3504
M15
G01X7.2677Y-4.3504
M16
G05
T5
G00X5.9557Y-3.7669
M15
G01X5.9321Y-3.7669
M16
G05
G00X5.9557Y-4.1071
M15
G01X5.9321Y-4.1071
M16
G05
G00X6.1301Y-3.7669
M15
G01X6.0868Y-3.7669
M16
G05
G00X6.1301Y-4.1071
M15
G01X6.0868Y-4.1071
M16
G05
M30
