%TF.GenerationSoftware,KiCad,Pcbnew,8.0.3*%
%TF.CreationDate,2024-10-12T12:31:44+02:00*%
%TF.ProjectId,Parkside-100W-Brick,5061726b-7369-4646-952d-313030572d42,rev?*%
%TF.SameCoordinates,Original*%
%TF.FileFunction,Legend,Top*%
%TF.FilePolarity,Positive*%
%FSLAX46Y46*%
G04 Gerber Fmt 4.6, Leading zero omitted, Abs format (unit mm)*
G04 Created by KiCad (PCBNEW 8.0.3) date 2024-10-12 12:31:44*
%MOMM*%
%LPD*%
G01*
G04 APERTURE LIST*
G04 Aperture macros list*
%AMRoundRect*
0 Rectangle with rounded corners*
0 $1 Rounding radius*
0 $2 $3 $4 $5 $6 $7 $8 $9 X,Y pos of 4 corners*
0 Add a 4 corners polygon primitive as box body*
4,1,4,$2,$3,$4,$5,$6,$7,$8,$9,$2,$3,0*
0 Add four circle primitives for the rounded corners*
1,1,$1+$1,$2,$3*
1,1,$1+$1,$4,$5*
1,1,$1+$1,$6,$7*
1,1,$1+$1,$8,$9*
0 Add four rect primitives between the rounded corners*
20,1,$1+$1,$2,$3,$4,$5,0*
20,1,$1+$1,$4,$5,$6,$7,0*
20,1,$1+$1,$6,$7,$8,$9,0*
20,1,$1+$1,$8,$9,$2,$3,0*%
%AMRotRect*
0 Rectangle, with rotation*
0 The origin of the aperture is its center*
0 $1 length*
0 $2 width*
0 $3 Rotation angle, in degrees counterclockwise*
0 Add horizontal line*
21,1,$1,$2,0,0,$3*%
%AMFreePoly0*
4,1,5,0.110000,-0.125000,-0.110000,-0.125000,-0.110000,0.125000,0.360000,0.125000,0.110000,-0.125000,0.110000,-0.125000,$1*%
%AMFreePoly1*
4,1,6,0.290000,-0.055000,0.290000,-0.125000,-0.110000,-0.125000,-0.110000,0.125000,0.110000,0.125000,0.290000,-0.055000,0.290000,-0.055000,$1*%
%AMFreePoly2*
4,1,7,0.110000,-0.125000,-0.110000,-0.125000,-0.290000,-0.125000,-0.290000,-0.055000,-0.110000,0.125000,0.110000,0.125000,0.110000,-0.125000,0.110000,-0.125000,$1*%
%AMFreePoly3*
4,1,6,0.110000,-0.125000,-0.110000,-0.125000,-0.290000,0.055000,-0.290000,0.125000,0.110000,0.125000,0.110000,-0.125000,0.110000,-0.125000,$1*%
%AMFreePoly4*
4,1,93,-1.755578,2.630679,-1.440813,2.572996,-1.135297,2.477793,-0.843484,2.346458,-0.569628,2.180907,-0.317725,1.983553,-0.091447,1.757275,0.105907,1.505372,0.271458,1.231516,0.402793,0.939703,0.497996,0.634187,0.555679,0.319422,0.575000,0.000000,0.555679,-0.319422,0.497996,-0.634187,0.402793,-0.939703,0.271458,-1.231516,0.105907,-1.505372,-0.091447,-1.757275,-0.317725,-1.983553,
-0.569628,-2.180907,-0.843484,-2.346458,-1.135297,-2.477793,-1.440813,-2.572996,-1.755578,-2.630679,-2.075000,-2.650000,-2.394422,-2.630679,-2.709187,-2.572996,-3.014703,-2.477793,-3.306516,-2.346458,-3.580372,-2.180907,-3.832275,-1.983553,-4.058553,-1.757275,-4.255907,-1.505372,-4.421458,-1.231516,-4.552793,-0.939703,-4.647996,-0.634187,-4.705679,-0.319422,-4.725000,0.000000,-3.580141,0.000000,
-3.559613,-0.247738,-3.498588,-0.488718,-3.398732,-0.716368,-3.262768,-0.924477,-3.094404,-1.107368,-2.898234,-1.260054,-2.679608,-1.378368,-2.444490,-1.459084,-2.199294,-1.500000,-1.950706,-1.500000,-1.705510,-1.459084,-1.470392,-1.378368,-1.251766,-1.260054,-1.055596,-1.107368,-0.887232,-0.924477,-0.751268,-0.716368,-0.651412,-0.488718,-0.590387,-0.247738,-0.569859,0.000000,-0.590387,0.247738,
-0.651412,0.488718,-0.751268,0.716368,-0.887232,0.924477,-1.055596,1.107368,-1.251766,1.260054,-1.470392,1.378368,-1.705510,1.459084,-1.950706,1.500000,-2.199294,1.500000,-2.444490,1.459084,-2.679608,1.378368,-2.898234,1.260054,-3.094404,1.107368,-3.262768,0.924477,-3.398732,0.716368,-3.498588,0.488718,-3.559613,0.247738,-3.580141,0.000000,-4.725000,0.000000,-4.705679,0.319422,
-4.647996,0.634187,-4.552793,0.939703,-4.421458,1.231516,-4.255907,1.505372,-4.058553,1.757275,-3.832275,1.983553,-3.580372,2.180907,-3.306516,2.346458,-3.014703,2.477793,-2.709187,2.572996,-2.394422,2.630679,-2.075000,2.650000,-1.755578,2.630679,-1.755578,2.630679,$1*%
%AMFreePoly5*
4,1,17,2.400000,-0.600000,2.310008,-0.600000,2.310008,-1.549987,1.510008,-1.549987,1.510008,-0.700000,1.040005,-0.700000,1.040005,-1.549987,0.240005,-1.549987,0.240005,-0.700000,-0.229997,-0.700000,-0.229997,-1.549987,-1.014986,-1.549987,-1.014986,0.164999,-2.400000,0.164999,-2.400000,0.700000,2.394996,0.700000,2.400000,-0.600000,2.400000,-0.600000,$1*%
%AMFreePoly6*
4,1,9,3.862500,-0.866500,0.737500,-0.866500,0.737500,-0.450000,-0.737500,-0.450000,-0.737500,0.450000,0.737500,0.450000,0.737500,0.866500,3.862500,0.866500,3.862500,-0.866500,3.862500,-0.866500,$1*%
G04 Aperture macros list end*
%ADD10C,0.200000*%
%ADD11C,0.100000*%
%ADD12C,0.120000*%
%ADD13C,0.000000*%
%ADD14RoundRect,0.225000X0.250000X-0.225000X0.250000X0.225000X-0.250000X0.225000X-0.250000X-0.225000X0*%
%ADD15RoundRect,0.140000X-0.170000X0.140000X-0.170000X-0.140000X0.170000X-0.140000X0.170000X0.140000X0*%
%ADD16RoundRect,0.250000X-0.312500X-0.625000X0.312500X-0.625000X0.312500X0.625000X-0.312500X0.625000X0*%
%ADD17RoundRect,0.135000X-0.185000X0.135000X-0.185000X-0.135000X0.185000X-0.135000X0.185000X0.135000X0*%
%ADD18RoundRect,0.250000X-0.475000X0.250000X-0.475000X-0.250000X0.475000X-0.250000X0.475000X0.250000X0*%
%ADD19RoundRect,0.203125X1.446875X0.446875X-1.446875X0.446875X-1.446875X-0.446875X1.446875X-0.446875X0*%
%ADD20R,0.400000X0.700000*%
%ADD21RoundRect,0.140000X-0.140000X-0.170000X0.140000X-0.170000X0.140000X0.170000X-0.140000X0.170000X0*%
%ADD22RoundRect,0.050000X-0.250000X0.250000X-0.250000X-0.250000X0.250000X-0.250000X0.250000X0.250000X0*%
%ADD23RoundRect,0.150000X0.512500X0.150000X-0.512500X0.150000X-0.512500X-0.150000X0.512500X-0.150000X0*%
%ADD24RoundRect,0.140000X0.140000X0.170000X-0.140000X0.170000X-0.140000X-0.170000X0.140000X-0.170000X0*%
%ADD25RoundRect,0.062500X-0.362500X-0.062500X0.362500X-0.062500X0.362500X0.062500X-0.362500X0.062500X0*%
%ADD26RoundRect,0.062500X-0.062500X-0.362500X0.062500X-0.362500X0.062500X0.362500X-0.062500X0.362500X0*%
%ADD27R,5.450000X5.450000*%
%ADD28RoundRect,0.135000X0.135000X0.185000X-0.135000X0.185000X-0.135000X-0.185000X0.135000X-0.185000X0*%
%ADD29R,0.700000X0.420000*%
%ADD30R,0.450000X0.420000*%
%ADD31R,1.930000X2.490000*%
%ADD32RoundRect,0.140000X0.170000X-0.140000X0.170000X0.140000X-0.170000X0.140000X-0.170000X-0.140000X0*%
%ADD33RoundRect,0.250000X0.250000X0.475000X-0.250000X0.475000X-0.250000X-0.475000X0.250000X-0.475000X0*%
%ADD34C,0.700000*%
%ADD35C,4.400000*%
%ADD36RoundRect,0.225000X0.225000X0.250000X-0.225000X0.250000X-0.225000X-0.250000X0.225000X-0.250000X0*%
%ADD37RoundRect,0.135000X0.185000X-0.135000X0.185000X0.135000X-0.185000X0.135000X-0.185000X-0.135000X0*%
%ADD38RoundRect,0.135000X-0.135000X-0.185000X0.135000X-0.185000X0.135000X0.185000X-0.135000X0.185000X0*%
%ADD39FreePoly0,0.000000*%
%ADD40FreePoly1,0.000000*%
%ADD41FreePoly2,0.000000*%
%ADD42FreePoly3,0.000000*%
%ADD43RotRect,0.480000X0.480000X45.000000*%
%ADD44RoundRect,0.203125X0.446875X-1.446875X0.446875X1.446875X-0.446875X1.446875X-0.446875X-1.446875X0*%
%ADD45RoundRect,0.250000X-0.625000X0.375000X-0.625000X-0.375000X0.625000X-0.375000X0.625000X0.375000X0*%
%ADD46C,3.000000*%
%ADD47FreePoly4,0.000000*%
%ADD48C,0.650000*%
%ADD49R,1.450000X0.600000*%
%ADD50R,1.450000X0.300000*%
%ADD51O,2.100000X1.000000*%
%ADD52O,1.600000X1.000000*%
%ADD53RoundRect,0.085000X-0.265000X-0.085000X0.265000X-0.085000X0.265000X0.085000X-0.265000X0.085000X0*%
%ADD54R,1.000000X0.800000*%
%ADD55FreePoly5,90.000000*%
%ADD56R,2.600000X4.800000*%
%ADD57FreePoly5,270.000000*%
%ADD58RoundRect,0.150000X0.625000X-0.150000X0.625000X0.150000X-0.625000X0.150000X-0.625000X-0.150000X0*%
%ADD59RoundRect,0.250000X0.650000X-0.350000X0.650000X0.350000X-0.650000X0.350000X-0.650000X-0.350000X0*%
%ADD60RoundRect,0.225000X0.225000X-0.425000X0.225000X0.425000X-0.225000X0.425000X-0.225000X-0.425000X0*%
%ADD61FreePoly6,90.000000*%
%ADD62RoundRect,0.225000X-0.225000X-0.250000X0.225000X-0.250000X0.225000X0.250000X-0.225000X0.250000X0*%
%ADD63R,0.450000X0.700000*%
%ADD64RoundRect,0.250000X0.625000X-0.312500X0.625000X0.312500X-0.625000X0.312500X-0.625000X-0.312500X0*%
%ADD65RoundRect,0.050000X0.350000X-0.225000X0.350000X0.225000X-0.350000X0.225000X-0.350000X-0.225000X0*%
%ADD66R,6.500000X1.500000*%
G04 APERTURE END LIST*
D10*
G36*
X196558241Y-105299871D02*
G01*
X196555692Y-105341028D01*
X196546277Y-105384355D01*
X196529924Y-105422634D01*
X196506633Y-105455863D01*
X196485750Y-105476508D01*
X196452286Y-105500566D01*
X196415326Y-105518716D01*
X196374869Y-105530956D01*
X196330915Y-105537287D01*
X196304228Y-105538252D01*
X196259058Y-105535447D01*
X196217066Y-105527032D01*
X196178253Y-105513007D01*
X196142619Y-105493372D01*
X196123684Y-105479634D01*
X196094981Y-105451183D01*
X196073328Y-105417123D01*
X196058725Y-105377453D01*
X196051819Y-105338984D01*
X196050020Y-105303779D01*
X196195589Y-105303779D01*
X196201536Y-105343957D01*
X196222895Y-105378151D01*
X196226657Y-105381546D01*
X196261535Y-105401183D01*
X196301154Y-105407703D01*
X196304033Y-105407729D01*
X196343014Y-105402194D01*
X196378771Y-105382312D01*
X196382581Y-105378810D01*
X196405150Y-105343786D01*
X196412555Y-105303442D01*
X196412672Y-105296940D01*
X196406987Y-105256928D01*
X196386569Y-105220817D01*
X196382972Y-105217024D01*
X196347752Y-105194749D01*
X196307558Y-105187440D01*
X196301102Y-105187324D01*
X196279804Y-105187324D01*
X196279804Y-105056801D01*
X196300711Y-105056801D01*
X196339521Y-105051752D01*
X196373777Y-105032045D01*
X196375352Y-105030422D01*
X196395417Y-104995210D01*
X196400167Y-104960471D01*
X196394070Y-104921522D01*
X196372421Y-104888175D01*
X196336941Y-104867162D01*
X196303447Y-104862188D01*
X196263765Y-104869191D01*
X196235254Y-104887003D01*
X196213293Y-104920793D01*
X196208094Y-104955196D01*
X196062526Y-104955196D01*
X196065836Y-104912402D01*
X196075765Y-104873611D01*
X196095219Y-104834178D01*
X196123319Y-104799972D01*
X196131695Y-104792237D01*
X196163565Y-104768635D01*
X196198651Y-104750830D01*
X196236954Y-104738822D01*
X196278473Y-104732611D01*
X196303642Y-104731665D01*
X196348237Y-104734675D01*
X196389186Y-104743707D01*
X196426488Y-104758761D01*
X196460144Y-104779835D01*
X196477739Y-104794581D01*
X196504234Y-104823847D01*
X196526545Y-104861552D01*
X196540357Y-104903800D01*
X196545470Y-104944493D01*
X196545736Y-104956759D01*
X196542541Y-104996777D01*
X196530741Y-105037753D01*
X196510244Y-105072576D01*
X196481052Y-105101247D01*
X196454877Y-105117959D01*
X196490005Y-105141083D01*
X196517865Y-105169278D01*
X196538457Y-105202541D01*
X196551781Y-105240874D01*
X196557837Y-105284277D01*
X196558241Y-105299871D01*
G37*
G36*
X196845666Y-105532000D02*
G01*
X196683098Y-105532000D01*
X196683098Y-105369431D01*
X196845666Y-105369431D01*
X196845666Y-105532000D01*
G37*
G36*
X197485191Y-105299871D02*
G01*
X197482643Y-105341028D01*
X197473228Y-105384355D01*
X197456875Y-105422634D01*
X197433584Y-105455863D01*
X197412700Y-105476508D01*
X197379237Y-105500566D01*
X197342277Y-105518716D01*
X197301819Y-105530956D01*
X197257865Y-105537287D01*
X197231179Y-105538252D01*
X197186008Y-105535447D01*
X197144016Y-105527032D01*
X197105203Y-105513007D01*
X197069569Y-105493372D01*
X197050635Y-105479634D01*
X197021932Y-105451183D01*
X197000279Y-105417123D01*
X196985675Y-105377453D01*
X196978769Y-105338984D01*
X196976971Y-105303779D01*
X197122540Y-105303779D01*
X197128486Y-105343957D01*
X197149845Y-105378151D01*
X197153607Y-105381546D01*
X197188485Y-105401183D01*
X197228104Y-105407703D01*
X197230983Y-105407729D01*
X197269965Y-105402194D01*
X197305722Y-105382312D01*
X197309532Y-105378810D01*
X197332100Y-105343786D01*
X197339505Y-105303442D01*
X197339623Y-105296940D01*
X197333938Y-105256928D01*
X197313519Y-105220817D01*
X197309923Y-105217024D01*
X197274703Y-105194749D01*
X197234509Y-105187440D01*
X197228053Y-105187324D01*
X197206755Y-105187324D01*
X197206755Y-105056801D01*
X197227662Y-105056801D01*
X197266472Y-105051752D01*
X197300727Y-105032045D01*
X197302302Y-105030422D01*
X197322368Y-104995210D01*
X197327117Y-104960471D01*
X197321021Y-104921522D01*
X197299371Y-104888175D01*
X197263891Y-104867162D01*
X197230397Y-104862188D01*
X197190715Y-104869191D01*
X197162205Y-104887003D01*
X197140243Y-104920793D01*
X197135045Y-104955196D01*
X196989476Y-104955196D01*
X196992786Y-104912402D01*
X197002716Y-104873611D01*
X197022170Y-104834178D01*
X197050270Y-104799972D01*
X197058646Y-104792237D01*
X197090516Y-104768635D01*
X197125602Y-104750830D01*
X197163904Y-104738822D01*
X197205423Y-104732611D01*
X197230593Y-104731665D01*
X197275188Y-104734675D01*
X197316136Y-104743707D01*
X197353439Y-104758761D01*
X197387094Y-104779835D01*
X197404689Y-104794581D01*
X197431184Y-104823847D01*
X197453496Y-104861552D01*
X197467307Y-104903800D01*
X197472421Y-104944493D01*
X197472686Y-104956759D01*
X197469492Y-104996777D01*
X197457691Y-105037753D01*
X197437195Y-105072576D01*
X197408003Y-105101247D01*
X197381828Y-105117959D01*
X197416955Y-105141083D01*
X197444815Y-105169278D01*
X197465407Y-105202541D01*
X197478731Y-105240874D01*
X197484788Y-105284277D01*
X197485191Y-105299871D01*
G37*
G36*
X198182358Y-104731665D02*
G01*
X197917990Y-105532000D01*
X197801535Y-105532000D01*
X197538339Y-104731665D01*
X197699734Y-104731665D01*
X197859762Y-105253172D01*
X198019986Y-104731665D01*
X198182358Y-104731665D01*
G37*
G36*
X196446898Y-103733801D02*
G01*
X196490606Y-103741694D01*
X196529545Y-103755402D01*
X196563717Y-103774926D01*
X196585205Y-103792432D01*
X196613672Y-103825478D01*
X196634005Y-103863849D01*
X196645125Y-103901791D01*
X196650017Y-103943809D01*
X196650272Y-103956563D01*
X196646808Y-103996175D01*
X196635131Y-104034753D01*
X196620963Y-104060513D01*
X196596181Y-104091439D01*
X196565184Y-104116784D01*
X196556482Y-104121672D01*
X196592606Y-104143708D01*
X196621256Y-104171131D01*
X196645234Y-104209930D01*
X196657691Y-104249021D01*
X196662673Y-104293498D01*
X196662777Y-104301434D01*
X196660428Y-104340690D01*
X196651748Y-104382182D01*
X196636673Y-104419037D01*
X196611614Y-104455478D01*
X196595952Y-104471427D01*
X196564678Y-104495029D01*
X196529327Y-104512834D01*
X196489900Y-104524842D01*
X196446396Y-104531053D01*
X196419706Y-104532000D01*
X196087536Y-104532000D01*
X196087536Y-104394442D01*
X196237599Y-104394442D01*
X196405247Y-104394442D01*
X196446088Y-104388982D01*
X196481405Y-104369369D01*
X196484968Y-104365914D01*
X196506618Y-104331358D01*
X196512714Y-104293814D01*
X196505778Y-104254149D01*
X196484968Y-104222300D01*
X196451165Y-104201344D01*
X196411649Y-104194467D01*
X196405247Y-104194358D01*
X196237599Y-104194358D01*
X196237599Y-104394442D01*
X196087536Y-104394442D01*
X196087536Y-104056801D01*
X196237599Y-104056801D01*
X196394305Y-104056801D01*
X196434173Y-104051864D01*
X196470718Y-104032595D01*
X196472463Y-104031009D01*
X196494898Y-103996799D01*
X196500209Y-103963011D01*
X196492378Y-103922801D01*
X196472463Y-103895014D01*
X196436683Y-103874889D01*
X196397446Y-103869247D01*
X196394305Y-103869222D01*
X196237599Y-103869222D01*
X196237599Y-104056801D01*
X196087536Y-104056801D01*
X196087536Y-103731665D01*
X196405638Y-103731665D01*
X196446898Y-103733801D01*
G37*
G36*
X197445917Y-104532000D02*
G01*
X197283545Y-104532000D01*
X197236454Y-104394442D01*
X196953133Y-104394442D01*
X196905066Y-104532000D01*
X196742693Y-104532000D01*
X196839820Y-104263919D01*
X196996901Y-104263919D01*
X197195031Y-104263919D01*
X197097725Y-103970046D01*
X196996901Y-104263919D01*
X196839820Y-104263919D01*
X197032658Y-103731665D01*
X197154780Y-103731665D01*
X197445917Y-104532000D01*
G37*
G36*
X197996929Y-103869222D02*
G01*
X197784340Y-103869222D01*
X197784340Y-104532000D01*
X197634277Y-104532000D01*
X197634277Y-103869222D01*
X197421688Y-103869222D01*
X197421688Y-103731665D01*
X197996929Y-103731665D01*
X197996929Y-103869222D01*
G37*
G36*
X196600251Y-107295963D02*
G01*
X196597345Y-107336744D01*
X196586610Y-107379981D01*
X196567965Y-107418543D01*
X196541410Y-107452429D01*
X196517599Y-107473772D01*
X196485025Y-107495685D01*
X196449290Y-107513065D01*
X196410396Y-107525910D01*
X196368342Y-107534222D01*
X196323128Y-107538000D01*
X196307355Y-107538252D01*
X196267281Y-107537177D01*
X196224459Y-107533315D01*
X196184812Y-107526644D01*
X196144005Y-107515782D01*
X196106291Y-107500575D01*
X196070524Y-107480453D01*
X196036704Y-107455416D01*
X196018757Y-107439383D01*
X196117431Y-107339341D01*
X196149985Y-107365988D01*
X196188149Y-107386090D01*
X196231923Y-107399648D01*
X196273908Y-107406059D01*
X196312044Y-107407729D01*
X196353136Y-107405305D01*
X196393253Y-107396000D01*
X196427380Y-107376322D01*
X196449667Y-107342201D01*
X196454682Y-107308468D01*
X196448527Y-107269683D01*
X196430062Y-107240862D01*
X196394123Y-107221139D01*
X196359134Y-107212725D01*
X196262609Y-107199243D01*
X196220190Y-107190988D01*
X196182521Y-107179218D01*
X196145286Y-107161462D01*
X196110812Y-107135997D01*
X196107466Y-107132809D01*
X196082334Y-107101412D01*
X196064382Y-107064665D01*
X196053611Y-107022570D01*
X196050077Y-106981349D01*
X196050020Y-106975126D01*
X196052638Y-106935584D01*
X196062307Y-106893219D01*
X196079101Y-106854913D01*
X196103019Y-106820664D01*
X196124466Y-106798685D01*
X196159532Y-106772570D01*
X196199591Y-106752870D01*
X196237901Y-106741089D01*
X196279880Y-106734021D01*
X196325526Y-106731665D01*
X196373905Y-106733849D01*
X196419144Y-106740404D01*
X196461244Y-106751328D01*
X196500206Y-106766622D01*
X196536028Y-106786285D01*
X196568712Y-106810318D01*
X196580907Y-106821155D01*
X196486727Y-106918071D01*
X196454658Y-106893622D01*
X196416287Y-106876159D01*
X196377544Y-106866608D01*
X196333976Y-106862406D01*
X196320642Y-106862188D01*
X196279407Y-106866227D01*
X196241163Y-106881150D01*
X196228025Y-106890911D01*
X196203698Y-106923200D01*
X196195589Y-106963011D01*
X196204825Y-107001602D01*
X196219232Y-107020066D01*
X196253354Y-107041304D01*
X196292896Y-107051525D01*
X196386880Y-107065203D01*
X196428549Y-107073090D01*
X196470400Y-107085928D01*
X196506096Y-107102845D01*
X196538897Y-107126752D01*
X196565739Y-107159163D01*
X196584912Y-107198168D01*
X196595398Y-107237708D01*
X196600011Y-107282296D01*
X196600251Y-107295963D01*
G37*
G36*
X197077032Y-106733530D02*
G01*
X197121839Y-106740692D01*
X197162551Y-106753226D01*
X197199169Y-106771132D01*
X197231693Y-106794410D01*
X197246420Y-106808064D01*
X197272798Y-106838154D01*
X197292728Y-106871762D01*
X197307187Y-106903612D01*
X197316762Y-106940150D01*
X197322428Y-106973953D01*
X197324773Y-107012837D01*
X197324773Y-107049376D01*
X197324773Y-107089822D01*
X197324773Y-107128510D01*
X197324773Y-107167394D01*
X197324773Y-107206539D01*
X197324773Y-107208427D01*
X197324773Y-107245942D01*
X197322572Y-107285273D01*
X197322428Y-107285998D01*
X197316762Y-107320778D01*
X197307187Y-107358489D01*
X197292728Y-107391706D01*
X197272798Y-107425900D01*
X197246420Y-107455600D01*
X197215943Y-107481564D01*
X197181372Y-107502156D01*
X197142706Y-107517376D01*
X197099947Y-107527225D01*
X197053094Y-107531701D01*
X197036566Y-107532000D01*
X196749532Y-107532000D01*
X196749532Y-107394442D01*
X196899595Y-107394442D01*
X197020348Y-107394442D01*
X197061501Y-107390501D01*
X197100374Y-107376876D01*
X197132034Y-107353521D01*
X197140125Y-107344616D01*
X197159799Y-107309136D01*
X197168262Y-107272907D01*
X197172191Y-107231077D01*
X197173948Y-107190004D01*
X197174653Y-107146513D01*
X197174710Y-107128510D01*
X197174401Y-107088891D01*
X197173293Y-107049794D01*
X197170774Y-107010196D01*
X197168262Y-106988608D01*
X197158101Y-106949431D01*
X197140125Y-106919048D01*
X197110629Y-106892772D01*
X197073920Y-106876229D01*
X197034715Y-106869660D01*
X197020348Y-106869222D01*
X196899595Y-106869222D01*
X196899595Y-107394442D01*
X196749532Y-107394442D01*
X196749532Y-106731665D01*
X197036566Y-106731665D01*
X197077032Y-106733530D01*
G37*
G36*
X198097752Y-107532000D02*
G01*
X197935380Y-107532000D01*
X197888290Y-107394442D01*
X197604968Y-107394442D01*
X197556901Y-107532000D01*
X197394528Y-107532000D01*
X197491655Y-107263919D01*
X197648736Y-107263919D01*
X197846866Y-107263919D01*
X197749560Y-106970046D01*
X197648736Y-107263919D01*
X197491655Y-107263919D01*
X197684494Y-106731665D01*
X197806615Y-106731665D01*
X198097752Y-107532000D01*
G37*
G36*
X196650272Y-109205105D02*
G01*
X196649185Y-109246809D01*
X196645364Y-109289027D01*
X196637891Y-109330097D01*
X196632882Y-109348329D01*
X196618243Y-109385206D01*
X196597972Y-109419265D01*
X196574654Y-109447785D01*
X196540429Y-109478529D01*
X196502673Y-109502913D01*
X196461386Y-109520936D01*
X196416568Y-109532598D01*
X196376523Y-109537457D01*
X196351318Y-109538252D01*
X196305239Y-109535195D01*
X196261962Y-109526025D01*
X196221488Y-109510740D01*
X196183817Y-109489342D01*
X196148948Y-109461831D01*
X196137948Y-109451302D01*
X196112058Y-109421797D01*
X196092226Y-109390729D01*
X196077391Y-109352368D01*
X196069399Y-109313985D01*
X196068974Y-109311009D01*
X196064345Y-109270293D01*
X196062526Y-109234219D01*
X196062526Y-109194993D01*
X196062526Y-109152046D01*
X196062526Y-109135154D01*
X196062526Y-109095235D01*
X196062526Y-109055437D01*
X196062526Y-109035893D01*
X196064799Y-108994871D01*
X196068974Y-108959103D01*
X196076694Y-108920186D01*
X196090188Y-108883403D01*
X196092226Y-108879383D01*
X196113499Y-108846370D01*
X196137948Y-108818615D01*
X196171882Y-108789065D01*
X196208620Y-108765630D01*
X196248159Y-108748307D01*
X196290502Y-108737099D01*
X196335647Y-108732004D01*
X196351318Y-108731665D01*
X196397796Y-108734199D01*
X196440510Y-108741804D01*
X196479459Y-108754478D01*
X196514644Y-108772221D01*
X196550935Y-108799329D01*
X196555701Y-108803765D01*
X196586016Y-108837057D01*
X196610796Y-108873847D01*
X196630041Y-108914133D01*
X196642131Y-108951447D01*
X196649099Y-108984505D01*
X196496887Y-108984505D01*
X196483098Y-108945327D01*
X196459197Y-108909864D01*
X196426881Y-108885434D01*
X196386150Y-108872037D01*
X196351905Y-108869222D01*
X196311340Y-108874302D01*
X196274145Y-108891429D01*
X196251081Y-108912209D01*
X196229456Y-108946823D01*
X196219818Y-108981183D01*
X196215413Y-109023452D01*
X196213605Y-109062775D01*
X196212765Y-109104496D01*
X196212588Y-109138475D01*
X196212843Y-109178853D01*
X196213782Y-109219675D01*
X196216006Y-109262213D01*
X196219818Y-109296354D01*
X196231346Y-109335384D01*
X196251081Y-109365719D01*
X196282204Y-109391319D01*
X196321350Y-109405103D01*
X196351905Y-109407729D01*
X196392979Y-109403168D01*
X196431770Y-109387617D01*
X196463866Y-109361030D01*
X196486012Y-109325996D01*
X196497334Y-109287171D01*
X196500209Y-109250632D01*
X196500209Y-109219369D01*
X196351905Y-109219369D01*
X196351905Y-109088845D01*
X196650272Y-109088845D01*
X196650272Y-109205105D01*
G37*
G36*
X197425596Y-109532000D02*
G01*
X197291751Y-109532000D01*
X196962903Y-109040778D01*
X196962903Y-109532000D01*
X196812840Y-109532000D01*
X196812840Y-108731665D01*
X196946685Y-108731665D01*
X197275533Y-109221713D01*
X197275533Y-108731665D01*
X197425596Y-108731665D01*
X197425596Y-109532000D01*
G37*
G36*
X197935985Y-108733530D02*
G01*
X197980792Y-108740692D01*
X198021504Y-108753226D01*
X198058122Y-108771132D01*
X198090646Y-108794410D01*
X198105373Y-108808064D01*
X198131751Y-108838154D01*
X198151681Y-108871762D01*
X198166140Y-108903612D01*
X198175715Y-108940150D01*
X198181381Y-108973953D01*
X198183726Y-109012837D01*
X198183726Y-109049376D01*
X198183726Y-109089822D01*
X198183726Y-109128510D01*
X198183726Y-109167394D01*
X198183726Y-109206539D01*
X198183726Y-109208427D01*
X198183726Y-109245942D01*
X198181525Y-109285273D01*
X198181381Y-109285998D01*
X198175715Y-109320778D01*
X198166140Y-109358489D01*
X198151681Y-109391706D01*
X198131751Y-109425900D01*
X198105373Y-109455600D01*
X198074896Y-109481564D01*
X198040325Y-109502156D01*
X198001660Y-109517376D01*
X197958900Y-109527225D01*
X197912047Y-109531701D01*
X197895519Y-109532000D01*
X197608485Y-109532000D01*
X197608485Y-109394442D01*
X197758548Y-109394442D01*
X197879302Y-109394442D01*
X197920454Y-109390501D01*
X197959327Y-109376876D01*
X197990987Y-109353521D01*
X197999078Y-109344616D01*
X198018752Y-109309136D01*
X198027215Y-109272907D01*
X198031144Y-109231077D01*
X198032901Y-109190004D01*
X198033606Y-109146513D01*
X198033663Y-109128510D01*
X198033355Y-109088891D01*
X198032246Y-109049794D01*
X198029728Y-109010196D01*
X198027215Y-108988608D01*
X198017055Y-108949431D01*
X197999078Y-108919048D01*
X197969582Y-108892772D01*
X197932873Y-108876229D01*
X197893668Y-108869660D01*
X197879302Y-108869222D01*
X197758548Y-108869222D01*
X197758548Y-109394442D01*
X197608485Y-109394442D01*
X197608485Y-108731665D01*
X197895519Y-108731665D01*
X197935985Y-108733530D01*
G37*
G36*
X196600251Y-106295963D02*
G01*
X196597345Y-106336744D01*
X196586610Y-106379981D01*
X196567965Y-106418543D01*
X196541410Y-106452429D01*
X196517599Y-106473772D01*
X196485025Y-106495685D01*
X196449290Y-106513065D01*
X196410396Y-106525910D01*
X196368342Y-106534222D01*
X196323128Y-106538000D01*
X196307355Y-106538252D01*
X196267281Y-106537177D01*
X196224459Y-106533315D01*
X196184812Y-106526644D01*
X196144005Y-106515782D01*
X196106291Y-106500575D01*
X196070524Y-106480453D01*
X196036704Y-106455416D01*
X196018757Y-106439383D01*
X196117431Y-106339341D01*
X196149985Y-106365988D01*
X196188149Y-106386090D01*
X196231923Y-106399648D01*
X196273908Y-106406059D01*
X196312044Y-106407729D01*
X196353136Y-106405305D01*
X196393253Y-106396000D01*
X196427380Y-106376322D01*
X196449667Y-106342201D01*
X196454682Y-106308468D01*
X196448527Y-106269683D01*
X196430062Y-106240862D01*
X196394123Y-106221139D01*
X196359134Y-106212725D01*
X196262609Y-106199243D01*
X196220190Y-106190988D01*
X196182521Y-106179218D01*
X196145286Y-106161462D01*
X196110812Y-106135997D01*
X196107466Y-106132809D01*
X196082334Y-106101412D01*
X196064382Y-106064665D01*
X196053611Y-106022570D01*
X196050077Y-105981349D01*
X196050020Y-105975126D01*
X196052638Y-105935584D01*
X196062307Y-105893219D01*
X196079101Y-105854913D01*
X196103019Y-105820664D01*
X196124466Y-105798685D01*
X196159532Y-105772570D01*
X196199591Y-105752870D01*
X196237901Y-105741089D01*
X196279880Y-105734021D01*
X196325526Y-105731665D01*
X196373905Y-105733849D01*
X196419144Y-105740404D01*
X196461244Y-105751328D01*
X196500206Y-105766622D01*
X196536028Y-105786285D01*
X196568712Y-105810318D01*
X196580907Y-105821155D01*
X196486727Y-105918071D01*
X196454658Y-105893622D01*
X196416287Y-105876159D01*
X196377544Y-105866608D01*
X196333976Y-105862406D01*
X196320642Y-105862188D01*
X196279407Y-105866227D01*
X196241163Y-105881150D01*
X196228025Y-105890911D01*
X196203698Y-105923200D01*
X196195589Y-105963011D01*
X196204825Y-106001602D01*
X196219232Y-106020066D01*
X196253354Y-106041304D01*
X196292896Y-106051525D01*
X196386880Y-106065203D01*
X196428549Y-106073090D01*
X196470400Y-106085928D01*
X196506096Y-106102845D01*
X196538897Y-106126752D01*
X196565739Y-106159163D01*
X196584912Y-106198168D01*
X196595398Y-106237708D01*
X196600011Y-106282296D01*
X196600251Y-106295963D01*
G37*
G36*
X197305819Y-106293423D02*
G01*
X197296264Y-106335949D01*
X197282546Y-106374573D01*
X197261280Y-106414703D01*
X197234349Y-106449522D01*
X197206755Y-106475140D01*
X197170488Y-106499731D01*
X197130929Y-106518283D01*
X197088080Y-106530795D01*
X197048732Y-106536711D01*
X197014096Y-106538252D01*
X196967877Y-106535195D01*
X196924474Y-106526025D01*
X196883888Y-106510740D01*
X196846118Y-106489342D01*
X196811164Y-106461831D01*
X196800139Y-106451302D01*
X196774249Y-106421797D01*
X196754417Y-106390729D01*
X196739583Y-106352368D01*
X196731590Y-106313985D01*
X196731165Y-106311009D01*
X196726396Y-106270293D01*
X196724521Y-106234219D01*
X196724521Y-106194993D01*
X196724521Y-106152046D01*
X196724521Y-106135154D01*
X196724521Y-106095235D01*
X196724521Y-106055437D01*
X196724521Y-106035893D01*
X196726864Y-105994871D01*
X196731165Y-105959103D01*
X196738885Y-105920186D01*
X196752380Y-105883403D01*
X196754417Y-105879383D01*
X196775690Y-105846370D01*
X196800139Y-105818615D01*
X196834154Y-105789065D01*
X196870985Y-105765630D01*
X196910632Y-105748307D01*
X196953096Y-105737099D01*
X196998376Y-105732004D01*
X197014096Y-105731665D01*
X197055770Y-105733945D01*
X197094916Y-105740787D01*
X197137391Y-105754534D01*
X197176426Y-105774489D01*
X197207145Y-105796535D01*
X197238781Y-105827647D01*
X197264789Y-105864218D01*
X197282601Y-105899911D01*
X197296278Y-105939616D01*
X197305819Y-105983332D01*
X197147941Y-105983332D01*
X197134642Y-105944553D01*
X197112181Y-105909450D01*
X197077352Y-105882706D01*
X197038862Y-105871005D01*
X197013510Y-105869222D01*
X196972907Y-105874163D01*
X196936198Y-105890823D01*
X196913859Y-105911036D01*
X196892268Y-105946022D01*
X196882400Y-105981183D01*
X196877637Y-106023910D01*
X196875683Y-106063233D01*
X196874775Y-106104754D01*
X196874584Y-106138475D01*
X196874859Y-106178476D01*
X196875874Y-106219013D01*
X196878278Y-106261433D01*
X196882400Y-106295768D01*
X196894173Y-106335237D01*
X196913859Y-106365719D01*
X196944633Y-106391319D01*
X196983321Y-106405103D01*
X197013510Y-106407729D01*
X197056273Y-106402259D01*
X197095987Y-106382613D01*
X197122723Y-106353701D01*
X197141978Y-106313851D01*
X197147941Y-106293423D01*
X197305819Y-106293423D01*
G37*
G36*
X197962540Y-106532000D02*
G01*
X197443572Y-106532000D01*
X197443572Y-105731665D01*
X197593635Y-105731665D01*
X197593635Y-106394442D01*
X197962540Y-106394442D01*
X197962540Y-106532000D01*
G37*
G36*
X196237599Y-108532000D02*
G01*
X196087536Y-108532000D01*
X196087536Y-107731665D01*
X196237599Y-107731665D01*
X196237599Y-108532000D01*
G37*
G36*
X197041842Y-108532000D02*
G01*
X196907997Y-108532000D01*
X196579148Y-108040778D01*
X196579148Y-108532000D01*
X196429085Y-108532000D01*
X196429085Y-107731665D01*
X196562930Y-107731665D01*
X196891779Y-108221713D01*
X196891779Y-107731665D01*
X197041842Y-107731665D01*
X197041842Y-108532000D01*
G37*
G36*
X197749951Y-107869222D02*
G01*
X197537362Y-107869222D01*
X197537362Y-108532000D01*
X197387299Y-108532000D01*
X197387299Y-107869222D01*
X197174710Y-107869222D01*
X197174710Y-107731665D01*
X197749951Y-107731665D01*
X197749951Y-107869222D01*
G37*
D11*
%TO.C,D7*%
X157525000Y-101800000D02*
G75*
G02*
X157425000Y-101800000I-50000J0D01*
G01*
X157425000Y-101800000D02*
G75*
G02*
X157525000Y-101800000I50000J0D01*
G01*
D12*
%TO.C,D3*%
X173890000Y-101930000D02*
X173410000Y-101930000D01*
X173650000Y-101600000D01*
X173890000Y-101930000D01*
G36*
X173890000Y-101930000D02*
G01*
X173410000Y-101930000D01*
X173650000Y-101600000D01*
X173890000Y-101930000D01*
G37*
%TO.C,Q2*%
X168380811Y-91300000D02*
X168050811Y-91540000D01*
X168050811Y-91060000D01*
X168380811Y-91300000D01*
G36*
X168380811Y-91300000D02*
G01*
X168050811Y-91540000D01*
X168050811Y-91060000D01*
X168380811Y-91300000D01*
G37*
D11*
%TO.C,D5*%
X157525000Y-98800000D02*
G75*
G02*
X157425000Y-98800000I-50000J0D01*
G01*
X157425000Y-98800000D02*
G75*
G02*
X157525000Y-98800000I50000J0D01*
G01*
D12*
%TO.C,D10*%
X168590000Y-93380000D02*
X168110000Y-93380000D01*
X168350000Y-93050000D01*
X168590000Y-93380000D01*
G36*
X168590000Y-93380000D02*
G01*
X168110000Y-93380000D01*
X168350000Y-93050000D01*
X168590000Y-93380000D01*
G37*
%TO.C,U1*%
X171320000Y-91745000D02*
X171320000Y-91510000D01*
X171320000Y-98490000D02*
X171320000Y-98015000D01*
X171795000Y-91270000D02*
X171620000Y-91270000D01*
X171795000Y-98490000D02*
X171320000Y-98490000D01*
X178065000Y-91270000D02*
X178540000Y-91270000D01*
X178065000Y-98490000D02*
X178540000Y-98490000D01*
X178540000Y-91270000D02*
X178540000Y-91745000D01*
X178540000Y-98490000D02*
X178540000Y-98015000D01*
X171320000Y-91270000D02*
X171080000Y-90940000D01*
X171560000Y-90940000D01*
X171320000Y-91270000D01*
G36*
X171320000Y-91270000D02*
G01*
X171080000Y-90940000D01*
X171560000Y-90940000D01*
X171320000Y-91270000D01*
G37*
%TO.C,Q5*%
X199822990Y-92122990D02*
X199625000Y-91925000D01*
X199822990Y-91727010D01*
X199822990Y-92122990D01*
G36*
X199822990Y-92122990D02*
G01*
X199625000Y-91925000D01*
X199822990Y-91727010D01*
X199822990Y-92122990D01*
G37*
%TO.C,D6*%
X177490000Y-101930000D02*
X177010000Y-101930000D01*
X177250000Y-101600000D01*
X177490000Y-101930000D01*
G36*
X177490000Y-101930000D02*
G01*
X177010000Y-101930000D01*
X177250000Y-101600000D01*
X177490000Y-101930000D01*
G37*
D11*
%TO.C,D8*%
X157525000Y-100800000D02*
G75*
G02*
X157425000Y-100800000I-50000J0D01*
G01*
X157425000Y-100800000D02*
G75*
G02*
X157525000Y-100800000I50000J0D01*
G01*
D12*
%TO.C,D4*%
X175690000Y-101930000D02*
X175210000Y-101930000D01*
X175450000Y-101600000D01*
X175690000Y-101930000D01*
G36*
X175690000Y-101930000D02*
G01*
X175210000Y-101930000D01*
X175450000Y-101600000D01*
X175690000Y-101930000D01*
G37*
%TO.C,U3*%
X169000000Y-99250000D02*
X168802010Y-99052010D01*
X169197990Y-99052010D01*
X169000000Y-99250000D01*
G36*
X169000000Y-99250000D02*
G01*
X168802010Y-99052010D01*
X169197990Y-99052010D01*
X169000000Y-99250000D01*
G37*
D11*
%TO.C,D9*%
X157525000Y-99800000D02*
G75*
G02*
X157425000Y-99800000I-50000J0D01*
G01*
X157425000Y-99800000D02*
G75*
G02*
X157525000Y-99800000I50000J0D01*
G01*
D12*
%TO.C,Q6*%
X161325000Y-93525000D02*
X161127010Y-93722990D01*
X161127010Y-93327010D01*
X161325000Y-93525000D01*
G36*
X161325000Y-93525000D02*
G01*
X161127010Y-93722990D01*
X161127010Y-93327010D01*
X161325000Y-93525000D01*
G37*
%TO.C,U4*%
X181400000Y-102000000D02*
X181120000Y-102000000D01*
X181400000Y-101720000D01*
X181400000Y-102000000D01*
G36*
X181400000Y-102000000D02*
G01*
X181120000Y-102000000D01*
X181400000Y-101720000D01*
X181400000Y-102000000D01*
G37*
%TO.C,D2*%
X179290000Y-101930000D02*
X178810000Y-101930000D01*
X179050000Y-101600000D01*
X179290000Y-101930000D01*
G36*
X179290000Y-101930000D02*
G01*
X178810000Y-101930000D01*
X179050000Y-101600000D01*
X179290000Y-101930000D01*
G37*
%TO.C,Q13*%
X191080000Y-108840000D02*
X190750000Y-108600000D01*
X191080000Y-108360000D01*
X191080000Y-108840000D01*
G36*
X191080000Y-108840000D02*
G01*
X190750000Y-108600000D01*
X191080000Y-108360000D01*
X191080000Y-108840000D01*
G37*
%TO.C,Q12*%
X175815000Y-104800000D02*
X175485000Y-105040000D01*
X175485000Y-104560000D01*
X175815000Y-104800000D01*
G36*
X175815000Y-104800000D02*
G01*
X175485000Y-105040000D01*
X175485000Y-104560000D01*
X175815000Y-104800000D01*
G37*
%TO.C,Q1*%
X161280811Y-91300000D02*
X160950811Y-91540000D01*
X160950811Y-91060000D01*
X161280811Y-91300000D01*
G36*
X161280811Y-91300000D02*
G01*
X160950811Y-91540000D01*
X160950811Y-91060000D01*
X161280811Y-91300000D01*
G37*
D11*
%TO.C,D1*%
X158250000Y-97700000D02*
G75*
G02*
X158150000Y-97700000I-50000J0D01*
G01*
X158150000Y-97700000D02*
G75*
G02*
X158250000Y-97700000I50000J0D01*
G01*
%TD*%
%LPC*%
D13*
G36*
X152323641Y-106876816D02*
G01*
X152215922Y-106876816D01*
X152215922Y-106769097D01*
X152323641Y-106769097D01*
X152323641Y-106876816D01*
G37*
G36*
X153733222Y-105730699D02*
G01*
X153742224Y-105731379D01*
X153751092Y-105732500D01*
X153759816Y-105734049D01*
X153768383Y-105736017D01*
X153776785Y-105738392D01*
X153785008Y-105741163D01*
X153793043Y-105744320D01*
X153800879Y-105747851D01*
X153808504Y-105751746D01*
X153815908Y-105755993D01*
X153823079Y-105760582D01*
X153830008Y-105765502D01*
X153836682Y-105770741D01*
X153843091Y-105776290D01*
X153849224Y-105782136D01*
X153855070Y-105788269D01*
X153860619Y-105794678D01*
X153865858Y-105801352D01*
X153870778Y-105808281D01*
X153875367Y-105815452D01*
X153879614Y-105822856D01*
X153883509Y-105830481D01*
X153887040Y-105838317D01*
X153890197Y-105846352D01*
X153892968Y-105854575D01*
X153895343Y-105862977D01*
X153897311Y-105871544D01*
X153898860Y-105880268D01*
X153899981Y-105889136D01*
X153900661Y-105898138D01*
X153900890Y-105907263D01*
X153900890Y-109031360D01*
X153900661Y-109040485D01*
X153899981Y-109049487D01*
X153898860Y-109058355D01*
X153897311Y-109067079D01*
X153895343Y-109075646D01*
X153892968Y-109084048D01*
X153890197Y-109092271D01*
X153887040Y-109100306D01*
X153883509Y-109108142D01*
X153879614Y-109115767D01*
X153875367Y-109123171D01*
X153870778Y-109130342D01*
X153865858Y-109137271D01*
X153860619Y-109143945D01*
X153855070Y-109150354D01*
X153849224Y-109156487D01*
X153843091Y-109162333D01*
X153836682Y-109167882D01*
X153830008Y-109173121D01*
X153823079Y-109178041D01*
X153815908Y-109182630D01*
X153808504Y-109186877D01*
X153800879Y-109190772D01*
X153793043Y-109194303D01*
X153785008Y-109197460D01*
X153776785Y-109200231D01*
X153768383Y-109202606D01*
X153759816Y-109204574D01*
X153751092Y-109206123D01*
X153742224Y-109207244D01*
X153733222Y-109207924D01*
X153724097Y-109208153D01*
X150600000Y-109208153D01*
X150590875Y-109207924D01*
X150581873Y-109207244D01*
X150573005Y-109206123D01*
X150564281Y-109204574D01*
X150555714Y-109202606D01*
X150547312Y-109200231D01*
X150539089Y-109197460D01*
X150531054Y-109194303D01*
X150523218Y-109190772D01*
X150515593Y-109186877D01*
X150508189Y-109182630D01*
X150501018Y-109178041D01*
X150494089Y-109173121D01*
X150487415Y-109167882D01*
X150481006Y-109162333D01*
X150474873Y-109156487D01*
X150469027Y-109150354D01*
X150463478Y-109143945D01*
X150458239Y-109137271D01*
X150453319Y-109130342D01*
X150448730Y-109123171D01*
X150444483Y-109115767D01*
X150440588Y-109108142D01*
X150437057Y-109100306D01*
X150433900Y-109092271D01*
X150431129Y-109084048D01*
X150428754Y-109075646D01*
X150426786Y-109067079D01*
X150425237Y-109058355D01*
X150424116Y-109049487D01*
X150423436Y-109040485D01*
X150423207Y-109031360D01*
X150423207Y-108277273D01*
X150600000Y-108277273D01*
X150600000Y-109031360D01*
X151354088Y-109031360D01*
X151354088Y-108815895D01*
X151461834Y-108815895D01*
X151461834Y-109031360D01*
X151677272Y-109031360D01*
X151677272Y-108923614D01*
X151785018Y-108923614D01*
X151785018Y-109031360D01*
X151892737Y-109031360D01*
X151892737Y-108923614D01*
X151785018Y-108923614D01*
X151785018Y-108708176D01*
X151677272Y-108708176D01*
X151677272Y-108923614D01*
X151569553Y-108923614D01*
X151569553Y-108815895D01*
X151461834Y-108815895D01*
X151354088Y-108815895D01*
X151354088Y-108708176D01*
X151354088Y-108600430D01*
X151461834Y-108600430D01*
X151461834Y-108708176D01*
X151569553Y-108708176D01*
X151569553Y-108600430D01*
X151461834Y-108600430D01*
X151354088Y-108600430D01*
X151354088Y-108277273D01*
X150600000Y-108277273D01*
X150423207Y-108277273D01*
X150423207Y-106769097D01*
X150600000Y-106769097D01*
X150600000Y-107092281D01*
X150707746Y-107092281D01*
X150707746Y-107200000D01*
X150600000Y-107200000D01*
X150600000Y-107630904D01*
X150707746Y-107630904D01*
X150707746Y-107846342D01*
X150600000Y-107846342D01*
X150600000Y-108169526D01*
X150707746Y-108169526D01*
X150707746Y-107954088D01*
X151030931Y-107954088D01*
X151030931Y-108061807D01*
X151246369Y-108061807D01*
X151246369Y-108169526D01*
X151354088Y-108169526D01*
X151354088Y-108061807D01*
X151461834Y-108061807D01*
X151461834Y-107954088D01*
X151569553Y-107954088D01*
X151569553Y-107846342D01*
X151461834Y-107846342D01*
X151461834Y-107630904D01*
X151677272Y-107630904D01*
X151677272Y-107846342D01*
X151785018Y-107846342D01*
X151785018Y-107738623D01*
X151892737Y-107738623D01*
X151892737Y-107630904D01*
X152000456Y-107630904D01*
X152000456Y-108061807D01*
X152108175Y-108061807D01*
X152108175Y-108277273D01*
X152000456Y-108277273D01*
X152000456Y-108384992D01*
X151892737Y-108384992D01*
X151892737Y-107846342D01*
X151785018Y-107846342D01*
X151785018Y-108384992D01*
X151677272Y-108384992D01*
X151677272Y-107954088D01*
X151569553Y-107954088D01*
X151569553Y-108277273D01*
X151461834Y-108277273D01*
X151461834Y-108384992D01*
X151569553Y-108384992D01*
X151569553Y-108600430D01*
X151785018Y-108600430D01*
X151785018Y-108384992D01*
X151892737Y-108384992D01*
X151892737Y-108492710D01*
X152000456Y-108492710D01*
X152000456Y-108384992D01*
X152108175Y-108384992D01*
X152108175Y-108277273D01*
X152215922Y-108277273D01*
X152215922Y-108492710D01*
X152108175Y-108492710D01*
X152108175Y-108600430D01*
X152323641Y-108600430D01*
X152323641Y-108708176D01*
X152431360Y-108708176D01*
X152431360Y-108815895D01*
X152215922Y-108815895D01*
X152215922Y-108708176D01*
X152000456Y-108708176D01*
X152000456Y-108600430D01*
X151892737Y-108600430D01*
X151892737Y-108815895D01*
X152000456Y-108815895D01*
X152000456Y-109031360D01*
X152215922Y-109031360D01*
X152215922Y-108923614D01*
X152539079Y-108923614D01*
X152539079Y-108815895D01*
X152862263Y-108815895D01*
X152862263Y-109031360D01*
X152970010Y-109031360D01*
X152970010Y-108923614D01*
X153077729Y-108923614D01*
X153077729Y-109031360D01*
X153293167Y-109031360D01*
X153293167Y-108923614D01*
X153400913Y-108923614D01*
X153400913Y-109031360D01*
X153508632Y-109031360D01*
X153508632Y-108923614D01*
X153724097Y-108923614D01*
X153724097Y-108815895D01*
X153508632Y-108815895D01*
X153508632Y-108708176D01*
X153724097Y-108708176D01*
X153724097Y-108600430D01*
X153508632Y-108600430D01*
X153508632Y-108708176D01*
X153400913Y-108708176D01*
X153400913Y-108492710D01*
X153400913Y-108384992D01*
X153293167Y-108384992D01*
X153293167Y-108277273D01*
X153508632Y-108277273D01*
X153508632Y-108492710D01*
X153724097Y-108492710D01*
X153724097Y-108277273D01*
X153508632Y-108277273D01*
X153293167Y-108277273D01*
X153293167Y-108061807D01*
X153508632Y-108061807D01*
X153508632Y-108169526D01*
X153724097Y-108169526D01*
X153724097Y-107738623D01*
X153400913Y-107738623D01*
X153400913Y-107954088D01*
X153293167Y-107954088D01*
X153293167Y-107846342D01*
X153077729Y-107846342D01*
X153077729Y-107738623D01*
X152970010Y-107738623D01*
X152970010Y-107630904D01*
X153185447Y-107630904D01*
X153185447Y-107738623D01*
X153293167Y-107738623D01*
X153293167Y-107630904D01*
X153185447Y-107630904D01*
X153185447Y-107415438D01*
X153185447Y-107307719D01*
X153293167Y-107307719D01*
X153293167Y-107415438D01*
X153400913Y-107415438D01*
X153400913Y-107523185D01*
X153508632Y-107523185D01*
X153508632Y-107630904D01*
X153616351Y-107630904D01*
X153616351Y-107523185D01*
X153724097Y-107523185D01*
X153724097Y-107307719D01*
X153508632Y-107307719D01*
X153508632Y-107415438D01*
X153400913Y-107415438D01*
X153400913Y-107307719D01*
X153293167Y-107307719D01*
X153293167Y-107200000D01*
X153724097Y-107200000D01*
X153724097Y-106984535D01*
X153616351Y-106984535D01*
X153616351Y-106876816D01*
X153724097Y-106876816D01*
X153724097Y-106769097D01*
X153616351Y-106769097D01*
X153616351Y-106876816D01*
X153508632Y-106876816D01*
X153508632Y-106769097D01*
X153293167Y-106769097D01*
X153293167Y-106876816D01*
X153185447Y-106876816D01*
X153185447Y-106769097D01*
X152862263Y-106769097D01*
X152862263Y-106984535D01*
X152754544Y-106984535D01*
X152754544Y-107092281D01*
X152646825Y-107092281D01*
X152646825Y-106984535D01*
X152539079Y-106984535D01*
X152539079Y-106876816D01*
X152646825Y-106876816D01*
X152646825Y-106769097D01*
X152754544Y-106769097D01*
X152754544Y-106661351D01*
X152862263Y-106661351D01*
X152862263Y-106553632D01*
X152754544Y-106553632D01*
X152754544Y-106445913D01*
X152862263Y-106445913D01*
X152862263Y-106338194D01*
X152754544Y-106338194D01*
X152754544Y-106230447D01*
X152646825Y-106230447D01*
X152646825Y-106122728D01*
X152431360Y-106122728D01*
X152431360Y-106338194D01*
X152323641Y-106338194D01*
X152323641Y-106230447D01*
X152215922Y-106230447D01*
X152215922Y-106122728D01*
X152108175Y-106122728D01*
X152108175Y-106015009D01*
X152215922Y-106015009D01*
X152215922Y-105907263D01*
X152539079Y-105907263D01*
X152539079Y-106015009D01*
X152646825Y-106015009D01*
X152754544Y-106015009D01*
X152754544Y-106122728D01*
X152862263Y-106122728D01*
X152862263Y-106015009D01*
X152754544Y-106015009D01*
X152646825Y-106015009D01*
X152646825Y-105907263D01*
X152970010Y-105907263D01*
X152970010Y-106661351D01*
X153724097Y-106661351D01*
X153724097Y-105907263D01*
X152970010Y-105907263D01*
X152646825Y-105907263D01*
X152539079Y-105907263D01*
X152215922Y-105907263D01*
X151461834Y-105907263D01*
X151461834Y-106015009D01*
X151569553Y-106015009D01*
X151569553Y-106122728D01*
X151461834Y-106122728D01*
X151461834Y-106338194D01*
X151569553Y-106338194D01*
X151569553Y-106230447D01*
X151677272Y-106230447D01*
X151677272Y-106445913D01*
X151785018Y-106445913D01*
X151785018Y-106553632D01*
X151677272Y-106553632D01*
X151677272Y-106661351D01*
X151569553Y-106661351D01*
X151569553Y-106445913D01*
X151461834Y-106445913D01*
X151461834Y-106769097D01*
X151246369Y-106769097D01*
X151246369Y-106876816D01*
X151354088Y-106876816D01*
X151354088Y-106984535D01*
X151138650Y-106984535D01*
X151138650Y-106876816D01*
X151030931Y-106876816D01*
X151030931Y-106769097D01*
X150923184Y-106769097D01*
X150923184Y-106876816D01*
X150815465Y-106876816D01*
X150815465Y-106769097D01*
X150600000Y-106769097D01*
X150423207Y-106769097D01*
X150423207Y-106661351D01*
X150423207Y-105907263D01*
X150600000Y-105907263D01*
X150600000Y-106661351D01*
X151354088Y-106661351D01*
X151354088Y-105907263D01*
X150600000Y-105907263D01*
X150423207Y-105907263D01*
X150423436Y-105898138D01*
X150424116Y-105889136D01*
X150425237Y-105880268D01*
X150426786Y-105871544D01*
X150428754Y-105862977D01*
X150431129Y-105854575D01*
X150433900Y-105846352D01*
X150437057Y-105838317D01*
X150440588Y-105830481D01*
X150444483Y-105822856D01*
X150448730Y-105815452D01*
X150453319Y-105808281D01*
X150458239Y-105801352D01*
X150463478Y-105794678D01*
X150469027Y-105788269D01*
X150474873Y-105782136D01*
X150481006Y-105776290D01*
X150487415Y-105770741D01*
X150494089Y-105765502D01*
X150501018Y-105760582D01*
X150508189Y-105755993D01*
X150515593Y-105751746D01*
X150523218Y-105747851D01*
X150531054Y-105744320D01*
X150539089Y-105741163D01*
X150547312Y-105738392D01*
X150555714Y-105736017D01*
X150564281Y-105734049D01*
X150573005Y-105732500D01*
X150581873Y-105731379D01*
X150590875Y-105730699D01*
X150600000Y-105730470D01*
X153724097Y-105730470D01*
X153733222Y-105730699D01*
G37*
G36*
X153185447Y-107307719D02*
G01*
X153077729Y-107307719D01*
X153077729Y-107200000D01*
X153185447Y-107200000D01*
X153185447Y-107307719D01*
G37*
G36*
X152323641Y-108169526D02*
G01*
X152215922Y-108169526D01*
X152215922Y-107954088D01*
X152323641Y-107954088D01*
X152323641Y-108169526D01*
G37*
G36*
X152539079Y-107954088D02*
G01*
X152646825Y-107954088D01*
X152646825Y-108061807D01*
X152431360Y-108061807D01*
X152431360Y-107846342D01*
X152215922Y-107846342D01*
X152215922Y-107738623D01*
X152539079Y-107738623D01*
X152539079Y-107954088D01*
G37*
G36*
X151246369Y-108923614D02*
G01*
X150707746Y-108923614D01*
X150707746Y-108815895D01*
X150707746Y-108492710D01*
X150815465Y-108492710D01*
X150815465Y-108815895D01*
X151138650Y-108815895D01*
X151138650Y-108492710D01*
X150815465Y-108492710D01*
X150707746Y-108492710D01*
X150707746Y-108384992D01*
X151246369Y-108384992D01*
X151246369Y-108923614D01*
G37*
G36*
X152646825Y-107307719D02*
G01*
X152539079Y-107307719D01*
X152539079Y-107415438D01*
X152215922Y-107415438D01*
X152215922Y-107307719D01*
X152431360Y-107307719D01*
X152431360Y-107200000D01*
X152539079Y-107200000D01*
X152539079Y-107092281D01*
X152646825Y-107092281D01*
X152646825Y-107307719D01*
G37*
G36*
X151892737Y-106445913D02*
G01*
X151785018Y-106445913D01*
X151785018Y-106338194D01*
X151892737Y-106338194D01*
X151892737Y-106445913D01*
G37*
G36*
X151461834Y-107415438D02*
G01*
X151569553Y-107415438D01*
X151569553Y-107523185D01*
X151354088Y-107523185D01*
X151354088Y-107415438D01*
X151246369Y-107415438D01*
X151246369Y-107307719D01*
X151461834Y-107307719D01*
X151461834Y-107415438D01*
G37*
G36*
X152215922Y-107954088D02*
G01*
X152108175Y-107954088D01*
X152108175Y-107846342D01*
X152215922Y-107846342D01*
X152215922Y-107954088D01*
G37*
G36*
X160925000Y-97100000D02*
G01*
X160450000Y-97575000D01*
X159100000Y-97575000D01*
X159100000Y-96600000D01*
X159575000Y-96125000D01*
X159575000Y-95550000D01*
X160450000Y-95550000D01*
X160450000Y-93550000D01*
X160925000Y-93550000D01*
X160925000Y-97100000D01*
G37*
G36*
X153400913Y-108815895D02*
G01*
X153293167Y-108815895D01*
X153293167Y-108708176D01*
X153400913Y-108708176D01*
X153400913Y-108815895D01*
G37*
G36*
X151030931Y-107092281D02*
G01*
X150923184Y-107092281D01*
X150923184Y-106876816D01*
X151030931Y-106876816D01*
X151030931Y-107092281D01*
G37*
G36*
X153185447Y-108815895D02*
G01*
X153293167Y-108815895D01*
X153293167Y-108923614D01*
X153077729Y-108923614D01*
X153077729Y-108815895D01*
X152970010Y-108815895D01*
X152970010Y-108708176D01*
X153185447Y-108708176D01*
X153185447Y-108815895D01*
G37*
G36*
X151354088Y-108061807D02*
G01*
X151246369Y-108061807D01*
X151246369Y-107954088D01*
X151354088Y-107954088D01*
X151354088Y-108061807D01*
G37*
G36*
X150815465Y-107092281D02*
G01*
X150707746Y-107092281D01*
X150707746Y-106876816D01*
X150815465Y-106876816D01*
X150815465Y-107092281D01*
G37*
G36*
X195600000Y-92900000D02*
G01*
X196100000Y-92900000D01*
X196100000Y-97300000D01*
X195850000Y-97550000D01*
X193850000Y-97550000D01*
X193150000Y-97550000D01*
X193150000Y-96600000D01*
X193150000Y-93600000D01*
X191250000Y-93600000D01*
X191250000Y-96800000D01*
X186200000Y-96800000D01*
X186200000Y-93600000D01*
X184850000Y-93600000D01*
X184850000Y-92750000D01*
X193500000Y-92750000D01*
X193500000Y-89150000D01*
X195600000Y-89150000D01*
X195600000Y-92900000D01*
G37*
G36*
X152754544Y-108277273D02*
G01*
X152646825Y-108277273D01*
X152646825Y-108169526D01*
X152754544Y-108169526D01*
X152754544Y-108277273D01*
G37*
G36*
X151246369Y-107307719D02*
G01*
X151138650Y-107307719D01*
X151138650Y-107415438D01*
X150923184Y-107415438D01*
X150923184Y-107630904D01*
X150707746Y-107630904D01*
X150707746Y-107415438D01*
X150815465Y-107415438D01*
X150815465Y-107307719D01*
X150923184Y-107307719D01*
X150923184Y-107200000D01*
X151246369Y-107200000D01*
X151246369Y-107307719D01*
G37*
G36*
X151138650Y-107954088D02*
G01*
X151030931Y-107954088D01*
X151030931Y-107738623D01*
X151138650Y-107738623D01*
X151138650Y-107954088D01*
G37*
G36*
X153293167Y-108708176D02*
G01*
X153185447Y-108708176D01*
X153185447Y-108600430D01*
X153293167Y-108600430D01*
X153293167Y-108708176D01*
G37*
G36*
X152970010Y-108061807D02*
G01*
X152862263Y-108061807D01*
X152862263Y-107846342D01*
X152754544Y-107846342D01*
X152754544Y-107738623D01*
X152970010Y-107738623D01*
X152970010Y-108061807D01*
G37*
G36*
X152754544Y-108492710D02*
G01*
X152646825Y-108492710D01*
X152646825Y-108600430D01*
X152754544Y-108600430D01*
X152754544Y-108708176D01*
X152539079Y-108708176D01*
X152539079Y-108600430D01*
X152431360Y-108600430D01*
X152431360Y-108492710D01*
X152539079Y-108492710D01*
X152539079Y-108384992D01*
X152754544Y-108384992D01*
X152754544Y-108492710D01*
G37*
G36*
X152539079Y-107092281D02*
G01*
X152431360Y-107092281D01*
X152431360Y-106984535D01*
X152539079Y-106984535D01*
X152539079Y-107092281D01*
G37*
G36*
X151354088Y-107630904D02*
G01*
X151246369Y-107630904D01*
X151246369Y-107523185D01*
X151354088Y-107523185D01*
X151354088Y-107630904D01*
G37*
G36*
X151569553Y-106876816D02*
G01*
X151461834Y-106876816D01*
X151461834Y-106769097D01*
X151569553Y-106769097D01*
X151569553Y-106876816D01*
G37*
G36*
X195750000Y-102000000D02*
G01*
X195750000Y-103250000D01*
X193475000Y-103250000D01*
X193475000Y-102100000D01*
X193250000Y-102100000D01*
X193250000Y-101775000D01*
X195525000Y-101775000D01*
X195750000Y-102000000D01*
G37*
G36*
X153077729Y-106984535D02*
G01*
X153508632Y-106984535D01*
X153508632Y-107092281D01*
X152970010Y-107092281D01*
X152970010Y-107200000D01*
X152754544Y-107200000D01*
X152754544Y-107092281D01*
X152862263Y-107092281D01*
X152862263Y-106984535D01*
X152970010Y-106984535D01*
X152970010Y-106876816D01*
X153077729Y-106876816D01*
X153077729Y-106984535D01*
G37*
G36*
X171230551Y-106080101D02*
G01*
X171225000Y-107900000D01*
X167750000Y-107900000D01*
X167750000Y-106399999D01*
X167950000Y-106399998D01*
X168119483Y-106473053D01*
X168471491Y-106583997D01*
X168833980Y-106653417D01*
X169202071Y-106680380D01*
X169570807Y-106664521D01*
X169935223Y-106606056D01*
X170290414Y-106505770D01*
X170631597Y-106365014D01*
X170954177Y-106185683D01*
X171029864Y-106132892D01*
X171100000Y-106075000D01*
X171230551Y-106080101D01*
G37*
G36*
X153616351Y-106553632D02*
G01*
X153077729Y-106553632D01*
X153077729Y-106445913D01*
X153077729Y-106122728D01*
X153185447Y-106122728D01*
X153185447Y-106445913D01*
X153508632Y-106445913D01*
X153508632Y-106122728D01*
X153185447Y-106122728D01*
X153077729Y-106122728D01*
X153077729Y-106015009D01*
X153616351Y-106015009D01*
X153616351Y-106553632D01*
G37*
G36*
X153185447Y-108492710D02*
G01*
X152862263Y-108492710D01*
X152862263Y-108384992D01*
X152862263Y-108277273D01*
X152970010Y-108277273D01*
X152970010Y-108384992D01*
X153077729Y-108384992D01*
X153077729Y-108277273D01*
X152970010Y-108277273D01*
X152862263Y-108277273D01*
X152862263Y-108169526D01*
X153185447Y-108169526D01*
X153185447Y-108492710D01*
G37*
G36*
X151354088Y-107846342D02*
G01*
X151246369Y-107846342D01*
X151246369Y-107738623D01*
X151354088Y-107738623D01*
X151354088Y-107846342D01*
G37*
G36*
X167100055Y-101094279D02*
G01*
X166974893Y-101212030D01*
X166747433Y-101469644D01*
X166548372Y-101749784D01*
X166379927Y-102049333D01*
X166243970Y-102364958D01*
X166142016Y-102693148D01*
X166075197Y-103030251D01*
X166044257Y-103372517D01*
X166044676Y-103544362D01*
X166046982Y-103715076D01*
X166083279Y-104054569D01*
X166155456Y-104388281D01*
X166262693Y-104712430D01*
X166403778Y-105023346D01*
X166577110Y-105317504D01*
X166780726Y-105591572D01*
X167012320Y-105842445D01*
X167139298Y-105956572D01*
X167125000Y-106050000D01*
X165850055Y-106050000D01*
X165850055Y-101000000D01*
X167100000Y-101000000D01*
X167100055Y-101094279D01*
G37*
G36*
X152000456Y-106122728D02*
G01*
X151892737Y-106122728D01*
X151892737Y-106230447D01*
X151785018Y-106230447D01*
X151785018Y-106015009D01*
X152000456Y-106015009D01*
X152000456Y-106122728D01*
G37*
G36*
X152431360Y-106553632D02*
G01*
X152323641Y-106553632D01*
X152323641Y-106661351D01*
X152215922Y-106661351D01*
X152215922Y-106445913D01*
X152431360Y-106445913D01*
X152431360Y-106553632D01*
G37*
G36*
X152323641Y-107630904D02*
G01*
X152215922Y-107630904D01*
X152215922Y-107523185D01*
X152323641Y-107523185D01*
X152323641Y-107630904D01*
G37*
G36*
X152108175Y-106876816D02*
G01*
X152215922Y-106876816D01*
X152215922Y-107307719D01*
X152108175Y-107307719D01*
X152108175Y-107415438D01*
X151892737Y-107415438D01*
X151892737Y-107630904D01*
X151677272Y-107630904D01*
X151677272Y-107415438D01*
X151785018Y-107415438D01*
X151785018Y-107200000D01*
X152000456Y-107200000D01*
X152000456Y-107092281D01*
X152108175Y-107092281D01*
X152108175Y-106984535D01*
X152000456Y-106984535D01*
X152000456Y-107092281D01*
X151785018Y-107092281D01*
X151785018Y-106984535D01*
X151677272Y-106984535D01*
X151677272Y-107200000D01*
X151569553Y-107200000D01*
X151569553Y-107307719D01*
X151461834Y-107307719D01*
X151461834Y-107200000D01*
X151246369Y-107200000D01*
X151246369Y-107092281D01*
X151461834Y-107092281D01*
X151461834Y-106984535D01*
X151569553Y-106984535D01*
X151569553Y-106876816D01*
X151892737Y-106876816D01*
X151892737Y-106984535D01*
X152000456Y-106984535D01*
X152000456Y-106876816D01*
X151892737Y-106876816D01*
X151892737Y-106769097D01*
X151785018Y-106769097D01*
X151785018Y-106553632D01*
X151892737Y-106553632D01*
X151892737Y-106661351D01*
X152000456Y-106661351D01*
X152000456Y-106445913D01*
X152108175Y-106445913D01*
X152108175Y-106876816D01*
G37*
G36*
X167350000Y-95100000D02*
G01*
X167350000Y-99100000D01*
X163850000Y-99100000D01*
X163850000Y-101000000D01*
X166000000Y-101000000D01*
X166000000Y-106050000D01*
X163850000Y-106050000D01*
X163850000Y-107950000D01*
X167400000Y-107950000D01*
X167400000Y-108950000D01*
X164550000Y-108950000D01*
X163075000Y-107475000D01*
X163075000Y-98475000D01*
X162650000Y-98050000D01*
X162650000Y-96500000D01*
X165300000Y-96500000D01*
X165300000Y-93200000D01*
X165450000Y-93200000D01*
X167350000Y-95100000D01*
G37*
G36*
X153077729Y-107415438D02*
G01*
X152970010Y-107415438D01*
X152970010Y-107523185D01*
X152862263Y-107523185D01*
X152862263Y-107307719D01*
X153077729Y-107307719D01*
X153077729Y-107415438D01*
G37*
G36*
X152215922Y-106338194D02*
G01*
X151892737Y-106338194D01*
X151892737Y-106230447D01*
X152215922Y-106230447D01*
X152215922Y-106338194D01*
G37*
G36*
X153508632Y-108923614D02*
G01*
X153400913Y-108923614D01*
X153400913Y-108815895D01*
X153508632Y-108815895D01*
X153508632Y-108923614D01*
G37*
G36*
X152431360Y-106984535D02*
G01*
X152323641Y-106984535D01*
X152323641Y-106876816D01*
X152431360Y-106876816D01*
X152431360Y-106984535D01*
G37*
G36*
X153293167Y-108061807D02*
G01*
X153077729Y-108061807D01*
X153077729Y-107954088D01*
X153293167Y-107954088D01*
X153293167Y-108061807D01*
G37*
G36*
X152539079Y-108384992D02*
G01*
X152323641Y-108384992D01*
X152323641Y-108277273D01*
X152539079Y-108277273D01*
X152539079Y-108384992D01*
G37*
G36*
X151246369Y-106553632D02*
G01*
X150707746Y-106553632D01*
X150707746Y-106445913D01*
X150707746Y-106122728D01*
X150815465Y-106122728D01*
X150815465Y-106445913D01*
X151138650Y-106445913D01*
X151138650Y-106122728D01*
X150815465Y-106122728D01*
X150707746Y-106122728D01*
X150707746Y-106015009D01*
X151246369Y-106015009D01*
X151246369Y-106553632D01*
G37*
G36*
X152539079Y-107630904D02*
G01*
X152431360Y-107630904D01*
X152431360Y-107523185D01*
X152539079Y-107523185D01*
X152539079Y-107630904D01*
G37*
G36*
X153616351Y-107523185D02*
G01*
X153508632Y-107523185D01*
X153508632Y-107415438D01*
X153616351Y-107415438D01*
X153616351Y-107523185D01*
G37*
G36*
X151138650Y-107630904D02*
G01*
X151030931Y-107630904D01*
X151030931Y-107523185D01*
X151138650Y-107523185D01*
X151138650Y-107630904D01*
G37*
G36*
X150923184Y-107846342D02*
G01*
X150815465Y-107846342D01*
X150815465Y-107738623D01*
X150923184Y-107738623D01*
X150923184Y-107846342D01*
G37*
G36*
X152108175Y-107630904D02*
G01*
X152000456Y-107630904D01*
X152000456Y-107523185D01*
X152108175Y-107523185D01*
X152108175Y-107630904D01*
G37*
G36*
X151246369Y-107523185D02*
G01*
X151138650Y-107523185D01*
X151138650Y-107415438D01*
X151246369Y-107415438D01*
X151246369Y-107523185D01*
G37*
G36*
X152215922Y-107523185D02*
G01*
X152108175Y-107523185D01*
X152108175Y-107415438D01*
X152215922Y-107415438D01*
X152215922Y-107523185D01*
G37*
G36*
X152539079Y-106876816D02*
G01*
X152431360Y-106876816D01*
X152431360Y-106769097D01*
X152323641Y-106769097D01*
X152323641Y-106661351D01*
X152431360Y-106661351D01*
X152431360Y-106553632D01*
X152539079Y-106553632D01*
X152539079Y-106876816D01*
G37*
G36*
X152754544Y-106661351D02*
G01*
X152646825Y-106661351D01*
X152646825Y-106553632D01*
X152754544Y-106553632D01*
X152754544Y-106661351D01*
G37*
G36*
X151030931Y-107738623D02*
G01*
X150923184Y-107738623D01*
X150923184Y-107630904D01*
X151030931Y-107630904D01*
X151030931Y-107738623D01*
G37*
G36*
X152862263Y-107630904D02*
G01*
X152754544Y-107630904D01*
X152754544Y-107738623D01*
X152646825Y-107738623D01*
X152646825Y-107523185D01*
X152862263Y-107523185D01*
X152862263Y-107630904D01*
G37*
D14*
%TO.C,C16*%
X180950000Y-96825000D03*
X180950000Y-95275000D03*
%TD*%
D15*
%TO.C,C21*%
X168200000Y-99367500D03*
X168200000Y-100327500D03*
%TD*%
D16*
%TO.C,R1*%
X172087500Y-106850000D03*
X175012500Y-106850000D03*
%TD*%
D17*
%TO.C,R3*%
X173900000Y-104290000D03*
X173900000Y-105310000D03*
%TD*%
D18*
%TO.C,C14*%
X170400000Y-108700000D03*
X170400000Y-110600000D03*
%TD*%
D19*
%TO.C,C18*%
X165800000Y-100050000D03*
X160700000Y-100050000D03*
%TD*%
D20*
%TO.C,D7*%
X157850000Y-101800000D03*
X158550000Y-101800000D03*
%TD*%
D21*
%TO.C,C10*%
X180050000Y-94125000D03*
X181010000Y-94125000D03*
%TD*%
D22*
%TO.C,D3*%
X173650000Y-101100000D03*
X173650000Y-103300000D03*
%TD*%
D23*
%TO.C,Q2*%
X169237500Y-91300000D03*
X169237500Y-90350000D03*
X169237500Y-89400000D03*
X166962500Y-89400000D03*
X166962500Y-90350000D03*
X166962500Y-91300000D03*
%TD*%
D20*
%TO.C,D5*%
X157850000Y-98800000D03*
X158550000Y-98800000D03*
%TD*%
D22*
%TO.C,D10*%
X168350000Y-92550000D03*
X168350000Y-94750000D03*
%TD*%
D24*
%TO.C,C2*%
X174980000Y-99800000D03*
X174020000Y-99800000D03*
%TD*%
D25*
%TO.C,U1*%
X171480000Y-92130000D03*
X171480000Y-92630000D03*
X171480000Y-93130000D03*
X171480000Y-93630000D03*
X171480000Y-94130000D03*
X171480000Y-94630000D03*
X171480000Y-95130000D03*
X171480000Y-95630000D03*
X171480000Y-96130000D03*
X171480000Y-96630000D03*
X171480000Y-97130000D03*
X171480000Y-97630000D03*
D26*
X172180000Y-98330000D03*
X172680000Y-98330000D03*
X173180000Y-98330000D03*
X173680000Y-98330000D03*
X174180000Y-98330000D03*
X174680000Y-98330000D03*
X175180000Y-98330000D03*
X175680000Y-98330000D03*
X176180000Y-98330000D03*
X176680000Y-98330000D03*
X177180000Y-98330000D03*
X177680000Y-98330000D03*
D25*
X178380000Y-97630000D03*
X178380000Y-97130000D03*
X178380000Y-96630000D03*
X178380000Y-96130000D03*
X178380000Y-95630000D03*
X178380000Y-95130000D03*
X178380000Y-94630000D03*
X178380000Y-94130000D03*
X178380000Y-93630000D03*
X178380000Y-93130000D03*
X178380000Y-92630000D03*
X178380000Y-92130000D03*
D26*
X177680000Y-91430000D03*
X177180000Y-91430000D03*
X176680000Y-91430000D03*
X176180000Y-91430000D03*
X175680000Y-91430000D03*
X175180000Y-91430000D03*
X174680000Y-91430000D03*
X174180000Y-91430000D03*
X173680000Y-91430000D03*
X173180000Y-91430000D03*
X172680000Y-91430000D03*
X172180000Y-91430000D03*
D27*
X174930000Y-94880000D03*
%TD*%
D28*
%TO.C,R10*%
X181050000Y-93175000D03*
X180030000Y-93175000D03*
%TD*%
D21*
%TO.C,C3*%
X171895000Y-99800000D03*
X172855000Y-99800000D03*
%TD*%
D17*
%TO.C,R15*%
X172500000Y-89190000D03*
X172500000Y-90210000D03*
%TD*%
D29*
%TO.C,Q5*%
X199150000Y-91925000D03*
X199150000Y-91275000D03*
X199150000Y-90625000D03*
X199150000Y-89975000D03*
D30*
X196225000Y-91925000D03*
X196225000Y-91275000D03*
D31*
X197300000Y-90950000D03*
D30*
X196225000Y-90625000D03*
X196225000Y-89975000D03*
%TD*%
D17*
%TO.C,R13*%
X181900000Y-109840000D03*
X181900000Y-110860000D03*
%TD*%
D32*
%TO.C,C5*%
X177770000Y-90075000D03*
X177770000Y-89115000D03*
%TD*%
D33*
%TO.C,C26*%
X193950000Y-100750000D03*
X192050000Y-100750000D03*
%TD*%
D22*
%TO.C,D6*%
X177250000Y-101100000D03*
X177250000Y-103300000D03*
%TD*%
D20*
%TO.C,D8*%
X157850000Y-100800000D03*
X158550000Y-100800000D03*
%TD*%
D32*
%TO.C,C22*%
X182850000Y-110830000D03*
X182850000Y-109870000D03*
%TD*%
D21*
%TO.C,C1*%
X176220000Y-99800000D03*
X177180000Y-99800000D03*
%TD*%
D34*
%TO.C,J1*%
X195850000Y-100000000D03*
X196333274Y-98833274D03*
X196333274Y-101166726D03*
X197500000Y-98350000D03*
D35*
X197500000Y-100000000D03*
D34*
X197500000Y-101650000D03*
X198666726Y-98833274D03*
X198666726Y-101166726D03*
X199150000Y-100000000D03*
%TD*%
D36*
%TO.C,C19*%
X159725000Y-94800000D03*
X158175000Y-94800000D03*
%TD*%
D17*
%TO.C,R17*%
X163525000Y-89190000D03*
X163525000Y-90210000D03*
%TD*%
D32*
%TO.C,C7*%
X171600000Y-90180000D03*
X171600000Y-89220000D03*
%TD*%
D37*
%TO.C,R23*%
X169850000Y-93510000D03*
X169850000Y-92490000D03*
%TD*%
D14*
%TO.C,C17*%
X169600000Y-98325000D03*
X169600000Y-96775000D03*
%TD*%
D38*
%TO.C,R6*%
X159190000Y-92950000D03*
X160210000Y-92950000D03*
%TD*%
D22*
%TO.C,D4*%
X175450000Y-101100000D03*
X175450000Y-103300000D03*
%TD*%
D38*
%TO.C,R4*%
X179315000Y-99620000D03*
X180335000Y-99620000D03*
%TD*%
%TO.C,R19*%
X191890000Y-107675000D03*
X192910000Y-107675000D03*
%TD*%
D21*
%TO.C,C4*%
X179345000Y-98650000D03*
X180305000Y-98650000D03*
%TD*%
D39*
%TO.C,U3*%
X169010000Y-99525000D03*
D40*
X169010000Y-100175000D03*
D41*
X170090000Y-100175000D03*
D42*
X170090000Y-99525000D03*
D43*
X169550000Y-99850000D03*
%TD*%
D37*
%TO.C,R12*%
X178720000Y-90105000D03*
X178720000Y-89085000D03*
%TD*%
D19*
%TO.C,C12*%
X165800000Y-107000000D03*
X160700000Y-107000000D03*
%TD*%
D17*
%TO.C,R16*%
X165450000Y-89190000D03*
X165450000Y-90210000D03*
%TD*%
D20*
%TO.C,D9*%
X157850000Y-99800000D03*
X158550000Y-99800000D03*
%TD*%
D17*
%TO.C,R27*%
X180300000Y-102240000D03*
X180300000Y-103260000D03*
%TD*%
D32*
%TO.C,C9*%
X164500000Y-90180000D03*
X164500000Y-89220000D03*
%TD*%
D18*
%TO.C,C8*%
X168500000Y-108700000D03*
X168500000Y-110600000D03*
%TD*%
%TO.C,C15*%
X172300000Y-108700000D03*
X172300000Y-110600000D03*
%TD*%
D29*
%TO.C,Q6*%
X161800000Y-93525000D03*
X161800000Y-94175000D03*
X161800000Y-94825000D03*
X161800000Y-95475000D03*
D30*
X164725000Y-93525000D03*
X164725000Y-94175000D03*
D31*
X163650000Y-94500000D03*
D30*
X164725000Y-94825000D03*
X164725000Y-95475000D03*
%TD*%
D44*
%TO.C,C11*%
X192200000Y-95550000D03*
X192200000Y-90450000D03*
%TD*%
D15*
%TO.C,C25*%
X170900000Y-99367500D03*
X170900000Y-100327500D03*
%TD*%
D17*
%TO.C,R22*%
X175400000Y-89090000D03*
X175400000Y-90110000D03*
%TD*%
D33*
%TO.C,C20*%
X193950000Y-98850000D03*
X192050000Y-98850000D03*
%TD*%
D45*
%TO.C,F1*%
X198750000Y-93950000D03*
X198750000Y-96750000D03*
%TD*%
D46*
%TO.C,J7*%
X169250000Y-103500000D03*
D47*
X171325000Y-103500000D03*
%TD*%
D48*
%TO.C,J2*%
X154625000Y-97110000D03*
X154625000Y-102890000D03*
D49*
X156070000Y-96750000D03*
X156070000Y-97550000D03*
D50*
X156070000Y-98750000D03*
X156070000Y-99750000D03*
X156070000Y-100250000D03*
X156070000Y-101250000D03*
D49*
X156070000Y-102450000D03*
X156070000Y-103250000D03*
X156070000Y-103250000D03*
X156070000Y-102450000D03*
D50*
X156070000Y-101750000D03*
X156070000Y-100750000D03*
X156070000Y-99250000D03*
X156070000Y-98250000D03*
D49*
X156070000Y-97550000D03*
X156070000Y-96750000D03*
D51*
X155155000Y-95680000D03*
D52*
X150975000Y-95680000D03*
D51*
X155155000Y-104320000D03*
D52*
X150975000Y-104320000D03*
%TD*%
D37*
%TO.C,R20*%
X197000000Y-94310000D03*
X197000000Y-93290000D03*
%TD*%
D53*
%TO.C,U4*%
X181350000Y-102400000D03*
X181350000Y-102900000D03*
X181350000Y-103400000D03*
X182850000Y-103400000D03*
X182850000Y-102900000D03*
X182850000Y-102400000D03*
%TD*%
D17*
%TO.C,R21*%
X174450000Y-89090000D03*
X174450000Y-90110000D03*
%TD*%
D22*
%TO.C,D2*%
X179050000Y-101100000D03*
X179050000Y-103300000D03*
%TD*%
D28*
%TO.C,R18*%
X188810000Y-103500000D03*
X187790000Y-103500000D03*
%TD*%
D17*
%TO.C,R14*%
X170625000Y-89190000D03*
X170625000Y-90210000D03*
%TD*%
D24*
%TO.C,C23*%
X190630000Y-103500000D03*
X189670000Y-103500000D03*
%TD*%
D34*
%TO.C,J3*%
X156230000Y-90850000D03*
X157396726Y-91333274D03*
X155063274Y-91333274D03*
X157880000Y-92500000D03*
D35*
X156230000Y-92500000D03*
D34*
X154580000Y-92500000D03*
X157396726Y-93666726D03*
X155063274Y-93666726D03*
X156230000Y-94150000D03*
%TD*%
D15*
%TO.C,C27*%
X183900000Y-102420000D03*
X183900000Y-103380000D03*
%TD*%
D44*
%TO.C,C13*%
X185250000Y-95550000D03*
X185250000Y-90450000D03*
%TD*%
D54*
%TO.C,Q13*%
X190009995Y-108605004D03*
D55*
X188960008Y-106705004D03*
D54*
X184090005Y-104794996D03*
X184090005Y-106064999D03*
X184090005Y-107335001D03*
X184090005Y-108605004D03*
D56*
X186490056Y-106700000D03*
%TD*%
D54*
%TO.C,Q12*%
X176555005Y-104794996D03*
D57*
X177604992Y-106694996D03*
D54*
X182474995Y-108605004D03*
X182474995Y-107335001D03*
X182474995Y-106064999D03*
X182474995Y-104794996D03*
D56*
X180074944Y-106700000D03*
%TD*%
D37*
%TO.C,R24*%
X197000000Y-96160000D03*
X197000000Y-95140000D03*
%TD*%
D23*
%TO.C,Q1*%
X162137500Y-91300000D03*
X162137500Y-90350000D03*
X162137500Y-89400000D03*
X159862500Y-89400000D03*
X159862500Y-90350000D03*
X159862500Y-91300000D03*
%TD*%
D46*
%TO.C,J4*%
X188500000Y-100000000D03*
D47*
X190575000Y-100000000D03*
%TD*%
D17*
%TO.C,R25*%
X168200000Y-96480000D03*
X168200000Y-97500000D03*
X168200000Y-98515000D03*
%TD*%
D58*
%TO.C,J5*%
X195025000Y-109200000D03*
X195025000Y-108200000D03*
X195025000Y-107200000D03*
X195025000Y-106200000D03*
X195025000Y-105200000D03*
X195025000Y-104200000D03*
D59*
X198900000Y-110500000D03*
X198900000Y-102900000D03*
%TD*%
D60*
%TO.C,U2*%
X181750000Y-100900000D03*
D61*
X183250000Y-100812500D03*
D60*
X184750000Y-100900000D03*
%TD*%
D32*
%TO.C,C6*%
X179750000Y-96105000D03*
X179750000Y-95145000D03*
%TD*%
D34*
%TO.C,J6*%
X156230000Y-109150000D03*
X155063274Y-108666726D03*
X157396726Y-108666726D03*
X154580000Y-107500000D03*
D35*
X156230000Y-107500000D03*
D34*
X157880000Y-107500000D03*
X155063274Y-106333274D03*
X157396726Y-106333274D03*
X156230000Y-105850000D03*
%TD*%
D62*
%TO.C,C24*%
X185075000Y-103250000D03*
X186625000Y-103250000D03*
%TD*%
D28*
%TO.C,R11*%
X181050000Y-92225000D03*
X180030000Y-92225000D03*
%TD*%
%TO.C,R9*%
X181050000Y-91275000D03*
X180030000Y-91275000D03*
%TD*%
D63*
%TO.C,Q3*%
X193050000Y-108750000D03*
X191750000Y-108750000D03*
X192400000Y-110750000D03*
%TD*%
D64*
%TO.C,R2*%
X192300000Y-105862500D03*
X192300000Y-102937500D03*
%TD*%
D65*
%TO.C,D1*%
X158200000Y-97225000D03*
X158200000Y-95975000D03*
%TD*%
D28*
%TO.C,R5*%
X181050000Y-90325000D03*
X180030000Y-90325000D03*
%TD*%
D66*
%TO.C,L1*%
X187100000Y-110500000D03*
X177100000Y-110500000D03*
%TD*%
%LPD*%
M02*
