%TF.GenerationSoftware,KiCad,Pcbnew,8.0.3*%
%TF.CreationDate,2024-10-12T12:31:44+02:00*%
%TF.ProjectId,Parkside-100W-Brick,5061726b-7369-4646-952d-313030572d42,rev?*%
%TF.SameCoordinates,Original*%
%TF.FileFunction,Copper,L7,Inr*%
%TF.FilePolarity,Positive*%
%FSLAX46Y46*%
G04 Gerber Fmt 4.6, Leading zero omitted, Abs format (unit mm)*
G04 Created by KiCad (PCBNEW 8.0.3) date 2024-10-12 12:31:44*
%MOMM*%
%LPD*%
G01*
G04 APERTURE LIST*
%TA.AperFunction,ComponentPad*%
%ADD10C,0.700000*%
%TD*%
%TA.AperFunction,ComponentPad*%
%ADD11C,4.400000*%
%TD*%
%TA.AperFunction,ComponentPad*%
%ADD12O,2.100000X1.000000*%
%TD*%
%TA.AperFunction,ComponentPad*%
%ADD13O,1.600000X1.000000*%
%TD*%
%TA.AperFunction,ComponentPad*%
%ADD14R,6.500000X1.500000*%
%TD*%
%TA.AperFunction,ViaPad*%
%ADD15C,0.600000*%
%TD*%
%TA.AperFunction,ViaPad*%
%ADD16C,0.450000*%
%TD*%
G04 APERTURE END LIST*
D10*
%TO.N,Net-(J1-Pin_1)*%
%TO.C,J1*%
X195850000Y-100000000D03*
X196333274Y-98833274D03*
X196333274Y-101166726D03*
X197500000Y-98350000D03*
D11*
X197500000Y-100000000D03*
D10*
X197500000Y-101650000D03*
X198666726Y-98833274D03*
X198666726Y-101166726D03*
X199150000Y-100000000D03*
%TD*%
D12*
%TO.N,GND*%
%TO.C,J2*%
X155155000Y-95680000D03*
D13*
X150975000Y-95680000D03*
D12*
X155155000Y-104320000D03*
D13*
X150975000Y-104320000D03*
%TD*%
D10*
%TO.N,GND*%
%TO.C,J3*%
X156230000Y-90850000D03*
X157396726Y-91333274D03*
X155063274Y-91333274D03*
X157880000Y-92500000D03*
D11*
X156230000Y-92500000D03*
D10*
X154580000Y-92500000D03*
X157396726Y-93666726D03*
X155063274Y-93666726D03*
X156230000Y-94150000D03*
%TD*%
%TO.N,GND*%
%TO.C,J6*%
X156230000Y-109150000D03*
X155063274Y-108666726D03*
X157396726Y-108666726D03*
X154580000Y-107500000D03*
D11*
X156230000Y-107500000D03*
D10*
X157880000Y-107500000D03*
X155063274Y-106333274D03*
X157396726Y-106333274D03*
X156230000Y-105850000D03*
%TD*%
D14*
%TO.N,/IP2368 Buck-Boost-Converter/HB2*%
%TO.C,L1*%
X187100000Y-110500000D03*
%TO.N,/IP2368 Buck-Boost-Converter/HB1*%
X177100000Y-110500000D03*
%TD*%
D15*
%TO.N,GND*%
X163500000Y-110500000D03*
X189000000Y-91500000D03*
X152500000Y-101500000D03*
X177000000Y-96000000D03*
X173000000Y-95000000D03*
X159000000Y-110500000D03*
X151500000Y-92500000D03*
X190275352Y-98975000D03*
X162000000Y-109000000D03*
X183000000Y-94500000D03*
X169250000Y-101450000D03*
X175000000Y-97000000D03*
X192200000Y-91600000D03*
X152500000Y-98500000D03*
X189525000Y-101775352D03*
X160500000Y-101500000D03*
D16*
X195025000Y-109200000D03*
D15*
X182200000Y-107025000D03*
X182933333Y-105700000D03*
X151500000Y-94000000D03*
X157500000Y-89500000D03*
X153000000Y-92500000D03*
X159000000Y-104500000D03*
X181100000Y-99600000D03*
D16*
X169550000Y-99850000D03*
D15*
X177000000Y-94000000D03*
X181500000Y-90000000D03*
X199500000Y-110500000D03*
X172500000Y-89190000D03*
X180400000Y-89200000D03*
X151500000Y-109000000D03*
X173000000Y-94000000D03*
X161850000Y-100100000D03*
X153000000Y-110500000D03*
X189000000Y-90000000D03*
X173000000Y-96000000D03*
X186000000Y-90000000D03*
X185800000Y-98800000D03*
X153000000Y-95500000D03*
X177000000Y-97000000D03*
X151000000Y-100000000D03*
X154500000Y-110500000D03*
X152500000Y-100000000D03*
X152500000Y-103000000D03*
X171025352Y-102475000D03*
X151500000Y-107500000D03*
X171000000Y-110500000D03*
X185250000Y-91600000D03*
X178800000Y-89200000D03*
X175000000Y-95000000D03*
X166500000Y-110500000D03*
X159500000Y-107000000D03*
X157750000Y-95000000D03*
X181500000Y-94500000D03*
D16*
X169850000Y-92275000D03*
D15*
X181100000Y-98800000D03*
X151000000Y-101500000D03*
X183000000Y-90000000D03*
X151000000Y-97000000D03*
X192200000Y-89200000D03*
X185800000Y-99600000D03*
X153000000Y-107500000D03*
X153000000Y-89500000D03*
X181500000Y-93000000D03*
X186000000Y-91500000D03*
X159000000Y-106000000D03*
X182933333Y-106350000D03*
X182200000Y-106350000D03*
X181100000Y-98000000D03*
X174000000Y-94000000D03*
X154500000Y-89500000D03*
X182200000Y-107700000D03*
X152500000Y-97000000D03*
X187500000Y-90000000D03*
X169250000Y-105550000D03*
X192200000Y-90000000D03*
X183666666Y-107025000D03*
X174000000Y-93000000D03*
X199500000Y-102900000D03*
X181900000Y-99600000D03*
X175000000Y-93000000D03*
X188500000Y-102050000D03*
X190550000Y-100000000D03*
X182933333Y-107025000D03*
X190275352Y-101025000D03*
X173000000Y-93000000D03*
X181900000Y-100400000D03*
X151500000Y-91000000D03*
X185250000Y-90800000D03*
X185250000Y-89200000D03*
X190500000Y-90000000D03*
X167474648Y-102475000D03*
X184500000Y-90000000D03*
X186724648Y-98975000D03*
X151500000Y-106000000D03*
X160300000Y-107000000D03*
X175000000Y-94000000D03*
D16*
X168675000Y-100275000D03*
D15*
X161100000Y-107000000D03*
X160500000Y-110500000D03*
X183666666Y-107700000D03*
X183666666Y-105700000D03*
X153000000Y-104500000D03*
X181900000Y-98000000D03*
X183000000Y-91500000D03*
X176000000Y-96000000D03*
X198300000Y-102900000D03*
X162000000Y-106000000D03*
X157500000Y-104500000D03*
X162000000Y-101500000D03*
X174000000Y-96000000D03*
X165000000Y-110500000D03*
X160500000Y-104500000D03*
X171300000Y-103500000D03*
X173000000Y-97000000D03*
X181500000Y-91500000D03*
X157500000Y-110500000D03*
X174000000Y-95000000D03*
X176000000Y-97000000D03*
X176000000Y-94000000D03*
X182925000Y-108375000D03*
X160900000Y-99300000D03*
D16*
X168075000Y-100275000D03*
D15*
X182933333Y-107700000D03*
X182200000Y-105700000D03*
X158500000Y-95000000D03*
X181100000Y-100400000D03*
X160500000Y-103000000D03*
X151500000Y-110500000D03*
X157000000Y-95000000D03*
D16*
X169350000Y-96775000D03*
D15*
X181900000Y-98800000D03*
X158500000Y-95750000D03*
X198300000Y-110500000D03*
X162000000Y-110500000D03*
X153000000Y-94000000D03*
X187475000Y-98224648D03*
X170275000Y-105275352D03*
X168000000Y-110500000D03*
X176000000Y-93000000D03*
X162000000Y-103000000D03*
X177000000Y-95000000D03*
X185000000Y-98000000D03*
X186724648Y-101025000D03*
X177000000Y-93000000D03*
X153000000Y-91000000D03*
X187475000Y-101775352D03*
X159000000Y-109000000D03*
X183666666Y-106350000D03*
X157750000Y-95750000D03*
X172500000Y-110500000D03*
X185250000Y-90000000D03*
X174000000Y-97000000D03*
X159000000Y-101500000D03*
X168225000Y-105275352D03*
X168225000Y-101724648D03*
X192200000Y-99300000D03*
X192200000Y-101200000D03*
X156000000Y-110500000D03*
X166962500Y-90350000D03*
X185800000Y-98000000D03*
X192200000Y-98400000D03*
X185000000Y-98800000D03*
D16*
X169850000Y-96775000D03*
D15*
X189525000Y-98224648D03*
X167474648Y-104525000D03*
X160500000Y-109000000D03*
X158800000Y-98850000D03*
X160500000Y-106000000D03*
X162000000Y-104500000D03*
X175000000Y-96000000D03*
X176000000Y-95000000D03*
X192200000Y-100300000D03*
X183666666Y-105050000D03*
X167200000Y-103500000D03*
X187500000Y-91500000D03*
X192200000Y-90800000D03*
X153000000Y-106000000D03*
X185000000Y-99600000D03*
X177800000Y-89200000D03*
X159000000Y-103000000D03*
X151000000Y-103000000D03*
D16*
X170900000Y-100450000D03*
D15*
X179050000Y-103300000D03*
X173650000Y-103300000D03*
X188500000Y-97950000D03*
X151000000Y-98500000D03*
X191750000Y-108750000D03*
X184500000Y-91500000D03*
X151500000Y-89500000D03*
X161900000Y-107000000D03*
X183000000Y-93000000D03*
X182850000Y-110850000D03*
X157000000Y-95750000D03*
X169500000Y-110500000D03*
X161050000Y-100100000D03*
X158500000Y-94250000D03*
X182191666Y-108375000D03*
X160250000Y-100100000D03*
X186450000Y-100000000D03*
X190500000Y-91500000D03*
X171025352Y-104525000D03*
X156000000Y-89500000D03*
X153000000Y-109000000D03*
X170275000Y-101724648D03*
%TO.N,Net-(J1-Pin_1)*%
X198100000Y-96400000D03*
X198100000Y-97050000D03*
X199400000Y-96400000D03*
X198750000Y-97700000D03*
X198750000Y-97050000D03*
X199400000Y-97050000D03*
X199400000Y-97700000D03*
X199400000Y-98350000D03*
X198750000Y-96400000D03*
%TO.N,/IP2368 Buck-Boost-Converter/HB2*%
X186750000Y-107000000D03*
X186750000Y-108500000D03*
X186000000Y-104750000D03*
X187500000Y-104750000D03*
X185250000Y-107750000D03*
X186750000Y-107750000D03*
X186000000Y-107000000D03*
X186000000Y-106250000D03*
X186750000Y-105500000D03*
X186000000Y-105500000D03*
X187500000Y-107750000D03*
X187500000Y-107000000D03*
X187500000Y-106250000D03*
X186000000Y-108500000D03*
X185250000Y-108500000D03*
X186750000Y-104750000D03*
D16*
X176220000Y-99800000D03*
D15*
X185250000Y-105500000D03*
X187500000Y-108500000D03*
X185250000Y-106250000D03*
X185250000Y-104750000D03*
X187500000Y-105500000D03*
X186750000Y-106250000D03*
X186000000Y-107750000D03*
X185250000Y-107000000D03*
%TO.N,/IP2368 Buck-Boost-Converter/HB1*%
X179000000Y-109250000D03*
X181250000Y-104750000D03*
X179750000Y-107000000D03*
X181250000Y-106250000D03*
X179000000Y-107750000D03*
X181250000Y-107000000D03*
X179000000Y-107000000D03*
X179750000Y-107750000D03*
X180500000Y-109250000D03*
X180500000Y-107000000D03*
X179750000Y-106250000D03*
X179000000Y-104750000D03*
X180500000Y-105500000D03*
X179750000Y-104750000D03*
X179750000Y-108500000D03*
D16*
X174980000Y-99800000D03*
D15*
X180500000Y-107750000D03*
X180500000Y-104750000D03*
X181250000Y-105500000D03*
X179750000Y-109250000D03*
X179000000Y-106250000D03*
X181250000Y-108500000D03*
X179000000Y-105500000D03*
X180500000Y-108500000D03*
X180500000Y-106250000D03*
X181250000Y-107750000D03*
X179000000Y-108500000D03*
X179750000Y-105500000D03*
D16*
%TO.N,/Battery Interface/I^{2}C_INT*%
X195025000Y-108200000D03*
X170600000Y-93510000D03*
%TO.N,+5V*%
X185300000Y-103500000D03*
X184750000Y-102700000D03*
X184750000Y-103500000D03*
X168075000Y-95175000D03*
D15*
X177250000Y-103300000D03*
X175450000Y-103300000D03*
D16*
X168075000Y-94675000D03*
X171000000Y-99150000D03*
X168575000Y-94675000D03*
X168575000Y-95175000D03*
X185300000Y-102700000D03*
X171000000Y-99600000D03*
X185025000Y-103100000D03*
%TO.N,/IP2368 Buck-Boost-Converter/HLED*%
X170600000Y-94275000D03*
X165450000Y-90210000D03*
%TO.N,/Connector/PORT1_D+*%
X157875000Y-100800000D03*
X176725000Y-89825000D03*
D15*
%TO.N,/Connector/PORT1_CC2*%
X166962500Y-89550000D03*
D16*
X157850000Y-101800000D03*
X177175000Y-90950000D03*
%TO.N,/Connector/PORT1_CC1*%
X157850000Y-98800000D03*
X175675000Y-90950000D03*
D15*
X159862500Y-89400000D03*
%TO.N,/IP2368 Buck-Boost-Converter/HB_IN*%
X176500000Y-105750000D03*
X175000000Y-108750000D03*
X175000000Y-108000000D03*
X175750000Y-105750000D03*
X175750000Y-106500000D03*
X176500000Y-107250000D03*
X175750000Y-108000000D03*
X178000000Y-108750000D03*
X178000000Y-108000000D03*
X176500000Y-108000000D03*
X175000000Y-106500000D03*
X175750000Y-108750000D03*
X176500000Y-108750000D03*
D16*
X173175000Y-98900000D03*
D15*
X177250000Y-108750000D03*
X175750000Y-107250000D03*
X177250000Y-108000000D03*
X178000000Y-107250000D03*
X176500000Y-106500000D03*
X177250000Y-106500000D03*
X177250000Y-105750000D03*
X175000000Y-107250000D03*
X178000000Y-105000000D03*
X178000000Y-105750000D03*
X175000000Y-105750000D03*
X178000000Y-106500000D03*
X177250000Y-107250000D03*
D16*
%TO.N,/IP2368 Buck-Boost-Converter/LG2*%
X175680000Y-98895000D03*
D15*
X184090005Y-108605004D03*
%TO.N,/IP2368 Buck-Boost-Converter/HB_BAT*%
X190250000Y-107000000D03*
D16*
X192300000Y-104600000D03*
D15*
X190250000Y-104750000D03*
X188750000Y-106250000D03*
X188750000Y-107750000D03*
X189500000Y-104750000D03*
X189500000Y-107000000D03*
X188750000Y-105500000D03*
X188750000Y-104750000D03*
D16*
X180335000Y-99620000D03*
D15*
X189500000Y-106250000D03*
X190250000Y-106250000D03*
D16*
X177800000Y-98900000D03*
D15*
X190250000Y-105500000D03*
X188750000Y-107000000D03*
X189500000Y-105500000D03*
D16*
%TO.N,/IP2368 Buck-Boost-Converter/HG2*%
X177200000Y-98900000D03*
D15*
X190009995Y-108605004D03*
D16*
%TO.N,/Connector/PORT1_D-*%
X157850000Y-99800000D03*
X176125000Y-89814070D03*
D15*
%TO.N,/Connector/POWER_VBUS*%
X158925000Y-96825000D03*
X153500000Y-98000000D03*
X160900000Y-96300000D03*
X154500000Y-100000000D03*
X161150000Y-93150000D03*
X161150000Y-93850000D03*
X160900000Y-97000000D03*
X157575000Y-97525000D03*
X158925000Y-97525000D03*
X158250000Y-96825000D03*
X160900000Y-95600000D03*
X159600000Y-95250000D03*
X159600000Y-96650000D03*
X160450000Y-93850000D03*
X160275000Y-97350000D03*
X159750000Y-93850000D03*
X154500000Y-99000000D03*
X153500000Y-100000000D03*
X154500000Y-101000000D03*
X161150000Y-94550000D03*
X153500000Y-99000000D03*
X159600000Y-97350000D03*
X154750000Y-102000000D03*
X153500000Y-102000000D03*
X159600000Y-95950000D03*
X160275000Y-95950000D03*
X160450000Y-93150000D03*
X160275000Y-96650000D03*
X159750000Y-94550000D03*
X158250000Y-97525000D03*
X160275000Y-95250000D03*
X153500000Y-101000000D03*
X160450000Y-94550000D03*
X154750000Y-98000000D03*
%TO.N,/Battery Interface/VBAT*%
X199500000Y-94075000D03*
X198825000Y-92050000D03*
X198150000Y-94075000D03*
X198825000Y-94075000D03*
X199500000Y-92725000D03*
X199500000Y-92050000D03*
X199500000Y-90700000D03*
X198150000Y-93400000D03*
X198825000Y-91375000D03*
X198825000Y-93400000D03*
X199500000Y-93400000D03*
X198825000Y-92725000D03*
X198825000Y-90700000D03*
X199500000Y-91375000D03*
%TO.N,+3.3V*%
X174450000Y-89090000D03*
D16*
X180300000Y-102240000D03*
X195650000Y-105200000D03*
X183900000Y-102625000D03*
X168200000Y-99367500D03*
D15*
%TO.N,/IP2368 Buck-Boost-Converter/BAT*%
X192000000Y-93500000D03*
X193500000Y-98500000D03*
X194900000Y-92000000D03*
X193500000Y-100750000D03*
X194250000Y-100750000D03*
X197975000Y-90950000D03*
X193500000Y-95000000D03*
X196025000Y-89650000D03*
X193500000Y-97750000D03*
X194900000Y-90500000D03*
X196675000Y-89650000D03*
X187500000Y-95000000D03*
X193500000Y-96500000D03*
X197325000Y-90950000D03*
X193500000Y-89000000D03*
X194250000Y-97750000D03*
X192750000Y-102250000D03*
X197325000Y-92250000D03*
X192200000Y-94400000D03*
X196025000Y-92250000D03*
X196025000Y-90950000D03*
X192200000Y-95200000D03*
X193500000Y-102250000D03*
X194250000Y-102250000D03*
X194250000Y-101500000D03*
D16*
X192300000Y-103900000D03*
D15*
X197975000Y-89650000D03*
X196025000Y-90300000D03*
X195000000Y-96500000D03*
X192200000Y-96800000D03*
X186000000Y-95000000D03*
X189000000Y-96500000D03*
X185250000Y-96800000D03*
X195000000Y-103000000D03*
X192000000Y-102250000D03*
X195000000Y-95000000D03*
X196675000Y-90300000D03*
X194900000Y-89000000D03*
X197325000Y-89650000D03*
X187500000Y-96500000D03*
X189000000Y-93500000D03*
X197975000Y-91600000D03*
X187500000Y-93500000D03*
X189000000Y-95000000D03*
X195000000Y-93500000D03*
X192200000Y-96000000D03*
X194250000Y-99250000D03*
X186000000Y-96500000D03*
X190500000Y-93500000D03*
X193500000Y-92000000D03*
X193500000Y-93500000D03*
X194250000Y-103000000D03*
X196025000Y-91600000D03*
X197325000Y-90300000D03*
X197975000Y-90300000D03*
X193500000Y-103000000D03*
X196675000Y-92250000D03*
X190500000Y-95000000D03*
X195000000Y-102250000D03*
X192750000Y-103000000D03*
D16*
X180305000Y-98650000D03*
D15*
X194250000Y-98500000D03*
X193500000Y-99250000D03*
X194250000Y-100000000D03*
X197975000Y-92250000D03*
X185250000Y-94400000D03*
X193500000Y-90500000D03*
X190500000Y-96500000D03*
X197325000Y-91600000D03*
X186000000Y-93500000D03*
X193500000Y-101500000D03*
X185250000Y-95200000D03*
X185250000Y-96000000D03*
X196675000Y-90950000D03*
X196675000Y-91600000D03*
X193500000Y-100000000D03*
D16*
%TO.N,/IP2368 Buck-Boost-Converter/VBUS_G*%
X170050000Y-95425000D03*
D15*
X161800000Y-95550000D03*
%TO.N,Net-(Q3-D)*%
X197000000Y-96160000D03*
X192400000Y-110750000D03*
%TO.N,Net-(Q5-G)*%
X197000000Y-94310000D03*
X199150000Y-89850000D03*
%TO.N,/IP2368 Buck-Boost-Converter/CSP1*%
X166200000Y-94800000D03*
X163500000Y-101750000D03*
X165500000Y-108750000D03*
X164500000Y-101750000D03*
X163500000Y-99750000D03*
X163500000Y-106750000D03*
X165675000Y-93400000D03*
X165500000Y-103750000D03*
X164100000Y-95500000D03*
X164800000Y-96200000D03*
X163500000Y-103750000D03*
X164500000Y-108750000D03*
X166250000Y-100100000D03*
X167690000Y-106300000D03*
X164500000Y-105750000D03*
X163400000Y-96200000D03*
X162700000Y-96200000D03*
X168500000Y-108750000D03*
X167100000Y-107000000D03*
X162700000Y-93400000D03*
X167275000Y-96225000D03*
X163500000Y-104750000D03*
X166500000Y-105750000D03*
X162700000Y-95500000D03*
X166300000Y-107000000D03*
X163500000Y-107750000D03*
X165500000Y-95500000D03*
X167500000Y-108750000D03*
X170820000Y-106300000D03*
X172500000Y-108750000D03*
X165500000Y-98750000D03*
X164650000Y-100100000D03*
X170500000Y-107750000D03*
X163500000Y-105750000D03*
X164800000Y-94100000D03*
X164100000Y-96200000D03*
X167300000Y-98800000D03*
X162700000Y-94100000D03*
X163400000Y-94800000D03*
X165500000Y-102750000D03*
X169500000Y-107750000D03*
X166900000Y-97900000D03*
X163400000Y-94100000D03*
X163900000Y-97900000D03*
X172375000Y-105725000D03*
X165500000Y-107000000D03*
X164100000Y-93400000D03*
X164900000Y-97900000D03*
D16*
X169350000Y-98350000D03*
X169850000Y-98350000D03*
D15*
X166500000Y-101750000D03*
X167050000Y-100100000D03*
X166500000Y-108750000D03*
X164800000Y-95500000D03*
X164500000Y-103750000D03*
X165500000Y-105750000D03*
X162900000Y-97900000D03*
X164100000Y-94100000D03*
X169500000Y-108750000D03*
X162700000Y-94800000D03*
X171500000Y-106750000D03*
X166200000Y-96200000D03*
X165450000Y-100100000D03*
X164100000Y-94800000D03*
X166200000Y-95500000D03*
X164500000Y-102750000D03*
X171500000Y-107750000D03*
X170500000Y-108750000D03*
X163400000Y-95500000D03*
X166500000Y-94200000D03*
X165900000Y-97900000D03*
X163500000Y-102750000D03*
X164800000Y-94800000D03*
X163500000Y-98750000D03*
X165500000Y-94800000D03*
X167275000Y-95050000D03*
X168500000Y-107750000D03*
X164500000Y-104750000D03*
X166500000Y-98750000D03*
X165500000Y-101750000D03*
X165500000Y-104750000D03*
X164700000Y-107000000D03*
X163500000Y-100750000D03*
X172500000Y-107750000D03*
X165500000Y-96200000D03*
X171500000Y-108750000D03*
X165500000Y-94100000D03*
X169250000Y-106710000D03*
X164800000Y-93400000D03*
X163400000Y-93400000D03*
X164500000Y-98750000D03*
D16*
%TO.N,/Battery Interface/I^{2}C_SDA*%
X182900000Y-102300000D03*
X195025000Y-107200000D03*
D15*
X175400000Y-89850000D03*
D16*
%TO.N,/Battery Interface/I^{2}C_SCL*%
X195025000Y-106200000D03*
X181350000Y-102300000D03*
D15*
X174450000Y-90110000D03*
D16*
%TO.N,Net-(R25-C)*%
X168575000Y-97500000D03*
X182900000Y-103450000D03*
%TD*%
%TA.AperFunction,Conductor*%
%TO.N,+5V*%
G36*
X171225000Y-99825000D02*
G01*
X170775000Y-99825000D01*
X170775000Y-98925000D01*
X171225000Y-98925000D01*
X171225000Y-99825000D01*
G37*
%TD.AperFunction*%
%TD*%
%TA.AperFunction,Conductor*%
%TO.N,Net-(J1-Pin_1)*%
G36*
X199643039Y-96119685D02*
G01*
X199688794Y-96172489D01*
X199700000Y-96224000D01*
X199700000Y-99876000D01*
X199680315Y-99943039D01*
X199627511Y-99988794D01*
X199576000Y-100000000D01*
X197551362Y-100000000D01*
X197484323Y-99980315D01*
X197463681Y-99963681D01*
X196031906Y-98531906D01*
X195998421Y-98470583D01*
X196003405Y-98400891D01*
X196026140Y-98362717D01*
X197962938Y-96142486D01*
X198021842Y-96104907D01*
X198056381Y-96100000D01*
X199576000Y-96100000D01*
X199643039Y-96119685D01*
G37*
%TD.AperFunction*%
%TD*%
%TA.AperFunction,Conductor*%
%TO.N,/IP2368 Buck-Boost-Converter/CSP1*%
G36*
X170018039Y-98144685D02*
G01*
X170063794Y-98197489D01*
X170075000Y-98249000D01*
X170075000Y-98451000D01*
X170055315Y-98518039D01*
X170002511Y-98563794D01*
X169951000Y-98575000D01*
X169249000Y-98575000D01*
X169181961Y-98555315D01*
X169136206Y-98502511D01*
X169125000Y-98451000D01*
X169125000Y-98249000D01*
X169144685Y-98181961D01*
X169197489Y-98136206D01*
X169249000Y-98125000D01*
X169951000Y-98125000D01*
X170018039Y-98144685D01*
G37*
%TD.AperFunction*%
%TD*%
%TA.AperFunction,Conductor*%
%TO.N,+5V*%
G36*
X168800000Y-95400000D02*
G01*
X167850000Y-95400000D01*
X167850000Y-94574000D01*
X167869685Y-94506961D01*
X167922489Y-94461206D01*
X167974000Y-94450000D01*
X168800000Y-94450000D01*
X168800000Y-95400000D01*
G37*
%TD.AperFunction*%
%TD*%
%TA.AperFunction,Conductor*%
%TO.N,/IP2368 Buck-Boost-Converter/HB1*%
G36*
X181568039Y-104319685D02*
G01*
X181613794Y-104372489D01*
X181625000Y-104424000D01*
X181625000Y-109176000D01*
X181605315Y-109243039D01*
X181552511Y-109288794D01*
X181501000Y-109300000D01*
X181249999Y-109300000D01*
X181050000Y-109499999D01*
X181050000Y-111175500D01*
X181030315Y-111242539D01*
X180977511Y-111288294D01*
X180926000Y-111299500D01*
X173899000Y-111299500D01*
X173831961Y-111279815D01*
X173786206Y-111227011D01*
X173775000Y-111175500D01*
X173775000Y-109724000D01*
X173794685Y-109656961D01*
X173847489Y-109611206D01*
X173899000Y-109600000D01*
X178400000Y-109600000D01*
X178575000Y-109400000D01*
X178575000Y-104424000D01*
X178594685Y-104356961D01*
X178647489Y-104311206D01*
X178699000Y-104300000D01*
X181501000Y-104300000D01*
X181568039Y-104319685D01*
G37*
%TD.AperFunction*%
%TD*%
%TA.AperFunction,Conductor*%
%TO.N,/Battery Interface/VBAT*%
G36*
X199742539Y-90419685D02*
G01*
X199788294Y-90472489D01*
X199799500Y-90524000D01*
X199799500Y-94451000D01*
X199779815Y-94518039D01*
X199727011Y-94563794D01*
X199675500Y-94575000D01*
X197824000Y-94575000D01*
X197756961Y-94555315D01*
X197711206Y-94502511D01*
X197700000Y-94451000D01*
X197700000Y-93024000D01*
X197719685Y-92956961D01*
X197772489Y-92911206D01*
X197824000Y-92900000D01*
X198525000Y-92900000D01*
X198525000Y-90524000D01*
X198544685Y-90456961D01*
X198597489Y-90411206D01*
X198649000Y-90400000D01*
X199675500Y-90400000D01*
X199742539Y-90419685D01*
G37*
%TD.AperFunction*%
%TD*%
%TA.AperFunction,Conductor*%
%TO.N,/IP2368 Buck-Boost-Converter/CSP1*%
G36*
X165415677Y-92719685D02*
G01*
X165436319Y-92736319D01*
X167563291Y-94863291D01*
X167596776Y-94924614D01*
X167599606Y-94951911D01*
X167550384Y-101449188D01*
X167530193Y-101516077D01*
X167514069Y-101535930D01*
X166600000Y-102449999D01*
X166600000Y-102450000D01*
X166600000Y-104600000D01*
X168300000Y-106300000D01*
X170250000Y-106300000D01*
X171113681Y-105436319D01*
X171175004Y-105402834D01*
X171201362Y-105400000D01*
X172773638Y-105400000D01*
X172840677Y-105419685D01*
X172861319Y-105436319D01*
X173013681Y-105588681D01*
X173047166Y-105650004D01*
X173050000Y-105676362D01*
X173050000Y-109076000D01*
X173030315Y-109143039D01*
X172977511Y-109188794D01*
X172926000Y-109200000D01*
X164451362Y-109200000D01*
X164384323Y-109180315D01*
X164363681Y-109163681D01*
X162836319Y-107636319D01*
X162802834Y-107574996D01*
X162800000Y-107548638D01*
X162800000Y-98900000D01*
X162436319Y-98536319D01*
X162402834Y-98474996D01*
X162400000Y-98448638D01*
X162400000Y-92824000D01*
X162419685Y-92756961D01*
X162472489Y-92711206D01*
X162524000Y-92700000D01*
X165348638Y-92700000D01*
X165415677Y-92719685D01*
G37*
%TD.AperFunction*%
%TD*%
%TA.AperFunction,Conductor*%
%TO.N,/IP2368 Buck-Boost-Converter/HB2*%
G36*
X188118039Y-104319685D02*
G01*
X188163794Y-104372489D01*
X188175000Y-104424000D01*
X188175000Y-108275000D01*
X189472499Y-108275000D01*
X189539538Y-108294685D01*
X189585293Y-108347489D01*
X189595237Y-108416647D01*
X189585294Y-108450510D01*
X189573297Y-108476778D01*
X189554862Y-108605004D01*
X189573297Y-108733229D01*
X189627112Y-108851065D01*
X189627113Y-108851067D01*
X189711946Y-108948971D01*
X189820926Y-109019008D01*
X189820933Y-109019010D01*
X189945220Y-109055503D01*
X189945222Y-109055504D01*
X189945223Y-109055504D01*
X190074768Y-109055504D01*
X190074768Y-109055503D01*
X190153567Y-109032366D01*
X190199058Y-109019010D01*
X190199058Y-109019009D01*
X190199064Y-109019008D01*
X190208962Y-109012646D01*
X190275997Y-108992962D01*
X190343037Y-109012645D01*
X190388793Y-109065447D01*
X190400000Y-109116962D01*
X190400000Y-111175500D01*
X190380315Y-111242539D01*
X190327511Y-111288294D01*
X190276000Y-111299500D01*
X183924000Y-111299500D01*
X183856961Y-111279815D01*
X183811206Y-111227011D01*
X183800000Y-111175500D01*
X183800000Y-109724000D01*
X183819685Y-109656961D01*
X183872489Y-109611206D01*
X183924000Y-109600000D01*
X184700000Y-109600000D01*
X184900000Y-109400000D01*
X184900000Y-104429500D01*
X184919685Y-104362461D01*
X184972489Y-104316706D01*
X185024000Y-104305500D01*
X185375991Y-104305500D01*
X185376000Y-104305500D01*
X185409055Y-104301946D01*
X185409075Y-104301941D01*
X185411220Y-104301595D01*
X185431046Y-104300000D01*
X188051000Y-104300000D01*
X188118039Y-104319685D01*
G37*
%TD.AperFunction*%
%TD*%
%TA.AperFunction,Conductor*%
%TO.N,GND*%
G36*
X155100069Y-96551850D02*
G01*
X155100010Y-96781740D01*
X155085515Y-96756635D01*
X155070561Y-96741681D01*
X155037076Y-96680358D01*
X155042060Y-96610666D01*
X155083932Y-96554733D01*
X155149396Y-96530316D01*
X155158242Y-96530000D01*
X155711081Y-96530000D01*
X155100069Y-96551850D01*
G37*
%TD.AperFunction*%
%TA.AperFunction,Conductor*%
G36*
X154464306Y-94841332D02*
G01*
X154357069Y-94862663D01*
X154357063Y-94862665D01*
X154202372Y-94926740D01*
X154202371Y-94926740D01*
X154063160Y-95019758D01*
X154063152Y-95019764D01*
X153944764Y-95138152D01*
X153944758Y-95138160D01*
X153851740Y-95277371D01*
X153851740Y-95277372D01*
X153787665Y-95432063D01*
X153787663Y-95432071D01*
X153755000Y-95596277D01*
X153755000Y-95763722D01*
X153787663Y-95927928D01*
X153787665Y-95927936D01*
X153851740Y-96082627D01*
X153851740Y-96082628D01*
X153944758Y-96221839D01*
X153944764Y-96221847D01*
X154063152Y-96340235D01*
X154063160Y-96340241D01*
X154202372Y-96433259D01*
X154232790Y-96445859D01*
X154287193Y-96489700D01*
X154309258Y-96555994D01*
X154300205Y-96591464D01*
X154300240Y-96581473D01*
X153750000Y-96600000D01*
X153750000Y-94650000D01*
X154464306Y-94841332D01*
G37*
%TD.AperFunction*%
%TA.AperFunction,Conductor*%
G36*
X156550000Y-96500000D02*
G01*
X155805736Y-96526615D01*
X155952928Y-96497336D01*
X155952936Y-96497334D01*
X156107627Y-96433259D01*
X156107628Y-96433259D01*
X156246839Y-96340241D01*
X156246847Y-96340235D01*
X156365235Y-96221847D01*
X156365241Y-96221839D01*
X156458259Y-96082628D01*
X156458259Y-96082627D01*
X156522334Y-95927936D01*
X156522336Y-95927928D01*
X156550000Y-95788856D01*
X156550000Y-96500000D01*
G37*
%TD.AperFunction*%
%TA.AperFunction,Conductor*%
G36*
X156550000Y-95400000D02*
G01*
X156550000Y-95571142D01*
X156522336Y-95432071D01*
X156522334Y-95432063D01*
X156503943Y-95387663D01*
X156550000Y-95400000D01*
G37*
%TD.AperFunction*%
%TD*%
%TA.AperFunction,Conductor*%
%TO.N,GND*%
G36*
X152500000Y-94650000D02*
G01*
X152500000Y-96850000D01*
X150200500Y-96850000D01*
X150200500Y-96480828D01*
X150220185Y-96413789D01*
X150272989Y-96368034D01*
X150342147Y-96358090D01*
X150371954Y-96366267D01*
X150456236Y-96401178D01*
X150456240Y-96401179D01*
X150601126Y-96429999D01*
X150601129Y-96430000D01*
X151348871Y-96430000D01*
X151348873Y-96429999D01*
X151493759Y-96401179D01*
X151493767Y-96401177D01*
X151630254Y-96344642D01*
X151630264Y-96344637D01*
X151753096Y-96262563D01*
X151753100Y-96262560D01*
X151857560Y-96158100D01*
X151857563Y-96158096D01*
X151939637Y-96035264D01*
X151939642Y-96035254D01*
X151996177Y-95898767D01*
X151996179Y-95898759D01*
X152024999Y-95753873D01*
X152025000Y-95753871D01*
X152025000Y-95606128D01*
X152024999Y-95606126D01*
X151996179Y-95461240D01*
X151996177Y-95461232D01*
X151939642Y-95324745D01*
X151939637Y-95324735D01*
X151857563Y-95201903D01*
X151857560Y-95201899D01*
X151753100Y-95097439D01*
X151753096Y-95097436D01*
X151630264Y-95015362D01*
X151630254Y-95015357D01*
X151493767Y-94958822D01*
X151493759Y-94958820D01*
X151348872Y-94930000D01*
X150601128Y-94930000D01*
X150456240Y-94958820D01*
X150456228Y-94958823D01*
X150390161Y-94986189D01*
X150320691Y-94993658D01*
X150258212Y-94962382D01*
X150222561Y-94902293D01*
X150218779Y-94867447D01*
X150218864Y-94864911D01*
X150218866Y-94864908D01*
X150220226Y-94824557D01*
X150220226Y-94824553D01*
X150220234Y-94824553D01*
X150220228Y-94824484D01*
X150221573Y-94785306D01*
X150221572Y-94785304D01*
X150221984Y-94773316D01*
X150221964Y-94773019D01*
X150223694Y-94721716D01*
X150223730Y-94721456D01*
X150225522Y-94667533D01*
X150225524Y-94667471D01*
X150227223Y-94617071D01*
X150227205Y-94616810D01*
X150227450Y-94609418D01*
X152500000Y-94650000D01*
G37*
%TD.AperFunction*%
%TD*%
%TA.AperFunction,Conductor*%
%TO.N,GND*%
G36*
X153711428Y-103255714D02*
G01*
X153800000Y-103300000D01*
X153847112Y-103257598D01*
X154183389Y-103262269D01*
X154273018Y-103351898D01*
X154306503Y-103413221D01*
X154301519Y-103482913D01*
X154259647Y-103538846D01*
X154232793Y-103554139D01*
X154202371Y-103566740D01*
X154063160Y-103659758D01*
X154063152Y-103659764D01*
X153944764Y-103778152D01*
X153944758Y-103778160D01*
X153851740Y-103917371D01*
X153851740Y-103917372D01*
X153787665Y-104072063D01*
X153787663Y-104072071D01*
X153755000Y-104236277D01*
X153755000Y-104403722D01*
X153787663Y-104567928D01*
X153787665Y-104567936D01*
X153851740Y-104722627D01*
X153851740Y-104722628D01*
X153944758Y-104861839D01*
X153944764Y-104861847D01*
X154063152Y-104980235D01*
X154063160Y-104980241D01*
X154202371Y-105073259D01*
X154357063Y-105137334D01*
X154357071Y-105137336D01*
X154521277Y-105169999D01*
X154521280Y-105170000D01*
X154583333Y-105170000D01*
X153300000Y-105500000D01*
X153300000Y-103250000D01*
X153711428Y-103255714D01*
G37*
%TD.AperFunction*%
%TA.AperFunction,Conductor*%
G36*
X156900000Y-103300000D02*
G01*
X156800000Y-104600000D01*
X156474369Y-104683733D01*
X156522334Y-104567936D01*
X156522336Y-104567928D01*
X156554999Y-104403722D01*
X156555000Y-104403720D01*
X156555000Y-104236279D01*
X156554999Y-104236277D01*
X156522336Y-104072071D01*
X156522334Y-104072063D01*
X156458259Y-103917372D01*
X156458259Y-103917371D01*
X156365241Y-103778160D01*
X156365235Y-103778152D01*
X156246847Y-103659764D01*
X156246839Y-103659758D01*
X156107628Y-103566740D01*
X155952936Y-103502665D01*
X155952928Y-103502663D01*
X155788721Y-103470000D01*
X155158242Y-103470000D01*
X155091203Y-103450315D01*
X155045448Y-103397511D01*
X155035504Y-103328353D01*
X155060122Y-103274446D01*
X156900000Y-103300000D01*
G37*
%TD.AperFunction*%
%TD*%
%TA.AperFunction,Conductor*%
%TO.N,GND*%
G36*
X152500000Y-103300000D02*
G01*
X152500000Y-105500000D01*
X150231086Y-105500000D01*
X150230803Y-105491487D01*
X150229520Y-105452277D01*
X150229519Y-105452276D01*
X150229132Y-105440429D01*
X150229098Y-105440166D01*
X150227212Y-105383401D01*
X150227230Y-105383150D01*
X150226806Y-105370576D01*
X150226807Y-105370575D01*
X150225500Y-105331820D01*
X150224143Y-105290957D01*
X150224142Y-105290955D01*
X150223738Y-105278791D01*
X150223702Y-105278517D01*
X150221970Y-105227164D01*
X150221991Y-105226869D01*
X150220226Y-105175442D01*
X150220226Y-105175441D01*
X150218866Y-105135091D01*
X150218864Y-105135087D01*
X150218779Y-105132551D01*
X150236193Y-105064886D01*
X150287425Y-105017377D01*
X150356209Y-105005108D01*
X150390162Y-105013810D01*
X150456232Y-105041177D01*
X150456240Y-105041179D01*
X150601126Y-105069999D01*
X150601129Y-105070000D01*
X151348871Y-105070000D01*
X151348873Y-105069999D01*
X151493759Y-105041179D01*
X151493767Y-105041177D01*
X151630254Y-104984642D01*
X151630264Y-104984637D01*
X151753096Y-104902563D01*
X151753100Y-104902560D01*
X151857560Y-104798100D01*
X151857563Y-104798096D01*
X151939637Y-104675264D01*
X151939642Y-104675254D01*
X151996177Y-104538767D01*
X151996179Y-104538759D01*
X152024999Y-104393873D01*
X152025000Y-104393871D01*
X152025000Y-104246128D01*
X152024999Y-104246126D01*
X151996179Y-104101240D01*
X151996177Y-104101232D01*
X151939642Y-103964745D01*
X151939637Y-103964735D01*
X151857563Y-103841903D01*
X151857560Y-103841899D01*
X151753100Y-103737439D01*
X151753096Y-103737436D01*
X151630264Y-103655362D01*
X151630254Y-103655357D01*
X151493767Y-103598822D01*
X151493759Y-103598820D01*
X151348872Y-103570000D01*
X150601128Y-103570000D01*
X150456240Y-103598820D01*
X150456232Y-103598822D01*
X150371953Y-103633732D01*
X150302483Y-103641201D01*
X150240004Y-103609926D01*
X150204352Y-103549837D01*
X150200500Y-103519171D01*
X150200500Y-103258937D01*
X152500000Y-103300000D01*
G37*
%TD.AperFunction*%
%TD*%
%TA.AperFunction,Conductor*%
%TO.N,/IP2368 Buck-Boost-Converter/HB_IN*%
G36*
X178243039Y-104719685D02*
G01*
X178288794Y-104772489D01*
X178300000Y-104824000D01*
X178300000Y-108976000D01*
X178280315Y-109043039D01*
X178227511Y-109088794D01*
X178176000Y-109100000D01*
X176200000Y-109100000D01*
X174824000Y-109100000D01*
X174756961Y-109080315D01*
X174711206Y-109027511D01*
X174700000Y-108976000D01*
X174700000Y-104824000D01*
X174719685Y-104756961D01*
X174772489Y-104711206D01*
X174824000Y-104700000D01*
X178176000Y-104700000D01*
X178243039Y-104719685D01*
G37*
%TD.AperFunction*%
%TD*%
%TA.AperFunction,Conductor*%
%TO.N,/IP2368 Buck-Boost-Converter/HB_BAT*%
G36*
X190543039Y-104419685D02*
G01*
X190588794Y-104472489D01*
X190600000Y-104524000D01*
X190600000Y-107976000D01*
X190580315Y-108043039D01*
X190527511Y-108088794D01*
X190476000Y-108100000D01*
X188524000Y-108100000D01*
X188456961Y-108080315D01*
X188411206Y-108027511D01*
X188400000Y-107976000D01*
X188400000Y-104524000D01*
X188419685Y-104456961D01*
X188472489Y-104411206D01*
X188524000Y-104400000D01*
X190476000Y-104400000D01*
X190543039Y-104419685D01*
G37*
%TD.AperFunction*%
%TD*%
%TA.AperFunction,Conductor*%
%TO.N,GND*%
G36*
X158950000Y-92400000D02*
G01*
X159273574Y-92536897D01*
X159237916Y-92555899D01*
X159237913Y-92555901D01*
X159185104Y-92601660D01*
X159167160Y-92619242D01*
X159167154Y-92619249D01*
X159122511Y-92699059D01*
X159122509Y-92699064D01*
X159102826Y-92766096D01*
X159102825Y-92766101D01*
X159102825Y-92766102D01*
X159095901Y-92814261D01*
X159094500Y-92824003D01*
X159094500Y-95763518D01*
X159074815Y-95830557D01*
X159058181Y-95851199D01*
X158651199Y-96258181D01*
X158589876Y-96291666D01*
X158563518Y-96294500D01*
X157123992Y-96294500D01*
X157080313Y-96299197D01*
X157028825Y-96310397D01*
X157018627Y-96312890D01*
X157018624Y-96312891D01*
X156937916Y-96355899D01*
X156937913Y-96355901D01*
X156885104Y-96401660D01*
X156867160Y-96419242D01*
X156867154Y-96419249D01*
X156822511Y-96499059D01*
X156822509Y-96499064D01*
X156802826Y-96566096D01*
X156802825Y-96566101D01*
X156802825Y-96566102D01*
X156795365Y-96617988D01*
X156794500Y-96624003D01*
X156794500Y-96870500D01*
X156774815Y-96937539D01*
X156722011Y-96983294D01*
X156670500Y-96994500D01*
X155291835Y-96994500D01*
X155290206Y-96994567D01*
X155289934Y-96994500D01*
X155289251Y-96994500D01*
X155289251Y-96994330D01*
X155222406Y-96977689D01*
X155174494Y-96926834D01*
X155165275Y-96902773D01*
X155161281Y-96887865D01*
X155100010Y-96781742D01*
X155100069Y-96551850D01*
X156550000Y-96500000D01*
X156550000Y-95400000D01*
X156497333Y-95385892D01*
X156477695Y-95330506D01*
X156457933Y-95296525D01*
X156388356Y-95176888D01*
X156269109Y-95045122D01*
X156269105Y-95045119D01*
X156125145Y-94940942D01*
X156125144Y-94940941D01*
X156125142Y-94940940D01*
X155982540Y-94877665D01*
X155962706Y-94868864D01*
X155962700Y-94868862D01*
X155788856Y-94832026D01*
X155781450Y-94831857D01*
X155700000Y-94830000D01*
X154610000Y-94830000D01*
X154534815Y-94831714D01*
X154521143Y-94832026D01*
X154470011Y-94842860D01*
X153750000Y-94650000D01*
X153750000Y-96600000D01*
X154300240Y-96581473D01*
X154300059Y-96633073D01*
X154271635Y-96649485D01*
X154271632Y-96649487D01*
X154164487Y-96756632D01*
X154164485Y-96756635D01*
X154088719Y-96887863D01*
X154084726Y-96902766D01*
X154048358Y-96962425D01*
X153985510Y-96992952D01*
X153962594Y-96994045D01*
X153962594Y-96994500D01*
X153917500Y-96994500D01*
X152500000Y-96900000D01*
X152600000Y-102700000D01*
X153711428Y-103255714D01*
X153300000Y-103250000D01*
X153300000Y-105500000D01*
X154622222Y-105160000D01*
X155699989Y-105160000D01*
X155700000Y-105160000D01*
X155788855Y-105157974D01*
X155962705Y-105121136D01*
X156125142Y-105049060D01*
X156269110Y-104944877D01*
X156388354Y-104813114D01*
X156461703Y-104686990D01*
X156800000Y-104600000D01*
X156900000Y-103300000D01*
X155054511Y-103274368D01*
X155085515Y-103243365D01*
X155161281Y-103112135D01*
X155178625Y-103047405D01*
X155214989Y-102987747D01*
X155277835Y-102957217D01*
X155298399Y-102955500D01*
X157375991Y-102955500D01*
X157376000Y-102955500D01*
X157419684Y-102950803D01*
X157448875Y-102944452D01*
X157471174Y-102939602D01*
X157471190Y-102939598D01*
X157471195Y-102939597D01*
X157481373Y-102937110D01*
X157562085Y-102894100D01*
X157614889Y-102848345D01*
X157632843Y-102830754D01*
X157677490Y-102750937D01*
X157697175Y-102683898D01*
X157705500Y-102626000D01*
X157705500Y-102302479D01*
X157725185Y-102235440D01*
X157777989Y-102189685D01*
X157840241Y-102180733D01*
X157840241Y-102180181D01*
X157844087Y-102180181D01*
X157847147Y-102179741D01*
X157848784Y-102179988D01*
X157850000Y-102180181D01*
X157924931Y-102168313D01*
X157967477Y-102161575D01*
X157967478Y-102161575D01*
X157967479Y-102161574D01*
X157967482Y-102161574D01*
X158073465Y-102107573D01*
X158157573Y-102023465D01*
X158211574Y-101917482D01*
X158211575Y-101917477D01*
X158230181Y-101800003D01*
X158230181Y-101799996D01*
X158211575Y-101682522D01*
X158211575Y-101682521D01*
X158211574Y-101682519D01*
X158211574Y-101682518D01*
X158157573Y-101576535D01*
X158157571Y-101576533D01*
X158157568Y-101576529D01*
X158073470Y-101492431D01*
X158073466Y-101492428D01*
X158073465Y-101492427D01*
X157967482Y-101438426D01*
X157967481Y-101438425D01*
X157967478Y-101438424D01*
X157879259Y-101424452D01*
X157816124Y-101394523D01*
X157779193Y-101335211D01*
X157780191Y-101265348D01*
X157818801Y-101207116D01*
X157879255Y-101179506D01*
X157992482Y-101161574D01*
X158098465Y-101107573D01*
X158182573Y-101023465D01*
X158236574Y-100917482D01*
X158244018Y-100870484D01*
X158255181Y-100800003D01*
X158255181Y-100799996D01*
X158236575Y-100682522D01*
X158236575Y-100682521D01*
X158236574Y-100682519D01*
X158236574Y-100682518D01*
X158182573Y-100576535D01*
X158182571Y-100576533D01*
X158182568Y-100576529D01*
X158098470Y-100492431D01*
X158098466Y-100492428D01*
X158098465Y-100492427D01*
X157992482Y-100438426D01*
X157992481Y-100438425D01*
X157992478Y-100438424D01*
X157879259Y-100420493D01*
X157816125Y-100390564D01*
X157779193Y-100331253D01*
X157780191Y-100261390D01*
X157818801Y-100203157D01*
X157879260Y-100175547D01*
X157967477Y-100161575D01*
X157967478Y-100161575D01*
X157967479Y-100161574D01*
X157967482Y-100161574D01*
X158073465Y-100107573D01*
X158157573Y-100023465D01*
X158211574Y-99917482D01*
X158219113Y-99869881D01*
X158230181Y-99800003D01*
X158230181Y-99799996D01*
X158211575Y-99682522D01*
X158211575Y-99682521D01*
X158211574Y-99682519D01*
X158211574Y-99682518D01*
X158157573Y-99576535D01*
X158157571Y-99576533D01*
X158157568Y-99576529D01*
X158073470Y-99492431D01*
X158073466Y-99492428D01*
X158073465Y-99492427D01*
X157967482Y-99438426D01*
X157967480Y-99438425D01*
X157967477Y-99438424D01*
X157866760Y-99422473D01*
X157803625Y-99392544D01*
X157766693Y-99333233D01*
X157767691Y-99263370D01*
X157806300Y-99205137D01*
X157866760Y-99177527D01*
X157967477Y-99161575D01*
X157967478Y-99161575D01*
X157967479Y-99161574D01*
X157967482Y-99161574D01*
X158073465Y-99107573D01*
X158157573Y-99023465D01*
X158211574Y-98917482D01*
X158230181Y-98800000D01*
X158230181Y-98799996D01*
X158214169Y-98698897D01*
X158223124Y-98629604D01*
X158268120Y-98576152D01*
X158334872Y-98555513D01*
X158336642Y-98555500D01*
X158715691Y-98555500D01*
X158715693Y-98555500D01*
X158727472Y-98555079D01*
X158731900Y-98555000D01*
X158868100Y-98555000D01*
X158872528Y-98555079D01*
X158884307Y-98555500D01*
X158884309Y-98555500D01*
X162025991Y-98555500D01*
X162026000Y-98555500D01*
X162069684Y-98550803D01*
X162104476Y-98543234D01*
X162174165Y-98548217D01*
X162230100Y-98590088D01*
X162239665Y-98604971D01*
X162255958Y-98634808D01*
X162290998Y-98681615D01*
X162291002Y-98681619D01*
X162291009Y-98681629D01*
X162291016Y-98681636D01*
X162558181Y-98948801D01*
X162591666Y-99010124D01*
X162594500Y-99036482D01*
X162594500Y-107548638D01*
X162595678Y-107570618D01*
X162598511Y-107596965D01*
X162598512Y-107596967D01*
X162622470Y-107673478D01*
X162622471Y-107673483D01*
X162624978Y-107678074D01*
X162653325Y-107729987D01*
X162655957Y-107734806D01*
X162684768Y-107773292D01*
X162699945Y-107799945D01*
X164202392Y-109302392D01*
X164231314Y-109320618D01*
X164234712Y-109323670D01*
X164234738Y-109323693D01*
X164242920Y-109330286D01*
X164255379Y-109340327D01*
X164326424Y-109377490D01*
X164393456Y-109397173D01*
X164393458Y-109397173D01*
X164393464Y-109397175D01*
X164451362Y-109405500D01*
X164451366Y-109405500D01*
X172925991Y-109405500D01*
X172926000Y-109405500D01*
X172969684Y-109400803D01*
X172998875Y-109394452D01*
X173021174Y-109389602D01*
X173021190Y-109389598D01*
X173021195Y-109389597D01*
X173031373Y-109387110D01*
X173112085Y-109344100D01*
X173128027Y-109330285D01*
X173191583Y-109301262D01*
X173199289Y-109300710D01*
X173200000Y-109300000D01*
X173200000Y-109282404D01*
X173215781Y-109221869D01*
X173227490Y-109200937D01*
X173247175Y-109133898D01*
X173255500Y-109076000D01*
X173255500Y-105676362D01*
X173254322Y-105654393D01*
X173251488Y-105628035D01*
X173227529Y-105551518D01*
X173194044Y-105490195D01*
X173158991Y-105443371D01*
X173006629Y-105291009D01*
X173006628Y-105291008D01*
X173006624Y-105291004D01*
X172990283Y-105276325D01*
X172990269Y-105276313D01*
X172969620Y-105259672D01*
X172898575Y-105222509D01*
X172831543Y-105202826D01*
X172811891Y-105200000D01*
X174544500Y-105200000D01*
X174544500Y-108976008D01*
X174548054Y-109009055D01*
X174559260Y-109060566D01*
X174593686Y-109129342D01*
X174594709Y-109130522D01*
X174595214Y-109131629D01*
X174597998Y-109135795D01*
X174597323Y-109136245D01*
X174623737Y-109194076D01*
X174625000Y-109211729D01*
X174625000Y-109320500D01*
X174605315Y-109387539D01*
X174552511Y-109433294D01*
X174501000Y-109444500D01*
X173898991Y-109444500D01*
X173865944Y-109448054D01*
X173814433Y-109459260D01*
X173745657Y-109493686D01*
X173692860Y-109539436D01*
X173687376Y-109544422D01*
X173645486Y-109613145D01*
X173645483Y-109613151D01*
X173625799Y-109680187D01*
X173625797Y-109680197D01*
X173619500Y-109723996D01*
X173619500Y-111175500D01*
X173599815Y-111242539D01*
X173547011Y-111288294D01*
X173495500Y-111299500D01*
X151309412Y-111299500D01*
X151242373Y-111279815D01*
X151221731Y-111263181D01*
X150408371Y-110449821D01*
X150374886Y-110388498D01*
X150372093Y-110365353D01*
X150372031Y-110362944D01*
X150372043Y-110362799D01*
X150370625Y-110308384D01*
X150370624Y-110308350D01*
X150369645Y-110270375D01*
X150369644Y-110270373D01*
X150369335Y-110258392D01*
X150369318Y-110258263D01*
X150367159Y-110175396D01*
X150367170Y-110175258D01*
X150365765Y-110121866D01*
X150365764Y-110121832D01*
X150364410Y-110069880D01*
X150364392Y-110069734D01*
X150362131Y-109983840D01*
X150362142Y-109983699D01*
X150360715Y-109930028D01*
X150360714Y-109929994D01*
X150359372Y-109879014D01*
X150359355Y-109878878D01*
X150357006Y-109790493D01*
X150357016Y-109790364D01*
X150355591Y-109737224D01*
X150355590Y-109737191D01*
X150354545Y-109697861D01*
X150354544Y-109697860D01*
X150354227Y-109685903D01*
X150354210Y-109685761D01*
X150354061Y-109680189D01*
X150351770Y-109594797D01*
X150351780Y-109594671D01*
X150350961Y-109564409D01*
X150350286Y-109539442D01*
X150350292Y-109539441D01*
X150350285Y-109539411D01*
X150349281Y-109501956D01*
X150349280Y-109501954D01*
X150348960Y-109490013D01*
X150348943Y-109489878D01*
X150346439Y-109397397D01*
X150346449Y-109397284D01*
X150346080Y-109383765D01*
X150346081Y-109383764D01*
X150344895Y-109340327D01*
X150343914Y-109304075D01*
X150343913Y-109304073D01*
X150343564Y-109291176D01*
X150343549Y-109291070D01*
X150340975Y-109196732D01*
X150340984Y-109196607D01*
X150339542Y-109144240D01*
X150339541Y-109144210D01*
X150338459Y-109104565D01*
X150338458Y-109104563D01*
X150338105Y-109091631D01*
X150338089Y-109091506D01*
X150337237Y-109060566D01*
X150335470Y-108996408D01*
X150335480Y-108996287D01*
X150333975Y-108942132D01*
X150333974Y-108942098D01*
X150332919Y-108903753D01*
X150332918Y-108903751D01*
X150332564Y-108890876D01*
X150332549Y-108890765D01*
X150329880Y-108794643D01*
X150329890Y-108794526D01*
X150328416Y-108741902D01*
X150328415Y-108741869D01*
X150326949Y-108689069D01*
X150326932Y-108688939D01*
X150324212Y-108591785D01*
X150324221Y-108591668D01*
X150323871Y-108579284D01*
X150323872Y-108579283D01*
X150322689Y-108537411D01*
X150322689Y-108537410D01*
X150322694Y-108537409D01*
X150322688Y-108537381D01*
X150321631Y-108499595D01*
X150321629Y-108499592D01*
X150321270Y-108486732D01*
X150321255Y-108486616D01*
X150318503Y-108389118D01*
X150318512Y-108388995D01*
X150318159Y-108376607D01*
X150318160Y-108376606D01*
X150317004Y-108335996D01*
X150315901Y-108296922D01*
X150315900Y-108296920D01*
X150315536Y-108284018D01*
X150315519Y-108283896D01*
X150312747Y-108186500D01*
X150312757Y-108186378D01*
X150311247Y-108133800D01*
X150311246Y-108133768D01*
X150310123Y-108094301D01*
X150310122Y-108094298D01*
X150309787Y-108082532D01*
X150309772Y-108082406D01*
X150306988Y-107985445D01*
X150306999Y-107985320D01*
X150305416Y-107930669D01*
X150305415Y-107930634D01*
X150304309Y-107892073D01*
X150304308Y-107892071D01*
X150303956Y-107879796D01*
X150303940Y-107879678D01*
X150301155Y-107783464D01*
X150301166Y-107783343D01*
X150299609Y-107730023D01*
X150299608Y-107729987D01*
X150298110Y-107678213D01*
X150298093Y-107678082D01*
X150295306Y-107582599D01*
X150295316Y-107582462D01*
X150293720Y-107528260D01*
X150293719Y-107528223D01*
X150292232Y-107477272D01*
X150292215Y-107477139D01*
X150289449Y-107383159D01*
X150289459Y-107383018D01*
X150287827Y-107328052D01*
X150287826Y-107328016D01*
X150286361Y-107278215D01*
X150286341Y-107278068D01*
X150283616Y-107186294D01*
X150283626Y-107186152D01*
X150282077Y-107134484D01*
X150282076Y-107134444D01*
X150280515Y-107081860D01*
X150280495Y-107081708D01*
X150277797Y-106991705D01*
X150277808Y-106991571D01*
X150277406Y-106978286D01*
X150277407Y-106978285D01*
X150276190Y-106938042D01*
X150275008Y-106898612D01*
X150275007Y-106898611D01*
X150274636Y-106886206D01*
X150274617Y-106886061D01*
X150271969Y-106798511D01*
X150271980Y-106798357D01*
X150270383Y-106746064D01*
X150270382Y-106746026D01*
X150268787Y-106693307D01*
X150268765Y-106693146D01*
X150266163Y-106607928D01*
X150266175Y-106607763D01*
X150264557Y-106555336D01*
X150264556Y-106555295D01*
X150262967Y-106503283D01*
X150262945Y-106503117D01*
X150260416Y-106421177D01*
X150260429Y-106421005D01*
X150258663Y-106364355D01*
X150258662Y-106364317D01*
X150258498Y-106359036D01*
X150257567Y-106328835D01*
X150257566Y-106328833D01*
X150257195Y-106316816D01*
X150257175Y-106316657D01*
X150254722Y-106237998D01*
X150254735Y-106237815D01*
X150254330Y-106224972D01*
X150253079Y-106185301D01*
X150253091Y-106185256D01*
X150253078Y-106185257D01*
X150251833Y-106145318D01*
X150251832Y-106145317D01*
X150251462Y-106133430D01*
X150251437Y-106133241D01*
X150249071Y-106058234D01*
X150249086Y-106058039D01*
X150247311Y-106002392D01*
X150247310Y-106002346D01*
X150245754Y-105953015D01*
X150245728Y-105952826D01*
X150243470Y-105882024D01*
X150243485Y-105881811D01*
X150241791Y-105829406D01*
X150241789Y-105829349D01*
X150240130Y-105777309D01*
X150240101Y-105777096D01*
X150237961Y-105710831D01*
X150237975Y-105710615D01*
X150237573Y-105698344D01*
X150237574Y-105698343D01*
X150236323Y-105660122D01*
X150236333Y-105660122D01*
X150236321Y-105660069D01*
X150236138Y-105654393D01*
X150234985Y-105618706D01*
X150234984Y-105618705D01*
X150234596Y-105606679D01*
X150234566Y-105606446D01*
X150232541Y-105544593D01*
X150232557Y-105544347D01*
X150232144Y-105531903D01*
X150232145Y-105531901D01*
X150231086Y-105500000D01*
X152500000Y-105500000D01*
X152500000Y-103300000D01*
X150200500Y-103258937D01*
X150200500Y-96850000D01*
X152500000Y-96850000D01*
X152500000Y-94650000D01*
X150227450Y-94609418D01*
X150229090Y-94560076D01*
X150229123Y-94559828D01*
X150229519Y-94547723D01*
X150229520Y-94547722D01*
X150230842Y-94507312D01*
X150232145Y-94468098D01*
X150232144Y-94468096D01*
X150232550Y-94455885D01*
X150232533Y-94455635D01*
X150234556Y-94393831D01*
X150234587Y-94393605D01*
X150236371Y-94338395D01*
X150236387Y-94338343D01*
X150236373Y-94338343D01*
X150236723Y-94327649D01*
X150237574Y-94301656D01*
X150237573Y-94301653D01*
X150237966Y-94289646D01*
X150237952Y-94289435D01*
X150240090Y-94223220D01*
X150240120Y-94223015D01*
X150241791Y-94170594D01*
X150241797Y-94170594D01*
X150241792Y-94170543D01*
X150243089Y-94130442D01*
X150243088Y-94130440D01*
X150243476Y-94118449D01*
X150243462Y-94118230D01*
X150245717Y-94047539D01*
X150245742Y-94047354D01*
X150246148Y-94034436D01*
X150246150Y-94034434D01*
X150247351Y-93996309D01*
X150247367Y-93996261D01*
X150247353Y-93996261D01*
X150249077Y-93942252D01*
X150249062Y-93942050D01*
X150251426Y-93867085D01*
X150251451Y-93866905D01*
X150251832Y-93854682D01*
X150251833Y-93854681D01*
X150253137Y-93812855D01*
X150253137Y-93812854D01*
X150253142Y-93812854D01*
X150253138Y-93812808D01*
X150253392Y-93804759D01*
X150254330Y-93775027D01*
X150254329Y-93775025D01*
X150254724Y-93762516D01*
X150254711Y-93762341D01*
X150257162Y-93683752D01*
X150257183Y-93683591D01*
X150258713Y-93634016D01*
X150258714Y-93633973D01*
X150258916Y-93627482D01*
X150260039Y-93591503D01*
X150260037Y-93591500D01*
X150260418Y-93579310D01*
X150260406Y-93579138D01*
X150262932Y-93497292D01*
X150262954Y-93497130D01*
X150264561Y-93444547D01*
X150264562Y-93444508D01*
X150266165Y-93392568D01*
X150266153Y-93392392D01*
X150268753Y-93307268D01*
X150268775Y-93307102D01*
X150270423Y-93252615D01*
X150270424Y-93252574D01*
X150271968Y-93202038D01*
X150271957Y-93201880D01*
X150274603Y-93114402D01*
X150274622Y-93114268D01*
X150276260Y-93059624D01*
X150276261Y-93059588D01*
X150277796Y-93008852D01*
X150277785Y-93008700D01*
X150280482Y-92918735D01*
X150280501Y-92918593D01*
X150282102Y-92864712D01*
X150282105Y-92864712D01*
X150282102Y-92864686D01*
X150283247Y-92826503D01*
X150283246Y-92826500D01*
X150283613Y-92814261D01*
X150283603Y-92814128D01*
X150286326Y-92722428D01*
X150286346Y-92722292D01*
X150287897Y-92669581D01*
X150287898Y-92669546D01*
X150288268Y-92657092D01*
X150289096Y-92629213D01*
X150289095Y-92629211D01*
X150289447Y-92617373D01*
X150289437Y-92617235D01*
X150292199Y-92523399D01*
X150292216Y-92523280D01*
X150293720Y-92471759D01*
X150293723Y-92471759D01*
X150293720Y-92471732D01*
X150294944Y-92430180D01*
X150294943Y-92430177D01*
X150295303Y-92417952D01*
X150295294Y-92417811D01*
X150298078Y-92322433D01*
X150298095Y-92322299D01*
X150299608Y-92270011D01*
X150299609Y-92269975D01*
X150301153Y-92217107D01*
X150301143Y-92216970D01*
X150301634Y-92200000D01*
X150303924Y-92120876D01*
X150303940Y-92120763D01*
X150304308Y-92107927D01*
X150304309Y-92107926D01*
X150305416Y-92069330D01*
X150306606Y-92028243D01*
X150306985Y-92015162D01*
X150306974Y-92015033D01*
X150309757Y-91918105D01*
X150309773Y-91917982D01*
X150311247Y-91866200D01*
X150311250Y-91866200D01*
X150311247Y-91866172D01*
X150312401Y-91826013D01*
X150312400Y-91826012D01*
X150312744Y-91814066D01*
X150312735Y-91813934D01*
X150315504Y-91716652D01*
X150315520Y-91716536D01*
X150315900Y-91703078D01*
X150315901Y-91703077D01*
X150317026Y-91663223D01*
X150317026Y-91663222D01*
X150317028Y-91663222D01*
X150317026Y-91663201D01*
X150318160Y-91623393D01*
X150318159Y-91623390D01*
X150318499Y-91611449D01*
X150318490Y-91611334D01*
X150321238Y-91513977D01*
X150321254Y-91513864D01*
X150322690Y-91462585D01*
X150322692Y-91462585D01*
X150322689Y-91462560D01*
X150323872Y-91420716D01*
X150323870Y-91420712D01*
X150324208Y-91408776D01*
X150324200Y-91408653D01*
X150326917Y-91311602D01*
X150326934Y-91311482D01*
X150328485Y-91255631D01*
X150328488Y-91255631D01*
X150328485Y-91255603D01*
X150329530Y-91218327D01*
X150329877Y-91205958D01*
X150329867Y-91205823D01*
X150332532Y-91109843D01*
X150332548Y-91109724D01*
X150333975Y-91057866D01*
X150333978Y-91057866D01*
X150333975Y-91057838D01*
X150335123Y-91016557D01*
X150335122Y-91016555D01*
X150335466Y-91004192D01*
X150335457Y-91004067D01*
X150338074Y-90909032D01*
X150338090Y-90908921D01*
X150338458Y-90895435D01*
X150338459Y-90895434D01*
X150339542Y-90855758D01*
X150339542Y-90855757D01*
X150339545Y-90855757D01*
X150339542Y-90855731D01*
X150340644Y-90815749D01*
X150340643Y-90815748D01*
X150340972Y-90803839D01*
X150340963Y-90803706D01*
X150343533Y-90709533D01*
X150343548Y-90709423D01*
X150343913Y-90695925D01*
X150343914Y-90695924D01*
X150344917Y-90658845D01*
X150344917Y-90658844D01*
X150344920Y-90658844D01*
X150344917Y-90658818D01*
X150346081Y-90616235D01*
X150346079Y-90616232D01*
X150346436Y-90603199D01*
X150346426Y-90603081D01*
X150348930Y-90510597D01*
X150348947Y-90510469D01*
X150349280Y-90498044D01*
X150349281Y-90498043D01*
X150350359Y-90457837D01*
X150350368Y-90457807D01*
X150350360Y-90457807D01*
X150351428Y-90418358D01*
X150351427Y-90418356D01*
X150351768Y-90405778D01*
X150351758Y-90405644D01*
X150353088Y-90356063D01*
X150354197Y-90314705D01*
X150354214Y-90314575D01*
X150354544Y-90302139D01*
X150354545Y-90302138D01*
X150355654Y-90260381D01*
X150355657Y-90260381D01*
X150355654Y-90260352D01*
X150356672Y-90222451D01*
X150356671Y-90222450D01*
X150357003Y-90210119D01*
X150356993Y-90209992D01*
X150359341Y-90121620D01*
X150359358Y-90121501D01*
X150359699Y-90108541D01*
X150359700Y-90108540D01*
X150360715Y-90069971D01*
X150360715Y-90069970D01*
X150360718Y-90069970D01*
X150360715Y-90069942D01*
X150361808Y-90028855D01*
X150362131Y-90016721D01*
X150362120Y-90016579D01*
X150364379Y-89930726D01*
X150364397Y-89930598D01*
X150364736Y-89917590D01*
X150364737Y-89917589D01*
X150365767Y-89878050D01*
X150365767Y-89878049D01*
X150365770Y-89878049D01*
X150365767Y-89878021D01*
X150366824Y-89837906D01*
X150366823Y-89837904D01*
X150367159Y-89825160D01*
X150367148Y-89825017D01*
X150367903Y-89796063D01*
X150369306Y-89742213D01*
X150369323Y-89742081D01*
X150369644Y-89729625D01*
X150369645Y-89729624D01*
X150370625Y-89691601D01*
X150370628Y-89691601D01*
X150370625Y-89691572D01*
X150371711Y-89649941D01*
X150371710Y-89649939D01*
X150372032Y-89637600D01*
X150372021Y-89637453D01*
X150372093Y-89634661D01*
X150393499Y-89568152D01*
X150408366Y-89550183D01*
X151221731Y-88736819D01*
X151283054Y-88703334D01*
X151309412Y-88700500D01*
X158992040Y-88700500D01*
X158950000Y-92400000D01*
G37*
%TD.AperFunction*%
%TA.AperFunction,Conductor*%
G36*
X154088719Y-103112136D02*
G01*
X154115062Y-103157762D01*
X154164485Y-103243365D01*
X154183389Y-103262269D01*
X153847112Y-103257598D01*
X154073179Y-103054138D01*
X154088719Y-103112136D01*
G37*
%TD.AperFunction*%
%TD*%
%TA.AperFunction,Conductor*%
%TO.N,/Connector/POWER_VBUS*%
G36*
X162093039Y-92719685D02*
G01*
X162138794Y-92772489D01*
X162150000Y-92824000D01*
X162150000Y-94965494D01*
X162130315Y-95032533D01*
X162077511Y-95078288D01*
X162008353Y-95088232D01*
X161991066Y-95084471D01*
X161871963Y-95049500D01*
X161871961Y-95049500D01*
X161728039Y-95049500D01*
X161728036Y-95049500D01*
X161589949Y-95090045D01*
X161468873Y-95167856D01*
X161374623Y-95276626D01*
X161374622Y-95276628D01*
X161314834Y-95407543D01*
X161294353Y-95550000D01*
X161314834Y-95692456D01*
X161374622Y-95823371D01*
X161374623Y-95823373D01*
X161468872Y-95932143D01*
X161589947Y-96009953D01*
X161589950Y-96009954D01*
X161589949Y-96009954D01*
X161728036Y-96050499D01*
X161728038Y-96050500D01*
X161728039Y-96050500D01*
X161871961Y-96050500D01*
X161991066Y-96015528D01*
X162060935Y-96015528D01*
X162119713Y-96053302D01*
X162148738Y-96116858D01*
X162150000Y-96134505D01*
X162150000Y-98226000D01*
X162130315Y-98293039D01*
X162077511Y-98338794D01*
X162026000Y-98350000D01*
X158884307Y-98350000D01*
X158877316Y-98349500D01*
X158871961Y-98349500D01*
X158728039Y-98349500D01*
X158722684Y-98349500D01*
X158715693Y-98350000D01*
X157750000Y-98350000D01*
X157716172Y-98383827D01*
X157684788Y-98406628D01*
X157596778Y-98451472D01*
X157501476Y-98546774D01*
X157501473Y-98546778D01*
X157440279Y-98666878D01*
X157419196Y-98799997D01*
X157419196Y-98800002D01*
X157440279Y-98933123D01*
X157486485Y-99023806D01*
X157500000Y-99080101D01*
X157500000Y-99519898D01*
X157486485Y-99576192D01*
X157440279Y-99666876D01*
X157419196Y-99799997D01*
X157419196Y-99800002D01*
X157440279Y-99933123D01*
X157486485Y-100023806D01*
X157500000Y-100080101D01*
X157500000Y-100568964D01*
X157486485Y-100625258D01*
X157465279Y-100666876D01*
X157444196Y-100799997D01*
X157444196Y-100800002D01*
X157465279Y-100933123D01*
X157465281Y-100933126D01*
X157486485Y-100974742D01*
X157500000Y-101031035D01*
X157500000Y-101519898D01*
X157486485Y-101576192D01*
X157440279Y-101666876D01*
X157419196Y-101799997D01*
X157419196Y-101800002D01*
X157440279Y-101933123D01*
X157486485Y-102023806D01*
X157500000Y-102080101D01*
X157500000Y-102626000D01*
X157480315Y-102693039D01*
X157427511Y-102738794D01*
X157376000Y-102750000D01*
X155278156Y-102750000D01*
X155211117Y-102730315D01*
X155165362Y-102677511D01*
X155163592Y-102673446D01*
X155161283Y-102667873D01*
X155161281Y-102667865D01*
X155085515Y-102536635D01*
X154978365Y-102429485D01*
X154912750Y-102391602D01*
X154847136Y-102353719D01*
X154773950Y-102334109D01*
X154700766Y-102314500D01*
X154549234Y-102314500D01*
X154402863Y-102353719D01*
X154271635Y-102429485D01*
X154271632Y-102429487D01*
X154164487Y-102536632D01*
X154164485Y-102536635D01*
X154088720Y-102667863D01*
X154086408Y-102673446D01*
X154042570Y-102727852D01*
X153976278Y-102749921D01*
X153971844Y-102750000D01*
X153324000Y-102750000D01*
X153256961Y-102730315D01*
X153211206Y-102677511D01*
X153200000Y-102626000D01*
X153200000Y-97324000D01*
X153219685Y-97256961D01*
X153272489Y-97211206D01*
X153324000Y-97200000D01*
X153958165Y-97200000D01*
X154025204Y-97219685D01*
X154070959Y-97272489D01*
X154077939Y-97291903D01*
X154088719Y-97332135D01*
X154164485Y-97463365D01*
X154271635Y-97570515D01*
X154402865Y-97646281D01*
X154549234Y-97685500D01*
X154549236Y-97685500D01*
X154700764Y-97685500D01*
X154700766Y-97685500D01*
X154847135Y-97646281D01*
X154978365Y-97570515D01*
X155085515Y-97463365D01*
X155161281Y-97332135D01*
X155172060Y-97291905D01*
X155208426Y-97232246D01*
X155271273Y-97201717D01*
X155291835Y-97200000D01*
X157000000Y-97200000D01*
X157000000Y-96624000D01*
X157019685Y-96556961D01*
X157072489Y-96511206D01*
X157124000Y-96500000D01*
X158700000Y-96500000D01*
X159300000Y-95900000D01*
X159300000Y-92824000D01*
X159319685Y-92756961D01*
X159372489Y-92711206D01*
X159424000Y-92700000D01*
X162026000Y-92700000D01*
X162093039Y-92719685D01*
G37*
%TD.AperFunction*%
%TD*%
%TA.AperFunction,Conductor*%
%TO.N,GND*%
G36*
X153917500Y-96994500D02*
G01*
X153323992Y-96994500D01*
X153280313Y-96999197D01*
X153228825Y-97010397D01*
X153218627Y-97012890D01*
X153218624Y-97012891D01*
X153137916Y-97055899D01*
X153137913Y-97055901D01*
X153085104Y-97101660D01*
X153067160Y-97119242D01*
X153067154Y-97119249D01*
X153022511Y-97199059D01*
X153022509Y-97199064D01*
X153002826Y-97266096D01*
X152994500Y-97324003D01*
X152994500Y-102626007D01*
X152999197Y-102669686D01*
X153010397Y-102721174D01*
X153012890Y-102731372D01*
X153012891Y-102731375D01*
X153055899Y-102812083D01*
X153055901Y-102812086D01*
X153101660Y-102864895D01*
X153119242Y-102882839D01*
X153119246Y-102882843D01*
X153119247Y-102882844D01*
X153119249Y-102882845D01*
X153199059Y-102927488D01*
X153199063Y-102927490D01*
X153266102Y-102947175D01*
X153324000Y-102955500D01*
X153324004Y-102955500D01*
X153951601Y-102955500D01*
X154018640Y-102975185D01*
X154064395Y-103027989D01*
X154071373Y-103047400D01*
X154073179Y-103054138D01*
X153800000Y-103300000D01*
X152600000Y-102700000D01*
X152500000Y-96900000D01*
X153917500Y-96994500D01*
G37*
%TD.AperFunction*%
%TD*%
%TA.AperFunction,Conductor*%
%TO.N,/IP2368 Buck-Boost-Converter/BAT*%
G36*
X198243039Y-88720185D02*
G01*
X198288794Y-88772989D01*
X198300000Y-88824500D01*
X198300000Y-92476000D01*
X198280315Y-92543039D01*
X198227511Y-92588794D01*
X198176000Y-92600000D01*
X196700000Y-92600000D01*
X196699999Y-92600000D01*
X196699998Y-92600001D01*
X196350000Y-92900000D01*
X196350000Y-97448638D01*
X196330315Y-97515677D01*
X196313681Y-97536319D01*
X195050000Y-98799999D01*
X195050000Y-98800000D01*
X195050000Y-101800000D01*
X195356699Y-102062885D01*
X195394788Y-102121457D01*
X195400000Y-102157031D01*
X195400000Y-103376000D01*
X195380315Y-103443039D01*
X195327511Y-103488794D01*
X195276000Y-103500000D01*
X191971272Y-103500000D01*
X191904233Y-103480315D01*
X191883591Y-103463681D01*
X191141819Y-102721909D01*
X191108334Y-102660586D01*
X191105500Y-102634228D01*
X191105500Y-101779500D01*
X191125185Y-101712461D01*
X191177989Y-101666706D01*
X191229500Y-101655500D01*
X192475991Y-101655500D01*
X192476000Y-101655500D01*
X192509055Y-101651946D01*
X192560566Y-101640740D01*
X192629342Y-101606313D01*
X192682146Y-101560558D01*
X192687621Y-101555580D01*
X192729516Y-101486850D01*
X192749201Y-101419811D01*
X192755500Y-101376000D01*
X192755500Y-97674000D01*
X192751946Y-97640945D01*
X192740740Y-97589434D01*
X192723545Y-97555084D01*
X192706313Y-97520657D01*
X192660563Y-97467860D01*
X192655577Y-97462376D01*
X192586854Y-97420486D01*
X192586848Y-97420483D01*
X192519812Y-97400799D01*
X192519802Y-97400797D01*
X192476003Y-97394500D01*
X192476000Y-97394500D01*
X184979500Y-97394500D01*
X184912461Y-97374815D01*
X184866706Y-97322011D01*
X184855500Y-97270500D01*
X184855500Y-92529500D01*
X184875185Y-92462461D01*
X184927989Y-92416706D01*
X184979500Y-92405500D01*
X192625991Y-92405500D01*
X192626000Y-92405500D01*
X192659055Y-92401946D01*
X192710566Y-92390740D01*
X192779342Y-92356313D01*
X192832146Y-92310558D01*
X192837621Y-92305580D01*
X192879516Y-92236850D01*
X192899201Y-92169811D01*
X192905500Y-92126000D01*
X192905500Y-88824500D01*
X192925185Y-88757461D01*
X192977989Y-88711706D01*
X193029500Y-88700500D01*
X198176000Y-88700500D01*
X198243039Y-88720185D01*
G37*
%TD.AperFunction*%
%TD*%
%TA.AperFunction,Conductor*%
%TO.N,GND*%
G36*
X199742539Y-102519685D02*
G01*
X199788294Y-102572489D01*
X199799500Y-102624000D01*
X199799500Y-110865588D01*
X199779815Y-110932627D01*
X199763181Y-110953269D01*
X199453269Y-111263181D01*
X199391946Y-111296666D01*
X199365588Y-111299500D01*
X192791476Y-111299500D01*
X192724437Y-111279815D01*
X192678682Y-111227011D01*
X192668738Y-111157853D01*
X192697762Y-111094298D01*
X192698049Y-111093967D01*
X192782882Y-110996063D01*
X192836697Y-110878226D01*
X192855133Y-110750000D01*
X192836697Y-110621774D01*
X192782882Y-110503937D01*
X192698049Y-110406033D01*
X192589069Y-110335996D01*
X192589065Y-110335994D01*
X192589064Y-110335994D01*
X192464774Y-110299500D01*
X192464772Y-110299500D01*
X192335228Y-110299500D01*
X192335226Y-110299500D01*
X192210935Y-110335994D01*
X192210932Y-110335995D01*
X192210931Y-110335996D01*
X192159677Y-110368934D01*
X192101950Y-110406033D01*
X192017118Y-110503937D01*
X192017117Y-110503938D01*
X191963302Y-110621774D01*
X191944867Y-110750000D01*
X191963302Y-110878225D01*
X191988147Y-110932627D01*
X192017118Y-110996063D01*
X192055087Y-111039882D01*
X192102238Y-111094298D01*
X192131262Y-111157854D01*
X192121318Y-111227012D01*
X192075563Y-111279816D01*
X192008524Y-111299500D01*
X190974000Y-111299500D01*
X190906961Y-111279815D01*
X190861206Y-111227011D01*
X190850000Y-111175500D01*
X190850000Y-108199996D01*
X194644819Y-108199996D01*
X194644819Y-108200003D01*
X194663424Y-108317477D01*
X194663424Y-108317478D01*
X194717428Y-108423466D01*
X194717431Y-108423470D01*
X194801529Y-108507568D01*
X194801533Y-108507571D01*
X194801535Y-108507573D01*
X194907518Y-108561574D01*
X194907520Y-108561574D01*
X194907522Y-108561575D01*
X195024997Y-108580181D01*
X195025000Y-108580181D01*
X195025003Y-108580181D01*
X195142477Y-108561575D01*
X195142478Y-108561575D01*
X195142479Y-108561574D01*
X195142482Y-108561574D01*
X195248465Y-108507573D01*
X195332573Y-108423465D01*
X195386574Y-108317482D01*
X195396954Y-108251946D01*
X195405181Y-108200003D01*
X195405181Y-108199996D01*
X195386575Y-108082522D01*
X195386575Y-108082521D01*
X195386574Y-108082519D01*
X195386574Y-108082518D01*
X195332573Y-107976535D01*
X195332571Y-107976533D01*
X195332568Y-107976529D01*
X195248470Y-107892431D01*
X195248466Y-107892428D01*
X195248465Y-107892427D01*
X195142482Y-107838426D01*
X195142480Y-107838425D01*
X195142477Y-107838424D01*
X195041760Y-107822473D01*
X195025312Y-107814676D01*
X195008240Y-107822473D01*
X194907521Y-107838424D01*
X194801533Y-107892428D01*
X194801529Y-107892431D01*
X194717431Y-107976529D01*
X194717428Y-107976533D01*
X194663424Y-108082521D01*
X194663424Y-108082522D01*
X194644819Y-108199996D01*
X190850000Y-108199996D01*
X190850000Y-107199996D01*
X194644819Y-107199996D01*
X194644819Y-107200003D01*
X194663424Y-107317477D01*
X194663424Y-107317478D01*
X194717428Y-107423466D01*
X194717431Y-107423470D01*
X194801529Y-107507568D01*
X194801533Y-107507571D01*
X194801535Y-107507573D01*
X194907518Y-107561574D01*
X194907519Y-107561574D01*
X194907521Y-107561575D01*
X195008240Y-107577527D01*
X195024686Y-107585323D01*
X195041760Y-107577527D01*
X195142477Y-107561575D01*
X195142478Y-107561575D01*
X195142479Y-107561574D01*
X195142482Y-107561574D01*
X195248465Y-107507573D01*
X195332573Y-107423465D01*
X195386574Y-107317482D01*
X195405181Y-107200000D01*
X195405181Y-107199996D01*
X195386575Y-107082522D01*
X195386575Y-107082521D01*
X195386574Y-107082519D01*
X195386574Y-107082518D01*
X195332573Y-106976535D01*
X195332571Y-106976533D01*
X195332568Y-106976529D01*
X195248470Y-106892431D01*
X195248466Y-106892428D01*
X195248465Y-106892427D01*
X195142482Y-106838426D01*
X195142480Y-106838425D01*
X195142477Y-106838424D01*
X195041760Y-106822473D01*
X195025312Y-106814676D01*
X195008240Y-106822473D01*
X194907521Y-106838424D01*
X194801533Y-106892428D01*
X194801529Y-106892431D01*
X194717431Y-106976529D01*
X194717428Y-106976533D01*
X194663424Y-107082521D01*
X194663424Y-107082522D01*
X194644819Y-107199996D01*
X190850000Y-107199996D01*
X190850000Y-106199996D01*
X194644819Y-106199996D01*
X194644819Y-106200003D01*
X194663424Y-106317477D01*
X194663424Y-106317478D01*
X194717428Y-106423466D01*
X194717431Y-106423470D01*
X194801529Y-106507568D01*
X194801533Y-106507571D01*
X194801535Y-106507573D01*
X194907518Y-106561574D01*
X194907519Y-106561574D01*
X194907521Y-106561575D01*
X195008240Y-106577527D01*
X195024686Y-106585323D01*
X195041760Y-106577527D01*
X195142477Y-106561575D01*
X195142478Y-106561575D01*
X195142479Y-106561574D01*
X195142482Y-106561574D01*
X195248465Y-106507573D01*
X195332573Y-106423465D01*
X195386574Y-106317482D01*
X195405181Y-106200000D01*
X195405181Y-106199996D01*
X195386575Y-106082522D01*
X195386575Y-106082521D01*
X195386574Y-106082519D01*
X195386574Y-106082518D01*
X195332573Y-105976535D01*
X195332571Y-105976533D01*
X195332568Y-105976529D01*
X195248470Y-105892431D01*
X195248466Y-105892428D01*
X195248465Y-105892427D01*
X195142482Y-105838426D01*
X195142480Y-105838425D01*
X195142477Y-105838424D01*
X195025003Y-105819819D01*
X195024997Y-105819819D01*
X194907522Y-105838424D01*
X194907521Y-105838424D01*
X194801533Y-105892428D01*
X194801529Y-105892431D01*
X194717431Y-105976529D01*
X194717428Y-105976533D01*
X194663424Y-106082521D01*
X194663424Y-106082522D01*
X194644819Y-106199996D01*
X190850000Y-106199996D01*
X190850000Y-105199996D01*
X195269819Y-105199996D01*
X195269819Y-105200003D01*
X195288424Y-105317477D01*
X195288424Y-105317478D01*
X195342428Y-105423466D01*
X195342431Y-105423470D01*
X195426529Y-105507568D01*
X195426533Y-105507571D01*
X195426535Y-105507573D01*
X195532518Y-105561574D01*
X195532520Y-105561574D01*
X195532522Y-105561575D01*
X195649997Y-105580181D01*
X195650000Y-105580181D01*
X195650003Y-105580181D01*
X195767477Y-105561575D01*
X195767478Y-105561575D01*
X195767479Y-105561574D01*
X195767482Y-105561574D01*
X195873465Y-105507573D01*
X195957573Y-105423465D01*
X196011574Y-105317482D01*
X196030181Y-105200000D01*
X196030181Y-105199996D01*
X196011575Y-105082521D01*
X196011574Y-105082519D01*
X196011574Y-105082518D01*
X195957573Y-104976535D01*
X195957571Y-104976533D01*
X195957568Y-104976529D01*
X195873470Y-104892431D01*
X195873466Y-104892428D01*
X195873465Y-104892427D01*
X195767482Y-104838426D01*
X195767480Y-104838425D01*
X195767477Y-104838424D01*
X195650003Y-104819819D01*
X195649997Y-104819819D01*
X195532522Y-104838424D01*
X195532521Y-104838424D01*
X195426533Y-104892428D01*
X195426529Y-104892431D01*
X195342431Y-104976529D01*
X195342428Y-104976533D01*
X195342427Y-104976535D01*
X195288426Y-105082518D01*
X195288425Y-105082519D01*
X195288425Y-105082521D01*
X195269819Y-105199996D01*
X190850000Y-105199996D01*
X190850000Y-104000000D01*
X190950000Y-104000000D01*
X191800000Y-103600000D01*
X191773636Y-103573636D01*
X191773650Y-103573649D01*
X191773661Y-103573659D01*
X191785999Y-103584742D01*
X191786015Y-103584755D01*
X191786021Y-103584761D01*
X191806663Y-103601395D01*
X191860422Y-103629516D01*
X191860427Y-103629517D01*
X191860432Y-103629520D01*
X191866076Y-103631800D01*
X191864790Y-103634982D01*
X191911310Y-103663261D01*
X191941914Y-103726072D01*
X191938500Y-103772649D01*
X191939952Y-103772879D01*
X191919819Y-103899996D01*
X191919819Y-103900003D01*
X191938424Y-104017477D01*
X191938424Y-104017478D01*
X191992428Y-104123466D01*
X191992431Y-104123470D01*
X192031280Y-104162319D01*
X192064765Y-104223642D01*
X192059781Y-104293334D01*
X192031280Y-104337681D01*
X191992431Y-104376529D01*
X191992428Y-104376533D01*
X191938424Y-104482521D01*
X191938424Y-104482522D01*
X191919819Y-104599996D01*
X191919819Y-104600003D01*
X191938424Y-104717477D01*
X191938424Y-104717478D01*
X191938425Y-104717481D01*
X191938426Y-104717482D01*
X191990569Y-104819819D01*
X191992428Y-104823466D01*
X191992431Y-104823470D01*
X192076529Y-104907568D01*
X192076533Y-104907571D01*
X192076535Y-104907573D01*
X192182518Y-104961574D01*
X192182520Y-104961574D01*
X192182522Y-104961575D01*
X192299997Y-104980181D01*
X192300000Y-104980181D01*
X192300003Y-104980181D01*
X192417477Y-104961575D01*
X192417478Y-104961575D01*
X192417479Y-104961574D01*
X192417482Y-104961574D01*
X192523465Y-104907573D01*
X192607573Y-104823465D01*
X192661574Y-104717482D01*
X192680181Y-104600000D01*
X192680181Y-104599996D01*
X192661575Y-104482522D01*
X192661575Y-104482521D01*
X192661574Y-104482519D01*
X192661574Y-104482518D01*
X192607573Y-104376535D01*
X192607571Y-104376533D01*
X192607568Y-104376529D01*
X192568720Y-104337681D01*
X192535235Y-104276358D01*
X192540219Y-104206666D01*
X192568720Y-104162319D01*
X192607568Y-104123470D01*
X192607573Y-104123465D01*
X192661574Y-104017482D01*
X192680181Y-103900000D01*
X192680181Y-103899996D01*
X192664169Y-103798897D01*
X192673124Y-103729604D01*
X192718120Y-103676152D01*
X192784872Y-103655513D01*
X192786642Y-103655500D01*
X195275991Y-103655500D01*
X195276000Y-103655500D01*
X195309055Y-103651946D01*
X195360566Y-103640740D01*
X195429342Y-103606313D01*
X195454210Y-103584765D01*
X195459378Y-103580287D01*
X195478400Y-103571599D01*
X195499999Y-103550000D01*
X195500000Y-103550000D01*
X195500000Y-103549999D01*
X195507840Y-103542159D01*
X195518120Y-103505544D01*
X195529516Y-103486850D01*
X195549201Y-103419811D01*
X195555500Y-103376000D01*
X195555500Y-102624000D01*
X195575185Y-102556961D01*
X195627989Y-102511206D01*
X195679500Y-102500000D01*
X199675500Y-102500000D01*
X199742539Y-102519685D01*
G37*
%TD.AperFunction*%
%TD*%
%TA.AperFunction,Conductor*%
%TO.N,+5V*%
G36*
X170261073Y-94469685D02*
G01*
X170284901Y-94492189D01*
X170285526Y-94491565D01*
X170376529Y-94582568D01*
X170376533Y-94582571D01*
X170376535Y-94582573D01*
X170482518Y-94636574D01*
X170482520Y-94636574D01*
X170482522Y-94636575D01*
X170599997Y-94655181D01*
X170600000Y-94655181D01*
X170600003Y-94655181D01*
X170717477Y-94636575D01*
X170717478Y-94636575D01*
X170717479Y-94636574D01*
X170717482Y-94636574D01*
X170823465Y-94582573D01*
X170856538Y-94549500D01*
X170914474Y-94491565D01*
X170916023Y-94493114D01*
X170960971Y-94458451D01*
X171005966Y-94450000D01*
X171098638Y-94450000D01*
X171165677Y-94469685D01*
X171186319Y-94486319D01*
X171463681Y-94763681D01*
X171497166Y-94825004D01*
X171500000Y-94851362D01*
X171500000Y-96550000D01*
X173258138Y-98308138D01*
X173291623Y-98369461D01*
X173286639Y-98439153D01*
X173244767Y-98495086D01*
X173184521Y-98517556D01*
X173184638Y-98518292D01*
X173181008Y-98518866D01*
X173179303Y-98519503D01*
X173176318Y-98519609D01*
X173057522Y-98538424D01*
X173057521Y-98538424D01*
X172951533Y-98592428D01*
X172951529Y-98592431D01*
X172867431Y-98676529D01*
X172867428Y-98676533D01*
X172813424Y-98782521D01*
X172813424Y-98782522D01*
X172794819Y-98899996D01*
X172794819Y-98900003D01*
X172813424Y-99017477D01*
X172813424Y-99017478D01*
X172813425Y-99017481D01*
X172813426Y-99017482D01*
X172864879Y-99118465D01*
X172867428Y-99123466D01*
X172867431Y-99123470D01*
X172951529Y-99207568D01*
X172951533Y-99207571D01*
X172951535Y-99207573D01*
X173057518Y-99261574D01*
X173057520Y-99261574D01*
X173057522Y-99261575D01*
X173174997Y-99280181D01*
X173175000Y-99280181D01*
X173175003Y-99280181D01*
X173292477Y-99261575D01*
X173292478Y-99261575D01*
X173292479Y-99261574D01*
X173292482Y-99261574D01*
X173398465Y-99207573D01*
X173482573Y-99123465D01*
X173536574Y-99017482D01*
X173538405Y-99005924D01*
X173556708Y-98890362D01*
X173559227Y-98890761D01*
X173574866Y-98837504D01*
X173627670Y-98791749D01*
X173696828Y-98781805D01*
X173760384Y-98810830D01*
X173766862Y-98816862D01*
X174263681Y-99313681D01*
X174297166Y-99375004D01*
X174300000Y-99401362D01*
X174300000Y-101000000D01*
X184198638Y-101000000D01*
X184265677Y-101019685D01*
X184286319Y-101036319D01*
X185463681Y-102213681D01*
X185497166Y-102275004D01*
X185500000Y-102301362D01*
X185500000Y-104026000D01*
X185480315Y-104093039D01*
X185427511Y-104138794D01*
X185376000Y-104150000D01*
X181548123Y-104150000D01*
X181530477Y-104148738D01*
X181501001Y-104144500D01*
X181501000Y-104144500D01*
X178699000Y-104144500D01*
X178698991Y-104144500D01*
X178665951Y-104148053D01*
X178663780Y-104148405D01*
X178643954Y-104150000D01*
X172126084Y-104150000D01*
X172059045Y-104130315D01*
X172013290Y-104077511D01*
X172002101Y-104023934D01*
X172006540Y-103757571D01*
X172014166Y-103300000D01*
X173194867Y-103300000D01*
X173213302Y-103428225D01*
X173223245Y-103449996D01*
X173267118Y-103546063D01*
X173351951Y-103643967D01*
X173460931Y-103714004D01*
X173570117Y-103746063D01*
X173585225Y-103750499D01*
X173585227Y-103750500D01*
X173585228Y-103750500D01*
X173714773Y-103750500D01*
X173714773Y-103750499D01*
X173839069Y-103714004D01*
X173948049Y-103643967D01*
X174032882Y-103546063D01*
X174086697Y-103428226D01*
X174105133Y-103300000D01*
X178594867Y-103300000D01*
X178613302Y-103428225D01*
X178623245Y-103449996D01*
X178667118Y-103546063D01*
X178751951Y-103643967D01*
X178860931Y-103714004D01*
X178970117Y-103746063D01*
X178985225Y-103750499D01*
X178985227Y-103750500D01*
X178985228Y-103750500D01*
X179114773Y-103750500D01*
X179114773Y-103750499D01*
X179239069Y-103714004D01*
X179348049Y-103643967D01*
X179432882Y-103546063D01*
X179476755Y-103449996D01*
X182519819Y-103449996D01*
X182519819Y-103450003D01*
X182538424Y-103567477D01*
X182538424Y-103567478D01*
X182592428Y-103673466D01*
X182592431Y-103673470D01*
X182676529Y-103757568D01*
X182676533Y-103757571D01*
X182676535Y-103757573D01*
X182782518Y-103811574D01*
X182782520Y-103811574D01*
X182782522Y-103811575D01*
X182899997Y-103830181D01*
X182900000Y-103830181D01*
X182900003Y-103830181D01*
X183017477Y-103811575D01*
X183017478Y-103811575D01*
X183017479Y-103811574D01*
X183017482Y-103811574D01*
X183123465Y-103757573D01*
X183207573Y-103673465D01*
X183261574Y-103567482D01*
X183261575Y-103567477D01*
X183280181Y-103450003D01*
X183280181Y-103449996D01*
X183261575Y-103332522D01*
X183261575Y-103332521D01*
X183261574Y-103332519D01*
X183261574Y-103332518D01*
X183207573Y-103226535D01*
X183207571Y-103226533D01*
X183207568Y-103226529D01*
X183123470Y-103142431D01*
X183123466Y-103142428D01*
X183123465Y-103142427D01*
X183017482Y-103088426D01*
X183017480Y-103088425D01*
X183017477Y-103088424D01*
X182900003Y-103069819D01*
X182899997Y-103069819D01*
X182782522Y-103088424D01*
X182782521Y-103088424D01*
X182676533Y-103142428D01*
X182676529Y-103142431D01*
X182592431Y-103226529D01*
X182592428Y-103226533D01*
X182538424Y-103332521D01*
X182538424Y-103332522D01*
X182519819Y-103449996D01*
X179476755Y-103449996D01*
X179486697Y-103428226D01*
X179505133Y-103300000D01*
X179486697Y-103171774D01*
X179432882Y-103053937D01*
X179348049Y-102956033D01*
X179239069Y-102885996D01*
X179239065Y-102885994D01*
X179239064Y-102885994D01*
X179114774Y-102849500D01*
X179114772Y-102849500D01*
X178985228Y-102849500D01*
X178985226Y-102849500D01*
X178860935Y-102885994D01*
X178860932Y-102885995D01*
X178860931Y-102885996D01*
X178809677Y-102918934D01*
X178751950Y-102956033D01*
X178667118Y-103053937D01*
X178667117Y-103053938D01*
X178613302Y-103171774D01*
X178594867Y-103300000D01*
X174105133Y-103300000D01*
X174086697Y-103171774D01*
X174032882Y-103053937D01*
X173948049Y-102956033D01*
X173839069Y-102885996D01*
X173839065Y-102885994D01*
X173839064Y-102885994D01*
X173714774Y-102849500D01*
X173714772Y-102849500D01*
X173585228Y-102849500D01*
X173585226Y-102849500D01*
X173460935Y-102885994D01*
X173460932Y-102885995D01*
X173460931Y-102885996D01*
X173409677Y-102918934D01*
X173351950Y-102956033D01*
X173267118Y-103053937D01*
X173267117Y-103053938D01*
X173213302Y-103171774D01*
X173194867Y-103300000D01*
X172014166Y-103300000D01*
X172031833Y-102239996D01*
X179919819Y-102239996D01*
X179919819Y-102240003D01*
X179938424Y-102357477D01*
X179938424Y-102357478D01*
X179938425Y-102357481D01*
X179938426Y-102357482D01*
X179968995Y-102417478D01*
X179992428Y-102463466D01*
X179992431Y-102463470D01*
X180076529Y-102547568D01*
X180076533Y-102547571D01*
X180076535Y-102547573D01*
X180182518Y-102601574D01*
X180182520Y-102601574D01*
X180182522Y-102601575D01*
X180299997Y-102620181D01*
X180300000Y-102620181D01*
X180300003Y-102620181D01*
X180417477Y-102601575D01*
X180417478Y-102601575D01*
X180417479Y-102601574D01*
X180417482Y-102601574D01*
X180523465Y-102547573D01*
X180607573Y-102463465D01*
X180661574Y-102357482D01*
X180663814Y-102343339D01*
X180670679Y-102299996D01*
X180969819Y-102299996D01*
X180969819Y-102300003D01*
X180988424Y-102417477D01*
X180988424Y-102417478D01*
X180988425Y-102417481D01*
X180988426Y-102417482D01*
X181034303Y-102507521D01*
X181042428Y-102523466D01*
X181042431Y-102523470D01*
X181126529Y-102607568D01*
X181126533Y-102607571D01*
X181126535Y-102607573D01*
X181232518Y-102661574D01*
X181232520Y-102661574D01*
X181232522Y-102661575D01*
X181349997Y-102680181D01*
X181350000Y-102680181D01*
X181350003Y-102680181D01*
X181467477Y-102661575D01*
X181467478Y-102661575D01*
X181467479Y-102661574D01*
X181467482Y-102661574D01*
X181573465Y-102607573D01*
X181657573Y-102523465D01*
X181711574Y-102417482D01*
X181714101Y-102401529D01*
X181730181Y-102300003D01*
X181730181Y-102299996D01*
X182519819Y-102299996D01*
X182519819Y-102300003D01*
X182538424Y-102417477D01*
X182538424Y-102417478D01*
X182538425Y-102417481D01*
X182538426Y-102417482D01*
X182584303Y-102507521D01*
X182592428Y-102523466D01*
X182592431Y-102523470D01*
X182676529Y-102607568D01*
X182676533Y-102607571D01*
X182676535Y-102607573D01*
X182782518Y-102661574D01*
X182782520Y-102661574D01*
X182782522Y-102661575D01*
X182899997Y-102680181D01*
X182900000Y-102680181D01*
X182900003Y-102680181D01*
X183017477Y-102661575D01*
X183017478Y-102661575D01*
X183017479Y-102661574D01*
X183017482Y-102661574D01*
X183089270Y-102624996D01*
X183519819Y-102624996D01*
X183519819Y-102625003D01*
X183538424Y-102742477D01*
X183538424Y-102742478D01*
X183592428Y-102848466D01*
X183592431Y-102848470D01*
X183676529Y-102932568D01*
X183676533Y-102932571D01*
X183676535Y-102932573D01*
X183782518Y-102986574D01*
X183782520Y-102986574D01*
X183782522Y-102986575D01*
X183899997Y-103005181D01*
X183900000Y-103005181D01*
X183900003Y-103005181D01*
X184017477Y-102986575D01*
X184017478Y-102986575D01*
X184017479Y-102986574D01*
X184017482Y-102986574D01*
X184123465Y-102932573D01*
X184207573Y-102848465D01*
X184261574Y-102742482D01*
X184261575Y-102742477D01*
X184280181Y-102625003D01*
X184280181Y-102624996D01*
X184261575Y-102507522D01*
X184261575Y-102507521D01*
X184261574Y-102507519D01*
X184261574Y-102507518D01*
X184207573Y-102401535D01*
X184207571Y-102401533D01*
X184207568Y-102401529D01*
X184123470Y-102317431D01*
X184123466Y-102317428D01*
X184123465Y-102317427D01*
X184017482Y-102263426D01*
X184017480Y-102263425D01*
X184017477Y-102263424D01*
X183900003Y-102244819D01*
X183899997Y-102244819D01*
X183782522Y-102263424D01*
X183782521Y-102263424D01*
X183676533Y-102317428D01*
X183676529Y-102317431D01*
X183592431Y-102401529D01*
X183592428Y-102401533D01*
X183538424Y-102507521D01*
X183538424Y-102507522D01*
X183519819Y-102624996D01*
X183089270Y-102624996D01*
X183123465Y-102607573D01*
X183207573Y-102523465D01*
X183261574Y-102417482D01*
X183264101Y-102401529D01*
X183280181Y-102300003D01*
X183280181Y-102299996D01*
X183261575Y-102182522D01*
X183261575Y-102182521D01*
X183261574Y-102182519D01*
X183261574Y-102182518D01*
X183207573Y-102076535D01*
X183207571Y-102076533D01*
X183207568Y-102076529D01*
X183123470Y-101992431D01*
X183123466Y-101992428D01*
X183123465Y-101992427D01*
X183017482Y-101938426D01*
X183017480Y-101938425D01*
X183017477Y-101938424D01*
X182900003Y-101919819D01*
X182899997Y-101919819D01*
X182782522Y-101938424D01*
X182782521Y-101938424D01*
X182676533Y-101992428D01*
X182676529Y-101992431D01*
X182592431Y-102076529D01*
X182592428Y-102076533D01*
X182538424Y-102182521D01*
X182538424Y-102182522D01*
X182519819Y-102299996D01*
X181730181Y-102299996D01*
X181711575Y-102182522D01*
X181711575Y-102182521D01*
X181711574Y-102182519D01*
X181711574Y-102182518D01*
X181657573Y-102076535D01*
X181657571Y-102076533D01*
X181657568Y-102076529D01*
X181573470Y-101992431D01*
X181573466Y-101992428D01*
X181573465Y-101992427D01*
X181467482Y-101938426D01*
X181467480Y-101938425D01*
X181467477Y-101938424D01*
X181350003Y-101919819D01*
X181349997Y-101919819D01*
X181232522Y-101938424D01*
X181232521Y-101938424D01*
X181126533Y-101992428D01*
X181126529Y-101992431D01*
X181042431Y-102076529D01*
X181042428Y-102076533D01*
X180988424Y-102182521D01*
X180988424Y-102182522D01*
X180969819Y-102299996D01*
X180670679Y-102299996D01*
X180680181Y-102240003D01*
X180680181Y-102239996D01*
X180661575Y-102122522D01*
X180661575Y-102122521D01*
X180661574Y-102122519D01*
X180661574Y-102122518D01*
X180607573Y-102016535D01*
X180607571Y-102016533D01*
X180607568Y-102016529D01*
X180523470Y-101932431D01*
X180523466Y-101932428D01*
X180523465Y-101932427D01*
X180417482Y-101878426D01*
X180417480Y-101878425D01*
X180417477Y-101878424D01*
X180300003Y-101859819D01*
X180299997Y-101859819D01*
X180182522Y-101878424D01*
X180182521Y-101878424D01*
X180076533Y-101932428D01*
X180076529Y-101932431D01*
X179992431Y-102016529D01*
X179992428Y-102016533D01*
X179938424Y-102122521D01*
X179938424Y-102122522D01*
X179919819Y-102239996D01*
X172031833Y-102239996D01*
X172050000Y-101150000D01*
X171270155Y-100337662D01*
X171249126Y-100308088D01*
X171207573Y-100226535D01*
X171207571Y-100226533D01*
X171207568Y-100226529D01*
X171123470Y-100142431D01*
X171123462Y-100142425D01*
X171062381Y-100111302D01*
X171029225Y-100086692D01*
X170850000Y-99900000D01*
X170400000Y-99900000D01*
X170044006Y-99900000D01*
X169976967Y-99880315D01*
X169931212Y-99827511D01*
X169930455Y-99825000D01*
X170775000Y-99825000D01*
X171225000Y-99825000D01*
X171225000Y-98925000D01*
X170775000Y-98925000D01*
X170775000Y-99825000D01*
X169930455Y-99825000D01*
X169921533Y-99795403D01*
X169911574Y-99732518D01*
X169857573Y-99626535D01*
X169857571Y-99626533D01*
X169857568Y-99626529D01*
X169773470Y-99542431D01*
X169773466Y-99542428D01*
X169773465Y-99542427D01*
X169667482Y-99488426D01*
X169667480Y-99488425D01*
X169667477Y-99488424D01*
X169550003Y-99469819D01*
X169549997Y-99469819D01*
X169432522Y-99488424D01*
X169432521Y-99488424D01*
X169326533Y-99542428D01*
X169326529Y-99542431D01*
X169242431Y-99626529D01*
X169242428Y-99626533D01*
X169242427Y-99626535D01*
X169188426Y-99732518D01*
X169178466Y-99795399D01*
X169148539Y-99858532D01*
X169089228Y-99895464D01*
X169055994Y-99900000D01*
X168717469Y-99900000D01*
X168698071Y-99898473D01*
X168687499Y-99896798D01*
X168675001Y-99894819D01*
X168674999Y-99894819D01*
X168662500Y-99896798D01*
X168651928Y-99898473D01*
X168632531Y-99900000D01*
X168495512Y-99900000D01*
X168428473Y-99880315D01*
X168382718Y-99827511D01*
X168372774Y-99758353D01*
X168401799Y-99694797D01*
X168422631Y-99675678D01*
X168423457Y-99675076D01*
X168423465Y-99675073D01*
X168507573Y-99590965D01*
X168561574Y-99484982D01*
X168574818Y-99401362D01*
X168580181Y-99367503D01*
X168580181Y-99367496D01*
X168561575Y-99250022D01*
X168561575Y-99250021D01*
X168561574Y-99250019D01*
X168561574Y-99250018D01*
X168507573Y-99144035D01*
X168507571Y-99144033D01*
X168507568Y-99144029D01*
X168423470Y-99059931D01*
X168423466Y-99059928D01*
X168423465Y-99059927D01*
X168317482Y-99005926D01*
X168317480Y-99005925D01*
X168317477Y-99005924D01*
X168200003Y-98987319D01*
X168199997Y-98987319D01*
X168082522Y-99005924D01*
X168082518Y-99005926D01*
X168030294Y-99032535D01*
X167961624Y-99045431D01*
X167896884Y-99019154D01*
X167856628Y-98962047D01*
X167850000Y-98922050D01*
X167850000Y-98248996D01*
X168969500Y-98248996D01*
X168969500Y-98451008D01*
X168973054Y-98484055D01*
X168984260Y-98535566D01*
X169018686Y-98604342D01*
X169064436Y-98657139D01*
X169069422Y-98662623D01*
X169138145Y-98704513D01*
X169138150Y-98704516D01*
X169205189Y-98724201D01*
X169249000Y-98730500D01*
X169249003Y-98730500D01*
X169950991Y-98730500D01*
X169951000Y-98730500D01*
X169984055Y-98726946D01*
X170035566Y-98715740D01*
X170104342Y-98681313D01*
X170157146Y-98635558D01*
X170162621Y-98630580D01*
X170204516Y-98561850D01*
X170224201Y-98494811D01*
X170230500Y-98451000D01*
X170230500Y-98249000D01*
X170226946Y-98215945D01*
X170215740Y-98164434D01*
X170197615Y-98128226D01*
X170181313Y-98095657D01*
X170135563Y-98042860D01*
X170130577Y-98037376D01*
X170061854Y-97995486D01*
X170061848Y-97995483D01*
X169994812Y-97975799D01*
X169994802Y-97975797D01*
X169951003Y-97969500D01*
X169951000Y-97969500D01*
X169249000Y-97969500D01*
X169248991Y-97969500D01*
X169215944Y-97973054D01*
X169164433Y-97984260D01*
X169095657Y-98018686D01*
X169042860Y-98064436D01*
X169037376Y-98069422D01*
X168995486Y-98138145D01*
X168995483Y-98138151D01*
X168975799Y-98205187D01*
X168975797Y-98205197D01*
X168969500Y-98248996D01*
X167850000Y-98248996D01*
X167850000Y-97499996D01*
X168194819Y-97499996D01*
X168194819Y-97500003D01*
X168213424Y-97617477D01*
X168213424Y-97617478D01*
X168267428Y-97723466D01*
X168267431Y-97723470D01*
X168351529Y-97807568D01*
X168351533Y-97807571D01*
X168351535Y-97807573D01*
X168457518Y-97861574D01*
X168457520Y-97861574D01*
X168457522Y-97861575D01*
X168574997Y-97880181D01*
X168575000Y-97880181D01*
X168575003Y-97880181D01*
X168692477Y-97861575D01*
X168692478Y-97861575D01*
X168692479Y-97861574D01*
X168692482Y-97861574D01*
X168798465Y-97807573D01*
X168882573Y-97723465D01*
X168936574Y-97617482D01*
X168955181Y-97500000D01*
X168955181Y-97499996D01*
X168936575Y-97382522D01*
X168936575Y-97382521D01*
X168936574Y-97382519D01*
X168936574Y-97382518D01*
X168882573Y-97276535D01*
X168882571Y-97276533D01*
X168882568Y-97276529D01*
X168798470Y-97192431D01*
X168798466Y-97192428D01*
X168798465Y-97192427D01*
X168692482Y-97138426D01*
X168692480Y-97138425D01*
X168692477Y-97138424D01*
X168575003Y-97119819D01*
X168574997Y-97119819D01*
X168457522Y-97138424D01*
X168457521Y-97138424D01*
X168351533Y-97192428D01*
X168351529Y-97192431D01*
X168267431Y-97276529D01*
X168267428Y-97276533D01*
X168213424Y-97382521D01*
X168213424Y-97382522D01*
X168194819Y-97499996D01*
X167850000Y-97499996D01*
X167850000Y-96774996D01*
X168969819Y-96774996D01*
X168969819Y-96775003D01*
X168988424Y-96892477D01*
X168988424Y-96892478D01*
X168988425Y-96892481D01*
X168988426Y-96892482D01*
X169006638Y-96928226D01*
X169042428Y-96998466D01*
X169042431Y-96998470D01*
X169126529Y-97082568D01*
X169126533Y-97082571D01*
X169126535Y-97082573D01*
X169232518Y-97136574D01*
X169232520Y-97136574D01*
X169232522Y-97136575D01*
X169349997Y-97155181D01*
X169350000Y-97155181D01*
X169350003Y-97155181D01*
X169467477Y-97136575D01*
X169467478Y-97136574D01*
X169467482Y-97136574D01*
X169543706Y-97097735D01*
X169612374Y-97084839D01*
X169656292Y-97097735D01*
X169732518Y-97136574D01*
X169732519Y-97136574D01*
X169732522Y-97136575D01*
X169849997Y-97155181D01*
X169850000Y-97155181D01*
X169850003Y-97155181D01*
X169967477Y-97136575D01*
X169967478Y-97136575D01*
X169967479Y-97136574D01*
X169967482Y-97136574D01*
X170073465Y-97082573D01*
X170157573Y-96998465D01*
X170211574Y-96892482D01*
X170219750Y-96840859D01*
X170230181Y-96775003D01*
X170230181Y-96774996D01*
X170211575Y-96657522D01*
X170211575Y-96657521D01*
X170211574Y-96657519D01*
X170211574Y-96657518D01*
X170157573Y-96551535D01*
X170157571Y-96551533D01*
X170157568Y-96551529D01*
X170073470Y-96467431D01*
X170073466Y-96467428D01*
X170073465Y-96467427D01*
X169967482Y-96413426D01*
X169967480Y-96413425D01*
X169967477Y-96413424D01*
X169850003Y-96394819D01*
X169849997Y-96394819D01*
X169732522Y-96413424D01*
X169732518Y-96413425D01*
X169656294Y-96452264D01*
X169587625Y-96465160D01*
X169543706Y-96452264D01*
X169467481Y-96413425D01*
X169467477Y-96413424D01*
X169350003Y-96394819D01*
X169349997Y-96394819D01*
X169232522Y-96413424D01*
X169232521Y-96413424D01*
X169126533Y-96467428D01*
X169126529Y-96467431D01*
X169042431Y-96551529D01*
X169042428Y-96551533D01*
X168988424Y-96657521D01*
X168988424Y-96657522D01*
X168969819Y-96774996D01*
X167850000Y-96774996D01*
X167850000Y-95424996D01*
X169669819Y-95424996D01*
X169669819Y-95425003D01*
X169688424Y-95542477D01*
X169688424Y-95542478D01*
X169688425Y-95542481D01*
X169688426Y-95542482D01*
X169710597Y-95585996D01*
X169742428Y-95648466D01*
X169742431Y-95648470D01*
X169826529Y-95732568D01*
X169826533Y-95732571D01*
X169826535Y-95732573D01*
X169932518Y-95786574D01*
X169932520Y-95786574D01*
X169932522Y-95786575D01*
X170049997Y-95805181D01*
X170050000Y-95805181D01*
X170050003Y-95805181D01*
X170167477Y-95786575D01*
X170167478Y-95786575D01*
X170167479Y-95786574D01*
X170167482Y-95786574D01*
X170273465Y-95732573D01*
X170357573Y-95648465D01*
X170411574Y-95542482D01*
X170418223Y-95500500D01*
X170430181Y-95425003D01*
X170430181Y-95424996D01*
X170411575Y-95307522D01*
X170411575Y-95307521D01*
X170411574Y-95307519D01*
X170411574Y-95307518D01*
X170357573Y-95201535D01*
X170357571Y-95201533D01*
X170357568Y-95201529D01*
X170273470Y-95117431D01*
X170273466Y-95117428D01*
X170273465Y-95117427D01*
X170167482Y-95063426D01*
X170167480Y-95063425D01*
X170167477Y-95063424D01*
X170050003Y-95044819D01*
X170049997Y-95044819D01*
X169932522Y-95063424D01*
X169932521Y-95063424D01*
X169826533Y-95117428D01*
X169826529Y-95117431D01*
X169742431Y-95201529D01*
X169742428Y-95201533D01*
X169688424Y-95307521D01*
X169688424Y-95307522D01*
X169669819Y-95424996D01*
X167850000Y-95424996D01*
X167850000Y-95400000D01*
X168800000Y-95400000D01*
X168800000Y-94450000D01*
X170194034Y-94450000D01*
X170261073Y-94469685D01*
G37*
%TD.AperFunction*%
%TD*%
%TA.AperFunction,Conductor*%
%TO.N,GND*%
G36*
X184543039Y-104325185D02*
G01*
X184588794Y-104377989D01*
X184600000Y-104429500D01*
X184600000Y-108173178D01*
X184580315Y-108240217D01*
X184527511Y-108285972D01*
X184458353Y-108295916D01*
X184394797Y-108266891D01*
X184394705Y-108266799D01*
X184388058Y-108261039D01*
X184339006Y-108229516D01*
X184279074Y-108191000D01*
X184279070Y-108190998D01*
X184279069Y-108190998D01*
X184154779Y-108154504D01*
X184154777Y-108154504D01*
X184025233Y-108154504D01*
X184025231Y-108154504D01*
X183900940Y-108190998D01*
X183900937Y-108190999D01*
X183900936Y-108191000D01*
X183849682Y-108223938D01*
X183791955Y-108261037D01*
X183707123Y-108358941D01*
X183707122Y-108358942D01*
X183653307Y-108476778D01*
X183634872Y-108605004D01*
X183653307Y-108733229D01*
X183703880Y-108843967D01*
X183707123Y-108851067D01*
X183791956Y-108948971D01*
X183900936Y-109019008D01*
X183900937Y-109019008D01*
X183905101Y-109021684D01*
X183950856Y-109074488D01*
X183960800Y-109143646D01*
X183931775Y-109207202D01*
X183872997Y-109244977D01*
X183838062Y-109250000D01*
X183500000Y-109250000D01*
X183500000Y-111126000D01*
X183480315Y-111193039D01*
X183427511Y-111238794D01*
X183376000Y-111250000D01*
X181329500Y-111250000D01*
X181262461Y-111230315D01*
X181216706Y-111177511D01*
X181205500Y-111126000D01*
X181205500Y-109615771D01*
X181225185Y-109548732D01*
X181241819Y-109528090D01*
X181278090Y-109491819D01*
X181339413Y-109458334D01*
X181365771Y-109455500D01*
X181500991Y-109455500D01*
X181501000Y-109455500D01*
X181534055Y-109451946D01*
X181585566Y-109440740D01*
X181654342Y-109406313D01*
X181707146Y-109360558D01*
X181712621Y-109355580D01*
X181754516Y-109286850D01*
X181774201Y-109219811D01*
X181780500Y-109176000D01*
X181780500Y-104429500D01*
X181800185Y-104362461D01*
X181852989Y-104316706D01*
X181904500Y-104305500D01*
X184476000Y-104305500D01*
X184543039Y-104325185D01*
G37*
%TD.AperFunction*%
%TA.AperFunction,Conductor*%
G36*
X169599430Y-99635084D02*
G01*
X169636324Y-99647072D01*
X169663428Y-99660882D01*
X169694815Y-99683686D01*
X169716313Y-99705184D01*
X169739117Y-99736571D01*
X169752924Y-99763669D01*
X169764912Y-99800565D01*
X169767943Y-99819706D01*
X169767945Y-99819717D01*
X169767947Y-99819726D01*
X169770618Y-99831401D01*
X169772651Y-99840286D01*
X169781574Y-99869885D01*
X169782329Y-99872392D01*
X169782331Y-99872395D01*
X169813693Y-99929342D01*
X169859448Y-99982146D01*
X169864426Y-99987621D01*
X169864428Y-99987623D01*
X169933151Y-100029513D01*
X169933156Y-100029516D01*
X170000195Y-100049201D01*
X170044006Y-100055500D01*
X170730872Y-100055500D01*
X170797911Y-100075185D01*
X170820324Y-100093626D01*
X170917049Y-100194381D01*
X170936546Y-100211555D01*
X170969702Y-100236165D01*
X170991784Y-100249853D01*
X171007067Y-100257640D01*
X171013429Y-100260882D01*
X171044814Y-100283685D01*
X171066311Y-100305182D01*
X171089114Y-100336567D01*
X171110568Y-100378673D01*
X171122400Y-100398204D01*
X171143430Y-100427778D01*
X171157968Y-100445339D01*
X171157974Y-100445345D01*
X171157979Y-100445351D01*
X171566104Y-100870481D01*
X171858071Y-101174613D01*
X171890298Y-101236607D01*
X171892602Y-101262553D01*
X171880398Y-101994840D01*
X171876355Y-102237405D01*
X171876312Y-102239999D01*
X171869895Y-102624999D01*
X171861016Y-103157762D01*
X171858688Y-103297413D01*
X171858645Y-103299995D01*
X171858645Y-103299999D01*
X171851062Y-103754980D01*
X171846623Y-104021340D01*
X171846623Y-104021344D01*
X171849884Y-104055722D01*
X171849885Y-104055726D01*
X171861073Y-104109300D01*
X171895770Y-104179341D01*
X171941523Y-104232143D01*
X171946506Y-104237623D01*
X172009262Y-104275876D01*
X172015234Y-104279516D01*
X172082273Y-104299201D01*
X172126084Y-104305500D01*
X174752579Y-104305500D01*
X174819618Y-104325185D01*
X174865373Y-104377989D01*
X174875317Y-104447147D01*
X174846292Y-104510703D01*
X174787514Y-104548477D01*
X174778938Y-104550666D01*
X174739433Y-104559260D01*
X174670657Y-104593686D01*
X174617860Y-104639436D01*
X174612376Y-104644422D01*
X174570486Y-104713145D01*
X174570483Y-104713151D01*
X174550799Y-104780187D01*
X174550797Y-104780197D01*
X174544500Y-104823996D01*
X174544500Y-105200000D01*
X172811889Y-105200000D01*
X172773638Y-105194500D01*
X171201362Y-105194500D01*
X171201361Y-105194500D01*
X171179381Y-105195678D01*
X171146979Y-105199163D01*
X171146916Y-105198578D01*
X171133117Y-105200000D01*
X170999999Y-105200000D01*
X170236319Y-105963681D01*
X170174996Y-105997166D01*
X170148638Y-106000000D01*
X168351362Y-106000000D01*
X168284323Y-105980315D01*
X168263681Y-105963681D01*
X166841819Y-104541819D01*
X166808334Y-104480496D01*
X166805500Y-104454138D01*
X166805500Y-103385258D01*
X167499500Y-103385258D01*
X167499500Y-103614741D01*
X167524446Y-103804215D01*
X167529452Y-103842238D01*
X167586655Y-104055726D01*
X167588842Y-104063887D01*
X167676650Y-104275876D01*
X167676657Y-104275890D01*
X167791392Y-104474617D01*
X167931081Y-104656661D01*
X167931089Y-104656670D01*
X168093330Y-104818911D01*
X168093338Y-104818918D01*
X168093339Y-104818919D01*
X168099961Y-104824000D01*
X168275382Y-104958607D01*
X168275385Y-104958608D01*
X168275388Y-104958611D01*
X168474112Y-105073344D01*
X168474117Y-105073346D01*
X168474123Y-105073349D01*
X168523900Y-105093967D01*
X168686113Y-105161158D01*
X168907762Y-105220548D01*
X169135266Y-105250500D01*
X169135273Y-105250500D01*
X169364727Y-105250500D01*
X169364734Y-105250500D01*
X169592238Y-105220548D01*
X169813887Y-105161158D01*
X170025888Y-105073344D01*
X170224612Y-104958611D01*
X170406661Y-104818919D01*
X170406665Y-104818914D01*
X170406670Y-104818911D01*
X170568911Y-104656670D01*
X170568914Y-104656665D01*
X170568919Y-104656661D01*
X170708611Y-104474612D01*
X170823344Y-104275888D01*
X170911158Y-104063887D01*
X170970548Y-103842238D01*
X171000500Y-103614734D01*
X171000500Y-103385266D01*
X170970548Y-103157762D01*
X170911158Y-102936113D01*
X170842606Y-102770615D01*
X170823349Y-102724123D01*
X170823346Y-102724117D01*
X170823344Y-102724112D01*
X170708611Y-102525388D01*
X170708608Y-102525385D01*
X170708607Y-102525382D01*
X170568918Y-102343338D01*
X170568911Y-102343330D01*
X170406670Y-102181089D01*
X170406661Y-102181081D01*
X170224617Y-102041392D01*
X170025890Y-101926657D01*
X170025876Y-101926650D01*
X169813887Y-101838842D01*
X169803265Y-101835996D01*
X169592238Y-101779452D01*
X169554215Y-101774446D01*
X169364741Y-101749500D01*
X169364734Y-101749500D01*
X169135266Y-101749500D01*
X169135258Y-101749500D01*
X168918715Y-101778009D01*
X168907762Y-101779452D01*
X168832941Y-101799500D01*
X168686112Y-101838842D01*
X168474123Y-101926650D01*
X168474109Y-101926657D01*
X168275382Y-102041392D01*
X168093338Y-102181081D01*
X167931081Y-102343338D01*
X167791392Y-102525382D01*
X167676657Y-102724109D01*
X167676650Y-102724123D01*
X167588842Y-102936112D01*
X167585878Y-102947175D01*
X167530169Y-103155088D01*
X167529453Y-103157759D01*
X167529451Y-103157770D01*
X167499500Y-103385258D01*
X166805500Y-103385258D01*
X166805500Y-102598009D01*
X166825185Y-102530970D01*
X166844092Y-102508112D01*
X167800000Y-101600000D01*
X167800000Y-99787473D01*
X167819685Y-99720434D01*
X167872489Y-99674679D01*
X167941647Y-99664735D01*
X167980290Y-99676986D01*
X168082518Y-99729074D01*
X168124146Y-99735667D01*
X168187279Y-99765595D01*
X168224210Y-99824906D01*
X168227484Y-99840484D01*
X168228801Y-99849642D01*
X168229721Y-99855115D01*
X168230028Y-99856941D01*
X168230029Y-99856945D01*
X168265197Y-99929339D01*
X168265198Y-99929341D01*
X168310951Y-99982143D01*
X168315934Y-99987623D01*
X168384657Y-100029513D01*
X168384662Y-100029516D01*
X168451701Y-100049201D01*
X168495512Y-100055500D01*
X168495515Y-100055500D01*
X168632541Y-100055500D01*
X168644720Y-100055021D01*
X168644730Y-100055020D01*
X168644735Y-100055020D01*
X168664132Y-100053493D01*
X168664160Y-100053489D01*
X168665260Y-100053403D01*
X168684739Y-100053403D01*
X168685841Y-100053489D01*
X168685868Y-100053493D01*
X168703091Y-100054848D01*
X168705277Y-100055021D01*
X168717460Y-100055500D01*
X168717469Y-100055500D01*
X169056003Y-100055500D01*
X169076995Y-100054074D01*
X169076998Y-100054073D01*
X169077023Y-100054072D01*
X169110257Y-100049536D01*
X169165747Y-100029513D01*
X169171418Y-100027467D01*
X169171419Y-100027466D01*
X169171423Y-100027465D01*
X169230734Y-99990533D01*
X169236923Y-99986472D01*
X169289051Y-99925139D01*
X169318978Y-99862006D01*
X169332051Y-99819726D01*
X169335085Y-99800565D01*
X169347072Y-99763673D01*
X169360885Y-99736563D01*
X169383685Y-99705184D01*
X169405186Y-99683682D01*
X169436569Y-99660882D01*
X169463669Y-99647073D01*
X169500564Y-99635086D01*
X169530604Y-99630328D01*
X169569396Y-99630328D01*
X169599430Y-99635084D01*
G37*
%TD.AperFunction*%
%TA.AperFunction,Conductor*%
G36*
X174006715Y-88720185D02*
G01*
X174052470Y-88772989D01*
X174062414Y-88842147D01*
X174052470Y-88876012D01*
X174013302Y-88961774D01*
X173994867Y-89090000D01*
X174013302Y-89218225D01*
X174037758Y-89271774D01*
X174067118Y-89336063D01*
X174151951Y-89433967D01*
X174247985Y-89495684D01*
X174293740Y-89548488D01*
X174303684Y-89617647D01*
X174274659Y-89681203D01*
X174247985Y-89704315D01*
X174242998Y-89707521D01*
X174151950Y-89766033D01*
X174067118Y-89863937D01*
X174067117Y-89863938D01*
X174013302Y-89981774D01*
X173994867Y-90110000D01*
X174013302Y-90238225D01*
X174054065Y-90327482D01*
X174067118Y-90356063D01*
X174151951Y-90453967D01*
X174260931Y-90524004D01*
X174385225Y-90560499D01*
X174385227Y-90560500D01*
X174385228Y-90560500D01*
X174514773Y-90560500D01*
X174514773Y-90560499D01*
X174639069Y-90524004D01*
X174748049Y-90453967D01*
X174832882Y-90356063D01*
X174886697Y-90238226D01*
X174886698Y-90238216D01*
X174886904Y-90237519D01*
X174887304Y-90236896D01*
X174890381Y-90230159D01*
X174891349Y-90230601D01*
X174924677Y-90178740D01*
X174988232Y-90149714D01*
X175057391Y-90159655D01*
X175099596Y-90191249D01*
X175101951Y-90193967D01*
X175210931Y-90264004D01*
X175335225Y-90300499D01*
X175335227Y-90300500D01*
X175335228Y-90300500D01*
X175464773Y-90300500D01*
X175464773Y-90300499D01*
X175589069Y-90264004D01*
X175698049Y-90193967D01*
X175700404Y-90191250D01*
X175740592Y-90144869D01*
X175799369Y-90107093D01*
X175869239Y-90107092D01*
X175892234Y-90118399D01*
X175892840Y-90117212D01*
X175901533Y-90121641D01*
X175901535Y-90121643D01*
X176007518Y-90175644D01*
X176007520Y-90175644D01*
X176007522Y-90175645D01*
X176124997Y-90194251D01*
X176125000Y-90194251D01*
X176125003Y-90194251D01*
X176242477Y-90175645D01*
X176242478Y-90175645D01*
X176242479Y-90175644D01*
X176242482Y-90175644D01*
X176348465Y-90121643D01*
X176348466Y-90121641D01*
X176357160Y-90117212D01*
X176358268Y-90119386D01*
X176410903Y-90100600D01*
X176478959Y-90116418D01*
X176493292Y-90127307D01*
X176493636Y-90126834D01*
X176501533Y-90132571D01*
X176501535Y-90132573D01*
X176607518Y-90186574D01*
X176607520Y-90186574D01*
X176607522Y-90186575D01*
X176724997Y-90205181D01*
X176725000Y-90205181D01*
X176725003Y-90205181D01*
X176842477Y-90186575D01*
X176842478Y-90186575D01*
X176842479Y-90186574D01*
X176842482Y-90186574D01*
X176948465Y-90132573D01*
X177032573Y-90048465D01*
X177086574Y-89942482D01*
X177086575Y-89942477D01*
X177105181Y-89825003D01*
X177105181Y-89824996D01*
X177086575Y-89707522D01*
X177086575Y-89707521D01*
X177086574Y-89707519D01*
X177086574Y-89707518D01*
X177032573Y-89601535D01*
X177032571Y-89601533D01*
X177032568Y-89601529D01*
X176948470Y-89517431D01*
X176948466Y-89517428D01*
X176948465Y-89517427D01*
X176842482Y-89463426D01*
X176842480Y-89463425D01*
X176842477Y-89463424D01*
X176725003Y-89444819D01*
X176724997Y-89444819D01*
X176607522Y-89463424D01*
X176607521Y-89463424D01*
X176560532Y-89487366D01*
X176501535Y-89517427D01*
X176501533Y-89517428D01*
X176492840Y-89521858D01*
X176491733Y-89519686D01*
X176439065Y-89538471D01*
X176371013Y-89522636D01*
X176356706Y-89511764D01*
X176356364Y-89512236D01*
X176348466Y-89506498D01*
X176348465Y-89506497D01*
X176242482Y-89452496D01*
X176242480Y-89452495D01*
X176242477Y-89452494D01*
X176125003Y-89433889D01*
X176124997Y-89433889D01*
X176007522Y-89452494D01*
X176007521Y-89452494D01*
X175901533Y-89506498D01*
X175901528Y-89506502D01*
X175886904Y-89521126D01*
X175825580Y-89554610D01*
X175755889Y-89549624D01*
X175705510Y-89514644D01*
X175698049Y-89506033D01*
X175589069Y-89435996D01*
X175589065Y-89435994D01*
X175589064Y-89435994D01*
X175464774Y-89399500D01*
X175464772Y-89399500D01*
X175335228Y-89399500D01*
X175335226Y-89399500D01*
X175210935Y-89435994D01*
X175210932Y-89435995D01*
X175210931Y-89435996D01*
X175168252Y-89463424D01*
X175101950Y-89506033D01*
X175017118Y-89603937D01*
X175017117Y-89603938D01*
X174963299Y-89721782D01*
X174963090Y-89722495D01*
X174962688Y-89723119D01*
X174959619Y-89729841D01*
X174958651Y-89729399D01*
X174925310Y-89781270D01*
X174861751Y-89810288D01*
X174792594Y-89800337D01*
X174750402Y-89768748D01*
X174748050Y-89766034D01*
X174748049Y-89766033D01*
X174652012Y-89704314D01*
X174606259Y-89651512D01*
X174596315Y-89582354D01*
X174625340Y-89518798D01*
X174652010Y-89495687D01*
X174748049Y-89433967D01*
X174832882Y-89336063D01*
X174886697Y-89218226D01*
X174905133Y-89090000D01*
X174886697Y-88961774D01*
X174847529Y-88876010D01*
X174837586Y-88806854D01*
X174866611Y-88743298D01*
X174925388Y-88705523D01*
X174960324Y-88700500D01*
X192626000Y-88700500D01*
X192693039Y-88720185D01*
X192738794Y-88772989D01*
X192750000Y-88824500D01*
X192750000Y-92126000D01*
X192730315Y-92193039D01*
X192677511Y-92238794D01*
X192626000Y-92250000D01*
X184700000Y-92250000D01*
X184700000Y-97550000D01*
X192476000Y-97550000D01*
X192543039Y-97569685D01*
X192588794Y-97622489D01*
X192600000Y-97674000D01*
X192600000Y-101376000D01*
X192580315Y-101443039D01*
X192527511Y-101488794D01*
X192476000Y-101500000D01*
X190950000Y-101500000D01*
X190950000Y-102750000D01*
X191800000Y-103600000D01*
X190950000Y-104000000D01*
X185779500Y-104000000D01*
X185712461Y-103980315D01*
X185666706Y-103927511D01*
X185655500Y-103876000D01*
X185655500Y-103655815D01*
X185661571Y-103617491D01*
X185661572Y-103617484D01*
X185661574Y-103617482D01*
X185674657Y-103534878D01*
X185680181Y-103500003D01*
X185680181Y-103499996D01*
X185661575Y-103382522D01*
X185661570Y-103382506D01*
X185655500Y-103344185D01*
X185655500Y-102855815D01*
X185661571Y-102817491D01*
X185661572Y-102817484D01*
X185661574Y-102817482D01*
X185669094Y-102770004D01*
X185680181Y-102700003D01*
X185680181Y-102699996D01*
X185661575Y-102582522D01*
X185661570Y-102582506D01*
X185655500Y-102544185D01*
X185655500Y-102301361D01*
X185655444Y-102300323D01*
X185654609Y-102284739D01*
X185651775Y-102258381D01*
X185633645Y-102200481D01*
X185600160Y-102139158D01*
X185587147Y-102121774D01*
X185573642Y-102103733D01*
X185573626Y-102103715D01*
X184396289Y-100926379D01*
X184396274Y-100926364D01*
X184396260Y-100926351D01*
X184396248Y-100926340D01*
X184383910Y-100915257D01*
X184383883Y-100915234D01*
X184363250Y-100898607D01*
X184363245Y-100898604D01*
X184309482Y-100870481D01*
X184242454Y-100850800D01*
X184242440Y-100850797D01*
X184198641Y-100844500D01*
X184198638Y-100844500D01*
X174579500Y-100844500D01*
X174512461Y-100824815D01*
X174466706Y-100772011D01*
X174455500Y-100720500D01*
X174455500Y-100105901D01*
X174475185Y-100038862D01*
X174527989Y-99993107D01*
X174597147Y-99983163D01*
X174660703Y-100012188D01*
X174667181Y-100018220D01*
X174756529Y-100107568D01*
X174756533Y-100107571D01*
X174756535Y-100107573D01*
X174862518Y-100161574D01*
X174862520Y-100161574D01*
X174862522Y-100161575D01*
X174979997Y-100180181D01*
X174980000Y-100180181D01*
X174980003Y-100180181D01*
X175097477Y-100161575D01*
X175097478Y-100161575D01*
X175097479Y-100161574D01*
X175097482Y-100161574D01*
X175203465Y-100107573D01*
X175287573Y-100023465D01*
X175341574Y-99917482D01*
X175341575Y-99917477D01*
X175360181Y-99800003D01*
X175360181Y-99799996D01*
X175839819Y-99799996D01*
X175839819Y-99800003D01*
X175858424Y-99917477D01*
X175858424Y-99917478D01*
X175858425Y-99917481D01*
X175858426Y-99917482D01*
X175906681Y-100012188D01*
X175912428Y-100023466D01*
X175912431Y-100023470D01*
X175996529Y-100107568D01*
X175996533Y-100107571D01*
X175996535Y-100107573D01*
X176102518Y-100161574D01*
X176102520Y-100161574D01*
X176102522Y-100161575D01*
X176219997Y-100180181D01*
X176220000Y-100180181D01*
X176220003Y-100180181D01*
X176337477Y-100161575D01*
X176337478Y-100161575D01*
X176337479Y-100161574D01*
X176337482Y-100161574D01*
X176443465Y-100107573D01*
X176527573Y-100023465D01*
X176581574Y-99917482D01*
X176581575Y-99917477D01*
X176600181Y-99800003D01*
X176600181Y-99799996D01*
X176581575Y-99682522D01*
X176581575Y-99682521D01*
X176581574Y-99682519D01*
X176581574Y-99682518D01*
X176527573Y-99576535D01*
X176527571Y-99576533D01*
X176527568Y-99576529D01*
X176443470Y-99492431D01*
X176443466Y-99492428D01*
X176443465Y-99492427D01*
X176337482Y-99438426D01*
X176337480Y-99438425D01*
X176337477Y-99438424D01*
X176220003Y-99419819D01*
X176219997Y-99419819D01*
X176102522Y-99438424D01*
X176102521Y-99438424D01*
X175996533Y-99492428D01*
X175996529Y-99492431D01*
X175912431Y-99576529D01*
X175912428Y-99576533D01*
X175858424Y-99682521D01*
X175858424Y-99682522D01*
X175839819Y-99799996D01*
X175360181Y-99799996D01*
X175341575Y-99682522D01*
X175341575Y-99682521D01*
X175341574Y-99682519D01*
X175341574Y-99682518D01*
X175287573Y-99576535D01*
X175287571Y-99576533D01*
X175287568Y-99576529D01*
X175203470Y-99492431D01*
X175203466Y-99492428D01*
X175203465Y-99492427D01*
X175097482Y-99438426D01*
X175097480Y-99438425D01*
X175097477Y-99438424D01*
X174980003Y-99419819D01*
X174979997Y-99419819D01*
X174862522Y-99438424D01*
X174862521Y-99438424D01*
X174756533Y-99492428D01*
X174756529Y-99492431D01*
X174667181Y-99581780D01*
X174605858Y-99615265D01*
X174536166Y-99610281D01*
X174480233Y-99568409D01*
X174455816Y-99502945D01*
X174455500Y-99494099D01*
X174455500Y-99401361D01*
X174455241Y-99396529D01*
X174454609Y-99384739D01*
X174454128Y-99380268D01*
X174451775Y-99358380D01*
X174451774Y-99358378D01*
X174433645Y-99300481D01*
X174422560Y-99280181D01*
X174400163Y-99239163D01*
X174400158Y-99239155D01*
X174373642Y-99203733D01*
X174373626Y-99203715D01*
X174064907Y-98894996D01*
X175299819Y-98894996D01*
X175299819Y-98895003D01*
X175318424Y-99012477D01*
X175318424Y-99012478D01*
X175318425Y-99012481D01*
X175318426Y-99012482D01*
X175370083Y-99113865D01*
X175372428Y-99118466D01*
X175372431Y-99118470D01*
X175456529Y-99202568D01*
X175456533Y-99202571D01*
X175456535Y-99202573D01*
X175562518Y-99256574D01*
X175562520Y-99256574D01*
X175562522Y-99256575D01*
X175679997Y-99275181D01*
X175680000Y-99275181D01*
X175680003Y-99275181D01*
X175797477Y-99256575D01*
X175797478Y-99256575D01*
X175797479Y-99256574D01*
X175797482Y-99256574D01*
X175903465Y-99202573D01*
X175987573Y-99118465D01*
X176041574Y-99012482D01*
X176045908Y-98985120D01*
X176059390Y-98899996D01*
X176819819Y-98899996D01*
X176819819Y-98900003D01*
X176838424Y-99017477D01*
X176838424Y-99017478D01*
X176838425Y-99017481D01*
X176838426Y-99017482D01*
X176889879Y-99118465D01*
X176892428Y-99123466D01*
X176892431Y-99123470D01*
X176976529Y-99207568D01*
X176976533Y-99207571D01*
X176976535Y-99207573D01*
X177082518Y-99261574D01*
X177082520Y-99261574D01*
X177082522Y-99261575D01*
X177199997Y-99280181D01*
X177200000Y-99280181D01*
X177200003Y-99280181D01*
X177317477Y-99261575D01*
X177317478Y-99261575D01*
X177317479Y-99261574D01*
X177317482Y-99261574D01*
X177423465Y-99207573D01*
X177423471Y-99207566D01*
X177427114Y-99204921D01*
X177492921Y-99181441D01*
X177560974Y-99197266D01*
X177572886Y-99204921D01*
X177576531Y-99207569D01*
X177576535Y-99207573D01*
X177682518Y-99261574D01*
X177682520Y-99261574D01*
X177682522Y-99261575D01*
X177799997Y-99280181D01*
X177800000Y-99280181D01*
X177800003Y-99280181D01*
X177917477Y-99261575D01*
X177917478Y-99261575D01*
X177917479Y-99261574D01*
X177917482Y-99261574D01*
X178023465Y-99207573D01*
X178107573Y-99123465D01*
X178161574Y-99017482D01*
X178166700Y-98985120D01*
X178180181Y-98900003D01*
X178180181Y-98899996D01*
X178161575Y-98782522D01*
X178161575Y-98782521D01*
X178161574Y-98782519D01*
X178161574Y-98782518D01*
X178107573Y-98676535D01*
X178107571Y-98676533D01*
X178107568Y-98676529D01*
X178081035Y-98649996D01*
X179924819Y-98649996D01*
X179924819Y-98650003D01*
X179943424Y-98767477D01*
X179943424Y-98767478D01*
X179943425Y-98767481D01*
X179943426Y-98767482D01*
X179995064Y-98868828D01*
X179997428Y-98873466D01*
X179997431Y-98873470D01*
X180081529Y-98957568D01*
X180081533Y-98957571D01*
X180081535Y-98957573D01*
X180187518Y-99011574D01*
X180208531Y-99014902D01*
X180271664Y-99044829D01*
X180308597Y-99104140D01*
X180307601Y-99174002D01*
X180268993Y-99232236D01*
X180225706Y-99252033D01*
X180226803Y-99255409D01*
X180217521Y-99258424D01*
X180111533Y-99312428D01*
X180111529Y-99312431D01*
X180027431Y-99396529D01*
X180027428Y-99396533D01*
X179973424Y-99502521D01*
X179973424Y-99502522D01*
X179954819Y-99619996D01*
X179954819Y-99620003D01*
X179973424Y-99737477D01*
X179973424Y-99737478D01*
X179973425Y-99737481D01*
X179973426Y-99737482D01*
X180025908Y-99840484D01*
X180027428Y-99843466D01*
X180027431Y-99843470D01*
X180111529Y-99927568D01*
X180111533Y-99927571D01*
X180111535Y-99927573D01*
X180217518Y-99981574D01*
X180217520Y-99981574D01*
X180217522Y-99981575D01*
X180334997Y-100000181D01*
X180335000Y-100000181D01*
X180335003Y-100000181D01*
X180452477Y-99981575D01*
X180452478Y-99981575D01*
X180452479Y-99981574D01*
X180452482Y-99981574D01*
X180558465Y-99927573D01*
X180600780Y-99885258D01*
X186749500Y-99885258D01*
X186749500Y-100114741D01*
X186767289Y-100249853D01*
X186779452Y-100342238D01*
X186807081Y-100445351D01*
X186838842Y-100563887D01*
X186926650Y-100775876D01*
X186926656Y-100775888D01*
X187007120Y-100915257D01*
X187041392Y-100974617D01*
X187181081Y-101156661D01*
X187181089Y-101156670D01*
X187343330Y-101318911D01*
X187343338Y-101318918D01*
X187525382Y-101458607D01*
X187525385Y-101458608D01*
X187525388Y-101458611D01*
X187724112Y-101573344D01*
X187724117Y-101573346D01*
X187724123Y-101573349D01*
X187788465Y-101600000D01*
X187936113Y-101661158D01*
X188157762Y-101720548D01*
X188385266Y-101750500D01*
X188385273Y-101750500D01*
X188614727Y-101750500D01*
X188614734Y-101750500D01*
X188842238Y-101720548D01*
X189063887Y-101661158D01*
X189275888Y-101573344D01*
X189474612Y-101458611D01*
X189656661Y-101318919D01*
X189656665Y-101318914D01*
X189656670Y-101318911D01*
X189818911Y-101156670D01*
X189818914Y-101156665D01*
X189818919Y-101156661D01*
X189958611Y-100974612D01*
X190073344Y-100775888D01*
X190161158Y-100563887D01*
X190220548Y-100342238D01*
X190250500Y-100114734D01*
X190250500Y-99885266D01*
X190220548Y-99657762D01*
X190161158Y-99436113D01*
X190088862Y-99261575D01*
X190073349Y-99224123D01*
X190073346Y-99224117D01*
X190073344Y-99224112D01*
X189958611Y-99025388D01*
X189958608Y-99025385D01*
X189958607Y-99025382D01*
X189842036Y-98873465D01*
X189818919Y-98843339D01*
X189818918Y-98843338D01*
X189818911Y-98843330D01*
X189656670Y-98681089D01*
X189656661Y-98681081D01*
X189474617Y-98541392D01*
X189467200Y-98537110D01*
X189378166Y-98485706D01*
X189275890Y-98426657D01*
X189275876Y-98426650D01*
X189063887Y-98338842D01*
X188842238Y-98279452D01*
X188804215Y-98274446D01*
X188614741Y-98249500D01*
X188614734Y-98249500D01*
X188385266Y-98249500D01*
X188385258Y-98249500D01*
X188168715Y-98278009D01*
X188157762Y-98279452D01*
X188099978Y-98294935D01*
X187936112Y-98338842D01*
X187724123Y-98426650D01*
X187724109Y-98426657D01*
X187525382Y-98541392D01*
X187343338Y-98681081D01*
X187181081Y-98843338D01*
X187041392Y-99025382D01*
X186926657Y-99224109D01*
X186926650Y-99224123D01*
X186838842Y-99436112D01*
X186816392Y-99519898D01*
X186782317Y-99647072D01*
X186779453Y-99657759D01*
X186779451Y-99657770D01*
X186749500Y-99885258D01*
X180600780Y-99885258D01*
X180642573Y-99843465D01*
X180696574Y-99737482D01*
X180699490Y-99719072D01*
X180715181Y-99620003D01*
X180715181Y-99619996D01*
X180696575Y-99502522D01*
X180696575Y-99502521D01*
X180696574Y-99502519D01*
X180696574Y-99502518D01*
X180642573Y-99396535D01*
X180642571Y-99396533D01*
X180642568Y-99396529D01*
X180558470Y-99312431D01*
X180558466Y-99312428D01*
X180558465Y-99312427D01*
X180452482Y-99258426D01*
X180452481Y-99258425D01*
X180452478Y-99258424D01*
X180431467Y-99255097D01*
X180368332Y-99225168D01*
X180331401Y-99165856D01*
X180332399Y-99095994D01*
X180371009Y-99037761D01*
X180414306Y-99018004D01*
X180413197Y-99014591D01*
X180422478Y-99011575D01*
X180422479Y-99011574D01*
X180422482Y-99011574D01*
X180528465Y-98957573D01*
X180612573Y-98873465D01*
X180666574Y-98767482D01*
X180676775Y-98703076D01*
X180685181Y-98650003D01*
X180685181Y-98649996D01*
X180666575Y-98532522D01*
X180666575Y-98532521D01*
X180666574Y-98532519D01*
X180666574Y-98532518D01*
X180612573Y-98426535D01*
X180612571Y-98426533D01*
X180612568Y-98426529D01*
X180528470Y-98342431D01*
X180528466Y-98342428D01*
X180528465Y-98342427D01*
X180422482Y-98288426D01*
X180422480Y-98288425D01*
X180422477Y-98288424D01*
X180305003Y-98269819D01*
X180304997Y-98269819D01*
X180187522Y-98288424D01*
X180187521Y-98288424D01*
X180081533Y-98342428D01*
X180081529Y-98342431D01*
X179997431Y-98426529D01*
X179997428Y-98426533D01*
X179943424Y-98532521D01*
X179943424Y-98532522D01*
X179924819Y-98649996D01*
X178081035Y-98649996D01*
X178023470Y-98592431D01*
X178023466Y-98592428D01*
X178023465Y-98592427D01*
X177917482Y-98538426D01*
X177917480Y-98538425D01*
X177917477Y-98538424D01*
X177800003Y-98519819D01*
X177799997Y-98519819D01*
X177682522Y-98538424D01*
X177682521Y-98538424D01*
X177576530Y-98592429D01*
X177572880Y-98595082D01*
X177507072Y-98618558D01*
X177439019Y-98602729D01*
X177427120Y-98595082D01*
X177423469Y-98592429D01*
X177386283Y-98573482D01*
X177317482Y-98538426D01*
X177317480Y-98538425D01*
X177317477Y-98538424D01*
X177200003Y-98519819D01*
X177199997Y-98519819D01*
X177082522Y-98538424D01*
X177082521Y-98538424D01*
X176976533Y-98592428D01*
X176976529Y-98592431D01*
X176892431Y-98676529D01*
X176892428Y-98676533D01*
X176838424Y-98782521D01*
X176838424Y-98782522D01*
X176819819Y-98899996D01*
X176059390Y-98899996D01*
X176060181Y-98895003D01*
X176060181Y-98894996D01*
X176041575Y-98777522D01*
X176041575Y-98777521D01*
X176041574Y-98777519D01*
X176041574Y-98777518D01*
X175987573Y-98671535D01*
X175987571Y-98671533D01*
X175987568Y-98671529D01*
X175903470Y-98587431D01*
X175903466Y-98587428D01*
X175903465Y-98587427D01*
X175797482Y-98533426D01*
X175797480Y-98533425D01*
X175797477Y-98533424D01*
X175680003Y-98514819D01*
X175679997Y-98514819D01*
X175562522Y-98533424D01*
X175562521Y-98533424D01*
X175456533Y-98587428D01*
X175456529Y-98587431D01*
X175372431Y-98671529D01*
X175372428Y-98671533D01*
X175318424Y-98777521D01*
X175318424Y-98777522D01*
X175299819Y-98894996D01*
X174064907Y-98894996D01*
X173876813Y-98706902D01*
X173872848Y-98703076D01*
X173866355Y-98697029D01*
X173866343Y-98697020D01*
X173824989Y-98669386D01*
X173824975Y-98669379D01*
X173761451Y-98640368D01*
X173755528Y-98637832D01*
X173754620Y-98637443D01*
X173727979Y-98634258D01*
X173674699Y-98627888D01*
X173674698Y-98627888D01*
X173674697Y-98627888D01*
X173646783Y-98631901D01*
X173605543Y-98637831D01*
X173598239Y-98639059D01*
X173589792Y-98641760D01*
X173589154Y-98639766D01*
X173531913Y-98649385D01*
X173467688Y-98621873D01*
X173428532Y-98564006D01*
X173426878Y-98494156D01*
X173429460Y-98485735D01*
X173441743Y-98450245D01*
X173446727Y-98380553D01*
X173447079Y-98373161D01*
X173428102Y-98294938D01*
X173403291Y-98249500D01*
X173394620Y-98233619D01*
X173394615Y-98233612D01*
X173368099Y-98198190D01*
X173368083Y-98198172D01*
X171691819Y-96521908D01*
X171658334Y-96460585D01*
X171655500Y-96434227D01*
X171655500Y-94851361D01*
X171655444Y-94850323D01*
X171654609Y-94834739D01*
X171651775Y-94808381D01*
X171633645Y-94750481D01*
X171600160Y-94689158D01*
X171600158Y-94689155D01*
X171573642Y-94653733D01*
X171573626Y-94653715D01*
X171296289Y-94376379D01*
X171296274Y-94376364D01*
X171296260Y-94376351D01*
X171296248Y-94376340D01*
X171283910Y-94365257D01*
X171283883Y-94365234D01*
X171263250Y-94348607D01*
X171263245Y-94348604D01*
X171209482Y-94320481D01*
X171142454Y-94300800D01*
X171142440Y-94300797D01*
X171098641Y-94294500D01*
X171098638Y-94294500D01*
X171089176Y-94294500D01*
X171022137Y-94274815D01*
X170976382Y-94222011D01*
X170966703Y-94189898D01*
X170961575Y-94157521D01*
X170961574Y-94157519D01*
X170961574Y-94157518D01*
X170907573Y-94051535D01*
X170907571Y-94051533D01*
X170907568Y-94051529D01*
X170836220Y-93980181D01*
X170802735Y-93918858D01*
X170807719Y-93849166D01*
X170836220Y-93804819D01*
X170907568Y-93733470D01*
X170907573Y-93733465D01*
X170961574Y-93627482D01*
X170980181Y-93510000D01*
X170980181Y-93509996D01*
X170961575Y-93392522D01*
X170961575Y-93392521D01*
X170961574Y-93392519D01*
X170961574Y-93392518D01*
X170907573Y-93286535D01*
X170907571Y-93286533D01*
X170907568Y-93286529D01*
X170823470Y-93202431D01*
X170823466Y-93202428D01*
X170823465Y-93202427D01*
X170717482Y-93148426D01*
X170717480Y-93148425D01*
X170717477Y-93148424D01*
X170600003Y-93129819D01*
X170599997Y-93129819D01*
X170482522Y-93148424D01*
X170482521Y-93148424D01*
X170376533Y-93202428D01*
X170376529Y-93202431D01*
X170292431Y-93286529D01*
X170292428Y-93286533D01*
X170238424Y-93392521D01*
X170238424Y-93392522D01*
X170219819Y-93509996D01*
X170219819Y-93510003D01*
X170238424Y-93627477D01*
X170238424Y-93627478D01*
X170292428Y-93733466D01*
X170292431Y-93733470D01*
X170363780Y-93804819D01*
X170397265Y-93866142D01*
X170392281Y-93935834D01*
X170363780Y-93980181D01*
X170292431Y-94051529D01*
X170292428Y-94051533D01*
X170238424Y-94157521D01*
X170233297Y-94189898D01*
X170203368Y-94253033D01*
X170144056Y-94289964D01*
X170110824Y-94294500D01*
X167973991Y-94294500D01*
X167940944Y-94298054D01*
X167889433Y-94309260D01*
X167820657Y-94343686D01*
X167767860Y-94389436D01*
X167762376Y-94394422D01*
X167720486Y-94463145D01*
X167720482Y-94463154D01*
X167718822Y-94468808D01*
X167681043Y-94527584D01*
X167617485Y-94556604D01*
X167548328Y-94546656D01*
X167512166Y-94521546D01*
X165581634Y-92591013D01*
X165581633Y-92591012D01*
X165565283Y-92576325D01*
X165565269Y-92576313D01*
X165544620Y-92559672D01*
X165473575Y-92522509D01*
X165406543Y-92502826D01*
X165405894Y-92502732D01*
X165348638Y-92494500D01*
X162524000Y-92494500D01*
X162523992Y-92494500D01*
X162480313Y-92499197D01*
X162428825Y-92510397D01*
X162418627Y-92512890D01*
X162332484Y-92558794D01*
X162264063Y-92572948D01*
X162213637Y-92557582D01*
X162150937Y-92522510D01*
X162150935Y-92522509D01*
X162083903Y-92502826D01*
X162083899Y-92502825D01*
X162083898Y-92502825D01*
X162026000Y-92494500D01*
X159424000Y-92494500D01*
X159423992Y-92494500D01*
X159380313Y-92499197D01*
X159328825Y-92510397D01*
X159318627Y-92512890D01*
X159318624Y-92512891D01*
X159273574Y-92536897D01*
X158950000Y-92400000D01*
X158966477Y-90949996D01*
X175294819Y-90949996D01*
X175294819Y-90950003D01*
X175313424Y-91067477D01*
X175313424Y-91067478D01*
X175367428Y-91173466D01*
X175367431Y-91173470D01*
X175451529Y-91257568D01*
X175451533Y-91257571D01*
X175451535Y-91257573D01*
X175557518Y-91311574D01*
X175557520Y-91311574D01*
X175557522Y-91311575D01*
X175674997Y-91330181D01*
X175675000Y-91330181D01*
X175675003Y-91330181D01*
X175792477Y-91311575D01*
X175792478Y-91311575D01*
X175792479Y-91311574D01*
X175792482Y-91311574D01*
X175898465Y-91257573D01*
X175982573Y-91173465D01*
X176036574Y-91067482D01*
X176055181Y-90950000D01*
X176055181Y-90949996D01*
X176794819Y-90949996D01*
X176794819Y-90950003D01*
X176813424Y-91067477D01*
X176813424Y-91067478D01*
X176867428Y-91173466D01*
X176867431Y-91173470D01*
X176951529Y-91257568D01*
X176951533Y-91257571D01*
X176951535Y-91257573D01*
X177057518Y-91311574D01*
X177057520Y-91311574D01*
X177057522Y-91311575D01*
X177174997Y-91330181D01*
X177175000Y-91330181D01*
X177175003Y-91330181D01*
X177292477Y-91311575D01*
X177292478Y-91311575D01*
X177292479Y-91311574D01*
X177292482Y-91311574D01*
X177398465Y-91257573D01*
X177482573Y-91173465D01*
X177536574Y-91067482D01*
X177555181Y-90950000D01*
X177555181Y-90949996D01*
X177536575Y-90832522D01*
X177536575Y-90832521D01*
X177536574Y-90832519D01*
X177536574Y-90832518D01*
X177482573Y-90726535D01*
X177482571Y-90726533D01*
X177482568Y-90726529D01*
X177398470Y-90642431D01*
X177398466Y-90642428D01*
X177398465Y-90642427D01*
X177292482Y-90588426D01*
X177292480Y-90588425D01*
X177292477Y-90588424D01*
X177175003Y-90569819D01*
X177174997Y-90569819D01*
X177057522Y-90588424D01*
X177057521Y-90588424D01*
X176951533Y-90642428D01*
X176951529Y-90642431D01*
X176867431Y-90726529D01*
X176867428Y-90726533D01*
X176813424Y-90832521D01*
X176813424Y-90832522D01*
X176794819Y-90949996D01*
X176055181Y-90949996D01*
X176036575Y-90832522D01*
X176036575Y-90832521D01*
X176036574Y-90832519D01*
X176036574Y-90832518D01*
X175982573Y-90726535D01*
X175982571Y-90726533D01*
X175982568Y-90726529D01*
X175898470Y-90642431D01*
X175898466Y-90642428D01*
X175898465Y-90642427D01*
X175792482Y-90588426D01*
X175792480Y-90588425D01*
X175792477Y-90588424D01*
X175675003Y-90569819D01*
X175674997Y-90569819D01*
X175557522Y-90588424D01*
X175557521Y-90588424D01*
X175451533Y-90642428D01*
X175451529Y-90642431D01*
X175367431Y-90726529D01*
X175367428Y-90726533D01*
X175313424Y-90832521D01*
X175313424Y-90832522D01*
X175294819Y-90949996D01*
X158966477Y-90949996D01*
X158974886Y-90209996D01*
X165069819Y-90209996D01*
X165069819Y-90210003D01*
X165088424Y-90327477D01*
X165088424Y-90327478D01*
X165142428Y-90433466D01*
X165142431Y-90433470D01*
X165226529Y-90517568D01*
X165226533Y-90517571D01*
X165226535Y-90517573D01*
X165332518Y-90571574D01*
X165332520Y-90571574D01*
X165332522Y-90571575D01*
X165449997Y-90590181D01*
X165450000Y-90590181D01*
X165450003Y-90590181D01*
X165567477Y-90571575D01*
X165567478Y-90571575D01*
X165567479Y-90571574D01*
X165567482Y-90571574D01*
X165673465Y-90517573D01*
X165757573Y-90433465D01*
X165811574Y-90327482D01*
X165811575Y-90327477D01*
X165830181Y-90210003D01*
X165830181Y-90209996D01*
X165811575Y-90092522D01*
X165811575Y-90092521D01*
X165811574Y-90092519D01*
X165811574Y-90092518D01*
X165757573Y-89986535D01*
X165757571Y-89986533D01*
X165757568Y-89986529D01*
X165673470Y-89902431D01*
X165673466Y-89902428D01*
X165673465Y-89902427D01*
X165567482Y-89848426D01*
X165567480Y-89848425D01*
X165567477Y-89848424D01*
X165450003Y-89829819D01*
X165449997Y-89829819D01*
X165332522Y-89848424D01*
X165332521Y-89848424D01*
X165226533Y-89902428D01*
X165226529Y-89902431D01*
X165142431Y-89986529D01*
X165142428Y-89986533D01*
X165088424Y-90092521D01*
X165088424Y-90092522D01*
X165069819Y-90209996D01*
X158974886Y-90209996D01*
X158984091Y-89400000D01*
X159407367Y-89400000D01*
X159425802Y-89528225D01*
X159479617Y-89646061D01*
X159479618Y-89646063D01*
X159564451Y-89743967D01*
X159673431Y-89814004D01*
X159797725Y-89850499D01*
X159797727Y-89850500D01*
X159797728Y-89850500D01*
X159927273Y-89850500D01*
X159927273Y-89850499D01*
X160051569Y-89814004D01*
X160160549Y-89743967D01*
X160245382Y-89646063D01*
X160289253Y-89550000D01*
X166507367Y-89550000D01*
X166525802Y-89678225D01*
X166572862Y-89781270D01*
X166579618Y-89796063D01*
X166664451Y-89893967D01*
X166773431Y-89964004D01*
X166897725Y-90000499D01*
X166897727Y-90000500D01*
X166897728Y-90000500D01*
X167027273Y-90000500D01*
X167027273Y-90000499D01*
X167151569Y-89964004D01*
X167260549Y-89893967D01*
X167345382Y-89796063D01*
X167399197Y-89678226D01*
X167417633Y-89550000D01*
X167399197Y-89421774D01*
X167345382Y-89303937D01*
X167260549Y-89206033D01*
X167151569Y-89135996D01*
X167151565Y-89135994D01*
X167151564Y-89135994D01*
X167027274Y-89099500D01*
X167027272Y-89099500D01*
X166897728Y-89099500D01*
X166897726Y-89099500D01*
X166773435Y-89135994D01*
X166773432Y-89135995D01*
X166773431Y-89135996D01*
X166745513Y-89153938D01*
X166664450Y-89206033D01*
X166579618Y-89303937D01*
X166579617Y-89303938D01*
X166525802Y-89421774D01*
X166507367Y-89550000D01*
X160289253Y-89550000D01*
X160299197Y-89528226D01*
X160317633Y-89400000D01*
X160299197Y-89271774D01*
X160245382Y-89153937D01*
X160160549Y-89056033D01*
X160051569Y-88985996D01*
X160051565Y-88985994D01*
X160051564Y-88985994D01*
X159927274Y-88949500D01*
X159927272Y-88949500D01*
X159797728Y-88949500D01*
X159797726Y-88949500D01*
X159673435Y-88985994D01*
X159673432Y-88985995D01*
X159673431Y-88985996D01*
X159622177Y-89018934D01*
X159564450Y-89056033D01*
X159479618Y-89153937D01*
X159479617Y-89153938D01*
X159425802Y-89271774D01*
X159407367Y-89400000D01*
X158984091Y-89400000D01*
X158992040Y-88700500D01*
X173939676Y-88700500D01*
X174006715Y-88720185D01*
G37*
%TD.AperFunction*%
%TA.AperFunction,Conductor*%
G36*
X173709522Y-103010022D02*
G01*
X173756698Y-103023873D01*
X173788803Y-103038534D01*
X173830172Y-103065121D01*
X173856842Y-103088232D01*
X173889047Y-103125399D01*
X173908127Y-103155086D01*
X173928554Y-103199814D01*
X173938498Y-103233679D01*
X173945496Y-103282352D01*
X173945496Y-103317646D01*
X173938498Y-103366319D01*
X173928554Y-103400185D01*
X173908128Y-103444910D01*
X173889047Y-103474599D01*
X173856842Y-103511766D01*
X173830170Y-103534878D01*
X173788809Y-103561460D01*
X173756702Y-103576123D01*
X173709519Y-103589977D01*
X173674585Y-103595000D01*
X173625410Y-103595000D01*
X173590476Y-103589977D01*
X173543299Y-103576125D01*
X173511192Y-103561462D01*
X173469828Y-103534878D01*
X173443156Y-103511766D01*
X173410951Y-103474599D01*
X173391871Y-103444910D01*
X173371443Y-103400181D01*
X173361498Y-103366314D01*
X173358021Y-103342129D01*
X173354502Y-103317642D01*
X173354502Y-103282354D01*
X173355441Y-103275818D01*
X173361500Y-103233677D01*
X173371440Y-103199823D01*
X173391874Y-103155080D01*
X173410950Y-103125399D01*
X173443150Y-103088237D01*
X173469825Y-103065122D01*
X173469830Y-103065119D01*
X173493747Y-103049749D01*
X173493746Y-103049748D01*
X173511194Y-103038536D01*
X173543299Y-103023874D01*
X173564841Y-103017549D01*
X173590481Y-103010022D01*
X173625413Y-103005000D01*
X173674590Y-103005000D01*
X173709522Y-103010022D01*
G37*
%TD.AperFunction*%
%TA.AperFunction,Conductor*%
G36*
X179109522Y-103010022D02*
G01*
X179156698Y-103023873D01*
X179188803Y-103038534D01*
X179230172Y-103065121D01*
X179256842Y-103088232D01*
X179289047Y-103125399D01*
X179308127Y-103155086D01*
X179328554Y-103199814D01*
X179338498Y-103233679D01*
X179345496Y-103282352D01*
X179345496Y-103317648D01*
X179338497Y-103366321D01*
X179328554Y-103400183D01*
X179308129Y-103444908D01*
X179289047Y-103474599D01*
X179256842Y-103511766D01*
X179230170Y-103534878D01*
X179188809Y-103561460D01*
X179156702Y-103576123D01*
X179109519Y-103589977D01*
X179074585Y-103595000D01*
X179025410Y-103595000D01*
X178990476Y-103589977D01*
X178943299Y-103576125D01*
X178911192Y-103561462D01*
X178869828Y-103534878D01*
X178843156Y-103511766D01*
X178810951Y-103474599D01*
X178791871Y-103444910D01*
X178771443Y-103400181D01*
X178761498Y-103366314D01*
X178758021Y-103342129D01*
X178754502Y-103317642D01*
X178754502Y-103282354D01*
X178755441Y-103275818D01*
X178761500Y-103233677D01*
X178771440Y-103199823D01*
X178791874Y-103155080D01*
X178810950Y-103125399D01*
X178843150Y-103088237D01*
X178869825Y-103065122D01*
X178869830Y-103065119D01*
X178893747Y-103049749D01*
X178893746Y-103049748D01*
X178911194Y-103038536D01*
X178943299Y-103023874D01*
X178964841Y-103017549D01*
X178990481Y-103010022D01*
X179025413Y-103005000D01*
X179074590Y-103005000D01*
X179109522Y-103010022D01*
G37*
%TD.AperFunction*%
%TA.AperFunction,Conductor*%
G36*
X169399437Y-96560085D02*
G01*
X169436328Y-96572073D01*
X169473110Y-96590815D01*
X169499896Y-96601465D01*
X169543815Y-96614361D01*
X169616326Y-96617988D01*
X169684995Y-96605092D01*
X169726891Y-96590815D01*
X169763670Y-96572073D01*
X169800565Y-96560085D01*
X169830609Y-96555327D01*
X169869389Y-96555327D01*
X169899432Y-96560085D01*
X169936324Y-96572072D01*
X169963428Y-96585882D01*
X169994815Y-96608686D01*
X170016312Y-96630183D01*
X170039116Y-96661570D01*
X170052925Y-96688672D01*
X170064913Y-96725568D01*
X170069670Y-96755602D01*
X170069671Y-96794394D01*
X170067656Y-96807119D01*
X170067652Y-96807134D01*
X170067653Y-96807135D01*
X170064911Y-96824440D01*
X170052925Y-96861327D01*
X170039119Y-96888424D01*
X170016314Y-96919812D01*
X169994813Y-96941313D01*
X169963428Y-96964116D01*
X169936331Y-96977923D01*
X169899432Y-96989913D01*
X169869396Y-96994670D01*
X169830602Y-96994670D01*
X169800566Y-96989913D01*
X169763669Y-96977924D01*
X169726895Y-96959187D01*
X169726870Y-96959175D01*
X169700108Y-96948535D01*
X169668110Y-96939139D01*
X169656185Y-96935638D01*
X169656184Y-96935637D01*
X169656181Y-96935637D01*
X169583674Y-96932011D01*
X169583673Y-96932011D01*
X169564360Y-96935638D01*
X169514998Y-96944908D01*
X169473113Y-96959181D01*
X169473105Y-96959185D01*
X169436329Y-96977924D01*
X169399428Y-96989913D01*
X169369393Y-96994669D01*
X169330606Y-96994669D01*
X169300570Y-96989913D01*
X169263667Y-96977923D01*
X169236568Y-96964115D01*
X169205183Y-96941312D01*
X169183686Y-96919815D01*
X169160882Y-96888428D01*
X169147073Y-96861326D01*
X169135085Y-96824431D01*
X169130328Y-96794398D01*
X169130328Y-96755599D01*
X169135086Y-96725562D01*
X169147074Y-96688668D01*
X169155682Y-96671774D01*
X169160883Y-96661566D01*
X169183682Y-96630186D01*
X169205186Y-96608682D01*
X169236569Y-96585882D01*
X169263669Y-96572073D01*
X169300562Y-96560086D01*
X169313702Y-96558004D01*
X169330602Y-96555327D01*
X169369389Y-96555327D01*
X169399437Y-96560085D01*
G37*
%TD.AperFunction*%
%TD*%
M02*
