%TF.GenerationSoftware,KiCad,Pcbnew,8.0.3*%
%TF.CreationDate,2024-10-12T12:31:44+02:00*%
%TF.ProjectId,Parkside-100W-Brick,5061726b-7369-4646-952d-313030572d42,rev?*%
%TF.SameCoordinates,Original*%
%TF.FileFunction,Copper,L1,Top*%
%TF.FilePolarity,Positive*%
%FSLAX46Y46*%
G04 Gerber Fmt 4.6, Leading zero omitted, Abs format (unit mm)*
G04 Created by KiCad (PCBNEW 8.0.3) date 2024-10-12 12:31:44*
%MOMM*%
%LPD*%
G01*
G04 APERTURE LIST*
G04 Aperture macros list*
%AMRoundRect*
0 Rectangle with rounded corners*
0 $1 Rounding radius*
0 $2 $3 $4 $5 $6 $7 $8 $9 X,Y pos of 4 corners*
0 Add a 4 corners polygon primitive as box body*
4,1,4,$2,$3,$4,$5,$6,$7,$8,$9,$2,$3,0*
0 Add four circle primitives for the rounded corners*
1,1,$1+$1,$2,$3*
1,1,$1+$1,$4,$5*
1,1,$1+$1,$6,$7*
1,1,$1+$1,$8,$9*
0 Add four rect primitives between the rounded corners*
20,1,$1+$1,$2,$3,$4,$5,0*
20,1,$1+$1,$4,$5,$6,$7,0*
20,1,$1+$1,$6,$7,$8,$9,0*
20,1,$1+$1,$8,$9,$2,$3,0*%
%AMRotRect*
0 Rectangle, with rotation*
0 The origin of the aperture is its center*
0 $1 length*
0 $2 width*
0 $3 Rotation angle, in degrees counterclockwise*
0 Add horizontal line*
21,1,$1,$2,0,0,$3*%
%AMFreePoly0*
4,1,5,0.110000,-0.125000,-0.110000,-0.125000,-0.110000,0.125000,0.360000,0.125000,0.110000,-0.125000,0.110000,-0.125000,$1*%
%AMFreePoly1*
4,1,6,0.290000,-0.055000,0.290000,-0.125000,-0.110000,-0.125000,-0.110000,0.125000,0.110000,0.125000,0.290000,-0.055000,0.290000,-0.055000,$1*%
%AMFreePoly2*
4,1,7,0.110000,-0.125000,-0.110000,-0.125000,-0.290000,-0.125000,-0.290000,-0.055000,-0.110000,0.125000,0.110000,0.125000,0.110000,-0.125000,0.110000,-0.125000,$1*%
%AMFreePoly3*
4,1,6,0.110000,-0.125000,-0.110000,-0.125000,-0.290000,0.055000,-0.290000,0.125000,0.110000,0.125000,0.110000,-0.125000,0.110000,-0.125000,$1*%
%AMFreePoly4*
4,1,93,-1.755578,2.630679,-1.440813,2.572996,-1.135297,2.477793,-0.843484,2.346458,-0.569628,2.180907,-0.317725,1.983553,-0.091447,1.757275,0.105907,1.505372,0.271458,1.231516,0.402793,0.939703,0.497996,0.634187,0.555679,0.319422,0.575000,0.000000,0.555679,-0.319422,0.497996,-0.634187,0.402793,-0.939703,0.271458,-1.231516,0.105907,-1.505372,-0.091447,-1.757275,-0.317725,-1.983553,
-0.569628,-2.180907,-0.843484,-2.346458,-1.135297,-2.477793,-1.440813,-2.572996,-1.755578,-2.630679,-2.075000,-2.650000,-2.394422,-2.630679,-2.709187,-2.572996,-3.014703,-2.477793,-3.306516,-2.346458,-3.580372,-2.180907,-3.832275,-1.983553,-4.058553,-1.757275,-4.255907,-1.505372,-4.421458,-1.231516,-4.552793,-0.939703,-4.647996,-0.634187,-4.705679,-0.319422,-4.725000,0.000000,-3.580141,0.000000,
-3.559613,-0.247738,-3.498588,-0.488718,-3.398732,-0.716368,-3.262768,-0.924477,-3.094404,-1.107368,-2.898234,-1.260054,-2.679608,-1.378368,-2.444490,-1.459084,-2.199294,-1.500000,-1.950706,-1.500000,-1.705510,-1.459084,-1.470392,-1.378368,-1.251766,-1.260054,-1.055596,-1.107368,-0.887232,-0.924477,-0.751268,-0.716368,-0.651412,-0.488718,-0.590387,-0.247738,-0.569859,0.000000,-0.590387,0.247738,
-0.651412,0.488718,-0.751268,0.716368,-0.887232,0.924477,-1.055596,1.107368,-1.251766,1.260054,-1.470392,1.378368,-1.705510,1.459084,-1.950706,1.500000,-2.199294,1.500000,-2.444490,1.459084,-2.679608,1.378368,-2.898234,1.260054,-3.094404,1.107368,-3.262768,0.924477,-3.398732,0.716368,-3.498588,0.488718,-3.559613,0.247738,-3.580141,0.000000,-4.725000,0.000000,-4.705679,0.319422,
-4.647996,0.634187,-4.552793,0.939703,-4.421458,1.231516,-4.255907,1.505372,-4.058553,1.757275,-3.832275,1.983553,-3.580372,2.180907,-3.306516,2.346458,-3.014703,2.477793,-2.709187,2.572996,-2.394422,2.630679,-2.075000,2.650000,-1.755578,2.630679,-1.755578,2.630679,$1*%
%AMFreePoly5*
4,1,17,2.400000,-0.600000,2.310008,-0.600000,2.310008,-1.549987,1.510008,-1.549987,1.510008,-0.700000,1.040005,-0.700000,1.040005,-1.549987,0.240005,-1.549987,0.240005,-0.700000,-0.229997,-0.700000,-0.229997,-1.549987,-1.014986,-1.549987,-1.014986,0.164999,-2.400000,0.164999,-2.400000,0.700000,2.394996,0.700000,2.400000,-0.600000,2.400000,-0.600000,$1*%
%AMFreePoly6*
4,1,9,3.862500,-0.866500,0.737500,-0.866500,0.737500,-0.450000,-0.737500,-0.450000,-0.737500,0.450000,0.737500,0.450000,0.737500,0.866500,3.862500,0.866500,3.862500,-0.866500,3.862500,-0.866500,$1*%
G04 Aperture macros list end*
%TA.AperFunction,SMDPad,CuDef*%
%ADD10RoundRect,0.225000X0.250000X-0.225000X0.250000X0.225000X-0.250000X0.225000X-0.250000X-0.225000X0*%
%TD*%
%TA.AperFunction,SMDPad,CuDef*%
%ADD11RoundRect,0.140000X-0.170000X0.140000X-0.170000X-0.140000X0.170000X-0.140000X0.170000X0.140000X0*%
%TD*%
%TA.AperFunction,SMDPad,CuDef*%
%ADD12RoundRect,0.250000X-0.312500X-0.625000X0.312500X-0.625000X0.312500X0.625000X-0.312500X0.625000X0*%
%TD*%
%TA.AperFunction,SMDPad,CuDef*%
%ADD13RoundRect,0.135000X-0.185000X0.135000X-0.185000X-0.135000X0.185000X-0.135000X0.185000X0.135000X0*%
%TD*%
%TA.AperFunction,SMDPad,CuDef*%
%ADD14RoundRect,0.250000X-0.475000X0.250000X-0.475000X-0.250000X0.475000X-0.250000X0.475000X0.250000X0*%
%TD*%
%TA.AperFunction,SMDPad,CuDef*%
%ADD15RoundRect,0.203125X1.446875X0.446875X-1.446875X0.446875X-1.446875X-0.446875X1.446875X-0.446875X0*%
%TD*%
%TA.AperFunction,SMDPad,CuDef*%
%ADD16R,0.400000X0.700000*%
%TD*%
%TA.AperFunction,SMDPad,CuDef*%
%ADD17RoundRect,0.140000X-0.140000X-0.170000X0.140000X-0.170000X0.140000X0.170000X-0.140000X0.170000X0*%
%TD*%
%TA.AperFunction,SMDPad,CuDef*%
%ADD18RoundRect,0.050000X-0.250000X0.250000X-0.250000X-0.250000X0.250000X-0.250000X0.250000X0.250000X0*%
%TD*%
%TA.AperFunction,SMDPad,CuDef*%
%ADD19RoundRect,0.150000X0.512500X0.150000X-0.512500X0.150000X-0.512500X-0.150000X0.512500X-0.150000X0*%
%TD*%
%TA.AperFunction,SMDPad,CuDef*%
%ADD20RoundRect,0.140000X0.140000X0.170000X-0.140000X0.170000X-0.140000X-0.170000X0.140000X-0.170000X0*%
%TD*%
%TA.AperFunction,SMDPad,CuDef*%
%ADD21RoundRect,0.062500X-0.362500X-0.062500X0.362500X-0.062500X0.362500X0.062500X-0.362500X0.062500X0*%
%TD*%
%TA.AperFunction,SMDPad,CuDef*%
%ADD22RoundRect,0.062500X-0.062500X-0.362500X0.062500X-0.362500X0.062500X0.362500X-0.062500X0.362500X0*%
%TD*%
%TA.AperFunction,HeatsinkPad*%
%ADD23R,5.450000X5.450000*%
%TD*%
%TA.AperFunction,SMDPad,CuDef*%
%ADD24RoundRect,0.135000X0.135000X0.185000X-0.135000X0.185000X-0.135000X-0.185000X0.135000X-0.185000X0*%
%TD*%
%TA.AperFunction,SMDPad,CuDef*%
%ADD25R,0.700000X0.420000*%
%TD*%
%TA.AperFunction,SMDPad,CuDef*%
%ADD26R,0.450000X0.420000*%
%TD*%
%TA.AperFunction,SMDPad,CuDef*%
%ADD27R,1.930000X2.490000*%
%TD*%
%TA.AperFunction,SMDPad,CuDef*%
%ADD28RoundRect,0.140000X0.170000X-0.140000X0.170000X0.140000X-0.170000X0.140000X-0.170000X-0.140000X0*%
%TD*%
%TA.AperFunction,SMDPad,CuDef*%
%ADD29RoundRect,0.250000X0.250000X0.475000X-0.250000X0.475000X-0.250000X-0.475000X0.250000X-0.475000X0*%
%TD*%
%TA.AperFunction,ComponentPad*%
%ADD30C,0.700000*%
%TD*%
%TA.AperFunction,ComponentPad*%
%ADD31C,4.400000*%
%TD*%
%TA.AperFunction,SMDPad,CuDef*%
%ADD32RoundRect,0.225000X0.225000X0.250000X-0.225000X0.250000X-0.225000X-0.250000X0.225000X-0.250000X0*%
%TD*%
%TA.AperFunction,SMDPad,CuDef*%
%ADD33RoundRect,0.135000X0.185000X-0.135000X0.185000X0.135000X-0.185000X0.135000X-0.185000X-0.135000X0*%
%TD*%
%TA.AperFunction,SMDPad,CuDef*%
%ADD34RoundRect,0.135000X-0.135000X-0.185000X0.135000X-0.185000X0.135000X0.185000X-0.135000X0.185000X0*%
%TD*%
%TA.AperFunction,SMDPad,CuDef*%
%ADD35FreePoly0,0.000000*%
%TD*%
%TA.AperFunction,SMDPad,CuDef*%
%ADD36FreePoly1,0.000000*%
%TD*%
%TA.AperFunction,SMDPad,CuDef*%
%ADD37FreePoly2,0.000000*%
%TD*%
%TA.AperFunction,SMDPad,CuDef*%
%ADD38FreePoly3,0.000000*%
%TD*%
%TA.AperFunction,SMDPad,CuDef*%
%ADD39RotRect,0.480000X0.480000X45.000000*%
%TD*%
%TA.AperFunction,SMDPad,CuDef*%
%ADD40RoundRect,0.203125X0.446875X-1.446875X0.446875X1.446875X-0.446875X1.446875X-0.446875X-1.446875X0*%
%TD*%
%TA.AperFunction,SMDPad,CuDef*%
%ADD41RoundRect,0.250000X-0.625000X0.375000X-0.625000X-0.375000X0.625000X-0.375000X0.625000X0.375000X0*%
%TD*%
%TA.AperFunction,SMDPad,CuDef*%
%ADD42C,0.750000*%
%TD*%
%TA.AperFunction,SMDPad,CuDef*%
%ADD43FreePoly4,0.000000*%
%TD*%
%TA.AperFunction,SMDPad,CuDef*%
%ADD44R,1.450000X0.600000*%
%TD*%
%TA.AperFunction,SMDPad,CuDef*%
%ADD45R,1.450000X0.300000*%
%TD*%
%TA.AperFunction,ComponentPad*%
%ADD46O,2.100000X1.000000*%
%TD*%
%TA.AperFunction,ComponentPad*%
%ADD47O,1.600000X1.000000*%
%TD*%
%TA.AperFunction,SMDPad,CuDef*%
%ADD48RoundRect,0.085000X-0.265000X-0.085000X0.265000X-0.085000X0.265000X0.085000X-0.265000X0.085000X0*%
%TD*%
%TA.AperFunction,SMDPad,CuDef*%
%ADD49R,1.000000X0.800000*%
%TD*%
%TA.AperFunction,SMDPad,CuDef*%
%ADD50FreePoly5,90.000000*%
%TD*%
%TA.AperFunction,SMDPad,CuDef*%
%ADD51R,2.600000X4.800000*%
%TD*%
%TA.AperFunction,SMDPad,CuDef*%
%ADD52FreePoly5,270.000000*%
%TD*%
%TA.AperFunction,SMDPad,CuDef*%
%ADD53RoundRect,0.150000X0.625000X-0.150000X0.625000X0.150000X-0.625000X0.150000X-0.625000X-0.150000X0*%
%TD*%
%TA.AperFunction,SMDPad,CuDef*%
%ADD54RoundRect,0.250000X0.650000X-0.350000X0.650000X0.350000X-0.650000X0.350000X-0.650000X-0.350000X0*%
%TD*%
%TA.AperFunction,SMDPad,CuDef*%
%ADD55RoundRect,0.225000X0.225000X-0.425000X0.225000X0.425000X-0.225000X0.425000X-0.225000X-0.425000X0*%
%TD*%
%TA.AperFunction,SMDPad,CuDef*%
%ADD56FreePoly6,90.000000*%
%TD*%
%TA.AperFunction,SMDPad,CuDef*%
%ADD57RoundRect,0.225000X-0.225000X-0.250000X0.225000X-0.250000X0.225000X0.250000X-0.225000X0.250000X0*%
%TD*%
%TA.AperFunction,SMDPad,CuDef*%
%ADD58R,0.450000X0.700000*%
%TD*%
%TA.AperFunction,SMDPad,CuDef*%
%ADD59RoundRect,0.250000X0.625000X-0.312500X0.625000X0.312500X-0.625000X0.312500X-0.625000X-0.312500X0*%
%TD*%
%TA.AperFunction,SMDPad,CuDef*%
%ADD60RoundRect,0.050000X0.350000X-0.225000X0.350000X0.225000X-0.350000X0.225000X-0.350000X-0.225000X0*%
%TD*%
%TA.AperFunction,ComponentPad*%
%ADD61R,6.500000X1.500000*%
%TD*%
%TA.AperFunction,ViaPad*%
%ADD62C,0.600000*%
%TD*%
%TA.AperFunction,ViaPad*%
%ADD63C,0.450000*%
%TD*%
%TA.AperFunction,Conductor*%
%ADD64C,0.200000*%
%TD*%
%TA.AperFunction,Conductor*%
%ADD65C,0.300000*%
%TD*%
%TA.AperFunction,Conductor*%
%ADD66C,0.250000*%
%TD*%
%TA.AperFunction,Conductor*%
%ADD67C,0.500000*%
%TD*%
G04 APERTURE END LIST*
D10*
%TO.P,C16,1*%
%TO.N,/IP2368 Buck-Boost-Converter/BAT*%
X180950000Y-96825000D03*
%TO.P,C16,2*%
%TO.N,GND*%
X180950000Y-95275000D03*
%TD*%
D11*
%TO.P,C21,1*%
%TO.N,+3.3V*%
X168200000Y-99367500D03*
%TO.P,C21,2*%
%TO.N,GND*%
X168200000Y-100327500D03*
%TD*%
D12*
%TO.P,R1,1*%
%TO.N,/IP2368 Buck-Boost-Converter/CSP1*%
X172087500Y-106850000D03*
%TO.P,R1,2*%
%TO.N,/IP2368 Buck-Boost-Converter/HB_IN*%
X175012500Y-106850000D03*
%TD*%
D13*
%TO.P,R3,1*%
%TO.N,/IP2368 Buck-Boost-Converter/CSN1*%
X173900000Y-104290000D03*
%TO.P,R3,2*%
%TO.N,/IP2368 Buck-Boost-Converter/HB_IN*%
X173900000Y-105310000D03*
%TD*%
D14*
%TO.P,C14,1*%
%TO.N,/IP2368 Buck-Boost-Converter/CSP1*%
X170400000Y-108700000D03*
%TO.P,C14,2*%
%TO.N,GND*%
X170400000Y-110600000D03*
%TD*%
D15*
%TO.P,C18,1*%
%TO.N,/IP2368 Buck-Boost-Converter/CSP1*%
X165800000Y-100050000D03*
%TO.P,C18,2*%
%TO.N,GND*%
X160700000Y-100050000D03*
%TD*%
D16*
%TO.P,D7,1,A1*%
%TO.N,/Connector/PORT1_CC2*%
X157850000Y-101800000D03*
%TO.P,D7,2,A2*%
%TO.N,GND*%
X158550000Y-101800000D03*
%TD*%
D17*
%TO.P,C10,1*%
%TO.N,/IP2368 Buck-Boost-Converter/VCC_IO*%
X180050000Y-94125000D03*
%TO.P,C10,2*%
%TO.N,GND*%
X181010000Y-94125000D03*
%TD*%
D18*
%TO.P,D3,1,K*%
%TO.N,/IP2368 Buck-Boost-Converter/BST1*%
X173650000Y-101100000D03*
%TO.P,D3,2,A*%
%TO.N,GND*%
X173650000Y-103300000D03*
%TD*%
D19*
%TO.P,Q2,1,GN*%
%TO.N,/IP2368 Buck-Boost-Converter/BAT_MODE*%
X169237500Y-91300000D03*
%TO.P,Q2,2,SP*%
%TO.N,/IP2368 Buck-Boost-Converter/VCONN_SUPPLY*%
X169237500Y-90350000D03*
%TO.P,Q2,3,GP*%
%TO.N,Net-(Q2A-DN)*%
X169237500Y-89400000D03*
%TO.P,Q2,4,DP*%
%TO.N,/Connector/PORT1_CC2*%
X166962500Y-89400000D03*
%TO.P,Q2,5,SN*%
%TO.N,GND*%
X166962500Y-90350000D03*
%TO.P,Q2,6,DN*%
%TO.N,Net-(Q2A-DN)*%
X166962500Y-91300000D03*
%TD*%
D16*
%TO.P,D5,1,A1*%
%TO.N,/Connector/PORT1_CC1*%
X157850000Y-98800000D03*
%TO.P,D5,2,A2*%
%TO.N,GND*%
X158550000Y-98800000D03*
%TD*%
D18*
%TO.P,D10,1,K*%
%TO.N,/IP2368 Buck-Boost-Converter/VCONN_SUPPLY*%
X168350000Y-92550000D03*
%TO.P,D10,2,A*%
%TO.N,+5V*%
X168350000Y-94750000D03*
%TD*%
D20*
%TO.P,C2,1*%
%TO.N,/IP2368 Buck-Boost-Converter/HB1*%
X174980000Y-99800000D03*
%TO.P,C2,2*%
%TO.N,/IP2368 Buck-Boost-Converter/BST1*%
X174020000Y-99800000D03*
%TD*%
D21*
%TO.P,U1,1,NC*%
%TO.N,unconnected-(U1-NC-Pad1)*%
X171480000Y-92130000D03*
%TO.P,U1,2,LT*%
%TO.N,unconnected-(U1-LT-Pad2)*%
X171480000Y-92630000D03*
%TO.P,U1,3,NC*%
%TO.N,unconnected-(U1-NC-Pad3)*%
X171480000Y-93130000D03*
%TO.P,U1,4,LED3/I2C_INT*%
%TO.N,/Battery Interface/I^{2}C_INT*%
X171480000Y-93630000D03*
%TO.P,U1,5,HLED*%
%TO.N,/IP2368 Buck-Boost-Converter/HLED*%
X171480000Y-94130000D03*
%TO.P,U1,6,NC*%
%TO.N,unconnected-(U1-NC-Pad6)*%
X171480000Y-94630000D03*
%TO.P,U1,7,NC*%
%TO.N,unconnected-(U1-NC-Pad7)*%
X171480000Y-95130000D03*
%TO.P,U1,8,VBUS*%
%TO.N,/Connector/POWER_VBUS*%
X171480000Y-95630000D03*
%TO.P,U1,9,VBUS_G*%
%TO.N,/IP2368 Buck-Boost-Converter/VBUS_G*%
X171480000Y-96130000D03*
%TO.P,U1,10,VBUS_I*%
%TO.N,/IP2368 Buck-Boost-Converter/CSP1*%
X171480000Y-96630000D03*
%TO.P,U1,11,AGND*%
%TO.N,GND*%
X171480000Y-97130000D03*
%TO.P,U1,12,VIO*%
%TO.N,/IP2368 Buck-Boost-Converter/CSP1*%
X171480000Y-97630000D03*
D22*
%TO.P,U1,13,CSP1*%
X172180000Y-98330000D03*
%TO.P,U1,14,CSN1*%
%TO.N,/IP2368 Buck-Boost-Converter/CSN1*%
X172680000Y-98330000D03*
%TO.P,U1,15,PCIN*%
%TO.N,/IP2368 Buck-Boost-Converter/HB_IN*%
X173180000Y-98330000D03*
%TO.P,U1,16,HG1*%
%TO.N,/IP2368 Buck-Boost-Converter/HG1*%
X173680000Y-98330000D03*
%TO.P,U1,17,BST1*%
%TO.N,/IP2368 Buck-Boost-Converter/BST1*%
X174180000Y-98330000D03*
%TO.P,U1,18,LX1*%
%TO.N,/IP2368 Buck-Boost-Converter/HB1*%
X174680000Y-98330000D03*
%TO.P,U1,19,LG1*%
%TO.N,/IP2368 Buck-Boost-Converter/LG1*%
X175180000Y-98330000D03*
%TO.P,U1,20,LG2*%
%TO.N,/IP2368 Buck-Boost-Converter/LG2*%
X175680000Y-98330000D03*
%TO.P,U1,21,LX2*%
%TO.N,/IP2368 Buck-Boost-Converter/HB2*%
X176180000Y-98330000D03*
%TO.P,U1,22,BST2*%
%TO.N,/IP2368 Buck-Boost-Converter/BST2*%
X176680000Y-98330000D03*
%TO.P,U1,23,HG2*%
%TO.N,/IP2368 Buck-Boost-Converter/HG2*%
X177180000Y-98330000D03*
%TO.P,U1,24,PCON*%
%TO.N,/IP2368 Buck-Boost-Converter/HB_BAT*%
X177680000Y-98330000D03*
D21*
%TO.P,U1,25,CSN2*%
%TO.N,/IP2368 Buck-Boost-Converter/CSN2*%
X178380000Y-97630000D03*
%TO.P,U1,26,CSP2*%
%TO.N,/IP2368 Buck-Boost-Converter/BAT*%
X178380000Y-97130000D03*
%TO.P,U1,27,BAT*%
X178380000Y-96630000D03*
%TO.P,U1,28,LX*%
%TO.N,unconnected-(U1-LX-Pad28)*%
X178380000Y-96130000D03*
%TO.P,U1,29,VCC_5V*%
%TO.N,/IP2368 Buck-Boost-Converter/VCC_5V*%
X178380000Y-95630000D03*
%TO.P,U1,30,AGND*%
%TO.N,GND*%
X178380000Y-95130000D03*
%TO.P,U1,31,NC*%
%TO.N,unconnected-(U1-NC-Pad31)*%
X178380000Y-94630000D03*
%TO.P,U1,32,VCC_IO*%
%TO.N,/IP2368 Buck-Boost-Converter/VCC_IO*%
X178380000Y-94130000D03*
%TO.P,U1,33,BAT_NUM*%
%TO.N,/IP2368 Buck-Boost-Converter/BAT_NUM*%
X178380000Y-93630000D03*
%TO.P,U1,34,F_CAP*%
%TO.N,/IP2368 Buck-Boost-Converter/F_CAP*%
X178380000Y-93130000D03*
%TO.P,U1,35,V_SET*%
%TO.N,/IP2368 Buck-Boost-Converter/V_SET*%
X178380000Y-92630000D03*
%TO.P,U1,36,I_SET*%
%TO.N,/IP2368 Buck-Boost-Converter/I_SET*%
X178380000Y-92130000D03*
D22*
%TO.P,U1,37,NTC*%
%TO.N,/IP2368 Buck-Boost-Converter/NTC*%
X177680000Y-91430000D03*
%TO.P,U1,38,CC2*%
%TO.N,/Connector/PORT1_CC2*%
X177180000Y-91430000D03*
%TO.P,U1,39,DPC*%
%TO.N,/Connector/PORT1_D+*%
X176680000Y-91430000D03*
%TO.P,U1,40,DMC*%
%TO.N,/Connector/PORT1_D-*%
X176180000Y-91430000D03*
%TO.P,U1,41,CC1*%
%TO.N,/Connector/PORT1_CC1*%
X175680000Y-91430000D03*
%TO.P,U1,42,LED2/I2C_SDA*%
%TO.N,/Battery Interface/I^{2}C_SDA*%
X175180000Y-91430000D03*
%TO.P,U1,43,LED1/I2C_SCL*%
%TO.N,/Battery Interface/I^{2}C_SCL*%
X174680000Y-91430000D03*
%TO.P,U1,44,NC*%
%TO.N,unconnected-(U1-NC-Pad44)*%
X174180000Y-91430000D03*
%TO.P,U1,45,NC*%
%TO.N,unconnected-(U1-NC-Pad45)*%
X173680000Y-91430000D03*
%TO.P,U1,46,BAT_MODE*%
%TO.N,/IP2368 Buck-Boost-Converter/BAT_MODE*%
X173180000Y-91430000D03*
%TO.P,U1,47,ISET_MODE*%
%TO.N,/IP2368 Buck-Boost-Converter/ISET_MODE*%
X172680000Y-91430000D03*
%TO.P,U1,48,NC*%
%TO.N,unconnected-(U1-NC-Pad48)*%
X172180000Y-91430000D03*
D23*
%TO.P,U1,49,GND*%
%TO.N,GND*%
X174930000Y-94880000D03*
%TD*%
D24*
%TO.P,R10,1*%
%TO.N,GND*%
X181050000Y-93175000D03*
%TO.P,R10,2*%
%TO.N,/IP2368 Buck-Boost-Converter/BAT_NUM*%
X180030000Y-93175000D03*
%TD*%
D17*
%TO.P,C3,1*%
%TO.N,/IP2368 Buck-Boost-Converter/CSP1*%
X171895000Y-99800000D03*
%TO.P,C3,2*%
%TO.N,/IP2368 Buck-Boost-Converter/CSN1*%
X172855000Y-99800000D03*
%TD*%
D13*
%TO.P,R15,1*%
%TO.N,GND*%
X172500000Y-89190000D03*
%TO.P,R15,2*%
%TO.N,/IP2368 Buck-Boost-Converter/BAT_MODE*%
X172500000Y-90210000D03*
%TD*%
D25*
%TO.P,Q5,1,S*%
%TO.N,/Battery Interface/VBAT*%
X199150000Y-91925000D03*
X199150000Y-91275000D03*
X199150000Y-90625000D03*
%TO.P,Q5,2,G*%
%TO.N,Net-(Q5-G)*%
X199150000Y-89975000D03*
D26*
%TO.P,Q5,3,D*%
%TO.N,/IP2368 Buck-Boost-Converter/BAT*%
X196225000Y-91925000D03*
X196225000Y-91275000D03*
D27*
X197300000Y-90950000D03*
D26*
X196225000Y-90625000D03*
X196225000Y-89975000D03*
%TD*%
D13*
%TO.P,R13,1*%
%TO.N,Net-(C22-Pad2)*%
X181900000Y-109840000D03*
%TO.P,R13,2*%
%TO.N,/IP2368 Buck-Boost-Converter/HB1*%
X181900000Y-110860000D03*
%TD*%
D28*
%TO.P,C5,1*%
%TO.N,/IP2368 Buck-Boost-Converter/NTC*%
X177770000Y-90075000D03*
%TO.P,C5,2*%
%TO.N,GND*%
X177770000Y-89115000D03*
%TD*%
D29*
%TO.P,C26,1*%
%TO.N,/IP2368 Buck-Boost-Converter/BAT*%
X193950000Y-100750000D03*
%TO.P,C26,2*%
%TO.N,GND*%
X192050000Y-100750000D03*
%TD*%
D18*
%TO.P,D6,1,K*%
%TO.N,/IP2368 Buck-Boost-Converter/BST2*%
X177250000Y-101100000D03*
%TO.P,D6,2,A*%
%TO.N,+5V*%
X177250000Y-103300000D03*
%TD*%
D16*
%TO.P,D8,1,A1*%
%TO.N,/Connector/PORT1_D+*%
X157850000Y-100800000D03*
%TO.P,D8,2,A2*%
%TO.N,GND*%
X158550000Y-100800000D03*
%TD*%
D28*
%TO.P,C22,1*%
%TO.N,GND*%
X182850000Y-110830000D03*
%TO.P,C22,2*%
%TO.N,Net-(C22-Pad2)*%
X182850000Y-109870000D03*
%TD*%
D17*
%TO.P,C1,1*%
%TO.N,/IP2368 Buck-Boost-Converter/HB2*%
X176220000Y-99800000D03*
%TO.P,C1,2*%
%TO.N,/IP2368 Buck-Boost-Converter/BST2*%
X177180000Y-99800000D03*
%TD*%
D30*
%TO.P,J1,1,Pin_1*%
%TO.N,Net-(J1-Pin_1)*%
X195850000Y-100000000D03*
X196333274Y-98833274D03*
X196333274Y-101166726D03*
X197500000Y-98350000D03*
D31*
X197500000Y-100000000D03*
D30*
X197500000Y-101650000D03*
X198666726Y-98833274D03*
X198666726Y-101166726D03*
X199150000Y-100000000D03*
%TD*%
D32*
%TO.P,C19,1*%
%TO.N,/Connector/POWER_VBUS*%
X159725000Y-94800000D03*
%TO.P,C19,2*%
%TO.N,GND*%
X158175000Y-94800000D03*
%TD*%
D13*
%TO.P,R17,1*%
%TO.N,Net-(Q1A-DN)*%
X163525000Y-89190000D03*
%TO.P,R17,2*%
%TO.N,/IP2368 Buck-Boost-Converter/VCONN_SUPPLY*%
X163525000Y-90210000D03*
%TD*%
D28*
%TO.P,C7,1*%
%TO.N,/IP2368 Buck-Boost-Converter/BAT_MODE*%
X171600000Y-90180000D03*
%TO.P,C7,2*%
%TO.N,GND*%
X171600000Y-89220000D03*
%TD*%
D33*
%TO.P,R23,1*%
%TO.N,/Battery Interface/I^{2}C_INT*%
X169850000Y-93510000D03*
%TO.P,R23,2*%
%TO.N,GND*%
X169850000Y-92490000D03*
%TD*%
D10*
%TO.P,C17,1*%
%TO.N,/IP2368 Buck-Boost-Converter/CSP1*%
X169600000Y-98325000D03*
%TO.P,C17,2*%
%TO.N,GND*%
X169600000Y-96775000D03*
%TD*%
D34*
%TO.P,R6,1*%
%TO.N,GND*%
X159190000Y-92950000D03*
%TO.P,R6,2*%
%TO.N,/Connector/POWER_VBUS*%
X160210000Y-92950000D03*
%TD*%
D18*
%TO.P,D4,1,K*%
%TO.N,/IP2368 Buck-Boost-Converter/BST1*%
X175450000Y-101100000D03*
%TO.P,D4,2,A*%
%TO.N,+5V*%
X175450000Y-103300000D03*
%TD*%
D34*
%TO.P,R4,1*%
%TO.N,/IP2368 Buck-Boost-Converter/CSN2*%
X179315000Y-99620000D03*
%TO.P,R4,2*%
%TO.N,/IP2368 Buck-Boost-Converter/HB_BAT*%
X180335000Y-99620000D03*
%TD*%
%TO.P,R19,1*%
%TO.N,GND*%
X191890000Y-107675000D03*
%TO.P,R19,2*%
%TO.N,/Battery Interface/~{BAT_DISCONNECT}*%
X192910000Y-107675000D03*
%TD*%
D17*
%TO.P,C4,1*%
%TO.N,/IP2368 Buck-Boost-Converter/CSN2*%
X179345000Y-98650000D03*
%TO.P,C4,2*%
%TO.N,/IP2368 Buck-Boost-Converter/BAT*%
X180305000Y-98650000D03*
%TD*%
D35*
%TO.P,U3,1,VOUT*%
%TO.N,+3.3V*%
X169010000Y-99525000D03*
D36*
%TO.P,U3,2,GND*%
%TO.N,GND*%
X169010000Y-100175000D03*
D37*
%TO.P,U3,3,EN*%
%TO.N,+5V*%
X170090000Y-100175000D03*
D38*
%TO.P,U3,4,VIN*%
X170090000Y-99525000D03*
D39*
%TO.P,U3,5,SGND*%
%TO.N,GND*%
X169550000Y-99850000D03*
%TD*%
D33*
%TO.P,R12,1*%
%TO.N,/IP2368 Buck-Boost-Converter/NTC*%
X178720000Y-90105000D03*
%TO.P,R12,2*%
%TO.N,GND*%
X178720000Y-89085000D03*
%TD*%
D15*
%TO.P,C12,1*%
%TO.N,/IP2368 Buck-Boost-Converter/CSP1*%
X165800000Y-107000000D03*
%TO.P,C12,2*%
%TO.N,GND*%
X160700000Y-107000000D03*
%TD*%
D13*
%TO.P,R16,1*%
%TO.N,GND*%
X165450000Y-89190000D03*
%TO.P,R16,2*%
%TO.N,/IP2368 Buck-Boost-Converter/HLED*%
X165450000Y-90210000D03*
%TD*%
D16*
%TO.P,D9,1,A1*%
%TO.N,/Connector/PORT1_D-*%
X157850000Y-99800000D03*
%TO.P,D9,2,A2*%
%TO.N,GND*%
X158550000Y-99800000D03*
%TD*%
D13*
%TO.P,R27,1*%
%TO.N,+3.3V*%
X180300000Y-102240000D03*
%TO.P,R27,2*%
%TO.N,Net-(U4-ALERT)*%
X180300000Y-103260000D03*
%TD*%
D28*
%TO.P,C9,1*%
%TO.N,/IP2368 Buck-Boost-Converter/HLED*%
X164500000Y-90180000D03*
%TO.P,C9,2*%
%TO.N,GND*%
X164500000Y-89220000D03*
%TD*%
D14*
%TO.P,C8,1*%
%TO.N,/IP2368 Buck-Boost-Converter/CSP1*%
X168500000Y-108700000D03*
%TO.P,C8,2*%
%TO.N,GND*%
X168500000Y-110600000D03*
%TD*%
%TO.P,C15,1*%
%TO.N,/IP2368 Buck-Boost-Converter/CSP1*%
X172300000Y-108700000D03*
%TO.P,C15,2*%
%TO.N,GND*%
X172300000Y-110600000D03*
%TD*%
D25*
%TO.P,Q6,1,S*%
%TO.N,/Connector/POWER_VBUS*%
X161800000Y-93525000D03*
X161800000Y-94175000D03*
X161800000Y-94825000D03*
%TO.P,Q6,2,G*%
%TO.N,/IP2368 Buck-Boost-Converter/VBUS_G*%
X161800000Y-95475000D03*
D26*
%TO.P,Q6,3,D*%
%TO.N,/IP2368 Buck-Boost-Converter/CSP1*%
X164725000Y-93525000D03*
X164725000Y-94175000D03*
D27*
X163650000Y-94500000D03*
D26*
X164725000Y-94825000D03*
X164725000Y-95475000D03*
%TD*%
D40*
%TO.P,C11,1*%
%TO.N,/IP2368 Buck-Boost-Converter/BAT*%
X192200000Y-95550000D03*
%TO.P,C11,2*%
%TO.N,GND*%
X192200000Y-90450000D03*
%TD*%
D11*
%TO.P,C25,1*%
%TO.N,+5V*%
X170900000Y-99367500D03*
%TO.P,C25,2*%
%TO.N,GND*%
X170900000Y-100327500D03*
%TD*%
D13*
%TO.P,R22,1*%
%TO.N,+3.3V*%
X175400000Y-89090000D03*
%TO.P,R22,2*%
%TO.N,/Battery Interface/I^{2}C_SDA*%
X175400000Y-90110000D03*
%TD*%
D29*
%TO.P,C20,1*%
%TO.N,/IP2368 Buck-Boost-Converter/BAT*%
X193950000Y-98850000D03*
%TO.P,C20,2*%
%TO.N,GND*%
X192050000Y-98850000D03*
%TD*%
D41*
%TO.P,F1,1*%
%TO.N,/Battery Interface/VBAT*%
X198750000Y-93950000D03*
%TO.P,F1,2*%
%TO.N,Net-(J1-Pin_1)*%
X198750000Y-96750000D03*
%TD*%
D42*
%TO.P,J7,1,Pin_1*%
%TO.N,GND*%
X167175000Y-103500000D03*
X169250000Y-101425000D03*
X169250000Y-105575000D03*
D43*
X171325000Y-103500000D03*
%TD*%
D44*
%TO.P,J2,A1,GND*%
%TO.N,GND*%
X156070000Y-96750000D03*
%TO.P,J2,A4,VBUS*%
%TO.N,/Connector/POWER_VBUS*%
X156070000Y-97550000D03*
D45*
%TO.P,J2,A5,CC1*%
%TO.N,/Connector/PORT1_CC1*%
X156070000Y-98750000D03*
%TO.P,J2,A6,D+*%
%TO.N,/Connector/PORT1_D+*%
X156070000Y-99750000D03*
%TO.P,J2,A7,D-*%
%TO.N,/Connector/PORT1_D-*%
X156070000Y-100250000D03*
%TO.P,J2,A8,SBU1*%
%TO.N,unconnected-(J2-SBU1-PadA8)*%
X156070000Y-101250000D03*
D44*
%TO.P,J2,A9,VBUS*%
%TO.N,/Connector/POWER_VBUS*%
X156070000Y-102450000D03*
%TO.P,J2,A12,GND*%
%TO.N,GND*%
X156070000Y-103250000D03*
%TO.P,J2,B1,GND*%
X156070000Y-103250000D03*
%TO.P,J2,B4,VBUS*%
%TO.N,/Connector/POWER_VBUS*%
X156070000Y-102450000D03*
D45*
%TO.P,J2,B5,CC2*%
%TO.N,/Connector/PORT1_CC2*%
X156070000Y-101750000D03*
%TO.P,J2,B6,D+*%
%TO.N,/Connector/PORT1_D+*%
X156070000Y-100750000D03*
%TO.P,J2,B7,D-*%
%TO.N,/Connector/PORT1_D-*%
X156070000Y-99250000D03*
%TO.P,J2,B8,SBU2*%
%TO.N,unconnected-(J2-SBU2-PadB8)*%
X156070000Y-98250000D03*
D44*
%TO.P,J2,B9,VBUS*%
%TO.N,/Connector/POWER_VBUS*%
X156070000Y-97550000D03*
%TO.P,J2,B12,GND*%
%TO.N,GND*%
X156070000Y-96750000D03*
D46*
%TO.P,J2,S1,SHIELD*%
X155155000Y-95680000D03*
D47*
X150975000Y-95680000D03*
D46*
X155155000Y-104320000D03*
D47*
X150975000Y-104320000D03*
%TD*%
D33*
%TO.P,R20,1*%
%TO.N,Net-(Q5-G)*%
X197000000Y-94310000D03*
%TO.P,R20,2*%
%TO.N,/Battery Interface/VBAT*%
X197000000Y-93290000D03*
%TD*%
D48*
%TO.P,U4,1,SCL*%
%TO.N,/Battery Interface/I^{2}C_SCL*%
X181350000Y-102400000D03*
%TO.P,U4,2,GND*%
%TO.N,GND*%
X181350000Y-102900000D03*
%TO.P,U4,3,ALERT*%
%TO.N,Net-(U4-ALERT)*%
X181350000Y-103400000D03*
%TO.P,U4,4,ADD0*%
%TO.N,Net-(R25-C)*%
X182850000Y-103400000D03*
%TO.P,U4,5,V+*%
%TO.N,+3.3V*%
X182850000Y-102900000D03*
%TO.P,U4,6,SDA*%
%TO.N,/Battery Interface/I^{2}C_SDA*%
X182850000Y-102400000D03*
%TD*%
D13*
%TO.P,R21,1*%
%TO.N,+3.3V*%
X174450000Y-89090000D03*
%TO.P,R21,2*%
%TO.N,/Battery Interface/I^{2}C_SCL*%
X174450000Y-90110000D03*
%TD*%
D18*
%TO.P,D2,1,K*%
%TO.N,/IP2368 Buck-Boost-Converter/BST2*%
X179050000Y-101100000D03*
%TO.P,D2,2,A*%
%TO.N,GND*%
X179050000Y-103300000D03*
%TD*%
D24*
%TO.P,R18,1*%
%TO.N,Net-(C23-Pad2)*%
X188810000Y-103500000D03*
%TO.P,R18,2*%
%TO.N,/IP2368 Buck-Boost-Converter/HB2*%
X187790000Y-103500000D03*
%TD*%
D13*
%TO.P,R14,1*%
%TO.N,Net-(Q2A-DN)*%
X170625000Y-89190000D03*
%TO.P,R14,2*%
%TO.N,/IP2368 Buck-Boost-Converter/VCONN_SUPPLY*%
X170625000Y-90210000D03*
%TD*%
D20*
%TO.P,C23,1*%
%TO.N,GND*%
X190630000Y-103500000D03*
%TO.P,C23,2*%
%TO.N,Net-(C23-Pad2)*%
X189670000Y-103500000D03*
%TD*%
D30*
%TO.P,J3,1,Pin_1*%
%TO.N,GND*%
X156230000Y-90850000D03*
X157396726Y-91333274D03*
X155063274Y-91333274D03*
X157880000Y-92500000D03*
D31*
X156230000Y-92500000D03*
D30*
X154580000Y-92500000D03*
X157396726Y-93666726D03*
X155063274Y-93666726D03*
X156230000Y-94150000D03*
%TD*%
D11*
%TO.P,C27,1*%
%TO.N,+3.3V*%
X183900000Y-102420000D03*
%TO.P,C27,2*%
%TO.N,GND*%
X183900000Y-103380000D03*
%TD*%
D40*
%TO.P,C13,1*%
%TO.N,/IP2368 Buck-Boost-Converter/BAT*%
X185250000Y-95550000D03*
%TO.P,C13,2*%
%TO.N,GND*%
X185250000Y-90450000D03*
%TD*%
D49*
%TO.P,Q13,1,G1*%
%TO.N,/IP2368 Buck-Boost-Converter/HG2*%
X190009995Y-108605004D03*
D50*
%TO.P,Q13,2,D1*%
%TO.N,/IP2368 Buck-Boost-Converter/HB_BAT*%
X188960008Y-106705004D03*
D49*
%TO.P,Q13,3,S2*%
%TO.N,GND*%
X184090005Y-104794996D03*
%TO.P,Q13,4,S2*%
X184090005Y-106064999D03*
%TO.P,Q13,5,S2*%
X184090005Y-107335001D03*
%TO.P,Q13,6,G2*%
%TO.N,/IP2368 Buck-Boost-Converter/LG2*%
X184090005Y-108605004D03*
D51*
%TO.P,Q13,7,S1/D2*%
%TO.N,/IP2368 Buck-Boost-Converter/HB2*%
X186490056Y-106700000D03*
%TD*%
D49*
%TO.P,Q12,1,G1*%
%TO.N,/IP2368 Buck-Boost-Converter/HG1*%
X176555005Y-104794996D03*
D52*
%TO.P,Q12,2,D1*%
%TO.N,/IP2368 Buck-Boost-Converter/HB_IN*%
X177604992Y-106694996D03*
D49*
%TO.P,Q12,3,S2*%
%TO.N,GND*%
X182474995Y-108605004D03*
%TO.P,Q12,4,S2*%
X182474995Y-107335001D03*
%TO.P,Q12,5,S2*%
X182474995Y-106064999D03*
%TO.P,Q12,6,G2*%
%TO.N,/IP2368 Buck-Boost-Converter/LG1*%
X182474995Y-104794996D03*
D51*
%TO.P,Q12,7,S1/D2*%
%TO.N,/IP2368 Buck-Boost-Converter/HB1*%
X180074944Y-106700000D03*
%TD*%
D33*
%TO.P,R24,1*%
%TO.N,Net-(Q3-D)*%
X197000000Y-96160000D03*
%TO.P,R24,2*%
%TO.N,Net-(Q5-G)*%
X197000000Y-95140000D03*
%TD*%
D19*
%TO.P,Q1,1,GN*%
%TO.N,/IP2368 Buck-Boost-Converter/HLED*%
X162137500Y-91300000D03*
%TO.P,Q1,2,SP*%
%TO.N,/IP2368 Buck-Boost-Converter/VCONN_SUPPLY*%
X162137500Y-90350000D03*
%TO.P,Q1,3,GP*%
%TO.N,Net-(Q1A-DN)*%
X162137500Y-89400000D03*
%TO.P,Q1,4,DP*%
%TO.N,/Connector/PORT1_CC1*%
X159862500Y-89400000D03*
%TO.P,Q1,5,SN*%
%TO.N,GND*%
X159862500Y-90350000D03*
%TO.P,Q1,6,DN*%
%TO.N,Net-(Q1A-DN)*%
X159862500Y-91300000D03*
%TD*%
D42*
%TO.P,J4,1,Pin_1*%
%TO.N,GND*%
X186425000Y-100000000D03*
X188500000Y-97925000D03*
X188500000Y-102075000D03*
D43*
X190575000Y-100000000D03*
%TD*%
D13*
%TO.P,R25,1,A*%
%TO.N,GND*%
X168200000Y-96480000D03*
%TO.P,R25,2,C*%
%TO.N,Net-(R25-C)*%
X168200000Y-97500000D03*
%TO.P,R25,3,B*%
%TO.N,+3.3V*%
X168200000Y-98515000D03*
%TD*%
D53*
%TO.P,J5,1,Pin_1*%
%TO.N,GND*%
X195025000Y-109200000D03*
%TO.P,J5,2,Pin_2*%
%TO.N,/Battery Interface/I^{2}C_INT*%
X195025000Y-108200000D03*
%TO.P,J5,3,Pin_3*%
%TO.N,/Battery Interface/I^{2}C_SDA*%
X195025000Y-107200000D03*
%TO.P,J5,4,Pin_4*%
%TO.N,/Battery Interface/I^{2}C_SCL*%
X195025000Y-106200000D03*
%TO.P,J5,5,Pin_5*%
%TO.N,+3.3V*%
X195025000Y-105200000D03*
%TO.P,J5,6,Pin_6*%
%TO.N,/Battery Interface/~{BAT_DISCONNECT}*%
X195025000Y-104200000D03*
D54*
%TO.P,J5,MP,MountPin*%
%TO.N,GND*%
X198900000Y-110500000D03*
X198900000Y-102900000D03*
%TD*%
D55*
%TO.P,U2,1,GND*%
%TO.N,GND*%
X181750000Y-100900000D03*
D56*
%TO.P,U2,2,VI*%
%TO.N,/IP2368 Buck-Boost-Converter/BAT*%
X183250000Y-100812500D03*
D55*
%TO.P,U2,3,VO*%
%TO.N,+5V*%
X184750000Y-100900000D03*
%TD*%
D28*
%TO.P,C6,1*%
%TO.N,/IP2368 Buck-Boost-Converter/VCC_5V*%
X179750000Y-96105000D03*
%TO.P,C6,2*%
%TO.N,GND*%
X179750000Y-95145000D03*
%TD*%
D30*
%TO.P,J6,1,Pin_1*%
%TO.N,GND*%
X156230000Y-109150000D03*
X155063274Y-108666726D03*
X157396726Y-108666726D03*
X154580000Y-107500000D03*
D31*
X156230000Y-107500000D03*
D30*
X157880000Y-107500000D03*
X155063274Y-106333274D03*
X157396726Y-106333274D03*
X156230000Y-105850000D03*
%TD*%
D57*
%TO.P,C24,1*%
%TO.N,+5V*%
X185075000Y-103250000D03*
%TO.P,C24,2*%
%TO.N,GND*%
X186625000Y-103250000D03*
%TD*%
D24*
%TO.P,R11,1*%
%TO.N,GND*%
X181050000Y-92225000D03*
%TO.P,R11,2*%
%TO.N,/IP2368 Buck-Boost-Converter/F_CAP*%
X180030000Y-92225000D03*
%TD*%
%TO.P,R9,1*%
%TO.N,GND*%
X181050000Y-91275000D03*
%TO.P,R9,2*%
%TO.N,/IP2368 Buck-Boost-Converter/V_SET*%
X180030000Y-91275000D03*
%TD*%
D58*
%TO.P,Q3,1,G*%
%TO.N,/Battery Interface/~{BAT_DISCONNECT}*%
X193050000Y-108750000D03*
%TO.P,Q3,2,S*%
%TO.N,GND*%
X191750000Y-108750000D03*
%TO.P,Q3,3,D*%
%TO.N,Net-(Q3-D)*%
X192400000Y-110750000D03*
%TD*%
D59*
%TO.P,R2,1*%
%TO.N,/IP2368 Buck-Boost-Converter/HB_BAT*%
X192300000Y-105862500D03*
%TO.P,R2,2*%
%TO.N,/IP2368 Buck-Boost-Converter/BAT*%
X192300000Y-102937500D03*
%TD*%
D60*
%TO.P,D1,1,K*%
%TO.N,/Connector/POWER_VBUS*%
X158200000Y-97225000D03*
%TO.P,D1,2,A*%
%TO.N,GND*%
X158200000Y-95975000D03*
%TD*%
D24*
%TO.P,R5,1*%
%TO.N,GND*%
X181050000Y-90325000D03*
%TO.P,R5,2*%
%TO.N,/IP2368 Buck-Boost-Converter/I_SET*%
X180030000Y-90325000D03*
%TD*%
D61*
%TO.P,L1,1*%
%TO.N,/IP2368 Buck-Boost-Converter/HB2*%
X187100000Y-110500000D03*
%TO.P,L1,2*%
%TO.N,/IP2368 Buck-Boost-Converter/HB1*%
X177100000Y-110500000D03*
%TD*%
D62*
%TO.N,GND*%
X163500000Y-110500000D03*
X189000000Y-91500000D03*
X152500000Y-101500000D03*
X177000000Y-96000000D03*
X173000000Y-95000000D03*
X159000000Y-110500000D03*
X151500000Y-92500000D03*
X190275352Y-98975000D03*
X162000000Y-109000000D03*
X183000000Y-94500000D03*
X169250000Y-101450000D03*
X175000000Y-97000000D03*
X192200000Y-91600000D03*
X152500000Y-98500000D03*
X189525000Y-101775352D03*
X160500000Y-101500000D03*
D63*
X195025000Y-109200000D03*
D62*
X182200000Y-107025000D03*
X182933333Y-105700000D03*
X151500000Y-94000000D03*
X157500000Y-89500000D03*
X153000000Y-92500000D03*
X159000000Y-104500000D03*
X181100000Y-99600000D03*
D63*
X169550000Y-99850000D03*
D62*
X177000000Y-94000000D03*
X181500000Y-90000000D03*
X199500000Y-110500000D03*
X172500000Y-89190000D03*
X180400000Y-89200000D03*
X151500000Y-109000000D03*
X173000000Y-94000000D03*
X161850000Y-100100000D03*
X153000000Y-110500000D03*
X189000000Y-90000000D03*
X173000000Y-96000000D03*
X186000000Y-90000000D03*
X185800000Y-98800000D03*
X153000000Y-95500000D03*
X177000000Y-97000000D03*
X151000000Y-100000000D03*
X154500000Y-110500000D03*
X152500000Y-100000000D03*
X152500000Y-103000000D03*
X171025352Y-102475000D03*
X151500000Y-107500000D03*
X171000000Y-110500000D03*
X185250000Y-91600000D03*
X178800000Y-89200000D03*
X175000000Y-95000000D03*
X166500000Y-110500000D03*
X159500000Y-107000000D03*
X157750000Y-95000000D03*
X181500000Y-94500000D03*
D63*
X169850000Y-92275000D03*
D62*
X181100000Y-98800000D03*
X151000000Y-101500000D03*
X183000000Y-90000000D03*
X151000000Y-97000000D03*
X192200000Y-89200000D03*
X185800000Y-99600000D03*
X153000000Y-107500000D03*
X153000000Y-89500000D03*
X181500000Y-93000000D03*
X186000000Y-91500000D03*
X159000000Y-106000000D03*
X182933333Y-106350000D03*
X182200000Y-106350000D03*
X181100000Y-98000000D03*
X174000000Y-94000000D03*
X154500000Y-89500000D03*
X182200000Y-107700000D03*
X152500000Y-97000000D03*
X187500000Y-90000000D03*
X169250000Y-105550000D03*
X192200000Y-90000000D03*
X183666666Y-107025000D03*
X174000000Y-93000000D03*
X199500000Y-102900000D03*
X181900000Y-99600000D03*
X175000000Y-93000000D03*
X188500000Y-102050000D03*
X190550000Y-100000000D03*
X182933333Y-107025000D03*
X190275352Y-101025000D03*
X173000000Y-93000000D03*
X181900000Y-100400000D03*
X151500000Y-91000000D03*
X185250000Y-90800000D03*
X185250000Y-89200000D03*
X190500000Y-90000000D03*
X167474648Y-102475000D03*
X184500000Y-90000000D03*
X186724648Y-98975000D03*
X151500000Y-106000000D03*
X160300000Y-107000000D03*
X175000000Y-94000000D03*
D63*
X168675000Y-100275000D03*
D62*
X161100000Y-107000000D03*
X160500000Y-110500000D03*
X183666666Y-107700000D03*
X183666666Y-105700000D03*
X153000000Y-104500000D03*
X181900000Y-98000000D03*
X183000000Y-91500000D03*
X176000000Y-96000000D03*
X198300000Y-102900000D03*
X162000000Y-106000000D03*
X157500000Y-104500000D03*
X162000000Y-101500000D03*
X174000000Y-96000000D03*
X165000000Y-110500000D03*
X160500000Y-104500000D03*
X171300000Y-103500000D03*
X173000000Y-97000000D03*
X181500000Y-91500000D03*
X157500000Y-110500000D03*
X174000000Y-95000000D03*
X176000000Y-97000000D03*
X176000000Y-94000000D03*
X182925000Y-108375000D03*
X160900000Y-99300000D03*
D63*
X168075000Y-100275000D03*
D62*
X182933333Y-107700000D03*
X182200000Y-105700000D03*
X158500000Y-95000000D03*
X181100000Y-100400000D03*
X160500000Y-103000000D03*
X151500000Y-110500000D03*
X157000000Y-95000000D03*
D63*
X169350000Y-96775000D03*
D62*
X181900000Y-98800000D03*
X158500000Y-95750000D03*
X198300000Y-110500000D03*
X162000000Y-110500000D03*
X153000000Y-94000000D03*
X187475000Y-98224648D03*
X170275000Y-105275352D03*
X168000000Y-110500000D03*
X176000000Y-93000000D03*
X162000000Y-103000000D03*
X177000000Y-95000000D03*
X185000000Y-98000000D03*
X186724648Y-101025000D03*
X177000000Y-93000000D03*
X153000000Y-91000000D03*
X187475000Y-101775352D03*
X159000000Y-109000000D03*
X183666666Y-106350000D03*
X157750000Y-95750000D03*
X172500000Y-110500000D03*
X185250000Y-90000000D03*
X174000000Y-97000000D03*
X159000000Y-101500000D03*
X168225000Y-105275352D03*
X168225000Y-101724648D03*
X192200000Y-99300000D03*
X192200000Y-101200000D03*
X156000000Y-110500000D03*
X166962500Y-90350000D03*
X185800000Y-98000000D03*
X192200000Y-98400000D03*
X185000000Y-98800000D03*
D63*
X169850000Y-96775000D03*
D62*
X189525000Y-98224648D03*
X167474648Y-104525000D03*
X160500000Y-109000000D03*
X158800000Y-98850000D03*
X160500000Y-106000000D03*
X162000000Y-104500000D03*
X175000000Y-96000000D03*
X176000000Y-95000000D03*
X192200000Y-100300000D03*
X183666666Y-105050000D03*
X167200000Y-103500000D03*
X187500000Y-91500000D03*
X192200000Y-90800000D03*
X153000000Y-106000000D03*
X185000000Y-99600000D03*
X177800000Y-89200000D03*
X159000000Y-103000000D03*
X151000000Y-103000000D03*
D63*
X170900000Y-100450000D03*
D62*
X179050000Y-103300000D03*
X173650000Y-103300000D03*
X188500000Y-97950000D03*
X151000000Y-98500000D03*
X191750000Y-108750000D03*
X184500000Y-91500000D03*
X151500000Y-89500000D03*
X161900000Y-107000000D03*
X183000000Y-93000000D03*
X182850000Y-110850000D03*
X157000000Y-95750000D03*
X169500000Y-110500000D03*
X161050000Y-100100000D03*
X158500000Y-94250000D03*
X182191666Y-108375000D03*
X160250000Y-100100000D03*
X186450000Y-100000000D03*
X190500000Y-91500000D03*
X171025352Y-104525000D03*
X156000000Y-89500000D03*
X153000000Y-109000000D03*
X170275000Y-101724648D03*
%TO.N,Net-(J1-Pin_1)*%
X198100000Y-96400000D03*
X198100000Y-97050000D03*
X199400000Y-96400000D03*
X198750000Y-97700000D03*
X198750000Y-97050000D03*
X199400000Y-97050000D03*
X199400000Y-97700000D03*
X199400000Y-98350000D03*
X198750000Y-96400000D03*
%TO.N,/IP2368 Buck-Boost-Converter/HB2*%
X186750000Y-107000000D03*
X186750000Y-108500000D03*
X186000000Y-104750000D03*
X187500000Y-104750000D03*
X185250000Y-107750000D03*
X186750000Y-107750000D03*
X186000000Y-107000000D03*
X186000000Y-106250000D03*
X186750000Y-105500000D03*
X186000000Y-105500000D03*
X187500000Y-107750000D03*
X187500000Y-107000000D03*
X187500000Y-106250000D03*
X186000000Y-108500000D03*
X185250000Y-108500000D03*
X186750000Y-104750000D03*
D63*
X176220000Y-99800000D03*
D62*
X185250000Y-105500000D03*
X187500000Y-108500000D03*
X185250000Y-106250000D03*
X185250000Y-104750000D03*
X187500000Y-105500000D03*
X186750000Y-106250000D03*
X186000000Y-107750000D03*
X185250000Y-107000000D03*
%TO.N,/IP2368 Buck-Boost-Converter/HB1*%
X179000000Y-109250000D03*
X181250000Y-104750000D03*
X179750000Y-107000000D03*
X181250000Y-106250000D03*
X179000000Y-107750000D03*
X181250000Y-107000000D03*
X179000000Y-107000000D03*
X179750000Y-107750000D03*
X180500000Y-109250000D03*
X180500000Y-107000000D03*
X179750000Y-106250000D03*
X179000000Y-104750000D03*
X180500000Y-105500000D03*
X179750000Y-104750000D03*
X179750000Y-108500000D03*
D63*
X174980000Y-99800000D03*
D62*
X180500000Y-107750000D03*
X180500000Y-104750000D03*
X181250000Y-105500000D03*
X179750000Y-109250000D03*
X179000000Y-106250000D03*
X181250000Y-108500000D03*
X179000000Y-105500000D03*
X180500000Y-108500000D03*
X180500000Y-106250000D03*
X181250000Y-107750000D03*
X179000000Y-108500000D03*
X179750000Y-105500000D03*
D63*
%TO.N,/Battery Interface/I^{2}C_INT*%
X195025000Y-108200000D03*
X170600000Y-93510000D03*
%TO.N,+5V*%
X185300000Y-103500000D03*
X184750000Y-102700000D03*
X184750000Y-103500000D03*
X168075000Y-95175000D03*
D62*
X177250000Y-103300000D03*
X175450000Y-103300000D03*
D63*
X168075000Y-94675000D03*
X171000000Y-99150000D03*
X168575000Y-94675000D03*
X168575000Y-95175000D03*
X185300000Y-102700000D03*
X171000000Y-99600000D03*
X185025000Y-103100000D03*
%TO.N,/IP2368 Buck-Boost-Converter/HLED*%
X170600000Y-94275000D03*
X165450000Y-90210000D03*
%TO.N,/Connector/PORT1_D+*%
X157875000Y-100800000D03*
X176725000Y-89825000D03*
D62*
%TO.N,/Connector/PORT1_CC2*%
X166962500Y-89550000D03*
D63*
X157850000Y-101800000D03*
X177175000Y-90950000D03*
%TO.N,/Connector/PORT1_CC1*%
X157850000Y-98800000D03*
X175675000Y-90950000D03*
D62*
X159862500Y-89400000D03*
%TO.N,/IP2368 Buck-Boost-Converter/HB_IN*%
X176500000Y-105750000D03*
X175000000Y-108750000D03*
X175000000Y-108000000D03*
X175750000Y-105750000D03*
X175750000Y-106500000D03*
X176500000Y-107250000D03*
X175750000Y-108000000D03*
X178000000Y-108750000D03*
X178000000Y-108000000D03*
X176500000Y-108000000D03*
X175000000Y-106500000D03*
X175750000Y-108750000D03*
X176500000Y-108750000D03*
D63*
X173175000Y-98900000D03*
D62*
X177250000Y-108750000D03*
X175750000Y-107250000D03*
X177250000Y-108000000D03*
X178000000Y-107250000D03*
X176500000Y-106500000D03*
X177250000Y-106500000D03*
X177250000Y-105750000D03*
X175000000Y-107250000D03*
X178000000Y-105000000D03*
X178000000Y-105750000D03*
X175000000Y-105750000D03*
X178000000Y-106500000D03*
X177250000Y-107250000D03*
D63*
%TO.N,/IP2368 Buck-Boost-Converter/LG2*%
X175680000Y-98895000D03*
D62*
X184090005Y-108605004D03*
%TO.N,/IP2368 Buck-Boost-Converter/HB_BAT*%
X190250000Y-107000000D03*
D63*
X192300000Y-104600000D03*
D62*
X190250000Y-104750000D03*
X188750000Y-106250000D03*
X188750000Y-107750000D03*
X189500000Y-104750000D03*
X189500000Y-107000000D03*
X188750000Y-105500000D03*
X188750000Y-104750000D03*
D63*
X180335000Y-99620000D03*
D62*
X189500000Y-106250000D03*
X190250000Y-106250000D03*
D63*
X177800000Y-98900000D03*
D62*
X190250000Y-105500000D03*
X188750000Y-107000000D03*
X189500000Y-105500000D03*
D63*
%TO.N,/IP2368 Buck-Boost-Converter/HG2*%
X177200000Y-98900000D03*
D62*
X190009995Y-108605004D03*
D63*
%TO.N,/Connector/PORT1_D-*%
X157850000Y-99800000D03*
X176125000Y-89814070D03*
D62*
%TO.N,/Connector/POWER_VBUS*%
X158925000Y-96825000D03*
X153500000Y-98000000D03*
X160900000Y-96300000D03*
X154500000Y-100000000D03*
X161150000Y-93150000D03*
X161150000Y-93850000D03*
X160900000Y-97000000D03*
X157575000Y-97525000D03*
X158925000Y-97525000D03*
X158250000Y-96825000D03*
X160900000Y-95600000D03*
X159600000Y-95250000D03*
X159600000Y-96650000D03*
X160450000Y-93850000D03*
X160275000Y-97350000D03*
X159750000Y-93850000D03*
X154500000Y-99000000D03*
X153500000Y-100000000D03*
X154500000Y-101000000D03*
X161150000Y-94550000D03*
X153500000Y-99000000D03*
X159600000Y-97350000D03*
X154750000Y-102000000D03*
X153500000Y-102000000D03*
X159600000Y-95950000D03*
X160275000Y-95950000D03*
X160450000Y-93150000D03*
X160275000Y-96650000D03*
X159750000Y-94550000D03*
X158250000Y-97525000D03*
X160275000Y-95250000D03*
X153500000Y-101000000D03*
X160450000Y-94550000D03*
X154750000Y-98000000D03*
%TO.N,/Battery Interface/VBAT*%
X199500000Y-94075000D03*
X198825000Y-92050000D03*
X198150000Y-94075000D03*
X198825000Y-94075000D03*
X199500000Y-92725000D03*
X199500000Y-92050000D03*
X199500000Y-90700000D03*
X198150000Y-93400000D03*
X198825000Y-91375000D03*
X198825000Y-93400000D03*
X199500000Y-93400000D03*
X198825000Y-92725000D03*
X198825000Y-90700000D03*
X199500000Y-91375000D03*
%TO.N,+3.3V*%
X174450000Y-89090000D03*
D63*
X180300000Y-102240000D03*
X195650000Y-105200000D03*
X183900000Y-102625000D03*
X168200000Y-99367500D03*
D62*
%TO.N,/IP2368 Buck-Boost-Converter/BAT*%
X192000000Y-93500000D03*
X193500000Y-98500000D03*
X194900000Y-92000000D03*
X193500000Y-100750000D03*
X194250000Y-100750000D03*
X197975000Y-90950000D03*
X193500000Y-95000000D03*
X196025000Y-89650000D03*
X193500000Y-97750000D03*
X194900000Y-90500000D03*
X196675000Y-89650000D03*
X187500000Y-95000000D03*
X193500000Y-96500000D03*
X197325000Y-90950000D03*
X193500000Y-89000000D03*
X194250000Y-97750000D03*
X192750000Y-102250000D03*
X197325000Y-92250000D03*
X192200000Y-94400000D03*
X196025000Y-92250000D03*
X196025000Y-90950000D03*
X192200000Y-95200000D03*
X193500000Y-102250000D03*
X194250000Y-102250000D03*
X194250000Y-101500000D03*
D63*
X192300000Y-103900000D03*
D62*
X197975000Y-89650000D03*
X196025000Y-90300000D03*
X195000000Y-96500000D03*
X192200000Y-96800000D03*
X186000000Y-95000000D03*
X189000000Y-96500000D03*
X185250000Y-96800000D03*
X195000000Y-103000000D03*
X192000000Y-102250000D03*
X195000000Y-95000000D03*
X196675000Y-90300000D03*
X194900000Y-89000000D03*
X197325000Y-89650000D03*
X187500000Y-96500000D03*
X189000000Y-93500000D03*
X197975000Y-91600000D03*
X187500000Y-93500000D03*
X189000000Y-95000000D03*
X195000000Y-93500000D03*
X192200000Y-96000000D03*
X194250000Y-99250000D03*
X186000000Y-96500000D03*
X190500000Y-93500000D03*
X193500000Y-92000000D03*
X193500000Y-93500000D03*
X194250000Y-103000000D03*
X196025000Y-91600000D03*
X197325000Y-90300000D03*
X197975000Y-90300000D03*
X193500000Y-103000000D03*
X196675000Y-92250000D03*
X190500000Y-95000000D03*
X195000000Y-102250000D03*
X192750000Y-103000000D03*
D63*
X180305000Y-98650000D03*
D62*
X194250000Y-98500000D03*
X193500000Y-99250000D03*
X194250000Y-100000000D03*
X197975000Y-92250000D03*
X185250000Y-94400000D03*
X193500000Y-90500000D03*
X190500000Y-96500000D03*
X197325000Y-91600000D03*
X186000000Y-93500000D03*
X193500000Y-101500000D03*
X185250000Y-95200000D03*
X185250000Y-96000000D03*
X196675000Y-90950000D03*
X196675000Y-91600000D03*
X193500000Y-100000000D03*
D63*
%TO.N,/IP2368 Buck-Boost-Converter/VBUS_G*%
X170050000Y-95425000D03*
D62*
X161800000Y-95550000D03*
%TO.N,Net-(Q3-D)*%
X197000000Y-96160000D03*
X192400000Y-110750000D03*
%TO.N,Net-(Q5-G)*%
X197000000Y-94310000D03*
X199150000Y-89850000D03*
%TO.N,/IP2368 Buck-Boost-Converter/CSP1*%
X166200000Y-94800000D03*
X163500000Y-101750000D03*
X165500000Y-108750000D03*
X164500000Y-101750000D03*
X163500000Y-99750000D03*
X163500000Y-106750000D03*
X165675000Y-93400000D03*
X165500000Y-103750000D03*
X164100000Y-95500000D03*
X164800000Y-96200000D03*
X163500000Y-103750000D03*
X164500000Y-108750000D03*
X166250000Y-100100000D03*
X167690000Y-106300000D03*
X164500000Y-105750000D03*
X163400000Y-96200000D03*
X162700000Y-96200000D03*
X168500000Y-108750000D03*
X167100000Y-107000000D03*
X162700000Y-93400000D03*
X167275000Y-96225000D03*
X163500000Y-104750000D03*
X166500000Y-105750000D03*
X162700000Y-95500000D03*
X166300000Y-107000000D03*
X163500000Y-107750000D03*
X165500000Y-95500000D03*
X167500000Y-108750000D03*
X170820000Y-106300000D03*
X172500000Y-108750000D03*
X165500000Y-98750000D03*
X164650000Y-100100000D03*
X170500000Y-107750000D03*
X163500000Y-105750000D03*
X164800000Y-94100000D03*
X164100000Y-96200000D03*
X167300000Y-98800000D03*
X162700000Y-94100000D03*
X163400000Y-94800000D03*
X165500000Y-102750000D03*
X169500000Y-107750000D03*
X166900000Y-97900000D03*
X163400000Y-94100000D03*
X163900000Y-97900000D03*
X172375000Y-105725000D03*
X165500000Y-107000000D03*
X164100000Y-93400000D03*
X164900000Y-97900000D03*
D63*
X169350000Y-98350000D03*
X169850000Y-98350000D03*
D62*
X166500000Y-101750000D03*
X167050000Y-100100000D03*
X166500000Y-108750000D03*
X164800000Y-95500000D03*
X164500000Y-103750000D03*
X165500000Y-105750000D03*
X162900000Y-97900000D03*
X164100000Y-94100000D03*
X169500000Y-108750000D03*
X162700000Y-94800000D03*
X171500000Y-106750000D03*
X166200000Y-96200000D03*
X165450000Y-100100000D03*
X164100000Y-94800000D03*
X166200000Y-95500000D03*
X164500000Y-102750000D03*
X171500000Y-107750000D03*
X170500000Y-108750000D03*
X163400000Y-95500000D03*
X166500000Y-94200000D03*
X165900000Y-97900000D03*
X163500000Y-102750000D03*
X164800000Y-94800000D03*
X163500000Y-98750000D03*
X165500000Y-94800000D03*
X167275000Y-95050000D03*
X168500000Y-107750000D03*
X164500000Y-104750000D03*
X166500000Y-98750000D03*
X165500000Y-101750000D03*
X165500000Y-104750000D03*
X164700000Y-107000000D03*
X163500000Y-100750000D03*
X172500000Y-107750000D03*
X165500000Y-96200000D03*
X171500000Y-108750000D03*
X165500000Y-94100000D03*
X169250000Y-106710000D03*
X164800000Y-93400000D03*
X163400000Y-93400000D03*
X164500000Y-98750000D03*
D63*
%TO.N,/Battery Interface/I^{2}C_SDA*%
X182900000Y-102300000D03*
X195025000Y-107200000D03*
D62*
X175400000Y-89850000D03*
D63*
%TO.N,/Battery Interface/I^{2}C_SCL*%
X195025000Y-106200000D03*
X181350000Y-102300000D03*
D62*
X174450000Y-90110000D03*
D63*
%TO.N,Net-(R25-C)*%
X168575000Y-97500000D03*
X182900000Y-103450000D03*
%TD*%
D64*
%TO.N,/IP2368 Buck-Boost-Converter/HLED*%
X162137500Y-91300000D02*
X163850000Y-91300000D01*
X163850000Y-91300000D02*
X164500000Y-90650000D01*
X164500000Y-90650000D02*
X164500000Y-90180000D01*
D65*
%TO.N,/IP2368 Buck-Boost-Converter/VCONN_SUPPLY*%
X168350000Y-92550000D02*
X166650000Y-92550000D01*
X161175000Y-91775000D02*
X161175000Y-90800000D01*
X166650000Y-92550000D02*
X166048000Y-91948000D01*
X161175000Y-90800000D02*
X161625000Y-90350000D01*
X166048000Y-91948000D02*
X161348000Y-91948000D01*
X161348000Y-91948000D02*
X161175000Y-91775000D01*
X161625000Y-90350000D02*
X162137500Y-90350000D01*
D66*
%TO.N,/Connector/POWER_VBUS*%
X161600000Y-93100000D02*
X162300000Y-92400000D01*
X169150000Y-93800000D02*
X170980000Y-95630000D01*
X162300000Y-92400000D02*
X165600000Y-92400000D01*
X167000000Y-93800000D02*
X169150000Y-93800000D01*
X170980000Y-95630000D02*
X171480000Y-95630000D01*
X165600000Y-92400000D02*
X167000000Y-93800000D01*
%TO.N,GND*%
X178380000Y-95130000D02*
X175180000Y-95130000D01*
D65*
X171480000Y-97130000D02*
X169930000Y-97130000D01*
D64*
X169850000Y-92490000D02*
X169850000Y-92275000D01*
D66*
X179735000Y-95130000D02*
X179750000Y-95145000D01*
X191890000Y-108610000D02*
X191750000Y-108750000D01*
X175180000Y-95130000D02*
X174930000Y-94880000D01*
D64*
X166575000Y-90350000D02*
X166962500Y-90350000D01*
D65*
X172870000Y-97130000D02*
X173000000Y-97000000D01*
D67*
X155155000Y-104320000D02*
X155155000Y-105445000D01*
D64*
X172470000Y-89220000D02*
X172500000Y-89190000D01*
D66*
X169350000Y-96525000D02*
X169350000Y-96775000D01*
X178380000Y-95130000D02*
X179735000Y-95130000D01*
X191890000Y-107550000D02*
X191890000Y-108610000D01*
D64*
X165445000Y-89220000D02*
X166575000Y-90350000D01*
X171600000Y-89220000D02*
X172470000Y-89220000D01*
D65*
X169930000Y-97130000D02*
X169900000Y-97100000D01*
D66*
X183700000Y-103400000D02*
X183700000Y-103450000D01*
D65*
X169900000Y-97100000D02*
X169900000Y-97093514D01*
D67*
X155155000Y-95680000D02*
X155155000Y-94755000D01*
D64*
X164500000Y-89220000D02*
X165445000Y-89220000D01*
D66*
X168200000Y-96480000D02*
X169305000Y-96480000D01*
D65*
X182850000Y-110830000D02*
X182850000Y-110850000D01*
D66*
X169305000Y-96480000D02*
X169350000Y-96525000D01*
D65*
X171480000Y-97130000D02*
X172870000Y-97130000D01*
D66*
%TO.N,/IP2368 Buck-Boost-Converter/BST2*%
X177180000Y-101030000D02*
X177250000Y-101100000D01*
X177250000Y-101100000D02*
X179050000Y-101100000D01*
D64*
X176680000Y-99300000D02*
X177180000Y-99800000D01*
X176680000Y-98330000D02*
X176680000Y-99300000D01*
D66*
X177180000Y-99800000D02*
X177180000Y-101030000D01*
D64*
%TO.N,/Battery Interface/~{BAT_DISCONNECT}*%
X193050000Y-107690000D02*
X193050000Y-108750000D01*
X194050000Y-104200000D02*
X193850000Y-104400000D01*
X193850000Y-106650000D02*
X193850000Y-107350000D01*
X193850000Y-106650000D02*
X193850000Y-107200000D01*
X193850000Y-107350000D02*
X193525000Y-107675000D01*
X193850000Y-104400000D02*
X193850000Y-106650000D01*
X193525000Y-107675000D02*
X192910000Y-107675000D01*
X195025000Y-104200000D02*
X194050000Y-104200000D01*
D65*
%TO.N,/IP2368 Buck-Boost-Converter/HB2*%
X187790000Y-104360000D02*
X187750000Y-104400000D01*
D64*
X176180000Y-99760000D02*
X176220000Y-99800000D01*
X176180000Y-98330000D02*
X176180000Y-99760000D01*
D65*
X187790000Y-103500000D02*
X187790000Y-104360000D01*
%TO.N,/IP2368 Buck-Boost-Converter/HB1*%
X181900000Y-110860000D02*
X180860000Y-110860000D01*
D64*
X174680000Y-98330000D02*
X174680000Y-99500000D01*
X174680000Y-99500000D02*
X174980000Y-99800000D01*
D66*
%TO.N,/IP2368 Buck-Boost-Converter/BST1*%
X174020000Y-99800000D02*
X174020000Y-100305000D01*
D64*
X174180000Y-98330000D02*
X174180000Y-99640000D01*
D66*
X174020000Y-100305000D02*
X173650000Y-100675000D01*
X173650000Y-101100000D02*
X175450000Y-101100000D01*
X173650000Y-100675000D02*
X173650000Y-101100000D01*
D64*
X174180000Y-99640000D02*
X174020000Y-99800000D01*
D66*
%TO.N,/Battery Interface/I^{2}C_INT*%
X170600000Y-93510000D02*
X170720000Y-93630000D01*
X170720000Y-93630000D02*
X171480000Y-93630000D01*
D64*
X169850000Y-93510000D02*
X170600000Y-93510000D01*
%TO.N,+5V*%
X170090000Y-100175000D02*
X170250000Y-100015000D01*
X170250000Y-100015000D02*
X170250000Y-99400000D01*
D65*
%TO.N,Net-(C22-Pad2)*%
X181900000Y-109840000D02*
X182820000Y-109840000D01*
X182820000Y-109840000D02*
X182850000Y-109870000D01*
D64*
%TO.N,Net-(Q1A-DN)*%
X162137500Y-89400000D02*
X162900000Y-89400000D01*
X163110000Y-89190000D02*
X163525000Y-89190000D01*
X162900000Y-89400000D02*
X163110000Y-89190000D01*
X160775000Y-90375000D02*
X161750000Y-89400000D01*
X160250000Y-91300000D02*
X160775000Y-90775000D01*
X161750000Y-89400000D02*
X162137500Y-89400000D01*
X160775000Y-90775000D02*
X160775000Y-90375000D01*
X159862500Y-91300000D02*
X160250000Y-91300000D01*
%TO.N,/IP2368 Buck-Boost-Converter/BAT_MODE*%
X173180000Y-90810000D02*
X172580000Y-90210000D01*
X169237500Y-91300000D02*
X170480000Y-91300000D01*
X172580000Y-90210000D02*
X172500000Y-90210000D01*
X173180000Y-91430000D02*
X173180000Y-90810000D01*
X170480000Y-91300000D02*
X171600000Y-90180000D01*
X171630000Y-90210000D02*
X171600000Y-90180000D01*
X172500000Y-90210000D02*
X171630000Y-90210000D01*
%TO.N,/IP2368 Buck-Boost-Converter/HLED*%
X170745000Y-94130000D02*
X171480000Y-94130000D01*
X170600000Y-94275000D02*
X170745000Y-94130000D01*
X165420000Y-90180000D02*
X165450000Y-90210000D01*
X164500000Y-90180000D02*
X165420000Y-90180000D01*
%TO.N,/Connector/PORT1_D+*%
X155118000Y-100668000D02*
X155200000Y-100750000D01*
X176725000Y-89825000D02*
X176655001Y-89894999D01*
X156070000Y-100750000D02*
X157800000Y-100750000D01*
X176655001Y-89894999D02*
X176655001Y-91405001D01*
X155200000Y-99750000D02*
X155118000Y-99832000D01*
X155200000Y-100750000D02*
X156070000Y-100750000D01*
X157850000Y-100800000D02*
X157875000Y-100800000D01*
X157800000Y-100750000D02*
X157850000Y-100800000D01*
X156070000Y-99750000D02*
X155200000Y-99750000D01*
X176655001Y-91405001D02*
X176680000Y-91430000D01*
X155118000Y-99832000D02*
X155118000Y-100668000D01*
%TO.N,/Connector/PORT1_CC2*%
X157800000Y-101750000D02*
X157850000Y-101800000D01*
D66*
X177180000Y-90955000D02*
X177180000Y-91430000D01*
D64*
X156070000Y-101750000D02*
X157800000Y-101750000D01*
D66*
X177175000Y-90950000D02*
X177180000Y-90955000D01*
%TO.N,/Connector/PORT1_CC1*%
X175680000Y-90955000D02*
X175680000Y-91430000D01*
D64*
X157800000Y-98750000D02*
X157850000Y-98800000D01*
X156070000Y-98750000D02*
X157800000Y-98750000D01*
D66*
X175675000Y-90950000D02*
X175680000Y-90955000D01*
%TO.N,/IP2368 Buck-Boost-Converter/HG1*%
X174525000Y-103125000D02*
X174525000Y-103575000D01*
X173680000Y-98330000D02*
X173680000Y-99170000D01*
X173680000Y-99170000D02*
X173450000Y-99400000D01*
X173450000Y-100200000D02*
X172975000Y-100675000D01*
X172975000Y-100675000D02*
X172975000Y-101575000D01*
X173450000Y-99400000D02*
X173450000Y-100200000D01*
X174525000Y-103575000D02*
X175744996Y-104794996D01*
X175744996Y-104794996D02*
X176555005Y-104794996D01*
X172975000Y-101575000D02*
X174525000Y-103125000D01*
%TO.N,/IP2368 Buck-Boost-Converter/LG1*%
X176350000Y-103450000D02*
X176850000Y-103950000D01*
X175180000Y-99080000D02*
X175600000Y-99500000D01*
X175180000Y-98330000D02*
X175180000Y-99080000D01*
X181700000Y-103950000D02*
X182474995Y-104724995D01*
X175600000Y-99500000D02*
X175600000Y-100200000D01*
X182474995Y-104724995D02*
X182474995Y-104794996D01*
X176350000Y-100950000D02*
X176350000Y-103450000D01*
X175600000Y-100200000D02*
X176350000Y-100950000D01*
X176850000Y-103950000D02*
X181700000Y-103950000D01*
%TO.N,/IP2368 Buck-Boost-Converter/HB_IN*%
X173750000Y-105450000D02*
X173850000Y-105350000D01*
X173750000Y-106725000D02*
X173750000Y-105450000D01*
X173875000Y-106850000D02*
X173750000Y-106725000D01*
X175012500Y-106850000D02*
X173875000Y-106850000D01*
X173180000Y-98895000D02*
X173175000Y-98900000D01*
X173180000Y-98330000D02*
X173180000Y-98895000D01*
%TO.N,/IP2368 Buck-Boost-Converter/LG2*%
X175680000Y-98895000D02*
X175680000Y-98330000D01*
D64*
%TO.N,/IP2368 Buck-Boost-Converter/HB_BAT*%
X192300000Y-105862500D02*
X192300000Y-104600000D01*
D66*
X177680000Y-98780000D02*
X177800000Y-98900000D01*
X177680000Y-98330000D02*
X177680000Y-98780000D01*
%TO.N,/IP2368 Buck-Boost-Converter/HG2*%
X177180000Y-98330000D02*
X177180000Y-98880000D01*
X177180000Y-98880000D02*
X177200000Y-98900000D01*
D64*
%TO.N,/Connector/PORT1_D-*%
X176204999Y-89894069D02*
X176204999Y-91405001D01*
X157150000Y-100050000D02*
X156950000Y-100250000D01*
X176125000Y-89814070D02*
X176204999Y-89894069D01*
X156950000Y-99250000D02*
X157150000Y-99450000D01*
X157850000Y-99800000D02*
X157150000Y-99800000D01*
X157150000Y-99800000D02*
X157150000Y-100050000D01*
X156950000Y-100250000D02*
X156070000Y-100250000D01*
X157150000Y-99450000D02*
X157150000Y-99800000D01*
X176204999Y-91405001D02*
X176180000Y-91430000D01*
X156070000Y-99250000D02*
X156950000Y-99250000D01*
%TO.N,/Connector/POWER_VBUS*%
X161422000Y-93578000D02*
X161150000Y-93850000D01*
D65*
%TO.N,Net-(C23-Pad2)*%
X188810000Y-103500000D02*
X189670000Y-103500000D01*
D66*
%TO.N,/Battery Interface/VBAT*%
X197000000Y-93290000D02*
X198160000Y-93290000D01*
%TO.N,+3.3V*%
X183420000Y-102900000D02*
X183900000Y-102420000D01*
X182850000Y-102900000D02*
X183420000Y-102900000D01*
D64*
X195025000Y-105200000D02*
X195650000Y-105200000D01*
D66*
X183900000Y-102420000D02*
X183900000Y-102625000D01*
D64*
X175400000Y-89090000D02*
X174450000Y-89090000D01*
X168200000Y-99367500D02*
X168200000Y-98515000D01*
%TO.N,Net-(Q2A-DN)*%
X167875000Y-90750000D02*
X167875000Y-90350000D01*
X169237500Y-89400000D02*
X170000000Y-89400000D01*
X168825000Y-89400000D02*
X169237500Y-89400000D01*
X166962500Y-91300000D02*
X167325000Y-91300000D01*
X167325000Y-91300000D02*
X167875000Y-90750000D01*
X170625000Y-89190000D02*
X170210000Y-89190000D01*
X170210000Y-89190000D02*
X170000000Y-89400000D01*
X167875000Y-90350000D02*
X168825000Y-89400000D01*
D66*
%TO.N,/IP2368 Buck-Boost-Converter/CSN2*%
X179345000Y-99590000D02*
X179315000Y-99620000D01*
X178855000Y-97630000D02*
X179345000Y-98120000D01*
X178380000Y-97630000D02*
X178855000Y-97630000D01*
X179345000Y-98650000D02*
X179345000Y-99590000D01*
X179345000Y-98120000D02*
X179345000Y-98650000D01*
%TO.N,/IP2368 Buck-Boost-Converter/CSN1*%
X172850000Y-102300000D02*
X172850000Y-103775000D01*
X172850000Y-103775000D02*
X173365000Y-104290000D01*
X172680000Y-98330000D02*
X172680000Y-99625000D01*
X172680000Y-99625000D02*
X172855000Y-99800000D01*
X172855000Y-99920000D02*
X172450000Y-100325000D01*
X172450000Y-100325000D02*
X172450000Y-101900000D01*
X172450000Y-101900000D02*
X172850000Y-102300000D01*
X172855000Y-99800000D02*
X172855000Y-99920000D01*
X173365000Y-104290000D02*
X173900000Y-104290000D01*
D65*
%TO.N,/IP2368 Buck-Boost-Converter/BAT*%
X180950000Y-96825000D02*
X182725000Y-96825000D01*
D66*
X179687500Y-97412500D02*
X179287500Y-97412500D01*
X179005000Y-97130000D02*
X178380000Y-97130000D01*
D64*
X192300000Y-102937500D02*
X192300000Y-103900000D01*
D66*
X180305000Y-98650000D02*
X180305000Y-98030000D01*
X178380000Y-96630000D02*
X179180000Y-96630000D01*
X180305000Y-98030000D02*
X179687500Y-97412500D01*
X179287500Y-97412500D02*
X179005000Y-97130000D01*
X179180000Y-96630000D02*
X179375000Y-96825000D01*
X179375000Y-96825000D02*
X180950000Y-96825000D01*
D64*
%TO.N,/IP2368 Buck-Boost-Converter/NTC*%
X177800000Y-90105000D02*
X177770000Y-90075000D01*
X178720000Y-90105000D02*
X177800000Y-90105000D01*
X177680000Y-90165000D02*
X177770000Y-90075000D01*
X177680000Y-91430000D02*
X177680000Y-90165000D01*
D66*
%TO.N,/IP2368 Buck-Boost-Converter/VCC_5V*%
X179275000Y-95630000D02*
X179750000Y-96105000D01*
X178380000Y-95630000D02*
X179275000Y-95630000D01*
D64*
%TO.N,/IP2368 Buck-Boost-Converter/VCC_IO*%
X178380000Y-94130000D02*
X180045000Y-94130000D01*
X180045000Y-94130000D02*
X180050000Y-94125000D01*
D66*
%TO.N,/IP2368 Buck-Boost-Converter/VBUS_G*%
X170780000Y-96130000D02*
X171480000Y-96130000D01*
X170223000Y-95573000D02*
X170780000Y-96130000D01*
X170198000Y-95573000D02*
X170050000Y-95425000D01*
D64*
X161800000Y-95475000D02*
X161800000Y-95550000D01*
D66*
X170223000Y-95573000D02*
X170198000Y-95573000D01*
D64*
%TO.N,/IP2368 Buck-Boost-Converter/I_SET*%
X179000000Y-91850000D02*
X178720000Y-92130000D01*
X179000000Y-91350000D02*
X179000000Y-91850000D01*
X178720000Y-92130000D02*
X178380000Y-92130000D01*
X180025000Y-90325000D02*
X179000000Y-91350000D01*
X180030000Y-90325000D02*
X180025000Y-90325000D01*
%TO.N,/IP2368 Buck-Boost-Converter/V_SET*%
X179875000Y-91275000D02*
X180030000Y-91275000D01*
X178870000Y-92630000D02*
X179400000Y-92100000D01*
X178380000Y-92630000D02*
X178870000Y-92630000D01*
X179400000Y-91750000D02*
X179875000Y-91275000D01*
X179400000Y-92100000D02*
X179400000Y-91750000D01*
%TO.N,/IP2368 Buck-Boost-Converter/BAT_NUM*%
X178380000Y-93630000D02*
X179575000Y-93630000D01*
X179575000Y-93630000D02*
X180030000Y-93175000D01*
%TO.N,/IP2368 Buck-Boost-Converter/F_CAP*%
X179125000Y-93130000D02*
X180030000Y-92225000D01*
X178380000Y-93130000D02*
X179125000Y-93130000D01*
%TO.N,/IP2368 Buck-Boost-Converter/VCONN_SUPPLY*%
X162925000Y-90350000D02*
X163065000Y-90210000D01*
X162137500Y-90300000D02*
X161750000Y-90300000D01*
D65*
X169237500Y-90350000D02*
X170010000Y-90350000D01*
D64*
X162137500Y-90350000D02*
X162925000Y-90350000D01*
X163065000Y-90210000D02*
X163525000Y-90210000D01*
D65*
X170625000Y-90210000D02*
X170150000Y-90210000D01*
X170010000Y-90350000D02*
X170150000Y-90210000D01*
D66*
%TO.N,Net-(Q5-G)*%
X197000000Y-95140000D02*
X197000000Y-94310000D01*
X199150000Y-89975000D02*
X199150000Y-89850000D01*
%TO.N,/IP2368 Buck-Boost-Converter/CSP1*%
X172600000Y-106850000D02*
X173225000Y-106850000D01*
X164350000Y-95550000D02*
X164350000Y-94850000D01*
X171900000Y-99805000D02*
X171895000Y-99800000D01*
X172180000Y-99515000D02*
X171895000Y-99800000D01*
X172300000Y-102475000D02*
X171900000Y-102075000D01*
X172500000Y-106750000D02*
X172600000Y-106850000D01*
D65*
X170595000Y-97630000D02*
X169650000Y-98575000D01*
D66*
X172087500Y-106850000D02*
X172400000Y-106850000D01*
X172300000Y-104425000D02*
X172300000Y-102475000D01*
D64*
X170680000Y-96630000D02*
X171480000Y-96630000D01*
X167277000Y-95925000D02*
X169975000Y-95925000D01*
D66*
X172180000Y-98330000D02*
X172180000Y-99515000D01*
X173325000Y-105450000D02*
X172300000Y-104425000D01*
X164450000Y-95650000D02*
X164350000Y-95550000D01*
D64*
X169975000Y-95925000D02*
X170680000Y-96630000D01*
D66*
X172400000Y-106850000D02*
X172500000Y-106750000D01*
X173325000Y-106750000D02*
X173325000Y-105450000D01*
D65*
X171480000Y-97630000D02*
X170595000Y-97630000D01*
D66*
X171900000Y-102075000D02*
X171900000Y-99805000D01*
X173225000Y-106850000D02*
X173325000Y-106750000D01*
X164600000Y-95200000D02*
X164450000Y-95350000D01*
%TO.N,/Battery Interface/I^{2}C_SDA*%
X182900000Y-102300000D02*
X182900000Y-102350000D01*
X182900000Y-102350000D02*
X182850000Y-102400000D01*
X175180000Y-90070000D02*
X175180000Y-91430000D01*
X175400000Y-89850000D02*
X175180000Y-90070000D01*
X194800000Y-107200000D02*
X195025000Y-107200000D01*
%TO.N,/Battery Interface/I^{2}C_SCL*%
X181350000Y-102400000D02*
X181350000Y-102300000D01*
X174680000Y-90340000D02*
X174450000Y-90110000D01*
X174680000Y-91430000D02*
X174680000Y-90340000D01*
%TO.N,Net-(U4-ALERT)*%
X181350000Y-103400000D02*
X180440000Y-103400000D01*
X180290000Y-103300000D02*
X180250000Y-103260000D01*
X180440000Y-103400000D02*
X180300000Y-103260000D01*
%TO.N,Net-(R25-C)*%
X182850000Y-103400000D02*
X182900000Y-103450000D01*
X168575000Y-97500000D02*
X168200000Y-97500000D01*
D65*
%TO.N,/IP2368 Buck-Boost-Converter/VCONN_SUPPLY*%
X169237500Y-90350000D02*
X168750000Y-90350000D01*
X168250000Y-92450000D02*
X168350000Y-92550000D01*
X168750000Y-90350000D02*
X168250000Y-90850000D01*
X168250000Y-90850000D02*
X168250000Y-92450000D01*
%TD*%
%TA.AperFunction,Conductor*%
%TO.N,GND*%
G36*
X182143039Y-97719685D02*
G01*
X182188794Y-97772489D01*
X182200000Y-97824000D01*
X182200000Y-100400000D01*
X182376000Y-100400000D01*
X182443039Y-100419685D01*
X182488794Y-100472489D01*
X182500000Y-100524000D01*
X182500000Y-102022282D01*
X182480315Y-102089321D01*
X182444892Y-102125383D01*
X182415214Y-102145213D01*
X182363164Y-102223112D01*
X182363162Y-102223115D01*
X182349500Y-102291801D01*
X182349500Y-102291804D01*
X182349500Y-102508196D01*
X182349500Y-102508198D01*
X182349499Y-102508198D01*
X182363162Y-102576884D01*
X182363164Y-102576888D01*
X182365987Y-102581113D01*
X182386862Y-102647791D01*
X182368375Y-102715171D01*
X182365987Y-102718887D01*
X182363164Y-102723111D01*
X182363162Y-102723115D01*
X182349500Y-102791801D01*
X182349500Y-102791804D01*
X182349500Y-103008196D01*
X182349500Y-103008198D01*
X182349499Y-103008198D01*
X182363162Y-103076884D01*
X182363164Y-103076888D01*
X182365987Y-103081113D01*
X182386862Y-103147791D01*
X182368375Y-103215171D01*
X182365987Y-103218887D01*
X182363164Y-103223111D01*
X182363162Y-103223115D01*
X182349500Y-103291801D01*
X182349500Y-103291804D01*
X182349500Y-103508196D01*
X182349500Y-103508198D01*
X182349499Y-103508198D01*
X182363162Y-103576884D01*
X182363163Y-103576886D01*
X182363164Y-103576888D01*
X182415214Y-103654786D01*
X182493112Y-103706836D01*
X182493114Y-103706836D01*
X182493115Y-103706837D01*
X182561801Y-103720500D01*
X182561804Y-103720500D01*
X182588099Y-103720500D01*
X182655138Y-103740185D01*
X182675780Y-103756819D01*
X182676529Y-103757568D01*
X182676533Y-103757571D01*
X182676535Y-103757573D01*
X182782518Y-103811574D01*
X182782520Y-103811574D01*
X182782522Y-103811575D01*
X182899997Y-103830181D01*
X182900000Y-103830181D01*
X182900003Y-103830181D01*
X183017477Y-103811575D01*
X183017478Y-103811575D01*
X183017479Y-103811574D01*
X183017482Y-103811574D01*
X183123465Y-103757573D01*
X183139485Y-103741552D01*
X183200804Y-103708066D01*
X183202966Y-103707615D01*
X183206888Y-103706836D01*
X183284786Y-103654786D01*
X183336836Y-103576888D01*
X183336837Y-103576884D01*
X183350500Y-103508198D01*
X183350500Y-103299500D01*
X183370185Y-103232461D01*
X183422989Y-103186706D01*
X183462853Y-103178033D01*
X183462823Y-103177882D01*
X183471310Y-103176193D01*
X183474500Y-103175500D01*
X183474799Y-103175500D01*
X183474800Y-103175500D01*
X183576058Y-103133557D01*
X183576062Y-103133552D01*
X183586212Y-103126772D01*
X183587433Y-103128599D01*
X183634619Y-103102834D01*
X183660977Y-103100000D01*
X184101000Y-103100000D01*
X184168039Y-103119685D01*
X184213794Y-103172489D01*
X184225000Y-103224000D01*
X184225000Y-104525000D01*
X183200000Y-104525000D01*
X183163681Y-104488681D01*
X183166017Y-104486344D01*
X183136701Y-104452511D01*
X183125495Y-104401000D01*
X183125495Y-104380173D01*
X183116763Y-104336278D01*
X183116762Y-104336277D01*
X183116762Y-104336274D01*
X183083499Y-104286492D01*
X183083498Y-104286491D01*
X183033719Y-104253230D01*
X183033712Y-104253227D01*
X182989817Y-104244496D01*
X182989815Y-104244496D01*
X182435474Y-104244496D01*
X182368435Y-104224811D01*
X182347793Y-104208177D01*
X181860177Y-103720562D01*
X181826692Y-103659239D01*
X181831676Y-103589548D01*
X181833301Y-103585418D01*
X181836831Y-103576895D01*
X181836836Y-103576888D01*
X181850500Y-103508196D01*
X181850500Y-103291804D01*
X181850500Y-103291801D01*
X181836837Y-103223115D01*
X181836836Y-103223114D01*
X181836836Y-103223112D01*
X181784786Y-103145214D01*
X181706888Y-103093164D01*
X181706886Y-103093163D01*
X181706884Y-103093162D01*
X181638198Y-103079500D01*
X181638196Y-103079500D01*
X181061804Y-103079500D01*
X181061802Y-103079500D01*
X180993113Y-103093163D01*
X180993110Y-103093164D01*
X180992888Y-103093313D01*
X180992328Y-103093488D01*
X180981830Y-103097837D01*
X180981440Y-103096897D01*
X180926210Y-103114189D01*
X180858831Y-103095703D01*
X180812142Y-103043723D01*
X180800000Y-102990209D01*
X180800000Y-102809789D01*
X180819685Y-102742750D01*
X180872489Y-102696995D01*
X180941647Y-102687051D01*
X180981729Y-102702411D01*
X180981832Y-102702163D01*
X180991102Y-102706003D01*
X180992892Y-102706689D01*
X180993112Y-102706836D01*
X180993115Y-102706836D01*
X180993116Y-102706837D01*
X180993115Y-102706837D01*
X181061801Y-102720500D01*
X181061804Y-102720500D01*
X181638198Y-102720500D01*
X181706884Y-102706837D01*
X181706884Y-102706836D01*
X181706888Y-102706836D01*
X181784786Y-102654786D01*
X181836836Y-102576888D01*
X181850500Y-102508196D01*
X181850500Y-102291804D01*
X181850500Y-102291801D01*
X181836837Y-102223115D01*
X181836836Y-102223114D01*
X181836836Y-102223112D01*
X181784786Y-102145214D01*
X181736551Y-102112984D01*
X181706889Y-102093164D01*
X181705585Y-102092904D01*
X181702973Y-102092385D01*
X181641065Y-102059999D01*
X181639489Y-102058450D01*
X181573470Y-101992431D01*
X181573466Y-101992428D01*
X181573465Y-101992427D01*
X181467482Y-101938426D01*
X181467480Y-101938425D01*
X181467477Y-101938424D01*
X181350003Y-101919819D01*
X181349997Y-101919819D01*
X181232522Y-101938424D01*
X181232521Y-101938424D01*
X181126533Y-101992428D01*
X181126532Y-101992428D01*
X181060511Y-102058450D01*
X180999187Y-102091934D01*
X180997032Y-102092383D01*
X180993114Y-102093162D01*
X180993110Y-102093164D01*
X180992888Y-102093313D01*
X180992328Y-102093488D01*
X180981827Y-102097838D01*
X180981437Y-102096897D01*
X180926210Y-102114189D01*
X180858831Y-102095703D01*
X180812142Y-102043723D01*
X180800000Y-101990209D01*
X180800000Y-97824000D01*
X180819685Y-97756961D01*
X180872489Y-97711206D01*
X180924000Y-97700000D01*
X182076000Y-97700000D01*
X182143039Y-97719685D01*
G37*
%TD.AperFunction*%
%TD*%
%TA.AperFunction,Conductor*%
%TO.N,GND*%
G36*
X184643039Y-104319685D02*
G01*
X184688794Y-104372489D01*
X184700000Y-104424000D01*
X184700000Y-107876000D01*
X184680315Y-107943039D01*
X184627511Y-107988794D01*
X184576000Y-108000000D01*
X183300000Y-108000000D01*
X183300000Y-108976000D01*
X183280315Y-109043039D01*
X183227511Y-109088794D01*
X183176000Y-109100000D01*
X182024000Y-109100000D01*
X181956961Y-109080315D01*
X181911206Y-109027511D01*
X181900000Y-108976000D01*
X181900000Y-105524000D01*
X181919685Y-105456961D01*
X181972489Y-105411206D01*
X182024000Y-105400000D01*
X183200000Y-105400000D01*
X183200000Y-104525000D01*
X184225000Y-104525000D01*
X184225000Y-104300000D01*
X184576000Y-104300000D01*
X184643039Y-104319685D01*
G37*
%TD.AperFunction*%
%TD*%
%TA.AperFunction,Conductor*%
%TO.N,/IP2368 Buck-Boost-Converter/BAT*%
G36*
X196050000Y-97924998D02*
G01*
X196049999Y-97925000D01*
X196045165Y-97938783D01*
X196021598Y-97979252D01*
X195833599Y-98194763D01*
X195821233Y-98211821D01*
X195805726Y-98229429D01*
X195710133Y-98319198D01*
X195513577Y-98556793D01*
X195348366Y-98817126D01*
X195348362Y-98817132D01*
X195217080Y-99096120D01*
X195217078Y-99096125D01*
X195121795Y-99389376D01*
X195064015Y-99692267D01*
X195064014Y-99692274D01*
X195044655Y-99999994D01*
X195044655Y-100000005D01*
X195064014Y-100307725D01*
X195064015Y-100307732D01*
X195121795Y-100610623D01*
X195217078Y-100903874D01*
X195217080Y-100903879D01*
X195348362Y-101182867D01*
X195348366Y-101182873D01*
X195513577Y-101443206D01*
X195513579Y-101443209D01*
X195513584Y-101443216D01*
X195710131Y-101680799D01*
X195934904Y-101891876D01*
X195998886Y-101938361D01*
X196041551Y-101993690D01*
X196050000Y-102038679D01*
X196050000Y-102455318D01*
X196031258Y-102519145D01*
X196031364Y-102525000D01*
X194825000Y-102525000D01*
X194825000Y-97850000D01*
X196050000Y-97700000D01*
X196050000Y-97924998D01*
G37*
%TD.AperFunction*%
%TD*%
%TA.AperFunction,Conductor*%
%TO.N,+3.3V*%
G36*
X169343039Y-99069685D02*
G01*
X169388794Y-99122489D01*
X169400000Y-99174000D01*
X169400000Y-99348638D01*
X169380315Y-99415677D01*
X169363681Y-99436319D01*
X169186319Y-99613681D01*
X169124996Y-99647166D01*
X169098638Y-99650000D01*
X167974000Y-99650000D01*
X167906961Y-99630315D01*
X167861206Y-99577511D01*
X167850000Y-99526000D01*
X167850000Y-99174000D01*
X167869685Y-99106961D01*
X167922489Y-99061206D01*
X167974000Y-99050000D01*
X169276000Y-99050000D01*
X169343039Y-99069685D01*
G37*
%TD.AperFunction*%
%TD*%
%TA.AperFunction,Conductor*%
%TO.N,/IP2368 Buck-Boost-Converter/HB_BAT*%
G36*
X190815677Y-104319685D02*
G01*
X190836319Y-104336319D01*
X191450000Y-104950000D01*
X193076000Y-104950000D01*
X193143039Y-104969685D01*
X193188794Y-105022489D01*
X193200000Y-105074000D01*
X193200000Y-106848638D01*
X193180315Y-106915677D01*
X193163681Y-106936319D01*
X193086319Y-107013681D01*
X193024996Y-107047166D01*
X192998638Y-107050000D01*
X191300000Y-107050000D01*
X191300000Y-107826000D01*
X191280315Y-107893039D01*
X191227511Y-107938794D01*
X191176000Y-107950000D01*
X189250000Y-107950000D01*
X189250000Y-108976000D01*
X189230315Y-109043039D01*
X189177511Y-109088794D01*
X189126000Y-109100000D01*
X188824000Y-109100000D01*
X188756961Y-109080315D01*
X188711206Y-109027511D01*
X188700000Y-108976000D01*
X188700000Y-104424000D01*
X188719685Y-104356961D01*
X188772489Y-104311206D01*
X188824000Y-104300000D01*
X190748638Y-104300000D01*
X190815677Y-104319685D01*
G37*
%TD.AperFunction*%
%TD*%
%TA.AperFunction,Conductor*%
%TO.N,/IP2368 Buck-Boost-Converter/BAT*%
G36*
X184975000Y-96100000D02*
G01*
X184975000Y-96375000D01*
X184975000Y-97200000D01*
X184675000Y-97200000D01*
X184600000Y-97274999D01*
X184599999Y-97274999D01*
X184400000Y-97474999D01*
X184400000Y-98454577D01*
X184380315Y-98521616D01*
X184370660Y-98534674D01*
X184125000Y-98825000D01*
X184125000Y-99720572D01*
X184105315Y-99787611D01*
X184052511Y-99833366D01*
X183995691Y-99844458D01*
X182493691Y-99780086D01*
X182427555Y-99757549D01*
X182384103Y-99702835D01*
X182375000Y-99656200D01*
X182375000Y-96676362D01*
X182394685Y-96609323D01*
X182411319Y-96588681D01*
X183138681Y-95861319D01*
X183200004Y-95827834D01*
X183226362Y-95825000D01*
X184600000Y-95825000D01*
X184825000Y-95825000D01*
X184975000Y-96100000D01*
G37*
%TD.AperFunction*%
%TD*%
%TA.AperFunction,Conductor*%
%TO.N,+5V*%
G36*
X170775000Y-99650000D02*
G01*
X170001362Y-99650000D01*
X169934323Y-99630315D01*
X169913681Y-99613681D01*
X169786319Y-99486319D01*
X169752834Y-99424996D01*
X169750000Y-99398638D01*
X169750000Y-99174000D01*
X169769685Y-99106961D01*
X169822489Y-99061206D01*
X169874000Y-99050000D01*
X170775000Y-99050000D01*
X170775000Y-99650000D01*
G37*
%TD.AperFunction*%
%TA.AperFunction,Conductor*%
G36*
X171247166Y-99100004D02*
G01*
X171250000Y-99126362D01*
X171250000Y-99573638D01*
X171230315Y-99640677D01*
X171225000Y-99647272D01*
X171225000Y-99059410D01*
X171247166Y-99100004D01*
G37*
%TD.AperFunction*%
%TD*%
%TA.AperFunction,Conductor*%
%TO.N,/Connector/POWER_VBUS*%
G36*
X162178326Y-92721674D02*
G01*
X162200000Y-92774000D01*
X162200000Y-92805954D01*
X162199247Y-92816486D01*
X162194500Y-92849497D01*
X162194500Y-95026000D01*
X162172826Y-95078326D01*
X162120500Y-95100000D01*
X161873542Y-95100000D01*
X161866550Y-95099500D01*
X161864772Y-95099500D01*
X161735228Y-95099500D01*
X161733450Y-95099500D01*
X161726458Y-95100000D01*
X161200000Y-95100000D01*
X161200000Y-97243422D01*
X161178326Y-97295748D01*
X161177201Y-97296849D01*
X160621467Y-97829427D01*
X160570266Y-97850000D01*
X155350000Y-97850000D01*
X155350000Y-97884827D01*
X155328326Y-97937153D01*
X155290442Y-97957404D01*
X155286279Y-97958232D01*
X155236496Y-97991495D01*
X155236495Y-97991496D01*
X155203233Y-98041277D01*
X155194500Y-98085180D01*
X155194500Y-98414819D01*
X155203232Y-98458720D01*
X155203234Y-98458724D01*
X155203347Y-98458893D01*
X155203386Y-98459091D01*
X155206022Y-98465454D01*
X155204755Y-98465978D01*
X155214392Y-98514443D01*
X155203347Y-98541107D01*
X155203234Y-98541275D01*
X155203232Y-98541279D01*
X155194500Y-98585180D01*
X155194500Y-98914819D01*
X155203232Y-98958720D01*
X155203234Y-98958724D01*
X155203347Y-98958893D01*
X155203386Y-98959091D01*
X155206022Y-98965454D01*
X155204755Y-98965978D01*
X155214392Y-99014443D01*
X155203347Y-99041107D01*
X155203234Y-99041275D01*
X155203232Y-99041279D01*
X155194500Y-99085180D01*
X155194500Y-99414822D01*
X155194840Y-99416533D01*
X155194725Y-99417109D01*
X155194856Y-99418436D01*
X155194453Y-99418475D01*
X155183786Y-99472080D01*
X155150581Y-99499329D01*
X155117810Y-99512904D01*
X155117809Y-99512905D01*
X155058103Y-99537635D01*
X154905637Y-99690101D01*
X154905634Y-99690105D01*
X154867500Y-99782170D01*
X154867500Y-100717829D01*
X154905634Y-100809894D01*
X154905635Y-100809896D01*
X154905636Y-100809897D01*
X154987635Y-100891896D01*
X154987636Y-100891897D01*
X155058103Y-100962364D01*
X155096238Y-100978159D01*
X155096239Y-100978160D01*
X155118562Y-100987406D01*
X155150173Y-101000501D01*
X155150174Y-101000501D01*
X155150580Y-101000669D01*
X155190628Y-101040718D01*
X155194651Y-101081543D01*
X155194856Y-101081564D01*
X155194754Y-101082590D01*
X155194841Y-101083464D01*
X155194500Y-101085179D01*
X155194500Y-101414819D01*
X155203232Y-101458720D01*
X155203234Y-101458724D01*
X155203347Y-101458893D01*
X155203386Y-101459091D01*
X155206022Y-101465454D01*
X155204755Y-101465978D01*
X155214392Y-101514443D01*
X155203347Y-101541107D01*
X155203234Y-101541275D01*
X155203232Y-101541279D01*
X155194500Y-101585180D01*
X155194500Y-101914819D01*
X155203233Y-101958722D01*
X155228931Y-101997183D01*
X155236496Y-102008504D01*
X155286278Y-102041767D01*
X155290436Y-102042594D01*
X155337528Y-102074059D01*
X155350000Y-102115172D01*
X155350000Y-102150000D01*
X156776000Y-102150000D01*
X156828326Y-102171674D01*
X156850000Y-102224000D01*
X156850000Y-102674869D01*
X156828326Y-102727195D01*
X156776000Y-102748869D01*
X156774879Y-102748861D01*
X155232384Y-102725489D01*
X155180392Y-102703024D01*
X155162026Y-102670647D01*
X155161281Y-102667866D01*
X155161278Y-102667860D01*
X155085516Y-102536637D01*
X155085515Y-102536635D01*
X154978365Y-102429485D01*
X154969731Y-102424500D01*
X154847139Y-102353721D01*
X154847130Y-102353717D01*
X154700768Y-102314500D01*
X154700766Y-102314500D01*
X154549234Y-102314500D01*
X154549232Y-102314500D01*
X154402869Y-102353717D01*
X154402860Y-102353721D01*
X154271637Y-102429483D01*
X154164485Y-102536635D01*
X154087392Y-102670162D01*
X154042458Y-102704640D01*
X154022185Y-102707153D01*
X153582283Y-102700489D01*
X153530292Y-102678024D01*
X153528400Y-102676000D01*
X153118996Y-102221106D01*
X153100000Y-102171603D01*
X153100000Y-97826415D01*
X153116726Y-97779556D01*
X153482803Y-97332130D01*
X153523295Y-97282640D01*
X153573205Y-97255867D01*
X153580568Y-97255500D01*
X153936729Y-97255500D01*
X153936730Y-97255500D01*
X153949669Y-97254961D01*
X153970233Y-97253244D01*
X153972445Y-97252636D01*
X153992023Y-97250000D01*
X154009929Y-97250000D01*
X154062255Y-97271674D01*
X154081408Y-97304848D01*
X154088719Y-97332136D01*
X154164483Y-97463362D01*
X154164485Y-97463365D01*
X154271635Y-97570515D01*
X154402865Y-97646281D01*
X154549231Y-97685499D01*
X154549232Y-97685500D01*
X154549234Y-97685500D01*
X154700768Y-97685500D01*
X154700768Y-97685499D01*
X154847135Y-97646281D01*
X154978365Y-97570515D01*
X155085515Y-97463365D01*
X155161281Y-97332135D01*
X155164196Y-97321253D01*
X155168593Y-97304847D01*
X155203071Y-97259914D01*
X155240071Y-97250000D01*
X155269722Y-97250000D01*
X155280253Y-97250753D01*
X155283884Y-97251275D01*
X155313270Y-97255500D01*
X155313276Y-97255500D01*
X155318998Y-97255500D01*
X155319012Y-97255500D01*
X155326642Y-97255313D01*
X155330703Y-97255113D01*
X155331204Y-97255089D01*
X155334829Y-97255000D01*
X156699120Y-97255000D01*
X156699138Y-97255000D01*
X156715761Y-97254109D01*
X156742119Y-97251275D01*
X156742121Y-97251274D01*
X156745732Y-97250886D01*
X156745748Y-97251042D01*
X156755863Y-97250000D01*
X156900000Y-97250000D01*
X157628326Y-96521674D01*
X157680652Y-96500000D01*
X158700000Y-96500000D01*
X159300000Y-95900000D01*
X159300000Y-93730652D01*
X159321674Y-93678326D01*
X159800000Y-93200000D01*
X159800000Y-93042184D01*
X159800753Y-93031653D01*
X159805499Y-92998642D01*
X159805500Y-92998638D01*
X159805500Y-92774000D01*
X159827174Y-92721674D01*
X159879500Y-92700000D01*
X162126000Y-92700000D01*
X162178326Y-92721674D01*
G37*
%TD.AperFunction*%
%TD*%
%TA.AperFunction,Conductor*%
%TO.N,/IP2368 Buck-Boost-Converter/HB_IN*%
G36*
X178243039Y-104319685D02*
G01*
X178288794Y-104372489D01*
X178300000Y-104424000D01*
X178300000Y-108976000D01*
X178280315Y-109043039D01*
X178227511Y-109088794D01*
X178176000Y-109100000D01*
X174651362Y-109100000D01*
X174584323Y-109080315D01*
X174563681Y-109063681D01*
X174436319Y-108936319D01*
X174402834Y-108874996D01*
X174400000Y-108848638D01*
X174400000Y-105651362D01*
X174419685Y-105584323D01*
X174436319Y-105563681D01*
X174563681Y-105436319D01*
X174625004Y-105402834D01*
X174651362Y-105400000D01*
X177300000Y-105400000D01*
X177300000Y-104424000D01*
X177319685Y-104356961D01*
X177372489Y-104311206D01*
X177424000Y-104300000D01*
X178176000Y-104300000D01*
X178243039Y-104319685D01*
G37*
%TD.AperFunction*%
%TD*%
%TA.AperFunction,Conductor*%
%TO.N,/IP2368 Buck-Boost-Converter/CSP1*%
G36*
X171170000Y-106520000D02*
G01*
X167830000Y-106520000D01*
X166430000Y-105410000D01*
X167054492Y-105408864D01*
X167061696Y-105418059D01*
X167061699Y-105418063D01*
X167082147Y-105441144D01*
X167082177Y-105441176D01*
X167308823Y-105667822D01*
X167308839Y-105667837D01*
X167308847Y-105667845D01*
X167331941Y-105688304D01*
X167584305Y-105886019D01*
X167609697Y-105903546D01*
X167884052Y-106069400D01*
X167911372Y-106083739D01*
X168203719Y-106215313D01*
X168232567Y-106226253D01*
X168400688Y-106278641D01*
X168538628Y-106321626D01*
X168538633Y-106321627D01*
X168538642Y-106321630D01*
X168568599Y-106329014D01*
X168883939Y-106386802D01*
X168914567Y-106390521D01*
X169234573Y-106409878D01*
X169234586Y-106409878D01*
X169265414Y-106409878D01*
X169265427Y-106409878D01*
X169585433Y-106390521D01*
X169616061Y-106386802D01*
X169931401Y-106329014D01*
X169961358Y-106321630D01*
X170267433Y-106226253D01*
X170296281Y-106215313D01*
X170588628Y-106083739D01*
X170615948Y-106069400D01*
X170890303Y-105903546D01*
X170915695Y-105886019D01*
X171168059Y-105688304D01*
X171191153Y-105667845D01*
X171417845Y-105441153D01*
X171417866Y-105441128D01*
X171419114Y-105439804D01*
X171419155Y-105439843D01*
X171419170Y-105439829D01*
X171419640Y-105440299D01*
X171476493Y-105404644D01*
X171504510Y-105400773D01*
X171930000Y-105400000D01*
X171170000Y-106520000D01*
G37*
%TD.AperFunction*%
%TD*%
%TA.AperFunction,Conductor*%
%TO.N,GND*%
G36*
X169593334Y-99559180D02*
G01*
X169637681Y-99587681D01*
X169812319Y-99762319D01*
X169845804Y-99823642D01*
X169840820Y-99893334D01*
X169812319Y-99937681D01*
X169600000Y-100149999D01*
X169600000Y-100150000D01*
X169600000Y-100700000D01*
X170550000Y-100700000D01*
X170550000Y-100174000D01*
X170569685Y-100106961D01*
X170622489Y-100061206D01*
X170674000Y-100050000D01*
X171126000Y-100050000D01*
X171193039Y-100069685D01*
X171238794Y-100122489D01*
X171250000Y-100174000D01*
X171250000Y-101660556D01*
X171230315Y-101727595D01*
X171177511Y-101773350D01*
X171111512Y-101783707D01*
X167959512Y-101412883D01*
X167895231Y-101385500D01*
X167855960Y-101327712D01*
X167850000Y-101289732D01*
X167850000Y-100174000D01*
X167869685Y-100106961D01*
X167922489Y-100061206D01*
X167974000Y-100050000D01*
X169000000Y-100050000D01*
X169462319Y-99587681D01*
X169523642Y-99554196D01*
X169593334Y-99559180D01*
G37*
%TD.AperFunction*%
%TD*%
%TA.AperFunction,Conductor*%
%TO.N,/IP2368 Buck-Boost-Converter/BAT*%
G36*
X191150000Y-97825000D02*
G01*
X190661167Y-97813826D01*
X190454752Y-97809107D01*
X190388180Y-97787895D01*
X190381113Y-97782750D01*
X190165693Y-97613979D01*
X190140318Y-97596464D01*
X190140310Y-97596459D01*
X190140303Y-97596454D01*
X189865948Y-97430600D01*
X189862433Y-97428755D01*
X189838635Y-97416264D01*
X189546283Y-97284688D01*
X189546284Y-97284688D01*
X189546281Y-97284687D01*
X189537096Y-97281204D01*
X189517437Y-97273748D01*
X189211371Y-97178373D01*
X189181407Y-97170987D01*
X189143705Y-97164078D01*
X188866061Y-97113198D01*
X188854088Y-97111744D01*
X188835431Y-97109478D01*
X188515435Y-97090122D01*
X188515427Y-97090122D01*
X188484573Y-97090122D01*
X188484564Y-97090122D01*
X188164568Y-97109478D01*
X188142918Y-97112107D01*
X188133939Y-97113198D01*
X187925705Y-97151358D01*
X187818592Y-97170987D01*
X187788628Y-97178373D01*
X187482562Y-97273748D01*
X187453725Y-97284684D01*
X187450334Y-97286210D01*
X187443963Y-97289077D01*
X187393077Y-97300000D01*
X186775000Y-97300000D01*
X186775000Y-96850000D01*
X191150000Y-96850000D01*
X191150000Y-97825000D01*
G37*
%TD.AperFunction*%
%TD*%
%TA.AperFunction,Conductor*%
%TO.N,GND*%
G36*
X189330156Y-97618847D02*
G01*
X190100000Y-98100000D01*
X192476000Y-98100000D01*
X192543039Y-98119685D01*
X192588794Y-98172489D01*
X192600000Y-98224000D01*
X192600000Y-101376000D01*
X192580315Y-101443039D01*
X192527511Y-101488794D01*
X192476000Y-101500000D01*
X191400000Y-101500000D01*
X190900000Y-102100000D01*
X190900000Y-103776000D01*
X190880315Y-103843039D01*
X190827511Y-103888794D01*
X190776000Y-103900000D01*
X190314125Y-103900000D01*
X190247086Y-103880315D01*
X190201331Y-103827511D01*
X190191387Y-103758353D01*
X190191651Y-103756603D01*
X190200500Y-103700735D01*
X190200499Y-103299266D01*
X190200499Y-103299260D01*
X190186018Y-103207829D01*
X190186018Y-103207828D01*
X190186017Y-103207826D01*
X190186017Y-103207825D01*
X190129859Y-103097609D01*
X190129857Y-103097607D01*
X190129854Y-103097603D01*
X190042396Y-103010145D01*
X190042393Y-103010143D01*
X190042391Y-103010141D01*
X189932175Y-102953983D01*
X189932174Y-102953982D01*
X189932171Y-102953981D01*
X189840735Y-102939500D01*
X189499260Y-102939500D01*
X189499260Y-102939501D01*
X189407829Y-102953981D01*
X189407825Y-102953982D01*
X189302249Y-103007776D01*
X189233580Y-103020672D01*
X189181511Y-103001072D01*
X189181334Y-103001436D01*
X189177504Y-102999563D01*
X189173900Y-102998207D01*
X189172099Y-102996921D01*
X189056521Y-102940419D01*
X189056519Y-102940418D01*
X189056518Y-102940418D01*
X188981582Y-102929500D01*
X188638418Y-102929500D01*
X188563482Y-102940418D01*
X188563480Y-102940418D01*
X188563478Y-102940419D01*
X188447900Y-102996921D01*
X188447897Y-102996923D01*
X188387681Y-103057140D01*
X188326358Y-103090625D01*
X188256666Y-103085641D01*
X188212319Y-103057140D01*
X188152102Y-102996923D01*
X188152099Y-102996921D01*
X188036521Y-102940419D01*
X188036519Y-102940418D01*
X188036518Y-102940418D01*
X187961582Y-102929500D01*
X187618418Y-102929500D01*
X187543482Y-102940418D01*
X187543480Y-102940418D01*
X187543478Y-102940419D01*
X187427900Y-102996921D01*
X187427897Y-102996923D01*
X187336923Y-103087897D01*
X187336921Y-103087900D01*
X187280419Y-103203478D01*
X187280418Y-103203480D01*
X187280418Y-103203482D01*
X187269500Y-103278418D01*
X187269500Y-103721582D01*
X187274602Y-103756603D01*
X187274824Y-103758121D01*
X187265011Y-103827298D01*
X187219356Y-103880189D01*
X187152354Y-103900000D01*
X185869841Y-103900000D01*
X185802802Y-103880315D01*
X185757047Y-103827511D01*
X185747103Y-103758353D01*
X185751147Y-103740115D01*
X185770549Y-103675940D01*
X185770549Y-103675939D01*
X185770551Y-103675933D01*
X185781476Y-103604036D01*
X185805076Y-100653986D01*
X185803727Y-100625645D01*
X185800897Y-100598295D01*
X185800790Y-100597280D01*
X185771001Y-100502144D01*
X185737516Y-100440821D01*
X185693935Y-100382603D01*
X185693930Y-100382598D01*
X185693922Y-100382589D01*
X185416999Y-100105666D01*
X185416968Y-100105638D01*
X185396635Y-100087374D01*
X185396629Y-100087369D01*
X185396620Y-100087361D01*
X185375999Y-100070744D01*
X185375996Y-100070742D01*
X185375993Y-100070740D01*
X185287662Y-100024535D01*
X185287659Y-100024534D01*
X185220624Y-100004850D01*
X185220616Y-100004848D01*
X185148639Y-99994500D01*
X185148638Y-99994500D01*
X184496000Y-99994500D01*
X184428961Y-99974815D01*
X184383206Y-99922011D01*
X184375211Y-99885258D01*
X186749500Y-99885258D01*
X186749500Y-100114741D01*
X186768054Y-100255666D01*
X186779452Y-100342238D01*
X186822296Y-100502137D01*
X186838842Y-100563887D01*
X186926650Y-100775876D01*
X186926657Y-100775890D01*
X187041392Y-100974617D01*
X187181081Y-101156661D01*
X187181089Y-101156670D01*
X187343330Y-101318911D01*
X187343338Y-101318918D01*
X187525382Y-101458607D01*
X187525385Y-101458608D01*
X187525388Y-101458611D01*
X187724112Y-101573344D01*
X187724117Y-101573346D01*
X187724123Y-101573349D01*
X187815480Y-101611190D01*
X187936113Y-101661158D01*
X188157762Y-101720548D01*
X188385266Y-101750500D01*
X188385273Y-101750500D01*
X188614727Y-101750500D01*
X188614734Y-101750500D01*
X188842238Y-101720548D01*
X189063887Y-101661158D01*
X189275888Y-101573344D01*
X189474612Y-101458611D01*
X189656661Y-101318919D01*
X189656665Y-101318914D01*
X189656670Y-101318911D01*
X189818911Y-101156670D01*
X189818914Y-101156665D01*
X189818919Y-101156661D01*
X189958611Y-100974612D01*
X190073344Y-100775888D01*
X190161158Y-100563887D01*
X190220548Y-100342238D01*
X190250500Y-100114734D01*
X190250500Y-99885266D01*
X190220548Y-99657762D01*
X190161158Y-99436113D01*
X190073344Y-99224112D01*
X189958611Y-99025388D01*
X189958608Y-99025385D01*
X189958607Y-99025382D01*
X189818918Y-98843338D01*
X189818911Y-98843330D01*
X189656670Y-98681089D01*
X189656661Y-98681081D01*
X189474617Y-98541392D01*
X189448932Y-98526563D01*
X189390620Y-98492896D01*
X189275890Y-98426657D01*
X189275876Y-98426650D01*
X189063887Y-98338842D01*
X188842238Y-98279452D01*
X188804215Y-98274446D01*
X188614741Y-98249500D01*
X188614734Y-98249500D01*
X188385266Y-98249500D01*
X188385258Y-98249500D01*
X188168715Y-98278009D01*
X188157762Y-98279452D01*
X188064076Y-98304554D01*
X187936112Y-98338842D01*
X187724123Y-98426650D01*
X187724109Y-98426657D01*
X187525382Y-98541392D01*
X187343338Y-98681081D01*
X187181081Y-98843338D01*
X187041392Y-99025382D01*
X186926657Y-99224109D01*
X186926650Y-99224123D01*
X186838842Y-99436112D01*
X186779453Y-99657759D01*
X186779451Y-99657770D01*
X186749500Y-99885258D01*
X184375211Y-99885258D01*
X184372000Y-99870500D01*
X184372000Y-99788559D01*
X184373262Y-99770912D01*
X184380500Y-99720572D01*
X184380500Y-98964013D01*
X184400185Y-98896974D01*
X184409840Y-98883916D01*
X184565705Y-98699712D01*
X184576101Y-98686576D01*
X184585756Y-98673518D01*
X184625465Y-98593601D01*
X184645150Y-98526562D01*
X184655500Y-98454577D01*
X184655500Y-97724000D01*
X184675185Y-97656961D01*
X184727989Y-97611206D01*
X184779500Y-97600000D01*
X189264437Y-97600000D01*
X189330156Y-97618847D01*
G37*
%TD.AperFunction*%
%TD*%
%TA.AperFunction,Conductor*%
%TO.N,GND*%
G36*
X192243039Y-88819685D02*
G01*
X192288794Y-88872489D01*
X192300000Y-88924000D01*
X192300000Y-91976000D01*
X192280315Y-92043039D01*
X192227511Y-92088794D01*
X192176000Y-92100000D01*
X184200000Y-92100000D01*
X184200000Y-95326000D01*
X184180315Y-95393039D01*
X184127511Y-95438794D01*
X184076000Y-95450000D01*
X179677399Y-95450000D01*
X179610360Y-95430315D01*
X179589718Y-95413681D01*
X179505564Y-95329527D01*
X179505563Y-95329526D01*
X179505562Y-95329525D01*
X179505559Y-95329523D01*
X179499113Y-95324577D01*
X179501175Y-95321889D01*
X179463784Y-95282673D01*
X179450000Y-95225855D01*
X179450000Y-94924000D01*
X179469685Y-94856961D01*
X179522489Y-94811206D01*
X179574000Y-94800000D01*
X180700000Y-94800000D01*
X180700000Y-89525000D01*
X177549000Y-89525000D01*
X177481961Y-89505315D01*
X177436206Y-89452511D01*
X177425000Y-89401000D01*
X177425000Y-88924000D01*
X177444685Y-88856961D01*
X177497489Y-88811206D01*
X177549000Y-88800000D01*
X192176000Y-88800000D01*
X192243039Y-88819685D01*
G37*
%TD.AperFunction*%
%TD*%
%TA.AperFunction,Conductor*%
%TO.N,+5V*%
G36*
X185215677Y-100269685D02*
G01*
X185236319Y-100286319D01*
X185513269Y-100563269D01*
X185546754Y-100624592D01*
X185549584Y-100651942D01*
X185525984Y-103601992D01*
X185505764Y-103668872D01*
X185452596Y-103714203D01*
X185401988Y-103725000D01*
X184676362Y-103725000D01*
X184609323Y-103705315D01*
X184588681Y-103688681D01*
X184416819Y-103516819D01*
X184383334Y-103455496D01*
X184380500Y-103429138D01*
X184380500Y-103224008D01*
X184380499Y-103223991D01*
X184378457Y-103205000D01*
X184376946Y-103190945D01*
X184365740Y-103139434D01*
X184346667Y-103101332D01*
X184331316Y-103070663D01*
X184331312Y-103070657D01*
X184330285Y-103069472D01*
X184329777Y-103068361D01*
X184327004Y-103064210D01*
X184327676Y-103063760D01*
X184301262Y-103005915D01*
X184300000Y-102988271D01*
X184300000Y-102784455D01*
X184310566Y-102734368D01*
X184313811Y-102727017D01*
X184313813Y-102727016D01*
X184357682Y-102627662D01*
X184360500Y-102603373D01*
X184360499Y-102236628D01*
X184357682Y-102212338D01*
X184313813Y-102112984D01*
X184310566Y-102105630D01*
X184300000Y-102055544D01*
X184300000Y-100374000D01*
X184319685Y-100306961D01*
X184372489Y-100261206D01*
X184424000Y-100250000D01*
X185148638Y-100250000D01*
X185215677Y-100269685D01*
G37*
%TD.AperFunction*%
%TD*%
%TA.AperFunction,Conductor*%
%TO.N,GND*%
G36*
X160443039Y-88720185D02*
G01*
X160488794Y-88772989D01*
X160500000Y-88824500D01*
X160500000Y-88825500D01*
X160480315Y-88892539D01*
X160427511Y-88938294D01*
X160376000Y-88949500D01*
X159305143Y-88949500D01*
X159305117Y-88949502D01*
X159280012Y-88952413D01*
X159280008Y-88952415D01*
X159177235Y-88997793D01*
X159097794Y-89077234D01*
X159052415Y-89180006D01*
X159052415Y-89180008D01*
X159049500Y-89205131D01*
X159049500Y-89594856D01*
X159049502Y-89594882D01*
X159052413Y-89619987D01*
X159052415Y-89619991D01*
X159097793Y-89722764D01*
X159097794Y-89722765D01*
X159177235Y-89802206D01*
X159280009Y-89847585D01*
X159305135Y-89850500D01*
X159783285Y-89850499D01*
X159783295Y-89850500D01*
X159797728Y-89850500D01*
X159951935Y-89850500D01*
X159951939Y-89850499D01*
X160376000Y-89850499D01*
X160443039Y-89870184D01*
X160488794Y-89922988D01*
X160500000Y-89974499D01*
X160500000Y-90644376D01*
X160480315Y-90711415D01*
X160463681Y-90732058D01*
X160382556Y-90813182D01*
X160321232Y-90846666D01*
X160294875Y-90849500D01*
X159305143Y-90849500D01*
X159305117Y-90849502D01*
X159280012Y-90852413D01*
X159280008Y-90852415D01*
X159177235Y-90897793D01*
X159097794Y-90977234D01*
X159052415Y-91080006D01*
X159052415Y-91080008D01*
X159049500Y-91105131D01*
X159049500Y-91494856D01*
X159049502Y-91494882D01*
X159052413Y-91519987D01*
X159052415Y-91519991D01*
X159097793Y-91622764D01*
X159097794Y-91622765D01*
X159177235Y-91702206D01*
X159280009Y-91747585D01*
X159305135Y-91750500D01*
X159526001Y-91750499D01*
X159593039Y-91770183D01*
X159638794Y-91822987D01*
X159650000Y-91874499D01*
X159650000Y-92998638D01*
X159630315Y-93065677D01*
X159613681Y-93086319D01*
X159100000Y-93599999D01*
X159100000Y-95748638D01*
X159080315Y-95815677D01*
X159063681Y-95836319D01*
X158661319Y-96238681D01*
X158599996Y-96272166D01*
X158573638Y-96275000D01*
X157574999Y-96275000D01*
X156800000Y-97050000D01*
X156800000Y-95250000D01*
X156450000Y-95250000D01*
X156420216Y-95231671D01*
X156388356Y-95176888D01*
X156269109Y-95045122D01*
X156269105Y-95045119D01*
X156125145Y-94940942D01*
X156125144Y-94940941D01*
X156125142Y-94940940D01*
X156027490Y-94897610D01*
X155962706Y-94868864D01*
X155962700Y-94868862D01*
X155788856Y-94832026D01*
X155781450Y-94831857D01*
X155700000Y-94830000D01*
X154610000Y-94830000D01*
X154534815Y-94831714D01*
X154521143Y-94832026D01*
X154428772Y-94851598D01*
X153500000Y-94800000D01*
X153350000Y-97100000D01*
X153407692Y-97100000D01*
X152900000Y-97700000D01*
X152900000Y-102300000D01*
X153500000Y-102950000D01*
X153500001Y-102950000D01*
X153950127Y-102950000D01*
X154017166Y-102969685D01*
X154062921Y-103022489D01*
X154069902Y-103041907D01*
X154088719Y-103112136D01*
X154115062Y-103157762D01*
X154164485Y-103243365D01*
X154181186Y-103260066D01*
X153489908Y-103221662D01*
X153339908Y-104941662D01*
X154029432Y-104932216D01*
X154040890Y-104944877D01*
X154184858Y-105049060D01*
X154347295Y-105121136D01*
X154347297Y-105121136D01*
X154347299Y-105121137D01*
X154383664Y-105128842D01*
X154521145Y-105157974D01*
X154610000Y-105160000D01*
X154610011Y-105160000D01*
X155699989Y-105160000D01*
X155700000Y-105160000D01*
X155788855Y-105157974D01*
X155962705Y-105121136D01*
X156125142Y-105049060D01*
X156269110Y-104944877D01*
X156308825Y-104900991D01*
X156989908Y-104891662D01*
X156989908Y-103671662D01*
X156439908Y-103671662D01*
X155789908Y-103271662D01*
X155289908Y-103321662D01*
X155022096Y-103306783D01*
X155085515Y-103243365D01*
X155161281Y-103112135D01*
X155180098Y-103041906D01*
X155216463Y-102982246D01*
X155279310Y-102951717D01*
X155299873Y-102950000D01*
X157350000Y-102950000D01*
X157700000Y-102600000D01*
X157700000Y-102424500D01*
X157719685Y-102357461D01*
X157772489Y-102311706D01*
X157824000Y-102300500D01*
X158064822Y-102300500D01*
X158108717Y-102291768D01*
X158108717Y-102291767D01*
X158108722Y-102291767D01*
X158158504Y-102258504D01*
X158191767Y-102208722D01*
X158191768Y-102208717D01*
X158200500Y-102164822D01*
X158200500Y-101968986D01*
X158210487Y-101927390D01*
X158208558Y-101926764D01*
X158211572Y-101917485D01*
X158211574Y-101917482D01*
X158211996Y-101914820D01*
X158230181Y-101800003D01*
X158230181Y-101799996D01*
X158211575Y-101682522D01*
X158208559Y-101673240D01*
X158210486Y-101672613D01*
X158200500Y-101631015D01*
X158200500Y-101435177D01*
X158191768Y-101391282D01*
X158191767Y-101391278D01*
X158176807Y-101368889D01*
X158155930Y-101302214D01*
X158174414Y-101234833D01*
X158176792Y-101231132D01*
X158191767Y-101208722D01*
X158200500Y-101164820D01*
X158200500Y-101018051D01*
X158214015Y-100961756D01*
X158223092Y-100943942D01*
X158236574Y-100917482D01*
X158236574Y-100917480D01*
X158236575Y-100917479D01*
X158236575Y-100917478D01*
X158255181Y-100800003D01*
X158255181Y-100799996D01*
X158236575Y-100682522D01*
X158236574Y-100682518D01*
X158214015Y-100638243D01*
X158200500Y-100581949D01*
X158200500Y-100435177D01*
X158191768Y-100391282D01*
X158191767Y-100391278D01*
X158182728Y-100377750D01*
X158176807Y-100368889D01*
X158155930Y-100302214D01*
X158174414Y-100234833D01*
X158176792Y-100231132D01*
X158191767Y-100208722D01*
X158200500Y-100164820D01*
X158200500Y-99968986D01*
X158210487Y-99927390D01*
X158208558Y-99926764D01*
X158211572Y-99917485D01*
X158211574Y-99917482D01*
X158217419Y-99880580D01*
X158230181Y-99800003D01*
X158230181Y-99799996D01*
X158211575Y-99682522D01*
X158208559Y-99673240D01*
X158210486Y-99672613D01*
X158200500Y-99631015D01*
X158200500Y-99435177D01*
X158191768Y-99391282D01*
X158191767Y-99391278D01*
X158188365Y-99386187D01*
X158176807Y-99368889D01*
X158155930Y-99302214D01*
X158174414Y-99234833D01*
X158176792Y-99231132D01*
X158191767Y-99208722D01*
X158200500Y-99164820D01*
X158200500Y-98968986D01*
X158210487Y-98927390D01*
X158208558Y-98926764D01*
X158211572Y-98917485D01*
X158211574Y-98917482D01*
X158215214Y-98894500D01*
X158230181Y-98800003D01*
X158230181Y-98799996D01*
X158211575Y-98682522D01*
X158208559Y-98673240D01*
X158210486Y-98672613D01*
X158200500Y-98631015D01*
X158200500Y-98429088D01*
X158201936Y-98429088D01*
X158213616Y-98367505D01*
X158261682Y-98316796D01*
X158323999Y-98300000D01*
X161348638Y-98300000D01*
X161415677Y-98319685D01*
X161436319Y-98336319D01*
X162463681Y-99363681D01*
X162497166Y-99425004D01*
X162500000Y-99451362D01*
X162500000Y-107800000D01*
X164200000Y-109500000D01*
X173201000Y-109500000D01*
X173268039Y-109519685D01*
X173313794Y-109572489D01*
X173325000Y-109624000D01*
X173325000Y-111175500D01*
X173305315Y-111242539D01*
X173252511Y-111288294D01*
X173201000Y-111299500D01*
X151309412Y-111299500D01*
X151242373Y-111279815D01*
X151221731Y-111263181D01*
X150408371Y-110449821D01*
X150374886Y-110388498D01*
X150372093Y-110365353D01*
X150372031Y-110362944D01*
X150372043Y-110362799D01*
X150370625Y-110308384D01*
X150370624Y-110308350D01*
X150369645Y-110270375D01*
X150369644Y-110270373D01*
X150369335Y-110258392D01*
X150369318Y-110258263D01*
X150367159Y-110175396D01*
X150367170Y-110175258D01*
X150365765Y-110121866D01*
X150365764Y-110121832D01*
X150364410Y-110069880D01*
X150364392Y-110069734D01*
X150362131Y-109983840D01*
X150362142Y-109983699D01*
X150360715Y-109930028D01*
X150360714Y-109929994D01*
X150359372Y-109879014D01*
X150359355Y-109878878D01*
X150357006Y-109790493D01*
X150357016Y-109790364D01*
X150355591Y-109737224D01*
X150355590Y-109737191D01*
X150354227Y-109685903D01*
X150354210Y-109685761D01*
X150351770Y-109594796D01*
X150351780Y-109594669D01*
X150351427Y-109581642D01*
X150351428Y-109581641D01*
X150350343Y-109541567D01*
X150350343Y-109541566D01*
X150350349Y-109541565D01*
X150350342Y-109541534D01*
X150349756Y-109519685D01*
X150349281Y-109501956D01*
X150349280Y-109501954D01*
X150348960Y-109490012D01*
X150348943Y-109489872D01*
X150346439Y-109397397D01*
X150346449Y-109397284D01*
X150346080Y-109383765D01*
X150346081Y-109383764D01*
X150344895Y-109340327D01*
X150343914Y-109304075D01*
X150343913Y-109304073D01*
X150343564Y-109291176D01*
X150343549Y-109291070D01*
X150340975Y-109196732D01*
X150340984Y-109196607D01*
X150339542Y-109144240D01*
X150339541Y-109144210D01*
X150338459Y-109104565D01*
X150338458Y-109104563D01*
X150338105Y-109091631D01*
X150338089Y-109091506D01*
X150337662Y-109076000D01*
X150335470Y-108996408D01*
X150335480Y-108996287D01*
X150333975Y-108942132D01*
X150333974Y-108942098D01*
X150332919Y-108903753D01*
X150332918Y-108903751D01*
X150332564Y-108890876D01*
X150332549Y-108890765D01*
X150329880Y-108794643D01*
X150329890Y-108794526D01*
X150328416Y-108741902D01*
X150328415Y-108741869D01*
X150326949Y-108689069D01*
X150326932Y-108688939D01*
X150324212Y-108591785D01*
X150324221Y-108591668D01*
X150323871Y-108579284D01*
X150323872Y-108579283D01*
X150322689Y-108537411D01*
X150322689Y-108537410D01*
X150322694Y-108537409D01*
X150322688Y-108537381D01*
X150321631Y-108499595D01*
X150321629Y-108499592D01*
X150321270Y-108486732D01*
X150321255Y-108486616D01*
X150318503Y-108389118D01*
X150318512Y-108388995D01*
X150318159Y-108376607D01*
X150318160Y-108376606D01*
X150317004Y-108335996D01*
X150315901Y-108296922D01*
X150315900Y-108296920D01*
X150315536Y-108284018D01*
X150315519Y-108283896D01*
X150312747Y-108186500D01*
X150312757Y-108186378D01*
X150311247Y-108133800D01*
X150311246Y-108133768D01*
X150310123Y-108094301D01*
X150310122Y-108094298D01*
X150309787Y-108082532D01*
X150309772Y-108082406D01*
X150306988Y-107985445D01*
X150306999Y-107985320D01*
X150305416Y-107930669D01*
X150305415Y-107930634D01*
X150304309Y-107892073D01*
X150304308Y-107892071D01*
X150303956Y-107879796D01*
X150303940Y-107879678D01*
X150301155Y-107783464D01*
X150301166Y-107783343D01*
X150299609Y-107730023D01*
X150299608Y-107729987D01*
X150299488Y-107725871D01*
X150298468Y-107690574D01*
X150298467Y-107690573D01*
X150298110Y-107678213D01*
X150298093Y-107678082D01*
X150295306Y-107582599D01*
X150295316Y-107582462D01*
X150293720Y-107528260D01*
X150293719Y-107528223D01*
X150292232Y-107477272D01*
X150292215Y-107477139D01*
X150289449Y-107383159D01*
X150289459Y-107383018D01*
X150287827Y-107328052D01*
X150287826Y-107328016D01*
X150286361Y-107278215D01*
X150286341Y-107278068D01*
X150283616Y-107186294D01*
X150283626Y-107186152D01*
X150282077Y-107134484D01*
X150282076Y-107134444D01*
X150280515Y-107081860D01*
X150280495Y-107081708D01*
X150277797Y-106991705D01*
X150277808Y-106991571D01*
X150277406Y-106978286D01*
X150277407Y-106978285D01*
X150276190Y-106938042D01*
X150275008Y-106898612D01*
X150275007Y-106898611D01*
X150274636Y-106886206D01*
X150274617Y-106886061D01*
X150271969Y-106798509D01*
X150271980Y-106798355D01*
X150270424Y-106747424D01*
X150270423Y-106747384D01*
X150268787Y-106693307D01*
X150268765Y-106693146D01*
X150266163Y-106607928D01*
X150266175Y-106607763D01*
X150264557Y-106555336D01*
X150264556Y-106555295D01*
X150262967Y-106503283D01*
X150262945Y-106503117D01*
X150260416Y-106421177D01*
X150260429Y-106421005D01*
X150258663Y-106364355D01*
X150258662Y-106364317D01*
X150258498Y-106359036D01*
X150257567Y-106328835D01*
X150257566Y-106328833D01*
X150257195Y-106316816D01*
X150257175Y-106316657D01*
X150254722Y-106237998D01*
X150254735Y-106237815D01*
X150254330Y-106224972D01*
X150253079Y-106185301D01*
X150253091Y-106185256D01*
X150253078Y-106185257D01*
X150251833Y-106145318D01*
X150251832Y-106145317D01*
X150251462Y-106133430D01*
X150251437Y-106133241D01*
X150249071Y-106058234D01*
X150249086Y-106058039D01*
X150247311Y-106002392D01*
X150247310Y-106002346D01*
X150245754Y-105953015D01*
X150245728Y-105952826D01*
X150243470Y-105882024D01*
X150243485Y-105881811D01*
X150241791Y-105829406D01*
X150241789Y-105829349D01*
X150240130Y-105777309D01*
X150240101Y-105777096D01*
X150237961Y-105710831D01*
X150237975Y-105710615D01*
X150237573Y-105698344D01*
X150237574Y-105698343D01*
X150236323Y-105660122D01*
X150236333Y-105660122D01*
X150236321Y-105660069D01*
X150234596Y-105606679D01*
X150234566Y-105606446D01*
X150232541Y-105544593D01*
X150232557Y-105544347D01*
X150232144Y-105531903D01*
X150232145Y-105531901D01*
X150230803Y-105491487D01*
X150229520Y-105452277D01*
X150229519Y-105452276D01*
X150229132Y-105440429D01*
X150229098Y-105440166D01*
X150228374Y-105418371D01*
X150227764Y-105400000D01*
X152500000Y-105400000D01*
X152500000Y-103200000D01*
X150200500Y-103158937D01*
X150200500Y-96750000D01*
X152500000Y-96750000D01*
X152500000Y-94550000D01*
X150230771Y-94509478D01*
X150230842Y-94507312D01*
X150232145Y-94468098D01*
X150232144Y-94468096D01*
X150232550Y-94455885D01*
X150232533Y-94455635D01*
X150234556Y-94393831D01*
X150234587Y-94393605D01*
X150234985Y-94381293D01*
X150236371Y-94338393D01*
X150236387Y-94338343D01*
X150236373Y-94338343D01*
X150236723Y-94327649D01*
X150237574Y-94301656D01*
X150237573Y-94301653D01*
X150237966Y-94289646D01*
X150237952Y-94289435D01*
X150240090Y-94223220D01*
X150240120Y-94223015D01*
X150241791Y-94170594D01*
X150241797Y-94170594D01*
X150241792Y-94170543D01*
X150243089Y-94130442D01*
X150243088Y-94130440D01*
X150243476Y-94118449D01*
X150243462Y-94118230D01*
X150245717Y-94047539D01*
X150245742Y-94047354D01*
X150246148Y-94034436D01*
X150246150Y-94034434D01*
X150247351Y-93996309D01*
X150247367Y-93996261D01*
X150247353Y-93996261D01*
X150249077Y-93942252D01*
X150249062Y-93942050D01*
X150251426Y-93867085D01*
X150251451Y-93866905D01*
X150251832Y-93854682D01*
X150251833Y-93854681D01*
X150253137Y-93812855D01*
X150253137Y-93812854D01*
X150253142Y-93812854D01*
X150253138Y-93812808D01*
X150253392Y-93804759D01*
X150254330Y-93775027D01*
X150254329Y-93775025D01*
X150254724Y-93762516D01*
X150254711Y-93762341D01*
X150257162Y-93683752D01*
X150257183Y-93683591D01*
X150258713Y-93634016D01*
X150258714Y-93633973D01*
X150258750Y-93632791D01*
X150260039Y-93591503D01*
X150260037Y-93591500D01*
X150260418Y-93579310D01*
X150260406Y-93579138D01*
X150262932Y-93497292D01*
X150262954Y-93497130D01*
X150264561Y-93444547D01*
X150264562Y-93444508D01*
X150266165Y-93392568D01*
X150266153Y-93392392D01*
X150266532Y-93380000D01*
X150268753Y-93307266D01*
X150268775Y-93307102D01*
X150270423Y-93252615D01*
X150270424Y-93252574D01*
X150271968Y-93202038D01*
X150271957Y-93201880D01*
X150272909Y-93170403D01*
X150274603Y-93114402D01*
X150274622Y-93114268D01*
X150276260Y-93059624D01*
X150276261Y-93059588D01*
X150277796Y-93008852D01*
X150277785Y-93008700D01*
X150280482Y-92918735D01*
X150280501Y-92918593D01*
X150282102Y-92864712D01*
X150282105Y-92864712D01*
X150282102Y-92864686D01*
X150283247Y-92826503D01*
X150283246Y-92826500D01*
X150283613Y-92814261D01*
X150283603Y-92814128D01*
X150286326Y-92722428D01*
X150286346Y-92722292D01*
X150287897Y-92669581D01*
X150287898Y-92669546D01*
X150288268Y-92657092D01*
X150289096Y-92629213D01*
X150289095Y-92629211D01*
X150289447Y-92617373D01*
X150289437Y-92617235D01*
X150292199Y-92523399D01*
X150292216Y-92523280D01*
X150293720Y-92471759D01*
X150293723Y-92471759D01*
X150293720Y-92471732D01*
X150294944Y-92430180D01*
X150294943Y-92430177D01*
X150295303Y-92417952D01*
X150295294Y-92417811D01*
X150298078Y-92322433D01*
X150298095Y-92322299D01*
X150299608Y-92270011D01*
X150299609Y-92269975D01*
X150301153Y-92217107D01*
X150301143Y-92216970D01*
X150302924Y-92155448D01*
X150303924Y-92120876D01*
X150303940Y-92120763D01*
X150304308Y-92107927D01*
X150304309Y-92107926D01*
X150305416Y-92069330D01*
X150306606Y-92028243D01*
X150306985Y-92015162D01*
X150306974Y-92015033D01*
X150309757Y-91918105D01*
X150309773Y-91917982D01*
X150310420Y-91895277D01*
X150311247Y-91866200D01*
X150311250Y-91866200D01*
X150311247Y-91866172D01*
X150312401Y-91826013D01*
X150312400Y-91826012D01*
X150312744Y-91814066D01*
X150312735Y-91813934D01*
X150315504Y-91716652D01*
X150315520Y-91716536D01*
X150315900Y-91703078D01*
X150315901Y-91703077D01*
X150317026Y-91663223D01*
X150317026Y-91663222D01*
X150317028Y-91663222D01*
X150317026Y-91663201D01*
X150318160Y-91623393D01*
X150318159Y-91623390D01*
X150318499Y-91611449D01*
X150318490Y-91611334D01*
X150321238Y-91513977D01*
X150321254Y-91513864D01*
X150322690Y-91462585D01*
X150322692Y-91462585D01*
X150322689Y-91462560D01*
X150323872Y-91420716D01*
X150323870Y-91420712D01*
X150324208Y-91408776D01*
X150324200Y-91408653D01*
X150326917Y-91311602D01*
X150326934Y-91311482D01*
X150328485Y-91255631D01*
X150328488Y-91255631D01*
X150328485Y-91255603D01*
X150329530Y-91218327D01*
X150329877Y-91205958D01*
X150329867Y-91205823D01*
X150329925Y-91203761D01*
X150332532Y-91109842D01*
X150332548Y-91109724D01*
X150333975Y-91057866D01*
X150333978Y-91057866D01*
X150333975Y-91057838D01*
X150335123Y-91016557D01*
X150335122Y-91016555D01*
X150335466Y-91004192D01*
X150335457Y-91004067D01*
X150336196Y-90977234D01*
X150338074Y-90909032D01*
X150338090Y-90908921D01*
X150338458Y-90895435D01*
X150338459Y-90895434D01*
X150339542Y-90855758D01*
X150339542Y-90855757D01*
X150339545Y-90855757D01*
X150339542Y-90855731D01*
X150340644Y-90815749D01*
X150340643Y-90815748D01*
X150340972Y-90803839D01*
X150340963Y-90803706D01*
X150342151Y-90760172D01*
X150343533Y-90709531D01*
X150343548Y-90709423D01*
X150343913Y-90695925D01*
X150343914Y-90695924D01*
X150344917Y-90658845D01*
X150344917Y-90658844D01*
X150344920Y-90658844D01*
X150344917Y-90658818D01*
X150346081Y-90616235D01*
X150346079Y-90616232D01*
X150346436Y-90603199D01*
X150346426Y-90603081D01*
X150348930Y-90510597D01*
X150348947Y-90510469D01*
X150349280Y-90498044D01*
X150349281Y-90498043D01*
X150350359Y-90457837D01*
X150350368Y-90457807D01*
X150350360Y-90457807D01*
X150351428Y-90418358D01*
X150351427Y-90418356D01*
X150351768Y-90405778D01*
X150351758Y-90405644D01*
X150354197Y-90314705D01*
X150354214Y-90314575D01*
X150354544Y-90302139D01*
X150354545Y-90302138D01*
X150355654Y-90260381D01*
X150355657Y-90260381D01*
X150355654Y-90260352D01*
X150356672Y-90222451D01*
X150356671Y-90222450D01*
X150357003Y-90210119D01*
X150356993Y-90209992D01*
X150359341Y-90121620D01*
X150359358Y-90121501D01*
X150359699Y-90108541D01*
X150359700Y-90108540D01*
X150360715Y-90069971D01*
X150360715Y-90069970D01*
X150360718Y-90069970D01*
X150360715Y-90069942D01*
X150361808Y-90028855D01*
X150362131Y-90016721D01*
X150362120Y-90016579D01*
X150364379Y-89930726D01*
X150364397Y-89930598D01*
X150364736Y-89917590D01*
X150364737Y-89917589D01*
X150365767Y-89878050D01*
X150365767Y-89878049D01*
X150365770Y-89878049D01*
X150365767Y-89878021D01*
X150366824Y-89837906D01*
X150366823Y-89837904D01*
X150367159Y-89825160D01*
X150367148Y-89825017D01*
X150367743Y-89802205D01*
X150369306Y-89742213D01*
X150369323Y-89742081D01*
X150369644Y-89729625D01*
X150369645Y-89729624D01*
X150370625Y-89691601D01*
X150370628Y-89691601D01*
X150370625Y-89691572D01*
X150371711Y-89649941D01*
X150371710Y-89649939D01*
X150372032Y-89637600D01*
X150372021Y-89637453D01*
X150372093Y-89634661D01*
X150393499Y-89568152D01*
X150408366Y-89550183D01*
X151221731Y-88736819D01*
X151283054Y-88703334D01*
X151309412Y-88700500D01*
X160376000Y-88700500D01*
X160443039Y-88720185D01*
G37*
%TD.AperFunction*%
%TD*%
%TA.AperFunction,Conductor*%
%TO.N,/IP2368 Buck-Boost-Converter/BAT*%
G36*
X198218039Y-88720185D02*
G01*
X198263794Y-88772989D01*
X198275000Y-88824500D01*
X198275000Y-92426000D01*
X198255315Y-92493039D01*
X198202511Y-92538794D01*
X198151000Y-92550000D01*
X196699999Y-92550000D01*
X196350000Y-92899999D01*
X196350000Y-97506503D01*
X196330315Y-97573542D01*
X196322828Y-97583965D01*
X196050000Y-97925000D01*
X196050000Y-97700000D01*
X194825000Y-97850000D01*
X194825000Y-102525000D01*
X196031364Y-102525000D01*
X196047705Y-103423746D01*
X196029242Y-103491132D01*
X195977278Y-103537839D01*
X195923725Y-103550000D01*
X191449000Y-103550000D01*
X191381961Y-103530315D01*
X191336206Y-103477511D01*
X191325000Y-103426000D01*
X191325000Y-102276362D01*
X191344685Y-102209323D01*
X191361319Y-102188681D01*
X191638681Y-101911319D01*
X191700004Y-101877834D01*
X191726362Y-101875000D01*
X192950000Y-101875000D01*
X192950000Y-97825000D01*
X190713667Y-97825000D01*
X190671016Y-97817434D01*
X190661169Y-97813826D01*
X191150000Y-97825000D01*
X191150000Y-96850000D01*
X186775000Y-96850000D01*
X186775000Y-97300000D01*
X184685020Y-97300000D01*
X184637567Y-97290561D01*
X184600000Y-97275000D01*
X184675000Y-97200000D01*
X184975000Y-97200000D01*
X184975000Y-96375000D01*
X184975000Y-96100000D01*
X184825000Y-95825000D01*
X184600000Y-95825000D01*
X184600000Y-92624000D01*
X184619685Y-92556961D01*
X184672489Y-92511206D01*
X184724000Y-92500000D01*
X193000000Y-92500000D01*
X193250000Y-92250000D01*
X193250000Y-88824500D01*
X193269685Y-88757461D01*
X193322489Y-88711706D01*
X193374000Y-88700500D01*
X198151000Y-88700500D01*
X198218039Y-88720185D01*
G37*
%TD.AperFunction*%
%TD*%
%TA.AperFunction,Conductor*%
%TO.N,+5V*%
G36*
X171168039Y-98944685D02*
G01*
X171213794Y-98997489D01*
X171225000Y-99049000D01*
X171225000Y-99647272D01*
X171225000Y-99701000D01*
X171205315Y-99768039D01*
X171152511Y-99813794D01*
X171101000Y-99825000D01*
X170899000Y-99825000D01*
X170831961Y-99805315D01*
X170786206Y-99752511D01*
X170775000Y-99701000D01*
X170775000Y-99650000D01*
X170775000Y-99049000D01*
X170794685Y-98981961D01*
X170847489Y-98936206D01*
X170899000Y-98925000D01*
X171101000Y-98925000D01*
X171168039Y-98944685D01*
G37*
%TD.AperFunction*%
%TD*%
%TA.AperFunction,Conductor*%
%TO.N,Net-(J1-Pin_1)*%
G36*
X199643039Y-96119685D02*
G01*
X199688794Y-96172489D01*
X199700000Y-96224000D01*
X199700000Y-99876000D01*
X199680315Y-99943039D01*
X199627511Y-99988794D01*
X199576000Y-100000000D01*
X197551362Y-100000000D01*
X197484323Y-99980315D01*
X197463681Y-99963681D01*
X196031906Y-98531906D01*
X195998421Y-98470583D01*
X196003405Y-98400891D01*
X196026140Y-98362717D01*
X197962938Y-96142486D01*
X198021842Y-96104907D01*
X198056381Y-96100000D01*
X199576000Y-96100000D01*
X199643039Y-96119685D01*
G37*
%TD.AperFunction*%
%TD*%
%TA.AperFunction,Conductor*%
%TO.N,/IP2368 Buck-Boost-Converter/CSP1*%
G36*
X170018039Y-98144685D02*
G01*
X170063794Y-98197489D01*
X170075000Y-98249000D01*
X170075000Y-98451000D01*
X170055315Y-98518039D01*
X170002511Y-98563794D01*
X169951000Y-98575000D01*
X169249000Y-98575000D01*
X169181961Y-98555315D01*
X169136206Y-98502511D01*
X169125000Y-98451000D01*
X169125000Y-98249000D01*
X169144685Y-98181961D01*
X169197489Y-98136206D01*
X169249000Y-98125000D01*
X169951000Y-98125000D01*
X170018039Y-98144685D01*
G37*
%TD.AperFunction*%
%TD*%
%TA.AperFunction,Conductor*%
%TO.N,+5V*%
G36*
X168743039Y-94469685D02*
G01*
X168788794Y-94522489D01*
X168800000Y-94574000D01*
X168800000Y-95276000D01*
X168780315Y-95343039D01*
X168727511Y-95388794D01*
X168676000Y-95400000D01*
X167974000Y-95400000D01*
X167906961Y-95380315D01*
X167861206Y-95327511D01*
X167850000Y-95276000D01*
X167850000Y-94574000D01*
X167869685Y-94506961D01*
X167922489Y-94461206D01*
X167974000Y-94450000D01*
X168676000Y-94450000D01*
X168743039Y-94469685D01*
G37*
%TD.AperFunction*%
%TD*%
%TA.AperFunction,Conductor*%
%TO.N,/IP2368 Buck-Boost-Converter/HB1*%
G36*
X181568039Y-104319685D02*
G01*
X181613794Y-104372489D01*
X181625000Y-104424000D01*
X181625000Y-109176000D01*
X181605315Y-109243039D01*
X181552511Y-109288794D01*
X181501000Y-109300000D01*
X181249999Y-109300000D01*
X181050000Y-109499999D01*
X181050000Y-111175500D01*
X181030315Y-111242539D01*
X180977511Y-111288294D01*
X180926000Y-111299500D01*
X173899000Y-111299500D01*
X173831961Y-111279815D01*
X173786206Y-111227011D01*
X173775000Y-111175500D01*
X173775000Y-109724000D01*
X173794685Y-109656961D01*
X173847489Y-109611206D01*
X173899000Y-109600000D01*
X178400000Y-109600000D01*
X178575000Y-109400000D01*
X178575000Y-104424000D01*
X178594685Y-104356961D01*
X178647489Y-104311206D01*
X178699000Y-104300000D01*
X181501000Y-104300000D01*
X181568039Y-104319685D01*
G37*
%TD.AperFunction*%
%TD*%
%TA.AperFunction,Conductor*%
%TO.N,/Battery Interface/VBAT*%
G36*
X199742539Y-90419685D02*
G01*
X199788294Y-90472489D01*
X199799500Y-90524000D01*
X199799500Y-94451000D01*
X199779815Y-94518039D01*
X199727011Y-94563794D01*
X199675500Y-94575000D01*
X197824000Y-94575000D01*
X197756961Y-94555315D01*
X197711206Y-94502511D01*
X197700000Y-94451000D01*
X197700000Y-93024000D01*
X197719685Y-92956961D01*
X197772489Y-92911206D01*
X197824000Y-92900000D01*
X198525000Y-92900000D01*
X198525000Y-90524000D01*
X198544685Y-90456961D01*
X198597489Y-90411206D01*
X198649000Y-90400000D01*
X199675500Y-90400000D01*
X199742539Y-90419685D01*
G37*
%TD.AperFunction*%
%TD*%
%TA.AperFunction,Conductor*%
%TO.N,GND*%
G36*
X154181186Y-103260066D02*
G01*
X154273018Y-103351898D01*
X154306503Y-103413221D01*
X154301519Y-103482913D01*
X154259647Y-103538846D01*
X154232793Y-103554139D01*
X154202371Y-103566740D01*
X154063160Y-103659758D01*
X154063152Y-103659764D01*
X153944764Y-103778152D01*
X153944758Y-103778160D01*
X153851740Y-103917371D01*
X153851740Y-103917372D01*
X153788520Y-104069999D01*
X153788520Y-104070000D01*
X154438012Y-104070000D01*
X154420795Y-104079940D01*
X154364940Y-104135795D01*
X154325444Y-104204204D01*
X154305000Y-104280504D01*
X154305000Y-104359496D01*
X154325444Y-104435796D01*
X154364940Y-104504205D01*
X154420795Y-104560060D01*
X154438012Y-104570000D01*
X153788520Y-104570000D01*
X153851740Y-104722627D01*
X153851740Y-104722628D01*
X153944758Y-104861839D01*
X153944764Y-104861847D01*
X154015326Y-104932409D01*
X153339908Y-104941662D01*
X153489908Y-103221662D01*
X154181186Y-103260066D01*
G37*
%TD.AperFunction*%
%TA.AperFunction,Conductor*%
G36*
X156439908Y-103671662D02*
G01*
X156989908Y-103671662D01*
X156989908Y-104891662D01*
X156326328Y-104900752D01*
X156365240Y-104861841D01*
X156365241Y-104861839D01*
X156458259Y-104722628D01*
X156458259Y-104722627D01*
X156521480Y-104570000D01*
X155871988Y-104570000D01*
X155889205Y-104560060D01*
X155945060Y-104504205D01*
X155984556Y-104435796D01*
X156005000Y-104359496D01*
X156005000Y-104280504D01*
X155984556Y-104204204D01*
X155945060Y-104135795D01*
X155889205Y-104079940D01*
X155871988Y-104070000D01*
X156521480Y-104070000D01*
X156521479Y-104069999D01*
X156458259Y-103917372D01*
X156458259Y-103917371D01*
X156365241Y-103778160D01*
X156365235Y-103778152D01*
X156246847Y-103659764D01*
X156246839Y-103659758D01*
X156107628Y-103566740D01*
X155952936Y-103502665D01*
X155952928Y-103502663D01*
X155788721Y-103470000D01*
X155405000Y-103470000D01*
X155405000Y-104020000D01*
X154905000Y-104020000D01*
X154905000Y-103464463D01*
X154924685Y-103397424D01*
X154966998Y-103357077D01*
X154978365Y-103350515D01*
X155022096Y-103306783D01*
X155289908Y-103321662D01*
X155789908Y-103271662D01*
X156439908Y-103671662D01*
G37*
%TD.AperFunction*%
%TD*%
%TA.AperFunction,Conductor*%
%TO.N,GND*%
G36*
X154416204Y-94850900D02*
G01*
X154357069Y-94862663D01*
X154357063Y-94862665D01*
X154202372Y-94926740D01*
X154202371Y-94926740D01*
X154063160Y-95019758D01*
X154063152Y-95019764D01*
X153944764Y-95138152D01*
X153944758Y-95138160D01*
X153851740Y-95277371D01*
X153851740Y-95277372D01*
X153788520Y-95429999D01*
X153788520Y-95430000D01*
X154438012Y-95430000D01*
X154420795Y-95439940D01*
X154364940Y-95495795D01*
X154325444Y-95564204D01*
X154305000Y-95640504D01*
X154305000Y-95719496D01*
X154325444Y-95795796D01*
X154364940Y-95864205D01*
X154420795Y-95920060D01*
X154438012Y-95930000D01*
X153788520Y-95930000D01*
X153851740Y-96082627D01*
X153851740Y-96082628D01*
X153944758Y-96221839D01*
X153944764Y-96221847D01*
X154063152Y-96340235D01*
X154063160Y-96340241D01*
X154202372Y-96433259D01*
X154232790Y-96445859D01*
X154287193Y-96489700D01*
X154309258Y-96555994D01*
X154291979Y-96623694D01*
X154273019Y-96648101D01*
X154164485Y-96756635D01*
X154088719Y-96887863D01*
X154073803Y-96943532D01*
X154056503Y-97008094D01*
X154020140Y-97067754D01*
X153957294Y-97098283D01*
X153936730Y-97100000D01*
X153350000Y-97100000D01*
X153500000Y-94800000D01*
X154416204Y-94850900D01*
G37*
%TD.AperFunction*%
%TA.AperFunction,Conductor*%
G36*
X156450000Y-95250000D02*
G01*
X156800000Y-95250000D01*
X156800000Y-97050000D01*
X156786819Y-97063181D01*
X156725496Y-97096666D01*
X156699138Y-97099500D01*
X155329190Y-97099500D01*
X155319012Y-97100000D01*
X155313270Y-97100000D01*
X155246231Y-97080315D01*
X155200476Y-97027511D01*
X155193497Y-97008099D01*
X155161281Y-96887865D01*
X155085515Y-96756635D01*
X154978365Y-96649485D01*
X154966998Y-96642922D01*
X154918783Y-96592354D01*
X154905000Y-96535536D01*
X154905000Y-95980000D01*
X155405000Y-95980000D01*
X155405000Y-96530000D01*
X155788720Y-96530000D01*
X155788722Y-96529999D01*
X155952928Y-96497336D01*
X155952936Y-96497334D01*
X156107627Y-96433259D01*
X156107628Y-96433259D01*
X156246839Y-96340241D01*
X156246847Y-96340235D01*
X156365235Y-96221847D01*
X156365241Y-96221839D01*
X156458259Y-96082628D01*
X156458259Y-96082627D01*
X156521480Y-95930000D01*
X155871988Y-95930000D01*
X155889205Y-95920060D01*
X155945060Y-95864205D01*
X155984556Y-95795796D01*
X156005000Y-95719496D01*
X156005000Y-95640504D01*
X155984556Y-95564204D01*
X155945060Y-95495795D01*
X155889205Y-95439940D01*
X155871988Y-95430000D01*
X156521480Y-95430000D01*
X156521479Y-95429999D01*
X156458260Y-95277375D01*
X156432964Y-95239516D01*
X156450000Y-95250000D01*
G37*
%TD.AperFunction*%
%TD*%
%TA.AperFunction,Conductor*%
%TO.N,GND*%
G36*
X152500000Y-94550000D02*
G01*
X152500000Y-96750000D01*
X150200919Y-96750000D01*
X150220185Y-96684388D01*
X150272989Y-96638633D01*
X150342147Y-96628689D01*
X150371954Y-96636866D01*
X150383314Y-96641571D01*
X150383318Y-96641572D01*
X150576504Y-96679999D01*
X150576508Y-96680000D01*
X150725000Y-96680000D01*
X150725000Y-95980000D01*
X151225000Y-95980000D01*
X151225000Y-96680000D01*
X151373492Y-96680000D01*
X151373495Y-96679999D01*
X151566681Y-96641572D01*
X151566693Y-96641569D01*
X151748671Y-96566192D01*
X151748684Y-96566185D01*
X151912462Y-96456751D01*
X151912466Y-96456748D01*
X152051748Y-96317466D01*
X152051751Y-96317462D01*
X152161185Y-96153684D01*
X152161192Y-96153671D01*
X152236569Y-95971692D01*
X152236569Y-95971690D01*
X152244862Y-95930000D01*
X151441988Y-95930000D01*
X151459205Y-95920060D01*
X151515060Y-95864205D01*
X151554556Y-95795796D01*
X151575000Y-95719496D01*
X151575000Y-95640504D01*
X151554556Y-95564204D01*
X151515060Y-95495795D01*
X151459205Y-95439940D01*
X151441988Y-95430000D01*
X152244862Y-95430000D01*
X152236569Y-95388309D01*
X152236569Y-95388307D01*
X152161192Y-95206328D01*
X152161185Y-95206315D01*
X152051751Y-95042537D01*
X152051748Y-95042533D01*
X151912466Y-94903251D01*
X151912462Y-94903248D01*
X151748684Y-94793814D01*
X151748671Y-94793807D01*
X151566693Y-94718430D01*
X151566681Y-94718427D01*
X151373495Y-94680000D01*
X151225000Y-94680000D01*
X151225000Y-95380000D01*
X150725000Y-95380000D01*
X150725000Y-94680000D01*
X150576504Y-94680000D01*
X150377337Y-94719617D01*
X150376845Y-94717144D01*
X150317996Y-94717661D01*
X150258889Y-94680403D01*
X150229308Y-94617104D01*
X150227954Y-94594264D01*
X150229090Y-94560077D01*
X150229123Y-94559828D01*
X150229519Y-94547723D01*
X150229520Y-94547722D01*
X150230771Y-94509477D01*
X152500000Y-94550000D01*
G37*
%TD.AperFunction*%
%TD*%
%TA.AperFunction,Conductor*%
%TO.N,GND*%
G36*
X152500000Y-103200000D02*
G01*
X152500000Y-105400000D01*
X150229433Y-105400000D01*
X150245402Y-105338080D01*
X150296657Y-105290596D01*
X150365447Y-105278362D01*
X150377256Y-105280781D01*
X150377336Y-105280383D01*
X150576504Y-105319999D01*
X150576508Y-105320000D01*
X150725000Y-105320000D01*
X150725000Y-104620000D01*
X151225000Y-104620000D01*
X151225000Y-105320000D01*
X151373492Y-105320000D01*
X151373495Y-105319999D01*
X151566681Y-105281572D01*
X151566693Y-105281569D01*
X151748671Y-105206192D01*
X151748684Y-105206185D01*
X151912462Y-105096751D01*
X151912466Y-105096748D01*
X152051748Y-104957466D01*
X152051751Y-104957462D01*
X152161185Y-104793684D01*
X152161192Y-104793671D01*
X152236569Y-104611692D01*
X152236569Y-104611690D01*
X152244862Y-104570000D01*
X151441988Y-104570000D01*
X151459205Y-104560060D01*
X151515060Y-104504205D01*
X151554556Y-104435796D01*
X151575000Y-104359496D01*
X151575000Y-104280504D01*
X151554556Y-104204204D01*
X151515060Y-104135795D01*
X151459205Y-104079940D01*
X151441988Y-104070000D01*
X152244862Y-104070000D01*
X152236569Y-104028309D01*
X152236569Y-104028307D01*
X152161192Y-103846328D01*
X152161185Y-103846315D01*
X152051751Y-103682537D01*
X152051748Y-103682533D01*
X151912466Y-103543251D01*
X151912462Y-103543248D01*
X151748684Y-103433814D01*
X151748671Y-103433807D01*
X151566693Y-103358430D01*
X151566681Y-103358427D01*
X151373495Y-103320000D01*
X151225000Y-103320000D01*
X151225000Y-104020000D01*
X150725000Y-104020000D01*
X150725000Y-103320000D01*
X150576504Y-103320000D01*
X150383318Y-103358427D01*
X150383307Y-103358430D01*
X150371948Y-103363135D01*
X150302478Y-103370601D01*
X150240000Y-103339323D01*
X150204350Y-103279233D01*
X150200500Y-103248572D01*
X150200500Y-103158937D01*
X152500000Y-103200000D01*
G37*
%TD.AperFunction*%
%TD*%
%TA.AperFunction,Conductor*%
%TO.N,/IP2368 Buck-Boost-Converter/HB2*%
G36*
X187843039Y-104319685D02*
G01*
X187888794Y-104372489D01*
X187900000Y-104424000D01*
X187900000Y-109400000D01*
X188100000Y-109600000D01*
X190276000Y-109600000D01*
X190343039Y-109619685D01*
X190388794Y-109672489D01*
X190400000Y-109724000D01*
X190400000Y-111175500D01*
X190380315Y-111242539D01*
X190327511Y-111288294D01*
X190276000Y-111299500D01*
X183924000Y-111299500D01*
X183856961Y-111279815D01*
X183811206Y-111227011D01*
X183800000Y-111175500D01*
X183800000Y-109724000D01*
X183819685Y-109656961D01*
X183872489Y-109611206D01*
X183924000Y-109600000D01*
X184700000Y-109600000D01*
X184900000Y-109400000D01*
X184900000Y-104424000D01*
X184919685Y-104356961D01*
X184972489Y-104311206D01*
X185024000Y-104300000D01*
X187776000Y-104300000D01*
X187843039Y-104319685D01*
G37*
%TD.AperFunction*%
%TD*%
%TA.AperFunction,Conductor*%
%TO.N,/IP2368 Buck-Boost-Converter/CSP1*%
G36*
X165441177Y-92745185D02*
G01*
X165461819Y-92761819D01*
X167563291Y-94863291D01*
X167596776Y-94924614D01*
X167599606Y-94951911D01*
X167552704Y-101142814D01*
X167532513Y-101209703D01*
X167505182Y-101239485D01*
X167362792Y-101351042D01*
X167362775Y-101351056D01*
X167344203Y-101367510D01*
X167117510Y-101594203D01*
X167101057Y-101612774D01*
X166903338Y-101865142D01*
X166889253Y-101885548D01*
X166889237Y-101885573D01*
X166723387Y-102159922D01*
X166711859Y-102181885D01*
X166580284Y-102474234D01*
X166580283Y-102474236D01*
X166571494Y-102497409D01*
X166571481Y-102497448D01*
X166476109Y-102803503D01*
X166470169Y-102827603D01*
X166412380Y-103142939D01*
X166409387Y-103167586D01*
X166390031Y-103487593D01*
X166390031Y-103487600D01*
X166390141Y-103488936D01*
X166390389Y-103505469D01*
X166390030Y-103512397D01*
X166409387Y-103832413D01*
X166412380Y-103857060D01*
X166432070Y-103964500D01*
X166470167Y-104172388D01*
X166470169Y-104172396D01*
X166476109Y-104196496D01*
X166571481Y-104502551D01*
X166571494Y-104502590D01*
X166580277Y-104525749D01*
X166580279Y-104525753D01*
X166580282Y-104525760D01*
X166589075Y-104545299D01*
X166600000Y-104596188D01*
X166600000Y-104600000D01*
X166608831Y-104608831D01*
X166634225Y-104645620D01*
X166711853Y-104818102D01*
X166711857Y-104818111D01*
X166722431Y-104838255D01*
X166723389Y-104840081D01*
X166820366Y-105000500D01*
X166889237Y-105114426D01*
X166889253Y-105114451D01*
X166903338Y-105134857D01*
X167101057Y-105387225D01*
X167117510Y-105405796D01*
X167120458Y-105408744D01*
X166430000Y-105410000D01*
X167830000Y-106520000D01*
X171170000Y-106520000D01*
X171930000Y-105400000D01*
X171431213Y-105400906D01*
X171439648Y-105400000D01*
X172423638Y-105400000D01*
X172490677Y-105419685D01*
X172511319Y-105436319D01*
X172638681Y-105563681D01*
X172672166Y-105625004D01*
X172675000Y-105651362D01*
X172675000Y-107400000D01*
X173013681Y-107738681D01*
X173047166Y-107800004D01*
X173050000Y-107826362D01*
X173050000Y-109076000D01*
X173030315Y-109143039D01*
X172977511Y-109188794D01*
X172926000Y-109200000D01*
X164451362Y-109200000D01*
X164384323Y-109180315D01*
X164363681Y-109163681D01*
X162836319Y-107636319D01*
X162802834Y-107574996D01*
X162800000Y-107548638D01*
X162800000Y-98900000D01*
X162436319Y-98536319D01*
X162402834Y-98474996D01*
X162400000Y-98448638D01*
X162400000Y-92849500D01*
X162419685Y-92782461D01*
X162472489Y-92736706D01*
X162524000Y-92725500D01*
X165374138Y-92725500D01*
X165441177Y-92745185D01*
G37*
%TD.AperFunction*%
%TD*%
M02*
