%TF.GenerationSoftware,KiCad,Pcbnew,8.0.3*%
%TF.CreationDate,2024-10-12T12:31:44+02:00*%
%TF.ProjectId,Parkside-100W-Brick,5061726b-7369-4646-952d-313030572d42,rev?*%
%TF.SameCoordinates,Original*%
%TF.FileFunction,Copper,L3,Inr*%
%TF.FilePolarity,Positive*%
%FSLAX46Y46*%
G04 Gerber Fmt 4.6, Leading zero omitted, Abs format (unit mm)*
G04 Created by KiCad (PCBNEW 8.0.3) date 2024-10-12 12:31:44*
%MOMM*%
%LPD*%
G01*
G04 APERTURE LIST*
%TA.AperFunction,ComponentPad*%
%ADD10C,0.700000*%
%TD*%
%TA.AperFunction,ComponentPad*%
%ADD11C,4.400000*%
%TD*%
%TA.AperFunction,ComponentPad*%
%ADD12O,2.100000X1.000000*%
%TD*%
%TA.AperFunction,ComponentPad*%
%ADD13O,1.600000X1.000000*%
%TD*%
%TA.AperFunction,ComponentPad*%
%ADD14R,6.500000X1.500000*%
%TD*%
%TA.AperFunction,ViaPad*%
%ADD15C,0.600000*%
%TD*%
%TA.AperFunction,ViaPad*%
%ADD16C,0.450000*%
%TD*%
%TA.AperFunction,Conductor*%
%ADD17C,0.200000*%
%TD*%
%TA.AperFunction,Conductor*%
%ADD18C,0.250000*%
%TD*%
%TA.AperFunction,Conductor*%
%ADD19C,0.172000*%
%TD*%
%TA.AperFunction,Conductor*%
%ADD20C,0.125000*%
%TD*%
%TA.AperFunction,Conductor*%
%ADD21C,0.500000*%
%TD*%
G04 APERTURE END LIST*
D10*
%TO.N,Net-(J1-Pin_1)*%
%TO.C,J1*%
X195850000Y-100000000D03*
X196333274Y-98833274D03*
X196333274Y-101166726D03*
X197500000Y-98350000D03*
D11*
X197500000Y-100000000D03*
D10*
X197500000Y-101650000D03*
X198666726Y-98833274D03*
X198666726Y-101166726D03*
X199150000Y-100000000D03*
%TD*%
D12*
%TO.N,GND*%
%TO.C,J2*%
X155155000Y-95680000D03*
D13*
X150975000Y-95680000D03*
D12*
X155155000Y-104320000D03*
D13*
X150975000Y-104320000D03*
%TD*%
D10*
%TO.N,GND*%
%TO.C,J3*%
X156230000Y-90850000D03*
X157396726Y-91333274D03*
X155063274Y-91333274D03*
X157880000Y-92500000D03*
D11*
X156230000Y-92500000D03*
D10*
X154580000Y-92500000D03*
X157396726Y-93666726D03*
X155063274Y-93666726D03*
X156230000Y-94150000D03*
%TD*%
%TO.N,GND*%
%TO.C,J6*%
X156230000Y-109150000D03*
X155063274Y-108666726D03*
X157396726Y-108666726D03*
X154580000Y-107500000D03*
D11*
X156230000Y-107500000D03*
D10*
X157880000Y-107500000D03*
X155063274Y-106333274D03*
X157396726Y-106333274D03*
X156230000Y-105850000D03*
%TD*%
D14*
%TO.N,/IP2368 Buck-Boost-Converter/HB2*%
%TO.C,L1*%
X187100000Y-110500000D03*
%TO.N,/IP2368 Buck-Boost-Converter/HB1*%
X177100000Y-110500000D03*
%TD*%
D15*
%TO.N,GND*%
X163500000Y-110500000D03*
X189000000Y-91500000D03*
X152500000Y-101500000D03*
X177000000Y-96000000D03*
X173000000Y-95000000D03*
X159000000Y-110500000D03*
X151500000Y-92500000D03*
X190275352Y-98975000D03*
X162000000Y-109000000D03*
X183000000Y-94500000D03*
X169250000Y-101450000D03*
X175000000Y-97000000D03*
X192200000Y-91600000D03*
X152500000Y-98500000D03*
X189525000Y-101775352D03*
X160500000Y-101500000D03*
D16*
X195025000Y-109200000D03*
D15*
X182200000Y-107025000D03*
X182933333Y-105700000D03*
X151500000Y-94000000D03*
X157500000Y-89500000D03*
X153000000Y-92500000D03*
X159000000Y-104500000D03*
X181100000Y-99600000D03*
D16*
X169550000Y-99850000D03*
D15*
X177000000Y-94000000D03*
X181500000Y-90000000D03*
X199500000Y-110500000D03*
X172500000Y-89190000D03*
X180400000Y-89200000D03*
X151500000Y-109000000D03*
X173000000Y-94000000D03*
X161850000Y-100100000D03*
X153000000Y-110500000D03*
X189000000Y-90000000D03*
X173000000Y-96000000D03*
X186000000Y-90000000D03*
X185800000Y-98800000D03*
X153000000Y-95500000D03*
X177000000Y-97000000D03*
X151000000Y-100000000D03*
X154500000Y-110500000D03*
X152500000Y-100000000D03*
X152500000Y-103000000D03*
X171025352Y-102475000D03*
X151500000Y-107500000D03*
X171000000Y-110500000D03*
X185250000Y-91600000D03*
X178800000Y-89200000D03*
X175000000Y-95000000D03*
X166500000Y-110500000D03*
X159500000Y-107000000D03*
X157750000Y-95000000D03*
X181500000Y-94500000D03*
D16*
X169850000Y-92275000D03*
D15*
X181100000Y-98800000D03*
X151000000Y-101500000D03*
X183000000Y-90000000D03*
X151000000Y-97000000D03*
X192200000Y-89200000D03*
X185800000Y-99600000D03*
X153000000Y-107500000D03*
X153000000Y-89500000D03*
X181500000Y-93000000D03*
X186000000Y-91500000D03*
X159000000Y-106000000D03*
X182933333Y-106350000D03*
X182200000Y-106350000D03*
X181100000Y-98000000D03*
X174000000Y-94000000D03*
X154500000Y-89500000D03*
X182200000Y-107700000D03*
X152500000Y-97000000D03*
X187500000Y-90000000D03*
X169250000Y-105550000D03*
X192200000Y-90000000D03*
X183666666Y-107025000D03*
X174000000Y-93000000D03*
X199500000Y-102900000D03*
X181900000Y-99600000D03*
X175000000Y-93000000D03*
X188500000Y-102050000D03*
X190550000Y-100000000D03*
X182933333Y-107025000D03*
X190275352Y-101025000D03*
X173000000Y-93000000D03*
X181900000Y-100400000D03*
X151500000Y-91000000D03*
X185250000Y-90800000D03*
X185250000Y-89200000D03*
X190500000Y-90000000D03*
X167474648Y-102475000D03*
X184500000Y-90000000D03*
X186724648Y-98975000D03*
X151500000Y-106000000D03*
X160300000Y-107000000D03*
X175000000Y-94000000D03*
D16*
X168675000Y-100275000D03*
D15*
X161100000Y-107000000D03*
X160500000Y-110500000D03*
X183666666Y-107700000D03*
X183666666Y-105700000D03*
X153000000Y-104500000D03*
X181900000Y-98000000D03*
X183000000Y-91500000D03*
X176000000Y-96000000D03*
X198300000Y-102900000D03*
X162000000Y-106000000D03*
X157500000Y-104500000D03*
X162000000Y-101500000D03*
X174000000Y-96000000D03*
X165000000Y-110500000D03*
X160500000Y-104500000D03*
X171300000Y-103500000D03*
X173000000Y-97000000D03*
X181500000Y-91500000D03*
X157500000Y-110500000D03*
X174000000Y-95000000D03*
X176000000Y-97000000D03*
X176000000Y-94000000D03*
X182925000Y-108375000D03*
X160900000Y-99300000D03*
D16*
X168075000Y-100275000D03*
D15*
X182933333Y-107700000D03*
X182200000Y-105700000D03*
X158500000Y-95000000D03*
X181100000Y-100400000D03*
X160500000Y-103000000D03*
X151500000Y-110500000D03*
X157000000Y-95000000D03*
D16*
X169350000Y-96775000D03*
D15*
X181900000Y-98800000D03*
X158500000Y-95750000D03*
X198300000Y-110500000D03*
X162000000Y-110500000D03*
X153000000Y-94000000D03*
X187475000Y-98224648D03*
X170275000Y-105275352D03*
X168000000Y-110500000D03*
X176000000Y-93000000D03*
X162000000Y-103000000D03*
X177000000Y-95000000D03*
X185000000Y-98000000D03*
X186724648Y-101025000D03*
X177000000Y-93000000D03*
X153000000Y-91000000D03*
X187475000Y-101775352D03*
X159000000Y-109000000D03*
X183666666Y-106350000D03*
X157750000Y-95750000D03*
X172500000Y-110500000D03*
X185250000Y-90000000D03*
X174000000Y-97000000D03*
X159000000Y-101500000D03*
X168225000Y-105275352D03*
X168225000Y-101724648D03*
X192200000Y-99300000D03*
X192200000Y-101200000D03*
X156000000Y-110500000D03*
X166962500Y-90350000D03*
X185800000Y-98000000D03*
X192200000Y-98400000D03*
X185000000Y-98800000D03*
D16*
X169850000Y-96775000D03*
D15*
X189525000Y-98224648D03*
X167474648Y-104525000D03*
X160500000Y-109000000D03*
X158800000Y-98850000D03*
X160500000Y-106000000D03*
X162000000Y-104500000D03*
X175000000Y-96000000D03*
X176000000Y-95000000D03*
X192200000Y-100300000D03*
X183666666Y-105050000D03*
X167200000Y-103500000D03*
X187500000Y-91500000D03*
X192200000Y-90800000D03*
X153000000Y-106000000D03*
X185000000Y-99600000D03*
X177800000Y-89200000D03*
X159000000Y-103000000D03*
X151000000Y-103000000D03*
D16*
X170900000Y-100450000D03*
D15*
X179050000Y-103300000D03*
X173650000Y-103300000D03*
X188500000Y-97950000D03*
X151000000Y-98500000D03*
X191750000Y-108750000D03*
X184500000Y-91500000D03*
X151500000Y-89500000D03*
X161900000Y-107000000D03*
X183000000Y-93000000D03*
X182850000Y-110850000D03*
X157000000Y-95750000D03*
X169500000Y-110500000D03*
X161050000Y-100100000D03*
X158500000Y-94250000D03*
X182191666Y-108375000D03*
X160250000Y-100100000D03*
X186450000Y-100000000D03*
X190500000Y-91500000D03*
X171025352Y-104525000D03*
X156000000Y-89500000D03*
X153000000Y-109000000D03*
X170275000Y-101724648D03*
%TO.N,Net-(J1-Pin_1)*%
X198100000Y-96400000D03*
X198100000Y-97050000D03*
X199400000Y-96400000D03*
X198750000Y-97700000D03*
X198750000Y-97050000D03*
X199400000Y-97050000D03*
X199400000Y-97700000D03*
X199400000Y-98350000D03*
X198750000Y-96400000D03*
%TO.N,/IP2368 Buck-Boost-Converter/HB2*%
X186750000Y-107000000D03*
X186750000Y-108500000D03*
X186000000Y-104750000D03*
X187500000Y-104750000D03*
X185250000Y-107750000D03*
X186750000Y-107750000D03*
X186000000Y-107000000D03*
X186000000Y-106250000D03*
X186750000Y-105500000D03*
X186000000Y-105500000D03*
X187500000Y-107750000D03*
X187500000Y-107000000D03*
X187500000Y-106250000D03*
X186000000Y-108500000D03*
X185250000Y-108500000D03*
X186750000Y-104750000D03*
D16*
X176220000Y-99800000D03*
D15*
X185250000Y-105500000D03*
X187500000Y-108500000D03*
X185250000Y-106250000D03*
X185250000Y-104750000D03*
X187500000Y-105500000D03*
X186750000Y-106250000D03*
X186000000Y-107750000D03*
X185250000Y-107000000D03*
%TO.N,/IP2368 Buck-Boost-Converter/HB1*%
X179000000Y-109250000D03*
X181250000Y-104750000D03*
X179750000Y-107000000D03*
X181250000Y-106250000D03*
X179000000Y-107750000D03*
X181250000Y-107000000D03*
X179000000Y-107000000D03*
X179750000Y-107750000D03*
X180500000Y-109250000D03*
X180500000Y-107000000D03*
X179750000Y-106250000D03*
X179000000Y-104750000D03*
X180500000Y-105500000D03*
X179750000Y-104750000D03*
X179750000Y-108500000D03*
D16*
X174980000Y-99800000D03*
D15*
X180500000Y-107750000D03*
X180500000Y-104750000D03*
X181250000Y-105500000D03*
X179750000Y-109250000D03*
X179000000Y-106250000D03*
X181250000Y-108500000D03*
X179000000Y-105500000D03*
X180500000Y-108500000D03*
X180500000Y-106250000D03*
X181250000Y-107750000D03*
X179000000Y-108500000D03*
X179750000Y-105500000D03*
D16*
%TO.N,/Battery Interface/I^{2}C_INT*%
X195025000Y-108200000D03*
X170600000Y-93510000D03*
%TO.N,+5V*%
X185300000Y-103500000D03*
X184750000Y-102700000D03*
X184750000Y-103500000D03*
X168075000Y-95175000D03*
D15*
X177250000Y-103300000D03*
X175450000Y-103300000D03*
D16*
X168075000Y-94675000D03*
X171000000Y-99150000D03*
X168575000Y-94675000D03*
X168575000Y-95175000D03*
X185300000Y-102700000D03*
X171000000Y-99600000D03*
X185025000Y-103100000D03*
%TO.N,/IP2368 Buck-Boost-Converter/HLED*%
X170600000Y-94275000D03*
X165450000Y-90210000D03*
%TO.N,/Connector/PORT1_D+*%
X157875000Y-100800000D03*
X176725000Y-89825000D03*
D15*
%TO.N,/Connector/PORT1_CC2*%
X166962500Y-89550000D03*
D16*
X157850000Y-101800000D03*
X177175000Y-90950000D03*
%TO.N,/Connector/PORT1_CC1*%
X157850000Y-98800000D03*
X175675000Y-90950000D03*
D15*
X159862500Y-89400000D03*
%TO.N,/IP2368 Buck-Boost-Converter/HB_IN*%
X176500000Y-105750000D03*
X175000000Y-108750000D03*
X175000000Y-108000000D03*
X175750000Y-105750000D03*
X175750000Y-106500000D03*
X176500000Y-107250000D03*
X175750000Y-108000000D03*
X178000000Y-108750000D03*
X178000000Y-108000000D03*
X176500000Y-108000000D03*
X175000000Y-106500000D03*
X175750000Y-108750000D03*
X176500000Y-108750000D03*
D16*
X173175000Y-98900000D03*
D15*
X177250000Y-108750000D03*
X175750000Y-107250000D03*
X177250000Y-108000000D03*
X178000000Y-107250000D03*
X176500000Y-106500000D03*
X177250000Y-106500000D03*
X177250000Y-105750000D03*
X175000000Y-107250000D03*
X178000000Y-105000000D03*
X178000000Y-105750000D03*
X175000000Y-105750000D03*
X178000000Y-106500000D03*
X177250000Y-107250000D03*
D16*
%TO.N,/IP2368 Buck-Boost-Converter/LG2*%
X175680000Y-98895000D03*
D15*
X184090005Y-108605004D03*
%TO.N,/IP2368 Buck-Boost-Converter/HB_BAT*%
X190250000Y-107000000D03*
D16*
X192300000Y-104600000D03*
D15*
X190250000Y-104750000D03*
X188750000Y-106250000D03*
X188750000Y-107750000D03*
X189500000Y-104750000D03*
X189500000Y-107000000D03*
X188750000Y-105500000D03*
X188750000Y-104750000D03*
D16*
X180335000Y-99620000D03*
D15*
X189500000Y-106250000D03*
X190250000Y-106250000D03*
D16*
X177800000Y-98900000D03*
D15*
X190250000Y-105500000D03*
X188750000Y-107000000D03*
X189500000Y-105500000D03*
D16*
%TO.N,/IP2368 Buck-Boost-Converter/HG2*%
X177200000Y-98900000D03*
D15*
X190009995Y-108605004D03*
D16*
%TO.N,/Connector/PORT1_D-*%
X157850000Y-99800000D03*
X176125000Y-89814070D03*
D15*
%TO.N,/Connector/POWER_VBUS*%
X158925000Y-96825000D03*
X153500000Y-98000000D03*
X160900000Y-96300000D03*
X154500000Y-100000000D03*
X161150000Y-93150000D03*
X161150000Y-93850000D03*
X160900000Y-97000000D03*
X157575000Y-97525000D03*
X158925000Y-97525000D03*
X158250000Y-96825000D03*
X160900000Y-95600000D03*
X159600000Y-95250000D03*
X159600000Y-96650000D03*
X160450000Y-93850000D03*
X160275000Y-97350000D03*
X159750000Y-93850000D03*
X154500000Y-99000000D03*
X153500000Y-100000000D03*
X154500000Y-101000000D03*
X161150000Y-94550000D03*
X153500000Y-99000000D03*
X159600000Y-97350000D03*
X154750000Y-102000000D03*
X153500000Y-102000000D03*
X159600000Y-95950000D03*
X160275000Y-95950000D03*
X160450000Y-93150000D03*
X160275000Y-96650000D03*
X159750000Y-94550000D03*
X158250000Y-97525000D03*
X160275000Y-95250000D03*
X153500000Y-101000000D03*
X160450000Y-94550000D03*
X154750000Y-98000000D03*
%TO.N,/Battery Interface/VBAT*%
X199500000Y-94075000D03*
X198825000Y-92050000D03*
X198150000Y-94075000D03*
X198825000Y-94075000D03*
X199500000Y-92725000D03*
X199500000Y-92050000D03*
X199500000Y-90700000D03*
X198150000Y-93400000D03*
X198825000Y-91375000D03*
X198825000Y-93400000D03*
X199500000Y-93400000D03*
X198825000Y-92725000D03*
X198825000Y-90700000D03*
X199500000Y-91375000D03*
%TO.N,+3.3V*%
X174450000Y-89090000D03*
D16*
X180300000Y-102240000D03*
X195650000Y-105200000D03*
X183900000Y-102625000D03*
X168200000Y-99367500D03*
D15*
%TO.N,/IP2368 Buck-Boost-Converter/BAT*%
X192000000Y-93500000D03*
X193500000Y-98500000D03*
X194900000Y-92000000D03*
X193500000Y-100750000D03*
X194250000Y-100750000D03*
X197975000Y-90950000D03*
X193500000Y-95000000D03*
X196025000Y-89650000D03*
X193500000Y-97750000D03*
X194900000Y-90500000D03*
X196675000Y-89650000D03*
X187500000Y-95000000D03*
X193500000Y-96500000D03*
X197325000Y-90950000D03*
X193500000Y-89000000D03*
X194250000Y-97750000D03*
X192750000Y-102250000D03*
X197325000Y-92250000D03*
X192200000Y-94400000D03*
X196025000Y-92250000D03*
X196025000Y-90950000D03*
X192200000Y-95200000D03*
X193500000Y-102250000D03*
X194250000Y-102250000D03*
X194250000Y-101500000D03*
D16*
X192300000Y-103900000D03*
D15*
X197975000Y-89650000D03*
X196025000Y-90300000D03*
X195000000Y-96500000D03*
X192200000Y-96800000D03*
X186000000Y-95000000D03*
X189000000Y-96500000D03*
X185250000Y-96800000D03*
X195000000Y-103000000D03*
X192000000Y-102250000D03*
X195000000Y-95000000D03*
X196675000Y-90300000D03*
X194900000Y-89000000D03*
X197325000Y-89650000D03*
X187500000Y-96500000D03*
X189000000Y-93500000D03*
X197975000Y-91600000D03*
X187500000Y-93500000D03*
X189000000Y-95000000D03*
X195000000Y-93500000D03*
X192200000Y-96000000D03*
X194250000Y-99250000D03*
X186000000Y-96500000D03*
X190500000Y-93500000D03*
X193500000Y-92000000D03*
X193500000Y-93500000D03*
X194250000Y-103000000D03*
X196025000Y-91600000D03*
X197325000Y-90300000D03*
X197975000Y-90300000D03*
X193500000Y-103000000D03*
X196675000Y-92250000D03*
X190500000Y-95000000D03*
X195000000Y-102250000D03*
X192750000Y-103000000D03*
D16*
X180305000Y-98650000D03*
D15*
X194250000Y-98500000D03*
X193500000Y-99250000D03*
X194250000Y-100000000D03*
X197975000Y-92250000D03*
X185250000Y-94400000D03*
X193500000Y-90500000D03*
X190500000Y-96500000D03*
X197325000Y-91600000D03*
X186000000Y-93500000D03*
X193500000Y-101500000D03*
X185250000Y-95200000D03*
X185250000Y-96000000D03*
X196675000Y-90950000D03*
X196675000Y-91600000D03*
X193500000Y-100000000D03*
D16*
%TO.N,/IP2368 Buck-Boost-Converter/VBUS_G*%
X170050000Y-95425000D03*
D15*
X161800000Y-95550000D03*
%TO.N,Net-(Q3-D)*%
X197000000Y-96160000D03*
X192400000Y-110750000D03*
%TO.N,Net-(Q5-G)*%
X197000000Y-94310000D03*
X199150000Y-89850000D03*
%TO.N,/IP2368 Buck-Boost-Converter/CSP1*%
X166200000Y-94800000D03*
X163500000Y-101750000D03*
X165500000Y-108750000D03*
X164500000Y-101750000D03*
X163500000Y-99750000D03*
X163500000Y-106750000D03*
X165675000Y-93400000D03*
X165500000Y-103750000D03*
X164100000Y-95500000D03*
X164800000Y-96200000D03*
X163500000Y-103750000D03*
X164500000Y-108750000D03*
X166250000Y-100100000D03*
X167690000Y-106300000D03*
X164500000Y-105750000D03*
X163400000Y-96200000D03*
X162700000Y-96200000D03*
X168500000Y-108750000D03*
X167100000Y-107000000D03*
X162700000Y-93400000D03*
X167275000Y-96225000D03*
X163500000Y-104750000D03*
X166500000Y-105750000D03*
X162700000Y-95500000D03*
X166300000Y-107000000D03*
X163500000Y-107750000D03*
X165500000Y-95500000D03*
X167500000Y-108750000D03*
X170820000Y-106300000D03*
X172500000Y-108750000D03*
X165500000Y-98750000D03*
X164650000Y-100100000D03*
X170500000Y-107750000D03*
X163500000Y-105750000D03*
X164800000Y-94100000D03*
X164100000Y-96200000D03*
X167300000Y-98800000D03*
X162700000Y-94100000D03*
X163400000Y-94800000D03*
X165500000Y-102750000D03*
X169500000Y-107750000D03*
X166900000Y-97900000D03*
X163400000Y-94100000D03*
X163900000Y-97900000D03*
X172375000Y-105725000D03*
X165500000Y-107000000D03*
X164100000Y-93400000D03*
X164900000Y-97900000D03*
D16*
X169350000Y-98350000D03*
X169850000Y-98350000D03*
D15*
X166500000Y-101750000D03*
X167050000Y-100100000D03*
X166500000Y-108750000D03*
X164800000Y-95500000D03*
X164500000Y-103750000D03*
X165500000Y-105750000D03*
X162900000Y-97900000D03*
X164100000Y-94100000D03*
X169500000Y-108750000D03*
X162700000Y-94800000D03*
X171500000Y-106750000D03*
X166200000Y-96200000D03*
X165450000Y-100100000D03*
X164100000Y-94800000D03*
X166200000Y-95500000D03*
X164500000Y-102750000D03*
X171500000Y-107750000D03*
X170500000Y-108750000D03*
X163400000Y-95500000D03*
X166500000Y-94200000D03*
X165900000Y-97900000D03*
X163500000Y-102750000D03*
X164800000Y-94800000D03*
X163500000Y-98750000D03*
X165500000Y-94800000D03*
X167275000Y-95050000D03*
X168500000Y-107750000D03*
X164500000Y-104750000D03*
X166500000Y-98750000D03*
X165500000Y-101750000D03*
X165500000Y-104750000D03*
X164700000Y-107000000D03*
X163500000Y-100750000D03*
X172500000Y-107750000D03*
X165500000Y-96200000D03*
X171500000Y-108750000D03*
X165500000Y-94100000D03*
X169250000Y-106710000D03*
X164800000Y-93400000D03*
X163400000Y-93400000D03*
X164500000Y-98750000D03*
D16*
%TO.N,/Battery Interface/I^{2}C_SDA*%
X182900000Y-102300000D03*
X195025000Y-107200000D03*
D15*
X175400000Y-89850000D03*
D16*
%TO.N,/Battery Interface/I^{2}C_SCL*%
X195025000Y-106200000D03*
X181350000Y-102300000D03*
D15*
X174450000Y-90110000D03*
D16*
%TO.N,Net-(R25-C)*%
X168575000Y-97500000D03*
X182900000Y-103450000D03*
%TD*%
D17*
%TO.N,/Battery Interface/I^{2}C_INT*%
X191225000Y-98775000D02*
X191225000Y-103100000D01*
X191687500Y-104862500D02*
X195025000Y-108200000D01*
X191225000Y-103100000D02*
X191687500Y-103562500D01*
X191687500Y-103562500D02*
X191687500Y-104862500D01*
D18*
%TO.N,/IP2368 Buck-Boost-Converter/HB2*%
X179310000Y-102710000D02*
X180030000Y-103430000D01*
X182020000Y-103430000D02*
X182530000Y-103940000D01*
X179130000Y-102710000D02*
X179310000Y-102710000D01*
X182530000Y-103940000D02*
X184440000Y-103940000D01*
X184440000Y-103940000D02*
X185250000Y-104750000D01*
X176220000Y-99800000D02*
X179130000Y-102710000D01*
X180030000Y-103430000D02*
X182020000Y-103430000D01*
%TO.N,/IP2368 Buck-Boost-Converter/HB1*%
X178300000Y-104050000D02*
X179000000Y-104750000D01*
X177175000Y-104050000D02*
X178300000Y-104050000D01*
X174980000Y-99800000D02*
X174980000Y-101855000D01*
X174980000Y-101855000D02*
X177175000Y-104050000D01*
D17*
%TO.N,/Battery Interface/I^{2}C_INT*%
X177750000Y-97650000D02*
X178025000Y-97375000D01*
X171100000Y-96125000D02*
X172625000Y-97650000D01*
X170600000Y-93510000D02*
X171100000Y-94010000D01*
X189825000Y-97375000D02*
X191225000Y-98775000D01*
X171100000Y-94010000D02*
X171100000Y-96125000D01*
X172625000Y-97650000D02*
X177750000Y-97650000D01*
X178025000Y-97375000D02*
X189825000Y-97375000D01*
D19*
%TO.N,/Connector/PORT1_D+*%
X157875000Y-100800000D02*
X158174900Y-100500100D01*
X176725000Y-89825000D02*
X176618065Y-89931935D01*
X167912400Y-97261000D02*
X169536000Y-95637400D01*
D17*
X176725000Y-89825000D02*
X176687500Y-89862500D01*
D19*
X161098400Y-98550000D02*
X162387400Y-97261000D01*
X169536000Y-93862400D02*
X171412400Y-91986000D01*
X171412400Y-91986000D02*
X176212400Y-91986000D01*
X158465208Y-100500100D02*
X160415308Y-98550000D01*
D20*
X176582965Y-89967035D02*
X176725000Y-89825000D01*
D19*
X169536000Y-95637400D02*
X169536000Y-93862400D01*
X176641466Y-89908534D02*
X176725000Y-89825000D01*
X160415308Y-98550000D02*
X161098400Y-98550000D01*
X176641466Y-91556934D02*
X176641466Y-89908534D01*
X162387400Y-97261000D02*
X167912400Y-97261000D01*
X176212400Y-91986000D02*
X176641466Y-91556934D01*
X158174900Y-100500100D02*
X158465208Y-100500100D01*
D17*
%TO.N,/Connector/PORT1_CC1*%
X159050000Y-96000000D02*
X158773000Y-96277000D01*
X159862500Y-89400000D02*
X159050000Y-90212500D01*
X158773000Y-96277000D02*
X157773000Y-96277000D01*
X157773000Y-96277000D02*
X157000000Y-97050000D01*
X159050000Y-90212500D02*
X159050000Y-96000000D01*
X157000000Y-97050000D02*
X157000000Y-97950000D01*
X157000000Y-97950000D02*
X157850000Y-98800000D01*
D18*
%TO.N,/IP2368 Buck-Boost-Converter/HB_IN*%
X175000000Y-104990000D02*
X175000000Y-105750000D01*
X174480000Y-104470000D02*
X175000000Y-104990000D01*
X174480000Y-100200000D02*
X174480000Y-104470000D01*
X173175000Y-98900000D02*
X173180000Y-98900000D01*
X173180000Y-98900000D02*
X174480000Y-100200000D01*
%TO.N,/IP2368 Buck-Boost-Converter/LG2*%
X178825000Y-103975000D02*
X175675000Y-100825000D01*
X175675000Y-98900000D02*
X175680000Y-98895000D01*
X181775000Y-103975000D02*
X178825000Y-103975000D01*
X184400000Y-104700000D02*
X184025000Y-104325000D01*
X184090005Y-108605004D02*
X184400000Y-108295009D01*
X184400000Y-108295009D02*
X184400000Y-104700000D01*
X184025000Y-104325000D02*
X182125000Y-104325000D01*
X182125000Y-104325000D02*
X181775000Y-103975000D01*
X175675000Y-100825000D02*
X175675000Y-98900000D01*
%TO.N,/IP2368 Buck-Boost-Converter/HB_BAT*%
X177800000Y-98900000D02*
X180000000Y-101100000D01*
X188750000Y-103975000D02*
X188750000Y-104750000D01*
X180000000Y-101100000D02*
X185875000Y-101100000D01*
X185875000Y-101100000D02*
X188750000Y-103975000D01*
%TO.N,/IP2368 Buck-Boost-Converter/HG2*%
X177200000Y-99200000D02*
X179625000Y-101625000D01*
X188100000Y-104000000D02*
X188100000Y-108000000D01*
X185725000Y-101625000D02*
X188100000Y-104000000D01*
X177200000Y-98900000D02*
X177200000Y-99200000D01*
X188100000Y-108000000D02*
X188705004Y-108605004D01*
X179625000Y-101625000D02*
X185725000Y-101625000D01*
X188705004Y-108605004D02*
X190009995Y-108605004D01*
D19*
%TO.N,/Connector/PORT1_D-*%
X160926600Y-98125000D02*
X162212600Y-96839000D01*
X176219464Y-91382136D02*
X176219464Y-89908534D01*
X160309692Y-98125000D02*
X160926600Y-98125000D01*
X158309792Y-100124900D02*
X160309692Y-98125000D01*
X176219464Y-89908534D02*
X176125000Y-89814070D01*
X158174900Y-100124900D02*
X158309792Y-100124900D01*
X169114000Y-95462600D02*
X169114000Y-93687600D01*
X162212600Y-96839000D02*
X167737600Y-96839000D01*
X167737600Y-96839000D02*
X169114000Y-95462600D01*
X157850000Y-99800000D02*
X158174900Y-100124900D01*
X169114000Y-93687600D02*
X171237600Y-91564000D01*
X176037600Y-91564000D02*
X176219464Y-91382136D01*
X171237600Y-91564000D02*
X176037600Y-91564000D01*
D17*
%TO.N,/Connector/POWER_VBUS*%
X161150000Y-93850000D02*
X161150000Y-93750000D01*
D21*
%TO.N,/IP2368 Buck-Boost-Converter/CSP1*%
X167050000Y-98050000D02*
X166900000Y-97900000D01*
X169850000Y-98350000D02*
X167050000Y-98350000D01*
D18*
%TO.N,Net-(R25-C)*%
X176500000Y-99300000D02*
X180125000Y-102925000D01*
X180125000Y-102925000D02*
X182375000Y-102925000D01*
X168575000Y-97500000D02*
X171200000Y-97500000D01*
X172000000Y-98300000D02*
X175875000Y-98300000D01*
X182375000Y-102925000D02*
X182900000Y-103450000D01*
X171200000Y-97500000D02*
X172000000Y-98300000D01*
X175875000Y-98300000D02*
X176500000Y-98925000D01*
X176500000Y-98925000D02*
X176500000Y-99300000D01*
%TD*%
%TA.AperFunction,Conductor*%
%TO.N,+5V*%
G36*
X171168039Y-98944685D02*
G01*
X171213794Y-98997489D01*
X171225000Y-99049000D01*
X171225000Y-99701000D01*
X171205315Y-99768039D01*
X171152511Y-99813794D01*
X171101000Y-99825000D01*
X170899000Y-99825000D01*
X170831961Y-99805315D01*
X170786206Y-99752511D01*
X170775000Y-99701000D01*
X170775000Y-99049000D01*
X170794685Y-98981961D01*
X170847489Y-98936206D01*
X170899000Y-98925000D01*
X171101000Y-98925000D01*
X171168039Y-98944685D01*
G37*
%TD.AperFunction*%
%TD*%
%TA.AperFunction,Conductor*%
%TO.N,Net-(J1-Pin_1)*%
G36*
X199643039Y-96119685D02*
G01*
X199688794Y-96172489D01*
X199700000Y-96224000D01*
X199700000Y-99876000D01*
X199680315Y-99943039D01*
X199627511Y-99988794D01*
X199576000Y-100000000D01*
X197551362Y-100000000D01*
X197484323Y-99980315D01*
X197463681Y-99963681D01*
X196031906Y-98531906D01*
X195998421Y-98470583D01*
X196003405Y-98400891D01*
X196026140Y-98362717D01*
X197962938Y-96142486D01*
X198021842Y-96104907D01*
X198056381Y-96100000D01*
X199576000Y-96100000D01*
X199643039Y-96119685D01*
G37*
%TD.AperFunction*%
%TD*%
%TA.AperFunction,Conductor*%
%TO.N,/IP2368 Buck-Boost-Converter/CSP1*%
G36*
X170018039Y-98144685D02*
G01*
X170063794Y-98197489D01*
X170075000Y-98249000D01*
X170075000Y-98451000D01*
X170055315Y-98518039D01*
X170002511Y-98563794D01*
X169951000Y-98575000D01*
X169249000Y-98575000D01*
X169181961Y-98555315D01*
X169136206Y-98502511D01*
X169125000Y-98451000D01*
X169125000Y-98249000D01*
X169144685Y-98181961D01*
X169197489Y-98136206D01*
X169249000Y-98125000D01*
X169951000Y-98125000D01*
X170018039Y-98144685D01*
G37*
%TD.AperFunction*%
%TD*%
%TA.AperFunction,Conductor*%
%TO.N,+5V*%
G36*
X168743039Y-94469685D02*
G01*
X168788794Y-94522489D01*
X168800000Y-94574000D01*
X168800000Y-95276000D01*
X168780315Y-95343039D01*
X168727511Y-95388794D01*
X168676000Y-95400000D01*
X167974000Y-95400000D01*
X167906961Y-95380315D01*
X167861206Y-95327511D01*
X167850000Y-95276000D01*
X167850000Y-94574000D01*
X167869685Y-94506961D01*
X167922489Y-94461206D01*
X167974000Y-94450000D01*
X168676000Y-94450000D01*
X168743039Y-94469685D01*
G37*
%TD.AperFunction*%
%TD*%
%TA.AperFunction,Conductor*%
%TO.N,/IP2368 Buck-Boost-Converter/HB1*%
G36*
X181568039Y-104319685D02*
G01*
X181613794Y-104372489D01*
X181625000Y-104424000D01*
X181625000Y-109176000D01*
X181605315Y-109243039D01*
X181552511Y-109288794D01*
X181501000Y-109300000D01*
X181249999Y-109300000D01*
X181050000Y-109499999D01*
X181050000Y-111175500D01*
X181030315Y-111242539D01*
X180977511Y-111288294D01*
X180926000Y-111299500D01*
X173899000Y-111299500D01*
X173831961Y-111279815D01*
X173786206Y-111227011D01*
X173775000Y-111175500D01*
X173775000Y-109724000D01*
X173794685Y-109656961D01*
X173847489Y-109611206D01*
X173899000Y-109600000D01*
X178400000Y-109600000D01*
X178575000Y-109400000D01*
X178575000Y-104424000D01*
X178594685Y-104356961D01*
X178647489Y-104311206D01*
X178699000Y-104300000D01*
X181501000Y-104300000D01*
X181568039Y-104319685D01*
G37*
%TD.AperFunction*%
%TD*%
%TA.AperFunction,Conductor*%
%TO.N,/Battery Interface/VBAT*%
G36*
X199742539Y-90419685D02*
G01*
X199788294Y-90472489D01*
X199799500Y-90524000D01*
X199799500Y-94425660D01*
X199779815Y-94492699D01*
X199727011Y-94538454D01*
X199660556Y-94548756D01*
X199629479Y-94544983D01*
X199625500Y-94544500D01*
X199625499Y-94544500D01*
X197824000Y-94544500D01*
X197756961Y-94524815D01*
X197711206Y-94472011D01*
X197700000Y-94420500D01*
X197700000Y-93991476D01*
X197710697Y-93945616D01*
X197709560Y-93945217D01*
X197712038Y-93938151D01*
X197712044Y-93938140D01*
X197729948Y-93856805D01*
X197733535Y-93819490D01*
X197729578Y-93661220D01*
X197717218Y-93166775D01*
X197713726Y-93027099D01*
X197731729Y-92959589D01*
X197783373Y-92912528D01*
X197837687Y-92900000D01*
X198525000Y-92900000D01*
X198525000Y-90524000D01*
X198544685Y-90456961D01*
X198597489Y-90411206D01*
X198649000Y-90400000D01*
X199675500Y-90400000D01*
X199742539Y-90419685D01*
G37*
%TD.AperFunction*%
%TD*%
%TA.AperFunction,Conductor*%
%TO.N,/IP2368 Buck-Boost-Converter/CSP1*%
G36*
X167522039Y-97567185D02*
G01*
X167567794Y-97619989D01*
X167578996Y-97672439D01*
X167550384Y-101449188D01*
X167530193Y-101516077D01*
X167514069Y-101535930D01*
X166600000Y-102449999D01*
X166600000Y-102450000D01*
X166600000Y-104600000D01*
X168300000Y-106300000D01*
X170250000Y-106300000D01*
X171113681Y-105436319D01*
X171175004Y-105402834D01*
X171201362Y-105400000D01*
X172773638Y-105400000D01*
X172840677Y-105419685D01*
X172861319Y-105436319D01*
X173013681Y-105588681D01*
X173047166Y-105650004D01*
X173050000Y-105676362D01*
X173050000Y-109076000D01*
X173030315Y-109143039D01*
X172977511Y-109188794D01*
X172926000Y-109200000D01*
X164451362Y-109200000D01*
X164384323Y-109180315D01*
X164363681Y-109163681D01*
X162836319Y-107636319D01*
X162802834Y-107574996D01*
X162800000Y-107548638D01*
X162800000Y-98900000D01*
X162436319Y-98536319D01*
X162402834Y-98474996D01*
X162400000Y-98448638D01*
X162400000Y-97704935D01*
X162419685Y-97637896D01*
X162436316Y-97617256D01*
X162469756Y-97583817D01*
X162531080Y-97550333D01*
X162557436Y-97547500D01*
X167455000Y-97547500D01*
X167522039Y-97567185D01*
G37*
%TD.AperFunction*%
%TA.AperFunction,Conductor*%
G36*
X165415677Y-92719685D02*
G01*
X165436319Y-92736319D01*
X167563291Y-94863291D01*
X167596776Y-94924614D01*
X167599606Y-94951911D01*
X167588413Y-96429439D01*
X167568222Y-96496328D01*
X167515073Y-96541681D01*
X167464417Y-96552500D01*
X162524000Y-96552500D01*
X162456961Y-96532815D01*
X162411206Y-96480011D01*
X162400000Y-96428500D01*
X162400000Y-92824000D01*
X162419685Y-92756961D01*
X162472489Y-92711206D01*
X162524000Y-92700000D01*
X165348638Y-92700000D01*
X165415677Y-92719685D01*
G37*
%TD.AperFunction*%
%TD*%
%TA.AperFunction,Conductor*%
%TO.N,/IP2368 Buck-Boost-Converter/HB2*%
G36*
X187767539Y-104319685D02*
G01*
X187813294Y-104372489D01*
X187824500Y-104424000D01*
X187824500Y-108054800D01*
X187849023Y-108114004D01*
X187857988Y-108135645D01*
X187857987Y-108135645D01*
X187866441Y-108156055D01*
X187866442Y-108156057D01*
X187866443Y-108156058D01*
X188471447Y-108761062D01*
X188548946Y-108838561D01*
X188650204Y-108880504D01*
X189595990Y-108880504D01*
X189663029Y-108900189D01*
X189689704Y-108923302D01*
X189711946Y-108948971D01*
X189820926Y-109019008D01*
X189820933Y-109019010D01*
X189945220Y-109055503D01*
X189945222Y-109055504D01*
X189945223Y-109055504D01*
X190074768Y-109055504D01*
X190074768Y-109055503D01*
X190153567Y-109032366D01*
X190199058Y-109019010D01*
X190199058Y-109019009D01*
X190199064Y-109019008D01*
X190208962Y-109012646D01*
X190275997Y-108992962D01*
X190343037Y-109012645D01*
X190388793Y-109065447D01*
X190400000Y-109116962D01*
X190400000Y-111175500D01*
X190380315Y-111242539D01*
X190327511Y-111288294D01*
X190276000Y-111299500D01*
X183924000Y-111299500D01*
X183856961Y-111279815D01*
X183811206Y-111227011D01*
X183800000Y-111175500D01*
X183800000Y-109724000D01*
X183819685Y-109656961D01*
X183872489Y-109611206D01*
X183924000Y-109600000D01*
X184700000Y-109600000D01*
X184900000Y-109400000D01*
X184900000Y-108850000D01*
X184950000Y-108850000D01*
X187800000Y-108850000D01*
X187800000Y-104400000D01*
X184950000Y-104400000D01*
X184950000Y-108850000D01*
X184900000Y-108850000D01*
X184900000Y-104424000D01*
X184919685Y-104356961D01*
X184972489Y-104311206D01*
X185024000Y-104300000D01*
X187700500Y-104300000D01*
X187767539Y-104319685D01*
G37*
%TD.AperFunction*%
%TD*%
%TA.AperFunction,Conductor*%
%TO.N,/IP2368 Buck-Boost-Converter/BAT*%
G36*
X194543039Y-97419685D02*
G01*
X194588794Y-97472489D01*
X194600000Y-97524000D01*
X194600000Y-101900000D01*
X195176000Y-101900000D01*
X195243039Y-101919685D01*
X195288794Y-101972489D01*
X195300000Y-102024000D01*
X195300000Y-103176000D01*
X195280315Y-103243039D01*
X195227511Y-103288794D01*
X195176000Y-103300000D01*
X192251362Y-103300000D01*
X192184323Y-103280315D01*
X192163681Y-103263681D01*
X191736319Y-102836319D01*
X191702834Y-102774996D01*
X191700000Y-102748638D01*
X191700000Y-102024000D01*
X191719685Y-101956961D01*
X191772489Y-101911206D01*
X191824000Y-101900000D01*
X193200000Y-101900000D01*
X193200000Y-97524000D01*
X193219685Y-97456961D01*
X193272489Y-97411206D01*
X193324000Y-97400000D01*
X194476000Y-97400000D01*
X194543039Y-97419685D01*
G37*
%TD.AperFunction*%
%TD*%
%TA.AperFunction,Conductor*%
%TO.N,GND*%
G36*
X155100069Y-96551850D02*
G01*
X155100010Y-96781740D01*
X155085515Y-96756635D01*
X155070561Y-96741681D01*
X155037076Y-96680358D01*
X155042060Y-96610666D01*
X155083932Y-96554733D01*
X155149396Y-96530316D01*
X155158242Y-96530000D01*
X155711081Y-96530000D01*
X155100069Y-96551850D01*
G37*
%TD.AperFunction*%
%TA.AperFunction,Conductor*%
G36*
X154464306Y-94841332D02*
G01*
X154357069Y-94862663D01*
X154357063Y-94862665D01*
X154202372Y-94926740D01*
X154202371Y-94926740D01*
X154063160Y-95019758D01*
X154063152Y-95019764D01*
X153944764Y-95138152D01*
X153944758Y-95138160D01*
X153851740Y-95277371D01*
X153851740Y-95277372D01*
X153787665Y-95432063D01*
X153787663Y-95432071D01*
X153755000Y-95596277D01*
X153755000Y-95763722D01*
X153787663Y-95927928D01*
X153787665Y-95927936D01*
X153851740Y-96082627D01*
X153851740Y-96082628D01*
X153944758Y-96221839D01*
X153944764Y-96221847D01*
X154063152Y-96340235D01*
X154063160Y-96340241D01*
X154202372Y-96433259D01*
X154232790Y-96445859D01*
X154287193Y-96489700D01*
X154309258Y-96555994D01*
X154300205Y-96591464D01*
X154300240Y-96581473D01*
X153750000Y-96600000D01*
X153750000Y-94650000D01*
X154464306Y-94841332D01*
G37*
%TD.AperFunction*%
%TA.AperFunction,Conductor*%
G36*
X156550000Y-96500000D02*
G01*
X155805736Y-96526615D01*
X155952928Y-96497336D01*
X155952936Y-96497334D01*
X156107627Y-96433259D01*
X156107628Y-96433259D01*
X156246839Y-96340241D01*
X156246847Y-96340235D01*
X156365235Y-96221847D01*
X156365241Y-96221839D01*
X156458259Y-96082628D01*
X156458259Y-96082627D01*
X156522334Y-95927936D01*
X156522336Y-95927928D01*
X156550000Y-95788856D01*
X156550000Y-96500000D01*
G37*
%TD.AperFunction*%
%TA.AperFunction,Conductor*%
G36*
X156550000Y-95400000D02*
G01*
X156550000Y-95571142D01*
X156522336Y-95432071D01*
X156522334Y-95432063D01*
X156503943Y-95387663D01*
X156550000Y-95400000D01*
G37*
%TD.AperFunction*%
%TD*%
%TA.AperFunction,Conductor*%
%TO.N,GND*%
G36*
X152500000Y-94650000D02*
G01*
X152500000Y-96850000D01*
X150200500Y-96850000D01*
X150200500Y-96480828D01*
X150220185Y-96413789D01*
X150272989Y-96368034D01*
X150342147Y-96358090D01*
X150371954Y-96366267D01*
X150456236Y-96401178D01*
X150456240Y-96401179D01*
X150601126Y-96429999D01*
X150601129Y-96430000D01*
X151348871Y-96430000D01*
X151348873Y-96429999D01*
X151493759Y-96401179D01*
X151493767Y-96401177D01*
X151630254Y-96344642D01*
X151630264Y-96344637D01*
X151753096Y-96262563D01*
X151753100Y-96262560D01*
X151857560Y-96158100D01*
X151857563Y-96158096D01*
X151939637Y-96035264D01*
X151939642Y-96035254D01*
X151996177Y-95898767D01*
X151996179Y-95898759D01*
X152024999Y-95753873D01*
X152025000Y-95753871D01*
X152025000Y-95606128D01*
X152024999Y-95606126D01*
X151996179Y-95461240D01*
X151996177Y-95461232D01*
X151939642Y-95324745D01*
X151939637Y-95324735D01*
X151857563Y-95201903D01*
X151857560Y-95201899D01*
X151753100Y-95097439D01*
X151753096Y-95097436D01*
X151630264Y-95015362D01*
X151630254Y-95015357D01*
X151493767Y-94958822D01*
X151493759Y-94958820D01*
X151348872Y-94930000D01*
X150601128Y-94930000D01*
X150456240Y-94958820D01*
X150456228Y-94958823D01*
X150390161Y-94986189D01*
X150320691Y-94993658D01*
X150258212Y-94962382D01*
X150222561Y-94902293D01*
X150218779Y-94867447D01*
X150218864Y-94864911D01*
X150218866Y-94864908D01*
X150220226Y-94824557D01*
X150220226Y-94824553D01*
X150220234Y-94824553D01*
X150220228Y-94824484D01*
X150221573Y-94785306D01*
X150221572Y-94785304D01*
X150221984Y-94773316D01*
X150221964Y-94773019D01*
X150223694Y-94721716D01*
X150223730Y-94721456D01*
X150225522Y-94667533D01*
X150225524Y-94667471D01*
X150227223Y-94617071D01*
X150227205Y-94616810D01*
X150227450Y-94609418D01*
X152500000Y-94650000D01*
G37*
%TD.AperFunction*%
%TD*%
%TA.AperFunction,Conductor*%
%TO.N,GND*%
G36*
X153711428Y-103255714D02*
G01*
X153800000Y-103300000D01*
X153847112Y-103257598D01*
X154183389Y-103262269D01*
X154273018Y-103351898D01*
X154306503Y-103413221D01*
X154301519Y-103482913D01*
X154259647Y-103538846D01*
X154232793Y-103554139D01*
X154202371Y-103566740D01*
X154063160Y-103659758D01*
X154063152Y-103659764D01*
X153944764Y-103778152D01*
X153944758Y-103778160D01*
X153851740Y-103917371D01*
X153851740Y-103917372D01*
X153787665Y-104072063D01*
X153787663Y-104072071D01*
X153755000Y-104236277D01*
X153755000Y-104403722D01*
X153787663Y-104567928D01*
X153787665Y-104567936D01*
X153851740Y-104722627D01*
X153851740Y-104722628D01*
X153944758Y-104861839D01*
X153944764Y-104861847D01*
X154063152Y-104980235D01*
X154063160Y-104980241D01*
X154202371Y-105073259D01*
X154357063Y-105137334D01*
X154357071Y-105137336D01*
X154521277Y-105169999D01*
X154521280Y-105170000D01*
X154583333Y-105170000D01*
X153300000Y-105500000D01*
X153300000Y-103250000D01*
X153711428Y-103255714D01*
G37*
%TD.AperFunction*%
%TA.AperFunction,Conductor*%
G36*
X156900000Y-103300000D02*
G01*
X156800000Y-104600000D01*
X156474369Y-104683733D01*
X156522334Y-104567936D01*
X156522336Y-104567928D01*
X156554999Y-104403722D01*
X156555000Y-104403720D01*
X156555000Y-104236279D01*
X156554999Y-104236277D01*
X156522336Y-104072071D01*
X156522334Y-104072063D01*
X156458259Y-103917372D01*
X156458259Y-103917371D01*
X156365241Y-103778160D01*
X156365235Y-103778152D01*
X156246847Y-103659764D01*
X156246839Y-103659758D01*
X156107628Y-103566740D01*
X155952936Y-103502665D01*
X155952928Y-103502663D01*
X155788721Y-103470000D01*
X155158242Y-103470000D01*
X155091203Y-103450315D01*
X155045448Y-103397511D01*
X155035504Y-103328353D01*
X155060122Y-103274446D01*
X156900000Y-103300000D01*
G37*
%TD.AperFunction*%
%TD*%
%TA.AperFunction,Conductor*%
%TO.N,GND*%
G36*
X152500000Y-103300000D02*
G01*
X152500000Y-105500000D01*
X150231086Y-105500000D01*
X150230803Y-105491487D01*
X150229520Y-105452277D01*
X150229519Y-105452276D01*
X150229132Y-105440429D01*
X150229098Y-105440166D01*
X150227212Y-105383401D01*
X150227230Y-105383150D01*
X150226806Y-105370576D01*
X150226807Y-105370575D01*
X150225500Y-105331820D01*
X150224143Y-105290957D01*
X150224142Y-105290955D01*
X150223738Y-105278791D01*
X150223702Y-105278517D01*
X150221970Y-105227164D01*
X150221991Y-105226869D01*
X150220226Y-105175442D01*
X150220226Y-105175441D01*
X150218866Y-105135091D01*
X150218864Y-105135087D01*
X150218779Y-105132551D01*
X150236193Y-105064886D01*
X150287425Y-105017377D01*
X150356209Y-105005108D01*
X150390162Y-105013810D01*
X150456232Y-105041177D01*
X150456240Y-105041179D01*
X150601126Y-105069999D01*
X150601129Y-105070000D01*
X151348871Y-105070000D01*
X151348873Y-105069999D01*
X151493759Y-105041179D01*
X151493767Y-105041177D01*
X151630254Y-104984642D01*
X151630264Y-104984637D01*
X151753096Y-104902563D01*
X151753100Y-104902560D01*
X151857560Y-104798100D01*
X151857563Y-104798096D01*
X151939637Y-104675264D01*
X151939642Y-104675254D01*
X151996177Y-104538767D01*
X151996179Y-104538759D01*
X152024999Y-104393873D01*
X152025000Y-104393871D01*
X152025000Y-104246128D01*
X152024999Y-104246126D01*
X151996179Y-104101240D01*
X151996177Y-104101232D01*
X151939642Y-103964745D01*
X151939637Y-103964735D01*
X151857563Y-103841903D01*
X151857560Y-103841899D01*
X151753100Y-103737439D01*
X151753096Y-103737436D01*
X151630264Y-103655362D01*
X151630254Y-103655357D01*
X151493767Y-103598822D01*
X151493759Y-103598820D01*
X151348872Y-103570000D01*
X150601128Y-103570000D01*
X150456240Y-103598820D01*
X150456232Y-103598822D01*
X150371953Y-103633732D01*
X150302483Y-103641201D01*
X150240004Y-103609926D01*
X150204352Y-103549837D01*
X150200500Y-103519171D01*
X150200500Y-103258937D01*
X152500000Y-103300000D01*
G37*
%TD.AperFunction*%
%TD*%
%TA.AperFunction,Conductor*%
%TO.N,/IP2368 Buck-Boost-Converter/HB_IN*%
G36*
X178243039Y-104719685D02*
G01*
X178288794Y-104772489D01*
X178300000Y-104824000D01*
X178300000Y-108976000D01*
X178280315Y-109043039D01*
X178227511Y-109088794D01*
X178176000Y-109100000D01*
X176200000Y-109100000D01*
X174824000Y-109100000D01*
X174756961Y-109080315D01*
X174711206Y-109027511D01*
X174700000Y-108976000D01*
X174700000Y-104824000D01*
X174719685Y-104756961D01*
X174772489Y-104711206D01*
X174824000Y-104700000D01*
X178176000Y-104700000D01*
X178243039Y-104719685D01*
G37*
%TD.AperFunction*%
%TD*%
%TA.AperFunction,Conductor*%
%TO.N,/IP2368 Buck-Boost-Converter/BAT*%
G36*
X186243039Y-93219685D02*
G01*
X186288794Y-93272489D01*
X186300000Y-93324000D01*
X186300000Y-96976000D01*
X186280315Y-97043039D01*
X186227511Y-97088794D01*
X186176000Y-97100000D01*
X185074000Y-97100000D01*
X185006961Y-97080315D01*
X184961206Y-97027511D01*
X184950000Y-96976000D01*
X184950000Y-94224000D01*
X184969685Y-94156961D01*
X185022489Y-94111206D01*
X185074000Y-94100000D01*
X185700000Y-94100000D01*
X185700000Y-93324000D01*
X185719685Y-93256961D01*
X185772489Y-93211206D01*
X185824000Y-93200000D01*
X186176000Y-93200000D01*
X186243039Y-93219685D01*
G37*
%TD.AperFunction*%
%TD*%
%TA.AperFunction,Conductor*%
%TO.N,/IP2368 Buck-Boost-Converter/HB_BAT*%
G36*
X190543039Y-104419685D02*
G01*
X190588794Y-104472489D01*
X190600000Y-104524000D01*
X190600000Y-107976000D01*
X190580315Y-108043039D01*
X190527511Y-108088794D01*
X190476000Y-108100000D01*
X188640977Y-108100000D01*
X188573938Y-108080315D01*
X188553296Y-108063681D01*
X188436319Y-107946704D01*
X188402834Y-107885381D01*
X188400000Y-107859023D01*
X188400000Y-104524000D01*
X188419685Y-104456961D01*
X188472489Y-104411206D01*
X188524000Y-104400000D01*
X190476000Y-104400000D01*
X190543039Y-104419685D01*
G37*
%TD.AperFunction*%
%TD*%
%TA.AperFunction,Conductor*%
%TO.N,/IP2368 Buck-Boost-Converter/BAT*%
G36*
X192443039Y-93219685D02*
G01*
X192488794Y-93272489D01*
X192500000Y-93324000D01*
X192500000Y-96976000D01*
X192480315Y-97043039D01*
X192427511Y-97088794D01*
X192376000Y-97100000D01*
X192024000Y-97100000D01*
X191956961Y-97080315D01*
X191911206Y-97027511D01*
X191900000Y-96976000D01*
X191900000Y-93949999D01*
X191749600Y-93837199D01*
X191707779Y-93781227D01*
X191700000Y-93737999D01*
X191700000Y-93324000D01*
X191719685Y-93256961D01*
X191772489Y-93211206D01*
X191824000Y-93200000D01*
X192376000Y-93200000D01*
X192443039Y-93219685D01*
G37*
%TD.AperFunction*%
%TD*%
%TA.AperFunction,Conductor*%
%TO.N,+5V*%
G36*
X185493039Y-102469685D02*
G01*
X185538794Y-102522489D01*
X185550000Y-102574000D01*
X185550000Y-103626000D01*
X185530315Y-103693039D01*
X185477511Y-103738794D01*
X185426000Y-103750000D01*
X184690978Y-103750000D01*
X184623939Y-103730315D01*
X184603297Y-103713681D01*
X184596060Y-103706444D01*
X184596058Y-103706443D01*
X184576545Y-103698360D01*
X184522143Y-103654519D01*
X184500079Y-103588225D01*
X184500000Y-103583800D01*
X184500000Y-102574000D01*
X184519685Y-102506961D01*
X184572489Y-102461206D01*
X184624000Y-102450000D01*
X185426000Y-102450000D01*
X185493039Y-102469685D01*
G37*
%TD.AperFunction*%
%TD*%
%TA.AperFunction,Conductor*%
%TO.N,/IP2368 Buck-Boost-Converter/HB2*%
G36*
X187800000Y-108850000D02*
G01*
X184950000Y-108850000D01*
X184950000Y-104400000D01*
X187800000Y-104400000D01*
X187800000Y-108850000D01*
G37*
%TD.AperFunction*%
%TD*%
%TA.AperFunction,Conductor*%
%TO.N,/IP2368 Buck-Boost-Converter/BAT*%
G36*
X198218039Y-89369685D02*
G01*
X198263794Y-89422489D01*
X198275000Y-89474000D01*
X198275000Y-92426000D01*
X198255315Y-92493039D01*
X198202511Y-92538794D01*
X198151000Y-92550000D01*
X195849000Y-92550000D01*
X195781961Y-92530315D01*
X195736206Y-92477511D01*
X195725000Y-92426000D01*
X195725000Y-89474000D01*
X195744685Y-89406961D01*
X195797489Y-89361206D01*
X195849000Y-89350000D01*
X198151000Y-89350000D01*
X198218039Y-89369685D01*
G37*
%TD.AperFunction*%
%TD*%
%TA.AperFunction,Conductor*%
%TO.N,GND*%
G36*
X182016201Y-104578218D02*
G01*
X182021033Y-104580134D01*
X182070200Y-104600500D01*
X182179800Y-104600500D01*
X183838811Y-104600500D01*
X183919673Y-104620431D01*
X183961848Y-104651463D01*
X184073537Y-104763152D01*
X184116621Y-104834423D01*
X184124500Y-104886189D01*
X184124500Y-107995101D01*
X184104569Y-108075963D01*
X184049343Y-108138300D01*
X183999521Y-108162053D01*
X183900938Y-108190999D01*
X183900936Y-108190999D01*
X183900936Y-108191000D01*
X183877107Y-108206314D01*
X183791954Y-108261038D01*
X183707122Y-108358941D01*
X183707119Y-108358946D01*
X183653310Y-108476769D01*
X183653307Y-108476779D01*
X183634872Y-108605004D01*
X183653307Y-108733228D01*
X183653310Y-108733238D01*
X183707119Y-108851061D01*
X183707122Y-108851066D01*
X183758890Y-108910811D01*
X183791956Y-108948971D01*
X183900936Y-109019008D01*
X184025233Y-109055504D01*
X184154777Y-109055504D01*
X184279074Y-109019008D01*
X184388054Y-108948971D01*
X184438999Y-108890176D01*
X184507013Y-108842117D01*
X184589572Y-108831169D01*
X184667762Y-108859843D01*
X184723671Y-108921570D01*
X184744489Y-109002207D01*
X184744500Y-109004121D01*
X184744500Y-109263516D01*
X184724569Y-109344378D01*
X184693537Y-109386553D01*
X184686553Y-109393537D01*
X184615282Y-109436621D01*
X184563516Y-109444500D01*
X183924000Y-109444500D01*
X183890947Y-109448053D01*
X183839432Y-109459260D01*
X183770661Y-109493685D01*
X183770659Y-109493686D01*
X183717846Y-109539449D01*
X183712378Y-109544421D01*
X183670484Y-109613149D01*
X183670483Y-109613151D01*
X183650798Y-109680188D01*
X183650797Y-109680194D01*
X183644500Y-109723999D01*
X183644500Y-111125500D01*
X183624569Y-111206362D01*
X183569343Y-111268699D01*
X183491473Y-111298231D01*
X183470500Y-111299500D01*
X181379500Y-111299500D01*
X181298638Y-111279569D01*
X181236301Y-111224343D01*
X181206769Y-111146473D01*
X181205500Y-111125500D01*
X181205500Y-109636483D01*
X181225431Y-109555621D01*
X181256463Y-109513446D01*
X181263446Y-109506463D01*
X181334717Y-109463379D01*
X181386483Y-109455500D01*
X181501000Y-109455500D01*
X181534055Y-109451946D01*
X181585566Y-109440740D01*
X181654342Y-109406313D01*
X181707146Y-109360558D01*
X181712621Y-109355580D01*
X181754516Y-109286850D01*
X181774201Y-109219811D01*
X181780500Y-109176000D01*
X181780500Y-104740911D01*
X181800431Y-104660049D01*
X181855657Y-104597712D01*
X181933527Y-104568180D01*
X182016201Y-104578218D01*
G37*
%TD.AperFunction*%
%TA.AperFunction,Conductor*%
G36*
X192967984Y-88720431D02*
G01*
X193030321Y-88775657D01*
X193059853Y-88853527D01*
X193059351Y-88899260D01*
X193050363Y-88961774D01*
X193044867Y-89000000D01*
X193063302Y-89128224D01*
X193063305Y-89128234D01*
X193117114Y-89246057D01*
X193117117Y-89246062D01*
X193181756Y-89320661D01*
X193201951Y-89343967D01*
X193310931Y-89414004D01*
X193435228Y-89450500D01*
X193564772Y-89450500D01*
X193689069Y-89414004D01*
X193798049Y-89343967D01*
X193882882Y-89246063D01*
X193882885Y-89246057D01*
X193936694Y-89128234D01*
X193936695Y-89128229D01*
X193936697Y-89128226D01*
X193955133Y-89000000D01*
X193940649Y-88899261D01*
X193948869Y-88816388D01*
X193994661Y-88746825D01*
X194067536Y-88706512D01*
X194112878Y-88700500D01*
X194287122Y-88700500D01*
X194367984Y-88720431D01*
X194430321Y-88775657D01*
X194459853Y-88853527D01*
X194459351Y-88899260D01*
X194450363Y-88961774D01*
X194444867Y-89000000D01*
X194463302Y-89128224D01*
X194463305Y-89128234D01*
X194517114Y-89246057D01*
X194517117Y-89246062D01*
X194581756Y-89320661D01*
X194601951Y-89343967D01*
X194710931Y-89414004D01*
X194835228Y-89450500D01*
X194964772Y-89450500D01*
X195089069Y-89414004D01*
X195198049Y-89343967D01*
X195282882Y-89246063D01*
X195282883Y-89246060D01*
X195283906Y-89244880D01*
X195332285Y-89210694D01*
X195327088Y-89192374D01*
X195334032Y-89137299D01*
X195336692Y-89128234D01*
X195336697Y-89128226D01*
X195355133Y-89000000D01*
X195340649Y-88899261D01*
X195348869Y-88816388D01*
X195394661Y-88746825D01*
X195467536Y-88706512D01*
X195512878Y-88700500D01*
X199344876Y-88700500D01*
X199425738Y-88720431D01*
X199467913Y-88751463D01*
X199748537Y-89032087D01*
X199791621Y-89103358D01*
X199799500Y-89155124D01*
X199799500Y-89445117D01*
X199779569Y-89525979D01*
X199724343Y-89588316D01*
X199646473Y-89617848D01*
X199563799Y-89607810D01*
X199495259Y-89560500D01*
X199493999Y-89559062D01*
X199448050Y-89506034D01*
X199448049Y-89506033D01*
X199339069Y-89435996D01*
X199339067Y-89435995D01*
X199339065Y-89435994D01*
X199214773Y-89399500D01*
X199214772Y-89399500D01*
X199085228Y-89399500D01*
X199085226Y-89399500D01*
X198960934Y-89435994D01*
X198851949Y-89506034D01*
X198767117Y-89603937D01*
X198767115Y-89603941D01*
X198762774Y-89613447D01*
X198711052Y-89678721D01*
X198634920Y-89712481D01*
X198551819Y-89706994D01*
X198480786Y-89663517D01*
X198438095Y-89592009D01*
X198430500Y-89541161D01*
X198430500Y-89473999D01*
X198427973Y-89450499D01*
X198426946Y-89440945D01*
X198415740Y-89389434D01*
X198381313Y-89320658D01*
X198335558Y-89267854D01*
X198330580Y-89262379D01*
X198261850Y-89220484D01*
X198261848Y-89220483D01*
X198194811Y-89200798D01*
X198194805Y-89200797D01*
X198151000Y-89194500D01*
X195849000Y-89194500D01*
X195815947Y-89198053D01*
X195764432Y-89209260D01*
X195695661Y-89243685D01*
X195695659Y-89243686D01*
X195642846Y-89289449D01*
X195637373Y-89294425D01*
X195635156Y-89297111D01*
X195631132Y-89300099D01*
X195628175Y-89302789D01*
X195627907Y-89302495D01*
X195583806Y-89335256D01*
X195589397Y-89356910D01*
X195582360Y-89407845D01*
X195575797Y-89430195D01*
X195569500Y-89473999D01*
X195569500Y-90118199D01*
X195549569Y-90199061D01*
X195494343Y-90261398D01*
X195416473Y-90290930D01*
X195333799Y-90280892D01*
X195265259Y-90233582D01*
X195263999Y-90232144D01*
X195198050Y-90156034D01*
X195198049Y-90156033D01*
X195089069Y-90085996D01*
X195089067Y-90085995D01*
X195089065Y-90085994D01*
X194964773Y-90049500D01*
X194964772Y-90049500D01*
X194835228Y-90049500D01*
X194835226Y-90049500D01*
X194710934Y-90085994D01*
X194601949Y-90156034D01*
X194517117Y-90253937D01*
X194517114Y-90253942D01*
X194463305Y-90371765D01*
X194463302Y-90371775D01*
X194444867Y-90500000D01*
X194463302Y-90628224D01*
X194463305Y-90628234D01*
X194517114Y-90746057D01*
X194517117Y-90746062D01*
X194592030Y-90832518D01*
X194601951Y-90843967D01*
X194710931Y-90914004D01*
X194835228Y-90950500D01*
X194964772Y-90950500D01*
X195089069Y-90914004D01*
X195198049Y-90843967D01*
X195263999Y-90767855D01*
X195332013Y-90719796D01*
X195414573Y-90708848D01*
X195492763Y-90737522D01*
X195548671Y-90799249D01*
X195569489Y-90879887D01*
X195569500Y-90881800D01*
X195569500Y-91618199D01*
X195549569Y-91699061D01*
X195494343Y-91761398D01*
X195416473Y-91790930D01*
X195333799Y-91780892D01*
X195265259Y-91733582D01*
X195263999Y-91732144D01*
X195198050Y-91656034D01*
X195198049Y-91656033D01*
X195089069Y-91585996D01*
X195089067Y-91585995D01*
X195089065Y-91585994D01*
X194964773Y-91549500D01*
X194964772Y-91549500D01*
X194835228Y-91549500D01*
X194835226Y-91549500D01*
X194710934Y-91585994D01*
X194601949Y-91656034D01*
X194517117Y-91753937D01*
X194517114Y-91753942D01*
X194463305Y-91871765D01*
X194463302Y-91871775D01*
X194444867Y-92000000D01*
X194463302Y-92128224D01*
X194463305Y-92128234D01*
X194517114Y-92246057D01*
X194517117Y-92246062D01*
X194560442Y-92296063D01*
X194601951Y-92343967D01*
X194710931Y-92414004D01*
X194835228Y-92450500D01*
X194964772Y-92450500D01*
X195089069Y-92414004D01*
X195198049Y-92343967D01*
X195263999Y-92267855D01*
X195332013Y-92219796D01*
X195414573Y-92208848D01*
X195492763Y-92237522D01*
X195548671Y-92299249D01*
X195569489Y-92379887D01*
X195569500Y-92381800D01*
X195569500Y-92426000D01*
X195573053Y-92459052D01*
X195584260Y-92510567D01*
X195597417Y-92536850D01*
X195618687Y-92579342D01*
X195664442Y-92632146D01*
X195669420Y-92637621D01*
X195738150Y-92679516D01*
X195771669Y-92689358D01*
X195805188Y-92699201D01*
X195805194Y-92699202D01*
X195849000Y-92705500D01*
X197380433Y-92705500D01*
X197461295Y-92725431D01*
X197523632Y-92780657D01*
X197553164Y-92858527D01*
X197554378Y-92875146D01*
X197561767Y-93170661D01*
X197578084Y-93823376D01*
X197560180Y-93904711D01*
X197506529Y-93968409D01*
X197429422Y-93999878D01*
X197346522Y-93991909D01*
X197309880Y-93970643D01*
X197308519Y-93972762D01*
X197298049Y-93966033D01*
X197189069Y-93895996D01*
X197189067Y-93895995D01*
X197189065Y-93895994D01*
X197064773Y-93859500D01*
X197064772Y-93859500D01*
X196935228Y-93859500D01*
X196935226Y-93859500D01*
X196810934Y-93895994D01*
X196701949Y-93966034D01*
X196617117Y-94063937D01*
X196617114Y-94063942D01*
X196563305Y-94181765D01*
X196563302Y-94181775D01*
X196544867Y-94310000D01*
X196563302Y-94438224D01*
X196563305Y-94438234D01*
X196617114Y-94556057D01*
X196617117Y-94556062D01*
X196652673Y-94597097D01*
X196701951Y-94653967D01*
X196810931Y-94724004D01*
X196935228Y-94760500D01*
X197064772Y-94760500D01*
X197189069Y-94724004D01*
X197298049Y-94653967D01*
X197298052Y-94653964D01*
X197307455Y-94645817D01*
X197308709Y-94647264D01*
X197364201Y-94608049D01*
X197446760Y-94597097D01*
X197524951Y-94625767D01*
X197548329Y-94651574D01*
X197549314Y-94650565D01*
X197600000Y-94700000D01*
X199625500Y-94700000D01*
X199706362Y-94719931D01*
X199768699Y-94775157D01*
X199798231Y-94853027D01*
X199799500Y-94874000D01*
X199799500Y-95725828D01*
X199779569Y-95806690D01*
X199724343Y-95869027D01*
X199646473Y-95898559D01*
X199600737Y-95898057D01*
X199576000Y-95894500D01*
X198056381Y-95894500D01*
X198054958Y-95894600D01*
X198027485Y-95896541D01*
X197992937Y-95901450D01*
X197992933Y-95901451D01*
X197911316Y-95931660D01*
X197911313Y-95931662D01*
X197852417Y-95969236D01*
X197808078Y-96007398D01*
X197733518Y-96092870D01*
X197665343Y-96140703D01*
X197582747Y-96151375D01*
X197504653Y-96122440D01*
X197448952Y-96060528D01*
X197441411Y-96042095D01*
X197382885Y-95913942D01*
X197382882Y-95913937D01*
X197298050Y-95816034D01*
X197298049Y-95816033D01*
X197189069Y-95745996D01*
X197189067Y-95745995D01*
X197189065Y-95745994D01*
X197064773Y-95709500D01*
X197064772Y-95709500D01*
X196935228Y-95709500D01*
X196935226Y-95709500D01*
X196810934Y-95745994D01*
X196701949Y-95816034D01*
X196617117Y-95913937D01*
X196617114Y-95913942D01*
X196563305Y-96031765D01*
X196563302Y-96031775D01*
X196544867Y-96160000D01*
X196563302Y-96288224D01*
X196563305Y-96288234D01*
X196617114Y-96406057D01*
X196617117Y-96406062D01*
X196698513Y-96500000D01*
X196701951Y-96503967D01*
X196810931Y-96574004D01*
X196810933Y-96574004D01*
X196810934Y-96574005D01*
X196947168Y-96614006D01*
X196946233Y-96617188D01*
X197003853Y-96640495D01*
X197057701Y-96704026D01*
X197075857Y-96785305D01*
X197054162Y-96865711D01*
X197033020Y-96895879D01*
X195871280Y-98227630D01*
X195871269Y-98227643D01*
X195849582Y-98257560D01*
X195849580Y-98257563D01*
X195826828Y-98295767D01*
X195825090Y-98298743D01*
X195825085Y-98298756D01*
X195814417Y-98333760D01*
X195778796Y-98397759D01*
X195631227Y-98566028D01*
X195631226Y-98566030D01*
X195460038Y-98822231D01*
X195460035Y-98822237D01*
X195323763Y-99098570D01*
X195225097Y-99389231D01*
X195224720Y-99390341D01*
X195165198Y-99689580D01*
X195164608Y-99692546D01*
X195144457Y-99999993D01*
X195144457Y-100000006D01*
X195164608Y-100307453D01*
X195164608Y-100307457D01*
X195164609Y-100307460D01*
X195224720Y-100609659D01*
X195323762Y-100901427D01*
X195359853Y-100974612D01*
X195460035Y-101177763D01*
X195460038Y-101177769D01*
X195631220Y-101433962D01*
X195652836Y-101458610D01*
X195834380Y-101665620D01*
X196001726Y-101812379D01*
X196066037Y-101868779D01*
X196152661Y-101926659D01*
X196322228Y-102039960D01*
X196598573Y-102176238D01*
X196890341Y-102275280D01*
X197192540Y-102335391D01*
X197334444Y-102344691D01*
X197499993Y-102355543D01*
X197500000Y-102355543D01*
X197500007Y-102355543D01*
X197653730Y-102345467D01*
X197807460Y-102335391D01*
X198109659Y-102275280D01*
X198401427Y-102176238D01*
X198677772Y-102039960D01*
X198933964Y-101868778D01*
X199165620Y-101665620D01*
X199368778Y-101433964D01*
X199480826Y-101266271D01*
X199542320Y-101210113D01*
X199622871Y-101188963D01*
X199704025Y-101207670D01*
X199767190Y-101261948D01*
X199797895Y-101339362D01*
X199799500Y-101362943D01*
X199799500Y-110844876D01*
X199779569Y-110925738D01*
X199748537Y-110967913D01*
X199467913Y-111248537D01*
X199396642Y-111291621D01*
X199344876Y-111299500D01*
X192900959Y-111299500D01*
X192820097Y-111279569D01*
X192757760Y-111224343D01*
X192728228Y-111146473D01*
X192738266Y-111063799D01*
X192769458Y-111011555D01*
X192782882Y-110996063D01*
X192814999Y-110925738D01*
X192836694Y-110878234D01*
X192836695Y-110878229D01*
X192836697Y-110878226D01*
X192855133Y-110750000D01*
X192836697Y-110621774D01*
X192836696Y-110621772D01*
X192836694Y-110621765D01*
X192782885Y-110503942D01*
X192782882Y-110503937D01*
X192698050Y-110406034D01*
X192698049Y-110406033D01*
X192589069Y-110335996D01*
X192589067Y-110335995D01*
X192589065Y-110335994D01*
X192464773Y-110299500D01*
X192464772Y-110299500D01*
X192335228Y-110299500D01*
X192335226Y-110299500D01*
X192210934Y-110335994D01*
X192101949Y-110406034D01*
X192017117Y-110503937D01*
X192017114Y-110503942D01*
X191963305Y-110621765D01*
X191963302Y-110621775D01*
X191944867Y-110750000D01*
X191963302Y-110878224D01*
X191963305Y-110878234D01*
X192017114Y-110996057D01*
X192017117Y-110996062D01*
X192030542Y-111011555D01*
X192068432Y-111085719D01*
X192067517Y-111168996D01*
X192028006Y-111242308D01*
X191958950Y-111288861D01*
X191899041Y-111299500D01*
X190729500Y-111299500D01*
X190648638Y-111279569D01*
X190586301Y-111224343D01*
X190556769Y-111146473D01*
X190555500Y-111125500D01*
X190555500Y-109116961D01*
X190551946Y-109083908D01*
X190540739Y-109032393D01*
X190540739Y-109032392D01*
X190540739Y-109032391D01*
X190506309Y-108963613D01*
X190471598Y-108923557D01*
X190433707Y-108849396D01*
X190434620Y-108766119D01*
X190444824Y-108737320D01*
X190446692Y-108733230D01*
X190465128Y-108605004D01*
X190446692Y-108476778D01*
X190446691Y-108476776D01*
X190443185Y-108464834D01*
X190445445Y-108464170D01*
X190433162Y-108399196D01*
X190457493Y-108319548D01*
X190516052Y-108260330D01*
X190550991Y-108246308D01*
X190550304Y-108244360D01*
X190560558Y-108240741D01*
X190560566Y-108240740D01*
X190629342Y-108206313D01*
X190682146Y-108160558D01*
X190687621Y-108155580D01*
X190729516Y-108086850D01*
X190749201Y-108019811D01*
X190755500Y-107976000D01*
X190755500Y-104524000D01*
X190751946Y-104490945D01*
X190740740Y-104439434D01*
X190706313Y-104370658D01*
X190660558Y-104317854D01*
X190655580Y-104312379D01*
X190586850Y-104270484D01*
X190586848Y-104270483D01*
X190519811Y-104250798D01*
X190519805Y-104250797D01*
X190476000Y-104244500D01*
X189199500Y-104244500D01*
X189118638Y-104224569D01*
X189056301Y-104169343D01*
X189026769Y-104091473D01*
X189025500Y-104070500D01*
X189025500Y-103920198D01*
X188983558Y-103818945D01*
X188983557Y-103818942D01*
X188947133Y-103782518D01*
X188906058Y-103741442D01*
X188906058Y-103741443D01*
X186031058Y-100866443D01*
X186031055Y-100866441D01*
X186031054Y-100866441D01*
X185929801Y-100824500D01*
X185929800Y-100824500D01*
X180186189Y-100824500D01*
X180105327Y-100804569D01*
X180063152Y-100773537D01*
X178218382Y-98928767D01*
X178175298Y-98857496D01*
X178169561Y-98832948D01*
X178164343Y-98800000D01*
X178161574Y-98782518D01*
X178107573Y-98676535D01*
X178081038Y-98650000D01*
X179924819Y-98650000D01*
X179943425Y-98767480D01*
X179943426Y-98767483D01*
X179997425Y-98873462D01*
X179997427Y-98873465D01*
X180081535Y-98957573D01*
X180140482Y-98987608D01*
X180203481Y-99042075D01*
X180233952Y-99119582D01*
X180224914Y-99202372D01*
X180178437Y-99271478D01*
X180140484Y-99297676D01*
X180111537Y-99312425D01*
X180027425Y-99396537D01*
X179973426Y-99502516D01*
X179973425Y-99502519D01*
X179954819Y-99620000D01*
X179973425Y-99737480D01*
X179973426Y-99737483D01*
X180005280Y-99800000D01*
X180027427Y-99843465D01*
X180111535Y-99927573D01*
X180217518Y-99981574D01*
X180335000Y-100000181D01*
X180452482Y-99981574D01*
X180558465Y-99927573D01*
X180600766Y-99885272D01*
X186749500Y-99885272D01*
X186749500Y-100114727D01*
X186749501Y-100114746D01*
X186779450Y-100342228D01*
X186779452Y-100342237D01*
X186838840Y-100563883D01*
X186838841Y-100563886D01*
X186926656Y-100775890D01*
X186926659Y-100775896D01*
X187041389Y-100974613D01*
X187181075Y-101156654D01*
X187181077Y-101156656D01*
X187181081Y-101156661D01*
X187343339Y-101318919D01*
X187343343Y-101318922D01*
X187343345Y-101318924D01*
X187525386Y-101458610D01*
X187724103Y-101573340D01*
X187724109Y-101573343D01*
X187936113Y-101661158D01*
X187936116Y-101661159D01*
X187964671Y-101668810D01*
X188157762Y-101720548D01*
X188385266Y-101750500D01*
X188385273Y-101750500D01*
X188614727Y-101750500D01*
X188614734Y-101750500D01*
X188842238Y-101720548D01*
X189063887Y-101661158D01*
X189275888Y-101573344D01*
X189275890Y-101573343D01*
X189275896Y-101573340D01*
X189416041Y-101492427D01*
X189474612Y-101458611D01*
X189656661Y-101318919D01*
X189818919Y-101156661D01*
X189958611Y-100974612D01*
X190021062Y-100866443D01*
X190073340Y-100775896D01*
X190073343Y-100775890D01*
X190079705Y-100760531D01*
X190161158Y-100563887D01*
X190220548Y-100342238D01*
X190250500Y-100114734D01*
X190250500Y-99885266D01*
X190220548Y-99657762D01*
X190161778Y-99438426D01*
X190161159Y-99436116D01*
X190161158Y-99436113D01*
X190073343Y-99224109D01*
X190073340Y-99224103D01*
X189958610Y-99025386D01*
X189818924Y-98843345D01*
X189818922Y-98843343D01*
X189818919Y-98843339D01*
X189656661Y-98681081D01*
X189656656Y-98681077D01*
X189656654Y-98681075D01*
X189474613Y-98541389D01*
X189275896Y-98426659D01*
X189275890Y-98426656D01*
X189063886Y-98338841D01*
X189063883Y-98338840D01*
X188891886Y-98292755D01*
X188842238Y-98279452D01*
X188842235Y-98279451D01*
X188842228Y-98279450D01*
X188614746Y-98249501D01*
X188614738Y-98249500D01*
X188614734Y-98249500D01*
X188385266Y-98249500D01*
X188385261Y-98249500D01*
X188385253Y-98249501D01*
X188157771Y-98279450D01*
X188157762Y-98279452D01*
X187936116Y-98338840D01*
X187936113Y-98338841D01*
X187724109Y-98426656D01*
X187724103Y-98426659D01*
X187525386Y-98541389D01*
X187343345Y-98681075D01*
X187181075Y-98843345D01*
X187041389Y-99025386D01*
X186926659Y-99224103D01*
X186926656Y-99224109D01*
X186838841Y-99436113D01*
X186838840Y-99436116D01*
X186779452Y-99657762D01*
X186779450Y-99657771D01*
X186749501Y-99885253D01*
X186749500Y-99885272D01*
X180600766Y-99885272D01*
X180642573Y-99843465D01*
X180696574Y-99737482D01*
X180715181Y-99620000D01*
X180696574Y-99502518D01*
X180642573Y-99396535D01*
X180558465Y-99312427D01*
X180558462Y-99312425D01*
X180499518Y-99282392D01*
X180436518Y-99227924D01*
X180406047Y-99150416D01*
X180415085Y-99067626D01*
X180461563Y-98998520D01*
X180499515Y-98972323D01*
X180528465Y-98957573D01*
X180612573Y-98873465D01*
X180666574Y-98767482D01*
X180685181Y-98650000D01*
X180666574Y-98532518D01*
X180612573Y-98426535D01*
X180528465Y-98342427D01*
X180528462Y-98342425D01*
X180422483Y-98288426D01*
X180422480Y-98288425D01*
X180305000Y-98269819D01*
X180187519Y-98288425D01*
X180187516Y-98288426D01*
X180081537Y-98342425D01*
X179997425Y-98426537D01*
X179943426Y-98532516D01*
X179943425Y-98532519D01*
X179924819Y-98650000D01*
X178081038Y-98650000D01*
X178023465Y-98592427D01*
X178023462Y-98592425D01*
X177917483Y-98538426D01*
X177917480Y-98538425D01*
X177800000Y-98519819D01*
X177682519Y-98538425D01*
X177682518Y-98538425D01*
X177578993Y-98591174D01*
X177497897Y-98610125D01*
X177421007Y-98591174D01*
X177317480Y-98538425D01*
X177200000Y-98519819D01*
X177082519Y-98538425D01*
X177082516Y-98538426D01*
X176976537Y-98592425D01*
X176976533Y-98592428D01*
X176889824Y-98679137D01*
X176818553Y-98722222D01*
X176735423Y-98727250D01*
X176659478Y-98693069D01*
X176643767Y-98679151D01*
X176162149Y-98197533D01*
X176119067Y-98126266D01*
X176114038Y-98043136D01*
X176148218Y-97967191D01*
X176213776Y-97915829D01*
X176285188Y-97900500D01*
X177799828Y-97900500D01*
X177891897Y-97862364D01*
X178077796Y-97676463D01*
X178149067Y-97633379D01*
X178200833Y-97625500D01*
X189649165Y-97625500D01*
X189730027Y-97645431D01*
X189772202Y-97676463D01*
X190923537Y-98827798D01*
X190966621Y-98899069D01*
X190974500Y-98950835D01*
X190974500Y-103149828D01*
X191012634Y-103241894D01*
X191012637Y-103241899D01*
X191386036Y-103615296D01*
X191429121Y-103686567D01*
X191437000Y-103738333D01*
X191437000Y-104912328D01*
X191475134Y-105004394D01*
X191475135Y-105004395D01*
X191475136Y-105004397D01*
X193070174Y-106599434D01*
X194599964Y-108129224D01*
X194643048Y-108200495D01*
X194648785Y-108225042D01*
X194663425Y-108317480D01*
X194663426Y-108317483D01*
X194705061Y-108399196D01*
X194717427Y-108423465D01*
X194801535Y-108507573D01*
X194907518Y-108561574D01*
X195025000Y-108580181D01*
X195142482Y-108561574D01*
X195248465Y-108507573D01*
X195332573Y-108423465D01*
X195386574Y-108317482D01*
X195405181Y-108200000D01*
X195386574Y-108082518D01*
X195332573Y-107976535D01*
X195248465Y-107892427D01*
X195248462Y-107892425D01*
X195175079Y-107855035D01*
X195112079Y-107800567D01*
X195081608Y-107723059D01*
X195090646Y-107640269D01*
X195137124Y-107571163D01*
X195175079Y-107544965D01*
X195248465Y-107507573D01*
X195332573Y-107423465D01*
X195386574Y-107317482D01*
X195405181Y-107200000D01*
X195386574Y-107082518D01*
X195332573Y-106976535D01*
X195248465Y-106892427D01*
X195248462Y-106892425D01*
X195175079Y-106855035D01*
X195112079Y-106800567D01*
X195081608Y-106723059D01*
X195090646Y-106640269D01*
X195137124Y-106571163D01*
X195175079Y-106544965D01*
X195248465Y-106507573D01*
X195332573Y-106423465D01*
X195386574Y-106317482D01*
X195405181Y-106200000D01*
X195386574Y-106082518D01*
X195332573Y-105976535D01*
X195248465Y-105892427D01*
X195248462Y-105892425D01*
X195142483Y-105838426D01*
X195142480Y-105838425D01*
X195025000Y-105819819D01*
X194907519Y-105838425D01*
X194907516Y-105838426D01*
X194801537Y-105892425D01*
X194717425Y-105976537D01*
X194663426Y-106082516D01*
X194663425Y-106082519D01*
X194644819Y-106200000D01*
X194663425Y-106317480D01*
X194663426Y-106317483D01*
X194717425Y-106423462D01*
X194717427Y-106423465D01*
X194801535Y-106507573D01*
X194874921Y-106544965D01*
X194937921Y-106599434D01*
X194968391Y-106676941D01*
X194959352Y-106759731D01*
X194912874Y-106828837D01*
X194874921Y-106855035D01*
X194801536Y-106892426D01*
X194717425Y-106976537D01*
X194663426Y-107082516D01*
X194663424Y-107082522D01*
X194661929Y-107091963D01*
X194629592Y-107168710D01*
X194565292Y-107221639D01*
X194483761Y-107238624D01*
X194403675Y-107215773D01*
X194367035Y-107187775D01*
X193496743Y-106317483D01*
X192403559Y-105224298D01*
X192388871Y-105200000D01*
X195269819Y-105200000D01*
X195288425Y-105317480D01*
X195288426Y-105317483D01*
X195342425Y-105423462D01*
X195342427Y-105423465D01*
X195426535Y-105507573D01*
X195532518Y-105561574D01*
X195650000Y-105580181D01*
X195767482Y-105561574D01*
X195873465Y-105507573D01*
X195957573Y-105423465D01*
X196011574Y-105317482D01*
X196030181Y-105200000D01*
X196011574Y-105082518D01*
X195957573Y-104976535D01*
X195873465Y-104892427D01*
X195873462Y-104892425D01*
X195767483Y-104838426D01*
X195767480Y-104838425D01*
X195650000Y-104819819D01*
X195532519Y-104838425D01*
X195532516Y-104838426D01*
X195426537Y-104892425D01*
X195342425Y-104976537D01*
X195288426Y-105082516D01*
X195288425Y-105082519D01*
X195269819Y-105200000D01*
X192388871Y-105200000D01*
X192360475Y-105153026D01*
X192355446Y-105069897D01*
X192389626Y-104993952D01*
X192447600Y-104946227D01*
X192523465Y-104907573D01*
X192607573Y-104823465D01*
X192661574Y-104717482D01*
X192680181Y-104600000D01*
X192661574Y-104482518D01*
X192607573Y-104376535D01*
X192604072Y-104373034D01*
X192560990Y-104301766D01*
X192555961Y-104218636D01*
X192590141Y-104142691D01*
X192604066Y-104126971D01*
X192607573Y-104123465D01*
X192661574Y-104017482D01*
X192680181Y-103900000D01*
X192661574Y-103782518D01*
X192623856Y-103708493D01*
X192604905Y-103627398D01*
X192625811Y-103546783D01*
X192681786Y-103485117D01*
X192760007Y-103456528D01*
X192778892Y-103455500D01*
X195176000Y-103455500D01*
X195209055Y-103451946D01*
X195260566Y-103440740D01*
X195329342Y-103406313D01*
X195382146Y-103360558D01*
X195387621Y-103355580D01*
X195429516Y-103286850D01*
X195449201Y-103219811D01*
X195451978Y-103200500D01*
X195455500Y-103176000D01*
X195455500Y-102023999D01*
X195451946Y-101990947D01*
X195448620Y-101975657D01*
X195440740Y-101939434D01*
X195406313Y-101870658D01*
X195360558Y-101817854D01*
X195355580Y-101812379D01*
X195286850Y-101770484D01*
X195286848Y-101770483D01*
X195219811Y-101750798D01*
X195219805Y-101750797D01*
X195176000Y-101744500D01*
X194929500Y-101744500D01*
X194848638Y-101724569D01*
X194786301Y-101669343D01*
X194756769Y-101591473D01*
X194755500Y-101570500D01*
X194755500Y-97523999D01*
X194754315Y-97512981D01*
X194751946Y-97490945D01*
X194740740Y-97439434D01*
X194706313Y-97370658D01*
X194660558Y-97317854D01*
X194655580Y-97312379D01*
X194586850Y-97270484D01*
X194586848Y-97270483D01*
X194519811Y-97250798D01*
X194519805Y-97250797D01*
X194476000Y-97244500D01*
X193765248Y-97244500D01*
X193684386Y-97224569D01*
X193622049Y-97169343D01*
X193592517Y-97091473D01*
X193602555Y-97008799D01*
X193649865Y-96940259D01*
X193678979Y-96921321D01*
X193678600Y-96920731D01*
X193689066Y-96914004D01*
X193689069Y-96914004D01*
X193798049Y-96843967D01*
X193882882Y-96746063D01*
X193931094Y-96640495D01*
X193936694Y-96628234D01*
X193936695Y-96628229D01*
X193936697Y-96628226D01*
X193955133Y-96500000D01*
X194544867Y-96500000D01*
X194563302Y-96628224D01*
X194563305Y-96628234D01*
X194617114Y-96746057D01*
X194617117Y-96746062D01*
X194617118Y-96746063D01*
X194701951Y-96843967D01*
X194810931Y-96914004D01*
X194935228Y-96950500D01*
X195064772Y-96950500D01*
X195189069Y-96914004D01*
X195298049Y-96843967D01*
X195382882Y-96746063D01*
X195431094Y-96640495D01*
X195436694Y-96628234D01*
X195436695Y-96628229D01*
X195436697Y-96628226D01*
X195455133Y-96500000D01*
X195436697Y-96371774D01*
X195436696Y-96371772D01*
X195436694Y-96371765D01*
X195382885Y-96253942D01*
X195382882Y-96253937D01*
X195298050Y-96156034D01*
X195298049Y-96156033D01*
X195189069Y-96085996D01*
X195189067Y-96085995D01*
X195189065Y-96085994D01*
X195064773Y-96049500D01*
X195064772Y-96049500D01*
X194935228Y-96049500D01*
X194935226Y-96049500D01*
X194810934Y-96085994D01*
X194701949Y-96156034D01*
X194617117Y-96253937D01*
X194617114Y-96253942D01*
X194563305Y-96371765D01*
X194563302Y-96371775D01*
X194544867Y-96500000D01*
X193955133Y-96500000D01*
X193936697Y-96371774D01*
X193936696Y-96371772D01*
X193936694Y-96371765D01*
X193882885Y-96253942D01*
X193882882Y-96253937D01*
X193798050Y-96156034D01*
X193798049Y-96156033D01*
X193689069Y-96085996D01*
X193689067Y-96085995D01*
X193689065Y-96085994D01*
X193564773Y-96049500D01*
X193564772Y-96049500D01*
X193435228Y-96049500D01*
X193435226Y-96049500D01*
X193310934Y-96085994D01*
X193201949Y-96156034D01*
X193117117Y-96253937D01*
X193117114Y-96253942D01*
X193063305Y-96371765D01*
X193063302Y-96371775D01*
X193044867Y-96500000D01*
X193063302Y-96628224D01*
X193063305Y-96628234D01*
X193117114Y-96746057D01*
X193117117Y-96746062D01*
X193117118Y-96746063D01*
X193201951Y-96843967D01*
X193310931Y-96914004D01*
X193310933Y-96914004D01*
X193310937Y-96914007D01*
X193322253Y-96919175D01*
X193320790Y-96922376D01*
X193373772Y-96953212D01*
X193418038Y-97023756D01*
X193424450Y-97106791D01*
X193391540Y-97183294D01*
X193326847Y-97235740D01*
X193289794Y-97248303D01*
X193239436Y-97259259D01*
X193239433Y-97259260D01*
X193170661Y-97293685D01*
X193170659Y-97293686D01*
X193117846Y-97339449D01*
X193112378Y-97344421D01*
X193070484Y-97413149D01*
X193070483Y-97413151D01*
X193050798Y-97480188D01*
X193050797Y-97480194D01*
X193044500Y-97523999D01*
X193044500Y-101570500D01*
X193024569Y-101651362D01*
X192969343Y-101713699D01*
X192891473Y-101743231D01*
X192870500Y-101744500D01*
X191824000Y-101744500D01*
X191790947Y-101748053D01*
X191739432Y-101759260D01*
X191739427Y-101759262D01*
X191727381Y-101765292D01*
X191646150Y-101783663D01*
X191565687Y-101762179D01*
X191504425Y-101705763D01*
X191476397Y-101627339D01*
X191475500Y-101609695D01*
X191475500Y-98725171D01*
X191437364Y-98633103D01*
X191366897Y-98562635D01*
X191366897Y-98562636D01*
X189966897Y-97162636D01*
X189966895Y-97162635D01*
X189966894Y-97162634D01*
X189874829Y-97124500D01*
X189874828Y-97124500D01*
X189435973Y-97124500D01*
X189355111Y-97104569D01*
X189292774Y-97049343D01*
X189263242Y-96971473D01*
X189273280Y-96888799D01*
X189304471Y-96836556D01*
X189348879Y-96785305D01*
X189382882Y-96746063D01*
X189431094Y-96640495D01*
X189436694Y-96628234D01*
X189436695Y-96628229D01*
X189436697Y-96628226D01*
X189455133Y-96500000D01*
X190044867Y-96500000D01*
X190063302Y-96628224D01*
X190063305Y-96628234D01*
X190117114Y-96746057D01*
X190117117Y-96746062D01*
X190117118Y-96746063D01*
X190201951Y-96843967D01*
X190310931Y-96914004D01*
X190435228Y-96950500D01*
X190564772Y-96950500D01*
X190689069Y-96914004D01*
X190798049Y-96843967D01*
X190882882Y-96746063D01*
X190931094Y-96640495D01*
X190936694Y-96628234D01*
X190936695Y-96628229D01*
X190936697Y-96628226D01*
X190955133Y-96500000D01*
X190936697Y-96371774D01*
X190936696Y-96371772D01*
X190936694Y-96371765D01*
X190882885Y-96253942D01*
X190882882Y-96253937D01*
X190798050Y-96156034D01*
X190798049Y-96156033D01*
X190689069Y-96085996D01*
X190689067Y-96085995D01*
X190689065Y-96085994D01*
X190564773Y-96049500D01*
X190564772Y-96049500D01*
X190435228Y-96049500D01*
X190435226Y-96049500D01*
X190310934Y-96085994D01*
X190201949Y-96156034D01*
X190117117Y-96253937D01*
X190117114Y-96253942D01*
X190063305Y-96371765D01*
X190063302Y-96371775D01*
X190044867Y-96500000D01*
X189455133Y-96500000D01*
X189436697Y-96371774D01*
X189436696Y-96371772D01*
X189436694Y-96371765D01*
X189382885Y-96253942D01*
X189382882Y-96253937D01*
X189298050Y-96156034D01*
X189298049Y-96156033D01*
X189189069Y-96085996D01*
X189189067Y-96085995D01*
X189189065Y-96085994D01*
X189064773Y-96049500D01*
X189064772Y-96049500D01*
X188935228Y-96049500D01*
X188935226Y-96049500D01*
X188810934Y-96085994D01*
X188701949Y-96156034D01*
X188617117Y-96253937D01*
X188617114Y-96253942D01*
X188563305Y-96371765D01*
X188563302Y-96371775D01*
X188544867Y-96500000D01*
X188563302Y-96628224D01*
X188563305Y-96628234D01*
X188617114Y-96746057D01*
X188617117Y-96746062D01*
X188695529Y-96836556D01*
X188733419Y-96910720D01*
X188732503Y-96993996D01*
X188692991Y-97067309D01*
X188623935Y-97113862D01*
X188564027Y-97124500D01*
X187935973Y-97124500D01*
X187855111Y-97104569D01*
X187792774Y-97049343D01*
X187763242Y-96971473D01*
X187773280Y-96888799D01*
X187804471Y-96836556D01*
X187848879Y-96785305D01*
X187882882Y-96746063D01*
X187931094Y-96640495D01*
X187936694Y-96628234D01*
X187936695Y-96628229D01*
X187936697Y-96628226D01*
X187955133Y-96500000D01*
X187936697Y-96371774D01*
X187936696Y-96371772D01*
X187936694Y-96371765D01*
X187882885Y-96253942D01*
X187882882Y-96253937D01*
X187798050Y-96156034D01*
X187798049Y-96156033D01*
X187689069Y-96085996D01*
X187689067Y-96085995D01*
X187689065Y-96085994D01*
X187564773Y-96049500D01*
X187564772Y-96049500D01*
X187435228Y-96049500D01*
X187435226Y-96049500D01*
X187310934Y-96085994D01*
X187201949Y-96156034D01*
X187117117Y-96253937D01*
X187117114Y-96253942D01*
X187063305Y-96371765D01*
X187063302Y-96371775D01*
X187044867Y-96500000D01*
X187063302Y-96628224D01*
X187063305Y-96628234D01*
X187117114Y-96746057D01*
X187117117Y-96746062D01*
X187195529Y-96836556D01*
X187233419Y-96910720D01*
X187232503Y-96993996D01*
X187192991Y-97067309D01*
X187123935Y-97113862D01*
X187064027Y-97124500D01*
X186629500Y-97124500D01*
X186548638Y-97104569D01*
X186486301Y-97049343D01*
X186456769Y-96971473D01*
X186455500Y-96950500D01*
X186455500Y-95000000D01*
X187044867Y-95000000D01*
X187063302Y-95128224D01*
X187063305Y-95128234D01*
X187117114Y-95246057D01*
X187117117Y-95246062D01*
X187170366Y-95307516D01*
X187201951Y-95343967D01*
X187310931Y-95414004D01*
X187435228Y-95450500D01*
X187564772Y-95450500D01*
X187689069Y-95414004D01*
X187798049Y-95343967D01*
X187882882Y-95246063D01*
X187882885Y-95246057D01*
X187936694Y-95128234D01*
X187936695Y-95128229D01*
X187936697Y-95128226D01*
X187955133Y-95000000D01*
X188544867Y-95000000D01*
X188563302Y-95128224D01*
X188563305Y-95128234D01*
X188617114Y-95246057D01*
X188617117Y-95246062D01*
X188670366Y-95307516D01*
X188701951Y-95343967D01*
X188810931Y-95414004D01*
X188935228Y-95450500D01*
X189064772Y-95450500D01*
X189189069Y-95414004D01*
X189298049Y-95343967D01*
X189382882Y-95246063D01*
X189382885Y-95246057D01*
X189436694Y-95128234D01*
X189436695Y-95128229D01*
X189436697Y-95128226D01*
X189455133Y-95000000D01*
X190044867Y-95000000D01*
X190063302Y-95128224D01*
X190063305Y-95128234D01*
X190117114Y-95246057D01*
X190117117Y-95246062D01*
X190170366Y-95307516D01*
X190201951Y-95343967D01*
X190310931Y-95414004D01*
X190435228Y-95450500D01*
X190564772Y-95450500D01*
X190689069Y-95414004D01*
X190798049Y-95343967D01*
X190882882Y-95246063D01*
X190882885Y-95246057D01*
X190936694Y-95128234D01*
X190936695Y-95128229D01*
X190936697Y-95128226D01*
X190955133Y-95000000D01*
X190936697Y-94871774D01*
X190936696Y-94871772D01*
X190936694Y-94871765D01*
X190882885Y-94753942D01*
X190882882Y-94753937D01*
X190798050Y-94656034D01*
X190798049Y-94656033D01*
X190689069Y-94585996D01*
X190689067Y-94585995D01*
X190689065Y-94585994D01*
X190564773Y-94549500D01*
X190564772Y-94549500D01*
X190435228Y-94549500D01*
X190435226Y-94549500D01*
X190310934Y-94585994D01*
X190201949Y-94656034D01*
X190117117Y-94753937D01*
X190117114Y-94753942D01*
X190063305Y-94871765D01*
X190063302Y-94871775D01*
X190044867Y-95000000D01*
X189455133Y-95000000D01*
X189436697Y-94871774D01*
X189436696Y-94871772D01*
X189436694Y-94871765D01*
X189382885Y-94753942D01*
X189382882Y-94753937D01*
X189298050Y-94656034D01*
X189298049Y-94656033D01*
X189189069Y-94585996D01*
X189189067Y-94585995D01*
X189189065Y-94585994D01*
X189064773Y-94549500D01*
X189064772Y-94549500D01*
X188935228Y-94549500D01*
X188935226Y-94549500D01*
X188810934Y-94585994D01*
X188701949Y-94656034D01*
X188617117Y-94753937D01*
X188617114Y-94753942D01*
X188563305Y-94871765D01*
X188563302Y-94871775D01*
X188544867Y-95000000D01*
X187955133Y-95000000D01*
X187936697Y-94871774D01*
X187936696Y-94871772D01*
X187936694Y-94871765D01*
X187882885Y-94753942D01*
X187882882Y-94753937D01*
X187798050Y-94656034D01*
X187798049Y-94656033D01*
X187689069Y-94585996D01*
X187689067Y-94585995D01*
X187689065Y-94585994D01*
X187564773Y-94549500D01*
X187564772Y-94549500D01*
X187435228Y-94549500D01*
X187435226Y-94549500D01*
X187310934Y-94585994D01*
X187201949Y-94656034D01*
X187117117Y-94753937D01*
X187117114Y-94753942D01*
X187063305Y-94871765D01*
X187063302Y-94871775D01*
X187044867Y-95000000D01*
X186455500Y-95000000D01*
X186455500Y-93500000D01*
X187044867Y-93500000D01*
X187063302Y-93628224D01*
X187063305Y-93628234D01*
X187117114Y-93746057D01*
X187117117Y-93746062D01*
X187199149Y-93840734D01*
X187201951Y-93843967D01*
X187310931Y-93914004D01*
X187435228Y-93950500D01*
X187564772Y-93950500D01*
X187689069Y-93914004D01*
X187798049Y-93843967D01*
X187882882Y-93746063D01*
X187882885Y-93746057D01*
X187936694Y-93628234D01*
X187936695Y-93628229D01*
X187936697Y-93628226D01*
X187955133Y-93500000D01*
X188544867Y-93500000D01*
X188563302Y-93628224D01*
X188563305Y-93628234D01*
X188617114Y-93746057D01*
X188617117Y-93746062D01*
X188699149Y-93840734D01*
X188701951Y-93843967D01*
X188810931Y-93914004D01*
X188935228Y-93950500D01*
X189064772Y-93950500D01*
X189189069Y-93914004D01*
X189298049Y-93843967D01*
X189382882Y-93746063D01*
X189382885Y-93746057D01*
X189436694Y-93628234D01*
X189436695Y-93628229D01*
X189436697Y-93628226D01*
X189455133Y-93500000D01*
X190044867Y-93500000D01*
X190063302Y-93628224D01*
X190063305Y-93628234D01*
X190117114Y-93746057D01*
X190117117Y-93746062D01*
X190199149Y-93840734D01*
X190201951Y-93843967D01*
X190310931Y-93914004D01*
X190435228Y-93950500D01*
X190564772Y-93950500D01*
X190689069Y-93914004D01*
X190798049Y-93843967D01*
X190882882Y-93746063D01*
X190882885Y-93746057D01*
X190936694Y-93628234D01*
X190936695Y-93628229D01*
X190936697Y-93628226D01*
X190955133Y-93500000D01*
X190936697Y-93371774D01*
X190936696Y-93371772D01*
X190936694Y-93371765D01*
X190914880Y-93323999D01*
X191544500Y-93323999D01*
X191544500Y-93738000D01*
X191546956Y-93765530D01*
X191546957Y-93765533D01*
X191554736Y-93808764D01*
X191554738Y-93808771D01*
X191583208Y-93874299D01*
X191583210Y-93874302D01*
X191625031Y-93930274D01*
X191656300Y-93961599D01*
X191656303Y-93961601D01*
X191656305Y-93961603D01*
X191674899Y-93975548D01*
X191727631Y-94040010D01*
X191744500Y-94114749D01*
X191744500Y-96976000D01*
X191748053Y-97009052D01*
X191759260Y-97060567D01*
X191762559Y-97067157D01*
X191793687Y-97129342D01*
X191839442Y-97182146D01*
X191844420Y-97187621D01*
X191913150Y-97229516D01*
X191944481Y-97238716D01*
X191980188Y-97249201D01*
X191980194Y-97249202D01*
X192024000Y-97255500D01*
X192376000Y-97255500D01*
X192409055Y-97251946D01*
X192460566Y-97240740D01*
X192529342Y-97206313D01*
X192582146Y-97160558D01*
X192587621Y-97155580D01*
X192629516Y-97086850D01*
X192649201Y-97019811D01*
X192650748Y-97009055D01*
X192655500Y-96976000D01*
X192655500Y-95000000D01*
X193044867Y-95000000D01*
X193063302Y-95128224D01*
X193063305Y-95128234D01*
X193117114Y-95246057D01*
X193117117Y-95246062D01*
X193170366Y-95307516D01*
X193201951Y-95343967D01*
X193310931Y-95414004D01*
X193435228Y-95450500D01*
X193564772Y-95450500D01*
X193689069Y-95414004D01*
X193798049Y-95343967D01*
X193882882Y-95246063D01*
X193882885Y-95246057D01*
X193936694Y-95128234D01*
X193936695Y-95128229D01*
X193936697Y-95128226D01*
X193955133Y-95000000D01*
X194544867Y-95000000D01*
X194563302Y-95128224D01*
X194563305Y-95128234D01*
X194617114Y-95246057D01*
X194617117Y-95246062D01*
X194670366Y-95307516D01*
X194701951Y-95343967D01*
X194810931Y-95414004D01*
X194935228Y-95450500D01*
X195064772Y-95450500D01*
X195189069Y-95414004D01*
X195298049Y-95343967D01*
X195382882Y-95246063D01*
X195382885Y-95246057D01*
X195436694Y-95128234D01*
X195436695Y-95128229D01*
X195436697Y-95128226D01*
X195455133Y-95000000D01*
X195436697Y-94871774D01*
X195436696Y-94871772D01*
X195436694Y-94871765D01*
X195382885Y-94753942D01*
X195382882Y-94753937D01*
X195298050Y-94656034D01*
X195298049Y-94656033D01*
X195189069Y-94585996D01*
X195189067Y-94585995D01*
X195189065Y-94585994D01*
X195064773Y-94549500D01*
X195064772Y-94549500D01*
X194935228Y-94549500D01*
X194935226Y-94549500D01*
X194810934Y-94585994D01*
X194701949Y-94656034D01*
X194617117Y-94753937D01*
X194617114Y-94753942D01*
X194563305Y-94871765D01*
X194563302Y-94871775D01*
X194544867Y-95000000D01*
X193955133Y-95000000D01*
X193936697Y-94871774D01*
X193936696Y-94871772D01*
X193936694Y-94871765D01*
X193882885Y-94753942D01*
X193882882Y-94753937D01*
X193798050Y-94656034D01*
X193798049Y-94656033D01*
X193689069Y-94585996D01*
X193689067Y-94585995D01*
X193689065Y-94585994D01*
X193564773Y-94549500D01*
X193564772Y-94549500D01*
X193435228Y-94549500D01*
X193435226Y-94549500D01*
X193310934Y-94585994D01*
X193201949Y-94656034D01*
X193117117Y-94753937D01*
X193117114Y-94753942D01*
X193063305Y-94871765D01*
X193063302Y-94871775D01*
X193044867Y-95000000D01*
X192655500Y-95000000D01*
X192655500Y-93500000D01*
X193044867Y-93500000D01*
X193063302Y-93628224D01*
X193063305Y-93628234D01*
X193117114Y-93746057D01*
X193117117Y-93746062D01*
X193199149Y-93840734D01*
X193201951Y-93843967D01*
X193310931Y-93914004D01*
X193435228Y-93950500D01*
X193564772Y-93950500D01*
X193689069Y-93914004D01*
X193798049Y-93843967D01*
X193882882Y-93746063D01*
X193882885Y-93746057D01*
X193936694Y-93628234D01*
X193936695Y-93628229D01*
X193936697Y-93628226D01*
X193955133Y-93500000D01*
X194544867Y-93500000D01*
X194563302Y-93628224D01*
X194563305Y-93628234D01*
X194617114Y-93746057D01*
X194617117Y-93746062D01*
X194699149Y-93840734D01*
X194701951Y-93843967D01*
X194810931Y-93914004D01*
X194935228Y-93950500D01*
X195064772Y-93950500D01*
X195189069Y-93914004D01*
X195298049Y-93843967D01*
X195382882Y-93746063D01*
X195382885Y-93746057D01*
X195436694Y-93628234D01*
X195436695Y-93628229D01*
X195436697Y-93628226D01*
X195455133Y-93500000D01*
X195436697Y-93371774D01*
X195436696Y-93371772D01*
X195436694Y-93371765D01*
X195382885Y-93253942D01*
X195382882Y-93253937D01*
X195298050Y-93156034D01*
X195298049Y-93156033D01*
X195189069Y-93085996D01*
X195189067Y-93085995D01*
X195189065Y-93085994D01*
X195064773Y-93049500D01*
X195064772Y-93049500D01*
X194935228Y-93049500D01*
X194935226Y-93049500D01*
X194810934Y-93085994D01*
X194701949Y-93156034D01*
X194617117Y-93253937D01*
X194617114Y-93253942D01*
X194563305Y-93371765D01*
X194563302Y-93371775D01*
X194544867Y-93500000D01*
X193955133Y-93500000D01*
X193936697Y-93371774D01*
X193936696Y-93371772D01*
X193936694Y-93371765D01*
X193882885Y-93253942D01*
X193882882Y-93253937D01*
X193798050Y-93156034D01*
X193798049Y-93156033D01*
X193689069Y-93085996D01*
X193689067Y-93085995D01*
X193689065Y-93085994D01*
X193564773Y-93049500D01*
X193564772Y-93049500D01*
X193435228Y-93049500D01*
X193435226Y-93049500D01*
X193310934Y-93085994D01*
X193201949Y-93156034D01*
X193117117Y-93253937D01*
X193117114Y-93253942D01*
X193063305Y-93371765D01*
X193063302Y-93371775D01*
X193044867Y-93500000D01*
X192655500Y-93500000D01*
X192655500Y-93323999D01*
X192651946Y-93290947D01*
X192650987Y-93286537D01*
X192640740Y-93239434D01*
X192606313Y-93170658D01*
X192560558Y-93117854D01*
X192555580Y-93112379D01*
X192486850Y-93070484D01*
X192486848Y-93070483D01*
X192419811Y-93050798D01*
X192419805Y-93050797D01*
X192376000Y-93044500D01*
X191824000Y-93044500D01*
X191790947Y-93048053D01*
X191739432Y-93059260D01*
X191670661Y-93093685D01*
X191670659Y-93093686D01*
X191617846Y-93139449D01*
X191612378Y-93144421D01*
X191570484Y-93213149D01*
X191570483Y-93213151D01*
X191550798Y-93280188D01*
X191550797Y-93280194D01*
X191544500Y-93323999D01*
X190914880Y-93323999D01*
X190882885Y-93253942D01*
X190882882Y-93253937D01*
X190798050Y-93156034D01*
X190798049Y-93156033D01*
X190689069Y-93085996D01*
X190689067Y-93085995D01*
X190689065Y-93085994D01*
X190564773Y-93049500D01*
X190564772Y-93049500D01*
X190435228Y-93049500D01*
X190435226Y-93049500D01*
X190310934Y-93085994D01*
X190201949Y-93156034D01*
X190117117Y-93253937D01*
X190117114Y-93253942D01*
X190063305Y-93371765D01*
X190063302Y-93371775D01*
X190044867Y-93500000D01*
X189455133Y-93500000D01*
X189436697Y-93371774D01*
X189436696Y-93371772D01*
X189436694Y-93371765D01*
X189382885Y-93253942D01*
X189382882Y-93253937D01*
X189298050Y-93156034D01*
X189298049Y-93156033D01*
X189189069Y-93085996D01*
X189189067Y-93085995D01*
X189189065Y-93085994D01*
X189064773Y-93049500D01*
X189064772Y-93049500D01*
X188935228Y-93049500D01*
X188935226Y-93049500D01*
X188810934Y-93085994D01*
X188701949Y-93156034D01*
X188617117Y-93253937D01*
X188617114Y-93253942D01*
X188563305Y-93371765D01*
X188563302Y-93371775D01*
X188544867Y-93500000D01*
X187955133Y-93500000D01*
X187936697Y-93371774D01*
X187936696Y-93371772D01*
X187936694Y-93371765D01*
X187882885Y-93253942D01*
X187882882Y-93253937D01*
X187798050Y-93156034D01*
X187798049Y-93156033D01*
X187689069Y-93085996D01*
X187689067Y-93085995D01*
X187689065Y-93085994D01*
X187564773Y-93049500D01*
X187564772Y-93049500D01*
X187435228Y-93049500D01*
X187435226Y-93049500D01*
X187310934Y-93085994D01*
X187201949Y-93156034D01*
X187117117Y-93253937D01*
X187117114Y-93253942D01*
X187063305Y-93371765D01*
X187063302Y-93371775D01*
X187044867Y-93500000D01*
X186455500Y-93500000D01*
X186455500Y-93323999D01*
X186451946Y-93290947D01*
X186450987Y-93286537D01*
X186440740Y-93239434D01*
X186406313Y-93170658D01*
X186360558Y-93117854D01*
X186355580Y-93112379D01*
X186286850Y-93070484D01*
X186286848Y-93070483D01*
X186219811Y-93050798D01*
X186219805Y-93050797D01*
X186176000Y-93044500D01*
X185824000Y-93044500D01*
X185790947Y-93048053D01*
X185739432Y-93059260D01*
X185670661Y-93093685D01*
X185670659Y-93093686D01*
X185617846Y-93139449D01*
X185612378Y-93144421D01*
X185570484Y-93213149D01*
X185570483Y-93213151D01*
X185550798Y-93280188D01*
X185550797Y-93280194D01*
X185544500Y-93323999D01*
X185544500Y-93770500D01*
X185524569Y-93851362D01*
X185469343Y-93913699D01*
X185391473Y-93943231D01*
X185370500Y-93944500D01*
X185074000Y-93944500D01*
X185040947Y-93948053D01*
X184989432Y-93959260D01*
X184920661Y-93993685D01*
X184920659Y-93993686D01*
X184867846Y-94039449D01*
X184862378Y-94044421D01*
X184820484Y-94113149D01*
X184820483Y-94113151D01*
X184800798Y-94180188D01*
X184800797Y-94180194D01*
X184794500Y-94223999D01*
X184794500Y-96950500D01*
X184774569Y-97031362D01*
X184719343Y-97093699D01*
X184641473Y-97123231D01*
X184620500Y-97124500D01*
X178095091Y-97124500D01*
X178095083Y-97124499D01*
X178074828Y-97124499D01*
X177975172Y-97124499D01*
X177975170Y-97124499D01*
X177910072Y-97151462D01*
X177910073Y-97151463D01*
X177883105Y-97162634D01*
X177883101Y-97162637D01*
X177812635Y-97233102D01*
X177812636Y-97233103D01*
X177697202Y-97348537D01*
X177625931Y-97391621D01*
X177574165Y-97399500D01*
X172800834Y-97399500D01*
X172719972Y-97379569D01*
X172677797Y-97348537D01*
X171401463Y-96072202D01*
X171358379Y-96000930D01*
X171350500Y-95949165D01*
X171350500Y-94080091D01*
X171350501Y-94080082D01*
X171350501Y-93960172D01*
X171346938Y-93951571D01*
X171320645Y-93888095D01*
X171320644Y-93888093D01*
X171320644Y-93888091D01*
X171312365Y-93868105D01*
X171312362Y-93868100D01*
X171231979Y-93787718D01*
X171231978Y-93787718D01*
X171025035Y-93580775D01*
X170981951Y-93509504D01*
X170976214Y-93484956D01*
X170961574Y-93392519D01*
X170961573Y-93392516D01*
X170907574Y-93286537D01*
X170907573Y-93286535D01*
X170823465Y-93202427D01*
X170823462Y-93202425D01*
X170823458Y-93202421D01*
X170818562Y-93198864D01*
X170764858Y-93135211D01*
X170746888Y-93053891D01*
X170768767Y-92973534D01*
X170797801Y-92935059D01*
X170857715Y-92875146D01*
X171459399Y-92273463D01*
X171530670Y-92230378D01*
X171582435Y-92222500D01*
X176259442Y-92222500D01*
X176259443Y-92222500D01*
X176346366Y-92186495D01*
X176532861Y-92000000D01*
X193044867Y-92000000D01*
X193063302Y-92128224D01*
X193063305Y-92128234D01*
X193117114Y-92246057D01*
X193117117Y-92246062D01*
X193160442Y-92296063D01*
X193201951Y-92343967D01*
X193310931Y-92414004D01*
X193435228Y-92450500D01*
X193564772Y-92450500D01*
X193689069Y-92414004D01*
X193798049Y-92343967D01*
X193882882Y-92246063D01*
X193899878Y-92208848D01*
X193936694Y-92128234D01*
X193936695Y-92128229D01*
X193936697Y-92128226D01*
X193955133Y-92000000D01*
X193936697Y-91871774D01*
X193936696Y-91871772D01*
X193936694Y-91871765D01*
X193882885Y-91753942D01*
X193882882Y-91753937D01*
X193798050Y-91656034D01*
X193798049Y-91656033D01*
X193689069Y-91585996D01*
X193689067Y-91585995D01*
X193689065Y-91585994D01*
X193564773Y-91549500D01*
X193564772Y-91549500D01*
X193435228Y-91549500D01*
X193435226Y-91549500D01*
X193310934Y-91585994D01*
X193201949Y-91656034D01*
X193117117Y-91753937D01*
X193117114Y-91753942D01*
X193063305Y-91871765D01*
X193063302Y-91871775D01*
X193044867Y-92000000D01*
X176532861Y-92000000D01*
X176841961Y-91690900D01*
X176877966Y-91603977D01*
X176877966Y-91509891D01*
X176877966Y-91486863D01*
X176897897Y-91406001D01*
X176953123Y-91343664D01*
X177030993Y-91314132D01*
X177079180Y-91315004D01*
X177175000Y-91330181D01*
X177292482Y-91311574D01*
X177398465Y-91257573D01*
X177482573Y-91173465D01*
X177536574Y-91067482D01*
X177555181Y-90950000D01*
X177536574Y-90832518D01*
X177482573Y-90726535D01*
X177398465Y-90642427D01*
X177398462Y-90642425D01*
X177292483Y-90588426D01*
X177292480Y-90588425D01*
X177175000Y-90569819D01*
X177174999Y-90569819D01*
X177079184Y-90584994D01*
X176996200Y-90577958D01*
X176925992Y-90533163D01*
X176907023Y-90500000D01*
X193044867Y-90500000D01*
X193063302Y-90628224D01*
X193063305Y-90628234D01*
X193117114Y-90746057D01*
X193117117Y-90746062D01*
X193192030Y-90832518D01*
X193201951Y-90843967D01*
X193310931Y-90914004D01*
X193435228Y-90950500D01*
X193564772Y-90950500D01*
X193689069Y-90914004D01*
X193798049Y-90843967D01*
X193882882Y-90746063D01*
X193891450Y-90727302D01*
X193936694Y-90628234D01*
X193936695Y-90628229D01*
X193936697Y-90628226D01*
X193955133Y-90500000D01*
X193936697Y-90371774D01*
X193936696Y-90371772D01*
X193936694Y-90371765D01*
X193882885Y-90253942D01*
X193882882Y-90253937D01*
X193798050Y-90156034D01*
X193798049Y-90156033D01*
X193689069Y-90085996D01*
X193689067Y-90085995D01*
X193689065Y-90085994D01*
X193564773Y-90049500D01*
X193564772Y-90049500D01*
X193435228Y-90049500D01*
X193435226Y-90049500D01*
X193310934Y-90085994D01*
X193201949Y-90156034D01*
X193117117Y-90253937D01*
X193117114Y-90253942D01*
X193063305Y-90371765D01*
X193063302Y-90371775D01*
X193044867Y-90500000D01*
X176907023Y-90500000D01*
X176884642Y-90460871D01*
X176877966Y-90413136D01*
X176877966Y-90272450D01*
X176897897Y-90191588D01*
X176939730Y-90143205D01*
X176938781Y-90142256D01*
X176948462Y-90132574D01*
X176948465Y-90132573D01*
X177032573Y-90048465D01*
X177086574Y-89942482D01*
X177105181Y-89825000D01*
X177086574Y-89707518D01*
X177032573Y-89601535D01*
X176948465Y-89517427D01*
X176948462Y-89517425D01*
X176842483Y-89463426D01*
X176842480Y-89463425D01*
X176725000Y-89444819D01*
X176607519Y-89463425D01*
X176607518Y-89463425D01*
X176514718Y-89510709D01*
X176433621Y-89529660D01*
X176356731Y-89510708D01*
X176242483Y-89452496D01*
X176242480Y-89452495D01*
X176125000Y-89433889D01*
X176007519Y-89452495D01*
X176007516Y-89452496D01*
X175889333Y-89512714D01*
X175888660Y-89511393D01*
X175825476Y-89537115D01*
X175742584Y-89529073D01*
X175706273Y-89511318D01*
X175589068Y-89435995D01*
X175464773Y-89399500D01*
X175464772Y-89399500D01*
X175335228Y-89399500D01*
X175335226Y-89399500D01*
X175210929Y-89435996D01*
X175109754Y-89501016D01*
X175030953Y-89527966D01*
X174948655Y-89515208D01*
X174881712Y-89465665D01*
X174845460Y-89390687D01*
X174848205Y-89307450D01*
X174857407Y-89282359D01*
X174886697Y-89218226D01*
X174905133Y-89090000D01*
X174886697Y-88961774D01*
X174886067Y-88960395D01*
X174879851Y-88946783D01*
X174864389Y-88864949D01*
X174888728Y-88785303D01*
X174947293Y-88726091D01*
X175026666Y-88700878D01*
X175038127Y-88700500D01*
X192887122Y-88700500D01*
X192967984Y-88720431D01*
G37*
%TD.AperFunction*%
%TA.AperFunction,Conductor*%
G36*
X171094673Y-97795431D02*
G01*
X171136847Y-97826463D01*
X171495376Y-98184991D01*
X171843942Y-98533557D01*
X171855697Y-98538426D01*
X171945199Y-98575500D01*
X171945200Y-98575500D01*
X172054800Y-98575500D01*
X172642486Y-98575500D01*
X172723348Y-98595431D01*
X172785685Y-98650657D01*
X172815217Y-98728527D01*
X172814344Y-98776718D01*
X172794819Y-98899999D01*
X172813425Y-99017480D01*
X172813426Y-99017483D01*
X172867425Y-99123462D01*
X172867427Y-99123465D01*
X172951535Y-99207573D01*
X172951537Y-99207574D01*
X173057513Y-99261572D01*
X173057515Y-99261572D01*
X173057518Y-99261574D01*
X173057521Y-99261574D01*
X173057523Y-99261575D01*
X173076327Y-99264552D01*
X173113887Y-99270501D01*
X173190635Y-99302834D01*
X173209707Y-99319322D01*
X174153537Y-100263152D01*
X174196621Y-100334423D01*
X174204500Y-100386189D01*
X174204500Y-104524800D01*
X174235856Y-104600500D01*
X174245879Y-104624696D01*
X174246443Y-104626058D01*
X174493538Y-104873153D01*
X174536621Y-104944422D01*
X174544500Y-104996188D01*
X174544500Y-105150000D01*
X172800000Y-105150000D01*
X172799999Y-105150000D01*
X171000000Y-105150000D01*
X170300962Y-105849037D01*
X170229691Y-105892121D01*
X170177926Y-105900000D01*
X168420291Y-105900000D01*
X168339429Y-105880069D01*
X168299432Y-105851176D01*
X166953141Y-104551308D01*
X166908812Y-104480803D01*
X166900000Y-104426132D01*
X166900000Y-103385272D01*
X167499500Y-103385272D01*
X167499500Y-103614727D01*
X167499501Y-103614746D01*
X167529450Y-103842228D01*
X167529451Y-103842235D01*
X167529452Y-103842238D01*
X167542448Y-103890740D01*
X167588840Y-104063883D01*
X167588841Y-104063886D01*
X167676656Y-104275890D01*
X167676659Y-104275896D01*
X167791389Y-104474613D01*
X167931075Y-104656654D01*
X167931077Y-104656656D01*
X167931081Y-104656661D01*
X168093339Y-104818919D01*
X168093343Y-104818922D01*
X168093345Y-104818924D01*
X168275386Y-104958610D01*
X168474103Y-105073340D01*
X168474109Y-105073343D01*
X168686113Y-105161158D01*
X168686116Y-105161159D01*
X168722464Y-105170898D01*
X168907762Y-105220548D01*
X169135266Y-105250500D01*
X169135273Y-105250500D01*
X169364727Y-105250500D01*
X169364734Y-105250500D01*
X169592238Y-105220548D01*
X169813887Y-105161158D01*
X170025888Y-105073344D01*
X170025890Y-105073343D01*
X170025896Y-105073340D01*
X170145313Y-105004394D01*
X170224612Y-104958611D01*
X170406661Y-104818919D01*
X170568919Y-104656661D01*
X170708611Y-104474612D01*
X170756916Y-104390945D01*
X170823340Y-104275896D01*
X170823343Y-104275890D01*
X170825583Y-104270483D01*
X170911158Y-104063887D01*
X170970548Y-103842238D01*
X171000500Y-103614734D01*
X171000500Y-103385266D01*
X170970548Y-103157762D01*
X170916496Y-102956034D01*
X170911159Y-102936116D01*
X170911158Y-102936113D01*
X170823343Y-102724109D01*
X170823340Y-102724103D01*
X170708610Y-102525386D01*
X170568924Y-102343345D01*
X170568922Y-102343343D01*
X170568919Y-102343339D01*
X170406661Y-102181081D01*
X170406656Y-102181077D01*
X170406654Y-102181075D01*
X170224613Y-102041389D01*
X170025896Y-101926659D01*
X170025890Y-101926656D01*
X169813886Y-101838841D01*
X169813883Y-101838840D01*
X169638497Y-101791847D01*
X169592238Y-101779452D01*
X169592235Y-101779451D01*
X169592228Y-101779450D01*
X169364746Y-101749501D01*
X169364738Y-101749500D01*
X169364734Y-101749500D01*
X169135266Y-101749500D01*
X169135261Y-101749500D01*
X169135253Y-101749501D01*
X168907771Y-101779450D01*
X168907762Y-101779452D01*
X168686116Y-101838840D01*
X168686113Y-101838841D01*
X168474109Y-101926656D01*
X168474103Y-101926659D01*
X168275386Y-102041389D01*
X168093345Y-102181075D01*
X167931075Y-102343345D01*
X167791389Y-102525386D01*
X167676659Y-102724103D01*
X167676656Y-102724109D01*
X167588841Y-102936113D01*
X167588840Y-102936116D01*
X167529452Y-103157762D01*
X167529450Y-103157771D01*
X167499501Y-103385253D01*
X167499500Y-103385272D01*
X166900000Y-103385272D01*
X166900000Y-102672073D01*
X166919931Y-102591211D01*
X166950960Y-102549039D01*
X167850000Y-101650000D01*
X167850000Y-99893014D01*
X167869931Y-99812152D01*
X167925157Y-99749815D01*
X168003027Y-99720283D01*
X168077779Y-99727533D01*
X168082512Y-99729071D01*
X168082518Y-99729074D01*
X168200000Y-99747681D01*
X168317482Y-99729074D01*
X168423465Y-99675073D01*
X168507573Y-99590965D01*
X168561574Y-99484982D01*
X168580181Y-99367500D01*
X168561574Y-99250018D01*
X168507573Y-99144035D01*
X168423465Y-99059927D01*
X168423462Y-99059925D01*
X168413781Y-99050244D01*
X168415025Y-99048999D01*
X170619500Y-99048999D01*
X170619500Y-99701000D01*
X170623053Y-99734052D01*
X170634260Y-99785567D01*
X170663241Y-99843462D01*
X170668687Y-99854342D01*
X170714442Y-99907146D01*
X170719420Y-99912621D01*
X170788150Y-99954516D01*
X170821669Y-99964358D01*
X170855188Y-99974201D01*
X170855194Y-99974202D01*
X170899000Y-99980500D01*
X171101000Y-99980500D01*
X171134055Y-99976946D01*
X171185566Y-99965740D01*
X171254342Y-99931313D01*
X171307146Y-99885558D01*
X171312621Y-99880580D01*
X171354516Y-99811850D01*
X171374201Y-99744811D01*
X171375748Y-99734055D01*
X171380500Y-99701000D01*
X171380500Y-99048999D01*
X171377961Y-99025386D01*
X171376946Y-99015945D01*
X171365740Y-98964434D01*
X171331313Y-98895658D01*
X171285558Y-98842854D01*
X171280580Y-98837379D01*
X171211850Y-98795484D01*
X171211848Y-98795483D01*
X171144811Y-98775798D01*
X171144805Y-98775797D01*
X171101000Y-98769500D01*
X170899000Y-98769500D01*
X170865947Y-98773053D01*
X170814432Y-98784260D01*
X170745661Y-98818685D01*
X170745659Y-98818686D01*
X170692846Y-98864449D01*
X170687378Y-98869421D01*
X170645484Y-98938149D01*
X170645483Y-98938151D01*
X170625798Y-99005188D01*
X170625797Y-99005194D01*
X170619500Y-99048999D01*
X168415025Y-99048999D01*
X168416146Y-99047878D01*
X168377115Y-99001618D01*
X168359143Y-98920298D01*
X168381020Y-98839941D01*
X168437735Y-98778956D01*
X168516296Y-98751313D01*
X168533092Y-98750500D01*
X169902724Y-98750500D01*
X169902727Y-98750500D01*
X170004587Y-98723207D01*
X170004589Y-98723205D01*
X170015023Y-98720410D01*
X170023038Y-98718465D01*
X170035566Y-98715740D01*
X170104342Y-98681313D01*
X170157146Y-98635558D01*
X170162621Y-98630580D01*
X170204516Y-98561850D01*
X170214135Y-98529088D01*
X170220334Y-98511520D01*
X170223200Y-98504598D01*
X170223207Y-98504587D01*
X170250500Y-98402727D01*
X170250500Y-98297273D01*
X170223207Y-98195413D01*
X170223206Y-98195411D01*
X170220414Y-98184991D01*
X170218462Y-98176943D01*
X170215742Y-98164442D01*
X170215741Y-98164439D01*
X170215740Y-98164434D01*
X170215738Y-98164430D01*
X170181316Y-98095663D01*
X170181314Y-98095661D01*
X170181313Y-98095658D01*
X170153400Y-98063445D01*
X170115510Y-97989283D01*
X170116425Y-97906006D01*
X170155935Y-97832694D01*
X170224990Y-97786139D01*
X170284901Y-97775500D01*
X171013811Y-97775500D01*
X171094673Y-97795431D01*
G37*
%TD.AperFunction*%
%TA.AperFunction,Conductor*%
G36*
X176151742Y-100169369D02*
G01*
X176152975Y-100169565D01*
X176229719Y-100201912D01*
X176248766Y-100218381D01*
X178973941Y-102943557D01*
X178991429Y-102950800D01*
X178991433Y-102950803D01*
X178991434Y-102950803D01*
X179075200Y-102985500D01*
X179123812Y-102985500D01*
X179204674Y-103005431D01*
X179246849Y-103036464D01*
X179612848Y-103402464D01*
X179655933Y-103473735D01*
X179660961Y-103556865D01*
X179626781Y-103632809D01*
X179561223Y-103684171D01*
X179489811Y-103699500D01*
X179011190Y-103699500D01*
X178930328Y-103679569D01*
X178888153Y-103648537D01*
X176001463Y-100761847D01*
X175958379Y-100690576D01*
X175950500Y-100638810D01*
X175950500Y-100341224D01*
X175970431Y-100260362D01*
X176025657Y-100198025D01*
X176103527Y-100168493D01*
X176151742Y-100169369D01*
G37*
%TD.AperFunction*%
%TA.AperFunction,Conductor*%
G36*
X170255405Y-93693867D02*
G01*
X170288864Y-93728562D01*
X170292421Y-93733458D01*
X170292425Y-93733462D01*
X170292427Y-93733465D01*
X170328427Y-93769465D01*
X170371510Y-93840734D01*
X170376539Y-93923864D01*
X170342359Y-93999809D01*
X170328433Y-94015528D01*
X170304520Y-94039442D01*
X170292425Y-94051537D01*
X170238426Y-94157516D01*
X170238425Y-94157519D01*
X170219819Y-94275000D01*
X170238425Y-94392480D01*
X170238426Y-94392483D01*
X170274433Y-94463150D01*
X170292427Y-94498465D01*
X170376535Y-94582573D01*
X170482518Y-94636574D01*
X170600000Y-94655181D01*
X170648281Y-94647534D01*
X170731265Y-94654570D01*
X170801474Y-94699365D01*
X170842824Y-94771656D01*
X170849500Y-94819392D01*
X170849500Y-96174828D01*
X170887634Y-96266894D01*
X170887635Y-96266896D01*
X170887636Y-96266897D01*
X171644495Y-97023756D01*
X172348203Y-97727463D01*
X172391287Y-97798734D01*
X172396316Y-97881864D01*
X172362136Y-97957809D01*
X172296578Y-98009171D01*
X172225166Y-98024500D01*
X172186189Y-98024500D01*
X172105327Y-98004569D01*
X172063153Y-97973537D01*
X171356059Y-97266444D01*
X171356058Y-97266443D01*
X171355235Y-97266102D01*
X171355231Y-97266100D01*
X171294004Y-97240739D01*
X171254800Y-97224500D01*
X171254799Y-97224500D01*
X168899146Y-97224500D01*
X168818284Y-97204569D01*
X168799966Y-97193192D01*
X168789032Y-97187621D01*
X168726145Y-97155578D01*
X168691864Y-97138111D01*
X168628864Y-97083642D01*
X168598393Y-97006135D01*
X168607431Y-96923345D01*
X168647819Y-96860041D01*
X169703196Y-95804664D01*
X169774465Y-95761582D01*
X169857595Y-95756553D01*
X169905225Y-95772668D01*
X169932516Y-95786573D01*
X169932518Y-95786574D01*
X170050000Y-95805181D01*
X170167482Y-95786574D01*
X170273465Y-95732573D01*
X170357573Y-95648465D01*
X170411574Y-95542482D01*
X170430181Y-95425000D01*
X170411574Y-95307518D01*
X170357573Y-95201535D01*
X170273465Y-95117427D01*
X170273462Y-95117425D01*
X170167483Y-95063426D01*
X170167480Y-95063425D01*
X170050000Y-95044819D01*
X170049999Y-95044819D01*
X169973718Y-95056900D01*
X169890734Y-95049864D01*
X169820525Y-95005068D01*
X169779176Y-94932777D01*
X169772500Y-94885042D01*
X169772500Y-94032433D01*
X169792431Y-93951571D01*
X169823457Y-93909403D01*
X170025062Y-93707797D01*
X170096330Y-93664716D01*
X170179460Y-93659687D01*
X170255405Y-93693867D01*
G37*
%TD.AperFunction*%
%TA.AperFunction,Conductor*%
G36*
X173942735Y-88720431D02*
G01*
X174005072Y-88775657D01*
X174034604Y-88853527D01*
X174024566Y-88936201D01*
X174020149Y-88946783D01*
X174013303Y-88961771D01*
X174013302Y-88961775D01*
X173994867Y-89090000D01*
X174013302Y-89218224D01*
X174013305Y-89218234D01*
X174067114Y-89336057D01*
X174067117Y-89336062D01*
X174151951Y-89433968D01*
X174182534Y-89453622D01*
X174239784Y-89514105D01*
X174262369Y-89594267D01*
X174245113Y-89675741D01*
X174191971Y-89739864D01*
X174182534Y-89746378D01*
X174151951Y-89766031D01*
X174067117Y-89863937D01*
X174067114Y-89863942D01*
X174013305Y-89981765D01*
X174013302Y-89981775D01*
X173994867Y-90110000D01*
X174013302Y-90238224D01*
X174013305Y-90238234D01*
X174067114Y-90356057D01*
X174067117Y-90356062D01*
X174151569Y-90453527D01*
X174151951Y-90453967D01*
X174260931Y-90524004D01*
X174385228Y-90560500D01*
X174514772Y-90560500D01*
X174639069Y-90524004D01*
X174748049Y-90453967D01*
X174832882Y-90356063D01*
X174867746Y-90279721D01*
X174919467Y-90214447D01*
X174995598Y-90180684D01*
X175078699Y-90186169D01*
X175120092Y-90205625D01*
X175210931Y-90264004D01*
X175335228Y-90300500D01*
X175397843Y-90300500D01*
X175478705Y-90320431D01*
X175541042Y-90375657D01*
X175570574Y-90453527D01*
X175560536Y-90536201D01*
X175513226Y-90604741D01*
X175476842Y-90629532D01*
X175451539Y-90642425D01*
X175451535Y-90642427D01*
X175367425Y-90726537D01*
X175313426Y-90832516D01*
X175313425Y-90832519D01*
X175294819Y-90950000D01*
X175313425Y-91067479D01*
X175313425Y-91067480D01*
X175313426Y-91067482D01*
X175317004Y-91074505D01*
X175335957Y-91155600D01*
X175315052Y-91236215D01*
X175259078Y-91297882D01*
X175180857Y-91326472D01*
X175161970Y-91327500D01*
X171284643Y-91327500D01*
X171190557Y-91327500D01*
X171184085Y-91330181D01*
X171103634Y-91363504D01*
X168913504Y-93553634D01*
X168877500Y-93640557D01*
X168877500Y-94122664D01*
X168857569Y-94203526D01*
X168802343Y-94265863D01*
X168724473Y-94295395D01*
X168682193Y-94294933D01*
X168682193Y-94294943D01*
X168682036Y-94294931D01*
X168678757Y-94294896D01*
X168676001Y-94294500D01*
X168676000Y-94294500D01*
X167974000Y-94294500D01*
X167940947Y-94298053D01*
X167889432Y-94309260D01*
X167820661Y-94343685D01*
X167811609Y-94349734D01*
X167810754Y-94348454D01*
X167747304Y-94380863D01*
X167664027Y-94379938D01*
X167590719Y-94340419D01*
X167584504Y-94334504D01*
X166734956Y-93484956D01*
X165750000Y-92500000D01*
X165749999Y-92500000D01*
X165399335Y-92500000D01*
X165374572Y-92498229D01*
X165348638Y-92494500D01*
X162524000Y-92494500D01*
X162482117Y-92499003D01*
X162463517Y-92500000D01*
X162076697Y-92500000D01*
X162051934Y-92498229D01*
X162026000Y-92494500D01*
X159474500Y-92494500D01*
X159393638Y-92474569D01*
X159331301Y-92419343D01*
X159301769Y-92341473D01*
X159300500Y-92320500D01*
X159300500Y-90388332D01*
X159320431Y-90307470D01*
X159351457Y-90265302D01*
X159406759Y-90210000D01*
X165069819Y-90210000D01*
X165088425Y-90327480D01*
X165088426Y-90327483D01*
X165142425Y-90433462D01*
X165142427Y-90433465D01*
X165226535Y-90517573D01*
X165332518Y-90571574D01*
X165450000Y-90590181D01*
X165567482Y-90571574D01*
X165673465Y-90517573D01*
X165757573Y-90433465D01*
X165811574Y-90327482D01*
X165830181Y-90210000D01*
X165811574Y-90092518D01*
X165757573Y-89986535D01*
X165673465Y-89902427D01*
X165673462Y-89902425D01*
X165567483Y-89848426D01*
X165567480Y-89848425D01*
X165450000Y-89829819D01*
X165332519Y-89848425D01*
X165332516Y-89848426D01*
X165226537Y-89902425D01*
X165142425Y-89986537D01*
X165088426Y-90092516D01*
X165088425Y-90092519D01*
X165069819Y-90210000D01*
X159406759Y-90210000D01*
X159715297Y-89901461D01*
X159786566Y-89858379D01*
X159838332Y-89850500D01*
X159927272Y-89850500D01*
X160051569Y-89814004D01*
X160160549Y-89743967D01*
X160245382Y-89646063D01*
X160245385Y-89646057D01*
X160289254Y-89550000D01*
X166507367Y-89550000D01*
X166525802Y-89678224D01*
X166525805Y-89678234D01*
X166579614Y-89796057D01*
X166579617Y-89796062D01*
X166638434Y-89863942D01*
X166664451Y-89893967D01*
X166773431Y-89964004D01*
X166897728Y-90000500D01*
X167027272Y-90000500D01*
X167151569Y-89964004D01*
X167260549Y-89893967D01*
X167345382Y-89796063D01*
X167345385Y-89796057D01*
X167399194Y-89678234D01*
X167399195Y-89678229D01*
X167399197Y-89678226D01*
X167417633Y-89550000D01*
X167399197Y-89421774D01*
X167399196Y-89421772D01*
X167399194Y-89421765D01*
X167345385Y-89303942D01*
X167345382Y-89303937D01*
X167260550Y-89206034D01*
X167260549Y-89206033D01*
X167151569Y-89135996D01*
X167151567Y-89135995D01*
X167151565Y-89135994D01*
X167027273Y-89099500D01*
X167027272Y-89099500D01*
X166897728Y-89099500D01*
X166897726Y-89099500D01*
X166773434Y-89135994D01*
X166664449Y-89206034D01*
X166579617Y-89303937D01*
X166579614Y-89303942D01*
X166525805Y-89421765D01*
X166525802Y-89421775D01*
X166507367Y-89550000D01*
X160289254Y-89550000D01*
X160299194Y-89528234D01*
X160299195Y-89528229D01*
X160299197Y-89528226D01*
X160317633Y-89400000D01*
X160299197Y-89271774D01*
X160299196Y-89271772D01*
X160299194Y-89271765D01*
X160245385Y-89153942D01*
X160245382Y-89153937D01*
X160160550Y-89056034D01*
X160160549Y-89056033D01*
X160105845Y-89020877D01*
X160048597Y-88960395D01*
X160026013Y-88880234D01*
X160043268Y-88798759D01*
X160096410Y-88734636D01*
X160173264Y-88702554D01*
X160199918Y-88700500D01*
X173861873Y-88700500D01*
X173942735Y-88720431D01*
G37*
%TD.AperFunction*%
%TA.AperFunction,Conductor*%
G36*
X159605944Y-88720431D02*
G01*
X159668281Y-88775657D01*
X159697813Y-88853527D01*
X159687775Y-88936201D01*
X159640465Y-89004741D01*
X159619159Y-89020874D01*
X159601712Y-89032087D01*
X159564449Y-89056034D01*
X159479617Y-89153937D01*
X159479614Y-89153942D01*
X159425805Y-89271765D01*
X159425802Y-89271775D01*
X159407367Y-89400000D01*
X159407367Y-89400006D01*
X159407652Y-89401989D01*
X159407367Y-89404861D01*
X159407367Y-89412445D01*
X159406614Y-89412445D01*
X159399428Y-89484864D01*
X159358459Y-89549779D01*
X158908103Y-90000135D01*
X158908103Y-90000136D01*
X158908102Y-90000135D01*
X158837635Y-90070603D01*
X158799500Y-90162671D01*
X158799500Y-92500000D01*
X158150000Y-92500000D01*
X158192216Y-88700500D01*
X159525082Y-88700500D01*
X159605944Y-88720431D01*
G37*
%TD.AperFunction*%
%TD*%
%TA.AperFunction,Conductor*%
%TO.N,GND*%
G36*
X160500000Y-92050000D02*
G01*
X160500000Y-92200000D01*
X160199234Y-92494500D01*
X159474500Y-92494500D01*
X159437754Y-92498451D01*
X159368994Y-92486044D01*
X159317858Y-92438433D01*
X159300500Y-92375161D01*
X159300500Y-90367621D01*
X159320185Y-90300582D01*
X159336815Y-90279944D01*
X159729940Y-89886818D01*
X159791263Y-89853334D01*
X159817621Y-89850500D01*
X159927273Y-89850500D01*
X159927273Y-89850499D01*
X160051569Y-89814004D01*
X160160549Y-89743967D01*
X160245382Y-89646063D01*
X160299197Y-89528226D01*
X160317633Y-89400000D01*
X160299197Y-89271774D01*
X160245382Y-89153937D01*
X160160549Y-89056033D01*
X160051569Y-88985996D01*
X160051565Y-88985994D01*
X160051564Y-88985994D01*
X159927274Y-88949500D01*
X159927272Y-88949500D01*
X159797728Y-88949500D01*
X159797726Y-88949500D01*
X159673435Y-88985994D01*
X159673432Y-88985995D01*
X159673431Y-88985996D01*
X159622177Y-89018934D01*
X159564450Y-89056033D01*
X159479618Y-89153937D01*
X159479617Y-89153938D01*
X159425802Y-89271774D01*
X159407367Y-89400001D01*
X159407367Y-89400002D01*
X159411213Y-89426757D01*
X159401268Y-89495915D01*
X159376156Y-89532082D01*
X158890661Y-90017576D01*
X158890662Y-90017577D01*
X158837636Y-90070603D01*
X158799500Y-90162670D01*
X158799500Y-95844877D01*
X158779815Y-95911916D01*
X158763181Y-95932558D01*
X158705558Y-95990181D01*
X158644235Y-96023666D01*
X158617877Y-96026500D01*
X157723170Y-96026500D01*
X157631102Y-96064636D01*
X156787637Y-96908101D01*
X156787636Y-96908103D01*
X156778551Y-96930035D01*
X156734708Y-96984437D01*
X156668413Y-97006500D01*
X156637651Y-97003749D01*
X156633415Y-97002828D01*
X156633401Y-97002826D01*
X156633398Y-97002825D01*
X156575500Y-96994500D01*
X155291835Y-96994500D01*
X155290206Y-96994567D01*
X155289934Y-96994500D01*
X155289251Y-96994500D01*
X155289251Y-96994330D01*
X155222406Y-96977689D01*
X155174494Y-96926834D01*
X155165275Y-96902773D01*
X155161281Y-96887865D01*
X155100010Y-96781742D01*
X155100069Y-96551850D01*
X156550000Y-96500000D01*
X156550000Y-95400000D01*
X156497333Y-95385892D01*
X156477695Y-95330506D01*
X156457933Y-95296525D01*
X156388356Y-95176888D01*
X156269109Y-95045122D01*
X156269105Y-95045119D01*
X156125145Y-94940942D01*
X156125144Y-94940941D01*
X156125142Y-94940940D01*
X155982540Y-94877665D01*
X155962706Y-94868864D01*
X155962700Y-94868862D01*
X155788856Y-94832026D01*
X155781450Y-94831857D01*
X155700000Y-94830000D01*
X154610000Y-94830000D01*
X154534815Y-94831714D01*
X154521143Y-94832026D01*
X154470011Y-94842860D01*
X153750000Y-94650000D01*
X153750000Y-96600000D01*
X154300240Y-96581473D01*
X154300059Y-96633073D01*
X154271635Y-96649485D01*
X154271632Y-96649487D01*
X154164487Y-96756632D01*
X154164485Y-96756635D01*
X154088719Y-96887863D01*
X154084726Y-96902766D01*
X154048358Y-96962425D01*
X153985510Y-96992952D01*
X153962594Y-96994045D01*
X153962594Y-96994500D01*
X153917500Y-96994500D01*
X152500000Y-96900000D01*
X152600000Y-102700000D01*
X153711428Y-103255714D01*
X153300000Y-103250000D01*
X153300000Y-105500000D01*
X154622222Y-105160000D01*
X155699989Y-105160000D01*
X155700000Y-105160000D01*
X155788855Y-105157974D01*
X155962705Y-105121136D01*
X156125142Y-105049060D01*
X156269110Y-104944877D01*
X156388354Y-104813114D01*
X156461703Y-104686990D01*
X156800000Y-104600000D01*
X156900000Y-103300000D01*
X155054511Y-103274368D01*
X155085515Y-103243365D01*
X155161281Y-103112135D01*
X155178625Y-103047405D01*
X155214989Y-102987747D01*
X155277835Y-102957217D01*
X155298399Y-102955500D01*
X157375991Y-102955500D01*
X157376000Y-102955500D01*
X157419684Y-102950803D01*
X157448875Y-102944452D01*
X157471174Y-102939602D01*
X157471190Y-102939598D01*
X157471195Y-102939597D01*
X157481373Y-102937110D01*
X157562085Y-102894100D01*
X157614889Y-102848345D01*
X157632843Y-102830754D01*
X157677490Y-102750937D01*
X157697175Y-102683898D01*
X157705500Y-102626000D01*
X157705500Y-102302479D01*
X157725185Y-102235440D01*
X157777989Y-102189685D01*
X157840241Y-102180733D01*
X157840241Y-102180181D01*
X157844087Y-102180181D01*
X157847147Y-102179741D01*
X157848784Y-102179988D01*
X157850000Y-102180181D01*
X157924931Y-102168313D01*
X157967477Y-102161575D01*
X157967478Y-102161575D01*
X157967479Y-102161574D01*
X157967482Y-102161574D01*
X158073465Y-102107573D01*
X158157573Y-102023465D01*
X158211574Y-101917482D01*
X158211575Y-101917477D01*
X158230181Y-101800003D01*
X158230181Y-101799996D01*
X158211575Y-101682522D01*
X158211575Y-101682521D01*
X158211574Y-101682519D01*
X158211574Y-101682518D01*
X158157573Y-101576535D01*
X158157571Y-101576533D01*
X158157568Y-101576529D01*
X158073470Y-101492431D01*
X158073466Y-101492428D01*
X158073465Y-101492427D01*
X157967482Y-101438426D01*
X157967481Y-101438425D01*
X157967478Y-101438424D01*
X157879259Y-101424452D01*
X157816124Y-101394523D01*
X157779193Y-101335211D01*
X157780191Y-101265348D01*
X157818801Y-101207116D01*
X157879255Y-101179506D01*
X157992482Y-101161574D01*
X158098465Y-101107573D01*
X158182573Y-101023465D01*
X158236574Y-100917482D01*
X158236575Y-100917478D01*
X158248656Y-100841202D01*
X158278585Y-100778067D01*
X158337897Y-100741136D01*
X158371129Y-100736600D01*
X158512250Y-100736600D01*
X158512251Y-100736600D01*
X158599174Y-100700595D01*
X160476950Y-98822819D01*
X160538273Y-98789334D01*
X160564631Y-98786500D01*
X161145442Y-98786500D01*
X161145443Y-98786500D01*
X161232366Y-98750495D01*
X161646542Y-98336319D01*
X161707865Y-98302834D01*
X161734223Y-98300000D01*
X161948638Y-98300000D01*
X162015677Y-98319685D01*
X162036319Y-98336319D01*
X162177668Y-98477668D01*
X162208321Y-98528294D01*
X162222470Y-98573480D01*
X162222471Y-98573482D01*
X162255956Y-98634805D01*
X162255958Y-98634808D01*
X162255960Y-98634811D01*
X162290998Y-98681615D01*
X162291002Y-98681619D01*
X162291009Y-98681629D01*
X162291016Y-98681636D01*
X162558181Y-98948801D01*
X162591666Y-99010124D01*
X162594500Y-99036482D01*
X162594500Y-107548638D01*
X162595678Y-107570618D01*
X162598511Y-107596965D01*
X162598512Y-107596967D01*
X162622470Y-107673478D01*
X162622471Y-107673483D01*
X162624978Y-107678074D01*
X162653325Y-107729987D01*
X162655957Y-107734806D01*
X162684768Y-107773292D01*
X162699945Y-107799945D01*
X164202392Y-109302392D01*
X164231314Y-109320618D01*
X164234712Y-109323670D01*
X164234738Y-109323693D01*
X164242920Y-109330286D01*
X164255379Y-109340327D01*
X164326424Y-109377490D01*
X164393456Y-109397173D01*
X164393458Y-109397173D01*
X164393464Y-109397175D01*
X164451362Y-109405500D01*
X164451366Y-109405500D01*
X172925991Y-109405500D01*
X172926000Y-109405500D01*
X172969684Y-109400803D01*
X172998875Y-109394452D01*
X173021174Y-109389602D01*
X173021190Y-109389598D01*
X173021195Y-109389597D01*
X173031373Y-109387110D01*
X173112085Y-109344100D01*
X173128027Y-109330285D01*
X173191583Y-109301262D01*
X173199289Y-109300710D01*
X173200000Y-109300000D01*
X173200000Y-109282404D01*
X173215781Y-109221869D01*
X173227490Y-109200937D01*
X173247175Y-109133898D01*
X173255500Y-109076000D01*
X173255500Y-105676362D01*
X173254322Y-105654393D01*
X173251488Y-105628035D01*
X173227529Y-105551518D01*
X173194044Y-105490195D01*
X173158991Y-105443371D01*
X173006629Y-105291009D01*
X173006628Y-105291008D01*
X173006624Y-105291004D01*
X172990283Y-105276325D01*
X172990269Y-105276313D01*
X172969620Y-105259672D01*
X172898574Y-105222509D01*
X172889065Y-105219717D01*
X172836623Y-105186014D01*
X172836319Y-105186319D01*
X172834918Y-105184918D01*
X172830287Y-105181942D01*
X172828895Y-105178895D01*
X172800000Y-105150000D01*
X172800000Y-105000000D01*
X174544500Y-105000000D01*
X174544500Y-108976008D01*
X174548054Y-109009055D01*
X174559260Y-109060566D01*
X174593686Y-109129342D01*
X174594709Y-109130522D01*
X174595214Y-109131629D01*
X174597998Y-109135795D01*
X174597323Y-109136245D01*
X174623737Y-109194076D01*
X174625000Y-109211729D01*
X174625000Y-109320500D01*
X174605315Y-109387539D01*
X174552511Y-109433294D01*
X174501000Y-109444500D01*
X173898991Y-109444500D01*
X173865944Y-109448054D01*
X173814433Y-109459260D01*
X173745657Y-109493686D01*
X173692860Y-109539436D01*
X173687376Y-109544422D01*
X173645486Y-109613145D01*
X173645483Y-109613151D01*
X173625799Y-109680187D01*
X173625797Y-109680197D01*
X173619500Y-109723996D01*
X173619500Y-111175500D01*
X173599815Y-111242539D01*
X173547011Y-111288294D01*
X173495500Y-111299500D01*
X151309412Y-111299500D01*
X151242373Y-111279815D01*
X151221731Y-111263181D01*
X150408371Y-110449821D01*
X150374886Y-110388498D01*
X150372093Y-110365353D01*
X150372031Y-110362944D01*
X150372043Y-110362799D01*
X150370625Y-110308384D01*
X150370624Y-110308350D01*
X150369645Y-110270375D01*
X150369644Y-110270373D01*
X150369335Y-110258392D01*
X150369318Y-110258263D01*
X150367159Y-110175396D01*
X150367170Y-110175258D01*
X150365765Y-110121866D01*
X150365764Y-110121832D01*
X150364410Y-110069880D01*
X150364392Y-110069734D01*
X150362131Y-109983840D01*
X150362142Y-109983699D01*
X150360715Y-109930028D01*
X150360714Y-109929994D01*
X150359372Y-109879014D01*
X150359355Y-109878878D01*
X150357006Y-109790493D01*
X150357016Y-109790364D01*
X150355591Y-109737224D01*
X150355590Y-109737191D01*
X150354545Y-109697861D01*
X150354544Y-109697860D01*
X150354227Y-109685903D01*
X150354210Y-109685761D01*
X150354061Y-109680189D01*
X150351770Y-109594797D01*
X150351780Y-109594671D01*
X150350961Y-109564409D01*
X150350286Y-109539442D01*
X150350292Y-109539441D01*
X150350285Y-109539411D01*
X150349281Y-109501956D01*
X150349280Y-109501954D01*
X150348960Y-109490013D01*
X150348943Y-109489878D01*
X150346439Y-109397397D01*
X150346449Y-109397284D01*
X150346080Y-109383765D01*
X150346081Y-109383764D01*
X150344895Y-109340327D01*
X150343914Y-109304075D01*
X150343913Y-109304073D01*
X150343564Y-109291176D01*
X150343549Y-109291070D01*
X150340975Y-109196732D01*
X150340984Y-109196607D01*
X150339542Y-109144240D01*
X150339541Y-109144210D01*
X150338459Y-109104565D01*
X150338458Y-109104563D01*
X150338105Y-109091631D01*
X150338089Y-109091506D01*
X150337237Y-109060566D01*
X150335470Y-108996408D01*
X150335480Y-108996287D01*
X150333975Y-108942132D01*
X150333974Y-108942098D01*
X150332919Y-108903753D01*
X150332918Y-108903751D01*
X150332564Y-108890876D01*
X150332549Y-108890765D01*
X150329880Y-108794643D01*
X150329890Y-108794526D01*
X150328416Y-108741902D01*
X150328415Y-108741869D01*
X150326949Y-108689069D01*
X150326932Y-108688939D01*
X150324212Y-108591785D01*
X150324221Y-108591668D01*
X150323871Y-108579284D01*
X150323872Y-108579283D01*
X150322689Y-108537411D01*
X150322689Y-108537410D01*
X150322694Y-108537409D01*
X150322688Y-108537381D01*
X150321631Y-108499595D01*
X150321629Y-108499592D01*
X150321270Y-108486732D01*
X150321255Y-108486616D01*
X150318503Y-108389118D01*
X150318512Y-108388995D01*
X150318159Y-108376607D01*
X150318160Y-108376606D01*
X150317004Y-108335996D01*
X150315901Y-108296922D01*
X150315900Y-108296920D01*
X150315536Y-108284018D01*
X150315519Y-108283896D01*
X150312747Y-108186500D01*
X150312757Y-108186378D01*
X150311247Y-108133800D01*
X150311246Y-108133768D01*
X150310123Y-108094301D01*
X150310122Y-108094298D01*
X150309787Y-108082532D01*
X150309772Y-108082406D01*
X150306988Y-107985445D01*
X150306999Y-107985320D01*
X150305416Y-107930669D01*
X150305415Y-107930634D01*
X150304309Y-107892073D01*
X150304308Y-107892071D01*
X150303956Y-107879796D01*
X150303940Y-107879678D01*
X150301155Y-107783464D01*
X150301166Y-107783343D01*
X150299609Y-107730023D01*
X150299608Y-107729987D01*
X150298110Y-107678213D01*
X150298093Y-107678082D01*
X150295306Y-107582599D01*
X150295316Y-107582462D01*
X150293720Y-107528260D01*
X150293719Y-107528223D01*
X150292232Y-107477272D01*
X150292215Y-107477139D01*
X150289449Y-107383159D01*
X150289459Y-107383018D01*
X150287827Y-107328052D01*
X150287826Y-107328016D01*
X150286361Y-107278215D01*
X150286341Y-107278068D01*
X150283616Y-107186294D01*
X150283626Y-107186152D01*
X150282077Y-107134484D01*
X150282076Y-107134444D01*
X150280515Y-107081860D01*
X150280495Y-107081708D01*
X150277797Y-106991705D01*
X150277808Y-106991571D01*
X150277406Y-106978286D01*
X150277407Y-106978285D01*
X150276190Y-106938042D01*
X150275008Y-106898612D01*
X150275007Y-106898611D01*
X150274636Y-106886206D01*
X150274617Y-106886061D01*
X150271969Y-106798511D01*
X150271980Y-106798357D01*
X150270383Y-106746064D01*
X150270382Y-106746026D01*
X150268787Y-106693307D01*
X150268765Y-106693146D01*
X150266163Y-106607928D01*
X150266175Y-106607763D01*
X150264557Y-106555336D01*
X150264556Y-106555295D01*
X150262967Y-106503283D01*
X150262945Y-106503117D01*
X150260416Y-106421177D01*
X150260429Y-106421005D01*
X150258663Y-106364355D01*
X150258662Y-106364317D01*
X150258498Y-106359036D01*
X150257567Y-106328835D01*
X150257566Y-106328833D01*
X150257195Y-106316816D01*
X150257175Y-106316657D01*
X150254722Y-106237998D01*
X150254735Y-106237815D01*
X150254330Y-106224972D01*
X150253079Y-106185301D01*
X150253091Y-106185256D01*
X150253078Y-106185257D01*
X150251833Y-106145318D01*
X150251832Y-106145317D01*
X150251462Y-106133430D01*
X150251437Y-106133241D01*
X150249071Y-106058234D01*
X150249086Y-106058039D01*
X150247311Y-106002392D01*
X150247310Y-106002346D01*
X150245754Y-105953015D01*
X150245728Y-105952826D01*
X150243470Y-105882024D01*
X150243485Y-105881811D01*
X150241791Y-105829406D01*
X150241789Y-105829349D01*
X150240130Y-105777309D01*
X150240101Y-105777096D01*
X150237961Y-105710831D01*
X150237975Y-105710615D01*
X150237573Y-105698344D01*
X150237574Y-105698343D01*
X150236323Y-105660122D01*
X150236333Y-105660122D01*
X150236321Y-105660069D01*
X150236138Y-105654393D01*
X150234985Y-105618706D01*
X150234984Y-105618705D01*
X150234596Y-105606679D01*
X150234566Y-105606446D01*
X150232541Y-105544593D01*
X150232557Y-105544347D01*
X150232144Y-105531903D01*
X150232145Y-105531901D01*
X150231086Y-105500000D01*
X152500000Y-105500000D01*
X152500000Y-103300000D01*
X150200500Y-103258937D01*
X150200500Y-96850000D01*
X152500000Y-96850000D01*
X152500000Y-94650000D01*
X150227450Y-94609418D01*
X150229090Y-94560076D01*
X150229123Y-94559828D01*
X150229519Y-94547723D01*
X150229520Y-94547722D01*
X150230842Y-94507312D01*
X150232145Y-94468098D01*
X150232144Y-94468096D01*
X150232550Y-94455885D01*
X150232533Y-94455635D01*
X150234556Y-94393831D01*
X150234587Y-94393605D01*
X150236371Y-94338395D01*
X150236387Y-94338343D01*
X150236373Y-94338343D01*
X150236723Y-94327649D01*
X150237574Y-94301656D01*
X150237573Y-94301653D01*
X150237966Y-94289646D01*
X150237952Y-94289435D01*
X150240090Y-94223220D01*
X150240120Y-94223015D01*
X150241791Y-94170594D01*
X150241797Y-94170594D01*
X150241792Y-94170543D01*
X150243089Y-94130442D01*
X150243088Y-94130440D01*
X150243476Y-94118449D01*
X150243462Y-94118230D01*
X150245717Y-94047539D01*
X150245742Y-94047354D01*
X150246148Y-94034436D01*
X150246150Y-94034434D01*
X150247351Y-93996309D01*
X150247367Y-93996261D01*
X150247353Y-93996261D01*
X150249077Y-93942252D01*
X150249062Y-93942050D01*
X150251426Y-93867085D01*
X150251451Y-93866905D01*
X150251832Y-93854682D01*
X150251833Y-93854681D01*
X150253137Y-93812855D01*
X150253137Y-93812854D01*
X150253142Y-93812854D01*
X150253138Y-93812808D01*
X150253392Y-93804759D01*
X150254330Y-93775027D01*
X150254329Y-93775025D01*
X150254724Y-93762516D01*
X150254711Y-93762341D01*
X150257162Y-93683752D01*
X150257183Y-93683591D01*
X150258713Y-93634016D01*
X150258714Y-93633973D01*
X150258916Y-93627482D01*
X150260039Y-93591503D01*
X150260037Y-93591500D01*
X150260418Y-93579310D01*
X150260406Y-93579138D01*
X150262932Y-93497292D01*
X150262954Y-93497130D01*
X150264561Y-93444547D01*
X150264562Y-93444508D01*
X150266165Y-93392568D01*
X150266153Y-93392392D01*
X150268753Y-93307268D01*
X150268775Y-93307102D01*
X150270423Y-93252615D01*
X150270424Y-93252574D01*
X150271968Y-93202038D01*
X150271957Y-93201880D01*
X150274603Y-93114402D01*
X150274622Y-93114268D01*
X150276260Y-93059624D01*
X150276261Y-93059588D01*
X150277796Y-93008852D01*
X150277785Y-93008700D01*
X150280482Y-92918735D01*
X150280501Y-92918593D01*
X150282102Y-92864712D01*
X150282105Y-92864712D01*
X150282102Y-92864686D01*
X150283247Y-92826503D01*
X150283246Y-92826500D01*
X150283613Y-92814261D01*
X150283603Y-92814128D01*
X150286326Y-92722428D01*
X150286346Y-92722292D01*
X150287897Y-92669581D01*
X150287898Y-92669546D01*
X150288268Y-92657092D01*
X150289096Y-92629213D01*
X150289095Y-92629211D01*
X150289447Y-92617373D01*
X150289437Y-92617235D01*
X150292199Y-92523399D01*
X150292216Y-92523280D01*
X150293720Y-92471759D01*
X150293723Y-92471759D01*
X150293720Y-92471732D01*
X150294944Y-92430180D01*
X150294943Y-92430177D01*
X150295303Y-92417952D01*
X150295294Y-92417811D01*
X150298078Y-92322433D01*
X150298095Y-92322299D01*
X150299608Y-92270011D01*
X150299609Y-92269975D01*
X150301153Y-92217107D01*
X150301143Y-92216970D01*
X150302025Y-92186495D01*
X150303924Y-92120876D01*
X150303940Y-92120763D01*
X150304308Y-92107927D01*
X150304309Y-92107926D01*
X150305416Y-92069330D01*
X150306606Y-92028243D01*
X150306985Y-92015162D01*
X150306974Y-92015033D01*
X150309757Y-91918105D01*
X150309773Y-91917982D01*
X150311247Y-91866200D01*
X150311250Y-91866200D01*
X150311247Y-91866172D01*
X150312401Y-91826013D01*
X150312400Y-91826012D01*
X150312744Y-91814066D01*
X150312735Y-91813934D01*
X150315504Y-91716652D01*
X150315520Y-91716536D01*
X150315900Y-91703078D01*
X150315901Y-91703077D01*
X150317026Y-91663223D01*
X150317026Y-91663222D01*
X150317028Y-91663222D01*
X150317026Y-91663201D01*
X150318160Y-91623393D01*
X150318159Y-91623390D01*
X150318499Y-91611449D01*
X150318490Y-91611334D01*
X150321238Y-91513977D01*
X150321254Y-91513864D01*
X150322690Y-91462585D01*
X150322692Y-91462585D01*
X150322689Y-91462560D01*
X150323872Y-91420716D01*
X150323870Y-91420712D01*
X150324208Y-91408776D01*
X150324200Y-91408653D01*
X150325464Y-91363505D01*
X150326917Y-91311602D01*
X150326934Y-91311482D01*
X150328485Y-91255631D01*
X150328488Y-91255631D01*
X150328485Y-91255603D01*
X150329530Y-91218327D01*
X150329877Y-91205958D01*
X150329867Y-91205823D01*
X150332532Y-91109843D01*
X150332548Y-91109724D01*
X150333975Y-91057866D01*
X150333978Y-91057866D01*
X150333975Y-91057838D01*
X150335123Y-91016557D01*
X150335122Y-91016555D01*
X150335466Y-91004192D01*
X150335457Y-91004067D01*
X150338074Y-90909032D01*
X150338090Y-90908921D01*
X150338458Y-90895435D01*
X150338459Y-90895434D01*
X150339542Y-90855758D01*
X150339542Y-90855757D01*
X150339545Y-90855757D01*
X150339542Y-90855731D01*
X150340644Y-90815749D01*
X150340643Y-90815748D01*
X150340972Y-90803839D01*
X150340963Y-90803706D01*
X150343533Y-90709533D01*
X150343548Y-90709423D01*
X150343913Y-90695925D01*
X150343914Y-90695924D01*
X150344917Y-90658845D01*
X150344917Y-90658844D01*
X150344920Y-90658844D01*
X150344917Y-90658818D01*
X150346081Y-90616235D01*
X150346079Y-90616232D01*
X150346436Y-90603199D01*
X150346426Y-90603081D01*
X150348930Y-90510597D01*
X150348947Y-90510469D01*
X150349280Y-90498044D01*
X150349281Y-90498043D01*
X150350359Y-90457837D01*
X150350368Y-90457807D01*
X150350360Y-90457807D01*
X150351428Y-90418358D01*
X150351427Y-90418356D01*
X150351768Y-90405778D01*
X150351758Y-90405644D01*
X150353088Y-90356063D01*
X150354197Y-90314705D01*
X150354214Y-90314575D01*
X150354544Y-90302139D01*
X150354545Y-90302138D01*
X150355654Y-90260381D01*
X150355657Y-90260381D01*
X150355654Y-90260352D01*
X150356672Y-90222451D01*
X150356671Y-90222450D01*
X150357003Y-90210119D01*
X150356993Y-90209992D01*
X150359341Y-90121620D01*
X150359358Y-90121501D01*
X150359699Y-90108541D01*
X150359700Y-90108540D01*
X150360715Y-90069971D01*
X150360715Y-90069970D01*
X150360718Y-90069970D01*
X150360715Y-90069942D01*
X150361808Y-90028855D01*
X150362131Y-90016721D01*
X150362120Y-90016579D01*
X150364379Y-89930726D01*
X150364397Y-89930598D01*
X150364736Y-89917590D01*
X150364737Y-89917589D01*
X150365767Y-89878050D01*
X150365767Y-89878049D01*
X150365770Y-89878049D01*
X150365767Y-89878021D01*
X150366824Y-89837906D01*
X150366823Y-89837904D01*
X150367159Y-89825160D01*
X150367148Y-89825017D01*
X150367903Y-89796063D01*
X150369306Y-89742213D01*
X150369323Y-89742081D01*
X150369644Y-89729625D01*
X150369645Y-89729624D01*
X150370625Y-89691601D01*
X150370628Y-89691601D01*
X150370625Y-89691572D01*
X150371711Y-89649941D01*
X150371710Y-89649939D01*
X150372032Y-89637600D01*
X150372021Y-89637453D01*
X150372093Y-89634661D01*
X150393499Y-89568152D01*
X150408366Y-89550183D01*
X151221731Y-88736819D01*
X151283054Y-88703334D01*
X151309412Y-88700500D01*
X160500000Y-88700500D01*
X160500000Y-92050000D01*
G37*
%TD.AperFunction*%
%TA.AperFunction,Conductor*%
G36*
X154083449Y-103092469D02*
G01*
X154088719Y-103112136D01*
X154115062Y-103157762D01*
X154164485Y-103243365D01*
X154183389Y-103262269D01*
X153847112Y-103257598D01*
X154073178Y-103054139D01*
X154083449Y-103092469D01*
G37*
%TD.AperFunction*%
%TA.AperFunction,Conductor*%
G36*
X158872528Y-98555079D02*
G01*
X158884307Y-98555500D01*
X159245369Y-98555500D01*
X159312408Y-98575185D01*
X159358163Y-98627989D01*
X159368107Y-98697147D01*
X159339082Y-98760703D01*
X159333050Y-98767181D01*
X158401836Y-99698394D01*
X158340513Y-99731879D01*
X158270821Y-99726895D01*
X158214888Y-99685023D01*
X158203674Y-99667013D01*
X158157573Y-99576535D01*
X158157570Y-99576532D01*
X158157568Y-99576529D01*
X158073470Y-99492431D01*
X158073466Y-99492428D01*
X158073465Y-99492427D01*
X157967482Y-99438426D01*
X157967480Y-99438425D01*
X157967477Y-99438424D01*
X157866760Y-99422473D01*
X157803625Y-99392544D01*
X157766693Y-99333233D01*
X157767691Y-99263370D01*
X157806300Y-99205137D01*
X157866760Y-99177527D01*
X157967477Y-99161575D01*
X157967478Y-99161575D01*
X157967479Y-99161574D01*
X157967482Y-99161574D01*
X158073465Y-99107573D01*
X158157573Y-99023465D01*
X158211574Y-98917482D01*
X158215031Y-98895658D01*
X158230181Y-98800003D01*
X158230181Y-98799996D01*
X158214169Y-98698897D01*
X158223124Y-98629604D01*
X158268120Y-98576152D01*
X158334872Y-98555513D01*
X158336642Y-98555500D01*
X158715691Y-98555500D01*
X158715693Y-98555500D01*
X158727472Y-98555079D01*
X158731900Y-98555000D01*
X158868100Y-98555000D01*
X158872528Y-98555079D01*
G37*
%TD.AperFunction*%
%TD*%
%TA.AperFunction,Conductor*%
%TO.N,/Connector/POWER_VBUS*%
G36*
X154025204Y-97219685D02*
G01*
X154070959Y-97272489D01*
X154077939Y-97291903D01*
X154088719Y-97332135D01*
X154164485Y-97463365D01*
X154271635Y-97570515D01*
X154402865Y-97646281D01*
X154549234Y-97685500D01*
X154549236Y-97685500D01*
X154700764Y-97685500D01*
X154700766Y-97685500D01*
X154847135Y-97646281D01*
X154978365Y-97570515D01*
X155085515Y-97463365D01*
X155161281Y-97332135D01*
X155172060Y-97291905D01*
X155208426Y-97232246D01*
X155271273Y-97201717D01*
X155291835Y-97200000D01*
X156575500Y-97200000D01*
X156642539Y-97219685D01*
X156688294Y-97272489D01*
X156699500Y-97324000D01*
X156699500Y-97989562D01*
X156713152Y-98040513D01*
X156719979Y-98065990D01*
X156719982Y-98065995D01*
X156759535Y-98134504D01*
X156759541Y-98134512D01*
X157389608Y-98764579D01*
X157423093Y-98825902D01*
X157424400Y-98832862D01*
X157440279Y-98933123D01*
X157486485Y-99023806D01*
X157500000Y-99080101D01*
X157500000Y-99519898D01*
X157486485Y-99576192D01*
X157440279Y-99666876D01*
X157419196Y-99799997D01*
X157419196Y-99800002D01*
X157440279Y-99933123D01*
X157486485Y-100023806D01*
X157500000Y-100080101D01*
X157500000Y-100568964D01*
X157486485Y-100625258D01*
X157465279Y-100666876D01*
X157444196Y-100799997D01*
X157444196Y-100800002D01*
X157465279Y-100933123D01*
X157465281Y-100933126D01*
X157486485Y-100974742D01*
X157500000Y-101031035D01*
X157500000Y-101519898D01*
X157486485Y-101576192D01*
X157440279Y-101666876D01*
X157419196Y-101799997D01*
X157419196Y-101800002D01*
X157440279Y-101933123D01*
X157486485Y-102023806D01*
X157500000Y-102080101D01*
X157500000Y-102626000D01*
X157480315Y-102693039D01*
X157427511Y-102738794D01*
X157376000Y-102750000D01*
X155278156Y-102750000D01*
X155211117Y-102730315D01*
X155165362Y-102677511D01*
X155163592Y-102673446D01*
X155161283Y-102667873D01*
X155161281Y-102667865D01*
X155085515Y-102536635D01*
X154978365Y-102429485D01*
X154912750Y-102391602D01*
X154847136Y-102353719D01*
X154773950Y-102334109D01*
X154700766Y-102314500D01*
X154549234Y-102314500D01*
X154402863Y-102353719D01*
X154271635Y-102429485D01*
X154271632Y-102429487D01*
X154164487Y-102536632D01*
X154164485Y-102536635D01*
X154088720Y-102667863D01*
X154086408Y-102673446D01*
X154042570Y-102727852D01*
X153976278Y-102749921D01*
X153971844Y-102750000D01*
X153324000Y-102750000D01*
X153256961Y-102730315D01*
X153211206Y-102677511D01*
X153200000Y-102626000D01*
X153200000Y-97324000D01*
X153219685Y-97256961D01*
X153272489Y-97211206D01*
X153324000Y-97200000D01*
X153958165Y-97200000D01*
X154025204Y-97219685D01*
G37*
%TD.AperFunction*%
%TA.AperFunction,Conductor*%
G36*
X162093039Y-92719685D02*
G01*
X162138794Y-92772489D01*
X162150000Y-92824000D01*
X162150000Y-94965494D01*
X162130315Y-95032533D01*
X162077511Y-95078288D01*
X162008353Y-95088232D01*
X161991066Y-95084471D01*
X161871963Y-95049500D01*
X161871961Y-95049500D01*
X161728039Y-95049500D01*
X161728036Y-95049500D01*
X161589949Y-95090045D01*
X161468873Y-95167856D01*
X161374623Y-95276626D01*
X161374622Y-95276628D01*
X161314834Y-95407543D01*
X161294353Y-95550000D01*
X161314834Y-95692456D01*
X161374622Y-95823371D01*
X161374623Y-95823373D01*
X161468872Y-95932143D01*
X161589947Y-96009953D01*
X161589950Y-96009954D01*
X161589949Y-96009954D01*
X161728036Y-96050499D01*
X161728038Y-96050500D01*
X161728039Y-96050500D01*
X161871961Y-96050500D01*
X161991066Y-96015528D01*
X162060935Y-96015528D01*
X162119713Y-96053302D01*
X162148738Y-96116858D01*
X162150000Y-96134505D01*
X162150000Y-96472729D01*
X162130315Y-96539768D01*
X162088002Y-96580115D01*
X162078426Y-96585644D01*
X162078423Y-96585646D01*
X162036686Y-96609742D01*
X162036683Y-96609744D01*
X160844247Y-97802181D01*
X160782924Y-97835666D01*
X160756566Y-97838500D01*
X160271974Y-97838500D01*
X160223396Y-97851516D01*
X160199106Y-97858025D01*
X160133778Y-97895742D01*
X160133775Y-97895744D01*
X159715838Y-98313681D01*
X159654515Y-98347166D01*
X159628157Y-98350000D01*
X158884307Y-98350000D01*
X158877316Y-98349500D01*
X158871961Y-98349500D01*
X158728039Y-98349500D01*
X158722684Y-98349500D01*
X158715693Y-98350000D01*
X157876333Y-98350000D01*
X157809294Y-98330315D01*
X157788652Y-98313681D01*
X157336819Y-97861848D01*
X157303334Y-97800525D01*
X157300500Y-97774167D01*
X157300500Y-97225833D01*
X157320185Y-97158794D01*
X157336819Y-97138152D01*
X157861152Y-96613819D01*
X157922475Y-96580334D01*
X157948833Y-96577500D01*
X158812560Y-96577500D01*
X158812562Y-96577500D01*
X158888989Y-96557021D01*
X158957511Y-96517460D01*
X159013460Y-96461511D01*
X159290460Y-96184511D01*
X159304027Y-96161012D01*
X159330021Y-96115989D01*
X159350500Y-96039562D01*
X159350500Y-92824000D01*
X159370185Y-92756961D01*
X159422989Y-92711206D01*
X159474500Y-92700000D01*
X162026000Y-92700000D01*
X162093039Y-92719685D01*
G37*
%TD.AperFunction*%
%TD*%
%TA.AperFunction,Conductor*%
%TO.N,GND*%
G36*
X153917500Y-96994500D02*
G01*
X153323992Y-96994500D01*
X153280313Y-96999197D01*
X153228825Y-97010397D01*
X153218627Y-97012890D01*
X153218624Y-97012891D01*
X153137916Y-97055899D01*
X153137913Y-97055901D01*
X153085104Y-97101660D01*
X153067160Y-97119242D01*
X153067154Y-97119249D01*
X153022511Y-97199059D01*
X153022509Y-97199064D01*
X153002826Y-97266096D01*
X152994500Y-97324003D01*
X152994500Y-102626007D01*
X152999197Y-102669686D01*
X153010397Y-102721174D01*
X153012890Y-102731372D01*
X153012891Y-102731375D01*
X153055899Y-102812083D01*
X153055901Y-102812086D01*
X153101660Y-102864895D01*
X153119242Y-102882839D01*
X153119246Y-102882843D01*
X153119247Y-102882844D01*
X153119249Y-102882845D01*
X153199059Y-102927488D01*
X153199063Y-102927490D01*
X153266102Y-102947175D01*
X153324000Y-102955500D01*
X153324004Y-102955500D01*
X153951601Y-102955500D01*
X154018640Y-102975185D01*
X154064395Y-103027989D01*
X154071373Y-103047400D01*
X154073179Y-103054138D01*
X153800000Y-103300000D01*
X152600000Y-102700000D01*
X152500000Y-96900000D01*
X153917500Y-96994500D01*
G37*
%TD.AperFunction*%
%TD*%
M02*
