%TF.GenerationSoftware,KiCad,Pcbnew,8.0.3*%
%TF.CreationDate,2024-10-12T12:31:44+02:00*%
%TF.ProjectId,Parkside-100W-Brick,5061726b-7369-4646-952d-313030572d42,rev?*%
%TF.SameCoordinates,Original*%
%TF.FileFunction,Legend,Bot*%
%TF.FilePolarity,Positive*%
%FSLAX46Y46*%
G04 Gerber Fmt 4.6, Leading zero omitted, Abs format (unit mm)*
G04 Created by KiCad (PCBNEW 8.0.3) date 2024-10-12 12:31:44*
%MOMM*%
%LPD*%
G01*
G04 APERTURE LIST*
%ADD10C,0.150000*%
%ADD11C,0.154000*%
%ADD12C,0.000000*%
%ADD13C,0.700000*%
%ADD14C,4.400000*%
%ADD15C,3.000000*%
%ADD16C,0.650000*%
%ADD17O,2.100000X1.000000*%
%ADD18O,1.600000X1.000000*%
%ADD19R,6.500000X1.500000*%
G04 APERTURE END LIST*
D10*
G36*
X160700000Y-103347494D02*
G01*
X160700000Y-103266796D01*
X161500334Y-103266796D01*
X161500334Y-103347494D01*
X161370983Y-103496384D01*
X161278757Y-103496384D01*
X161410258Y-103347494D01*
X160700000Y-103347494D01*
G37*
G36*
X161329754Y-102545383D02*
G01*
X161371905Y-102557728D01*
X161408991Y-102577392D01*
X161440495Y-102603628D01*
X161465899Y-102635688D01*
X161484685Y-102672828D01*
X161496336Y-102714300D01*
X161500334Y-102759357D01*
X161496336Y-102804759D01*
X161484685Y-102846411D01*
X161465899Y-102883603D01*
X161440495Y-102915624D01*
X161408991Y-102941764D01*
X161371905Y-102961315D01*
X161329754Y-102973566D01*
X161283056Y-102977808D01*
X160917083Y-102977808D01*
X160870392Y-102973566D01*
X160828264Y-102961315D01*
X160791209Y-102941764D01*
X160759741Y-102915624D01*
X160734374Y-102883603D01*
X160715619Y-102846411D01*
X160703990Y-102804759D01*
X160700000Y-102759357D01*
X160771514Y-102759357D01*
X160777995Y-102804938D01*
X160796326Y-102841840D01*
X160824837Y-102869670D01*
X160861859Y-102888033D01*
X160905723Y-102896535D01*
X160921577Y-102897110D01*
X161278757Y-102897110D01*
X161324513Y-102891982D01*
X161363958Y-102876863D01*
X161395437Y-102852145D01*
X161417298Y-102818223D01*
X161427886Y-102775491D01*
X161428625Y-102759357D01*
X161422162Y-102713776D01*
X161403875Y-102676874D01*
X161375418Y-102649044D01*
X161338444Y-102630681D01*
X161294608Y-102622179D01*
X161278757Y-102621604D01*
X160921577Y-102621604D01*
X160875803Y-102626732D01*
X160836314Y-102641851D01*
X160804781Y-102666569D01*
X160782871Y-102700491D01*
X160772255Y-102743223D01*
X160771514Y-102759357D01*
X160700000Y-102759357D01*
X160703990Y-102714300D01*
X160715619Y-102672828D01*
X160734374Y-102635688D01*
X160759741Y-102603628D01*
X160791209Y-102577392D01*
X160828264Y-102557728D01*
X160870392Y-102545383D01*
X160917083Y-102541102D01*
X161283056Y-102541102D01*
X161329754Y-102545383D01*
G37*
G36*
X161329754Y-101960763D02*
G01*
X161371905Y-101973109D01*
X161408991Y-101992773D01*
X161440495Y-102019008D01*
X161465899Y-102051069D01*
X161484685Y-102088208D01*
X161496336Y-102129680D01*
X161500334Y-102174737D01*
X161496336Y-102220140D01*
X161484685Y-102261792D01*
X161465899Y-102298983D01*
X161440495Y-102331004D01*
X161408991Y-102357145D01*
X161371905Y-102376696D01*
X161329754Y-102388947D01*
X161283056Y-102393188D01*
X160917083Y-102393188D01*
X160870392Y-102388947D01*
X160828264Y-102376696D01*
X160791209Y-102357145D01*
X160759741Y-102331004D01*
X160734374Y-102298983D01*
X160715619Y-102261792D01*
X160703990Y-102220140D01*
X160700000Y-102174737D01*
X160771514Y-102174737D01*
X160777995Y-102220318D01*
X160796326Y-102257221D01*
X160824837Y-102285051D01*
X160861859Y-102303414D01*
X160905723Y-102311916D01*
X160921577Y-102312490D01*
X161278757Y-102312490D01*
X161324513Y-102307363D01*
X161363958Y-102292243D01*
X161395437Y-102267525D01*
X161417298Y-102233603D01*
X161427886Y-102190871D01*
X161428625Y-102174737D01*
X161422162Y-102129156D01*
X161403875Y-102092254D01*
X161375418Y-102064424D01*
X161338444Y-102046061D01*
X161294608Y-102037559D01*
X161278757Y-102036984D01*
X160921577Y-102036984D01*
X160875803Y-102042112D01*
X160836314Y-102057232D01*
X160804781Y-102081950D01*
X160782871Y-102115872D01*
X160772255Y-102158604D01*
X160771514Y-102174737D01*
X160700000Y-102174737D01*
X160703990Y-102129680D01*
X160715619Y-102088208D01*
X160734374Y-102051069D01*
X160759741Y-102019008D01*
X160791209Y-101992773D01*
X160828264Y-101973109D01*
X160870392Y-101960763D01*
X160917083Y-101956482D01*
X161283056Y-101956482D01*
X161329754Y-101960763D01*
G37*
G36*
X161500334Y-100943949D02*
G01*
X161500334Y-101034612D01*
X160854947Y-101190341D01*
X161500334Y-101366196D01*
X161500334Y-101442400D01*
X160854947Y-101618254D01*
X161500334Y-101773788D01*
X161500334Y-101864647D01*
X160700000Y-101660655D01*
X160700000Y-101581129D01*
X161340697Y-101404298D01*
X160700000Y-101227270D01*
X160700000Y-101147745D01*
X161500334Y-100943949D01*
G37*
G36*
X161302479Y-99992474D02*
G01*
X161350284Y-100003835D01*
X161392334Y-100023529D01*
X161428166Y-100050866D01*
X161457318Y-100085153D01*
X161479327Y-100125699D01*
X161493730Y-100171813D01*
X161500065Y-100222802D01*
X161500334Y-100236231D01*
X161500334Y-100533035D01*
X160700000Y-100533035D01*
X160700000Y-100447843D01*
X161025136Y-100447843D01*
X161025136Y-100242874D01*
X161101144Y-100242874D01*
X161101144Y-100447843D01*
X161424131Y-100447843D01*
X161424131Y-100242874D01*
X161420196Y-100198594D01*
X161408394Y-100159743D01*
X161383855Y-100121485D01*
X161348002Y-100093738D01*
X161309487Y-100079702D01*
X161263126Y-100074835D01*
X161216765Y-100079702D01*
X161178110Y-100093738D01*
X161141981Y-100121485D01*
X161117146Y-100159743D01*
X161105155Y-100198594D01*
X161101144Y-100242874D01*
X161025136Y-100242874D01*
X161025136Y-100236231D01*
X161027559Y-100196741D01*
X161038080Y-100148103D01*
X161056485Y-100104686D01*
X161082287Y-100067183D01*
X161114997Y-100036285D01*
X161154129Y-100012683D01*
X161199194Y-99997069D01*
X161249704Y-99990135D01*
X161263126Y-99989838D01*
X161302479Y-99992474D01*
G37*
G36*
X161145784Y-99274833D02*
G01*
X161190479Y-99275798D01*
X161233841Y-99278415D01*
X161275460Y-99283513D01*
X161314927Y-99291916D01*
X161360610Y-99308330D01*
X161401488Y-99332816D01*
X161416315Y-99345233D01*
X161445691Y-99376920D01*
X161468487Y-99411611D01*
X161484968Y-99449754D01*
X161495395Y-99491797D01*
X161500031Y-99538188D01*
X161500334Y-99554695D01*
X161500334Y-99828052D01*
X160700000Y-99828052D01*
X160700000Y-99569350D01*
X160776008Y-99569350D01*
X160776008Y-99742860D01*
X161424131Y-99742860D01*
X161424131Y-99569350D01*
X161421319Y-99524968D01*
X161411748Y-99483352D01*
X161393713Y-99445510D01*
X161365512Y-99412448D01*
X161330108Y-99388515D01*
X161286707Y-99373235D01*
X161245325Y-99365712D01*
X161199963Y-99361728D01*
X161151339Y-99360160D01*
X161110571Y-99359892D01*
X161100167Y-99359887D01*
X161059040Y-99360038D01*
X161019439Y-99360873D01*
X160972646Y-99363756D01*
X160929541Y-99369729D01*
X160890846Y-99379915D01*
X160851256Y-99399279D01*
X160834626Y-99412448D01*
X160806425Y-99445510D01*
X160788391Y-99483352D01*
X160778820Y-99524968D01*
X160776008Y-99569350D01*
X160700000Y-99569350D01*
X160700000Y-99554695D01*
X160701902Y-99514421D01*
X160709367Y-99470260D01*
X160722756Y-99430223D01*
X160742354Y-99393862D01*
X160768447Y-99360729D01*
X160784019Y-99345233D01*
X160822674Y-99317066D01*
X160866483Y-99297617D01*
X160904701Y-99287250D01*
X160945296Y-99280602D01*
X160987856Y-99276848D01*
X161031972Y-99275160D01*
X161077234Y-99274713D01*
X161100167Y-99274695D01*
X161145784Y-99274833D01*
G37*
G36*
X161037641Y-98797933D02*
G01*
X161037641Y-99104898D01*
X160962609Y-99104898D01*
X160962609Y-98797933D01*
X161037641Y-98797933D01*
G37*
G36*
X161500334Y-98349113D02*
G01*
X161497305Y-98394141D01*
X161488464Y-98435745D01*
X161474183Y-98473841D01*
X161454832Y-98508344D01*
X161430782Y-98539168D01*
X161421786Y-98548610D01*
X161386585Y-98578867D01*
X161349600Y-98600302D01*
X161308247Y-98614429D01*
X161259941Y-98622757D01*
X161214552Y-98626261D01*
X161161735Y-98627796D01*
X161116452Y-98628121D01*
X161100167Y-98628136D01*
X161053069Y-98627963D01*
X161011089Y-98627226D01*
X160962110Y-98624804D01*
X160919910Y-98620025D01*
X160874674Y-98609559D01*
X160835368Y-98592690D01*
X160799404Y-98567907D01*
X160778353Y-98548610D01*
X160749022Y-98513739D01*
X160728909Y-98479844D01*
X160713812Y-98442341D01*
X160704085Y-98401315D01*
X160700085Y-98356852D01*
X160700000Y-98349113D01*
X160702306Y-98309863D01*
X160712392Y-98260977D01*
X160730196Y-98216454D01*
X160755400Y-98176756D01*
X160787680Y-98142347D01*
X160826718Y-98113689D01*
X160872193Y-98091244D01*
X160910330Y-98078766D01*
X160937599Y-98072630D01*
X160937599Y-98159971D01*
X160894068Y-98173330D01*
X160856397Y-98193206D01*
X160825206Y-98219243D01*
X160801119Y-98251091D01*
X160784756Y-98288394D01*
X160776739Y-98330801D01*
X160776008Y-98349113D01*
X160779577Y-98388198D01*
X160792016Y-98428696D01*
X160813198Y-98465166D01*
X160832086Y-98487061D01*
X160867869Y-98514105D01*
X160904506Y-98528896D01*
X160950547Y-98537589D01*
X160998763Y-98541301D01*
X161045323Y-98542610D01*
X161085619Y-98542927D01*
X161100167Y-98542944D01*
X161142069Y-98542767D01*
X161190545Y-98541745D01*
X161231572Y-98539401D01*
X161274043Y-98533907D01*
X161314902Y-98522360D01*
X161353293Y-98500087D01*
X161368053Y-98487061D01*
X161394962Y-98453479D01*
X161413250Y-98415626D01*
X161422733Y-98373866D01*
X161424131Y-98349113D01*
X161419627Y-98304764D01*
X161406533Y-98265377D01*
X161385475Y-98231305D01*
X161357078Y-98202901D01*
X161321970Y-98180518D01*
X161280776Y-98164510D01*
X161262735Y-98159971D01*
X161262735Y-98072630D01*
X161303045Y-98082468D01*
X161340023Y-98096147D01*
X161383905Y-98120053D01*
X161421289Y-98150050D01*
X161451848Y-98185716D01*
X161475255Y-98226631D01*
X161491183Y-98272372D01*
X161499304Y-98322519D01*
X161500334Y-98349113D01*
G37*
G36*
X161110860Y-97509937D02*
G01*
X161154976Y-97523678D01*
X161191145Y-97548145D01*
X161219023Y-97583475D01*
X161235124Y-97619655D01*
X161245522Y-97662947D01*
X161250040Y-97713423D01*
X161250230Y-97727173D01*
X161248731Y-97767239D01*
X161242418Y-97809488D01*
X161227567Y-97852067D01*
X161203148Y-97889009D01*
X161173402Y-97917450D01*
X161167578Y-97921981D01*
X161118925Y-97867075D01*
X161150163Y-97837509D01*
X161169882Y-97802723D01*
X161178772Y-97764026D01*
X161180669Y-97728345D01*
X161177747Y-97685039D01*
X161166589Y-97644444D01*
X161143169Y-97611591D01*
X161108723Y-97592958D01*
X161063433Y-97587075D01*
X161012630Y-97587075D01*
X161012630Y-97751792D01*
X161009796Y-97795363D01*
X161001533Y-97833644D01*
X160984116Y-97873813D01*
X160959481Y-97905155D01*
X160921378Y-97930670D01*
X160883332Y-97941487D01*
X160858073Y-97943279D01*
X160816212Y-97938460D01*
X160778585Y-97923844D01*
X160750216Y-97901855D01*
X160724437Y-97868219D01*
X160708496Y-97828806D01*
X160701469Y-97785530D01*
X160700000Y-97746126D01*
X160700483Y-97737138D01*
X160769364Y-97737138D01*
X160772434Y-97781799D01*
X160783879Y-97821303D01*
X160811322Y-97853115D01*
X160853447Y-97864810D01*
X160859050Y-97864926D01*
X160899714Y-97857159D01*
X160931599Y-97829853D01*
X160947600Y-97789077D01*
X160951967Y-97748301D01*
X160952058Y-97740655D01*
X160952058Y-97587075D01*
X160895394Y-97587075D01*
X160855128Y-97590309D01*
X160817655Y-97604092D01*
X160804535Y-97615212D01*
X160782698Y-97650087D01*
X160772353Y-97687809D01*
X160769420Y-97728594D01*
X160769364Y-97737138D01*
X160700483Y-97737138D01*
X160702372Y-97701948D01*
X160711571Y-97660060D01*
X160728796Y-97624222D01*
X160755200Y-97591173D01*
X160759204Y-97587075D01*
X160706643Y-97587075D01*
X160706643Y-97506573D01*
X161070076Y-97506573D01*
X161110860Y-97509937D01*
G37*
G36*
X161250230Y-97075924D02*
G01*
X161246301Y-97117071D01*
X161234957Y-97155540D01*
X161213761Y-97194083D01*
X161184735Y-97224456D01*
X161176371Y-97230480D01*
X161243391Y-97230480D01*
X161243391Y-97311178D01*
X160700000Y-97311178D01*
X160700000Y-97230480D01*
X161032951Y-97230480D01*
X161077077Y-97225188D01*
X161115332Y-97209903D01*
X161146008Y-97185515D01*
X161169940Y-97146742D01*
X161178337Y-97105678D01*
X161178520Y-97098199D01*
X161173801Y-97057443D01*
X161155615Y-97022085D01*
X161138855Y-97003042D01*
X161198646Y-96943642D01*
X161225625Y-96977268D01*
X161241871Y-97012896D01*
X161249260Y-97052066D01*
X161250230Y-97075924D01*
G37*
G36*
X161500334Y-96545233D02*
G01*
X161178520Y-96545233D01*
X161210166Y-96575927D01*
X161233662Y-96612819D01*
X161246135Y-96652365D01*
X161250186Y-96695316D01*
X161250230Y-96700962D01*
X161246783Y-96741943D01*
X161235394Y-96782896D01*
X161214850Y-96820383D01*
X161201967Y-96835393D01*
X161167961Y-96861985D01*
X161128575Y-96880789D01*
X161085110Y-96893004D01*
X161038862Y-96899828D01*
X160999134Y-96902259D01*
X160975115Y-96902609D01*
X160934978Y-96901592D01*
X160895354Y-96898078D01*
X160849647Y-96889591D01*
X160807299Y-96875312D01*
X160769740Y-96854045D01*
X160748066Y-96835393D01*
X160724017Y-96802805D01*
X160708794Y-96765450D01*
X160701354Y-96727023D01*
X160700000Y-96700962D01*
X160701207Y-96684158D01*
X160771514Y-96684158D01*
X160775999Y-96724466D01*
X160793040Y-96762927D01*
X160827381Y-96794123D01*
X160865013Y-96809907D01*
X160908513Y-96818453D01*
X160955698Y-96821680D01*
X160975115Y-96821911D01*
X161023084Y-96820275D01*
X161068266Y-96814086D01*
X161108473Y-96801428D01*
X161141518Y-96780380D01*
X161165215Y-96749025D01*
X161177376Y-96705444D01*
X161178520Y-96684158D01*
X161174036Y-96643463D01*
X161156998Y-96604652D01*
X161122673Y-96573197D01*
X161085069Y-96557299D01*
X161041614Y-96548703D01*
X160994497Y-96545464D01*
X160975115Y-96545233D01*
X160927067Y-96546874D01*
X160881831Y-96553093D01*
X160841590Y-96565837D01*
X160808526Y-96587050D01*
X160784821Y-96618678D01*
X160772658Y-96662666D01*
X160771514Y-96684158D01*
X160701207Y-96684158D01*
X160703150Y-96657120D01*
X160714361Y-96617236D01*
X160736270Y-96580282D01*
X160766289Y-96549545D01*
X160771514Y-96545233D01*
X160706643Y-96545233D01*
X160706643Y-96464535D01*
X161500334Y-96464535D01*
X161500334Y-96545233D01*
G37*
G36*
X159906230Y-105015380D02*
G01*
X159903436Y-105058203D01*
X159895239Y-105097189D01*
X159877812Y-105139645D01*
X159852907Y-105174077D01*
X159821061Y-105199356D01*
X159782811Y-105214357D01*
X159747960Y-105218199D01*
X159702575Y-105212224D01*
X159666051Y-105194469D01*
X159638140Y-105165189D01*
X159618597Y-105124639D01*
X159608524Y-105082422D01*
X159605127Y-105053481D01*
X159597507Y-104962819D01*
X159589722Y-104921019D01*
X159569287Y-104887320D01*
X159532354Y-104871699D01*
X159519545Y-104870983D01*
X159478368Y-104880997D01*
X159448934Y-104909916D01*
X159432825Y-104949402D01*
X159426194Y-104992884D01*
X159425364Y-105017724D01*
X159428071Y-105061273D01*
X159436468Y-105101984D01*
X159450972Y-105139206D01*
X159472002Y-105172289D01*
X159487109Y-105189085D01*
X159435134Y-105242819D01*
X159406282Y-105207951D01*
X159384593Y-105169956D01*
X159369442Y-105128509D01*
X159360204Y-105083285D01*
X159356569Y-105042480D01*
X159356000Y-105016552D01*
X159358845Y-104968334D01*
X159367226Y-104924851D01*
X159380904Y-104886625D01*
X159405094Y-104847032D01*
X159436734Y-104817488D01*
X159475364Y-104799015D01*
X159520521Y-104792630D01*
X159563085Y-104797331D01*
X159602650Y-104814589D01*
X159631161Y-104843186D01*
X159650211Y-104881707D01*
X159660006Y-104920369D01*
X159664527Y-104955003D01*
X159672147Y-105041172D01*
X159678943Y-105080663D01*
X159695668Y-105116154D01*
X159729483Y-105137598D01*
X159750110Y-105139846D01*
X159791043Y-105129837D01*
X159819955Y-105100213D01*
X159834467Y-105057896D01*
X159837842Y-105016552D01*
X159835341Y-104975076D01*
X159827657Y-104936514D01*
X159812473Y-104897136D01*
X159795637Y-104869811D01*
X159846830Y-104817250D01*
X159870236Y-104852817D01*
X159887706Y-104893085D01*
X159898048Y-104931034D01*
X159904197Y-104971884D01*
X159906230Y-105015380D01*
G37*
G36*
X159461122Y-104532170D02*
G01*
X159461122Y-104637487D01*
X159356000Y-104637487D01*
X159356000Y-104532170D01*
X159461122Y-104532170D01*
G37*
G36*
X160156334Y-104116566D02*
G01*
X160156334Y-104174793D01*
X160151672Y-104215414D01*
X160134869Y-104254903D01*
X160107693Y-104284382D01*
X160072106Y-104303942D01*
X160030071Y-104313678D01*
X160007249Y-104314891D01*
X159906230Y-104314891D01*
X159906230Y-104385428D01*
X159844485Y-104385428D01*
X159844485Y-104314891D01*
X159356000Y-104314891D01*
X159356000Y-104234193D01*
X159844485Y-104234193D01*
X159844485Y-104116566D01*
X159906230Y-104116566D01*
X159906230Y-104234193D01*
X160004904Y-104234193D01*
X160046577Y-104227413D01*
X160078097Y-104200236D01*
X160086774Y-104160334D01*
X160086774Y-104116566D01*
X160156334Y-104116566D01*
G37*
G36*
X159906230Y-103745903D02*
G01*
X159902301Y-103787050D01*
X159890957Y-103825519D01*
X159869761Y-103864062D01*
X159840735Y-103894435D01*
X159832371Y-103900460D01*
X159899391Y-103900460D01*
X159899391Y-103981158D01*
X159356000Y-103981158D01*
X159356000Y-103900460D01*
X159688951Y-103900460D01*
X159733077Y-103895167D01*
X159771332Y-103879883D01*
X159802008Y-103855494D01*
X159825940Y-103816721D01*
X159834337Y-103775657D01*
X159834520Y-103768178D01*
X159829801Y-103727422D01*
X159811615Y-103692065D01*
X159794855Y-103673021D01*
X159854646Y-103613621D01*
X159881625Y-103647247D01*
X159897871Y-103682875D01*
X159905260Y-103722045D01*
X159906230Y-103745903D01*
G37*
G36*
X159766860Y-103131040D02*
G01*
X159810976Y-103144781D01*
X159847145Y-103169248D01*
X159875023Y-103204578D01*
X159891124Y-103240758D01*
X159901522Y-103284050D01*
X159906040Y-103334526D01*
X159906230Y-103348276D01*
X159904731Y-103388342D01*
X159898418Y-103430591D01*
X159883567Y-103473170D01*
X159859148Y-103510112D01*
X159829402Y-103538553D01*
X159823578Y-103543084D01*
X159774925Y-103488178D01*
X159806163Y-103458611D01*
X159825882Y-103423826D01*
X159834772Y-103385129D01*
X159836669Y-103349448D01*
X159833747Y-103306142D01*
X159822589Y-103265547D01*
X159799169Y-103232693D01*
X159764723Y-103214061D01*
X159719433Y-103208178D01*
X159668630Y-103208178D01*
X159668630Y-103372895D01*
X159665796Y-103416466D01*
X159657533Y-103454747D01*
X159640116Y-103494916D01*
X159615481Y-103526257D01*
X159577378Y-103551773D01*
X159539332Y-103562590D01*
X159514073Y-103564382D01*
X159472212Y-103559563D01*
X159434585Y-103544947D01*
X159406216Y-103522958D01*
X159380437Y-103489321D01*
X159364496Y-103449909D01*
X159357469Y-103406633D01*
X159356000Y-103367229D01*
X159356483Y-103358241D01*
X159425364Y-103358241D01*
X159428434Y-103402902D01*
X159439879Y-103442406D01*
X159467322Y-103474218D01*
X159509447Y-103485913D01*
X159515050Y-103486029D01*
X159555714Y-103478262D01*
X159587599Y-103450956D01*
X159603600Y-103410180D01*
X159607967Y-103369403D01*
X159608058Y-103361758D01*
X159608058Y-103208178D01*
X159551394Y-103208178D01*
X159511128Y-103211412D01*
X159473655Y-103225195D01*
X159460535Y-103236315D01*
X159438698Y-103271189D01*
X159428353Y-103308912D01*
X159425420Y-103349697D01*
X159425364Y-103358241D01*
X159356483Y-103358241D01*
X159358372Y-103323051D01*
X159367571Y-103281163D01*
X159384796Y-103245325D01*
X159411200Y-103212275D01*
X159415204Y-103208178D01*
X159362643Y-103208178D01*
X159362643Y-103127675D01*
X159726076Y-103127675D01*
X159766860Y-103131040D01*
G37*
G36*
X159906230Y-102697026D02*
G01*
X159902862Y-102736370D01*
X159890907Y-102778275D01*
X159870531Y-102816109D01*
X159841975Y-102849028D01*
X159837842Y-102852756D01*
X159899391Y-102852756D01*
X159899391Y-102932281D01*
X159356000Y-102932281D01*
X159356000Y-102851583D01*
X159689928Y-102851583D01*
X159731105Y-102847665D01*
X159771613Y-102833215D01*
X159806381Y-102804265D01*
X159827440Y-102763905D01*
X159834375Y-102721515D01*
X159834520Y-102713830D01*
X159829398Y-102670552D01*
X159814067Y-102634517D01*
X159783350Y-102602828D01*
X159746086Y-102585563D01*
X159707362Y-102578839D01*
X159689928Y-102578227D01*
X159356000Y-102578227D01*
X159356000Y-102497529D01*
X159702238Y-102497529D01*
X159741820Y-102500144D01*
X159782994Y-102509721D01*
X159819520Y-102526622D01*
X159851069Y-102551160D01*
X159854646Y-102554779D01*
X159879241Y-102586724D01*
X159896104Y-102625357D01*
X159904349Y-102664722D01*
X159906230Y-102697026D01*
G37*
G36*
X159356000Y-102347075D02*
G01*
X159356000Y-101947103D01*
X159427514Y-101947103D01*
X159427514Y-102252895D01*
X159839991Y-101947103D01*
X159906230Y-101947103D01*
X159906230Y-102330271D01*
X159834520Y-102330271D01*
X159834520Y-102042456D01*
X159422043Y-102347075D01*
X159356000Y-102347075D01*
G37*
G36*
X159461122Y-101685666D02*
G01*
X159461122Y-101790983D01*
X159356000Y-101790983D01*
X159356000Y-101685666D01*
X159461122Y-101685666D01*
G37*
G36*
X159906230Y-101311486D02*
G01*
X159903436Y-101354309D01*
X159895239Y-101393295D01*
X159877812Y-101435751D01*
X159852907Y-101470183D01*
X159821061Y-101495462D01*
X159782811Y-101510463D01*
X159747960Y-101514305D01*
X159702575Y-101508330D01*
X159666051Y-101490575D01*
X159638140Y-101461295D01*
X159618597Y-101420745D01*
X159608524Y-101378528D01*
X159605127Y-101349588D01*
X159597507Y-101258925D01*
X159589722Y-101217125D01*
X159569287Y-101183426D01*
X159532354Y-101167805D01*
X159519545Y-101167089D01*
X159478368Y-101177103D01*
X159448934Y-101206022D01*
X159432825Y-101245508D01*
X159426194Y-101288990D01*
X159425364Y-101313830D01*
X159428071Y-101357379D01*
X159436468Y-101398090D01*
X159450972Y-101435312D01*
X159472002Y-101468395D01*
X159487109Y-101485191D01*
X159435134Y-101538925D01*
X159406282Y-101504057D01*
X159384593Y-101466062D01*
X159369442Y-101424615D01*
X159360204Y-101379391D01*
X159356569Y-101338586D01*
X159356000Y-101312658D01*
X159358845Y-101264440D01*
X159367226Y-101220957D01*
X159380904Y-101182731D01*
X159405094Y-101143138D01*
X159436734Y-101113595D01*
X159475364Y-101095121D01*
X159520521Y-101088736D01*
X159563085Y-101093437D01*
X159602650Y-101110696D01*
X159631161Y-101139292D01*
X159650211Y-101177813D01*
X159660006Y-101216475D01*
X159664527Y-101251109D01*
X159672147Y-101337278D01*
X159678943Y-101376769D01*
X159695668Y-101412260D01*
X159729483Y-101433704D01*
X159750110Y-101435952D01*
X159791043Y-101425944D01*
X159819955Y-101396319D01*
X159834467Y-101354002D01*
X159837842Y-101312658D01*
X159835341Y-101271183D01*
X159827657Y-101232620D01*
X159812473Y-101193242D01*
X159795637Y-101165917D01*
X159846830Y-101113356D01*
X159870236Y-101148924D01*
X159887706Y-101189191D01*
X159898048Y-101227141D01*
X159904197Y-101267990D01*
X159906230Y-101311486D01*
G37*
G36*
X159906230Y-100716315D02*
G01*
X159901862Y-100766696D01*
X159888797Y-100813087D01*
X159867095Y-100854646D01*
X159836816Y-100890533D01*
X159798019Y-100919908D01*
X159750763Y-100941931D01*
X159709806Y-100953117D01*
X159664150Y-100959341D01*
X159631115Y-100960558D01*
X159582295Y-100957840D01*
X159538175Y-100949923D01*
X159498777Y-100937161D01*
X159453632Y-100913221D01*
X159416974Y-100882139D01*
X159388857Y-100844755D01*
X159369332Y-100801909D01*
X159358453Y-100754442D01*
X159356000Y-100716315D01*
X159358260Y-100676172D01*
X159367366Y-100634870D01*
X159384688Y-100597294D01*
X159411541Y-100561099D01*
X159437284Y-100534793D01*
X159488281Y-100589699D01*
X159459992Y-100619567D01*
X159437841Y-100656367D01*
X159428298Y-100697482D01*
X159427514Y-100716315D01*
X159432398Y-100759372D01*
X159446930Y-100797276D01*
X159470927Y-100829141D01*
X159488281Y-100843907D01*
X159523196Y-100863675D01*
X159560836Y-100874462D01*
X159601450Y-100879095D01*
X159631115Y-100879860D01*
X159671573Y-100878344D01*
X159710264Y-100872599D01*
X159750019Y-100858646D01*
X159773948Y-100843907D01*
X159803001Y-100815781D01*
X159822758Y-100781122D01*
X159833009Y-100740819D01*
X159834520Y-100716315D01*
X159830595Y-100676057D01*
X159815497Y-100637757D01*
X159790220Y-100604877D01*
X159774925Y-100589699D01*
X159824750Y-100534793D01*
X159854980Y-100566274D01*
X159880443Y-100602523D01*
X159896575Y-100640488D01*
X159904663Y-100682513D01*
X159906230Y-100716315D01*
G37*
G36*
X159906230Y-100301297D02*
G01*
X159906230Y-100381995D01*
X159356000Y-100381995D01*
X159356000Y-100301297D01*
X159906230Y-100301297D01*
G37*
G36*
X160156334Y-100295631D02*
G01*
X160156334Y-100386489D01*
X160065476Y-100386489D01*
X160065476Y-100295631D01*
X160156334Y-100295631D01*
G37*
G36*
X159688645Y-99678792D02*
G01*
X159728771Y-99685229D01*
X159776726Y-99700253D01*
X159817899Y-99722392D01*
X159851804Y-99751378D01*
X159877956Y-99786945D01*
X159895869Y-99828823D01*
X159905058Y-99876745D01*
X159906230Y-99902888D01*
X159901509Y-99952834D01*
X159887588Y-99997346D01*
X159864828Y-100036047D01*
X159833592Y-100068558D01*
X159794241Y-100094503D01*
X159747136Y-100113502D01*
X159706937Y-100122967D01*
X159662734Y-100128153D01*
X159631115Y-100129155D01*
X159580805Y-100126711D01*
X159535780Y-100119514D01*
X159495967Y-100107769D01*
X159450862Y-100085386D01*
X159414716Y-100055761D01*
X159387357Y-100019379D01*
X159368609Y-99976723D01*
X159358299Y-99928275D01*
X159356000Y-99888429D01*
X159358121Y-99847626D01*
X159366209Y-99805067D01*
X159380239Y-99767852D01*
X159403975Y-99728868D01*
X159430510Y-99697266D01*
X159440605Y-99686782D01*
X159487109Y-99741688D01*
X159459839Y-99773757D01*
X159439208Y-99810692D01*
X159428510Y-99852856D01*
X159426537Y-99886084D01*
X159431380Y-99932288D01*
X159445647Y-99970977D01*
X159474653Y-100007302D01*
X159508267Y-100029003D01*
X159550045Y-100042775D01*
X159589082Y-100047997D01*
X159610403Y-100048652D01*
X159669021Y-100048652D01*
X159708647Y-100045809D01*
X159747611Y-100036289D01*
X159757730Y-100031849D01*
X159790773Y-100010077D01*
X159818574Y-99976627D01*
X159833475Y-99939842D01*
X159837842Y-99902888D01*
X159832166Y-99861117D01*
X159816031Y-99825170D01*
X159787041Y-99792743D01*
X159757730Y-99774123D01*
X159719018Y-99761398D01*
X159676824Y-99756781D01*
X159669021Y-99756147D01*
X159669021Y-100048652D01*
X159610403Y-100048652D01*
X159610403Y-99676622D01*
X159645183Y-99676622D01*
X159688645Y-99678792D01*
G37*
G36*
X159906230Y-99270592D02*
G01*
X159902862Y-99309936D01*
X159890907Y-99351841D01*
X159870531Y-99389675D01*
X159841975Y-99422594D01*
X159837842Y-99426322D01*
X159899391Y-99426322D01*
X159899391Y-99505847D01*
X159356000Y-99505847D01*
X159356000Y-99425149D01*
X159689928Y-99425149D01*
X159731105Y-99421231D01*
X159771613Y-99406781D01*
X159806381Y-99377831D01*
X159827440Y-99337471D01*
X159834375Y-99295081D01*
X159834520Y-99287396D01*
X159829398Y-99244118D01*
X159814067Y-99208083D01*
X159783350Y-99176394D01*
X159746086Y-99159129D01*
X159707362Y-99152405D01*
X159689928Y-99151793D01*
X159356000Y-99151793D01*
X159356000Y-99071095D01*
X159702238Y-99071095D01*
X159741820Y-99073710D01*
X159782994Y-99083287D01*
X159819520Y-99100188D01*
X159851069Y-99124726D01*
X159854646Y-99128345D01*
X159879241Y-99160290D01*
X159896104Y-99198923D01*
X159904349Y-99238288D01*
X159906230Y-99270592D01*
G37*
G36*
X159906230Y-98660767D02*
G01*
X159901862Y-98711148D01*
X159888797Y-98757539D01*
X159867095Y-98799098D01*
X159836816Y-98834985D01*
X159798019Y-98864360D01*
X159750763Y-98886383D01*
X159709806Y-98897570D01*
X159664150Y-98903793D01*
X159631115Y-98905010D01*
X159582295Y-98902292D01*
X159538175Y-98894375D01*
X159498777Y-98881613D01*
X159453632Y-98857673D01*
X159416974Y-98826591D01*
X159388857Y-98789207D01*
X159369332Y-98746361D01*
X159358453Y-98698894D01*
X159356000Y-98660767D01*
X159358260Y-98620624D01*
X159367366Y-98579322D01*
X159384688Y-98541746D01*
X159411541Y-98505552D01*
X159437284Y-98479246D01*
X159488281Y-98534151D01*
X159459992Y-98564019D01*
X159437841Y-98600820D01*
X159428298Y-98641935D01*
X159427514Y-98660767D01*
X159432398Y-98703824D01*
X159446930Y-98741728D01*
X159470927Y-98773593D01*
X159488281Y-98788359D01*
X159523196Y-98808127D01*
X159560836Y-98818914D01*
X159601450Y-98823547D01*
X159631115Y-98824312D01*
X159671573Y-98822796D01*
X159710264Y-98817051D01*
X159750019Y-98803099D01*
X159773948Y-98788359D01*
X159803001Y-98760233D01*
X159822758Y-98725575D01*
X159833009Y-98685271D01*
X159834520Y-98660767D01*
X159830595Y-98620509D01*
X159815497Y-98582209D01*
X159790220Y-98549329D01*
X159774925Y-98534151D01*
X159824750Y-98479246D01*
X159854980Y-98510726D01*
X159880443Y-98546975D01*
X159896575Y-98584940D01*
X159904663Y-98626965D01*
X159906230Y-98660767D01*
G37*
G36*
X159688645Y-97922589D02*
G01*
X159728771Y-97929026D01*
X159776726Y-97944049D01*
X159817899Y-97966188D01*
X159851804Y-97995175D01*
X159877956Y-98030741D01*
X159895869Y-98072619D01*
X159905058Y-98120541D01*
X159906230Y-98146685D01*
X159901509Y-98196630D01*
X159887588Y-98241142D01*
X159864828Y-98279843D01*
X159833592Y-98312354D01*
X159794241Y-98338299D01*
X159747136Y-98357298D01*
X159706937Y-98366763D01*
X159662734Y-98371949D01*
X159631115Y-98372951D01*
X159580805Y-98370507D01*
X159535780Y-98363310D01*
X159495967Y-98351565D01*
X159450862Y-98329182D01*
X159414716Y-98299558D01*
X159387357Y-98263176D01*
X159368609Y-98220519D01*
X159358299Y-98172071D01*
X159356000Y-98132225D01*
X159358121Y-98091423D01*
X159366209Y-98048863D01*
X159380239Y-98011648D01*
X159403975Y-97972665D01*
X159430510Y-97941063D01*
X159440605Y-97930578D01*
X159487109Y-97985484D01*
X159459839Y-98017553D01*
X159439208Y-98054489D01*
X159428510Y-98096652D01*
X159426537Y-98129881D01*
X159431380Y-98176084D01*
X159445647Y-98214773D01*
X159474653Y-98251098D01*
X159508267Y-98272800D01*
X159550045Y-98286572D01*
X159589082Y-98291793D01*
X159610403Y-98292449D01*
X159669021Y-98292449D01*
X159708647Y-98289605D01*
X159747611Y-98280085D01*
X159757730Y-98275645D01*
X159790773Y-98253874D01*
X159818574Y-98220423D01*
X159833475Y-98183638D01*
X159837842Y-98146685D01*
X159832166Y-98104913D01*
X159816031Y-98068966D01*
X159787041Y-98036539D01*
X159757730Y-98017920D01*
X159719018Y-98005195D01*
X159676824Y-98000577D01*
X159669021Y-97999943D01*
X159669021Y-98292449D01*
X159610403Y-98292449D01*
X159610403Y-97920418D01*
X159645183Y-97920418D01*
X159688645Y-97922589D01*
G37*
G36*
X160231366Y-97451667D02*
G01*
X160231366Y-97531193D01*
X159268463Y-97850271D01*
X159268463Y-97770746D01*
X160231366Y-97451667D01*
G37*
G36*
X159461903Y-96863726D02*
G01*
X159499735Y-96839939D01*
X159542240Y-96824200D01*
X159583382Y-96816049D01*
X159631568Y-96811401D01*
X159676347Y-96809567D01*
X159727622Y-96808883D01*
X159755972Y-96808820D01*
X159803685Y-96809022D01*
X159846094Y-96809837D01*
X159895390Y-96812424D01*
X159937662Y-96817408D01*
X159982715Y-96828146D01*
X160021622Y-96845255D01*
X160057066Y-96870192D01*
X160077786Y-96889518D01*
X160107140Y-96924243D01*
X160127300Y-96957848D01*
X160142452Y-96994997D01*
X160152225Y-97035691D01*
X160156249Y-97079930D01*
X160156334Y-97087648D01*
X160153305Y-97132676D01*
X160144464Y-97174280D01*
X160130183Y-97212376D01*
X160110832Y-97246879D01*
X160086782Y-97277703D01*
X160077786Y-97287145D01*
X160043132Y-97317402D01*
X160006625Y-97338837D01*
X159965582Y-97352963D01*
X159917318Y-97361292D01*
X159871706Y-97364796D01*
X159832511Y-97366089D01*
X159788398Y-97366602D01*
X159755972Y-97366671D01*
X159708304Y-97366498D01*
X159665923Y-97365761D01*
X159616645Y-97363338D01*
X159574379Y-97358560D01*
X159529326Y-97348093D01*
X159490431Y-97331225D01*
X159455027Y-97306442D01*
X159434353Y-97287145D01*
X159405022Y-97252274D01*
X159384909Y-97218378D01*
X159369812Y-97180875D01*
X159360085Y-97139850D01*
X159356085Y-97095386D01*
X159356000Y-97087648D01*
X159432008Y-97087648D01*
X159435507Y-97126732D01*
X159447714Y-97167231D01*
X159468528Y-97203701D01*
X159487109Y-97225596D01*
X159522390Y-97252640D01*
X159558728Y-97267431D01*
X159604748Y-97276124D01*
X159653264Y-97279836D01*
X159700333Y-97281145D01*
X159741196Y-97281461D01*
X159755972Y-97281479D01*
X159798599Y-97281302D01*
X159847753Y-97280280D01*
X159889172Y-97277936D01*
X159931802Y-97272442D01*
X159972480Y-97260895D01*
X160010346Y-97238622D01*
X160024834Y-97225596D01*
X160051422Y-97192014D01*
X160069441Y-97154161D01*
X160078761Y-97112401D01*
X160080131Y-97087648D01*
X160076629Y-97048676D01*
X160064395Y-97008240D01*
X160043505Y-96971788D01*
X160024834Y-96949895D01*
X159989653Y-96922850D01*
X159953356Y-96908060D01*
X159907337Y-96899367D01*
X159858789Y-96895654D01*
X159811675Y-96894345D01*
X159770765Y-96894029D01*
X159755972Y-96894012D01*
X159711387Y-96894207D01*
X159672236Y-96894952D01*
X159630119Y-96897019D01*
X159588195Y-96901778D01*
X159548870Y-96911490D01*
X159521303Y-96924298D01*
X159619391Y-97023949D01*
X159568784Y-97075338D01*
X159467374Y-96972365D01*
X159447384Y-97008656D01*
X159435527Y-97048371D01*
X159432008Y-97087648D01*
X159356000Y-97087648D01*
X159358829Y-97043882D01*
X159367081Y-97003576D01*
X159380400Y-96966658D01*
X159401369Y-96928519D01*
X159410710Y-96915310D01*
X159318484Y-96827969D01*
X159374953Y-96776384D01*
X159461903Y-96863726D01*
G37*
G36*
X159713962Y-96240223D02*
G01*
X159727960Y-96194475D01*
X159749787Y-96154351D01*
X159779143Y-96120722D01*
X159815729Y-96094461D01*
X159859245Y-96076440D01*
X159898847Y-96068541D01*
X159931240Y-96066712D01*
X159981360Y-96071165D01*
X160025845Y-96084087D01*
X160064371Y-96104827D01*
X160096617Y-96132731D01*
X160122259Y-96167148D01*
X160140975Y-96207424D01*
X160152441Y-96252907D01*
X160156334Y-96302944D01*
X160156334Y-96608736D01*
X159356000Y-96608736D01*
X159356000Y-96523544D01*
X159706146Y-96523544D01*
X159706146Y-96332058D01*
X159665063Y-96310760D01*
X159781177Y-96310760D01*
X159781177Y-96523544D01*
X160080131Y-96523544D01*
X160080131Y-96310760D01*
X160076443Y-96269287D01*
X160062308Y-96225992D01*
X160037624Y-96191218D01*
X160002438Y-96166512D01*
X159965127Y-96154728D01*
X159930068Y-96151709D01*
X159887044Y-96156397D01*
X159845126Y-96173533D01*
X159813756Y-96201767D01*
X159792888Y-96239553D01*
X159782477Y-96285345D01*
X159781177Y-96310760D01*
X159665063Y-96310760D01*
X159356000Y-96150537D01*
X159356000Y-96050886D01*
X159713962Y-96240223D01*
G37*
G36*
X159906230Y-95707187D02*
G01*
X159901862Y-95757569D01*
X159888797Y-95803959D01*
X159867095Y-95845518D01*
X159836816Y-95881405D01*
X159798019Y-95910781D01*
X159750763Y-95932803D01*
X159709806Y-95943990D01*
X159664150Y-95950213D01*
X159631115Y-95951430D01*
X159582295Y-95948712D01*
X159538175Y-95940795D01*
X159498777Y-95928033D01*
X159453632Y-95904093D01*
X159416974Y-95873011D01*
X159388857Y-95835627D01*
X159369332Y-95792782D01*
X159358453Y-95745314D01*
X159356000Y-95707187D01*
X159358260Y-95667044D01*
X159367366Y-95625742D01*
X159384688Y-95588166D01*
X159411541Y-95551972D01*
X159437284Y-95525666D01*
X159488281Y-95580571D01*
X159459992Y-95610439D01*
X159437841Y-95647240D01*
X159428298Y-95688355D01*
X159427514Y-95707187D01*
X159432398Y-95750244D01*
X159446930Y-95788148D01*
X159470927Y-95820013D01*
X159488281Y-95834779D01*
X159523196Y-95854547D01*
X159560836Y-95865335D01*
X159601450Y-95869967D01*
X159631115Y-95870732D01*
X159671573Y-95869216D01*
X159710264Y-95863471D01*
X159750019Y-95849519D01*
X159773948Y-95834779D01*
X159803001Y-95806653D01*
X159822758Y-95771995D01*
X159833009Y-95731691D01*
X159834520Y-95707187D01*
X159830595Y-95666929D01*
X159815497Y-95628629D01*
X159790220Y-95595749D01*
X159774925Y-95580571D01*
X159824750Y-95525666D01*
X159854980Y-95557147D01*
X159880443Y-95593395D01*
X159896575Y-95631360D01*
X159904663Y-95673385D01*
X159906230Y-95707187D01*
G37*
G36*
X160156334Y-94812672D02*
G01*
X160156334Y-94897864D01*
X159631505Y-94897864D01*
X159588376Y-94901416D01*
X159549556Y-94911773D01*
X159507767Y-94933606D01*
X159474274Y-94964495D01*
X159449944Y-95003562D01*
X159435643Y-95049931D01*
X159432008Y-95091695D01*
X159435643Y-95133409D01*
X159449944Y-95179602D01*
X159474274Y-95218418D01*
X159507767Y-95249034D01*
X159549556Y-95270627D01*
X159588376Y-95280852D01*
X159631505Y-95284354D01*
X160156334Y-95284354D01*
X160156334Y-95369350D01*
X159624862Y-95369350D01*
X159581658Y-95366339D01*
X159541279Y-95357541D01*
X159504036Y-95343310D01*
X159459795Y-95316499D01*
X159422420Y-95281502D01*
X159392648Y-95239158D01*
X159375753Y-95203085D01*
X159363860Y-95163707D01*
X159357280Y-95121378D01*
X159356000Y-95091695D01*
X159358864Y-95047517D01*
X159367249Y-95006013D01*
X159380844Y-94967547D01*
X159399338Y-94932485D01*
X159431080Y-94891660D01*
X159470240Y-94858401D01*
X159516082Y-94833573D01*
X159554405Y-94821005D01*
X159595761Y-94814032D01*
X159624862Y-94812672D01*
X160156334Y-94812672D01*
G37*
G36*
X158812334Y-103815854D02*
G01*
X158809305Y-103860882D01*
X158800464Y-103902487D01*
X158786183Y-103940583D01*
X158766832Y-103975085D01*
X158742782Y-104005909D01*
X158733786Y-104015352D01*
X158698585Y-104045608D01*
X158661600Y-104067044D01*
X158620247Y-104081170D01*
X158571941Y-104089498D01*
X158526552Y-104093002D01*
X158473735Y-104094537D01*
X158428452Y-104094862D01*
X158412167Y-104094877D01*
X158365069Y-104094704D01*
X158323089Y-104093968D01*
X158274110Y-104091545D01*
X158231910Y-104086766D01*
X158186674Y-104076300D01*
X158147368Y-104059431D01*
X158111404Y-104034649D01*
X158090353Y-104015352D01*
X158061022Y-103980480D01*
X158040909Y-103946585D01*
X158025812Y-103909082D01*
X158016085Y-103868056D01*
X158012085Y-103823593D01*
X158012000Y-103815854D01*
X158014306Y-103776604D01*
X158024392Y-103727718D01*
X158042196Y-103683195D01*
X158067400Y-103643498D01*
X158099680Y-103609089D01*
X158138718Y-103580430D01*
X158184193Y-103557985D01*
X158222330Y-103545507D01*
X158249599Y-103539371D01*
X158249599Y-103626712D01*
X158206068Y-103640072D01*
X158168397Y-103659947D01*
X158137206Y-103685985D01*
X158113119Y-103717832D01*
X158096756Y-103755136D01*
X158088739Y-103797542D01*
X158088008Y-103815854D01*
X158091577Y-103854939D01*
X158104016Y-103895437D01*
X158125198Y-103931907D01*
X158144086Y-103953802D01*
X158179869Y-103980847D01*
X158216506Y-103995637D01*
X158262547Y-104004330D01*
X158310763Y-104008043D01*
X158357323Y-104009352D01*
X158397619Y-104009668D01*
X158412167Y-104009685D01*
X158454069Y-104009508D01*
X158502545Y-104008487D01*
X158543572Y-104006142D01*
X158586043Y-104000648D01*
X158626902Y-103989102D01*
X158665293Y-103966828D01*
X158680053Y-103953802D01*
X158706962Y-103920221D01*
X158725250Y-103882367D01*
X158734733Y-103840607D01*
X158736131Y-103815854D01*
X158731627Y-103771505D01*
X158718533Y-103732118D01*
X158697475Y-103698046D01*
X158669078Y-103669642D01*
X158633970Y-103647259D01*
X158592776Y-103631251D01*
X158574735Y-103626712D01*
X158574735Y-103539371D01*
X158615045Y-103549209D01*
X158652023Y-103562888D01*
X158695905Y-103586794D01*
X158733289Y-103616791D01*
X158763848Y-103652457D01*
X158787255Y-103693372D01*
X158803183Y-103739113D01*
X158811304Y-103789260D01*
X158812334Y-103815854D01*
G37*
G36*
X158812334Y-102856663D02*
G01*
X158812334Y-103351793D01*
X158012000Y-103351793D01*
X158012000Y-102856663D01*
X158088008Y-102856663D01*
X158088008Y-103266601D01*
X158374651Y-103266601D01*
X158374651Y-102917236D01*
X158450660Y-102917236D01*
X158450660Y-103266601D01*
X158736131Y-103266601D01*
X158736131Y-102856663D01*
X158812334Y-102856663D01*
G37*
G36*
X158369962Y-102311904D02*
G01*
X158383960Y-102266157D01*
X158405787Y-102226033D01*
X158435143Y-102192404D01*
X158471729Y-102166143D01*
X158515245Y-102148121D01*
X158554847Y-102140223D01*
X158587240Y-102138394D01*
X158637360Y-102142847D01*
X158681845Y-102155769D01*
X158720371Y-102176509D01*
X158752617Y-102204413D01*
X158778259Y-102238829D01*
X158796975Y-102279105D01*
X158808441Y-102324588D01*
X158812334Y-102374626D01*
X158812334Y-102680418D01*
X158012000Y-102680418D01*
X158012000Y-102595226D01*
X158362146Y-102595226D01*
X158362146Y-102403740D01*
X158321063Y-102382442D01*
X158437177Y-102382442D01*
X158437177Y-102595226D01*
X158736131Y-102595226D01*
X158736131Y-102382442D01*
X158732443Y-102340968D01*
X158718308Y-102297673D01*
X158693624Y-102262900D01*
X158658438Y-102238194D01*
X158621127Y-102226410D01*
X158586068Y-102223391D01*
X158543044Y-102228079D01*
X158501126Y-102245215D01*
X158469756Y-102273449D01*
X158448888Y-102311234D01*
X158438477Y-102357026D01*
X158437177Y-102382442D01*
X158321063Y-102382442D01*
X158012000Y-102222218D01*
X158012000Y-102122567D01*
X158369962Y-102311904D01*
G37*
G36*
X158812334Y-101356622D02*
G01*
X158812334Y-101441618D01*
X158172614Y-101441618D01*
X158812334Y-101865037D01*
X158812334Y-101945735D01*
X158012000Y-101945735D01*
X158012000Y-101860543D01*
X158653674Y-101860543D01*
X158012000Y-101437319D01*
X158012000Y-101356622D01*
X158812334Y-101356622D01*
G37*
G36*
X158349641Y-100849183D02*
G01*
X158349641Y-101156147D01*
X158274609Y-101156147D01*
X158274609Y-100849183D01*
X158349641Y-100849183D01*
G37*
G36*
X158459685Y-100121736D02*
G01*
X158502094Y-100122552D01*
X158551390Y-100125138D01*
X158593662Y-100130122D01*
X158638715Y-100140861D01*
X158677622Y-100157969D01*
X158713066Y-100182906D01*
X158733786Y-100202232D01*
X158763140Y-100236958D01*
X158783300Y-100270563D01*
X158798452Y-100307712D01*
X158808225Y-100348406D01*
X158812249Y-100392644D01*
X158812334Y-100400362D01*
X158809305Y-100445390D01*
X158800464Y-100486995D01*
X158786183Y-100525091D01*
X158766832Y-100559593D01*
X158742782Y-100590417D01*
X158733786Y-100599860D01*
X158699132Y-100630116D01*
X158662625Y-100651552D01*
X158621582Y-100665678D01*
X158573318Y-100674006D01*
X158527706Y-100677510D01*
X158488511Y-100678804D01*
X158444398Y-100679316D01*
X158411972Y-100679385D01*
X158364304Y-100679212D01*
X158321923Y-100678476D01*
X158272645Y-100676053D01*
X158230379Y-100671274D01*
X158185326Y-100660808D01*
X158146431Y-100643939D01*
X158111027Y-100619157D01*
X158090353Y-100599860D01*
X158061022Y-100564988D01*
X158040909Y-100531093D01*
X158025812Y-100493590D01*
X158016085Y-100452564D01*
X158012085Y-100408101D01*
X158012000Y-100400362D01*
X158088008Y-100400362D01*
X158091507Y-100439447D01*
X158103714Y-100479945D01*
X158124528Y-100516415D01*
X158143109Y-100538310D01*
X158178390Y-100565355D01*
X158214728Y-100580145D01*
X158260748Y-100588838D01*
X158309264Y-100592551D01*
X158356333Y-100593860D01*
X158397196Y-100594176D01*
X158411972Y-100594193D01*
X158454599Y-100594016D01*
X158503753Y-100592995D01*
X158545172Y-100590650D01*
X158587802Y-100585156D01*
X158628480Y-100573610D01*
X158666346Y-100551336D01*
X158680834Y-100538310D01*
X158707422Y-100504729D01*
X158725441Y-100466875D01*
X158734761Y-100425115D01*
X158736131Y-100400362D01*
X158732629Y-100361390D01*
X158720395Y-100320954D01*
X158699505Y-100284503D01*
X158680834Y-100262609D01*
X158645653Y-100235565D01*
X158609356Y-100220774D01*
X158563337Y-100212081D01*
X158514789Y-100208369D01*
X158467675Y-100207060D01*
X158426765Y-100206743D01*
X158411972Y-100206726D01*
X158369394Y-100206903D01*
X158320290Y-100207925D01*
X158278903Y-100210269D01*
X158236288Y-100215763D01*
X158195589Y-100227310D01*
X158157647Y-100249583D01*
X158143109Y-100262609D01*
X158116644Y-100296186D01*
X158098681Y-100334009D01*
X158089377Y-100375687D01*
X158088008Y-100400362D01*
X158012000Y-100400362D01*
X158015011Y-100355533D01*
X158023808Y-100314248D01*
X158038035Y-100276508D01*
X158057337Y-100242312D01*
X158085796Y-100206898D01*
X158090353Y-100202232D01*
X158124940Y-100171899D01*
X158161421Y-100150268D01*
X158202459Y-100135883D01*
X158250721Y-100127284D01*
X158296323Y-100123592D01*
X158335498Y-100122192D01*
X158379577Y-100121616D01*
X158411972Y-100121534D01*
X158459685Y-100121736D01*
G37*
G36*
X158812334Y-99372588D02*
G01*
X158812334Y-99457780D01*
X158450660Y-99457780D01*
X158450660Y-99836259D01*
X158812334Y-99836259D01*
X158812334Y-99921451D01*
X158012000Y-99921451D01*
X158012000Y-99836259D01*
X158374651Y-99836259D01*
X158374651Y-99457780D01*
X158012000Y-99457780D01*
X158012000Y-99372588D01*
X158812334Y-99372588D01*
G37*
G36*
X158812334Y-99057026D02*
G01*
X158812334Y-99142218D01*
X158012000Y-99142218D01*
X158012000Y-98649434D01*
X158088008Y-98649434D01*
X158088008Y-99057026D01*
X158812334Y-99057026D01*
G37*
G36*
X158349641Y-98223865D02*
G01*
X158349641Y-98530830D01*
X158274609Y-98530830D01*
X158274609Y-98223865D01*
X158349641Y-98223865D01*
G37*
G36*
X158812334Y-97200585D02*
G01*
X158812334Y-97291248D01*
X158166947Y-97446977D01*
X158812334Y-97622832D01*
X158812334Y-97699036D01*
X158166947Y-97874891D01*
X158812334Y-98030425D01*
X158812334Y-98121283D01*
X158012000Y-97917292D01*
X158012000Y-97837766D01*
X158652697Y-97660934D01*
X158012000Y-97483907D01*
X158012000Y-97404382D01*
X158812334Y-97200585D01*
G37*
G36*
X158012000Y-96691192D02*
G01*
X158012000Y-96619483D01*
X158562230Y-96416663D01*
X158562230Y-96504005D01*
X158120443Y-96654067D01*
X158562230Y-96805303D01*
X158562230Y-96892644D01*
X158012000Y-96691192D01*
G37*
G36*
X158012000Y-96328736D02*
G01*
X158012000Y-95888513D01*
X158083514Y-95888513D01*
X158083514Y-96231234D01*
X158437568Y-95952407D01*
X158472422Y-95927041D01*
X158510131Y-95906080D01*
X158548875Y-95893367D01*
X158592098Y-95888572D01*
X158597987Y-95888513D01*
X158644616Y-95892572D01*
X158686461Y-95904389D01*
X158723081Y-95923423D01*
X158754034Y-95949134D01*
X158778877Y-95980982D01*
X158797170Y-96018425D01*
X158808470Y-96060925D01*
X158812334Y-96107940D01*
X158808187Y-96155693D01*
X158796190Y-96198558D01*
X158777012Y-96236078D01*
X158751323Y-96267797D01*
X158719789Y-96293262D01*
X158683081Y-96312015D01*
X158641867Y-96323600D01*
X158596815Y-96327564D01*
X158596815Y-96246866D01*
X158640483Y-96242327D01*
X158681670Y-96226132D01*
X158711375Y-96200290D01*
X158732580Y-96160889D01*
X158740137Y-96121704D01*
X158740625Y-96107940D01*
X158734812Y-96062705D01*
X158718111Y-96025663D01*
X158686338Y-95993619D01*
X158649835Y-95976426D01*
X158605943Y-95969361D01*
X158597987Y-95969211D01*
X158555839Y-95974392D01*
X158516735Y-95990158D01*
X158481141Y-96013956D01*
X158083514Y-96328736D01*
X158012000Y-96328736D01*
G37*
G36*
X157025962Y-101044186D02*
G01*
X157039960Y-100998439D01*
X157061787Y-100958315D01*
X157091143Y-100924686D01*
X157127729Y-100898425D01*
X157171245Y-100880403D01*
X157210847Y-100872505D01*
X157243240Y-100870676D01*
X157293360Y-100875129D01*
X157337845Y-100888051D01*
X157376371Y-100908791D01*
X157408617Y-100936695D01*
X157434259Y-100971111D01*
X157452975Y-101011388D01*
X157464441Y-101056870D01*
X157468334Y-101106908D01*
X157468334Y-101412700D01*
X156668000Y-101412700D01*
X156668000Y-101327508D01*
X157018146Y-101327508D01*
X157018146Y-101136022D01*
X156977063Y-101114724D01*
X157093177Y-101114724D01*
X157093177Y-101327508D01*
X157392131Y-101327508D01*
X157392131Y-101114724D01*
X157388443Y-101073250D01*
X157374308Y-101029955D01*
X157349624Y-100995182D01*
X157314438Y-100970476D01*
X157277127Y-100958692D01*
X157242068Y-100955673D01*
X157199044Y-100960361D01*
X157157126Y-100977497D01*
X157125756Y-101005731D01*
X157104888Y-101043517D01*
X157094477Y-101089308D01*
X157093177Y-101114724D01*
X156977063Y-101114724D01*
X156668000Y-100954500D01*
X156668000Y-100854849D01*
X157025962Y-101044186D01*
G37*
G36*
X157000645Y-100306008D02*
G01*
X157040771Y-100312445D01*
X157088726Y-100327469D01*
X157129899Y-100349608D01*
X157163804Y-100378594D01*
X157189956Y-100414160D01*
X157207869Y-100456038D01*
X157217058Y-100503960D01*
X157218230Y-100530104D01*
X157213509Y-100580050D01*
X157199588Y-100624562D01*
X157176828Y-100663262D01*
X157145592Y-100695774D01*
X157106241Y-100721718D01*
X157059136Y-100740718D01*
X157018937Y-100750182D01*
X156974734Y-100755369D01*
X156943115Y-100756370D01*
X156892805Y-100753926D01*
X156847780Y-100746730D01*
X156807967Y-100734985D01*
X156762862Y-100712601D01*
X156726716Y-100682977D01*
X156699357Y-100646595D01*
X156680609Y-100603939D01*
X156670299Y-100555491D01*
X156668000Y-100515645D01*
X156670121Y-100474842D01*
X156678209Y-100432283D01*
X156692239Y-100395067D01*
X156715975Y-100356084D01*
X156742510Y-100324482D01*
X156752605Y-100313998D01*
X156799109Y-100368904D01*
X156771839Y-100400973D01*
X156751208Y-100437908D01*
X156740510Y-100480071D01*
X156738537Y-100513300D01*
X156743380Y-100559503D01*
X156757647Y-100598192D01*
X156786653Y-100634518D01*
X156820267Y-100656219D01*
X156862045Y-100669991D01*
X156901082Y-100675212D01*
X156922403Y-100675868D01*
X156981021Y-100675868D01*
X157020647Y-100673024D01*
X157059611Y-100663505D01*
X157069730Y-100659064D01*
X157102773Y-100637293D01*
X157130574Y-100603842D01*
X157145475Y-100567058D01*
X157149842Y-100530104D01*
X157144166Y-100488332D01*
X157128031Y-100452386D01*
X157099041Y-100419958D01*
X157069730Y-100401339D01*
X157031018Y-100388614D01*
X156988824Y-100383996D01*
X156981021Y-100383363D01*
X156981021Y-100675868D01*
X156922403Y-100675868D01*
X156922403Y-100303837D01*
X156957183Y-100303837D01*
X157000645Y-100306008D01*
G37*
G36*
X156668000Y-100030872D02*
G01*
X156668000Y-99959162D01*
X157218230Y-99756343D01*
X157218230Y-99843684D01*
X156776443Y-99993747D01*
X157218230Y-100144982D01*
X157218230Y-100232323D01*
X156668000Y-100030872D01*
G37*
G36*
X156773122Y-99596901D02*
G01*
X156773122Y-99702218D01*
X156668000Y-99702218D01*
X156668000Y-99596901D01*
X156773122Y-99596901D01*
G37*
G36*
X156934540Y-98560829D02*
G01*
X156973161Y-98571801D01*
X157013163Y-98593405D01*
X157045912Y-98623046D01*
X157071051Y-98659488D01*
X157083408Y-98686950D01*
X157101411Y-98651135D01*
X157127117Y-98620194D01*
X157159614Y-98595455D01*
X157197988Y-98578249D01*
X157241329Y-98569905D01*
X157256722Y-98569322D01*
X157303738Y-98573733D01*
X157345511Y-98586545D01*
X157381724Y-98607128D01*
X157412061Y-98634853D01*
X157436207Y-98669090D01*
X157453845Y-98709209D01*
X157464659Y-98754582D01*
X157468334Y-98804577D01*
X157468334Y-99104703D01*
X156668000Y-99104703D01*
X156668000Y-98802232D01*
X156744008Y-98802232D01*
X156744008Y-99019511D01*
X157041984Y-99019511D01*
X157041984Y-98811220D01*
X157118188Y-98811220D01*
X157118188Y-99019511D01*
X157392131Y-99019511D01*
X157392131Y-98811220D01*
X157389001Y-98771401D01*
X157376765Y-98729089D01*
X157354902Y-98694535D01*
X157323021Y-98669632D01*
X157280726Y-98656273D01*
X157255550Y-98654514D01*
X157215109Y-98659326D01*
X157176188Y-98676744D01*
X157147458Y-98705074D01*
X157128609Y-98742424D01*
X157119333Y-98786901D01*
X157118188Y-98811220D01*
X157041984Y-98811220D01*
X157041984Y-98802232D01*
X157037892Y-98758869D01*
X157025960Y-98721479D01*
X157002026Y-98685289D01*
X156968447Y-98659485D01*
X156926120Y-98645041D01*
X156893484Y-98642204D01*
X156853226Y-98646618D01*
X156812114Y-98663023D01*
X156779794Y-98690626D01*
X156757265Y-98728452D01*
X156746688Y-98767082D01*
X156744008Y-98802232D01*
X156668000Y-98802232D01*
X156668000Y-98794417D01*
X156671553Y-98743712D01*
X156682178Y-98697806D01*
X156699818Y-98657305D01*
X156724420Y-98622812D01*
X156755927Y-98594931D01*
X156794285Y-98574268D01*
X156839440Y-98561427D01*
X156891335Y-98557013D01*
X156934540Y-98560829D01*
G37*
G36*
X155324000Y-101629392D02*
G01*
X155324000Y-101549867D01*
X155451201Y-101549867D01*
X155451201Y-101452365D01*
X155524083Y-101452365D01*
X155524083Y-101549867D01*
X155749177Y-101549867D01*
X155749177Y-101629392D01*
X155524083Y-101629392D01*
X155524083Y-101861325D01*
X156124334Y-101573510D01*
X156124334Y-101659678D01*
X155524083Y-101947494D01*
X155451201Y-101947494D01*
X155451201Y-101629392D01*
X155324000Y-101629392D01*
G37*
G36*
X155324000Y-101118827D02*
G01*
X155324000Y-101038129D01*
X156124334Y-101038129D01*
X156124334Y-101118827D01*
X155994983Y-101267718D01*
X155902757Y-101267718D01*
X156034258Y-101118827D01*
X155324000Y-101118827D01*
G37*
G36*
X155661641Y-100431039D02*
G01*
X155661641Y-100738004D01*
X155586609Y-100738004D01*
X155586609Y-100431039D01*
X155661641Y-100431039D01*
G37*
G36*
X155324000Y-100270230D02*
G01*
X155324000Y-99830006D01*
X155395514Y-99830006D01*
X155395514Y-100172728D01*
X155749568Y-99893900D01*
X155784422Y-99868535D01*
X155822131Y-99847574D01*
X155860875Y-99834861D01*
X155904098Y-99830065D01*
X155909987Y-99830006D01*
X155956616Y-99834065D01*
X155998461Y-99845882D01*
X156035081Y-99864916D01*
X156066034Y-99890627D01*
X156090877Y-99922475D01*
X156109170Y-99959919D01*
X156120470Y-100002419D01*
X156124334Y-100049434D01*
X156120187Y-100097187D01*
X156108190Y-100140051D01*
X156089012Y-100177571D01*
X156063323Y-100209291D01*
X156031789Y-100234755D01*
X155995081Y-100253508D01*
X155953867Y-100265094D01*
X155908815Y-100269057D01*
X155908815Y-100188360D01*
X155952483Y-100183821D01*
X155993670Y-100167625D01*
X156023375Y-100141784D01*
X156044580Y-100102383D01*
X156052137Y-100063198D01*
X156052625Y-100049434D01*
X156046812Y-100004198D01*
X156030111Y-99967157D01*
X155998338Y-99935113D01*
X155961835Y-99917920D01*
X155917943Y-99910854D01*
X155909987Y-99910704D01*
X155867839Y-99915885D01*
X155828735Y-99931651D01*
X155793141Y-99955450D01*
X155395514Y-100270230D01*
X155324000Y-100270230D01*
G37*
G36*
X155953754Y-99255334D02*
G01*
X155995905Y-99267680D01*
X156032991Y-99287344D01*
X156064495Y-99313579D01*
X156089899Y-99345640D01*
X156108685Y-99382779D01*
X156120336Y-99424251D01*
X156124334Y-99469309D01*
X156120336Y-99514711D01*
X156108685Y-99556363D01*
X156089899Y-99593554D01*
X156064495Y-99625575D01*
X156032991Y-99651716D01*
X155995905Y-99671267D01*
X155953754Y-99683518D01*
X155907056Y-99687759D01*
X155541083Y-99687759D01*
X155494392Y-99683518D01*
X155452264Y-99671267D01*
X155415209Y-99651716D01*
X155383741Y-99625575D01*
X155358374Y-99593554D01*
X155339619Y-99556363D01*
X155327990Y-99514711D01*
X155324000Y-99469309D01*
X155395514Y-99469309D01*
X155401995Y-99514890D01*
X155420326Y-99551792D01*
X155448837Y-99579622D01*
X155485859Y-99597985D01*
X155529723Y-99606487D01*
X155545577Y-99607062D01*
X155902757Y-99607062D01*
X155948513Y-99601934D01*
X155987958Y-99586814D01*
X156019437Y-99562096D01*
X156041298Y-99528174D01*
X156051886Y-99485442D01*
X156052625Y-99469309D01*
X156046162Y-99423728D01*
X156027875Y-99386825D01*
X155999418Y-99358995D01*
X155962444Y-99340632D01*
X155918608Y-99332130D01*
X155902757Y-99331556D01*
X155545577Y-99331556D01*
X155499803Y-99336683D01*
X155460314Y-99351803D01*
X155428781Y-99376521D01*
X155406871Y-99410443D01*
X155396255Y-99453175D01*
X155395514Y-99469309D01*
X155324000Y-99469309D01*
X155327990Y-99424251D01*
X155339619Y-99382779D01*
X155358374Y-99345640D01*
X155383741Y-99313579D01*
X155415209Y-99287344D01*
X155452264Y-99267680D01*
X155494392Y-99255334D01*
X155541083Y-99251053D01*
X155907056Y-99251053D01*
X155953754Y-99255334D01*
G37*
G36*
X155324000Y-99100990D02*
G01*
X155324000Y-98660767D01*
X155395514Y-98660767D01*
X155395514Y-99003489D01*
X155749568Y-98724661D01*
X155784422Y-98699295D01*
X155822131Y-98678334D01*
X155860875Y-98665621D01*
X155904098Y-98660826D01*
X155909987Y-98660767D01*
X155956616Y-98664826D01*
X155998461Y-98676643D01*
X156035081Y-98695677D01*
X156066034Y-98721388D01*
X156090877Y-98753236D01*
X156109170Y-98790680D01*
X156120470Y-98833180D01*
X156124334Y-98880195D01*
X156120187Y-98927948D01*
X156108190Y-98970812D01*
X156089012Y-99008332D01*
X156063323Y-99040052D01*
X156031789Y-99065516D01*
X155995081Y-99084269D01*
X155953867Y-99095855D01*
X155908815Y-99099818D01*
X155908815Y-99019120D01*
X155952483Y-99014581D01*
X155993670Y-98998386D01*
X156023375Y-98972545D01*
X156044580Y-98933144D01*
X156052137Y-98893959D01*
X156052625Y-98880195D01*
X156046812Y-98834959D01*
X156030111Y-98797917D01*
X155998338Y-98765873D01*
X155961835Y-98748680D01*
X155917943Y-98741615D01*
X155909987Y-98741465D01*
X155867839Y-98746646D01*
X155828735Y-98762412D01*
X155793141Y-98786210D01*
X155395514Y-99100990D01*
X155324000Y-99100990D01*
G37*
G36*
X155324000Y-98229532D02*
G01*
X155324000Y-98150006D01*
X155451201Y-98150006D01*
X155451201Y-98052505D01*
X155524083Y-98052505D01*
X155524083Y-98150006D01*
X155749177Y-98150006D01*
X155749177Y-98229532D01*
X155524083Y-98229532D01*
X155524083Y-98461465D01*
X156124334Y-98173649D01*
X156124334Y-98259818D01*
X155524083Y-98547634D01*
X155451201Y-98547634D01*
X155451201Y-98229532D01*
X155324000Y-98229532D01*
G37*
D11*
X187222141Y-95681849D02*
X187222141Y-96324706D01*
X187222141Y-96324706D02*
X187264998Y-96453277D01*
X187264998Y-96453277D02*
X187350712Y-96538992D01*
X187350712Y-96538992D02*
X187479284Y-96581849D01*
X187479284Y-96581849D02*
X187564998Y-96581849D01*
X186364998Y-96581849D02*
X186793570Y-96581849D01*
X186793570Y-96581849D02*
X186793570Y-95681849D01*
X185550713Y-96496134D02*
X185593570Y-96538992D01*
X185593570Y-96538992D02*
X185722142Y-96581849D01*
X185722142Y-96581849D02*
X185807856Y-96581849D01*
X185807856Y-96581849D02*
X185936427Y-96538992D01*
X185936427Y-96538992D02*
X186022142Y-96453277D01*
X186022142Y-96453277D02*
X186064999Y-96367563D01*
X186064999Y-96367563D02*
X186107856Y-96196134D01*
X186107856Y-96196134D02*
X186107856Y-96067563D01*
X186107856Y-96067563D02*
X186064999Y-95896134D01*
X186064999Y-95896134D02*
X186022142Y-95810420D01*
X186022142Y-95810420D02*
X185936427Y-95724706D01*
X185936427Y-95724706D02*
X185807856Y-95681849D01*
X185807856Y-95681849D02*
X185722142Y-95681849D01*
X185722142Y-95681849D02*
X185593570Y-95724706D01*
X185593570Y-95724706D02*
X185550713Y-95767563D01*
X184907856Y-95681849D02*
X184907856Y-96324706D01*
X184907856Y-96324706D02*
X184950713Y-96453277D01*
X184950713Y-96453277D02*
X185036427Y-96538992D01*
X185036427Y-96538992D02*
X185164999Y-96581849D01*
X185164999Y-96581849D02*
X185250713Y-96581849D01*
X184050713Y-96581849D02*
X184479285Y-96581849D01*
X184479285Y-96581849D02*
X184479285Y-95681849D01*
X183236428Y-96496134D02*
X183279285Y-96538992D01*
X183279285Y-96538992D02*
X183407857Y-96581849D01*
X183407857Y-96581849D02*
X183493571Y-96581849D01*
X183493571Y-96581849D02*
X183622142Y-96538992D01*
X183622142Y-96538992D02*
X183707857Y-96453277D01*
X183707857Y-96453277D02*
X183750714Y-96367563D01*
X183750714Y-96367563D02*
X183793571Y-96196134D01*
X183793571Y-96196134D02*
X183793571Y-96067563D01*
X183793571Y-96067563D02*
X183750714Y-95896134D01*
X183750714Y-95896134D02*
X183707857Y-95810420D01*
X183707857Y-95810420D02*
X183622142Y-95724706D01*
X183622142Y-95724706D02*
X183493571Y-95681849D01*
X183493571Y-95681849D02*
X183407857Y-95681849D01*
X183407857Y-95681849D02*
X183279285Y-95724706D01*
X183279285Y-95724706D02*
X183236428Y-95767563D01*
X182593571Y-95681849D02*
X182593571Y-96324706D01*
X182593571Y-96324706D02*
X182636428Y-96453277D01*
X182636428Y-96453277D02*
X182722142Y-96538992D01*
X182722142Y-96538992D02*
X182850714Y-96581849D01*
X182850714Y-96581849D02*
X182936428Y-96581849D01*
X181736428Y-96581849D02*
X182165000Y-96581849D01*
X182165000Y-96581849D02*
X182165000Y-95681849D01*
X180922143Y-96496134D02*
X180965000Y-96538992D01*
X180965000Y-96538992D02*
X181093572Y-96581849D01*
X181093572Y-96581849D02*
X181179286Y-96581849D01*
X181179286Y-96581849D02*
X181307857Y-96538992D01*
X181307857Y-96538992D02*
X181393572Y-96453277D01*
X181393572Y-96453277D02*
X181436429Y-96367563D01*
X181436429Y-96367563D02*
X181479286Y-96196134D01*
X181479286Y-96196134D02*
X181479286Y-96067563D01*
X181479286Y-96067563D02*
X181436429Y-95896134D01*
X181436429Y-95896134D02*
X181393572Y-95810420D01*
X181393572Y-95810420D02*
X181307857Y-95724706D01*
X181307857Y-95724706D02*
X181179286Y-95681849D01*
X181179286Y-95681849D02*
X181093572Y-95681849D01*
X181093572Y-95681849D02*
X180965000Y-95724706D01*
X180965000Y-95724706D02*
X180922143Y-95767563D01*
X180279286Y-95681849D02*
X180279286Y-96324706D01*
X180279286Y-96324706D02*
X180322143Y-96453277D01*
X180322143Y-96453277D02*
X180407857Y-96538992D01*
X180407857Y-96538992D02*
X180536429Y-96581849D01*
X180536429Y-96581849D02*
X180622143Y-96581849D01*
X179422143Y-96581849D02*
X179850715Y-96581849D01*
X179850715Y-96581849D02*
X179850715Y-95681849D01*
X178607858Y-96496134D02*
X178650715Y-96538992D01*
X178650715Y-96538992D02*
X178779287Y-96581849D01*
X178779287Y-96581849D02*
X178865001Y-96581849D01*
X178865001Y-96581849D02*
X178993572Y-96538992D01*
X178993572Y-96538992D02*
X179079287Y-96453277D01*
X179079287Y-96453277D02*
X179122144Y-96367563D01*
X179122144Y-96367563D02*
X179165001Y-96196134D01*
X179165001Y-96196134D02*
X179165001Y-96067563D01*
X179165001Y-96067563D02*
X179122144Y-95896134D01*
X179122144Y-95896134D02*
X179079287Y-95810420D01*
X179079287Y-95810420D02*
X178993572Y-95724706D01*
X178993572Y-95724706D02*
X178865001Y-95681849D01*
X178865001Y-95681849D02*
X178779287Y-95681849D01*
X178779287Y-95681849D02*
X178650715Y-95724706D01*
X178650715Y-95724706D02*
X178607858Y-95767563D01*
D12*
%TO.C,G\u002A\u002A\u002A*%
G36*
X165153057Y-97249420D02*
G01*
X165307364Y-97262389D01*
X165380257Y-97271501D01*
X165533540Y-97296984D01*
X165683967Y-97330696D01*
X165831458Y-97372600D01*
X165975934Y-97422665D01*
X166117314Y-97480854D01*
X166255518Y-97547134D01*
X166390466Y-97621470D01*
X166522079Y-97703828D01*
X166650277Y-97794174D01*
X166774980Y-97892473D01*
X166794209Y-97908887D01*
X166826661Y-97937939D01*
X166862668Y-97971475D01*
X166900961Y-98008225D01*
X166940268Y-98046916D01*
X166979318Y-98086279D01*
X167016840Y-98125042D01*
X167051562Y-98161934D01*
X167082215Y-98195684D01*
X167107527Y-98225020D01*
X167154645Y-98283100D01*
X167249216Y-98409453D01*
X167335818Y-98539263D01*
X167414416Y-98672452D01*
X167484975Y-98808938D01*
X167547463Y-98948642D01*
X167601843Y-99091485D01*
X167648083Y-99237385D01*
X167686147Y-99386264D01*
X167716001Y-99538041D01*
X167737611Y-99692636D01*
X167739481Y-99709800D01*
X167751547Y-99864600D01*
X167754990Y-100018826D01*
X167749898Y-100172181D01*
X167736355Y-100324372D01*
X167714445Y-100475100D01*
X167684255Y-100624071D01*
X167645870Y-100770988D01*
X167599374Y-100915555D01*
X167544854Y-101057477D01*
X167482393Y-101196457D01*
X167412078Y-101332199D01*
X167333994Y-101464408D01*
X167248225Y-101592787D01*
X167154858Y-101717040D01*
X167114518Y-101766519D01*
X167013817Y-101880413D01*
X166906802Y-101988683D01*
X166793920Y-102090996D01*
X166675615Y-102187021D01*
X166552335Y-102276426D01*
X166424526Y-102358881D01*
X166292633Y-102434054D01*
X166157102Y-102501614D01*
X166018381Y-102561229D01*
X165934742Y-102592808D01*
X165789188Y-102640568D01*
X165641982Y-102679995D01*
X165493480Y-102711125D01*
X165344034Y-102733994D01*
X165193998Y-102748641D01*
X165043725Y-102755101D01*
X165000000Y-102754609D01*
X164893570Y-102753412D01*
X164743886Y-102743609D01*
X164595026Y-102725731D01*
X164447345Y-102699814D01*
X164301195Y-102665895D01*
X164156930Y-102624010D01*
X164014904Y-102574197D01*
X163875471Y-102516492D01*
X163738983Y-102450932D01*
X163605796Y-102377554D01*
X163476262Y-102296395D01*
X163384958Y-102232904D01*
X163262528Y-102138874D01*
X163146200Y-102038874D01*
X163036137Y-101933185D01*
X162932502Y-101822090D01*
X162835457Y-101705871D01*
X162745166Y-101584811D01*
X162661791Y-101459191D01*
X162585495Y-101329295D01*
X162516441Y-101195404D01*
X162454792Y-101057800D01*
X162400711Y-100916767D01*
X162354360Y-100772586D01*
X162315903Y-100625540D01*
X162285502Y-100475910D01*
X162263320Y-100323980D01*
X162249520Y-100170031D01*
X162249400Y-100168027D01*
X162248252Y-100144289D01*
X162247196Y-100114552D01*
X162246300Y-100081281D01*
X162245877Y-100059560D01*
X162468793Y-100059560D01*
X162469230Y-100099395D01*
X162470149Y-100133869D01*
X162471578Y-100161311D01*
X162471869Y-100165290D01*
X162486588Y-100313338D01*
X162508682Y-100457109D01*
X162538321Y-100597224D01*
X162575673Y-100734303D01*
X162620906Y-100868968D01*
X162674190Y-101001840D01*
X162735693Y-101133539D01*
X162795482Y-101246392D01*
X162865501Y-101363524D01*
X162941251Y-101475432D01*
X163023456Y-101583120D01*
X163112845Y-101687593D01*
X163210142Y-101789858D01*
X163212416Y-101792129D01*
X163313461Y-101888138D01*
X163416495Y-101976292D01*
X163522633Y-102057394D01*
X163632990Y-102132248D01*
X163748681Y-102201659D01*
X163870820Y-102266430D01*
X163942498Y-102300875D01*
X164073496Y-102357093D01*
X164206257Y-102405359D01*
X164341481Y-102445874D01*
X164479869Y-102478837D01*
X164622119Y-102504448D01*
X164768932Y-102522907D01*
X164776073Y-102523601D01*
X164803999Y-102525909D01*
X164833881Y-102527697D01*
X164867070Y-102529010D01*
X164904918Y-102529893D01*
X164948778Y-102530389D01*
X165000000Y-102530545D01*
X165056909Y-102530297D01*
X165109063Y-102529435D01*
X165156123Y-102527830D01*
X165199924Y-102525357D01*
X165242306Y-102521886D01*
X165285104Y-102517290D01*
X165330156Y-102511443D01*
X165379300Y-102504216D01*
X165448735Y-102492599D01*
X165594816Y-102461809D01*
X165737864Y-102422907D01*
X165877705Y-102375961D01*
X166014166Y-102321037D01*
X166147073Y-102258203D01*
X166276253Y-102187526D01*
X166401532Y-102109072D01*
X166465814Y-102064730D01*
X166584164Y-101975184D01*
X166696461Y-101879564D01*
X166802527Y-101778155D01*
X166902182Y-101671240D01*
X166995245Y-101559105D01*
X167081538Y-101442034D01*
X167160880Y-101320310D01*
X167233091Y-101194219D01*
X167297992Y-101064043D01*
X167355403Y-100930069D01*
X167405144Y-100792579D01*
X167447036Y-100651858D01*
X167480898Y-100508190D01*
X167506551Y-100361861D01*
X167509671Y-100340007D01*
X167515942Y-100292223D01*
X167520897Y-100247422D01*
X167524662Y-100203656D01*
X167527368Y-100158979D01*
X167529141Y-100111442D01*
X167530111Y-100059099D01*
X167530406Y-100000000D01*
X167529743Y-99930045D01*
X167526398Y-99836204D01*
X167520001Y-99747025D01*
X167510301Y-99660360D01*
X167497043Y-99574064D01*
X167479974Y-99485990D01*
X167458841Y-99393992D01*
X167455256Y-99379580D01*
X167415270Y-99238345D01*
X167367457Y-99100596D01*
X167312074Y-98966590D01*
X167249378Y-98836585D01*
X167179626Y-98710836D01*
X167103073Y-98589601D01*
X167019978Y-98473136D01*
X166930598Y-98361699D01*
X166835188Y-98255546D01*
X166734006Y-98154934D01*
X166627309Y-98060120D01*
X166515354Y-97971361D01*
X166398397Y-97888913D01*
X166276695Y-97813035D01*
X166150506Y-97743981D01*
X166020085Y-97682010D01*
X165885691Y-97627378D01*
X165747580Y-97580342D01*
X165606008Y-97541159D01*
X165540793Y-97525859D01*
X165451779Y-97507611D01*
X165365179Y-97493249D01*
X165278848Y-97482520D01*
X165190639Y-97475170D01*
X165098405Y-97470946D01*
X165000000Y-97469594D01*
X164973744Y-97469646D01*
X164917776Y-97470214D01*
X164867729Y-97471512D01*
X164821655Y-97473669D01*
X164777607Y-97476813D01*
X164733637Y-97481072D01*
X164687797Y-97486574D01*
X164638139Y-97493449D01*
X164510148Y-97515384D01*
X164365447Y-97548342D01*
X164223561Y-97589471D01*
X164084751Y-97638648D01*
X163949281Y-97695753D01*
X163817414Y-97760665D01*
X163689412Y-97833261D01*
X163565540Y-97913422D01*
X163446060Y-98001026D01*
X163331235Y-98095951D01*
X163328255Y-98098568D01*
X163219236Y-98200155D01*
X163116992Y-98307128D01*
X163021657Y-98419226D01*
X162933364Y-98536186D01*
X162852248Y-98657749D01*
X162778442Y-98783652D01*
X162712079Y-98913635D01*
X162653294Y-99047436D01*
X162602219Y-99184794D01*
X162558988Y-99325448D01*
X162523735Y-99469136D01*
X162496594Y-99615598D01*
X162477698Y-99764573D01*
X162477105Y-99770958D01*
X162474880Y-99801535D01*
X162472958Y-99838448D01*
X162471365Y-99880026D01*
X162470126Y-99924596D01*
X162469267Y-99970490D01*
X162468814Y-100016035D01*
X162468793Y-100059560D01*
X162245877Y-100059560D01*
X162245632Y-100046942D01*
X162245258Y-100014001D01*
X162246372Y-99914716D01*
X162255138Y-99760486D01*
X162272392Y-99607856D01*
X162298042Y-99457080D01*
X162331995Y-99308414D01*
X162374161Y-99162113D01*
X162424445Y-99018432D01*
X162482758Y-98877625D01*
X162549005Y-98739948D01*
X162623096Y-98605656D01*
X162704938Y-98475003D01*
X162794438Y-98348244D01*
X162891506Y-98225634D01*
X162911007Y-98202882D01*
X162942619Y-98167551D01*
X162978214Y-98129184D01*
X163016283Y-98089336D01*
X163055313Y-98049560D01*
X163093794Y-98011411D01*
X163130216Y-97976445D01*
X163163066Y-97946216D01*
X163186217Y-97925734D01*
X163305183Y-97827364D01*
X163428720Y-97736295D01*
X163556511Y-97652626D01*
X163688244Y-97576458D01*
X163823602Y-97507892D01*
X163962271Y-97447027D01*
X164103937Y-97393965D01*
X164248284Y-97348805D01*
X164394999Y-97311648D01*
X164543765Y-97282594D01*
X164694269Y-97261744D01*
X164846195Y-97249198D01*
X164999230Y-97245057D01*
X165153057Y-97249420D01*
G37*
G36*
X166861903Y-98463446D02*
G01*
X166880789Y-98471571D01*
X166894761Y-98485848D01*
X166895172Y-98486496D01*
X166899068Y-98498099D01*
X166901731Y-98516726D01*
X166903176Y-98540901D01*
X166903418Y-98569152D01*
X166902472Y-98600003D01*
X166900352Y-98631982D01*
X166897074Y-98663613D01*
X166892653Y-98693423D01*
X166874669Y-98774750D01*
X166848706Y-98859052D01*
X166815367Y-98944200D01*
X166775069Y-99029132D01*
X166730459Y-99108804D01*
X166728228Y-99112788D01*
X166699235Y-99160745D01*
X166701733Y-99284998D01*
X166702202Y-99306993D01*
X166702895Y-99334277D01*
X166703724Y-99360237D01*
X166704750Y-99385783D01*
X166706035Y-99411824D01*
X166707641Y-99439270D01*
X166709629Y-99469031D01*
X166712061Y-99502015D01*
X166714998Y-99539133D01*
X166718502Y-99581295D01*
X166722636Y-99629409D01*
X166727459Y-99684385D01*
X166733035Y-99747134D01*
X166736044Y-99781038D01*
X166739784Y-99823642D01*
X166743451Y-99865872D01*
X166746903Y-99906068D01*
X166749996Y-99942566D01*
X166752589Y-99973704D01*
X166754538Y-99997820D01*
X166759888Y-100077784D01*
X166764023Y-100197904D01*
X166762962Y-100311411D01*
X166756712Y-100418244D01*
X166745281Y-100518342D01*
X166728677Y-100611643D01*
X166706906Y-100698086D01*
X166679978Y-100777611D01*
X166647899Y-100850155D01*
X166621605Y-100898422D01*
X166583137Y-100956496D01*
X166541167Y-101006589D01*
X166495688Y-101048708D01*
X166446691Y-101082859D01*
X166394166Y-101109050D01*
X166338106Y-101127288D01*
X166278502Y-101137578D01*
X166247609Y-101139622D01*
X166190421Y-101137335D01*
X166135345Y-101127298D01*
X166083130Y-101109855D01*
X166034523Y-101085345D01*
X165990271Y-101054111D01*
X165951123Y-101016494D01*
X165917825Y-100972836D01*
X165913501Y-100966038D01*
X165891355Y-100926240D01*
X165874599Y-100885682D01*
X165862711Y-100842534D01*
X165855167Y-100794969D01*
X165851443Y-100741160D01*
X165851869Y-100673788D01*
X165858817Y-100605169D01*
X165872602Y-100540611D01*
X165876814Y-100526030D01*
X165888473Y-100490245D01*
X165902861Y-100450628D01*
X165919235Y-100408920D01*
X165936853Y-100366863D01*
X165954973Y-100326200D01*
X165972852Y-100288673D01*
X165989749Y-100256025D01*
X166004921Y-100229998D01*
X166011982Y-100219312D01*
X166019866Y-100210471D01*
X166027163Y-100208815D01*
X166035942Y-100214169D01*
X166048275Y-100226360D01*
X166061106Y-100239841D01*
X166051236Y-100256163D01*
X166044946Y-100266991D01*
X166030343Y-100294536D01*
X166014520Y-100327007D01*
X165998496Y-100362134D01*
X165983287Y-100397651D01*
X165969912Y-100431292D01*
X165959388Y-100460787D01*
X165956438Y-100469878D01*
X165935336Y-100544002D01*
X165921180Y-100613137D01*
X165913967Y-100677531D01*
X165913694Y-100737432D01*
X165920359Y-100793090D01*
X165933958Y-100844752D01*
X165954489Y-100892666D01*
X165967488Y-100915652D01*
X165998736Y-100958798D01*
X166035177Y-100995104D01*
X166076422Y-101024319D01*
X166122082Y-101046193D01*
X166171769Y-101060477D01*
X166225094Y-101066919D01*
X166238438Y-101067269D01*
X166291246Y-101063629D01*
X166340980Y-101051982D01*
X166387442Y-101032521D01*
X166430438Y-101005440D01*
X166469769Y-100970931D01*
X166505239Y-100929189D01*
X166536652Y-100880406D01*
X166563811Y-100824776D01*
X166586520Y-100762493D01*
X166604581Y-100693748D01*
X166608273Y-100676127D01*
X166615451Y-100636556D01*
X166621206Y-100595881D01*
X166625526Y-100553481D01*
X166628396Y-100508732D01*
X166629803Y-100461013D01*
X166629732Y-100409701D01*
X166628169Y-100354172D01*
X166625100Y-100293806D01*
X166620511Y-100227979D01*
X166614389Y-100156068D01*
X166606719Y-100077452D01*
X166597488Y-99991507D01*
X166586680Y-99897611D01*
X166585721Y-99889498D01*
X166578173Y-99825340D01*
X166571612Y-99768891D01*
X166565950Y-99719308D01*
X166561102Y-99675747D01*
X166556980Y-99637365D01*
X166553499Y-99603319D01*
X166550571Y-99572765D01*
X166548111Y-99544859D01*
X166546031Y-99518759D01*
X166544246Y-99493621D01*
X166542668Y-99468601D01*
X166537252Y-99377633D01*
X166480296Y-99430500D01*
X166456891Y-99451961D01*
X166403993Y-99498189D01*
X166353409Y-99538798D01*
X166303432Y-99574985D01*
X166252355Y-99607944D01*
X166198473Y-99638871D01*
X166140079Y-99668964D01*
X166127529Y-99675087D01*
X166105540Y-99685563D01*
X166083787Y-99695525D01*
X166061494Y-99705265D01*
X166037885Y-99715073D01*
X166012185Y-99725241D01*
X165983618Y-99736059D01*
X165951409Y-99747819D01*
X165914783Y-99760811D01*
X165872963Y-99775328D01*
X165825176Y-99791660D01*
X165770644Y-99810097D01*
X165708593Y-99830932D01*
X165680923Y-99840219D01*
X165644503Y-99852500D01*
X165611252Y-99863781D01*
X165582021Y-99873767D01*
X165557661Y-99882167D01*
X165539023Y-99888688D01*
X165526956Y-99893040D01*
X165522311Y-99894928D01*
X165522094Y-99895368D01*
X165522274Y-99902036D01*
X165524128Y-99915169D01*
X165527392Y-99933115D01*
X165531803Y-99954222D01*
X165536119Y-99974065D01*
X165543161Y-100009005D01*
X165548158Y-100038967D01*
X165551343Y-100066229D01*
X165552949Y-100093071D01*
X165553211Y-100121769D01*
X165552362Y-100154603D01*
X165550949Y-100184432D01*
X165547334Y-100228513D01*
X165541736Y-100268652D01*
X165533713Y-100307769D01*
X165522820Y-100348781D01*
X165511266Y-100384279D01*
X165484707Y-100446468D01*
X165451593Y-100504658D01*
X165412542Y-100558048D01*
X165368171Y-100605838D01*
X165319100Y-100647228D01*
X165265946Y-100681417D01*
X165235045Y-100696169D01*
X165197729Y-100710108D01*
X165157572Y-100721915D01*
X165117543Y-100730606D01*
X165096867Y-100733485D01*
X165058058Y-100736124D01*
X165015983Y-100736223D01*
X164973576Y-100733893D01*
X164933767Y-100729244D01*
X164899490Y-100722387D01*
X164893052Y-100720635D01*
X164873719Y-100714638D01*
X164853152Y-100707407D01*
X164832936Y-100699600D01*
X164814659Y-100691876D01*
X164799906Y-100684895D01*
X164790265Y-100679316D01*
X164787322Y-100675797D01*
X164787427Y-100675570D01*
X164790714Y-100669988D01*
X164797335Y-100659425D01*
X164805990Y-100645956D01*
X164806644Y-100644952D01*
X164817026Y-100630356D01*
X164824559Y-100622931D01*
X164829969Y-100621951D01*
X164851371Y-100630426D01*
X164877067Y-100639283D01*
X164903857Y-100647520D01*
X164928703Y-100654203D01*
X164948567Y-100658397D01*
X164964439Y-100660365D01*
X164994115Y-100662103D01*
X165027661Y-100662323D01*
X165062570Y-100661128D01*
X165096335Y-100658622D01*
X165126451Y-100654907D01*
X165150412Y-100650086D01*
X165174327Y-100642993D01*
X165226694Y-100621835D01*
X165273819Y-100594591D01*
X165315185Y-100561712D01*
X165350274Y-100523647D01*
X165378569Y-100480845D01*
X165399552Y-100433755D01*
X165403877Y-100420887D01*
X165407428Y-100408102D01*
X165409712Y-100395388D01*
X165411000Y-100380548D01*
X165411564Y-100361385D01*
X165411674Y-100335702D01*
X165411665Y-100330911D01*
X165411461Y-100312116D01*
X165410855Y-100295128D01*
X165409666Y-100278466D01*
X165407709Y-100260649D01*
X165404803Y-100240198D01*
X165400766Y-100215632D01*
X165395414Y-100185470D01*
X165388566Y-100148232D01*
X165388257Y-100146567D01*
X165381989Y-100112610D01*
X165375949Y-100079601D01*
X165370414Y-100049065D01*
X165365657Y-100022527D01*
X165361954Y-100001509D01*
X165359580Y-99987538D01*
X165358535Y-99981288D01*
X165355605Y-99965432D01*
X165353062Y-99953888D01*
X165351363Y-99948811D01*
X165347910Y-99948968D01*
X165336823Y-99951632D01*
X165318890Y-99956782D01*
X165294861Y-99964161D01*
X165265486Y-99973516D01*
X165231515Y-99984591D01*
X165193698Y-99997130D01*
X165152784Y-100010879D01*
X165109524Y-100025583D01*
X165064666Y-100040987D01*
X165018962Y-100056834D01*
X164973160Y-100072871D01*
X164928010Y-100088843D01*
X164884263Y-100104493D01*
X164842668Y-100119568D01*
X164803974Y-100133811D01*
X164768932Y-100146968D01*
X164732291Y-100161069D01*
X164625120Y-100204534D01*
X164526648Y-100248009D01*
X164436877Y-100291492D01*
X164355810Y-100334981D01*
X164283450Y-100378475D01*
X164219800Y-100421972D01*
X164164864Y-100465470D01*
X164118645Y-100508967D01*
X164097942Y-100531266D01*
X164055126Y-100583912D01*
X164019845Y-100638009D01*
X163991759Y-100694444D01*
X163970525Y-100754105D01*
X163955801Y-100817881D01*
X163947246Y-100886660D01*
X163944517Y-100961329D01*
X163944707Y-100978892D01*
X163949460Y-101051295D01*
X163960476Y-101118472D01*
X163977590Y-101180209D01*
X164000641Y-101236288D01*
X164029465Y-101286494D01*
X164063900Y-101330609D01*
X164103782Y-101368419D01*
X164148948Y-101399707D01*
X164199237Y-101424256D01*
X164254483Y-101441851D01*
X164314525Y-101452275D01*
X164338053Y-101454202D01*
X164385752Y-101453570D01*
X164428580Y-101446160D01*
X164467112Y-101431843D01*
X164501921Y-101410491D01*
X164512714Y-101401760D01*
X164529663Y-101385037D01*
X164546421Y-101364269D01*
X164564058Y-101338077D01*
X164583642Y-101305083D01*
X164605628Y-101270893D01*
X164629955Y-101242949D01*
X164655665Y-101223251D01*
X164683055Y-101211576D01*
X164712422Y-101207698D01*
X164724967Y-101208531D01*
X164748145Y-101214309D01*
X164768341Y-101224584D01*
X164782818Y-101238174D01*
X164788088Y-101247777D01*
X164793975Y-101268182D01*
X164796388Y-101292448D01*
X164794918Y-101317874D01*
X164791883Y-101333429D01*
X164779024Y-101367930D01*
X164758443Y-101400629D01*
X164730785Y-101431044D01*
X164696693Y-101458693D01*
X164656812Y-101483093D01*
X164611786Y-101503762D01*
X164562261Y-101520217D01*
X164508879Y-101531976D01*
X164497760Y-101533758D01*
X164425984Y-101540998D01*
X164357004Y-101540480D01*
X164291166Y-101532265D01*
X164228819Y-101516415D01*
X164170308Y-101492992D01*
X164115981Y-101462057D01*
X164107024Y-101455952D01*
X164057817Y-101416360D01*
X164014847Y-101370705D01*
X163978158Y-101319055D01*
X163947794Y-101261479D01*
X163923797Y-101198048D01*
X163906213Y-101128830D01*
X163896289Y-101068442D01*
X163889392Y-100981964D01*
X163891083Y-100895947D01*
X163901284Y-100810661D01*
X163919917Y-100726376D01*
X163946905Y-100643361D01*
X163982171Y-100561884D01*
X164025635Y-100482216D01*
X164077221Y-100404625D01*
X164136851Y-100329381D01*
X164148228Y-100316408D01*
X164199638Y-100262864D01*
X164258410Y-100208768D01*
X164323552Y-100154841D01*
X164394071Y-100101803D01*
X164468975Y-100050375D01*
X164547273Y-100001279D01*
X164627970Y-99955234D01*
X164710076Y-99912963D01*
X164711736Y-99912156D01*
X164797627Y-99872115D01*
X164889813Y-99832246D01*
X164985953Y-99793463D01*
X165083704Y-99756680D01*
X165180722Y-99722809D01*
X165274665Y-99692766D01*
X165350961Y-99669596D01*
X165358101Y-99623843D01*
X165358365Y-99622157D01*
X165362616Y-99596486D01*
X165367293Y-99571370D01*
X165372614Y-99546084D01*
X165378802Y-99519901D01*
X165386076Y-99492094D01*
X165394656Y-99461937D01*
X165404764Y-99428704D01*
X165416620Y-99391668D01*
X165430444Y-99350103D01*
X165446457Y-99303283D01*
X165464880Y-99250481D01*
X165485932Y-99190971D01*
X165509835Y-99124027D01*
X165512730Y-99115943D01*
X165525115Y-99081229D01*
X165536410Y-99049378D01*
X165546304Y-99021280D01*
X165554487Y-98997824D01*
X165560647Y-98979902D01*
X165564474Y-98968402D01*
X165565656Y-98964216D01*
X165565590Y-98964208D01*
X165562080Y-98967518D01*
X165554198Y-98976179D01*
X165543042Y-98988956D01*
X165529712Y-99004613D01*
X165517727Y-99018590D01*
X165454817Y-99084977D01*
X165384153Y-99149034D01*
X165306390Y-99210275D01*
X165222184Y-99268210D01*
X165132188Y-99322350D01*
X165037058Y-99372206D01*
X165029584Y-99375828D01*
X165000524Y-99389455D01*
X164969493Y-99403270D01*
X164935961Y-99417466D01*
X164899396Y-99432237D01*
X164859265Y-99447775D01*
X164815037Y-99464272D01*
X164766179Y-99481923D01*
X164712161Y-99500920D01*
X164652449Y-99521456D01*
X164586513Y-99543724D01*
X164513819Y-99567916D01*
X164433838Y-99594226D01*
X164346035Y-99622846D01*
X164286228Y-99642289D01*
X164189002Y-99674007D01*
X164099375Y-99703410D01*
X164016884Y-99730668D01*
X163941068Y-99755949D01*
X163871463Y-99779423D01*
X163807606Y-99801257D01*
X163749036Y-99821621D01*
X163695290Y-99840683D01*
X163645904Y-99858613D01*
X163600418Y-99875580D01*
X163558367Y-99891752D01*
X163519290Y-99907297D01*
X163482723Y-99922386D01*
X163448205Y-99937186D01*
X163415273Y-99951867D01*
X163383463Y-99966598D01*
X163352315Y-99981547D01*
X163321364Y-99996883D01*
X163262289Y-100028113D01*
X163192619Y-100069403D01*
X163129136Y-100112284D01*
X163072344Y-100156357D01*
X163022749Y-100201224D01*
X162980855Y-100246488D01*
X162947167Y-100291751D01*
X162935872Y-100309944D01*
X162906298Y-100368111D01*
X162882698Y-100432446D01*
X162865054Y-100503009D01*
X162853351Y-100579862D01*
X162847571Y-100663068D01*
X162847569Y-100663142D01*
X162847556Y-100727738D01*
X162852151Y-100785956D01*
X162861635Y-100838984D01*
X162876291Y-100888013D01*
X162896399Y-100934233D01*
X162922242Y-100978833D01*
X162946671Y-101012617D01*
X162985932Y-101054868D01*
X163030248Y-101090066D01*
X163079466Y-101118128D01*
X163133432Y-101138972D01*
X163191994Y-101152515D01*
X163254997Y-101158673D01*
X163285099Y-101159266D01*
X163322596Y-101157684D01*
X163353587Y-101152683D01*
X163379182Y-101143676D01*
X163400486Y-101130081D01*
X163418609Y-101111313D01*
X163434657Y-101086787D01*
X163449737Y-101055919D01*
X163459495Y-101034292D01*
X163475753Y-101001949D01*
X163491224Y-100976454D01*
X163506588Y-100956739D01*
X163522529Y-100941734D01*
X163534135Y-100933664D01*
X163559859Y-100922066D01*
X163586725Y-100917095D01*
X163613186Y-100918568D01*
X163637697Y-100926301D01*
X163658710Y-100940110D01*
X163674678Y-100959811D01*
X163679100Y-100968247D01*
X163683064Y-100979657D01*
X163684866Y-100993272D01*
X163685152Y-101012327D01*
X163684777Y-101025607D01*
X163682898Y-101042175D01*
X163678593Y-101056931D01*
X163670889Y-101074088D01*
X163658626Y-101094802D01*
X163634191Y-101124080D01*
X163602871Y-101151699D01*
X163565750Y-101176857D01*
X163523913Y-101198751D01*
X163478442Y-101216581D01*
X163432399Y-101229302D01*
X163373440Y-101239713D01*
X163311914Y-101244989D01*
X163250159Y-101245042D01*
X163190513Y-101239789D01*
X163135312Y-101229143D01*
X163098543Y-101217167D01*
X163057351Y-101198751D01*
X163016204Y-101175804D01*
X162977260Y-101149658D01*
X162942680Y-101121644D01*
X162914623Y-101093094D01*
X162891476Y-101063065D01*
X162860502Y-101012689D01*
X162833814Y-100956183D01*
X162811841Y-100894636D01*
X162795011Y-100829138D01*
X162783754Y-100760779D01*
X162782623Y-100748139D01*
X162781674Y-100720269D01*
X162781953Y-100686613D01*
X162783361Y-100648971D01*
X162785800Y-100609139D01*
X162789171Y-100568915D01*
X162793377Y-100530096D01*
X162798319Y-100494479D01*
X162810814Y-100430293D01*
X162835086Y-100344692D01*
X162867523Y-100261673D01*
X162907935Y-100181609D01*
X162956126Y-100104869D01*
X163011906Y-100031824D01*
X163075080Y-99962845D01*
X163113176Y-99926389D01*
X163187065Y-99863503D01*
X163269198Y-99802741D01*
X163359625Y-99744073D01*
X163458396Y-99687467D01*
X163565561Y-99632890D01*
X163681171Y-99580311D01*
X163686493Y-99578022D01*
X163755255Y-99548982D01*
X163822041Y-99521835D01*
X163888163Y-99496119D01*
X163954936Y-99471368D01*
X164023671Y-99447119D01*
X164095681Y-99422908D01*
X164172281Y-99398270D01*
X164254783Y-99372742D01*
X164344499Y-99345859D01*
X164379657Y-99335461D01*
X164483190Y-99304765D01*
X164578821Y-99276281D01*
X164666919Y-99249891D01*
X164747854Y-99225473D01*
X164821994Y-99202907D01*
X164889710Y-99182074D01*
X164951370Y-99162853D01*
X165007344Y-99145123D01*
X165058002Y-99128766D01*
X165103712Y-99113661D01*
X165144844Y-99099687D01*
X165181767Y-99086724D01*
X165214851Y-99074653D01*
X165244466Y-99063353D01*
X165270979Y-99052703D01*
X165294762Y-99042585D01*
X165316182Y-99032877D01*
X165335610Y-99023460D01*
X165388341Y-98994245D01*
X165447809Y-98953898D01*
X165505220Y-98906463D01*
X165561646Y-98851125D01*
X165577491Y-98834050D01*
X165611263Y-98794829D01*
X165639569Y-98757118D01*
X165663873Y-98718875D01*
X165685638Y-98678058D01*
X165689544Y-98670104D01*
X165699287Y-98650575D01*
X165706430Y-98637293D01*
X165711874Y-98629050D01*
X165716516Y-98624638D01*
X165721255Y-98622848D01*
X165726991Y-98622471D01*
X165728046Y-98622464D01*
X165737343Y-98622882D01*
X165741160Y-98623964D01*
X165741156Y-98623993D01*
X165739472Y-98628672D01*
X165734956Y-98640646D01*
X165727912Y-98659120D01*
X165718645Y-98683302D01*
X165707460Y-98712399D01*
X165694660Y-98745617D01*
X165680551Y-98782163D01*
X165665437Y-98821243D01*
X165640751Y-98885123D01*
X165618625Y-98942677D01*
X165599264Y-98993492D01*
X165582445Y-99038256D01*
X165567945Y-99077659D01*
X165555541Y-99112392D01*
X165545010Y-99143144D01*
X165536130Y-99170604D01*
X165528676Y-99195462D01*
X165522427Y-99218408D01*
X165517159Y-99240132D01*
X165512649Y-99261323D01*
X165508676Y-99282671D01*
X165505014Y-99304865D01*
X165501442Y-99328596D01*
X165500011Y-99338937D01*
X165496114Y-99372311D01*
X165492557Y-99410039D01*
X165489479Y-99449953D01*
X165487021Y-99489891D01*
X165485320Y-99527684D01*
X165484517Y-99561169D01*
X165484750Y-99588180D01*
X165486114Y-99627596D01*
X165651785Y-99579081D01*
X165739857Y-99553177D01*
X165837622Y-99524110D01*
X165927311Y-99497071D01*
X166009128Y-99471994D01*
X166083275Y-99448811D01*
X166149957Y-99427454D01*
X166209377Y-99407856D01*
X166261738Y-99389951D01*
X166307245Y-99373670D01*
X166346099Y-99358946D01*
X166378506Y-99345712D01*
X166404669Y-99333902D01*
X166424790Y-99323446D01*
X166435333Y-99317037D01*
X166454080Y-99304581D01*
X166474934Y-99289854D01*
X166495522Y-99274585D01*
X166513473Y-99260504D01*
X166526416Y-99249339D01*
X166537813Y-99238555D01*
X166540213Y-99145153D01*
X166541289Y-99115340D01*
X166546948Y-99037680D01*
X166555010Y-98973275D01*
X166730459Y-98973275D01*
X166748748Y-98938397D01*
X166752489Y-98931197D01*
X166789201Y-98851447D01*
X166817336Y-98771435D01*
X166837019Y-98690740D01*
X166848377Y-98608941D01*
X166849399Y-98596064D01*
X166850602Y-98567851D01*
X166849720Y-98547403D01*
X166846775Y-98534960D01*
X166841787Y-98530759D01*
X166838279Y-98531917D01*
X166830638Y-98540275D01*
X166821971Y-98556034D01*
X166812518Y-98578400D01*
X166802518Y-98606581D01*
X166792211Y-98639784D01*
X166781834Y-98677217D01*
X166771629Y-98718086D01*
X166761834Y-98761598D01*
X166752687Y-98806961D01*
X166744430Y-98853381D01*
X166741140Y-98874353D01*
X166737565Y-98899682D01*
X166734688Y-98922822D01*
X166732931Y-98940577D01*
X166730459Y-98973275D01*
X166555010Y-98973275D01*
X166556520Y-98961209D01*
X166569746Y-98886842D01*
X166586368Y-98815496D01*
X166606130Y-98748088D01*
X166628774Y-98685534D01*
X166654041Y-98628752D01*
X166681675Y-98578656D01*
X166711417Y-98536166D01*
X166732205Y-98512165D01*
X166757716Y-98488859D01*
X166783228Y-98472973D01*
X166809778Y-98463893D01*
X166838406Y-98461002D01*
X166861903Y-98463446D01*
G37*
%TD*%
%LPC*%
D13*
%TO.C,J1*%
X195850000Y-100000000D03*
X196333274Y-98833274D03*
X196333274Y-101166726D03*
X197500000Y-98350000D03*
D14*
X197500000Y-100000000D03*
D13*
X197500000Y-101650000D03*
X198666726Y-98833274D03*
X198666726Y-101166726D03*
X199150000Y-100000000D03*
%TD*%
D15*
%TO.C,J7*%
X169250000Y-103500000D03*
%TD*%
D16*
%TO.C,J2*%
X154625000Y-97110000D03*
X154625000Y-102890000D03*
D17*
X155155000Y-95680000D03*
D18*
X150975000Y-95680000D03*
D17*
X155155000Y-104320000D03*
D18*
X150975000Y-104320000D03*
%TD*%
D13*
%TO.C,J3*%
X156230000Y-90850000D03*
X157396726Y-91333274D03*
X155063274Y-91333274D03*
X157880000Y-92500000D03*
D14*
X156230000Y-92500000D03*
D13*
X154580000Y-92500000D03*
X157396726Y-93666726D03*
X155063274Y-93666726D03*
X156230000Y-94150000D03*
%TD*%
D15*
%TO.C,J4*%
X188500000Y-100000000D03*
%TD*%
D13*
%TO.C,J6*%
X156230000Y-109150000D03*
X155063274Y-108666726D03*
X157396726Y-108666726D03*
X154580000Y-107500000D03*
D14*
X156230000Y-107500000D03*
D13*
X157880000Y-107500000D03*
X155063274Y-106333274D03*
X157396726Y-106333274D03*
X156230000Y-105850000D03*
%TD*%
D19*
%TO.C,L1*%
X187100000Y-110500000D03*
X177100000Y-110500000D03*
%TD*%
%LPD*%
M02*
